<svg id="Layer_1" data-name="Layer 1" xmlns="http://www.w3.org/2000/svg" width="623.998" height="264.371" viewBox="0 0 623.998 264.371"><defs><style>.cls-1,.cls-2,.cls-3{fill:none;}.cls-1{stroke:#e1e1e1;}.cls-1,.cls-2,.cls-3,.cls-5{stroke-miterlimit:10;}.cls-2{stroke:#b3b3b3;stroke-width:3px;}.cls-3{stroke:red;}.cls-3,.cls-5{stroke-width:2px;}.cls-4{fill:#202020;}.cls-5{fill:#fbb03b;stroke:#000;}</style></defs><polyline class="cls-1" points="30.041 233.991 30.041 32.735 587.332 32.735 587.332 233.991"/><line class="cls-1" x1="30.041" y1="233.991" x2="587.332" y2="233.991"/><line class="cls-1" x1="30.041" y1="215.695" x2="587.332" y2="215.695"/><line class="cls-1" x1="30.041" y1="197.399" x2="587.332" y2="197.399"/><line class="cls-1" x1="30.041" y1="179.103" x2="587.332" y2="179.103"/><line class="cls-1" x1="30.041" y1="160.807" x2="587.332" y2="160.807"/><line class="cls-1" x1="30.041" y1="142.511" x2="587.332" y2="142.511"/><line class="cls-1" x1="30.041" y1="124.215" x2="587.332" y2="124.215"/><line class="cls-1" x1="30.041" y1="105.919" x2="587.332" y2="105.919"/><line class="cls-1" x1="30.041" y1="87.623" x2="587.332" y2="87.623"/><line class="cls-1" x1="30.041" y1="69.327" x2="587.332" y2="69.327"/><line class="cls-1" x1="30.041" y1="51.031" x2="587.332" y2="51.031"/><line class="cls-1" x1="569.355" y1="32.735" x2="569.355" y2="233.991"/><line class="cls-1" x1="551.378" y1="32.735" x2="551.378" y2="233.991"/><line class="cls-1" x1="533.401" y1="32.735" x2="533.401" y2="233.991"/><line class="cls-1" x1="515.424" y1="32.735" x2="515.424" y2="233.991"/><line class="cls-1" x1="497.447" y1="32.735" x2="497.447" y2="233.991"/><line class="cls-1" x1="479.47" y1="32.735" x2="479.47" y2="233.991"/><line class="cls-2" x1="461.492" y1="32.735" x2="461.492" y2="233.991"/><line class="cls-1" x1="443.515" y1="32.735" x2="443.515" y2="233.991"/><line class="cls-1" x1="425.538" y1="32.735" x2="425.538" y2="233.991"/><line class="cls-1" x1="407.561" y1="32.735" x2="407.561" y2="233.991"/><line class="cls-1" x1="389.584" y1="32.735" x2="389.584" y2="233.991"/><line class="cls-1" x1="371.607" y1="32.735" x2="371.607" y2="233.991"/><line class="cls-1" x1="353.63" y1="32.735" x2="353.63" y2="233.991"/><line class="cls-1" x1="335.653" y1="32.735" x2="335.653" y2="233.991"/><line class="cls-1" x1="317.675" y1="32.735" x2="317.675" y2="233.991"/><line class="cls-1" x1="299.698" y1="32.735" x2="299.698" y2="233.991"/><line class="cls-1" x1="281.721" y1="32.735" x2="281.721" y2="233.991"/><line class="cls-1" x1="263.744" y1="32.735" x2="263.744" y2="233.991"/><line class="cls-1" x1="245.767" y1="32.735" x2="245.767" y2="233.991"/><line class="cls-1" x1="227.79" y1="32.735" x2="227.79" y2="233.991"/><line class="cls-1" x1="209.813" y1="32.735" x2="209.813" y2="233.991"/><line class="cls-1" x1="191.835" y1="32.735" x2="191.835" y2="233.991"/><line class="cls-1" x1="173.858" y1="32.735" x2="173.858" y2="233.991"/><line class="cls-1" x1="155.881" y1="32.735" x2="155.881" y2="233.991"/><line class="cls-1" x1="137.904" y1="32.735" x2="137.904" y2="233.991"/><line class="cls-1" x1="119.927" y1="32.735" x2="119.927" y2="233.991"/><line class="cls-2" x1="101.95" y1="32.735" x2="101.95" y2="233.991"/><line class="cls-1" x1="83.973" y1="32.735" x2="83.973" y2="233.991"/><line class="cls-1" x1="65.996" y1="32.735" x2="65.996" y2="233.991"/><line class="cls-1" x1="48.018" y1="32.735" x2="48.018" y2="233.991"/><path d="M575.067,248.384a5.182,5.182,0,0,1-.273,1.785,3.025,3.025,0,0,1-.782,1.21,3.138,3.138,0,0,1-1.239.688,6.053,6.053,0,0,1-1.738.22h-1.81a.475.475,0,0,1-.325-.115.468.468,0,0,1-.132-.372v-6.609a.468.468,0,0,1,.132-.372.479.479,0,0,1,.325-.114h1.945a5.448,5.448,0,0,1,1.72.237,3.114,3.114,0,0,1,1.189.7,3.008,3.008,0,0,1,.736,1.152A4.588,4.588,0,0,1,575.067,248.384Zm-1.594.053a3.809,3.809,0,0,0-.126-1,2.15,2.15,0,0,0-.4-.8,1.884,1.884,0,0,0-.715-.53,2.9,2.9,0,0,0-1.146-.19H570.3v5.156h.8a3.035,3.035,0,0,0,1.066-.164,1.782,1.782,0,0,0,.724-.5,2.133,2.133,0,0,0,.433-.823A4.113,4.113,0,0,0,573.473,248.437Z"/><path d="M577.832,245.091a.83.83,0,0,1-.181.616,1.438,1.438,0,0,1-1.345.006.8.8,0,0,1-.173-.592.846.846,0,0,1,.179-.618,1.415,1.415,0,0,1,1.345-.006A.8.8,0,0,1,577.832,245.091Zm-.111,7a.16.16,0,0,1-.035.1.262.262,0,0,1-.12.073,1.037,1.037,0,0,1-.226.044,4.268,4.268,0,0,1-.715,0,1.026,1.026,0,0,1-.225-.044.252.252,0,0,1-.12-.073.155.155,0,0,1-.036-.1v-5.215a.158.158,0,0,1,.036-.1.27.27,0,0,1,.12-.076.987.987,0,0,1,.225-.05,3.768,3.768,0,0,1,.715,0,1,1,0,0,1,.226.05.282.282,0,0,1,.12.076.162.162,0,0,1,.035.1Z"/><path d="M582.871,250.611a1.747,1.747,0,0,1-.167.785,1.551,1.551,0,0,1-.471.568,2.114,2.114,0,0,1-.721.343,3.4,3.4,0,0,1-.9.115,3.473,3.473,0,0,1-.56-.044,3.431,3.431,0,0,1-.477-.112,2.629,2.629,0,0,1-.352-.137.865.865,0,0,1-.205-.132.415.415,0,0,1-.1-.194,1.636,1.636,0,0,1-.035-.389,2.461,2.461,0,0,1,.012-.273.691.691,0,0,1,.035-.164.155.155,0,0,1,.059-.082.166.166,0,0,1,.088-.02.437.437,0,0,1,.19.073c.084.049.188.1.313.161a3.31,3.31,0,0,0,.437.164,1.922,1.922,0,0,0,.565.076,1.369,1.369,0,0,0,.355-.041.88.88,0,0,0,.269-.117.492.492,0,0,0,.173-.193.6.6,0,0,0,.059-.27.445.445,0,0,0-.109-.3.951.951,0,0,0-.287-.219,3.281,3.281,0,0,0-.4-.176c-.15-.055-.3-.115-.463-.182a4.225,4.225,0,0,1-.463-.228,1.774,1.774,0,0,1-.4-.317,1.433,1.433,0,0,1-.287-.451,1.669,1.669,0,0,1-.109-.633,1.6,1.6,0,0,1,.147-.688,1.493,1.493,0,0,1,.422-.536,1.98,1.98,0,0,1,.671-.346,2.976,2.976,0,0,1,.887-.123,3.239,3.239,0,0,1,.478.035,3.649,3.649,0,0,1,.419.088,1.984,1.984,0,0,1,.316.114,1,1,0,0,1,.185.106.287.287,0,0,1,.079.088.36.36,0,0,1,.035.1c.008.041.015.092.021.152s.008.136.008.226c0,.106,0,.191-.008.258a.662.662,0,0,1-.03.158.14.14,0,0,1-.055.079.159.159,0,0,1-.082.021.4.4,0,0,1-.164-.062,3.032,3.032,0,0,0-.279-.132,3.255,3.255,0,0,0-.386-.132,1.868,1.868,0,0,0-.5-.061,1.308,1.308,0,0,0-.346.041.641.641,0,0,0-.24.117.492.492,0,0,0-.141.179.523.523,0,0,0-.047.22.436.436,0,0,0,.111.3,1.025,1.025,0,0,0,.293.217,3.372,3.372,0,0,0,.413.176c.155.055.311.114.469.179a4.186,4.186,0,0,1,.469.225,1.78,1.78,0,0,1,.413.317,1.456,1.456,0,0,1,.293.448A1.572,1.572,0,0,1,582.871,250.611Z"/><path d="M586.938,251.572a1.868,1.868,0,0,1-.032.4.436.436,0,0,1-.085.194.466.466,0,0,1-.156.1,1.414,1.414,0,0,1-.24.077,2.456,2.456,0,0,1-.3.049,2.923,2.923,0,0,1-.325.018,2.346,2.346,0,0,1-.762-.111,1.283,1.283,0,0,1-.533-.343,1.429,1.429,0,0,1-.31-.583,3.053,3.053,0,0,1-.1-.832v-2.678h-.627c-.074,0-.131-.046-.17-.138a1.285,1.285,0,0,1-.058-.46,2.337,2.337,0,0,1,.014-.287.719.719,0,0,1,.044-.184.223.223,0,0,1,.073-.1.188.188,0,0,1,.1-.029h.621V245.5a.189.189,0,0,1,.032-.106.252.252,0,0,1,.117-.079.969.969,0,0,1,.229-.047c.1-.009.214-.014.354-.014s.265,0,.361.014a.909.909,0,0,1,.225.047.273.273,0,0,1,.118.079.177.177,0,0,1,.035.106v1.166H586.7a.186.186,0,0,1,.1.029.216.216,0,0,1,.073.1.679.679,0,0,1,.044.184,2.314,2.314,0,0,1,.015.287,1.28,1.28,0,0,1-.059.46c-.039.092-.1.138-.17.138h-1.142v2.455a1.234,1.234,0,0,0,.134.642.525.525,0,0,0,.481.214.973.973,0,0,0,.211-.021,1.359,1.359,0,0,0,.167-.047c.049-.017.09-.033.123-.047a.25.25,0,0,1,.091-.02.127.127,0,0,1,.067.02.138.138,0,0,1,.05.082,1.28,1.28,0,0,1,.032.167A2,2,0,0,1,586.938,251.572Z"/><path d="M592.34,252.105a.155.155,0,0,1-.058.129.4.4,0,0,1-.185.067,2.443,2.443,0,0,1-.372.021,2.48,2.48,0,0,1-.384-.021.327.327,0,0,1-.17-.067.169.169,0,0,1-.05-.129v-.416a2.362,2.362,0,0,1-.735.539,2.134,2.134,0,0,1-.917.194,2.58,2.58,0,0,1-.765-.109,1.729,1.729,0,0,1-.6-.322,1.455,1.455,0,0,1-.4-.53,1.818,1.818,0,0,1-.14-.739,1.676,1.676,0,0,1,.178-.794,1.456,1.456,0,0,1,.534-.556,2.634,2.634,0,0,1,.881-.325,6.251,6.251,0,0,1,1.225-.106h.51v-.316a1.673,1.673,0,0,0-.05-.431.719.719,0,0,0-.164-.308.676.676,0,0,0-.3-.181,1.624,1.624,0,0,0-.471-.059,2.423,2.423,0,0,0-.66.082,3.726,3.726,0,0,0-.512.182c-.149.066-.273.127-.372.181a.543.543,0,0,1-.243.082.173.173,0,0,1-.115-.041.3.3,0,0,1-.082-.117.851.851,0,0,1-.05-.187,1.677,1.677,0,0,1-.017-.246,1.14,1.14,0,0,1,.029-.287.453.453,0,0,1,.111-.191,1.087,1.087,0,0,1,.288-.187,3.284,3.284,0,0,1,.48-.191,4.533,4.533,0,0,1,.6-.143,4.4,4.4,0,0,1,1.722.064,1.771,1.771,0,0,1,.718.369,1.43,1.43,0,0,1,.41.642,3,3,0,0,1,.129.931Zm-1.447-2.238h-.563a2.959,2.959,0,0,0-.609.053,1.148,1.148,0,0,0-.41.158.646.646,0,0,0-.232.255.778.778,0,0,0-.073.342.658.658,0,0,0,.208.516.832.832,0,0,0,.577.188,1.08,1.08,0,0,0,.572-.159,2.36,2.36,0,0,0,.53-.463Z"/><path d="M598.8,252.088a.16.16,0,0,1-.035.1.262.262,0,0,1-.117.073.989.989,0,0,1-.226.044,3.5,3.5,0,0,1-.354.015,3.584,3.584,0,0,1-.361-.015.979.979,0,0,1-.225-.044.26.26,0,0,1-.118-.073.16.16,0,0,1-.035-.1v-2.983a2.532,2.532,0,0,0-.055-.6,1.193,1.193,0,0,0-.161-.372.734.734,0,0,0-.273-.24.856.856,0,0,0-.39-.085.981.981,0,0,0-.568.2,3.084,3.084,0,0,0-.6.6v3.475a.154.154,0,0,1-.035.1.252.252,0,0,1-.12.073,1.038,1.038,0,0,1-.225.044,4.268,4.268,0,0,1-.715,0,1.037,1.037,0,0,1-.226-.044.252.252,0,0,1-.12-.073.16.16,0,0,1-.035-.1v-5.227a.188.188,0,0,1,.029-.1.223.223,0,0,1,.106-.073.87.87,0,0,1,.2-.044,2.539,2.539,0,0,1,.3-.014,2.665,2.665,0,0,1,.31.014.741.741,0,0,1,.191.044.214.214,0,0,1,.1.073.181.181,0,0,1,.03.1v.6a3.352,3.352,0,0,1,.881-.7,2,2,0,0,1,.935-.234,2.07,2.07,0,0,1,.9.176,1.564,1.564,0,0,1,.592.477,1.925,1.925,0,0,1,.325.706,4.089,4.089,0,0,1,.1.973Z"/><path d="M604.205,251.255c0,.1,0,.187-.008.255a1.445,1.445,0,0,1-.024.173.517.517,0,0,1-.035.114.421.421,0,0,1-.091.112,1.324,1.324,0,0,1-.24.164,2.4,2.4,0,0,1-.387.173,3.08,3.08,0,0,1-.471.123,2.921,2.921,0,0,1-.525.047,2.844,2.844,0,0,1-1.069-.188,1.988,1.988,0,0,1-.782-.554,2.429,2.429,0,0,1-.478-.893,4.7,4.7,0,0,1,.035-2.564,2.607,2.607,0,0,1,.548-.946,2.2,2.2,0,0,1,.832-.557,2.962,2.962,0,0,1,1.055-.181,2.671,2.671,0,0,1,.882.152,2.34,2.34,0,0,1,.351.158,1.077,1.077,0,0,1,.22.153.647.647,0,0,1,.091.108.4.4,0,0,1,.041.114c.009.047.017.105.023.173s.009.152.009.249a1.354,1.354,0,0,1-.059.478c-.039.092-.09.137-.152.137a.359.359,0,0,1-.211-.082c-.074-.054-.162-.115-.264-.181a1.917,1.917,0,0,0-.363-.182,1.383,1.383,0,0,0-.5-.082,1,1,0,0,0-.879.443,2.284,2.284,0,0,0-.3,1.3,3.248,3.248,0,0,0,.076.745,1.612,1.612,0,0,0,.225.539.958.958,0,0,0,.375.325,1.207,1.207,0,0,0,.525.108,1.357,1.357,0,0,0,.524-.091,2.087,2.087,0,0,0,.384-.2c.109-.074.2-.141.275-.2a.333.333,0,0,1,.188-.091.132.132,0,0,1,.088.03.2.2,0,0,1,.055.108,1.306,1.306,0,0,1,.033.2C604.2,251.021,604.205,251.127,604.205,251.255Z"/><path d="M610.1,249.322a.567.567,0,0,1-.12.4.431.431,0,0,1-.331.129h-3.182a2.166,2.166,0,0,0,.079.607,1.168,1.168,0,0,0,.252.463,1.1,1.1,0,0,0,.445.29,1.923,1.923,0,0,0,.654.1,3.678,3.678,0,0,0,.679-.055,4.865,4.865,0,0,0,.507-.123c.143-.045.261-.086.355-.124a.659.659,0,0,1,.228-.055.179.179,0,0,1,.088.02.152.152,0,0,1,.059.074.514.514,0,0,1,.032.149q.009.1.009.243c0,.086,0,.159-.006.22a1.36,1.36,0,0,1-.018.155.349.349,0,0,1-.035.109.389.389,0,0,1-.061.084.708.708,0,0,1-.208.112,3.314,3.314,0,0,1-.434.138c-.176.044-.377.084-.6.117a5.053,5.053,0,0,1-.727.05,3.855,3.855,0,0,1-1.222-.176,2.184,2.184,0,0,1-.876-.533,2.228,2.228,0,0,1-.524-.9,4.242,4.242,0,0,1-.173-1.277,4.062,4.062,0,0,1,.182-1.257,2.641,2.641,0,0,1,.527-.949,2.274,2.274,0,0,1,.841-.595,2.887,2.887,0,0,1,1.116-.205,2.917,2.917,0,0,1,1.122.193,2.027,2.027,0,0,1,.765.536,2.157,2.157,0,0,1,.439.812,3.522,3.522,0,0,1,.141,1.02Zm-1.43-.422a1.515,1.515,0,0,0-.249-.976.964.964,0,0,0-.823-.354,1.068,1.068,0,0,0-.489.105,1,1,0,0,0-.346.285,1.291,1.291,0,0,0-.211.421,2.11,2.11,0,0,0-.085.519Z"/><path d="M19.079,18.931a.492.492,0,0,1-.076.161.3.3,0,0,1-.152.094,1.254,1.254,0,0,1-.287.041c-.121.006-.28.008-.475.008l-.4,0c-.112,0-.206-.007-.284-.015a1.013,1.013,0,0,1-.191-.035.44.44,0,0,1-.123-.059.246.246,0,0,1-.076-.085.717.717,0,0,1-.05-.126l-2.256-6.72a1.824,1.824,0,0,1-.085-.334.2.2,0,0,1,.059-.185.454.454,0,0,1,.249-.076q.176-.015.492-.015c.18,0,.32,0,.422.012a.921.921,0,0,1,.234.041.2.2,0,0,1,.115.088.906.906,0,0,1,.061.146L18.1,17.718h.006l1.81-5.818a.6.6,0,0,1,.059-.162.228.228,0,0,1,.12-.1.813.813,0,0,1,.243-.047c.106-.008.25-.012.434-.012a3.74,3.74,0,0,1,.419.018.3.3,0,0,1,.2.085.227.227,0,0,1,.035.19,2.188,2.188,0,0,1-.091.328Z"/><path d="M27.042,16.335a3.971,3.971,0,0,1-.176,1.219,2.562,2.562,0,0,1-.533.949,2.359,2.359,0,0,1-.9.615,3.355,3.355,0,0,1-1.26.217,3.45,3.45,0,0,1-1.213-.193,2.177,2.177,0,0,1-.855-.563,2.3,2.3,0,0,1-.5-.908,4.206,4.206,0,0,1-.164-1.23,3.964,3.964,0,0,1,.178-1.222,2.572,2.572,0,0,1,.537-.949,2.394,2.394,0,0,1,.893-.613,3.352,3.352,0,0,1,1.257-.216,3.519,3.519,0,0,1,1.219.19,2.122,2.122,0,0,1,.852.56,2.316,2.316,0,0,1,.5.908A4.224,4.224,0,0,1,27.042,16.335Zm-1.517.059a3.837,3.837,0,0,0-.062-.712,1.667,1.667,0,0,0-.208-.566,1.037,1.037,0,0,0-.389-.375,1.255,1.255,0,0,0-.613-.134,1.294,1.294,0,0,0-.574.12,1.027,1.027,0,0,0-.4.351,1.683,1.683,0,0,0-.238.557,3.189,3.189,0,0,0-.079.741,3.664,3.664,0,0,0,.065.712,1.75,1.75,0,0,0,.208.565.983.983,0,0,0,.389.373,1.292,1.292,0,0,0,.61.131,1.311,1.311,0,0,0,.58-.12,1.036,1.036,0,0,0,.4-.348,1.607,1.607,0,0,0,.235-.554A3.311,3.311,0,0,0,25.525,16.394Z"/><path d="M29.685,19a.164.164,0,0,1-.035.1.271.271,0,0,1-.12.073,1.1,1.1,0,0,1-.226.044,4.572,4.572,0,0,1-.715,0,1.075,1.075,0,0,1-.225-.044.269.269,0,0,1-.121-.073.164.164,0,0,1-.035-.1V11.3a.172.172,0,0,1,.035-.1.266.266,0,0,1,.121-.08.98.98,0,0,1,.225-.049,3.559,3.559,0,0,1,.715,0,1,1,0,0,1,.226.049.268.268,0,0,1,.12.08.172.172,0,0,1,.035.1Z"/><path d="M36.113,19a.181.181,0,0,1-.03.1.214.214,0,0,1-.1.073.837.837,0,0,1-.194.044,2.521,2.521,0,0,1-.3.014,2.671,2.671,0,0,1-.314-.014.775.775,0,0,1-.19-.044.223.223,0,0,1-.1-.073.188.188,0,0,1-.029-.1v-.6a3.34,3.34,0,0,1-.882.7,1.982,1.982,0,0,1-.929.234,2.086,2.086,0,0,1-.905-.176,1.567,1.567,0,0,1-.592-.48,1.934,1.934,0,0,1-.322-.706,4.324,4.324,0,0,1-.1-1v-3.2a.171.171,0,0,1,.032-.1.239.239,0,0,1,.118-.073,1.021,1.021,0,0,1,.228-.044,4.232,4.232,0,0,1,.712,0,1.037,1.037,0,0,1,.226.044.262.262,0,0,1,.12.073.16.16,0,0,1,.035.1v2.953a2.836,2.836,0,0,0,.053.627,1.106,1.106,0,0,0,.161.372.748.748,0,0,0,.275.24.846.846,0,0,0,.39.085.961.961,0,0,0,.565-.2,3.369,3.369,0,0,0,.607-.6V13.775a.164.164,0,0,1,.032-.1A.236.236,0,0,1,34.8,13.6a1.037,1.037,0,0,1,.226-.044,4.268,4.268,0,0,1,.715,0,.971.971,0,0,1,.222.044.251.251,0,0,1,.117.073.156.156,0,0,1,.036.1Z"/><path d="M45.909,19a.159.159,0,0,1-.035.1.259.259,0,0,1-.117.073,1.039,1.039,0,0,1-.223.044,3.5,3.5,0,0,1-.357.014,3.6,3.6,0,0,1-.363-.014,1.1,1.1,0,0,1-.226-.044.243.243,0,0,1-.117-.073.175.175,0,0,1-.032-.1V15.9a2.164,2.164,0,0,0-.05-.48,1.121,1.121,0,0,0-.152-.372.721.721,0,0,0-.258-.24.763.763,0,0,0-.372-.085.877.877,0,0,0-.533.205,3.58,3.58,0,0,0-.586.6V19a.16.16,0,0,1-.036.1.26.26,0,0,1-.12.073,1.089,1.089,0,0,1-.225.044,3.456,3.456,0,0,1-.352.014,3.511,3.511,0,0,1-.357-.014,1.1,1.1,0,0,1-.226-.044.265.265,0,0,1-.12-.073.164.164,0,0,1-.035-.1V15.9a2.164,2.164,0,0,0-.05-.48,1.163,1.163,0,0,0-.149-.372.69.69,0,0,0-.258-.24.767.767,0,0,0-.369-.085.884.884,0,0,0-.539.205,3.425,3.425,0,0,0-.58.6V19a.16.16,0,0,1-.036.1.26.26,0,0,1-.12.073,1.089,1.089,0,0,1-.225.044,4.572,4.572,0,0,1-.715,0,1.1,1.1,0,0,1-.226-.044.271.271,0,0,1-.12-.073A.164.164,0,0,1,37.6,19V13.775a.183.183,0,0,1,.029-.1.216.216,0,0,1,.106-.073.83.83,0,0,1,.2-.044,2.512,2.512,0,0,1,.3-.015,2.635,2.635,0,0,1,.31.015.7.7,0,0,1,.191.044.207.207,0,0,1,.1.073.176.176,0,0,1,.03.1v.6a3.461,3.461,0,0,1,.864-.7,1.858,1.858,0,0,1,.9-.234,2.3,2.3,0,0,1,.581.067,1.651,1.651,0,0,1,.459.193,1.453,1.453,0,0,1,.349.3,1.715,1.715,0,0,1,.246.393,4.431,4.431,0,0,1,.46-.434,2.746,2.746,0,0,1,.445-.3,2.045,2.045,0,0,1,.44-.17,1.82,1.82,0,0,1,.448-.055,1.981,1.981,0,0,1,.879.175,1.549,1.549,0,0,1,.577.478,1.917,1.917,0,0,1,.314.706,3.8,3.8,0,0,1,.093.855Z"/><path d="M52.185,16.235a.57.57,0,0,1-.12.4.431.431,0,0,1-.331.129H48.552a2.159,2.159,0,0,0,.079.606,1.161,1.161,0,0,0,.252.463,1.1,1.1,0,0,0,.445.29,1.9,1.9,0,0,0,.654.1,3.671,3.671,0,0,0,.679-.056,4.4,4.4,0,0,0,.507-.123c.143-.045.261-.086.355-.123a.659.659,0,0,1,.228-.056.169.169,0,0,1,.088.021.154.154,0,0,1,.059.073.514.514,0,0,1,.032.15q.009.1.009.243,0,.129-.006.219a1.353,1.353,0,0,1-.018.156.334.334,0,0,1-.035.108.394.394,0,0,1-.061.085.714.714,0,0,1-.208.111,3.314,3.314,0,0,1-.434.138,5.888,5.888,0,0,1-.6.117,5.053,5.053,0,0,1-.727.05,3.855,3.855,0,0,1-1.222-.176,2.184,2.184,0,0,1-.876-.533,2.218,2.218,0,0,1-.524-.9,4.249,4.249,0,0,1-.173-1.278,4.06,4.06,0,0,1,.182-1.256,2.646,2.646,0,0,1,.527-.95,2.264,2.264,0,0,1,.841-.594,2.887,2.887,0,0,1,1.116-.205,2.917,2.917,0,0,1,1.122.193,2.027,2.027,0,0,1,.765.536,2.171,2.171,0,0,1,.439.812A3.52,3.52,0,0,1,52.185,16Zm-1.43-.421a1.513,1.513,0,0,0-.249-.976.964.964,0,0,0-.823-.354,1.068,1.068,0,0,0-.489.105,1,1,0,0,0-.346.284,1.3,1.3,0,0,0-.211.422,2.1,2.1,0,0,0-.085.519Z"/><line class="cls-3" x1="101.95" y1="32.735" x2="461.492" y2="233.991"/><line class="cls-3" x1="30.041" y1="32.735" x2="101.95" y2="32.735"/><line x1="30.041" y1="234.894" x2="30.041" y2="23.371"/><polygon class="cls-4" points="31.231 234.894 31.231 29.065 33.33 29.065 30.041 23.371 26.753 29.065 28.851 29.065 28.851 234.894 31.231 234.894"/><line x1="30.041" y1="234.894" x2="597.998" y2="234.894"/><polygon class="cls-4" points="30.041 236.084 592.305 236.084 592.305 238.183 597.998 234.894 592.305 231.606 592.305 233.704 30.041 233.704 30.041 236.084"/><circle class="cls-5" cx="101.95" cy="32.645" r="12.509"/><path d="M101.674,36.3a.183.183,0,0,1-.032.1.229.229,0,0,1-.117.076,1.144,1.144,0,0,1-.226.047,2.908,2.908,0,0,1-.357.018,2.854,2.854,0,0,1-.352-.018,1.078,1.078,0,0,1-.223-.047.248.248,0,0,1-.117-.076.172.172,0,0,1-.035-.1v-6.17H100.2l-2.2,6.164a.289.289,0,0,1-.076.126.379.379,0,0,1-.144.079.989.989,0,0,1-.231.038c-.094.006-.207.009-.34.009a3.276,3.276,0,0,1-.34-.015,1,1,0,0,1-.231-.047A.424.424,0,0,1,96.5,36.4a.227.227,0,0,1-.07-.111l-2.121-6.164H94.3V36.3a.183.183,0,0,1-.032.1.231.231,0,0,1-.12.076,1.211,1.211,0,0,1-.226.047,3.47,3.47,0,0,1-.706,0,1.117,1.117,0,0,1-.225-.047.228.228,0,0,1-.118-.076.183.183,0,0,1-.032-.1V29.539A.619.619,0,0,1,93,29.082a.569.569,0,0,1,.422-.159h1.008a2.133,2.133,0,0,1,.463.044.916.916,0,0,1,.334.147.819.819,0,0,1,.234.269,1.868,1.868,0,0,1,.164.414l1.641,4.517h.023l1.7-4.506a2.287,2.287,0,0,1,.167-.416.958.958,0,0,1,.211-.275.705.705,0,0,1,.284-.15,1.489,1.489,0,0,1,.381-.044h1.037a.815.815,0,0,1,.272.041.474.474,0,0,1,.188.121.51.51,0,0,1,.111.193.834.834,0,0,1,.038.261Z"/><path d="M104.826,29.31a.826.826,0,0,1-.181.615,1.438,1.438,0,0,1-1.345.006.8.8,0,0,1-.173-.592.85.85,0,0,1,.179-.618,1.415,1.415,0,0,1,1.345-.006A.807.807,0,0,1,104.826,29.31Zm-.111,7a.162.162,0,0,1-.035.1.257.257,0,0,1-.12.073,1.037,1.037,0,0,1-.226.044,4.268,4.268,0,0,1-.715,0,1.026,1.026,0,0,1-.225-.044.252.252,0,0,1-.12-.073.157.157,0,0,1-.035-.1V31.091a.154.154,0,0,1,.035-.1.27.27,0,0,1,.12-.076.987.987,0,0,1,.225-.05,3.559,3.559,0,0,1,.715,0,1,1,0,0,1,.226.05.276.276,0,0,1,.12.076.16.16,0,0,1,.035.1Z"/><path d="M111.178,36.306a.162.162,0,0,1-.035.1.262.262,0,0,1-.117.073.989.989,0,0,1-.226.044,3.5,3.5,0,0,1-.354.015,3.584,3.584,0,0,1-.361-.015.979.979,0,0,1-.225-.044.26.26,0,0,1-.118-.073.162.162,0,0,1-.035-.1V33.324a2.532,2.532,0,0,0-.055-.6,1.193,1.193,0,0,0-.161-.372.734.734,0,0,0-.273-.24.843.843,0,0,0-.39-.085.974.974,0,0,0-.568.2,3.084,3.084,0,0,0-.6.6v3.474a.157.157,0,0,1-.035.1.252.252,0,0,1-.12.073,1.038,1.038,0,0,1-.225.044,4.268,4.268,0,0,1-.715,0,1.037,1.037,0,0,1-.226-.044.252.252,0,0,1-.12-.073.162.162,0,0,1-.035-.1V31.08a.186.186,0,0,1,.029-.1.216.216,0,0,1,.106-.073.818.818,0,0,1,.2-.044,2.512,2.512,0,0,1,.3-.015,2.635,2.635,0,0,1,.31.015.7.7,0,0,1,.191.044.207.207,0,0,1,.1.073.178.178,0,0,1,.03.1v.6a3.332,3.332,0,0,1,.881-.7,2,2,0,0,1,.935-.234,2.056,2.056,0,0,1,.9.176,1.564,1.564,0,0,1,.592.477,1.925,1.925,0,0,1,.325.706,4.089,4.089,0,0,1,.1.973Z"/><line class="cls-3" x1="462.204" y1="232.816" x2="587.332" y2="232.816"/><circle class="cls-5" cx="461.492" cy="234.894" r="12.509"/><path d="M460.247,237.537a.176.176,0,0,1-.032.1.221.221,0,0,1-.117.076,1.076,1.076,0,0,1-.226.047,2.9,2.9,0,0,1-.357.018,2.854,2.854,0,0,1-.352-.018,1,1,0,0,1-.222-.047.238.238,0,0,1-.117-.076.167.167,0,0,1-.036-.1v-6.17h-.011l-2.2,6.164a.278.278,0,0,1-.076.126.382.382,0,0,1-.143.079,1.008,1.008,0,0,1-.232.038c-.094.006-.207.009-.34.009a3.255,3.255,0,0,1-.339-.015,1.014,1.014,0,0,1-.232-.047.428.428,0,0,1-.143-.079.222.222,0,0,1-.071-.111l-2.121-6.164h-.012v6.17a.176.176,0,0,1-.032.1.223.223,0,0,1-.12.076,1.135,1.135,0,0,1-.226.047,2.81,2.81,0,0,1-.354.018,2.854,2.854,0,0,1-.352-.018,1.065,1.065,0,0,1-.225-.047.221.221,0,0,1-.117-.076.177.177,0,0,1-.033-.1v-6.756a.616.616,0,0,1,.159-.457.566.566,0,0,1,.421-.158H453a2.073,2.073,0,0,1,.463.044.9.9,0,0,1,.334.146.826.826,0,0,1,.235.27,1.96,1.96,0,0,1,.164.413l1.64,4.517h.024l1.7-4.506a2.393,2.393,0,0,1,.167-.416.958.958,0,0,1,.211-.275.7.7,0,0,1,.284-.149,1.446,1.446,0,0,1,.381-.044h1.037a.79.79,0,0,1,.272.041.455.455,0,0,1,.188.12.518.518,0,0,1,.111.193.806.806,0,0,1,.038.261Z"/><path d="M466.265,237.566a.156.156,0,0,1-.059.129.394.394,0,0,1-.184.067,2.443,2.443,0,0,1-.372.021,2.48,2.48,0,0,1-.384-.021.327.327,0,0,1-.17-.067.169.169,0,0,1-.05-.129v-.416a2.39,2.39,0,0,1-.735.539,2.137,2.137,0,0,1-.917.193,2.576,2.576,0,0,1-.765-.108,1.729,1.729,0,0,1-.6-.322,1.464,1.464,0,0,1-.4-.53,1.8,1.8,0,0,1-.14-.739,1.676,1.676,0,0,1,.178-.794,1.454,1.454,0,0,1,.533-.556,2.67,2.67,0,0,1,.882-.326,6.335,6.335,0,0,1,1.225-.105h.51v-.316a1.673,1.673,0,0,0-.05-.431.719.719,0,0,0-.164-.308.676.676,0,0,0-.305-.181,1.626,1.626,0,0,0-.472-.059,2.415,2.415,0,0,0-.659.082,3.726,3.726,0,0,0-.512.182c-.149.066-.273.127-.373.181a.536.536,0,0,1-.243.082.17.17,0,0,1-.114-.041.3.3,0,0,1-.082-.117.851.851,0,0,1-.05-.187,1.7,1.7,0,0,1-.017-.246,1.109,1.109,0,0,1,.029-.288.446.446,0,0,1,.111-.19,1.1,1.1,0,0,1,.287-.187,3.345,3.345,0,0,1,.481-.191,4.517,4.517,0,0,1,.6-.143,3.887,3.887,0,0,1,.671-.056,4.013,4.013,0,0,1,1.052.12,1.777,1.777,0,0,1,.718.369,1.439,1.439,0,0,1,.41.642,2.99,2.99,0,0,1,.129.931Zm-1.447-2.238h-.563a3.037,3.037,0,0,0-.609.052,1.167,1.167,0,0,0-.41.159.646.646,0,0,0-.232.255.761.761,0,0,0-.073.342.658.658,0,0,0,.208.516.831.831,0,0,0,.577.187,1.073,1.073,0,0,0,.571-.158,2.341,2.341,0,0,0,.531-.463Z"/><path d="M472.165,237.443a.356.356,0,0,1,.044.164.129.129,0,0,1-.085.106.741.741,0,0,1-.252.055c-.113.01-.263.015-.451.015s-.317,0-.425-.009a1.235,1.235,0,0,1-.252-.035.355.355,0,0,1-.134-.065.24.24,0,0,1-.068-.1l-.967-1.858-.966,1.858a.255.255,0,0,1-.065.1.32.32,0,0,1-.126.065,1.07,1.07,0,0,1-.237.035c-.1.006-.234.009-.4.009s-.309,0-.411-.015a.582.582,0,0,1-.222-.055.13.13,0,0,1-.074-.106.352.352,0,0,1,.05-.164l1.448-2.572-1.336-2.414a.451.451,0,0,1-.056-.179.118.118,0,0,1,.073-.114.689.689,0,0,1,.243-.059,4.528,4.528,0,0,1,.454-.017c.172,0,.31,0,.414.008a1.811,1.811,0,0,1,.243.027.267.267,0,0,1,.129.055.361.361,0,0,1,.07.1l.932,1.746.925-1.746a.237.237,0,0,1,.053-.082.279.279,0,0,1,.111-.059,1.137,1.137,0,0,1,.208-.035c.088-.008.208-.011.361-.011.172,0,.309,0,.413.011a.53.53,0,0,1,.222.053.121.121,0,0,1,.065.114.464.464,0,0,1-.067.191l-1.3,2.373Z"/></svg>