<svg id="Layer_1" data-name="Layer 1" xmlns="http://www.w3.org/2000/svg" width="310" height="271" viewBox="0 0 310 271"><defs><style>.cls-1{fill:#f9f9f9;}.cls-2{fill:#fff;}.cls-2,.cls-3{stroke:#000;stroke-miterlimit:10;}.cls-3{fill:none;}</style></defs><rect class="cls-1" width="310" height="271"/><circle class="cls-2" cx="155" cy="135.52" r="87.224"/><path d="M269.53,139.722h-4.29l-6.719,6.225V125.093l6.745,6.225h4.264Z"/><circle class="cls-3" cx="155" cy="135.52" r="87.224"/><path d="M40.47,131.318h4.29l6.719-6.225v20.854l-6.745-6.225H40.47Z"/><path d="M160.815,20.97v4.29l6.224,6.719H146.186l6.225-6.745V20.97Z"/><path d="M94.071,38.347l2.461,3.514,8.953,1.934L88.4,55.756l1.231-9.095-2.446-3.493Z"/><path d="M215.929,232.653l-2.461-3.514-8.953-1.934L221.6,215.244l-1.231,9.095,2.446,3.493Z"/><path d="M225.455,45.018l-2.461,3.514,1.245,9.074L207.157,45.645l8.968-1.955,2.446-3.493Z"/><path d="M84.545,225.982l2.461-3.514-1.245-9.074,17.082,11.961-8.968,1.955L91.429,230.8Z"/><path d="M159.4,13.167c0,.094,0,.174-.008.239a1.115,1.115,0,0,1-.026.17.5.5,0,0,1-.045.121.573.573,0,0,1-.091.116,1.125,1.125,0,0,1-.239.166,2.78,2.78,0,0,1-.435.2,3.849,3.849,0,0,1-.587.156,3.9,3.9,0,0,1-.714.062,3.768,3.768,0,0,1-1.355-.232,2.673,2.673,0,0,1-1.027-.691,3.091,3.091,0,0,1-.649-1.149,5.141,5.141,0,0,1-.226-1.6,5.072,5.072,0,0,1,.248-1.654,3.47,3.47,0,0,1,.694-1.213,2.9,2.9,0,0,1,1.07-.745,3.619,3.619,0,0,1,1.375-.254,3.4,3.4,0,0,1,.587.05,3.82,3.82,0,0,1,.522.133,2.7,2.7,0,0,1,.432.189,1.277,1.277,0,0,1,.268.184.68.68,0,0,1,.105.127.514.514,0,0,1,.045.13,1.762,1.762,0,0,1,.025.186c.006.071.009.16.009.265s0,.209-.012.288a.759.759,0,0,1-.039.192.263.263,0,0,1-.068.107.135.135,0,0,1-.09.034.392.392,0,0,1-.215-.1,3.465,3.465,0,0,0-.336-.22,2.758,2.758,0,0,0-.491-.22,2.08,2.08,0,0,0-.68-.1,1.61,1.61,0,0,0-1.358.686,2.389,2.389,0,0,0-.363.8,4.117,4.117,0,0,0-.125,1.056,4.161,4.161,0,0,0,.132,1.114,2.176,2.176,0,0,0,.378.777,1.54,1.54,0,0,0,.593.454,1.955,1.955,0,0,0,.782.15,2.236,2.236,0,0,0,.684-.093,2.814,2.814,0,0,0,.493-.207c.138-.075.251-.143.339-.2a.422.422,0,0,1,.206-.09.166.166,0,0,1,.091.022.169.169,0,0,1,.055.091.842.842,0,0,1,.035.189C159.4,12.923,159.4,13.031,159.4,13.167Z"/><path d="M91.619,25.284a2.268,2.268,0,0,1-.015.285.6.6,0,0,1-.044.183.286.286,0,0,1-.071.1.137.137,0,0,1-.091.034H89.011v1.964h2.241a.163.163,0,0,1,.091.028.244.244,0,0,1,.07.1.653.653,0,0,1,.045.181,2.847,2.847,0,0,1,0,.564.732.732,0,0,1-.045.187.257.257,0,0,1-.07.1.145.145,0,0,1-.091.031H89.011v2.721a.174.174,0,0,1-.034.108.259.259,0,0,1-.122.076,1.106,1.106,0,0,1-.228.048,4.058,4.058,0,0,1-.72,0,1.063,1.063,0,0,1-.228-.048.271.271,0,0,1-.121-.076.165.165,0,0,1-.037-.108V25.142a.454.454,0,0,1,.126-.358.461.461,0,0,1,.314-.11H91.4a.139.139,0,0,1,.091.031.254.254,0,0,1,.071.1A.658.658,0,0,1,91.6,25,2.331,2.331,0,0,1,91.619,25.284Z"/><path d="M96.841,31.358a2.516,2.516,0,0,1-.014.285.864.864,0,0,1-.043.191.247.247,0,0,1-.07.111.158.158,0,0,1-.1.034H93.268a.466.466,0,0,1-.314-.11.452.452,0,0,1-.127-.359V24.877a.157.157,0,0,1,.037-.1.255.255,0,0,1,.121-.073,1.09,1.09,0,0,1,.229-.046,3.82,3.82,0,0,1,.72,0,1.073,1.073,0,0,1,.225.046.254.254,0,0,1,.122.073.151.151,0,0,1,.036.1v5.876h2.3a.163.163,0,0,1,.1.032.216.216,0,0,1,.07.1.786.786,0,0,1,.043.187A2.5,2.5,0,0,1,96.841,31.358Z"/><path d="M221.8,25.318a2.246,2.246,0,0,1-.016.285.561.561,0,0,1-.045.184.258.258,0,0,1-.07.1.131.131,0,0,1-.09.034h-2.389v1.965h2.243a.149.149,0,0,1,.089.028.235.235,0,0,1,.071.1.636.636,0,0,1,.045.18,3.076,3.076,0,0,1,0,.565.713.713,0,0,1-.045.186.26.26,0,0,1-.071.105.146.146,0,0,1-.089.031h-2.243V31.8a.164.164,0,0,1-.033.107.255.255,0,0,1-.121.076,1.057,1.057,0,0,1-.228.048,3.831,3.831,0,0,1-.721,0,1.016,1.016,0,0,1-.229-.048.29.29,0,0,1-.121-.076.173.173,0,0,1-.037-.107V25.177a.455.455,0,0,1,.127-.359.469.469,0,0,1,.315-.11h3.437a.144.144,0,0,1,.09.031.241.241,0,0,1,.07.1.6.6,0,0,1,.045.189A2.321,2.321,0,0,1,221.8,25.318Z"/><path d="M228.428,31.821a.212.212,0,0,1-.024.1.169.169,0,0,1-.107.07,1.059,1.059,0,0,1-.248.04c-.11.007-.258.011-.445.011-.159,0-.286,0-.379-.011a.894.894,0,0,1-.223-.042.238.238,0,0,1-.115-.079.448.448,0,0,1-.057-.116l-.654-1.632c-.08-.184-.156-.348-.233-.491a1.53,1.53,0,0,0-.25-.358.925.925,0,0,0-.32-.218,1.1,1.1,0,0,0-.418-.073h-.463V31.81a.166.166,0,0,1-.035.1.266.266,0,0,1-.123.073,1.119,1.119,0,0,1-.225.045,2.963,2.963,0,0,1-.361.017,3.016,3.016,0,0,1-.359-.017,1.168,1.168,0,0,1-.229-.045.229.229,0,0,1-.117-.073.166.166,0,0,1-.035-.1V25.177a.455.455,0,0,1,.127-.359.466.466,0,0,1,.314-.11h1.891q.287,0,.474.012c.124.008.237.017.338.028a3.118,3.118,0,0,1,.793.214,1.911,1.911,0,0,1,.6.4,1.7,1.7,0,0,1,.375.582,2.139,2.139,0,0,1,.129.77,2.3,2.3,0,0,1-.092.669,1.7,1.7,0,0,1-.275.539,1.75,1.75,0,0,1-.446.413,2.446,2.446,0,0,1-.6.282,1.637,1.637,0,0,1,.578.466,2.76,2.76,0,0,1,.24.366c.074.138.149.293.221.466l.615,1.44a2.96,2.96,0,0,1,.111.313A.577.577,0,0,1,228.428,31.821Zm-1.914-4.956a1.087,1.087,0,0,0-.164-.61.894.894,0,0,0-.536-.35,2.031,2.031,0,0,0-.257-.045,3.691,3.691,0,0,0-.4-.017h-.666v2.072h.758a1.8,1.8,0,0,0,.553-.076,1.1,1.1,0,0,0,.394-.215.876.876,0,0,0,.239-.33A1.13,1.13,0,0,0,226.514,26.865Z"/><path d="M87.588,245.939a2.171,2.171,0,0,1-.107.706,1.858,1.858,0,0,1-.748.977,2.7,2.7,0,0,1-.579.288,3.526,3.526,0,0,1-.675.166,5.365,5.365,0,0,1-.8.054H82.739a.464.464,0,0,1-.313-.11.452.452,0,0,1-.127-.359v-6.368a.451.451,0,0,1,.127-.358.464.464,0,0,1,.313-.11h1.835a4.923,4.923,0,0,1,1.137.113,2.232,2.232,0,0,1,.785.342,1.507,1.507,0,0,1,.488.578,1.861,1.861,0,0,1,.169.825,1.8,1.8,0,0,1-.067.5,1.509,1.509,0,0,1-.2.426,1.489,1.489,0,0,1-.32.339,1.616,1.616,0,0,1-.431.237,1.982,1.982,0,0,1,.573.2,1.636,1.636,0,0,1,.457.365,1.7,1.7,0,0,1,.308.522A1.893,1.893,0,0,1,87.588,245.939Zm-1.919-3.076a1.109,1.109,0,0,0-.067-.4.725.725,0,0,0-.2-.291.934.934,0,0,0-.341-.177,1.953,1.953,0,0,0-.551-.063h-.751v1.9h.83a1.418,1.418,0,0,0,.514-.076.9.9,0,0,0,.319-.209.838.838,0,0,0,.188-.311A1.11,1.11,0,0,0,85.669,242.863Zm.378,3.127a1.163,1.163,0,0,0-.084-.454.878.878,0,0,0-.249-.336,1.158,1.158,0,0,0-.417-.209,2.449,2.449,0,0,0-.661-.073h-.881V247h1.073a1.777,1.777,0,0,0,.522-.065,1.061,1.061,0,0,0,.367-.192.887.887,0,0,0,.243-.316A1.022,1.022,0,0,0,86.047,245.99Z"/><path d="M92.793,247.509a2.5,2.5,0,0,1-.014.285.832.832,0,0,1-.043.192.243.243,0,0,1-.07.11.153.153,0,0,1-.1.034H89.22a.466.466,0,0,1-.314-.11.452.452,0,0,1-.127-.359v-6.633a.159.159,0,0,1,.037-.1.247.247,0,0,1,.122-.073,1.065,1.065,0,0,1,.228-.046,4.058,4.058,0,0,1,.72,0,1.073,1.073,0,0,1,.225.046.247.247,0,0,1,.122.073.154.154,0,0,1,.037.1v5.877h2.3a.169.169,0,0,1,.1.031.225.225,0,0,1,.07.1.721.721,0,0,1,.043.186A2.5,2.5,0,0,1,92.793,247.509Z"/><path d="M217.768,245.974a2.2,2.2,0,0,1-.107.706,1.864,1.864,0,0,1-.748.976,2.63,2.63,0,0,1-.579.288,3.545,3.545,0,0,1-.675.167,5.379,5.379,0,0,1-.8.054h-1.941a.466.466,0,0,1-.314-.11.455.455,0,0,1-.126-.359v-6.368a.453.453,0,0,1,.126-.358.461.461,0,0,1,.314-.11h1.835a4.868,4.868,0,0,1,1.137.113,2.249,2.249,0,0,1,.785.341,1.517,1.517,0,0,1,.488.579,1.871,1.871,0,0,1,.169.824,1.8,1.8,0,0,1-.067.5,1.511,1.511,0,0,1-.2.426,1.46,1.46,0,0,1-.319.338,1.583,1.583,0,0,1-.432.238,1.931,1.931,0,0,1,.574.2,1.647,1.647,0,0,1,.457.364,1.687,1.687,0,0,1,.307.523A1.892,1.892,0,0,1,217.768,245.974Zm-1.919-3.077a1.1,1.1,0,0,0-.068-.395.726.726,0,0,0-.2-.29.955.955,0,0,0-.342-.178,1.983,1.983,0,0,0-.55-.062h-.751v1.9h.83a1.414,1.414,0,0,0,.513-.077.877.877,0,0,0,.32-.209.826.826,0,0,0,.188-.31A1.12,1.12,0,0,0,215.849,242.9Zm.378,3.128a1.178,1.178,0,0,0-.084-.454.87.87,0,0,0-.249-.336,1.158,1.158,0,0,0-.417-.209,2.452,2.452,0,0,0-.662-.073h-.88v2.077h1.073a1.8,1.8,0,0,0,.521-.065,1.044,1.044,0,0,0,.367-.192.887.887,0,0,0,.244-.316A1.038,1.038,0,0,0,216.227,246.025Z"/><path d="M224.378,247.973a.208.208,0,0,1-.023.1.172.172,0,0,1-.107.07.971.971,0,0,1-.248.04c-.109.008-.258.011-.446.011-.158,0-.284,0-.378-.011a.811.811,0,0,1-.223-.042.24.24,0,0,1-.116-.079.432.432,0,0,1-.056-.116l-.655-1.631c-.079-.185-.156-.348-.231-.491a1.634,1.634,0,0,0-.251-.359.949.949,0,0,0-.32-.218,1.122,1.122,0,0,0-.418-.073h-.463v2.783a.154.154,0,0,1-.036.1.249.249,0,0,1-.122.073,1.2,1.2,0,0,1-.225.046,4.058,4.058,0,0,1-.72,0,1.236,1.236,0,0,1-.229-.046.235.235,0,0,1-.118-.073.169.169,0,0,1-.034-.1v-6.633a.449.449,0,0,1,.127-.358.459.459,0,0,1,.313-.11h1.891c.192,0,.351,0,.475.011s.237.017.339.028a3.092,3.092,0,0,1,.792.215,1.884,1.884,0,0,1,.6.4,1.672,1.672,0,0,1,.375.581,2.119,2.119,0,0,1,.13.771,2.268,2.268,0,0,1-.093.669,1.7,1.7,0,0,1-.274.539,1.812,1.812,0,0,1-.445.412,2.39,2.39,0,0,1-.6.282,1.606,1.606,0,0,1,.579.466,2.615,2.615,0,0,1,.239.367,4.517,4.517,0,0,1,.221.465l.615,1.44c.057.143.094.247.113.313A.6.6,0,0,1,224.378,247.973Zm-1.913-4.957a1.081,1.081,0,0,0-.164-.609.893.893,0,0,0-.536-.35,1.99,1.99,0,0,0-.257-.046,3.739,3.739,0,0,0-.4-.016h-.666v2.071h.757a1.8,1.8,0,0,0,.553-.076,1.093,1.093,0,0,0,.4-.215.874.874,0,0,0,.238-.33A1.13,1.13,0,0,0,222.465,243.016Z"/><path d="M29.006,136.028a2.246,2.246,0,0,1-.215,1.011,2.107,2.107,0,0,1-.581.725,2.521,2.521,0,0,1-.858.437,3.65,3.65,0,0,1-1.05.147,3.777,3.777,0,0,1-.7-.062,3.9,3.9,0,0,1-.574-.15,2.49,2.49,0,0,1-.414-.183,1.2,1.2,0,0,1-.24-.169.419.419,0,0,1-.1-.212,1.907,1.907,0,0,1-.032-.4q0-.176.012-.294a.878.878,0,0,1,.036-.192.218.218,0,0,1,.069-.1.157.157,0,0,1,.1-.031.468.468,0,0,1,.223.093,3.976,3.976,0,0,0,.37.206,3.334,3.334,0,0,0,.539.206,2.555,2.555,0,0,0,.726.093,1.655,1.655,0,0,0,.485-.065,1.083,1.083,0,0,0,.364-.183.777.777,0,0,0,.229-.294.942.942,0,0,0,.079-.389.688.688,0,0,0-.136-.427,1.368,1.368,0,0,0-.352-.315,3.623,3.623,0,0,0-.5-.26c-.184-.081-.375-.167-.57-.257a5.145,5.145,0,0,1-.57-.308,2.275,2.275,0,0,1-.494-.412,1.944,1.944,0,0,1-.353-.567,2.054,2.054,0,0,1-.136-.785,2.076,2.076,0,0,1,.2-.923,1.9,1.9,0,0,1,.524-.66,2.242,2.242,0,0,1,.779-.392,3.4,3.4,0,0,1,.952-.13,3.533,3.533,0,0,1,1,.147,2.593,2.593,0,0,1,.4.152.919.919,0,0,1,.231.141.394.394,0,0,1,.077.1.436.436,0,0,1,.034.1,1.062,1.062,0,0,1,.019.164c0,.066.006.148.006.245s0,.2-.008.277a1.054,1.054,0,0,1-.028.186.224.224,0,0,1-.057.108.141.141,0,0,1-.1.034.471.471,0,0,1-.2-.079c-.089-.053-.2-.11-.333-.172a3.171,3.171,0,0,0-.457-.17,2.01,2.01,0,0,0-.57-.076,1.342,1.342,0,0,0-.423.059.887.887,0,0,0-.3.164.653.653,0,0,0-.18.251.835.835,0,0,0-.059.311.679.679,0,0,0,.133.42,1.249,1.249,0,0,0,.355.316,3.77,3.77,0,0,0,.5.26c.189.081.38.167.577.257a5.6,5.6,0,0,1,.575.308,2.3,2.3,0,0,1,.5.412,1.918,1.918,0,0,1,.355.564A1.962,1.962,0,0,1,29.006,136.028Z"/><path d="M34.154,137.6a2.794,2.794,0,0,1-.013.285.951.951,0,0,1-.043.192.248.248,0,0,1-.071.111.155.155,0,0,1-.1.033H30.581a.459.459,0,0,1-.313-.11.448.448,0,0,1-.127-.358v-6.633a.155.155,0,0,1,.037-.1.246.246,0,0,1,.121-.073,1.223,1.223,0,0,1,.228-.046,4.058,4.058,0,0,1,.72,0,1.232,1.232,0,0,1,.226.046.264.264,0,0,1,.122.073.159.159,0,0,1,.036.1v5.876h2.3a.166.166,0,0,1,.1.031.226.226,0,0,1,.071.1.828.828,0,0,1,.043.186A2.809,2.809,0,0,1,34.154,137.6Z"/><path d="M279.57,136.028a2.246,2.246,0,0,1-.215,1.011,2.084,2.084,0,0,1-.581.725,2.521,2.521,0,0,1-.858.437,3.645,3.645,0,0,1-1.05.147,3.784,3.784,0,0,1-.7-.062,3.882,3.882,0,0,1-.573-.15,2.453,2.453,0,0,1-.414-.183,1.145,1.145,0,0,1-.24-.169.428.428,0,0,1-.1-.212,1.993,1.993,0,0,1-.031-.4q0-.176.012-.294a.773.773,0,0,1,.036-.192.217.217,0,0,1,.068-.1.16.16,0,0,1,.1-.031.466.466,0,0,1,.222.093,3.976,3.976,0,0,0,.37.206,3.408,3.408,0,0,0,.539.206,2.56,2.56,0,0,0,.726.093,1.646,1.646,0,0,0,.485-.065,1.1,1.1,0,0,0,.365-.183.785.785,0,0,0,.228-.294.926.926,0,0,0,.079-.389.693.693,0,0,0-.135-.427,1.357,1.357,0,0,0-.353-.315,3.609,3.609,0,0,0-.494-.26q-.278-.121-.57-.257a5.158,5.158,0,0,1-.571-.308,2.323,2.323,0,0,1-.494-.412,1.941,1.941,0,0,1-.352-.567,2.054,2.054,0,0,1-.136-.785,2.075,2.075,0,0,1,.2-.923,1.9,1.9,0,0,1,.525-.66,2.224,2.224,0,0,1,.779-.392,3.388,3.388,0,0,1,.951-.13,3.533,3.533,0,0,1,1,.147,2.618,2.618,0,0,1,.4.152.93.93,0,0,1,.232.141.42.42,0,0,1,.077.1.44.44,0,0,1,.033.1.94.94,0,0,1,.02.164c0,.066,0,.148,0,.245s0,.2-.007.277a1.042,1.042,0,0,1-.029.186.224.224,0,0,1-.056.108.145.145,0,0,1-.1.034.468.468,0,0,1-.2-.079c-.09-.053-.2-.11-.333-.172a3.216,3.216,0,0,0-.457-.17,2.012,2.012,0,0,0-.571-.076,1.335,1.335,0,0,0-.422.059.878.878,0,0,0-.3.164.655.655,0,0,0-.181.251.834.834,0,0,0-.058.311.685.685,0,0,0,.132.42,1.254,1.254,0,0,0,.356.316,3.653,3.653,0,0,0,.5.26q.282.121.576.257a5.5,5.5,0,0,1,.575.308,2.254,2.254,0,0,1,.5.412,1.9,1.9,0,0,1,.356.564A1.981,1.981,0,0,1,279.57,136.028Z"/><path d="M286.124,138.026a.221.221,0,0,1-.022.1.178.178,0,0,1-.108.07,1.069,1.069,0,0,1-.248.04c-.109.008-.258.011-.446.011-.157,0-.284,0-.378-.011a.894.894,0,0,1-.223-.042.252.252,0,0,1-.116-.079.481.481,0,0,1-.056-.116l-.655-1.631q-.118-.278-.231-.492a1.626,1.626,0,0,0-.251-.358.935.935,0,0,0-.32-.218,1.1,1.1,0,0,0-.418-.073h-.463v2.783a.155.155,0,0,1-.036.1.257.257,0,0,1-.122.073,1.119,1.119,0,0,1-.225.045,3.82,3.82,0,0,1-.72,0,1.168,1.168,0,0,1-.229-.045.242.242,0,0,1-.118-.073.171.171,0,0,1-.034-.1v-6.633a.452.452,0,0,1,.127-.359.464.464,0,0,1,.314-.109h1.89c.193,0,.351,0,.475.011s.237.017.339.028a3.141,3.141,0,0,1,.793.214,1.924,1.924,0,0,1,.6.4,1.676,1.676,0,0,1,.375.582,2.117,2.117,0,0,1,.13.77,2.263,2.263,0,0,1-.093.669,1.693,1.693,0,0,1-.274.539,1.8,1.8,0,0,1-.445.413,2.425,2.425,0,0,1-.605.282,1.724,1.724,0,0,1,.308.192,1.637,1.637,0,0,1,.271.274,2.662,2.662,0,0,1,.239.366,4.539,4.539,0,0,1,.221.466l.615,1.44c.057.143.094.247.113.313A.6.6,0,0,1,286.124,138.026Zm-1.913-4.956a1.087,1.087,0,0,0-.164-.61.894.894,0,0,0-.536-.35,1.969,1.969,0,0,0-.257-.045,3.691,3.691,0,0,0-.4-.017h-.666v2.072h.757a1.8,1.8,0,0,0,.553-.076,1.122,1.122,0,0,0,.4-.215.882.882,0,0,0,.237-.33A1.112,1.112,0,0,0,284.211,133.07Z"/><circle cx="155" cy="135.52" r="5.54"/></svg>