<svg id="Layer_1" data-name="Layer 1" xmlns="http://www.w3.org/2000/svg" width="739.73" height="183.74" viewBox="0 0 739.73 183.74"><defs><style>.cls-1,.cls-3{fill:none;}.cls-1,.cls-2{stroke:#000;stroke-miterlimit:10;}.cls-2{fill:#e5e5e5;}.cls-4{fill:#231f20;}</style></defs><rect class="cls-1" x="15.4" y="29.96" width="28.51" height="114.05"/><rect class="cls-1" x="43.91" y="29.96" width="28.51" height="114.05"/><rect class="cls-1" x="72.42" y="29.96" width="28.51" height="114.05"/><rect class="cls-1" x="100.94" y="29.96" width="28.51" height="114.05"/><rect class="cls-1" x="129.45" y="29.96" width="28.51" height="114.05"/><rect class="cls-1" x="157.96" y="29.96" width="28.51" height="114.05"/><rect class="cls-2" x="186.47" y="29.96" width="28.51" height="114.05"/><rect class="cls-2" x="214.98" y="29.96" width="28.51" height="114.05"/><rect class="cls-2" x="243.5" y="29.96" width="28.51" height="114.05"/><rect class="cls-2" x="272.01" y="29.96" width="28.51" height="114.05"/><path d="M29.51,87v-.41a3.648,3.648,0,0,1,1-2.74,3.5,3.5,0,0,0,1.11-2.17c0-.81-.51-1.34-1.5-1.36a2.809,2.809,0,0,0-1.6.49l-.38-1a4.131,4.131,0,0,1,2.26-.63,2.33,2.33,0,0,1,2.584,2.044,2.25,2.25,0,0,1,.016.3,4.279,4.279,0,0,1-1.36,2.75,3.141,3.141,0,0,0-.9,2.33v.41Zm-.35,2.22a.94.94,0,0,1,.878-1c.024,0,.048,0,.072,0a1,1,0,1,1-.949,1.049Z"/><path d="M58,87v-.41a3.648,3.648,0,0,1,1-2.74,3.451,3.451,0,0,0,1.11-2.17c0-.81-.5-1.34-1.5-1.36a2.826,2.826,0,0,0-1.6.49l-.38-1a4.131,4.131,0,0,1,2.26-.63,2.339,2.339,0,0,1,2.629,2.009,2.307,2.307,0,0,1,.021.321,4.279,4.279,0,0,1-1.36,2.75,3.151,3.151,0,0,0-.91,2.33V87Zm-.34,2.22a.93.93,0,0,1,.854-1,.89.89,0,0,1,.146,0,1,1,0,1,1-1,1Z"/><path d="M86.54,87v-.41a3.63,3.63,0,0,1,1-2.74,3.48,3.48,0,0,0,1.1-2.17c0-.81-.5-1.34-1.5-1.36a2.826,2.826,0,0,0-1.6.49l-.38-1a4.162,4.162,0,0,1,2.27-.63A2.327,2.327,0,0,1,90,81.52a4.279,4.279,0,0,1-1.36,2.75,3.1,3.1,0,0,0-.9,2.33V87Zm-.35,2.22a.93.93,0,0,1,.854-1,.89.89,0,0,1,.146,0,1,1,0,1,1-1,1Z"/><path d="M114.07,87v-.41a3.63,3.63,0,0,1,1-2.74,3.48,3.48,0,0,0,1.1-2.17c0-.81-.5-1.34-1.5-1.36a2.826,2.826,0,0,0-1.6.49l-.38-1a4.162,4.162,0,0,1,2.27-.63,2.33,2.33,0,0,1,2.619,2,2.29,2.29,0,0,1,.021.331,4.279,4.279,0,0,1-1.36,2.75,3.151,3.151,0,0,0-.91,2.33V87Zm-.35,2.22a.93.93,0,0,1,.854-1,.89.89,0,0,1,.146,0,1,1,0,1,1-1,1Z"/><path d="M171.09,87v-.41a3.61,3.61,0,0,1,1-2.74,3.5,3.5,0,0,0,1.11-2.17c0-.81-.51-1.34-1.51-1.36a2.826,2.826,0,0,0-1.6.49l-.37-1a4.131,4.131,0,0,1,2.26-.63,2.33,2.33,0,0,1,2.619,2,2.29,2.29,0,0,1,.021.331,4.279,4.279,0,0,1-1.36,2.75,3.1,3.1,0,0,0-.9,2.33V87Zm-.35,2.22a.94.94,0,0,1,.878-1c.024,0,.048,0,.072,0a1,1,0,1,1-.949,1.049Z"/><path d="M142.58,87v-.41a3.61,3.61,0,0,1,1-2.74,3.5,3.5,0,0,0,1.11-2.17c0-.81-.51-1.34-1.51-1.36a2.826,2.826,0,0,0-1.6.49l-.38-1a4.193,4.193,0,0,1,2.27-.63,2.33,2.33,0,0,1,2.619,2,2.29,2.29,0,0,1,.021.331,4.279,4.279,0,0,1-1.36,2.75,3.1,3.1,0,0,0-.9,2.33V87Zm-.35,2.22a.94.94,0,0,1,.876-1,.855.855,0,0,1,.124,0,1,1,0,1,1-1,1Z"/><path d="M199.6,87v-.41a3.648,3.648,0,0,1,1-2.74,3.5,3.5,0,0,0,1.11-2.17c0-.81-.51-1.34-1.5-1.36a2.809,2.809,0,0,0-1.6.49l-.38-1a4.131,4.131,0,0,1,2.26-.63,2.33,2.33,0,0,1,2.619,2,2.29,2.29,0,0,1,.021.331,4.279,4.279,0,0,1-1.36,2.75,3.141,3.141,0,0,0-.9,2.33V87Zm-.35,2.22a.94.94,0,0,1,.878-1c.024,0,.048,0,.072,0a1,1,0,1,1-.949,1.049Z"/><path d="M228.11,87v-.41a3.648,3.648,0,0,1,1-2.74,3.451,3.451,0,0,0,1.11-2.17c0-.81-.5-1.34-1.5-1.36a2.809,2.809,0,0,0-1.6.49l-.38-1a4.131,4.131,0,0,1,2.26-.63,2.339,2.339,0,0,1,2.629,2.009,2.307,2.307,0,0,1,.021.321,4.331,4.331,0,0,1-1.36,2.75,3.151,3.151,0,0,0-.91,2.33V87Zm-.34,2.22a.93.93,0,0,1,.857-1c.031,0,.062,0,.093,0a1,1,0,1,1-.949,1.049Z"/><path d="M256.63,87v-.41a3.63,3.63,0,0,1,1-2.74,3.48,3.48,0,0,0,1.1-2.17c0-.81-.5-1.34-1.5-1.36a2.826,2.826,0,0,0-1.6.49l-.38-1a4.162,4.162,0,0,1,2.27-.63,2.33,2.33,0,0,1,2.619,2,2.29,2.29,0,0,1,.021.331,4.279,4.279,0,0,1-1.36,2.75,3.151,3.151,0,0,0-.91,2.33V87Zm-.35,2.22a.93.93,0,0,1,.854-1,.89.89,0,0,1,.146,0,1,1,0,1,1-1,1Z"/><path d="M285.14,87v-.41a3.61,3.61,0,0,1,1-2.74,3.5,3.5,0,0,0,1.11-2.17c0-.81-.51-1.34-1.51-1.36a2.826,2.826,0,0,0-1.6.49l-.38-1a4.193,4.193,0,0,1,2.27-.63,2.33,2.33,0,0,1,2.619,2,2.29,2.29,0,0,1,.021.331,4.279,4.279,0,0,1-1.36,2.75,3.1,3.1,0,0,0-.9,2.33V87Zm-.35,2.22a.94.94,0,0,1,.878-1c.024,0,.048,0,.072,0a1,1,0,1,1-.949,1.049Z"/><rect class="cls-2" x="300.52" y="29.96" width="28.51" height="114.05"/><rect class="cls-2" x="327.45" y="29.96" width="28.51" height="114.05"/><path d="M313.65,87v-.41a3.61,3.61,0,0,1,1-2.74,3.5,3.5,0,0,0,1.11-2.17c0-.81-.51-1.34-1.51-1.36a2.826,2.826,0,0,0-1.6.49l-.37-1a4.131,4.131,0,0,1,2.26-.63,2.33,2.33,0,0,1,2.619,2,2.29,2.29,0,0,1,.021.331,4.279,4.279,0,0,1-1.36,2.75,3.1,3.1,0,0,0-.9,2.33V87Zm-.35,2.22a.94.94,0,0,1,.878-1c.024,0,.048,0,.072,0a1,1,0,1,1-.949,1.049Z"/><path d="M340.58,87v-.41a3.61,3.61,0,0,1,1-2.74,3.5,3.5,0,0,0,1.11-2.17c0-.81-.51-1.34-1.51-1.36a2.826,2.826,0,0,0-1.6.49l-.38-1a4.193,4.193,0,0,1,2.27-.63,2.33,2.33,0,0,1,2.619,2,2.29,2.29,0,0,1,.021.331,4.279,4.279,0,0,1-1.36,2.75,3.1,3.1,0,0,0-.9,2.33V87Zm-.35,2.22a.94.94,0,0,1,.878-1c.024,0,.048,0,.072,0a1,1,0,1,1-.949,1.049Z"/><rect class="cls-3" x="348.83" y="71.29" width="42.77" height="27.57"/><polygon class="cls-4" points="348.83 90.54 376.62 90.54 376.62 98.86 391.6 85.08 376.62 71.29 376.62 79.62 348.83 79.62 348.83 90.54"/><line class="cls-1" x1="14.78" y1="171.63" x2="185.86" y2="171.63"/><line class="cls-1" x1="14.78" y1="157.37" x2="14.78" y2="171.63"/><line class="cls-1" x1="185.86" y1="157.37" x2="185.86" y2="171.63"/><line class="cls-1" x1="185.86" y1="171.63" x2="356.93" y2="171.63"/><line class="cls-1" x1="185.86" y1="157.37" x2="185.86" y2="171.63"/><line class="cls-1" x1="356.93" y1="157.37" x2="356.93" y2="171.63"/><rect class="cls-1" x="383.42" y="28.86" width="28.51" height="114.05"/><rect class="cls-1" x="411.93" y="28.86" width="28.51" height="114.05"/><rect class="cls-1" x="440.44" y="28.86" width="28.51" height="114.05"/><rect class="cls-1" x="468.95" y="28.86" width="28.51" height="114.05"/><rect class="cls-1" x="497.46" y="28.86" width="28.51" height="114.05"/><rect class="cls-1" x="525.98" y="28.86" width="28.51" height="114.05"/><rect class="cls-2" x="554.49" y="28.86" width="28.51" height="114.05"/><rect class="cls-2" x="583" y="28.86" width="28.51" height="114.05"/><rect class="cls-2" x="611.51" y="28.86" width="28.51" height="114.05"/><rect class="cls-2" x="640.02" y="28.86" width="28.51" height="114.05"/><rect class="cls-2" x="668.54" y="28.86" width="28.51" height="114.05"/><rect class="cls-2" x="695.46" y="28.86" width="28.51" height="114.05"/><line class="cls-1" x1="382.8" y1="171.63" x2="553.87" y2="171.63"/><line class="cls-1" x1="382.8" y1="157.37" x2="382.8" y2="171.63"/><line class="cls-1" x1="553.87" y1="157.37" x2="553.87" y2="171.63"/><line class="cls-1" x1="553.87" y1="171.63" x2="724.94" y2="171.63"/><line class="cls-1" x1="553.87" y1="157.37" x2="553.87" y2="171.63"/><line class="cls-1" x1="724.94" y1="157.37" x2="724.94" y2="171.63"/><path d="M396.09,79.91h1.37v9.51H402v1.16h-5.93Z"/><path d="M452.53,80.05a14.506,14.506,0,0,1,2.64-.22,4.39,4.39,0,0,1,3.09.87,2.661,2.661,0,0,1,.84,2,2.8,2.8,0,0,1-2,2.72h0a2.64,2.64,0,0,1,1.56,2.15,16.93,16.93,0,0,0,.83,2.93h-1.43a14.188,14.188,0,0,1-.71-2.55c-.32-1.47-.89-2-2.14-2.07h-1.3V90.5h-1.37Zm1.37,4.86h1.41c1.48,0,2.41-.81,2.41-2,0-1.38-1-2-2.45-2a5.394,5.394,0,0,0-1.37.13Z"/><path d="M515.42,90.07a6.668,6.668,0,0,1-2.81.51,5,5,0,0,1-5.28-5.4,5.31,5.31,0,0,1,5.58-5.6,5.711,5.711,0,0,1,2.53.47l-.33,1.13a4.935,4.935,0,0,0-2.16-.45c-2.5,0-4.16,1.6-4.16,4.4,0,2.62,1.51,4.29,4.1,4.29a5.5,5.5,0,0,0,2.25-.44Z"/><path d="M543.94,90.07a6.745,6.745,0,0,1-2.82.51,4.99,4.99,0,0,1-5.27-5.4,5.3,5.3,0,0,1,4.984-5.6,5.207,5.207,0,0,1,.586,0,5.711,5.711,0,0,1,2.53.47l-.33,1.13a4.923,4.923,0,0,0-2.15-.45c-2.5,0-4.17,1.6-4.17,4.4,0,2.62,1.51,4.29,4.1,4.29a5.5,5.5,0,0,0,2.25-.44Z"/><rect class="cls-3" width="739.73" height="183.74"/><path d="M415.55,79.91h1.38v9.51h4.55v1.16h-5.93Z"/><path d="M423,79.91h5.74v1.16h-4.37v3.54h4v1.14h-4v4.83H423Z"/><path d="M436.24,85.58H432.1v3.84h4.62v1.16h-6V79.91h5.76v1.16H432.1v3.37h4.14Z"/><path d="M471.72,79.91h1.37v9.51h4.56v1.16h-5.93Z"/><path d="M479.18,79.91h5.75v1.16h-4.37v3.54h4v1.14h-4v4.83h-1.38Z"/><path d="M492.41,85.58h-4.14v3.84h4.62v1.16h-6V79.91h5.76v1.16h-4.38v3.37h4.14Z"/><path d="M567.08,79.91h1.38v9.51H573v1.16h-5.94Z"/><path d="M623.52,80.05a14.713,14.713,0,0,1,2.65-.22,4.349,4.349,0,0,1,3.08.87,2.657,2.657,0,0,1,.84,2,2.79,2.79,0,0,1-2,2.72h0a2.648,2.648,0,0,1,1.57,2.15,17.314,17.314,0,0,0,.82,2.93h-1.42a13.85,13.85,0,0,1-.72-2.55c-.31-1.47-.88-2-2.13-2.07h-1.3V90.5h-1.38Zm1.38,4.86h1.41c1.47,0,2.4-.81,2.4-2,0-1.38-1-2-2.45-2a5.272,5.272,0,0,0-1.36.13Z"/><path d="M686.42,90.07a6.745,6.745,0,0,1-2.82.51,4.99,4.99,0,0,1-5.27-5.4,5.3,5.3,0,0,1,4.984-5.6,5.207,5.207,0,0,1,.586,0,5.711,5.711,0,0,1,2.53.47l-.33,1.13a4.889,4.889,0,0,0-2.15-.45c-2.5,0-4.16,1.6-4.16,4.4,0,2.62,1.5,4.29,4.1,4.29a5.491,5.491,0,0,0,2.24-.44Z"/><path d="M714.93,90.07a6.745,6.745,0,0,1-2.82.51,4.99,4.99,0,0,1-5.27-5.4,5.3,5.3,0,0,1,4.984-5.6,5.207,5.207,0,0,1,.586,0,5.8,5.8,0,0,1,2.54.47l-.34,1.13a4.892,4.892,0,0,0-2.15-.45c-2.5,0-4.16,1.6-4.16,4.4,0,2.62,1.5,4.29,4.1,4.29a5.537,5.537,0,0,0,2.25-.44Z"/><path d="M586.54,79.91h1.38v9.51h4.56v1.16h-5.94Z"/><path d="M594,79.91h5.75v1.16h-4.37v3.54h4v1.14h-4v4.83H594Z"/><path d="M607.24,85.58h-4.15v3.84h4.62v1.16h-6V79.91h5.75v1.16h-4.38v3.37h4.15Z"/><path d="M642.71,79.91h1.38v9.51h4.55v1.16h-5.93Z"/><path d="M650.18,79.91h5.74v1.16h-4.36v3.54h4v1.14h-4v4.83h-1.38Z"/><path d="M663.4,85.58h-4.14v3.84h4.62v1.16h-6V79.91h5.76v1.16h-4.38v3.37h4.14Z"/><path d="M142.976,19.391c-.07-1.317-.154-2.9-.14-4.076h-.042c-.322,1.106-.715,2.283-1.19,3.585l-1.667,4.581h-.925l-1.526-4.5c-.449-1.331-.828-2.55-1.093-3.67h-.029c-.028,1.176-.1,2.759-.181,4.174l-.253,4.048h-1.162l.658-9.441h1.555l1.611,4.567c.392,1.162.714,2.2.952,3.179h.042c.238-.952.574-1.989.995-3.179l1.681-4.567h1.555l.588,9.441h-1.191Z"/><path d="M151.948,21.688c0,.7.015,1.317.057,1.849h-1.093l-.07-1.106h-.028a2.55,2.55,0,0,1-2.242,1.26c-1.064,0-2.338-.588-2.338-2.969V16.757h1.232v3.754c0,1.289.393,2.158,1.513,2.158a1.782,1.782,0,0,0,1.625-1.121,1.8,1.8,0,0,0,.112-.63V16.757h1.232Z"/><path d="M153.989,13.592h1.233v9.945h-1.233Z"/><path d="M158.779,14.811v1.946h1.764V17.7h-1.764v3.656c0,.84.237,1.317.923,1.317a2.743,2.743,0,0,0,.715-.084l.056.924a3.018,3.018,0,0,1-1.093.168,1.707,1.707,0,0,1-1.33-.518,2.508,2.508,0,0,1-.477-1.765V17.7h-1.05v-.939h1.05V15.132Z"/><path d="M163.3,14.853a.764.764,0,0,1-1.527,0,.751.751,0,0,1,.77-.771A.732.732,0,0,1,163.3,14.853Zm-1.373,8.684v-6.78h1.232v6.78Z"/><path d="M170.036,23.285a4.543,4.543,0,0,1-1.947.392,3.221,3.221,0,0,1-3.376-3.46,3.445,3.445,0,0,1,3.642-3.6,4.105,4.105,0,0,1,1.709.351l-.281.952a2.854,2.854,0,0,0-1.428-.322,2.346,2.346,0,0,0-2.395,2.563,2.325,2.325,0,0,0,2.353,2.536,3.485,3.485,0,0,0,1.513-.337Z"/><path d="M171.475,13.592h1.232v4.23h.029a2.279,2.279,0,0,1,.882-.868,2.539,2.539,0,0,1,1.261-.35c.91,0,2.367.56,2.367,2.9v4.034h-1.233V19.643c0-1.093-.405-2.017-1.568-2.017a1.773,1.773,0,0,0-1.654,1.232,1.518,1.518,0,0,0-.084.589v4.09h-1.232Z"/><path d="M183,23.537l-.1-.854h-.042a2.528,2.528,0,0,1-2.074,1.008,1.931,1.931,0,0,1-2.073-1.947c0-1.638,1.457-2.535,4.076-2.521v-.14a1.4,1.4,0,0,0-1.541-1.569,3.376,3.376,0,0,0-1.764.5l-.281-.812a4.2,4.2,0,0,1,2.228-.6c2.073,0,2.577,1.414,2.577,2.773v2.535a9.545,9.545,0,0,0,.112,1.625Zm-.181-3.46c-1.345-.028-2.872.211-2.872,1.527a1.091,1.091,0,0,0,1.163,1.177,1.688,1.688,0,0,0,1.638-1.135,1.288,1.288,0,0,0,.071-.392Z"/><path d="M185.992,18.592c0-.7-.013-1.274-.055-1.835h1.093l.069,1.121h.028a2.492,2.492,0,0,1,2.241-1.274c.939,0,2.4.56,2.4,2.885v4.048H190.53V19.629c0-1.092-.405-2-1.568-2a1.752,1.752,0,0,0-1.653,1.261,1.771,1.771,0,0,0-.084.574v4.076h-1.233Z"/><path d="M193.763,18.592c0-.7-.014-1.274-.056-1.835H194.8l.069,1.121h.029a2.492,2.492,0,0,1,2.241-1.274c.938,0,2.395.56,2.395,2.885v4.048H198.3V19.629c0-1.092-.406-2-1.568-2a1.752,1.752,0,0,0-1.654,1.261,1.8,1.8,0,0,0-.084.574v4.076h-1.232Z"/><path d="M202.219,20.372a2.172,2.172,0,0,0,2.325,2.353,4.457,4.457,0,0,0,1.877-.35l.21.882a5.494,5.494,0,0,1-2.255.42,3.149,3.149,0,0,1-3.334-3.418c0-2.045,1.205-3.655,3.18-3.655,2.213,0,2.8,1.946,2.8,3.193a4.894,4.894,0,0,1-.042.575Zm3.614-.883a1.755,1.755,0,0,0-1.709-2,2.042,2.042,0,0,0-1.891,2Z"/><path d="M208.546,13.592h1.233v9.945h-1.233Z"/><path d="M216.192,14.853a.764.764,0,0,1-1.528,0,.752.752,0,0,1,.771-.771A.732.732,0,0,1,216.192,14.853Zm-1.373,8.684v-6.78h1.232v6.78Z"/><path d="M218.094,18.592c0-.7-.014-1.274-.056-1.835h1.093l.069,1.121h.029A2.492,2.492,0,0,1,221.47,16.6c.938,0,2.4.56,2.4,2.885v4.048h-1.233V19.629c0-1.092-.405-2-1.568-2a1.752,1.752,0,0,0-1.654,1.261,1.8,1.8,0,0,0-.084.574v4.076h-1.232Z"/><path d="M225.864,18.971c0-.869-.028-1.569-.055-2.214h1.106l.056,1.163H227a2.666,2.666,0,0,1,2.409-1.316c1.639,0,2.872,1.386,2.872,3.445,0,2.437-1.485,3.642-3.082,3.642a2.376,2.376,0,0,1-2.086-1.064h-.029v3.684h-1.219Zm1.219,1.807a2.866,2.866,0,0,0,.056.5,1.9,1.9,0,0,0,1.85,1.443c1.3,0,2.058-1.065,2.058-2.619,0-1.359-.714-2.522-2.017-2.522a1.967,1.967,0,0,0-1.863,1.527,2,2,0,0,0-.084.5Z"/><path d="M239.5,21.688c0,.7.015,1.317.057,1.849h-1.093l-.07-1.106h-.029a2.549,2.549,0,0,1-2.241,1.26c-1.064,0-2.339-.588-2.339-2.969V16.757h1.233v3.754c0,1.289.392,2.158,1.512,2.158a1.738,1.738,0,0,0,1.738-1.751V16.757H239.5Z"/><path d="M243.03,14.811v1.946h1.764V17.7H243.03v3.656c0,.84.237,1.317.923,1.317a2.743,2.743,0,0,0,.715-.084l.056.924a3.018,3.018,0,0,1-1.093.168,1.707,1.707,0,0,1-1.33-.518,2.508,2.508,0,0,1-.477-1.765V17.7h-1.05v-.939h1.05V15.132Z"/><path d="M490.634,23.229a6.057,6.057,0,0,1-2.494.448,4.413,4.413,0,0,1-4.665-4.777,4.7,4.7,0,0,1,4.931-4.958,5.06,5.06,0,0,1,2.241.42l-.294.995a4.422,4.422,0,0,0-1.905-.393c-2.213,0-3.684,1.415-3.684,3.894,0,2.312,1.331,3.8,3.628,3.8a4.872,4.872,0,0,0,1.99-.393Z"/><path d="M497.619,21.688c0,.7.015,1.317.057,1.849h-1.093l-.071-1.106h-.028a2.549,2.549,0,0,1-2.241,1.26c-1.065,0-2.339-.588-2.339-2.969V16.757h1.232v3.754c0,1.289.393,2.158,1.513,2.158a1.781,1.781,0,0,0,1.625-1.121,1.8,1.8,0,0,0,.112-.63V16.757h1.233Z"/><path d="M499.492,22.276a3.223,3.223,0,0,0,1.625.491c.9,0,1.316-.449,1.316-1.009,0-.588-.349-.91-1.26-1.247-1.219-.434-1.793-1.106-1.793-1.919a2.09,2.09,0,0,1,2.339-1.988,3.375,3.375,0,0,1,1.667.42l-.308.9a2.644,2.644,0,0,0-1.387-.392c-.728,0-1.135.42-1.135.924,0,.561.407.813,1.289,1.149,1.177.448,1.779,1.037,1.779,2.045,0,1.191-.924,2.031-2.535,2.031a3.872,3.872,0,0,1-1.906-.462Z"/><path d="M506.689,14.811v1.946h1.765V17.7h-1.765v3.656c0,.84.237,1.317.924,1.317a2.75,2.75,0,0,0,.715-.084l.056.924a3.026,3.026,0,0,1-1.093.168,1.707,1.707,0,0,1-1.33-.518,2.508,2.508,0,0,1-.477-1.765V17.7h-1.051v-.939h1.051V15.132Z"/><path d="M515.889,20.091a3.313,3.313,0,0,1-3.376,3.6,3.223,3.223,0,0,1-3.25-3.488,3.311,3.311,0,0,1,3.363-3.6A3.21,3.21,0,0,1,515.889,20.091Zm-5.379.07c0,1.485.855,2.606,2.059,2.606,1.177,0,2.06-1.107,2.06-2.634,0-1.148-.575-2.605-2.032-2.605S510.51,18.873,510.51,20.161Z"/><path d="M517.439,18.592c0-.7-.013-1.274-.055-1.835h1.078l.056,1.093h.042a2.336,2.336,0,0,1,2.129-1.246,2,2,0,0,1,1.919,1.358h.028a2.791,2.791,0,0,1,.756-.882,2.317,2.317,0,0,1,1.5-.476c.9,0,2.228.588,2.228,2.941v3.992h-1.205V19.7c0-1.3-.477-2.087-1.471-2.087a1.6,1.6,0,0,0-1.457,1.121,2.024,2.024,0,0,0-.1.616v4.188h-1.205V19.475c0-1.078-.475-1.863-1.414-1.863a1.837,1.837,0,0,0-1.625,1.835v4.09h-1.205Z"/><path d="M536.917,23.285a4.549,4.549,0,0,1-1.948.392,3.221,3.221,0,0,1-3.376-3.46,3.445,3.445,0,0,1,3.642-3.6,4.1,4.1,0,0,1,1.709.351l-.279.952a2.866,2.866,0,0,0-1.43-.322,2.345,2.345,0,0,0-2.394,2.563,2.324,2.324,0,0,0,2.352,2.536,3.494,3.494,0,0,0,1.514-.337Z"/><path d="M538.355,13.592h1.233v4.23h.028a2.282,2.282,0,0,1,.883-.868,2.536,2.536,0,0,1,1.26-.35c.911,0,2.368.56,2.368,2.9v4.034h-1.234V19.643c0-1.093-.406-2.017-1.568-2.017a1.77,1.77,0,0,0-1.653,1.232,1.5,1.5,0,0,0-.084.589v4.09h-1.233Z"/><path d="M549.88,23.537l-.1-.854h-.042a2.524,2.524,0,0,1-2.073,1.008,1.932,1.932,0,0,1-2.074-1.947c0-1.638,1.458-2.535,4.077-2.521v-.14a1.4,1.4,0,0,0-1.541-1.569,3.382,3.382,0,0,0-1.765.5l-.28-.812a4.2,4.2,0,0,1,2.227-.6c2.073,0,2.577,1.414,2.577,2.773v2.535A9.539,9.539,0,0,0,551,23.537Zm-.182-3.46c-1.345-.028-2.872.211-2.872,1.527a1.091,1.091,0,0,0,1.163,1.177,1.689,1.689,0,0,0,1.639-1.135,1.286,1.286,0,0,0,.07-.392Z"/><path d="M552.873,18.592c0-.7-.014-1.274-.056-1.835h1.093l.069,1.121h.029a2.491,2.491,0,0,1,2.241-1.274c.938,0,2.395.56,2.395,2.885v4.048h-1.233V19.629c0-1.092-.406-2-1.568-2a1.752,1.752,0,0,0-1.654,1.261,1.8,1.8,0,0,0-.084.574v4.076h-1.232Z"/><path d="M560.643,18.592c0-.7-.013-1.274-.055-1.835h1.092l.07,1.121h.028a2.492,2.492,0,0,1,2.241-1.274c.939,0,2.4.56,2.4,2.885v4.048h-1.234V19.629c0-1.092-.405-2-1.568-2a1.752,1.752,0,0,0-1.653,1.261,1.771,1.771,0,0,0-.084.574v4.076h-1.233Z"/><path d="M569.1,20.372a2.173,2.173,0,0,0,2.326,2.353,4.452,4.452,0,0,0,1.876-.35l.21.882a5.484,5.484,0,0,1-2.254.42,3.149,3.149,0,0,1-3.334-3.418c0-2.045,1.205-3.655,3.179-3.655,2.213,0,2.8,1.946,2.8,3.193a4.683,4.683,0,0,1-.042.575Zm3.615-.883a1.756,1.756,0,0,0-1.709-2,2.044,2.044,0,0,0-1.892,2Z"/><path d="M575.426,13.592h1.233v9.945h-1.233Z"/><path d="M581.7,18.873c0-.8-.014-1.485-.056-2.116h1.078l.042,1.331h.057A2.033,2.033,0,0,1,584.7,16.6a1.3,1.3,0,0,1,.35.042v1.162a1.851,1.851,0,0,0-.42-.042,1.73,1.73,0,0,0-1.654,1.583,3.585,3.585,0,0,0-.055.574v3.614H581.7Z"/><path d="M592.272,20.091a3.313,3.313,0,0,1-3.376,3.6,3.223,3.223,0,0,1-3.25-3.488,3.311,3.311,0,0,1,3.363-3.6A3.21,3.21,0,0,1,592.272,20.091Zm-5.379.07c0,1.485.855,2.606,2.059,2.606,1.177,0,2.059-1.107,2.059-2.634,0-1.148-.574-2.605-2.031-2.605S586.893,18.873,586.893,20.161Z"/><path d="M599.5,21.688c0,.7.014,1.317.056,1.849H598.46l-.071-1.106h-.028a2.549,2.549,0,0,1-2.241,1.26c-1.065,0-2.339-.588-2.339-2.969V16.757h1.232v3.754c0,1.289.393,2.158,1.513,2.158a1.782,1.782,0,0,0,1.625-1.121,1.8,1.8,0,0,0,.112-.63V16.757H599.5Z"/><path d="M603.022,14.811v1.946h1.765V17.7h-1.765v3.656c0,.84.237,1.317.924,1.317a2.75,2.75,0,0,0,.715-.084l.056.924a3.026,3.026,0,0,1-1.093.168,1.707,1.707,0,0,1-1.33-.518,2.508,2.508,0,0,1-.477-1.765V17.7h-1.051v-.939h1.051V15.132Z"/><path d="M607.544,14.853a.764.764,0,0,1-1.528,0,.752.752,0,0,1,.771-.771A.732.732,0,0,1,607.544,14.853Zm-1.373,8.684v-6.78H607.4v6.78Z"/><path d="M609.446,18.592c0-.7-.014-1.274-.056-1.835h1.093l.069,1.121h.029a2.492,2.492,0,0,1,2.241-1.274c.938,0,2.4.56,2.4,2.885v4.048h-1.234V19.629c0-1.092-.405-2-1.568-2a1.752,1.752,0,0,0-1.654,1.261,1.8,1.8,0,0,0-.084.574v4.076h-1.232Z"/><path d="M623.057,16.757c-.027.491-.055,1.037-.055,1.864v3.936c0,1.554-.308,2.507-.967,3.1a3.589,3.589,0,0,1-2.465.813,4.368,4.368,0,0,1-2.255-.561l.308-.938a3.822,3.822,0,0,0,1.989.532c1.261,0,2.186-.658,2.186-2.367v-.756h-.029a2.419,2.419,0,0,1-2.157,1.134,3.03,3.03,0,0,1-2.886-3.306c0-2.3,1.5-3.6,3.054-3.6A2.254,2.254,0,0,1,621.9,17.78h.029l.055-1.023Zm-1.274,2.676a1.755,1.755,0,0,0-.07-.56,1.776,1.776,0,0,0-1.723-1.3c-1.177,0-2.017,1-2.017,2.563,0,1.331.672,2.438,2,2.438a1.8,1.8,0,0,0,1.709-1.261,2.145,2.145,0,0,0,.1-.659Z"/><path d="M74.316,164.775a4.311,4.311,0,0,0,2.186.617c1.246,0,1.974-.659,1.974-1.611,0-.882-.5-1.387-1.779-1.877-1.54-.546-2.493-1.345-2.493-2.675,0-1.471,1.219-2.564,3.054-2.564a4.271,4.271,0,0,1,2.086.463l-.335.994a3.763,3.763,0,0,0-1.793-.448c-1.289,0-1.779.77-1.779,1.414,0,.883.574,1.317,1.877,1.821,1.6.617,2.409,1.387,2.409,2.774,0,1.457-1.079,2.717-3.3,2.717a4.882,4.882,0,0,1-2.41-.6Z"/><path d="M85.139,166.26l-.1-.854H85a2.528,2.528,0,0,1-2.074,1.009,1.932,1.932,0,0,1-2.073-1.948c0-1.638,1.457-2.535,4.076-2.521v-.14a1.4,1.4,0,0,0-1.541-1.569,3.379,3.379,0,0,0-1.764.5l-.281-.812a4.215,4.215,0,0,1,2.228-.6c2.073,0,2.577,1.414,2.577,2.773v2.535a9.545,9.545,0,0,0,.112,1.625Zm-.181-3.46c-1.345-.027-2.872.211-2.872,1.527a1.091,1.091,0,0,0,1.163,1.177,1.687,1.687,0,0,0,1.638-1.135,1.288,1.288,0,0,0,.071-.392Z"/><path d="M88.134,161.316c0-.7-.014-1.275-.056-1.835h1.078l.057,1.092h.042a2.335,2.335,0,0,1,2.129-1.246,2,2,0,0,1,1.918,1.358h.029a2.779,2.779,0,0,1,.756-.882,2.313,2.313,0,0,1,1.5-.476c.9,0,2.227.588,2.227,2.941v3.992h-1.2v-3.838c0-1.3-.476-2.087-1.471-2.087a1.6,1.6,0,0,0-1.457,1.121,2.062,2.062,0,0,0-.1.616v4.188h-1.2V162.2c0-1.078-.476-1.863-1.414-1.863a1.833,1.833,0,0,0-1.625,1.835v4.09h-1.2Z"/><path d="M99.81,161.694c0-.869-.028-1.569-.055-2.213h1.106l.056,1.162h.028a2.666,2.666,0,0,1,2.409-1.316c1.639,0,2.872,1.386,2.872,3.446,0,2.437-1.485,3.642-3.082,3.642a2.38,2.38,0,0,1-2.087-1.065h-.028v3.684H99.81Zm1.219,1.807a2.774,2.774,0,0,0,.056.5,1.9,1.9,0,0,0,1.849,1.443c1.3,0,2.059-1.065,2.059-2.619,0-1.359-.714-2.522-2.017-2.522a1.966,1.966,0,0,0-1.863,1.527,2,2,0,0,0-.084.5Z"/><path d="M107.776,156.315h1.233v9.945h-1.233Z"/><path d="M111.766,163.1a2.173,2.173,0,0,0,2.326,2.353,4.452,4.452,0,0,0,1.876-.35l.21.882a5.484,5.484,0,0,1-2.254.42,3.148,3.148,0,0,1-3.334-3.417c0-2.045,1.2-3.656,3.179-3.656,2.213,0,2.8,1.947,2.8,3.193a4.666,4.666,0,0,1-.042.575Zm3.615-.883a1.756,1.756,0,0,0-1.709-2,2.045,2.045,0,0,0-1.892,2Z"/><path d="M126.72,161.61c0,3.1-1.148,4.8-3.166,4.8-1.778,0-2.983-1.667-3.011-4.679,0-3.054,1.317-4.734,3.166-4.734C125.628,157,126.72,158.71,126.72,161.61Zm-4.944.14c0,2.367.728,3.712,1.849,3.712,1.26,0,1.863-1.471,1.863-3.8,0-2.241-.574-3.712-1.85-3.712C122.56,157.954,121.776,159.271,121.776,161.75Z"/><path d="M245.391,164.585a4.32,4.32,0,0,0,2.185.616c1.246,0,1.975-.658,1.975-1.611,0-.882-.5-1.386-1.779-1.877-1.54-.546-2.493-1.344-2.493-2.675,0-1.471,1.218-2.564,3.053-2.564a4.287,4.287,0,0,1,2.087.463l-.336.994a3.756,3.756,0,0,0-1.793-.448c-1.288,0-1.778.771-1.778,1.415,0,.882.574,1.316,1.877,1.82,1.6.618,2.409,1.387,2.409,2.774,0,1.457-1.079,2.718-3.306,2.718a4.873,4.873,0,0,1-2.41-.6Z"/><path d="M256.214,166.07l-.1-.855h-.042A2.522,2.522,0,0,1,254,166.224a1.932,1.932,0,0,1-2.073-1.947c0-1.639,1.457-2.535,4.076-2.522v-.14a1.4,1.4,0,0,0-1.541-1.569,3.392,3.392,0,0,0-1.765.5l-.28-.812a4.213,4.213,0,0,1,2.228-.6c2.073,0,2.577,1.414,2.577,2.774v2.535a9.56,9.56,0,0,0,.112,1.625Zm-.182-3.46c-1.344-.028-2.872.21-2.872,1.526a1.091,1.091,0,0,0,1.163,1.177,1.687,1.687,0,0,0,1.639-1.135,1.28,1.28,0,0,0,.07-.391Z"/><path d="M259.208,161.125c0-.7-.013-1.275-.055-1.835h1.078l.056,1.092h.042a2.336,2.336,0,0,1,2.129-1.246,2,2,0,0,1,1.919,1.359h.028a2.8,2.8,0,0,1,.756-.883,2.317,2.317,0,0,1,1.5-.476c.9,0,2.228.588,2.228,2.942v3.992h-1.2v-3.838c0-1.3-.477-2.088-1.471-2.088a1.6,1.6,0,0,0-1.457,1.121,2.029,2.029,0,0,0-.1.616v4.189h-1.2v-4.063c0-1.078-.475-1.863-1.414-1.863a1.839,1.839,0,0,0-1.625,1.835v4.091h-1.2Z"/><path d="M270.885,161.5c0-.87-.028-1.57-.056-2.214h1.107l.055,1.163h.029a2.665,2.665,0,0,1,2.409-1.317c1.639,0,2.872,1.387,2.872,3.446,0,2.437-1.485,3.642-3.082,3.642a2.375,2.375,0,0,1-2.087-1.065H272.1v3.684h-1.219Zm1.219,1.806a2.859,2.859,0,0,0,.055.5,1.9,1.9,0,0,0,1.85,1.443c1.3,0,2.059-1.064,2.059-2.619,0-1.359-.714-2.521-2.017-2.521a1.965,1.965,0,0,0-1.863,1.526,2,2,0,0,0-.084.5Z"/><path d="M278.851,156.125h1.232v9.945h-1.232Z"/><path d="M282.841,162.9a2.172,2.172,0,0,0,2.325,2.353,4.457,4.457,0,0,0,1.877-.35l.21.883a5.49,5.49,0,0,1-2.255.42,3.149,3.149,0,0,1-3.334-3.418c0-2.045,1.205-3.656,3.18-3.656,2.213,0,2.8,1.947,2.8,3.194a4.855,4.855,0,0,1-.042.574Zm3.614-.883a1.755,1.755,0,0,0-1.709-2,2.043,2.043,0,0,0-1.891,2Z"/><path d="M294.419,158.113h-.028l-1.582.854-.238-.938,1.989-1.065h1.05v9.106h-1.191Z"/><path d="M442.331,164.68a4.31,4.31,0,0,0,2.185.616c1.246,0,1.975-.658,1.975-1.61,0-.883-.5-1.387-1.779-1.877-1.54-.547-2.494-1.345-2.494-2.676,0-1.47,1.219-2.563,3.054-2.563a4.287,4.287,0,0,1,2.087.463l-.336.994a3.756,3.756,0,0,0-1.793-.448c-1.288,0-1.778.77-1.778,1.415,0,.882.574,1.316,1.877,1.82,1.6.617,2.409,1.387,2.409,2.773,0,1.458-1.079,2.718-3.306,2.718a4.874,4.874,0,0,1-2.41-.6Z"/><path d="M453.154,166.166l-.1-.855h-.042a2.526,2.526,0,0,1-2.073,1.009,1.932,1.932,0,0,1-2.073-1.947c0-1.639,1.457-2.536,4.076-2.522v-.14a1.4,1.4,0,0,0-1.541-1.569,3.382,3.382,0,0,0-1.765.5l-.28-.812a4.2,4.2,0,0,1,2.228-.6c2.073,0,2.577,1.414,2.577,2.773v2.536a9.56,9.56,0,0,0,.112,1.625Zm-.182-3.46c-1.344-.029-2.872.21-2.872,1.526a1.091,1.091,0,0,0,1.163,1.177,1.688,1.688,0,0,0,1.639-1.135,1.286,1.286,0,0,0,.07-.392Z"/><path d="M456.148,161.22c0-.7-.014-1.274-.055-1.835h1.078l.056,1.093h.042a2.336,2.336,0,0,1,2.129-1.246,2,2,0,0,1,1.919,1.358h.028a2.791,2.791,0,0,1,.756-.882,2.317,2.317,0,0,1,1.5-.476c.9,0,2.228.588,2.228,2.941v3.993h-1.2v-3.838c0-1.3-.477-2.088-1.471-2.088a1.6,1.6,0,0,0-1.457,1.121,2.029,2.029,0,0,0-.1.616v4.189h-1.2V162.1c0-1.078-.475-1.863-1.414-1.863a1.837,1.837,0,0,0-1.625,1.835v4.091h-1.2Z"/><path d="M467.825,161.6c0-.869-.028-1.569-.056-2.214h1.107l.055,1.163h.029a2.664,2.664,0,0,1,2.409-1.316c1.639,0,2.872,1.387,2.872,3.445,0,2.438-1.485,3.643-3.082,3.643a2.376,2.376,0,0,1-2.087-1.066h-.028v3.685h-1.219Zm1.219,1.807a2.88,2.88,0,0,0,.055.5,1.9,1.9,0,0,0,1.85,1.443c1.3,0,2.059-1.064,2.059-2.619,0-1.359-.714-2.522-2.017-2.522a1.966,1.966,0,0,0-1.863,1.527,2,2,0,0,0-.084.5Z"/><path d="M475.791,156.22h1.232v9.946h-1.232Z"/><path d="M479.781,163a2.172,2.172,0,0,0,2.325,2.353,4.457,4.457,0,0,0,1.877-.35l.21.882a5.477,5.477,0,0,1-2.255.42,3.149,3.149,0,0,1-3.334-3.418c0-2.045,1.205-3.655,3.18-3.655,2.213,0,2.8,1.946,2.8,3.193a4.876,4.876,0,0,1-.042.575Zm3.614-.883a1.755,1.755,0,0,0-1.709-2,2.042,2.042,0,0,0-1.891,2Z"/><path d="M494.735,161.515c0,3.1-1.148,4.805-3.166,4.805-1.778,0-2.983-1.667-3.012-4.679,0-3.054,1.318-4.734,3.166-4.734C493.642,156.907,494.735,158.615,494.735,161.515Zm-4.944.14c0,2.367.727,3.712,1.848,3.712,1.261,0,1.864-1.471,1.864-3.8,0-2.241-.575-3.712-1.85-3.712C490.575,157.859,489.791,159.175,489.791,161.655Z"/><path d="M613.4,164.49a4.321,4.321,0,0,0,2.186.616c1.246,0,1.974-.658,1.974-1.611,0-.882-.5-1.387-1.779-1.877-1.54-.546-2.493-1.344-2.493-2.675,0-1.471,1.219-2.564,3.054-2.564a4.286,4.286,0,0,1,2.086.463l-.336.995a3.741,3.741,0,0,0-1.792-.449c-1.289,0-1.779.77-1.779,1.415,0,.882.574,1.317,1.877,1.821,1.6.616,2.409,1.386,2.409,2.773,0,1.457-1.079,2.718-3.3,2.718a4.871,4.871,0,0,1-2.41-.6Z"/><path d="M624.224,165.975l-.1-.855h-.042a2.528,2.528,0,0,1-2.074,1.009,1.932,1.932,0,0,1-2.073-1.947c0-1.639,1.457-2.535,4.076-2.522v-.14a1.4,1.4,0,0,0-1.541-1.569,3.377,3.377,0,0,0-1.764.5l-.281-.813a4.213,4.213,0,0,1,2.228-.6c2.073,0,2.577,1.415,2.577,2.774v2.535a9.56,9.56,0,0,0,.112,1.625Zm-.181-3.46c-1.345-.028-2.872.21-2.872,1.527a1.09,1.09,0,0,0,1.163,1.176,1.686,1.686,0,0,0,1.638-1.134,1.294,1.294,0,0,0,.071-.393Z"/><path d="M627.218,161.03c0-.7-.013-1.275-.055-1.835h1.078l.057,1.093h.042a2.333,2.333,0,0,1,2.128-1.247,2,2,0,0,1,1.919,1.358h.029a2.79,2.79,0,0,1,.756-.882,2.313,2.313,0,0,1,1.5-.476c.9,0,2.227.588,2.227,2.942v3.992h-1.205v-3.838c0-1.3-.476-2.088-1.471-2.088a1.6,1.6,0,0,0-1.457,1.121,2.062,2.062,0,0,0-.1.616v4.189h-1.205v-4.062c0-1.079-.476-1.864-1.414-1.864a1.833,1.833,0,0,0-1.625,1.835v4.091h-1.206Z"/><path d="M638.9,161.408c0-.868-.028-1.569-.055-2.213h1.106l.056,1.163h.028a2.664,2.664,0,0,1,2.409-1.317c1.639,0,2.872,1.387,2.872,3.446,0,2.437-1.485,3.642-3.082,3.642a2.38,2.38,0,0,1-2.087-1.065h-.028v3.684H638.9Zm1.219,1.807a2.764,2.764,0,0,0,.056.5,1.9,1.9,0,0,0,1.849,1.443c1.3,0,2.059-1.064,2.059-2.619,0-1.359-.714-2.521-2.017-2.521a1.966,1.966,0,0,0-1.863,1.526,2,2,0,0,0-.084.5Z"/><path d="M646.861,156.029h1.232v9.946h-1.232Z"/><path d="M650.851,162.809a2.172,2.172,0,0,0,2.325,2.353,4.453,4.453,0,0,0,1.877-.35l.21.882a5.464,5.464,0,0,1-2.254.421,3.149,3.149,0,0,1-3.334-3.418c0-2.045,1.205-3.656,3.179-3.656,2.213,0,2.8,1.947,2.8,3.193a4.65,4.65,0,0,1-.042.575Zm3.615-.883a1.756,1.756,0,0,0-1.709-2,2.044,2.044,0,0,0-1.892,2Z"/><path d="M662.429,158.018H662.4l-1.582.855-.238-.939,1.989-1.064h1.05v9.1h-1.191Z"/></svg>