<svg id="Layer_1" data-name="Layer 1" xmlns="http://www.w3.org/2000/svg" width="772" height="439.885" viewBox="0 0 772 439.885"><defs><style>.cls-1,.cls-2,.cls-3,.cls-4,.cls-5,.cls-6{fill:none;stroke-miterlimit:10;}.cls-1{stroke:#cbcbcb;}.cls-2,.cls-5,.cls-6{stroke:#000;}.cls-3{stroke:#ccc;}.cls-4{stroke:blue;}.cls-5{stroke-dasharray:3.01 3.01;}.cls-6{stroke-dasharray:3.011 3.011;}</style></defs><line class="cls-1" x1="737.5" y1="94.36" x2="155.6" y2="94.36"/><path class="cls-2" d="M155.537,111.092c2.837,0,2.77-34.3,5.607-34.3s2.905,34.293,5.743,34.291,2.77-34.3,5.607-34.3,2.9,34.293,5.741,34.29,2.772-34.3,5.61-34.3,2.9,34.294,5.741,34.291,2.772-34.3,5.611-34.3,2.9,34.294,5.742,34.291,2.771-34.3,5.61-34.3,2.905,34.294,5.743,34.291,2.772-34.3,5.611-34.3,2.905,34.294,5.743,34.291,2.772-34.3,5.611-34.3,2.907,34.294,5.746,34.291,2.772-34.3,5.611-34.3,2.9,34.293,5.74,34.291,2.772-34.3,5.611-34.3,2.9,34.293,5.741,34.291,2.772-34.3,5.611-34.3,2.906,34.294,5.746,34.291,2.773-34.3,5.613-34.3,2.907,34.294,5.747,34.291,2.773-34.3,5.614-34.3,2.906,34.294,5.745,34.291,2.775-34.3,5.616-34.3,2.911,34.294,5.754,34.291,4.636-62.536,7.479-62.539"/><path class="cls-2" d="M310.631,48.408c2.838-.012,3.015,96.642,5.852,96.63s2.661-96.666,5.5-96.677,3.013,96.642,5.85,96.63,2.66-96.666,5.5-96.678,3.015,96.642,5.853,96.63,2.66-96.666,5.5-96.678,3.014,96.642,5.851,96.631,2.66-96.666,5.5-96.678,3.014,96.642,5.851,96.63,2.659-96.666,5.494-96.678,3.011,96.642,5.846,96.631,2.657-96.666,5.492-96.678,3.012,96.642,5.847,96.63,2.661-96.666,5.5-96.678,3.013,96.642,5.85,96.63,2.659-96.665,5.494-96.677,3.012,96.642,5.848,96.63,2.66-96.666,5.5-96.678,3.015,96.642,5.854,96.63,2.66-96.666,5.5-96.677,3.013,96.642,5.849,96.63,2.661-96.666,5.5-96.678,3.014,96.642,5.852,96.63,2.661-96.666,5.5-96.678,3.014,96.643,5.851,96.631,2.662-96.666,5.5-96.678,3.013,96.642,5.851,96.63,2.662-96.666,5.5-96.678,3.014,96.642,5.852,96.631,2.662-96.666,5.5-96.678,3.015,96.642,5.853,96.63,2.663-96.666,5.5-96.678,3.015,96.642,5.853,96.63,2.663-96.666,5.5-96.677,3.016,96.642,5.855,96.63,2.663-96.666,5.5-96.678,3.013,96.642,5.849,96.63,2.663-96.666,5.5-96.678,3.013,96.643,5.85,96.631,2.663-96.666,5.5-96.678,3.017,96.642,5.856,96.63,2.664-96.666,5.5-96.678,3.016,96.642,5.856,96.63,2.664-96.665,5.5-96.677,3.015,96.642,5.855,96.63,2.665-96.666,5.506-96.678,3.02,96.642,5.864,96.63,2.667-96.666,5.51-96.678"/><path class="cls-2" d="M738.164,111.092c-2.837,0-2.77-34.3-5.607-34.3s-2.9,34.293-5.744,34.291-2.769-34.3-5.606-34.3-2.9,34.293-5.742,34.29-2.771-34.3-5.609-34.3-2.9,34.294-5.742,34.291-2.771-34.3-5.61-34.3-2.9,34.294-5.742,34.291-2.772-34.3-5.61-34.3-2.905,34.294-5.743,34.291-2.772-34.3-5.611-34.3-2.9,34.294-5.744,34.291-2.772-34.3-5.611-34.3-2.906,34.294-5.746,34.291-2.772-34.3-5.611-34.3-2.9,34.293-5.739,34.291-2.772-34.3-5.611-34.3-2.9,34.293-5.742,34.291-2.771-34.3-5.61-34.3-2.907,34.294-5.747,34.291-2.772-34.3-5.612-34.3-2.907,34.294-5.747,34.291-2.774-34.3-5.614-34.3-2.906,34.294-5.746,34.291-2.774-34.3-5.616-34.3-2.91,34.294-5.754,34.291-4.635-63.678-7.479-63.681"/><line class="cls-1" x1="737.5" y1="246.16" x2="155.6" y2="246.16"/><path class="cls-2" d="M155.577,263.277c2.837,0,2.77-34.483,5.608-34.486s2.905,34.477,5.743,34.474,2.769-34.482,5.606-34.485,2.9,34.477,5.742,34.474,2.771-34.483,5.61-34.485,2.9,34.477,5.741,34.474,2.772-34.483,5.61-34.486,2.905,34.478,5.743,34.475,2.771-34.483,5.609-34.486,2.905,34.477,5.743,34.475,2.772-34.483,5.611-34.486,2.906,34.477,5.744,34.474,2.772-34.482,5.611-34.485S232.2,263.2,235.044,263.2s2.772-34.483,5.611-34.485,2.9,34.477,5.739,34.474,2.772-34.483,5.611-34.486,2.905,34.478,5.742,34.475,2.771-34.483,5.61-34.486,2.907,34.478,5.747,34.475,2.773-34.483,5.613-34.486,2.906,34.477,5.746,34.475,2.774-34.483,5.615-34.486,2.906,34.477,5.745,34.474,2.774-34.482,5.616-34.485,2.911,34.477,5.754,34.474,4.554-64.235,7.4-64.238"/><path class="cls-2" d="M310.591,198.893c2.838-.009,3.095,87.686,5.933,87.678s2.579-79.851,5.417-79.86,3.094,73.725,5.93,73.717,2.58-68.776,5.417-68.785,3.095,61.493,5.933,61.485,2.58-55.248,5.417-55.257,3.094,55.231,5.931,55.223,2.58-55.248,5.417-55.257,3.1,55.231,5.933,55.223,2.578-55.249,5.413-55.257,3.092,55.231,5.926,55.222,2.577-55.248,5.411-55.256S381.762,273,384.6,272.991s2.58-55.248,5.417-55.256,3.1,55.231,5.932,55.222,2.577-55.248,5.413-55.257,3.093,55.231,5.928,55.223,2.579-55.248,5.415-55.257,3.1,55.231,5.935,55.223,2.579-55.248,5.416-55.257,3.093,55.231,5.929,55.223,2.58-55.249,5.417-55.257,3.1,55.231,5.934,55.222,2.579-55.248,5.416-55.256,3.1,55.231,5.932,55.222,2.581-55.248,5.419-55.256,3.1,55.231,5.932,55.222,2.581-55.248,5.42-55.257,3.1,55.231,5.933,55.223,2.58-55.248,5.419-55.257,3.1,55.231,5.934,55.223,2.581-55.248,5.42-55.257,3.1,55.231,5.934,55.222,2.581-55.248,5.42-55.256,3.1,55.231,5.937,55.222,2.581-55.248,5.421-55.256,3.093,55.231,5.93,55.222,2.581-55.248,5.42-55.257,3.1,55.231,5.932,55.223,2.581-55.248,5.42-55.257,3.1,55.231,5.937,55.223,2.582-55.248,5.422-55.257,3.1,55.231,5.938,55.223,2.583-55.249,5.423-55.257,3.1,55.231,5.936,55.222,2.584-55.248,5.426-55.256,3.1,55.231,5.944,55.222,2.586-55.248,5.43-55.257"/><path class="cls-2" d="M738.205,263.277c-2.838,0-2.771-34.483-5.608-34.486s-2.9,34.477-5.743,34.474-2.77-34.482-5.606-34.485-2.905,34.477-5.742,34.474-2.771-34.483-5.61-34.485-2.9,34.477-5.741,34.474-2.772-34.483-5.61-34.486-2.9,34.478-5.743,34.475-2.771-34.483-5.609-34.486-2.9,34.477-5.744,34.475-2.772-34.483-5.611-34.486-2.9,34.477-5.743,34.474-2.772-34.482-5.611-34.485-2.907,34.477-5.746,34.474-2.772-34.483-5.611-34.485-2.9,34.477-5.74,34.474-2.772-31.9-5.611-31.9-2.9,29.508-5.741,29.5-2.772-27.038-5.61-27.04-2.907,24.436-5.747,24.434-2.773-22.057-5.613-22.059-2.907,19.735-5.747,19.732-2.668-17.31-5.509-17.312-3.011,14.895-5.85,14.892-2.775-13.218-5.616-13.221-2.893,10.9-5.737,10.894-4.734-33.953-7.577-33.956"/><line class="cls-1" x1="735.435" y1="414.218" x2="152.727" y2="414.218"/><line class="cls-2" x1="152.3" y1="340.76" x2="308.5" y2="340.76"/><line class="cls-1" x1="155.05" y1="149.91" x2="155.05" y2="38.81"/><line class="cls-3" x1="154.5" y1="39.36" x2="157.8" y2="39.36"/><line class="cls-3" x1="154.5" y1="150.46" x2="157.8" y2="150.46"/><line class="cls-1" x1="155.05" y1="302.81" x2="155.05" y2="190.61"/><line class="cls-3" x1="154.5" y1="191.16" x2="157.8" y2="191.16"/><line class="cls-3" x1="154.5" y1="302.26" x2="157.8" y2="302.26"/><line class="cls-1" x1="152.85" y1="413.91" x2="152.85" y2="341.31"/><line class="cls-3" x1="152.3" y1="340.76" x2="156.7" y2="340.76"/><line class="cls-3" x1="152.3" y1="414.46" x2="156.7" y2="414.46"/><path d="M137.844,36.819v2.348H140.1v.6h-2.259v2.369h-.64V39.767h-2.259v-.6H137.2V36.819Z"/><path d="M140.875,40.486a1.857,1.857,0,0,1,1.29-1.739l-.011-.029a1.61,1.61,0,0,1-1.029-1.46,1.82,1.82,0,0,1,2.009-1.729,1.678,1.678,0,0,1,1.889,1.6,1.652,1.652,0,0,1-1.069,1.52v.03a1.8,1.8,0,0,1,1.309,1.679,2,2,0,0,1-2.209,1.888C141.7,42.245,140.875,41.436,140.875,40.486Zm3.5-.04c0-.789-.549-1.169-1.429-1.419a1.412,1.412,0,0,0-1.169,1.339,1.2,1.2,0,0,0,1.3,1.24A1.176,1.176,0,0,0,144.373,40.446ZM141.955,37.2c0,.65.489,1,1.239,1.2a1.282,1.282,0,0,0,.99-1.18,1.01,1.01,0,0,0-1.1-1.059A1.033,1.033,0,0,0,141.955,37.2Z"/><path d="M150.4,38.818c0,2.209-.82,3.427-2.259,3.427-1.269,0-2.129-1.189-2.149-3.338,0-2.178.94-3.378,2.259-3.378C149.623,35.529,150.4,36.748,150.4,38.818Zm-3.528.1c0,1.69.52,2.649,1.319,2.649.9,0,1.329-1.049,1.329-2.708,0-1.6-.41-2.649-1.319-2.649C147.434,36.209,146.875,37.149,146.875,38.917Z"/><path d="M140.2,150.085v.65h-2.469v-.65Z"/><path d="M140.875,151.464a1.857,1.857,0,0,1,1.29-1.739l-.011-.03a1.609,1.609,0,0,1-1.029-1.46,1.819,1.819,0,0,1,2.009-1.728,1.678,1.678,0,0,1,1.889,1.6,1.651,1.651,0,0,1-1.069,1.519v.03a1.8,1.8,0,0,1,1.309,1.679,2,2,0,0,1-2.209,1.889C141.7,153.223,140.875,152.413,140.875,151.464Zm3.5-.04c0-.789-.549-1.169-1.429-1.419a1.412,1.412,0,0,0-1.169,1.339,1.2,1.2,0,0,0,1.3,1.239A1.175,1.175,0,0,0,144.373,151.424Zm-2.418-3.248c0,.649.489,1,1.239,1.2a1.28,1.28,0,0,0,.989-1.18,1.009,1.009,0,0,0-1.1-1.058A1.032,1.032,0,0,0,141.955,148.176Z"/><path d="M150.4,149.795c0,2.209-.82,3.428-2.259,3.428-1.269,0-2.129-1.19-2.149-3.338,0-2.179.94-3.378,2.259-3.378C149.623,146.507,150.4,147.726,150.4,149.795Zm-3.528.1c0,1.689.519,2.648,1.319,2.648.9,0,1.329-1.049,1.329-2.708,0-1.6-.41-2.648-1.319-2.648C147.434,147.187,146.875,148.126,146.875,149.9Z"/><path d="M147.994,338.282h-.02l-1.129.61-.17-.669,1.419-.76h.749v6.5h-.849Z"/><path d="M150.4,413.567c0,2.209-.82,3.427-2.259,3.427-1.269,0-2.129-1.189-2.149-3.338,0-2.179.94-3.379,2.259-3.379C149.623,410.277,150.4,411.5,150.4,413.567Zm-3.528.1c0,1.69.52,2.649,1.319,2.649.9,0,1.329-1.049,1.329-2.709,0-1.6-.41-2.649-1.319-2.649C147.434,410.957,146.875,411.9,146.875,413.666Z"/><line class="cls-2" x1="308.365" y1="341.149" x2="331.6" y2="377.633"/><line class="cls-2" x1="331.6" y1="378.16" x2="583.5" y2="378.161"/><line class="cls-2" x1="583.069" y1="377.634" x2="653.127" y2="343.322"/><line class="cls-2" x1="737.5" y1="342.96" x2="652.8" y2="342.96"/><line class="cls-4" x1="585.7" y1="385.86" x2="652.8" y2="385.86"/><line class="cls-4" x1="652.25" y1="386.41" x2="652.25" y2="383.11"/><line class="cls-4" x1="586.25" y1="385.31" x2="586.25" y2="383.11"/><path d="M23.087,98.336a.216.216,0,0,1-.035.123.229.229,0,0,1-.123.083,1.3,1.3,0,0,1-.233.053,2.442,2.442,0,0,1-.364.022,2.482,2.482,0,0,1-.361-.022,1.312,1.312,0,0,1-.237-.053.229.229,0,0,1-.123-.083.216.216,0,0,1-.035-.123V87.42a.2.2,0,0,1,.039-.123.267.267,0,0,1,.132-.084,1.585,1.585,0,0,1,.237-.053,2.463,2.463,0,0,1,.348-.022,2.586,2.586,0,0,1,.364.022,1.391,1.391,0,0,1,.233.053.23.23,0,0,1,.123.084.212.212,0,0,1,.035.123Z"/><path d="M32.755,98.344a.193.193,0,0,1-.035.119.278.278,0,0,1-.114.084.8.8,0,0,1-.22.052,2.847,2.847,0,0,1-.351.018,2.945,2.945,0,0,1-.361-.018.79.79,0,0,1-.219-.052.289.289,0,0,1-.115-.084.2.2,0,0,1-.035-.119V93.713a4.567,4.567,0,0,0-.105-1.09,2.259,2.259,0,0,0-.308-.712,1.333,1.333,0,0,0-.523-.457,1.651,1.651,0,0,0-.743-.158,1.87,1.87,0,0,0-1.089.386,5.882,5.882,0,0,0-1.143,1.134v5.528a.2.2,0,0,1-.035.119.292.292,0,0,1-.114.084.8.8,0,0,1-.22.052,2.939,2.939,0,0,1-.36.018,2.854,2.854,0,0,1-.352-.018.862.862,0,0,1-.224-.052.242.242,0,0,1-.114-.084.213.213,0,0,1-.031-.119v-7.91a.248.248,0,0,1,.026-.118.23.23,0,0,1,.106-.088.581.581,0,0,1,.2-.053,3.129,3.129,0,0,1,.325-.013,3.162,3.162,0,0,1,.321.013.513.513,0,0,1,.2.053.278.278,0,0,1,.1.088.218.218,0,0,1,.03.118V91.48a4.871,4.871,0,0,1,1.332-1.094,2.856,2.856,0,0,1,1.34-.347,2.977,2.977,0,0,1,1.332.268,2.383,2.383,0,0,1,.874.716,2.84,2.84,0,0,1,.479,1.05,6.243,6.243,0,0,1,.145,1.446Z"/><path d="M42.678,94.266a7.1,7.1,0,0,1-.224,1.864,4.051,4.051,0,0,1-.659,1.4,2.947,2.947,0,0,1-1.077.888,3.313,3.313,0,0,1-1.468.312,2.829,2.829,0,0,1-.65-.07,2.47,2.47,0,0,1-.584-.22,3.409,3.409,0,0,1-.567-.378q-.282-.228-.6-.536v3.955a.219.219,0,0,1-.035.123.263.263,0,0,1-.114.088.832.832,0,0,1-.22.053,3.187,3.187,0,0,1-.36.017,3.1,3.1,0,0,1-.352-.017.9.9,0,0,1-.224-.053.223.223,0,0,1-.114-.088.234.234,0,0,1-.031-.123V90.434a.27.27,0,0,1,.026-.127.22.22,0,0,1,.106-.084.7.7,0,0,1,.2-.048,2.821,2.821,0,0,1,.3-.013,2.788,2.788,0,0,1,.3.013.7.7,0,0,1,.2.048.256.256,0,0,1,.11.084.236.236,0,0,1,.03.127V91.5a8.564,8.564,0,0,1,.7-.642,4.152,4.152,0,0,1,.672-.453,3.2,3.2,0,0,1,.694-.272,2.968,2.968,0,0,1,.752-.092,3,3,0,0,1,1.468.334,2.758,2.758,0,0,1,.988.914,4.063,4.063,0,0,1,.558,1.349A7.253,7.253,0,0,1,42.678,94.266Zm-1.5.167a7.353,7.353,0,0,0-.092-1.173,3.375,3.375,0,0,0-.319-1.006,1.882,1.882,0,0,0-.606-.7,1.625,1.625,0,0,0-.946-.263,1.923,1.923,0,0,0-.557.083,2.3,2.3,0,0,0-.557.264,3.934,3.934,0,0,0-.593.475,7.345,7.345,0,0,0-.654.725V95.98A6.264,6.264,0,0,0,37.992,97.1a1.914,1.914,0,0,0,1.132.387,1.648,1.648,0,0,0,.941-.264,1.975,1.975,0,0,0,.637-.7,3.539,3.539,0,0,0,.359-.984A5.354,5.354,0,0,0,41.175,94.433Z"/><path d="M51.634,98.344a.221.221,0,0,1-.03.119.256.256,0,0,1-.11.084.777.777,0,0,1-.207.052,2.282,2.282,0,0,1-.312.018,2.421,2.421,0,0,1-.329-.018.716.716,0,0,1-.2-.052.224.224,0,0,1-.1-.084.252.252,0,0,1-.026-.119V97.3a4.9,4.9,0,0,1-1.336,1.09,2.862,2.862,0,0,1-1.336.343,3.023,3.023,0,0,1-1.332-.264,2.333,2.333,0,0,1-.874-.716,2.9,2.9,0,0,1-.479-1.055,6.321,6.321,0,0,1-.145-1.463v-4.8a.21.21,0,0,1,.031-.118.256.256,0,0,1,.118-.088.722.722,0,0,1,.229-.053c.094-.009.211-.013.351-.013s.258,0,.352.013a.67.67,0,0,1,.224.053.3.3,0,0,1,.119.088.2.2,0,0,1,.035.118V95.04a4.93,4.93,0,0,0,.1,1.112,2.062,2.062,0,0,0,.308.711,1.411,1.411,0,0,0,.523.457,1.586,1.586,0,0,0,.738.163,1.853,1.853,0,0,0,1.085-.387,6.108,6.108,0,0,0,1.147-1.133V90.434a.218.218,0,0,1,.031-.118.26.26,0,0,1,.119-.088.7.7,0,0,1,.224-.053c.091-.009.209-.013.356-.013s.258,0,.351.013a.626.626,0,0,1,.22.053.348.348,0,0,1,.119.088.18.18,0,0,1,.039.118Z"/><path d="M58.428,97.764a1.817,1.817,0,0,1-.035.405.457.457,0,0,1-.105.219.7.7,0,0,1-.211.132,1.708,1.708,0,0,1-.321.1c-.12.027-.248.049-.382.066a3.357,3.357,0,0,1-1.459-.136,1.7,1.7,0,0,1-.721-.492,2.024,2.024,0,0,1-.409-.835,4.912,4.912,0,0,1-.127-1.191V91.41H53.55a.237.237,0,0,1-.211-.141.992.992,0,0,1-.079-.457,1.577,1.577,0,0,1,.022-.281.853.853,0,0,1,.057-.189.228.228,0,0,1,.093-.106.267.267,0,0,1,.127-.03h1.1V88.325a.226.226,0,0,1,.03-.114.254.254,0,0,1,.115-.093.763.763,0,0,1,.224-.057,2.872,2.872,0,0,1,.351-.017,2.974,2.974,0,0,1,.361.017.7.7,0,0,1,.219.057.292.292,0,0,1,.115.093.2.2,0,0,1,.035.114v1.881h2.03a.244.244,0,0,1,.123.03.266.266,0,0,1,.093.106.621.621,0,0,1,.057.189,2,2,0,0,1,.017.281.979.979,0,0,1-.079.457.237.237,0,0,1-.211.141h-2.03v4.412a2.506,2.506,0,0,0,.242,1.235.914.914,0,0,0,.865.417,1.518,1.518,0,0,0,.361-.039c.1-.027.2-.054.281-.084s.152-.057.211-.083a.379.379,0,0,1,.158-.04.17.17,0,0,1,.084.022.152.152,0,0,1,.061.084.979.979,0,0,1,.04.167A1.735,1.735,0,0,1,58.428,97.764Z"/><path d="M69.379,96.191a2.493,2.493,0,0,1-.224,1.081,2.2,2.2,0,0,1-.637.8,2.861,2.861,0,0,1-.984.492,4.482,4.482,0,0,1-1.257.167,4.724,4.724,0,0,1-.8-.066,4.63,4.63,0,0,1-.686-.167,3.57,3.57,0,0,1-.514-.211,1.5,1.5,0,0,1-.308-.2.5.5,0,0,1-.14-.246,1.638,1.638,0,0,1-.044-.43,2.019,2.019,0,0,1,.017-.282,1.018,1.018,0,0,1,.044-.184.186.186,0,0,1,.185-.132.625.625,0,0,1,.285.119c.126.079.282.165.466.259a4.277,4.277,0,0,0,.655.259,2.91,2.91,0,0,0,.87.119,2.6,2.6,0,0,0,.668-.079,1.645,1.645,0,0,0,.519-.233,1.044,1.044,0,0,0,.338-.391,1.247,1.247,0,0,0,.119-.563.906.906,0,0,0-.172-.562,1.635,1.635,0,0,0-.452-.4,3.658,3.658,0,0,0-.633-.312c-.234-.091-.476-.187-.725-.286a7.659,7.659,0,0,1-.73-.339,2.765,2.765,0,0,1-.637-.461,2.11,2.11,0,0,1-.452-.65,2.17,2.17,0,0,1-.172-.906,2.271,2.271,0,0,1,.18-.892,2.077,2.077,0,0,1,.541-.747,2.7,2.7,0,0,1,.9-.514,3.735,3.735,0,0,1,1.261-.193,3.861,3.861,0,0,1,.633.052,4.607,4.607,0,0,1,.571.132,2.718,2.718,0,0,1,.435.172,1.882,1.882,0,0,1,.273.162.5.5,0,0,1,.123.123.4.4,0,0,1,.044.119c.008.044.017.1.026.163a1.753,1.753,0,0,1,.013.237,2.168,2.168,0,0,1-.013.259.676.676,0,0,1-.044.18.229.229,0,0,1-.075.1.16.16,0,0,1-.1.031.484.484,0,0,1-.229-.1,3.213,3.213,0,0,0-.387-.206,4.365,4.365,0,0,0-.558-.207,2.561,2.561,0,0,0-.734-.1,2.311,2.311,0,0,0-.65.083,1.24,1.24,0,0,0-.461.238,1,1,0,0,0-.273.364,1.138,1.138,0,0,0-.092.457.923.923,0,0,0,.176.576,1.686,1.686,0,0,0,.457.409,3.866,3.866,0,0,0,.641.316l.734.29q.374.15.738.334a2.752,2.752,0,0,1,.646.448,2.02,2.02,0,0,1,.453.633A2.076,2.076,0,0,1,69.379,96.191Z"/><path d="M73.071,87.762a.956.956,0,0,1-.194.695,1.037,1.037,0,0,1-.711.184,1.023,1.023,0,0,1-.7-.18.937.937,0,0,1-.189-.681.953.953,0,0,1,.193-.694,1.039,1.039,0,0,1,.712-.185,1.023,1.023,0,0,1,.7.18A.937.937,0,0,1,73.071,87.762ZM72.9,98.344a.2.2,0,0,1-.035.119.289.289,0,0,1-.115.084.79.79,0,0,1-.219.052,2.945,2.945,0,0,1-.361.018,2.847,2.847,0,0,1-.351-.018.852.852,0,0,1-.224-.052.251.251,0,0,1-.115-.084.221.221,0,0,1-.03-.119v-7.91a.226.226,0,0,1,.03-.114.236.236,0,0,1,.115-.088.889.889,0,0,1,.224-.053,3.089,3.089,0,0,1,.351-.017,3.194,3.194,0,0,1,.361.017.823.823,0,0,1,.219.053.268.268,0,0,1,.115.088.2.2,0,0,1,.035.114Z"/><path d="M82.194,90.8a.876.876,0,0,1-.084.443.246.246,0,0,1-.215.137H80.761a1.786,1.786,0,0,1,.431.7,2.583,2.583,0,0,1,.123.8,3.125,3.125,0,0,1-.22,1.213,2.432,2.432,0,0,1-.628.892,2.82,2.82,0,0,1-.971.558,3.818,3.818,0,0,1-1.248.193,3.25,3.25,0,0,1-.919-.127,1.913,1.913,0,0,1-.672-.321,1.385,1.385,0,0,0-.26.36,1.034,1.034,0,0,0-.1.466.607.607,0,0,0,.286.51,1.382,1.382,0,0,0,.76.22l2.066.088a4.226,4.226,0,0,1,1.081.162,2.7,2.7,0,0,1,.852.413,1.9,1.9,0,0,1,.563.659,1.953,1.953,0,0,1,.2.91,2.425,2.425,0,0,1-.229,1.037,2.389,2.389,0,0,1-.7.866,3.522,3.522,0,0,1-1.2.589,6.142,6.142,0,0,1-1.723.215,7.06,7.06,0,0,1-1.63-.162,3.562,3.562,0,0,1-1.1-.444,1.724,1.724,0,0,1-.624-.673,1.882,1.882,0,0,1-.193-.848,2.231,2.231,0,0,1,.07-.562,2.027,2.027,0,0,1,.215-.519,2.53,2.53,0,0,1,.361-.47,4.678,4.678,0,0,1,.5-.444,1.549,1.549,0,0,1-.637-.554,1.341,1.341,0,0,1-.207-.72,2.047,2.047,0,0,1,.22-.958,3.169,3.169,0,0,1,.545-.756,2.6,2.6,0,0,1-.431-.734,2.757,2.757,0,0,1-.158-.989,3.058,3.058,0,0,1,.229-1.213,2.566,2.566,0,0,1,.633-.905,2.774,2.774,0,0,1,.971-.567,3.719,3.719,0,0,1,1.235-.2,5.235,5.235,0,0,1,.672.04,4.593,4.593,0,0,1,.584.11H81.9a.239.239,0,0,1,.224.145A1,1,0,0,1,82.194,90.8Zm-1.538,8.349a.887.887,0,0,0-.418-.786,2.115,2.115,0,0,0-1.129-.3l-2.048-.07a3.714,3.714,0,0,0-.461.417,2.237,2.237,0,0,0-.286.378,1.249,1.249,0,0,0-.145.356,1.657,1.657,0,0,0-.04.361.932.932,0,0,0,.58.865,3.623,3.623,0,0,0,1.618.3,4.059,4.059,0,0,0,1.1-.128,2.13,2.13,0,0,0,.716-.338,1.237,1.237,0,0,0,.391-.484A1.415,1.415,0,0,0,80.656,99.144Zm-.73-6.266a1.727,1.727,0,0,0-.444-1.262,1.687,1.687,0,0,0-1.261-.452,1.787,1.787,0,0,0-.734.14,1.432,1.432,0,0,0-.518.387,1.641,1.641,0,0,0-.308.567,2.236,2.236,0,0,0-.1.672,1.546,1.546,0,0,0,1.688,1.679A1.876,1.876,0,0,0,79,94.473a1.413,1.413,0,0,0,.523-.378,1.6,1.6,0,0,0,.307-.558A2.136,2.136,0,0,0,79.926,92.878Z"/><path d="M90.869,98.344a.193.193,0,0,1-.036.119.278.278,0,0,1-.114.084.79.79,0,0,1-.219.052,2.854,2.854,0,0,1-.352.018,2.916,2.916,0,0,1-.36-.018.8.8,0,0,1-.22-.052.278.278,0,0,1-.114-.084.193.193,0,0,1-.036-.119V93.713a4.567,4.567,0,0,0-.105-1.09,2.236,2.236,0,0,0-.308-.712,1.326,1.326,0,0,0-.523-.457,1.647,1.647,0,0,0-.742-.158,1.87,1.87,0,0,0-1.09.386,5.937,5.937,0,0,0-1.143,1.134v5.528a.193.193,0,0,1-.035.119.278.278,0,0,1-.114.084.8.8,0,0,1-.22.052,2.939,2.939,0,0,1-.36.018,2.854,2.854,0,0,1-.352-.018.872.872,0,0,1-.224-.052.242.242,0,0,1-.114-.084.213.213,0,0,1-.031-.119v-7.91a.248.248,0,0,1,.026-.118.23.23,0,0,1,.106-.088.587.587,0,0,1,.2-.053,4.019,4.019,0,0,1,.646,0,.513.513,0,0,1,.2.053.27.27,0,0,1,.1.088.218.218,0,0,1,.031.118V91.48A4.853,4.853,0,0,1,86.7,90.386a2.86,2.86,0,0,1,1.341-.347,2.973,2.973,0,0,1,1.331.268,2.4,2.4,0,0,1,.875.716,2.872,2.872,0,0,1,.479,1.05,6.3,6.3,0,0,1,.145,1.446Z"/><path d="M99.473,98.353a.184.184,0,0,1-.07.158.471.471,0,0,1-.194.079,1.8,1.8,0,0,1-.36.027,1.964,1.964,0,0,1-.365-.027.418.418,0,0,1-.2-.079.2.2,0,0,1-.062-.158v-.791a3.907,3.907,0,0,1-1.156.861,3.048,3.048,0,0,1-1.349.308,3.687,3.687,0,0,1-1.129-.162,2.464,2.464,0,0,1-.862-.471,2.111,2.111,0,0,1-.553-.756,2.493,2.493,0,0,1-.2-1.019,2.365,2.365,0,0,1,.272-1.16,2.274,2.274,0,0,1,.783-.818,3.855,3.855,0,0,1,1.248-.487,7.709,7.709,0,0,1,1.661-.163h1.09V93.08a3.041,3.041,0,0,0-.1-.809,1.374,1.374,0,0,0-.312-.584,1.339,1.339,0,0,0-.558-.352,2.607,2.607,0,0,0-.844-.119,3.354,3.354,0,0,0-.962.128,5.226,5.226,0,0,0-.747.281c-.214.1-.393.2-.536.281a.746.746,0,0,1-.321.128A.219.219,0,0,1,93.532,92a.316.316,0,0,1-.093-.106.561.561,0,0,1-.057-.18,1.631,1.631,0,0,1-.017-.242,1.516,1.516,0,0,1,.031-.347.5.5,0,0,1,.149-.242,1.922,1.922,0,0,1,.409-.268,4.538,4.538,0,0,1,.668-.281,6.1,6.1,0,0,1,.826-.211,4.987,4.987,0,0,1,.905-.083,4.745,4.745,0,0,1,1.45.193,2.344,2.344,0,0,1,.967.567,2.192,2.192,0,0,1,.536.927,4.5,4.5,0,0,1,.167,1.292Zm-1.441-3.612h-1.24a4.7,4.7,0,0,0-1.037.1,2.12,2.12,0,0,0-.729.3,1.235,1.235,0,0,0-.426.474,1.426,1.426,0,0,0-.137.638,1.28,1.28,0,0,0,.391.98,1.545,1.545,0,0,0,1.095.364,2.028,2.028,0,0,0,1.059-.29,4.578,4.578,0,0,0,1.024-.887Z"/><path d="M103.586,98.344a.193.193,0,0,1-.035.119.278.278,0,0,1-.114.084.8.8,0,0,1-.22.052,2.928,2.928,0,0,1-.36.018,2.854,2.854,0,0,1-.352-.018.872.872,0,0,1-.224-.052.253.253,0,0,1-.114-.084.213.213,0,0,1-.031-.119V86.6a.234.234,0,0,1,.031-.123.238.238,0,0,1,.114-.088.872.872,0,0,1,.224-.052,2.854,2.854,0,0,1,.352-.018,2.928,2.928,0,0,1,.36.018.8.8,0,0,1,.22.052.259.259,0,0,1,.114.088.212.212,0,0,1,.035.123Z"/><path d="M31.1,245.3a8.817,8.817,0,0,1-.325,2.488,5.206,5.206,0,0,1-.971,1.885,4.237,4.237,0,0,1-1.622,1.2,5.735,5.735,0,0,1-2.276.418,5.872,5.872,0,0,1-2.22-.382,3.9,3.9,0,0,1-1.546-1.112,4.734,4.734,0,0,1-.91-1.81,9.386,9.386,0,0,1-.3-2.489,8.583,8.583,0,0,1,.325-2.443,5.086,5.086,0,0,1,.976-1.867,4.313,4.313,0,0,1,1.626-1.187,6.48,6.48,0,0,1,4.465-.04,3.959,3.959,0,0,1,1.551,1.1,4.684,4.684,0,0,1,.923,1.793A8.981,8.981,0,0,1,31.1,245.3Zm-1.6.1a8.9,8.9,0,0,0-.171-1.8,4.132,4.132,0,0,0-.57-1.442,2.761,2.761,0,0,0-1.067-.953,3.592,3.592,0,0,0-1.65-.344,3.369,3.369,0,0,0-1.65.369,3.1,3.1,0,0,0-1.084.985,4.093,4.093,0,0,0-.6,1.437,8.115,8.115,0,0,0-.179,1.727,9.554,9.554,0,0,0,.166,1.846,4.16,4.16,0,0,0,.562,1.455,2.7,2.7,0,0,0,1.058.949,3.647,3.647,0,0,0,1.663.338,3.44,3.44,0,0,0,1.668-.369,3,3,0,0,0,1.089-1,4.222,4.222,0,0,0,.588-1.455A8.4,8.4,0,0,0,29.5,245.4Z"/><path d="M40.1,250.9a.21.21,0,0,1-.031.118.243.243,0,0,1-.11.083.794.794,0,0,1-.206.053,2.476,2.476,0,0,1-.312.017,2.653,2.653,0,0,1-.33-.017.739.739,0,0,1-.2-.053.217.217,0,0,1-.1-.083.237.237,0,0,1-.026-.118V249.85a4.957,4.957,0,0,1-1.336,1.09,2.877,2.877,0,0,1-1.336.343,3.035,3.035,0,0,1-1.332-.263,2.337,2.337,0,0,1-.874-.717,2.878,2.878,0,0,1-.479-1.055,6.315,6.315,0,0,1-.145-1.463v-4.8a.226.226,0,0,1,.03-.119.281.281,0,0,1,.119-.088.725.725,0,0,1,.229-.052c.093-.009.211-.014.351-.014s.258,0,.352.014a.672.672,0,0,1,.224.052.317.317,0,0,1,.119.088.2.2,0,0,1,.035.119v4.606a4.857,4.857,0,0,0,.1,1.111,2.077,2.077,0,0,0,.307.712,1.428,1.428,0,0,0,.523.457,1.588,1.588,0,0,0,.739.163,1.859,1.859,0,0,0,1.085-.386,6.188,6.188,0,0,0,1.147-1.135v-5.528a.218.218,0,0,1,.031-.119.27.27,0,0,1,.118-.088.718.718,0,0,1,.225-.052c.09-.009.209-.014.356-.014s.257,0,.351.014a.628.628,0,0,1,.22.052.359.359,0,0,1,.118.088.182.182,0,0,1,.04.119Z"/><path d="M46.9,250.317a1.875,1.875,0,0,1-.035.4.458.458,0,0,1-.106.219.7.7,0,0,1-.211.132,1.674,1.674,0,0,1-.32.1c-.121.026-.248.048-.383.065a3.32,3.32,0,0,1-1.459-.135,1.7,1.7,0,0,1-.72-.493,2.02,2.02,0,0,1-.409-.834,4.917,4.917,0,0,1-.128-1.192v-4.623H42.019a.237.237,0,0,1-.211-.141.976.976,0,0,1-.079-.457,1.489,1.489,0,0,1,.022-.281.843.843,0,0,1,.057-.188.227.227,0,0,1,.092-.106.272.272,0,0,1,.128-.03h1.1v-1.881a.23.23,0,0,1,.031-.115.255.255,0,0,1,.114-.092.779.779,0,0,1,.225-.057,3.076,3.076,0,0,1,.351-.017,3.194,3.194,0,0,1,.361.017.709.709,0,0,1,.219.057.29.29,0,0,1,.115.092.207.207,0,0,1,.035.115v1.881h2.03a.244.244,0,0,1,.123.03.258.258,0,0,1,.092.106.564.564,0,0,1,.057.188,1.847,1.847,0,0,1,.018.281.976.976,0,0,1-.079.457.237.237,0,0,1-.211.141h-2.03v4.412a2.523,2.523,0,0,0,.241,1.236.915.915,0,0,0,.866.417,1.452,1.452,0,0,0,.36-.04,2.7,2.7,0,0,0,.282-.084c.082-.029.152-.056.211-.083a.4.4,0,0,1,.158-.04.165.165,0,0,1,.083.023.146.146,0,0,1,.062.083,1.033,1.033,0,0,1,.039.168A1.605,1.605,0,0,1,46.9,250.317Z"/><path d="M56.09,246.819a7.1,7.1,0,0,1-.224,1.863,4.051,4.051,0,0,1-.659,1.4,2.947,2.947,0,0,1-1.077.888,3.312,3.312,0,0,1-1.467.312,2.831,2.831,0,0,1-.651-.07,2.473,2.473,0,0,1-.584-.221,3.281,3.281,0,0,1-.567-.377c-.188-.152-.387-.332-.6-.537v3.955a.219.219,0,0,1-.035.123.245.245,0,0,1-.114.088.8.8,0,0,1-.22.053,2.939,2.939,0,0,1-.36.018,2.854,2.854,0,0,1-.352-.018.858.858,0,0,1-.224-.053.218.218,0,0,1-.114-.088.234.234,0,0,1-.031-.123V242.986a.273.273,0,0,1,.026-.127.208.208,0,0,1,.106-.083.643.643,0,0,1,.2-.049,2.791,2.791,0,0,1,.3-.014,2.753,2.753,0,0,1,.3.014.637.637,0,0,1,.2.049.235.235,0,0,1,.11.083.239.239,0,0,1,.03.127v1.063a8.541,8.541,0,0,1,.695-.641,4.2,4.2,0,0,1,.672-.453,3.153,3.153,0,0,1,.694-.272,2.968,2.968,0,0,1,.752-.093,3,3,0,0,1,1.468.334,2.759,2.759,0,0,1,.988.914,4.1,4.1,0,0,1,.559,1.35A7.308,7.308,0,0,1,56.09,246.819Zm-1.5.166a7.344,7.344,0,0,0-.092-1.173,3.381,3.381,0,0,0-.319-1.007,1.872,1.872,0,0,0-.606-.7,1.617,1.617,0,0,0-.945-.264,1.9,1.9,0,0,0-.558.084,2.3,2.3,0,0,0-.557.264,3.986,3.986,0,0,0-.593.474,7.461,7.461,0,0,0-.654.725v3.146a6.282,6.282,0,0,0,1.141,1.118,1.919,1.919,0,0,0,1.132.386,1.661,1.661,0,0,0,.942-.263,2,2,0,0,0,.636-.7,3.546,3.546,0,0,0,.359-.985A5.354,5.354,0,0,0,54.587,246.985Z"/><path d="M65.046,250.9a.218.218,0,0,1-.03.118.254.254,0,0,1-.11.083.814.814,0,0,1-.207.053,2.476,2.476,0,0,1-.312.017,2.636,2.636,0,0,1-.329-.017.747.747,0,0,1-.2-.053.223.223,0,0,1-.1-.083.248.248,0,0,1-.026-.118V249.85a4.927,4.927,0,0,1-1.336,1.09,2.874,2.874,0,0,1-1.336.343,3.03,3.03,0,0,1-1.331-.263,2.341,2.341,0,0,1-.875-.717,2.9,2.9,0,0,1-.479-1.055,6.315,6.315,0,0,1-.145-1.463v-4.8a.218.218,0,0,1,.031-.119.27.27,0,0,1,.118-.088.725.725,0,0,1,.229-.052c.094-.009.211-.014.352-.014s.257,0,.351.014a.666.666,0,0,1,.224.052.317.317,0,0,1,.119.088.2.2,0,0,1,.035.119v4.606a4.914,4.914,0,0,0,.1,1.111,2.078,2.078,0,0,0,.308.712,1.42,1.42,0,0,0,.523.457,1.586,1.586,0,0,0,.738.163,1.859,1.859,0,0,0,1.085-.386,6.158,6.158,0,0,0,1.147-1.135v-5.528a.227.227,0,0,1,.031-.119.274.274,0,0,1,.119-.088.7.7,0,0,1,.224-.052c.091-.009.209-.014.356-.014s.258,0,.351.014a.628.628,0,0,1,.22.052.375.375,0,0,1,.119.088.187.187,0,0,1,.039.119Z"/><path d="M71.84,250.317a1.813,1.813,0,0,1-.035.4.448.448,0,0,1-.105.219.7.7,0,0,1-.211.132,1.708,1.708,0,0,1-.321.1c-.12.026-.248.048-.382.065a3.321,3.321,0,0,1-1.459-.135,1.707,1.707,0,0,1-.721-.493,2.02,2.02,0,0,1-.409-.834,4.921,4.921,0,0,1-.127-1.192v-4.623H66.962a.238.238,0,0,1-.211-.141.989.989,0,0,1-.079-.457,1.577,1.577,0,0,1,.022-.281.843.843,0,0,1,.057-.188.228.228,0,0,1,.093-.106.267.267,0,0,1,.127-.03h1.1v-1.881a.221.221,0,0,1,.031-.115.244.244,0,0,1,.114-.092.772.772,0,0,1,.224-.057,3.1,3.1,0,0,1,.352-.017,3.187,3.187,0,0,1,.36.017.717.717,0,0,1,.22.057.294.294,0,0,1,.114.092.207.207,0,0,1,.035.115v1.881h2.03a.244.244,0,0,1,.123.03.266.266,0,0,1,.093.106.614.614,0,0,1,.057.188,2,2,0,0,1,.017.281.976.976,0,0,1-.079.457.237.237,0,0,1-.211.141H69.52v4.412a2.522,2.522,0,0,0,.242,1.236.914.914,0,0,0,.865.417,1.466,1.466,0,0,0,.361-.04,2.746,2.746,0,0,0,.281-.084c.082-.029.152-.056.211-.083a.4.4,0,0,1,.158-.04.171.171,0,0,1,.084.023.144.144,0,0,1,.061.083,1.019,1.019,0,0,1,.04.168A1.74,1.74,0,0,1,71.84,250.317Z"/><path d="M82.792,248.742a2.5,2.5,0,0,1-.225,1.082,2.184,2.184,0,0,1-.637.8,2.861,2.861,0,0,1-.984.492,4.445,4.445,0,0,1-1.257.168,4.826,4.826,0,0,1-1.49-.233,3.57,3.57,0,0,1-.514-.211,1.541,1.541,0,0,1-.308-.2.51.51,0,0,1-.14-.246,1.682,1.682,0,0,1-.044-.43,2,2,0,0,1,.017-.281,1.045,1.045,0,0,1,.044-.186.194.194,0,0,1,.075-.1.2.2,0,0,1,.11-.031.627.627,0,0,1,.286.118q.189.12.465.259a4.274,4.274,0,0,0,.655.26,2.91,2.91,0,0,0,.87.119,2.6,2.6,0,0,0,.668-.08,1.634,1.634,0,0,0,.519-.232,1.044,1.044,0,0,0,.338-.391,1.245,1.245,0,0,0,.119-.562.912.912,0,0,0-.171-.563,1.67,1.67,0,0,0-.453-.4,3.808,3.808,0,0,0-.633-.313c-.234-.091-.476-.185-.725-.285a7.421,7.421,0,0,1-.73-.339,2.8,2.8,0,0,1-.637-.462,2.1,2.1,0,0,1-.452-.65,2.164,2.164,0,0,1-.172-.9,2.273,2.273,0,0,1,.18-.893,2.089,2.089,0,0,1,.541-.747,2.7,2.7,0,0,1,.9-.515,3.739,3.739,0,0,1,1.261-.193,3.863,3.863,0,0,1,.633.053,4.266,4.266,0,0,1,.571.133,2.727,2.727,0,0,1,.435.17,1.955,1.955,0,0,1,.273.164.469.469,0,0,1,.123.123.4.4,0,0,1,.044.118c.008.044.017.1.026.163a1.737,1.737,0,0,1,.013.236,2.175,2.175,0,0,1-.013.26.64.64,0,0,1-.044.18.227.227,0,0,1-.075.1.16.16,0,0,1-.1.031.5.5,0,0,1-.229-.1,3.007,3.007,0,0,0-.387-.206,4.088,4.088,0,0,0-.558-.206,2.523,2.523,0,0,0-.734-.1,2.278,2.278,0,0,0-.65.084,1.261,1.261,0,0,0-.461.237,1.014,1.014,0,0,0-.273.365,1.134,1.134,0,0,0-.092.457.927.927,0,0,0,.176.576,1.666,1.666,0,0,0,.457.408,3.789,3.789,0,0,0,.641.316c.241.094.485.192.734.291s.5.211.738.334a2.723,2.723,0,0,1,.646.448,2,2,0,0,1,.453.632A2.079,2.079,0,0,1,82.792,248.742Z"/><path d="M86.483,240.315a.957.957,0,0,1-.193.693,1.04,1.04,0,0,1-.712.186,1.023,1.023,0,0,1-.7-.181.937.937,0,0,1-.189-.681.956.956,0,0,1,.193-.695,1.041,1.041,0,0,1,.712-.184,1.023,1.023,0,0,1,.7.18A.939.939,0,0,1,86.483,240.315ZM86.316,250.9a.2.2,0,0,1-.035.118.291.291,0,0,1-.114.083.832.832,0,0,1-.22.053,3.194,3.194,0,0,1-.361.017,3.089,3.089,0,0,1-.351-.017.889.889,0,0,1-.224-.053.25.25,0,0,1-.115-.083.218.218,0,0,1-.03-.118v-7.911a.23.23,0,0,1,.03-.115.236.236,0,0,1,.115-.088.852.852,0,0,1,.224-.052,2.847,2.847,0,0,1,.351-.018,2.945,2.945,0,0,1,.361.018.8.8,0,0,1,.22.052.271.271,0,0,1,.114.088.207.207,0,0,1,.035.115Z"/><path d="M95.606,243.346a.883.883,0,0,1-.084.444.245.245,0,0,1-.215.136H94.173a1.782,1.782,0,0,1,.431.7,2.581,2.581,0,0,1,.123.795,3.125,3.125,0,0,1-.22,1.213,2.436,2.436,0,0,1-.628.893,2.82,2.82,0,0,1-.971.558,3.818,3.818,0,0,1-1.248.193,3.25,3.25,0,0,1-.919-.127,1.913,1.913,0,0,1-.672-.322,1.368,1.368,0,0,0-.259.362,1.013,1.013,0,0,0-.1.464.605.605,0,0,0,.286.51,1.385,1.385,0,0,0,.76.221l2.066.088a4.27,4.27,0,0,1,1.081.162,2.682,2.682,0,0,1,.852.413,1.9,1.9,0,0,1,.563.659,1.956,1.956,0,0,1,.2.91,2.435,2.435,0,0,1-.228,1.037,2.394,2.394,0,0,1-.7.866,3.522,3.522,0,0,1-1.2.589,6.137,6.137,0,0,1-1.723.215,7,7,0,0,1-1.63-.163,3.538,3.538,0,0,1-1.1-.444,1.722,1.722,0,0,1-.624-.672,1.885,1.885,0,0,1-.193-.848,2.236,2.236,0,0,1,.07-.562,2.033,2.033,0,0,1,.215-.52,2.524,2.524,0,0,1,.361-.469,4.682,4.682,0,0,1,.5-.445,1.552,1.552,0,0,1-.637-.552,1.344,1.344,0,0,1-.206-.721,2.05,2.05,0,0,1,.219-.959,3.209,3.209,0,0,1,.545-.756,2.622,2.622,0,0,1-.431-.733,2.763,2.763,0,0,1-.158-.99,3.058,3.058,0,0,1,.229-1.213,2.562,2.562,0,0,1,.633-.9,2.774,2.774,0,0,1,.971-.567,3.719,3.719,0,0,1,1.235-.2,5.235,5.235,0,0,1,.672.04,4.643,4.643,0,0,1,.585.11h2.39a.239.239,0,0,1,.224.144A1.009,1.009,0,0,1,95.606,243.346ZM94.068,251.7a.889.889,0,0,0-.418-.786,2.122,2.122,0,0,0-1.129-.294l-2.048-.07a3.8,3.8,0,0,0-.461.417,2.292,2.292,0,0,0-.286.378,1.243,1.243,0,0,0-.145.355,1.68,1.68,0,0,0-.039.362.93.93,0,0,0,.58.865,3.63,3.63,0,0,0,1.617.3,4.059,4.059,0,0,0,1.1-.128,2.112,2.112,0,0,0,.716-.339,1.231,1.231,0,0,0,.391-.482A1.424,1.424,0,0,0,94.068,251.7Zm-.73-6.265a1.73,1.73,0,0,0-.443-1.262,1.688,1.688,0,0,0-1.262-.453,1.77,1.77,0,0,0-.734.141,1.427,1.427,0,0,0-.518.386,1.646,1.646,0,0,0-.308.568,2.238,2.238,0,0,0-.1.673,1.544,1.544,0,0,0,1.688,1.677,1.9,1.9,0,0,0,.747-.135,1.413,1.413,0,0,0,.523-.378,1.612,1.612,0,0,0,.307-.559A2.13,2.13,0,0,0,93.338,245.43Z"/><path d="M104.281,250.9a.2.2,0,0,1-.035.118.287.287,0,0,1-.115.083.823.823,0,0,1-.219.053,3.1,3.1,0,0,1-.352.017,3.174,3.174,0,0,1-.36-.017.832.832,0,0,1-.22-.053.276.276,0,0,1-.114-.083.19.19,0,0,1-.035-.118v-4.633a4.566,4.566,0,0,0-.106-1.09,2.24,2.24,0,0,0-.308-.711,1.33,1.33,0,0,0-.522-.457,1.668,1.668,0,0,0-.743-.158,1.874,1.874,0,0,0-1.09.387,5.891,5.891,0,0,0-1.143,1.132v5.53a.19.19,0,0,1-.035.118.276.276,0,0,1-.114.083.832.832,0,0,1-.22.053,3.174,3.174,0,0,1-.36.017,3.1,3.1,0,0,1-.352-.017.912.912,0,0,1-.224-.053.252.252,0,0,1-.114-.083.21.21,0,0,1-.031-.118v-7.911a.246.246,0,0,1,.027-.119.233.233,0,0,1,.105-.088.589.589,0,0,1,.2-.052,3.733,3.733,0,0,1,.646,0,.514.514,0,0,1,.2.052.28.28,0,0,1,.1.088.218.218,0,0,1,.031.119v1.045a4.848,4.848,0,0,1,1.331-1.093,2.864,2.864,0,0,1,1.341-.348,2.972,2.972,0,0,1,1.331.269,2.394,2.394,0,0,1,.875.715,2.877,2.877,0,0,1,.479,1.051,6.289,6.289,0,0,1,.145,1.445Z"/><path d="M112.885,250.9a.186.186,0,0,1-.07.159.5.5,0,0,1-.193.08,1.923,1.923,0,0,1-.361.025,2.084,2.084,0,0,1-.365-.025.439.439,0,0,1-.2-.08.2.2,0,0,1-.062-.159v-.791a3.881,3.881,0,0,1-1.156.862,3.061,3.061,0,0,1-1.349.308A3.656,3.656,0,0,1,108,251.12a2.431,2.431,0,0,1-.861-.469,2.111,2.111,0,0,1-.554-.756,2.5,2.5,0,0,1-.2-1.02,2.355,2.355,0,0,1,.273-1.16,2.255,2.255,0,0,1,.782-.818,3.855,3.855,0,0,1,1.248-.488,7.773,7.773,0,0,1,1.661-.163h1.09v-.615a3.041,3.041,0,0,0-.1-.809,1.38,1.38,0,0,0-.312-.584,1.334,1.334,0,0,0-.558-.351,2.6,2.6,0,0,0-.844-.119,3.354,3.354,0,0,0-.962.128,5.109,5.109,0,0,0-.747.281q-.321.153-.536.281a.746.746,0,0,1-.321.128.219.219,0,0,1-.123-.035.3.3,0,0,1-.092-.106.529.529,0,0,1-.058-.18,1.627,1.627,0,0,1-.017-.241,1.52,1.52,0,0,1,.031-.348.5.5,0,0,1,.149-.242,1.922,1.922,0,0,1,.409-.268,4.538,4.538,0,0,1,.668-.281,6.1,6.1,0,0,1,.826-.211,4.9,4.9,0,0,1,.905-.084,4.745,4.745,0,0,1,1.45.193,2.346,2.346,0,0,1,.967.568,2.188,2.188,0,0,1,.536.926,4.479,4.479,0,0,1,.167,1.293Zm-1.441-3.611h-1.239a4.643,4.643,0,0,0-1.038.1,2.128,2.128,0,0,0-.729.3,1.236,1.236,0,0,0-.426.474,1.429,1.429,0,0,0-.137.638,1.273,1.273,0,0,0,.392.979,1.541,1.541,0,0,0,1.094.365,2.037,2.037,0,0,0,1.059-.289,4.619,4.619,0,0,0,1.024-.889Z"/><path d="M117,250.9a.19.19,0,0,1-.036.118.276.276,0,0,1-.114.083.832.832,0,0,1-.22.053,3.162,3.162,0,0,1-.36.017,3.1,3.1,0,0,1-.352-.017.912.912,0,0,1-.224-.053.252.252,0,0,1-.114-.083.218.218,0,0,1-.031-.118V239.154a.25.25,0,0,1,.031-.123.231.231,0,0,1,.114-.087.829.829,0,0,1,.224-.053,2.854,2.854,0,0,1,.352-.018,2.916,2.916,0,0,1,.36.018.76.76,0,0,1,.22.053.251.251,0,0,1,.114.087.217.217,0,0,1,.036.123Z"/><path d="M30.119,365.026a2.126,2.126,0,0,1-.018.294.83.83,0,0,1-.053.211.251.251,0,0,1-.088.119.2.2,0,0,1-.114.035.8.8,0,0,1-.351-.167,5.32,5.32,0,0,0-.66-.369,6.228,6.228,0,0,0-.988-.37,4.957,4.957,0,0,0-1.367-.167,4.015,4.015,0,0,0-1.688.343,3.649,3.649,0,0,0-1.265.949,4.255,4.255,0,0,0-.8,1.442,6.2,6.2,0,0,0,.027,3.744,4.132,4.132,0,0,0,.839,1.424,3.5,3.5,0,0,0,1.279.879,4.334,4.334,0,0,0,1.63.3,4.635,4.635,0,0,0,1.068-.127,4,4,0,0,0,1.007-.383v-3.314H25.944a.238.238,0,0,1-.224-.149,1.093,1.093,0,0,1-.075-.466,1.932,1.932,0,0,1,.018-.285.566.566,0,0,1,.057-.193.3.3,0,0,1,.092-.111.236.236,0,0,1,.132-.035h3.612a.576.576,0,0,1,.194.035.544.544,0,0,1,.175.106.453.453,0,0,1,.123.193.817.817,0,0,1,.044.281v4.333a.914.914,0,0,1-.079.4.692.692,0,0,1-.334.295,6.794,6.794,0,0,1-.659.276,7.555,7.555,0,0,1-.835.255,7.394,7.394,0,0,1-1.74.211,6.4,6.4,0,0,1-2.356-.408,4.808,4.808,0,0,1-1.753-1.165,5.089,5.089,0,0,1-1.094-1.811,7.549,7.549,0,0,1,.03-4.807,5.377,5.377,0,0,1,1.152-1.873,5.143,5.143,0,0,1,1.784-1.2,6.037,6.037,0,0,1,2.307-.427,6.238,6.238,0,0,1,1.222.115,7.829,7.829,0,0,1,1.015.268,4.13,4.13,0,0,1,.747.334,2.346,2.346,0,0,1,.418.294.619.619,0,0,1,.158.264A1.622,1.622,0,0,1,30.119,365.026Z"/><path d="M38.723,374.641a.184.184,0,0,1-.07.158.5.5,0,0,1-.194.079,1.814,1.814,0,0,1-.36.026,1.977,1.977,0,0,1-.365-.026.44.44,0,0,1-.2-.079.2.2,0,0,1-.062-.158v-.791a3.907,3.907,0,0,1-1.156.861,3.061,3.061,0,0,1-1.349.308,3.687,3.687,0,0,1-1.129-.162,2.464,2.464,0,0,1-.862-.471,2.111,2.111,0,0,1-.553-.756,2.5,2.5,0,0,1-.2-1.02,2.365,2.365,0,0,1,.272-1.16,2.271,2.271,0,0,1,.783-.817,3.832,3.832,0,0,1,1.248-.487,7.709,7.709,0,0,1,1.661-.163h1.09v-.616a3.033,3.033,0,0,0-.1-.808,1.368,1.368,0,0,0-.312-.584,1.339,1.339,0,0,0-.558-.352,2.607,2.607,0,0,0-.844-.119,3.354,3.354,0,0,0-.962.128,5.226,5.226,0,0,0-.747.281q-.321.154-.536.281a.741.741,0,0,1-.321.127.212.212,0,0,1-.123-.035.3.3,0,0,1-.093-.105.561.561,0,0,1-.057-.18,1.631,1.631,0,0,1-.017-.242,1.51,1.51,0,0,1,.031-.347.5.5,0,0,1,.149-.242,1.922,1.922,0,0,1,.409-.268,4.538,4.538,0,0,1,.668-.281,6.1,6.1,0,0,1,.826-.211,4.988,4.988,0,0,1,.905-.084,4.743,4.743,0,0,1,1.45.194,2.344,2.344,0,0,1,.967.567,2.192,2.192,0,0,1,.536.927,4.5,4.5,0,0,1,.167,1.292Zm-1.441-3.613h-1.24a4.694,4.694,0,0,0-1.037.1,2.12,2.12,0,0,0-.729.3,1.235,1.235,0,0,0-.426.474,1.424,1.424,0,0,0-.137.637,1.282,1.282,0,0,0,.391.981,1.545,1.545,0,0,0,1.095.364,2.038,2.038,0,0,0,1.059-.29,4.559,4.559,0,0,0,1.024-.888Z"/><path d="M43,364.05a.953.953,0,0,1-.193.694,1.039,1.039,0,0,1-.712.185,1.023,1.023,0,0,1-.7-.18.937.937,0,0,1-.189-.681.956.956,0,0,1,.194-.695,1.04,1.04,0,0,1,.712-.184,1.02,1.02,0,0,1,.7.18A.937.937,0,0,1,43,364.05Zm-.167,10.582a.193.193,0,0,1-.035.119.268.268,0,0,1-.114.083.8.8,0,0,1-.22.053,2.956,2.956,0,0,1-.36.017,2.879,2.879,0,0,1-.352-.017.868.868,0,0,1-.224-.053.245.245,0,0,1-.114-.083.213.213,0,0,1-.031-.119v-7.91a.217.217,0,0,1,.031-.114.226.226,0,0,1,.114-.088.868.868,0,0,1,.224-.053,2.854,2.854,0,0,1,.352-.018,2.928,2.928,0,0,1,.36.018.8.8,0,0,1,.22.053.245.245,0,0,1,.114.088.2.2,0,0,1,.035.114Z"/><path d="M52.329,374.632a.193.193,0,0,1-.036.119.268.268,0,0,1-.114.083.8.8,0,0,1-.22.053,2.85,2.85,0,0,1-.351.017,2.945,2.945,0,0,1-.36-.017.8.8,0,0,1-.22-.053.268.268,0,0,1-.114-.083.193.193,0,0,1-.036-.119V370a4.579,4.579,0,0,0-.1-1.09,2.256,2.256,0,0,0-.308-.712,1.334,1.334,0,0,0-.523-.457,1.66,1.66,0,0,0-.742-.158,1.872,1.872,0,0,0-1.09.387,5.937,5.937,0,0,0-1.143,1.134v5.528a.193.193,0,0,1-.035.119.268.268,0,0,1-.114.083.8.8,0,0,1-.22.053,2.967,2.967,0,0,1-.36.017,2.879,2.879,0,0,1-.352-.017.858.858,0,0,1-.224-.053.235.235,0,0,1-.114-.083.213.213,0,0,1-.031-.119v-7.91a.248.248,0,0,1,.026-.118.23.23,0,0,1,.106-.088.587.587,0,0,1,.2-.053,3.733,3.733,0,0,1,.646,0,.513.513,0,0,1,.2.053.27.27,0,0,1,.1.088.218.218,0,0,1,.031.118v1.046a4.853,4.853,0,0,1,1.331-1.094,2.873,2.873,0,0,1,1.341-.348,2.972,2.972,0,0,1,1.331.269,2.4,2.4,0,0,1,.875.716,2.872,2.872,0,0,1,.479,1.05,6.292,6.292,0,0,1,.145,1.446Z"/><line class="cls-4" x1="308.5" y1="385.86" x2="331.6" y2="385.86"/><line class="cls-4" x1="331.05" y1="386.41" x2="331.05" y2="383.11"/><line class="cls-4" x1="309.05" y1="386.41" x2="309.05" y2="383.11"/><path d="M292.941,395.519l-.839,2.543h-1.08l2.747-8.084h1.259l2.758,8.084h-1.115l-.864-2.543Zm2.65-.816-.791-2.326c-.18-.528-.3-1.008-.42-1.475h-.024c-.12.479-.252.971-.408,1.462l-.791,2.339Z"/><path d="M300.093,390.59v1.667H301.6v.8h-1.511v3.13c0,.719.2,1.128.792,1.128a2.346,2.346,0,0,0,.612-.073l.047.791a2.575,2.575,0,0,1-.935.145,1.46,1.46,0,0,1-1.14-.445,2.146,2.146,0,0,1-.407-1.51v-3.166h-.9v-.8h.9v-1.392Z"/><path d="M304.065,390.59v1.667h1.511v.8h-1.511v3.13c0,.719.2,1.128.791,1.128a2.34,2.34,0,0,0,.612-.073l.048.791a2.579,2.579,0,0,1-.935.145,1.46,1.46,0,0,1-1.14-.445,2.146,2.146,0,0,1-.408-1.51v-3.166h-.9v-.8h.9v-1.392Z"/><path d="M309.98,398.062l-.084-.732h-.036a2.161,2.161,0,0,1-1.775.864,1.654,1.654,0,0,1-1.775-1.667c0-1.4,1.247-2.171,3.49-2.16v-.119a1.2,1.2,0,0,0-1.319-1.344,2.888,2.888,0,0,0-1.511.432l-.241-.695a3.6,3.6,0,0,1,1.908-.516c1.775,0,2.206,1.211,2.206,2.374v2.171a8.178,8.178,0,0,0,.1,1.392Zm-.156-2.962c-1.152-.025-2.459.179-2.459,1.306a.934.934,0,0,0,1,1.008,1.444,1.444,0,0,0,1.4-.971,1.108,1.108,0,0,0,.06-.336Z"/><path d="M316.687,397.846a3.9,3.9,0,0,1-1.667.336,2.759,2.759,0,0,1-2.891-2.963,2.95,2.95,0,0,1,3.119-3.082,3.525,3.525,0,0,1,1.463.3l-.24.815a2.457,2.457,0,0,0-1.223-.275,2.188,2.188,0,0,0-.036,4.365,2.991,2.991,0,0,0,1.3-.288Z"/><path d="M318.969,394.919h.024c.144-.2.347-.455.515-.659l1.7-2h1.272l-2.243,2.387,2.554,3.418h-1.283l-2-2.783-.539.6v2.183h-1.044v-8.516h1.044Z"/><path d="M327.177,390.865h-2.459v-.887H330.7v.887h-2.471v7.2h-1.055Z"/><path d="M332.6,390.626a.654.654,0,0,1-1.308,0,.643.643,0,0,1,.66-.66A.627.627,0,0,1,332.6,390.626Zm-1.176,7.436v-5.805h1.056v5.805Z"/><path d="M334.233,393.828c0-.6-.012-1.092-.047-1.571h.923l.048.936h.036a2,2,0,0,1,1.823-1.068,1.716,1.716,0,0,1,1.643,1.163h.024a2.4,2.4,0,0,1,.648-.756,1.982,1.982,0,0,1,1.283-.407c.767,0,1.907.5,1.907,2.519v3.418h-1.032v-3.286c0-1.116-.407-1.788-1.259-1.788a1.366,1.366,0,0,0-1.247.96,1.734,1.734,0,0,0-.084.528v3.586h-1.031v-3.479c0-.923-.409-1.6-1.212-1.6a1.574,1.574,0,0,0-1.391,1.572v3.5h-1.032Z"/><path d="M344.829,395.351a1.86,1.86,0,0,0,1.991,2.015,3.819,3.819,0,0,0,1.607-.3l.18.754a4.7,4.7,0,0,1-1.931.361,2.7,2.7,0,0,1-2.855-2.927c0-1.751,1.032-3.13,2.723-3.13a2.46,2.46,0,0,1,2.4,2.735,4.19,4.19,0,0,1-.036.491Zm3.094-.755a1.5,1.5,0,0,0-1.463-1.715,1.749,1.749,0,0,0-1.619,1.715Z"/><path d="M587.858,390.218a10.871,10.871,0,0,1,2-.168,3.3,3.3,0,0,1,2.338.66,2.011,2.011,0,0,1,.636,1.535,2.122,2.122,0,0,1-1.523,2.063v.036a2.011,2.011,0,0,1,1.187,1.631,12.977,12.977,0,0,0,.624,2.219h-1.079a10.4,10.4,0,0,1-.54-1.931c-.24-1.115-.672-1.535-1.619-1.571H588.9v3.5h-1.043ZM588.9,393.9h1.068c1.115,0,1.823-.612,1.823-1.536,0-1.043-.756-1.5-1.859-1.51a4.366,4.366,0,0,0-1.032.1Z"/><path d="M594.914,395.483a1.859,1.859,0,0,0,1.99,2.015,3.819,3.819,0,0,0,1.608-.3l.179.755a4.69,4.69,0,0,1-1.93.361,2.7,2.7,0,0,1-2.855-2.927c0-1.751,1.032-3.13,2.723-3.13a2.459,2.459,0,0,1,2.4,2.734,3.983,3.983,0,0,1-.036.492Zm3.094-.755a1.5,1.5,0,0,0-1.463-1.715,1.749,1.749,0,0,0-1.619,1.715Z"/><path d="M600.338,389.678h1.056v8.516h-1.056Z"/><path d="M603.758,395.483a1.858,1.858,0,0,0,1.99,2.015,3.81,3.81,0,0,0,1.607-.3l.18.755a4.7,4.7,0,0,1-1.931.361,2.7,2.7,0,0,1-2.854-2.927c0-1.751,1.031-3.13,2.723-3.13a2.459,2.459,0,0,1,2.4,2.734,3.983,3.983,0,0,1-.036.492Zm3.094-.755a1.5,1.5,0,0,0-1.463-1.715,1.748,1.748,0,0,0-1.619,1.715Z"/><path d="M612.4,398.194l-.084-.732h-.037a2.159,2.159,0,0,1-1.774.863,1.653,1.653,0,0,1-1.775-1.667c0-1.4,1.247-2.171,3.49-2.159v-.119a1.2,1.2,0,0,0-1.32-1.344,2.884,2.884,0,0,0-1.51.432l-.24-.695a3.6,3.6,0,0,1,1.907-.516c1.774,0,2.206,1.211,2.206,2.374V396.8a8.178,8.178,0,0,0,.1,1.392Zm-.157-2.962c-1.151-.025-2.458.179-2.458,1.306a.934.934,0,0,0,1,1.008,1.444,1.444,0,0,0,1.4-.972,1.1,1.1,0,0,0,.059-.336Z"/><path d="M614.821,397.114a2.774,2.774,0,0,0,1.392.42c.767,0,1.127-.383,1.127-.864,0-.5-.3-.779-1.079-1.067-1.043-.371-1.535-.948-1.535-1.643a1.79,1.79,0,0,1,2-1.7,2.909,2.909,0,0,1,1.427.359l-.264.768a2.259,2.259,0,0,0-1.187-.336c-.624,0-.972.36-.972.792,0,.479.348.7,1.1.983,1.007.384,1.522.888,1.522,1.751,0,1.02-.791,1.74-2.171,1.74a3.321,3.321,0,0,1-1.63-.4Z"/><path d="M620.306,395.483a1.858,1.858,0,0,0,1.99,2.015,3.81,3.81,0,0,0,1.607-.3l.18.755a4.7,4.7,0,0,1-1.931.361,2.7,2.7,0,0,1-2.854-2.927c0-1.751,1.031-3.13,2.723-3.13a2.459,2.459,0,0,1,2.4,2.734,3.983,3.983,0,0,1-.036.492Zm3.093-.755a1.5,1.5,0,0,0-1.462-1.715,1.749,1.749,0,0,0-1.62,1.715Z"/><path d="M629.353,391h-2.459v-.887h5.985V391h-2.471v7.2h-1.055Z"/><path d="M634.776,390.758a.653.653,0,0,1-1.306,0,.643.643,0,0,1,.659-.66A.627.627,0,0,1,634.776,390.758Zm-1.174,7.436v-5.805h1.055v5.805Z"/><path d="M636.409,393.96c0-.6-.012-1.092-.048-1.571h.924l.048.935h.036a2,2,0,0,1,1.823-1.067,1.716,1.716,0,0,1,1.643,1.163h.024a2.4,2.4,0,0,1,.648-.756,1.982,1.982,0,0,1,1.283-.407c.768,0,1.907.5,1.907,2.519v3.418h-1.032v-3.287c0-1.115-.407-1.787-1.259-1.787a1.367,1.367,0,0,0-1.247.96,1.734,1.734,0,0,0-.084.528v3.586h-1.032v-3.479c0-.923-.407-1.595-1.211-1.595a1.444,1.444,0,0,0-1.308,1.056,1.474,1.474,0,0,0-.084.516v3.5h-1.031Z"/><path d="M647.005,395.483A1.86,1.86,0,0,0,649,397.5a3.817,3.817,0,0,0,1.607-.3l.18.755a4.7,4.7,0,0,1-1.931.361A2.7,2.7,0,0,1,646,395.387c0-1.751,1.032-3.13,2.723-3.13a2.459,2.459,0,0,1,2.4,2.734,3.983,3.983,0,0,1-.036.492Zm3.1-.755a1.5,1.5,0,0,0-1.464-1.715,1.748,1.748,0,0,0-1.619,1.715Z"/><line class="cls-2" x1="156" y1="61.385" x2="157.5" y2="61.385"/><line class="cls-5" x1="160.51" y1="61.385" x2="736.995" y2="61.385"/><line class="cls-2" x1="738.5" y1="61.385" x2="740" y2="61.385"/><line class="cls-2" x1="155" y1="217.385" x2="156.5" y2="217.385"/><line class="cls-5" x1="159.51" y1="217.385" x2="735.995" y2="217.385"/><line class="cls-2" x1="737.5" y1="217.385" x2="739" y2="217.385"/><path d="M149.4,92.834c0,2.209-.82,3.428-2.259,3.428-1.269,0-2.129-1.189-2.149-3.338,0-2.179.94-3.378,2.259-3.378C148.623,89.546,149.4,90.765,149.4,92.834Zm-3.528.1c0,1.689.52,2.649,1.319,2.649.9,0,1.329-1.05,1.329-2.709,0-1.6-.41-2.648-1.319-2.648C146.434,90.226,145.875,91.165,145.875,92.934Z"/><path d="M148.763,245.118c0,2.209-.82,3.429-2.259,3.429-1.27,0-2.129-1.189-2.149-3.338,0-2.18.939-3.379,2.259-3.379C147.983,241.83,148.763,243.049,148.763,245.118Zm-3.529.1c0,1.688.52,2.648,1.32,2.648.9,0,1.329-1.049,1.329-2.709,0-1.6-.41-2.648-1.32-2.648C145.794,242.51,145.234,243.449,145.234,245.219Z"/><line class="cls-2" x1="156" y1="128.385" x2="157.5" y2="128.385"/><line class="cls-5" x1="160.51" y1="128.385" x2="736.995" y2="128.385"/><line class="cls-2" x1="738.5" y1="128.385" x2="740" y2="128.385"/><line class="cls-2" x1="155.6" y1="273.66" x2="157.1" y2="273.66"/><line class="cls-6" x1="160.111" y1="273.66" x2="736.695" y2="273.66"/><line class="cls-2" x1="738.2" y1="273.66" x2="739.7" y2="273.66"/><path d="M154,23.625v5.846c0,.431.01.92.04,1.25h-.79l-.04-.84h-.02a1.787,1.787,0,0,1-1.648.95,2.205,2.205,0,0,1-2.069-2.459,2.313,2.313,0,0,1,2.169-2.6,1.617,1.617,0,0,1,1.459.739h.02V23.625Zm-.879,4.227a1.592,1.592,0,0,0-.04-.369,1.294,1.294,0,0,0-1.27-1.02c-.909,0-1.449.8-1.449,1.869,0,.98.48,1.789,1.43,1.789a1.322,1.322,0,0,0,1.289-1.049,1.577,1.577,0,0,0,.04-.38Z"/><path d="M155.493,24.074a8.506,8.506,0,0,1,1.589-.139,2.79,2.79,0,0,1,1.849.489,1.414,1.414,0,0,1,.559,1.189,1.6,1.6,0,0,1-1.139,1.48v.02A1.735,1.735,0,0,1,159.74,28.8a1.816,1.816,0,0,1-.57,1.349,3.379,3.379,0,0,1-2.328.63,10.141,10.141,0,0,1-1.349-.08Zm.869,2.759h.789c.92,0,1.46-.48,1.46-1.129,0-.79-.6-1.1-1.48-1.1a3.727,3.727,0,0,0-.769.06Zm0,3.228a4.649,4.649,0,0,0,.73.04c.9,0,1.729-.33,1.729-1.309,0-.92-.79-1.3-1.739-1.3h-.72Z"/><path d="M154.38,176.57v5.847c0,.431.01.92.04,1.25h-.79l-.04-.84h-.02a1.788,1.788,0,0,1-1.649.95,2.2,2.2,0,0,1-2.068-2.458,2.313,2.313,0,0,1,2.168-2.6,1.615,1.615,0,0,1,1.459.739h.02V176.57Zm-.88,4.228a1.545,1.545,0,0,0-.04-.369,1.292,1.292,0,0,0-1.269-1.02c-.909,0-1.449.8-1.449,1.869,0,.98.48,1.79,1.429,1.79a1.321,1.321,0,0,0,1.289-1.05,1.534,1.534,0,0,0,.04-.38Z"/><path d="M155.873,177.021a8.407,8.407,0,0,1,1.588-.14,2.786,2.786,0,0,1,1.85.489,1.415,1.415,0,0,1,.559,1.19,1.6,1.6,0,0,1-1.139,1.479v.02a1.735,1.735,0,0,1,1.389,1.689,1.815,1.815,0,0,1-.57,1.349,3.379,3.379,0,0,1-2.328.63,10.141,10.141,0,0,1-1.349-.08Zm.869,2.758h.789c.92,0,1.46-.48,1.46-1.129,0-.79-.6-1.1-1.48-1.1a3.727,3.727,0,0,0-.769.06Zm0,3.228a4.649,4.649,0,0,0,.73.04c.9,0,1.729-.33,1.729-1.309,0-.919-.79-1.3-1.74-1.3h-.719Z"/><path d="M210.275,50.449h-2.459v-.888H213.8v.888H211.33v7.2h-1.055Z"/><path d="M214.583,49.13h1.056v3.622h.024a1.964,1.964,0,0,1,.755-.744,2.183,2.183,0,0,1,1.08-.3c.779,0,2.027.479,2.027,2.482v3.454h-1.056V54.311c0-.935-.347-1.727-1.343-1.727a1.516,1.516,0,0,0-1.415,1.055,1.279,1.279,0,0,0-.072.5v3.5h-1.056Z"/><path d="M221.244,53.651c0-.684-.013-1.27-.048-1.811h.923l.036,1.14h.048a1.741,1.741,0,0,1,1.607-1.271,1.1,1.1,0,0,1,.3.036v1a1.531,1.531,0,0,0-.36-.036,1.48,1.48,0,0,0-1.415,1.355,2.971,2.971,0,0,0-.048.491v3.1h-1.043Z"/><path d="M225.635,54.934a1.86,1.86,0,0,0,1.991,2.016,3.817,3.817,0,0,0,1.607-.3l.18.755a4.7,4.7,0,0,1-1.931.36,2.7,2.7,0,0,1-2.855-2.926c0-1.751,1.032-3.13,2.723-3.13a2.459,2.459,0,0,1,2.4,2.734,3.947,3.947,0,0,1-.036.491Zm3.094-.755a1.5,1.5,0,0,0-1.463-1.715,1.75,1.75,0,0,0-1.619,1.715Z"/><path d="M230.916,56.566a2.774,2.774,0,0,0,1.391.42c.768,0,1.127-.384,1.127-.864,0-.5-.3-.78-1.079-1.068-1.043-.371-1.535-.947-1.535-1.642a1.79,1.79,0,0,1,2-1.7,2.909,2.909,0,0,1,1.427.359l-.264.768A2.259,2.259,0,0,0,232.8,52.5c-.624,0-.972.36-.972.792,0,.479.348.7,1.1.983,1.007.384,1.523.888,1.523,1.751,0,1.02-.792,1.739-2.171,1.739a3.319,3.319,0,0,1-1.631-.4Z"/><path d="M235.812,49.13h1.055v3.622h.024a1.964,1.964,0,0,1,.755-.744,2.183,2.183,0,0,1,1.08-.3c.779,0,2.027.479,2.027,2.482v3.454H239.7V54.311c0-.935-.347-1.727-1.343-1.727a1.516,1.516,0,0,0-1.415,1.055,1.279,1.279,0,0,0-.072.5v3.5h-1.055Z"/><path d="M247.724,54.7a2.837,2.837,0,0,1-2.89,3.082,2.76,2.76,0,0,1-2.783-2.986,2.834,2.834,0,0,1,2.879-3.082A2.748,2.748,0,0,1,247.724,54.7Zm-4.6.06c0,1.271.732,2.231,1.763,2.231,1.007,0,1.763-.948,1.763-2.255,0-.983-.492-2.231-1.739-2.231S243.119,53.651,243.119,54.755Z"/><path d="M249.059,49.13h1.056v8.515h-1.056Z"/><path d="M256.9,49.13v7.016c0,.516.013,1.1.048,1.5h-.947l-.048-1.008h-.024a2.146,2.146,0,0,1-1.979,1.14c-1.4,0-2.483-1.188-2.483-2.95-.012-1.931,1.188-3.118,2.6-3.118a1.943,1.943,0,0,1,1.751.887h.024V49.13ZM255.849,54.2a1.864,1.864,0,0,0-.048-.444,1.553,1.553,0,0,0-1.523-1.223c-1.091,0-1.739.96-1.739,2.243,0,1.175.575,2.146,1.715,2.146a1.586,1.586,0,0,0,1.547-1.258,1.839,1.839,0,0,0,.048-.456Z"/><path d="M210.287,136.742h-2.459v-.887h5.984v.887h-2.47v7.2h-1.055Z"/><path d="M214.6,135.423h1.056v3.622h.024a1.954,1.954,0,0,1,.755-.743,2.173,2.173,0,0,1,1.08-.3c.779,0,2.027.48,2.027,2.483v3.454h-1.056V140.6c0-.936-.348-1.728-1.343-1.728a1.517,1.517,0,0,0-1.415,1.056,1.276,1.276,0,0,0-.072.5v3.5H214.6Z"/><path d="M221.255,139.944c0-.683-.012-1.27-.047-1.81h.923l.036,1.14h.048A1.74,1.74,0,0,1,223.822,138a1.142,1.142,0,0,1,.3.036v.995a1.586,1.586,0,0,0-.36-.036,1.481,1.481,0,0,0-1.415,1.356,2.949,2.949,0,0,0-.048.491v3.095h-1.044Z"/><path d="M225.647,141.228a1.86,1.86,0,0,0,1.991,2.015,3.835,3.835,0,0,0,1.607-.3l.18.754a4.7,4.7,0,0,1-1.931.361,2.7,2.7,0,0,1-2.855-2.927c0-1.751,1.032-3.13,2.723-3.13a2.459,2.459,0,0,1,2.4,2.734,4.193,4.193,0,0,1-.036.492Zm3.094-.755a1.5,1.5,0,0,0-1.463-1.715,1.748,1.748,0,0,0-1.619,1.715Z"/><path d="M230.927,142.86a2.777,2.777,0,0,0,1.392.419c.767,0,1.127-.383,1.127-.864,0-.5-.3-.779-1.079-1.067-1.044-.371-1.535-.947-1.535-1.643a1.79,1.79,0,0,1,2-1.7,2.91,2.91,0,0,1,1.428.359l-.264.768a2.259,2.259,0,0,0-1.187-.336c-.624,0-.972.36-.972.792,0,.48.348.695,1.1.984,1.008.383,1.523.887,1.523,1.75,0,1.02-.791,1.74-2.171,1.74a3.315,3.315,0,0,1-1.63-.4Z"/><path d="M235.823,135.423h1.056v3.622h.024a1.954,1.954,0,0,1,.755-.743,2.173,2.173,0,0,1,1.08-.3c.779,0,2.027.48,2.027,2.483v3.454h-1.056V140.6c0-.936-.348-1.728-1.343-1.728a1.517,1.517,0,0,0-1.415,1.056,1.276,1.276,0,0,0-.072.5v3.5h-1.056Z"/><path d="M247.736,140.988a2.836,2.836,0,0,1-2.89,3.082,2.759,2.759,0,0,1-2.783-2.986A2.834,2.834,0,0,1,244.941,138,2.748,2.748,0,0,1,247.736,140.988Zm-4.606.06c0,1.271.732,2.231,1.764,2.231,1.007,0,1.763-.948,1.763-2.254,0-.984-.492-2.232-1.74-2.232S243.13,139.944,243.13,141.048Z"/><path d="M249.071,135.423h1.055v8.516h-1.055Z"/><path d="M256.916,135.423v7.017c0,.515.012,1.1.048,1.5h-.947l-.048-1.008h-.024a2.147,2.147,0,0,1-1.979,1.139c-1.4,0-2.483-1.187-2.483-2.95-.012-1.93,1.187-3.118,2.6-3.118a1.942,1.942,0,0,1,1.752.888h.024v-3.467Zm-1.055,5.073a1.807,1.807,0,0,0-.049-.443,1.551,1.551,0,0,0-1.522-1.224c-1.092,0-1.74.96-1.74,2.243,0,1.175.576,2.147,1.716,2.147a1.585,1.585,0,0,0,1.546-1.259,1.787,1.787,0,0,0,.049-.456Z"/><path d="M137.844,189.242v2.349H140.1v.6h-2.259v2.368h-.64v-2.368h-2.259v-.6H137.2v-2.349Z"/><path d="M140.875,192.91a1.856,1.856,0,0,1,1.29-1.739l-.011-.03a1.61,1.61,0,0,1-1.029-1.459,1.82,1.82,0,0,1,2.009-1.73,1.678,1.678,0,0,1,1.889,1.6,1.647,1.647,0,0,1-1.069,1.518v.031a1.8,1.8,0,0,1,1.309,1.679,2,2,0,0,1-2.209,1.889C141.7,194.669,140.875,193.86,140.875,192.91Zm3.5-.04c0-.79-.549-1.17-1.429-1.42a1.413,1.413,0,0,0-1.169,1.34,1.2,1.2,0,0,0,1.3,1.239A1.176,1.176,0,0,0,144.373,192.87Zm-2.418-3.249c0,.651.489,1,1.239,1.2a1.281,1.281,0,0,0,.99-1.179,1.01,1.01,0,0,0-1.1-1.06A1.033,1.033,0,0,0,141.955,189.621Z"/><path d="M150.4,191.24c0,2.209-.82,3.429-2.259,3.429-1.269,0-2.129-1.189-2.149-3.338,0-2.179.94-3.379,2.259-3.379C149.623,187.952,150.4,189.172,150.4,191.24Zm-3.528.1c0,1.688.52,2.648,1.319,2.648.9,0,1.329-1.049,1.329-2.709,0-1.6-.41-2.648-1.319-2.648C147.434,188.632,146.875,189.571,146.875,191.341Z"/><path d="M140.2,302.461v.649h-2.469v-.649Z"/><path d="M140.875,303.841a1.856,1.856,0,0,1,1.29-1.739l-.011-.031a1.608,1.608,0,0,1-1.029-1.459,1.82,1.82,0,0,1,2.009-1.729,1.678,1.678,0,0,1,1.889,1.6A1.649,1.649,0,0,1,143.954,302v.03a1.8,1.8,0,0,1,1.309,1.68,2,2,0,0,1-2.209,1.889C141.7,305.6,140.875,304.79,140.875,303.841Zm3.5-.04c0-.79-.549-1.17-1.429-1.42a1.413,1.413,0,0,0-1.169,1.34,1.2,1.2,0,0,0,1.3,1.239A1.175,1.175,0,0,0,144.373,303.8Zm-2.418-3.249c0,.65.489,1,1.239,1.2a1.281,1.281,0,0,0,.989-1.18,1.009,1.009,0,0,0-1.1-1.059A1.032,1.032,0,0,0,141.955,300.552Z"/><path d="M150.4,302.171c0,2.209-.82,3.429-2.259,3.429-1.269,0-2.129-1.19-2.149-3.338,0-2.18.94-3.379,2.259-3.379C149.623,298.883,150.4,300.1,150.4,302.171Zm-3.528.1c0,1.688.519,2.648,1.319,2.648.9,0,1.329-1.05,1.329-2.709,0-1.6-.41-2.648-1.319-2.648C147.434,299.563,146.875,300.5,146.875,302.272Z"/></svg>