<svg id="Layer_1" data-name="Layer 1" xmlns="http://www.w3.org/2000/svg" xmlns:xlink="http://www.w3.org/1999/xlink" width="751.25" height="318.14" viewBox="0 0 751.25 318.14"><defs><style>.cls-1,.cls-4{fill:none;}.cls-2{clip-path:url(#clip-path);}.cls-3{fill:#b2b2b2;}.cls-4{stroke:blue;stroke-miterlimit:10;stroke-width:2px;}</style><clipPath id="clip-path"><rect class="cls-1" x="-1325.24" y="-216.22" width="546.63" height="471.37"/></clipPath></defs><g id="Layer_2" data-name="Layer 2"><g class="cls-2"><path class="cls-3" d="M508.06-29.55a77.58,77.58,0,0,1-2.23,12.83c-3.8-22.76-1.48-45.68-3.64-68.5-1.62,25.46.42,51-1.66,76.41-.94-17.37-1.27-34.88-7.49-51.92-.68,12.48-.81,25-1.23,37.45-2.84-16.91-5.38-33.84-6.2-50.82-.5,10.69-.74,21.39-1.21,32.09-1.32-2.87-3.32-5.87-4.34-8.69-.42,3.63-1.21,7.2-1.47,10.87-.6-3.25-1.9-6.63-2.21-9.83-.44,11.78-.77,23.55-1.63,35.33-1.08-19.52-.55-39-1-58.57q-1.65,3.66-3.09,7.33c-.39-3.24-1.18-9.72-1.56-13-1,13.28-2,26.55-3.68,39.8-.22-8.21-.24-16.43-.3-24.63-1.37.59-2.71,1.19-4,1.8-.27-2-.82-6-1.09-8-.79,5.52-1.6,11-2.31,16.57-2.62-9.15-3.85-18.42-5.29-27.65-1.39,8.78-2.35,17.59-3.28,26.41-1.21-8.51-2.14-17-4.17-25.47-1.45,10.3-2.42,20.64-3.19,31-.64-13.27-.88-26.53-1.54-39.78-.73,6.25-1.41,12.51-2.09,18.77-.27-3.24-1.22-6.59-1.21-9.78q-1.4,2.61-2.74,5.23c-4.85-25.7-3.61-51.58-5.29-77.38-1.21,26.2,0,52.45-3.57,78.61-.64-11.8-1.1-23.6-1.94-35.39-.61,14.39-.65,28.8-2,43.19-2.8-15.45-2.38-31-3.44-46.52-1.92,28.79,1.5,57.69-3.85,86.39-.34-9.13-.36-18.27-.4-27.39-1.24,1.24-2.45,2.51-3.64,3.77-.44-1.82-1.32-5.43-1.76-7.24-.12,11.33-.15,22.64-.18,34-.92-1.52-2.75-4.56-3.64-6.09,0,5,0,10,.18,14.94-1.25-1.28-2.49-2.57-3.7-3.84-.23,1.62-.44,3.23-.62,4.86-.55-1.11-1.08-2.22-1.58-3.34-3.48,2.52-6.77,5.13-10.6,7.46-1.83-6-2.45-12.17-3.42-18.24-3.11,8.4-4.6,17-6.81,25.46q-1-14.88-1.43-29.75c-1.54,7.44-2.24,15-5.16,22.34-2.66-6.95-4.77-14-6.7-21-.83,8.73-1.49,17.47-3,26.17q-.9-10.8-1.74-21.6c-1.81-1.08-3.61-2.19-5.36-3.29-1,5.3-1.84,10.59-2.66,15.9-.48-6.18-.92-12.34-1.38-18.51-.63,4.41-1.94,13.24-2.58,17.66-2.32-11-2.45-22.18-4.74-33.21-.91,12.55-1,25.1-1.81,37.64-11.17-16.87-4.73-35.57-7.63-53.18-.85,12.91-.9,25.82-1.65,38.73-.79-8.47-1.36-17-2.11-25.41-.49,10.67-.9,21.35-1.5,32-.58-9.58-1.37-19.15-1.89-28.71-1.5,5.43-2.82,10.86-4.1,16.32-.69-13.21-1.73-26.4-3.33-39.57-.57,11.87-1.12,23.76-2.71,35.62-3.42-20.31-.71-40.79-2.89-61.14-.92,16.6-.5,33.2-1.76,49.8-.77-9.19-1-18.41-1.48-27.61-1,6.41-2.14,12.81-3.22,19.21-3.46-24.83-.13-49.75-2.42-74.62-2.6,12.46-2.91,25-3.41,37.53-1.26-3.67-2.49-7.33-3.75-11q-1.17,11.64-2.31,23.26c-1.63-11-2.51-22.11-3.42-33.18-.78,6.24-1.52,12.48-2.27,18.73-.81-20.1-.37-40.21-.31-60.31h-2c-.54,39,1.39,77.92-1,116.84-1.36-20.84-2.8-41.71-2.53-62.57,0-16,.66-32.1-3-48-1,11-1.78,21.91-3.48,32.83q-1.14-7.08-2.2-14.14c-4.7,35.39.7,71-4.74,106.34-1-10.34-1.54-20.68-2.09-31-.69,3.3-2,6.48-2.43,9.82-.54-7.33-1-14.67-1.45-22-.48,20.73-5.55,41.25-7.49,61.92-.2-3.19-.57-6.41-.62-9.58-1.63-.06-3.24-.11-4.83-.18-1.19,4-2.24,8-3.43,12-.91-11-1.37-22-3.7-33-1,10.26-1.39,20.57-3.4,30.79a231.48,231.48,0,0,1-4.27-24.24C236-19,235.44-11.63,234.83-4.23a103.19,103.19,0,0,1-5.76-13c-.86,3.74-2.37,7.34-3.12,11.12-3-9.23-3-18.72-4-28.07-.53,11.12-1.08,22.26-3.26,33.32-3.86-10.6-2.87-21.57-4.15-32.33-2.51,8.68-2.16,17.52-2.6,26.3-2-2.86-3.87-5.71-5.88-8.53l-2.49,8.8c-1.28-8.82-2.33-17.65-3.42-26.47-.9,9.19-1.67,18.39-2.93,27.56q-2.55-12.12-4.65-24.24C190.15-19.57,188.83-9.29,187.2,1c-.6-11-1.19-21.91-3.07-32.82C182.72-24.08,183-16,178.51-8.56q-1.09-9.48-1.93-19c-1.21,6.62-2.34,13.26-3.81,19.86a162.92,162.92,0,0,1-3.56-23.14c-1.45,5.53-2.9,11.06-4.54,16.58-1.36-5.51-2.24-11.07-3.23-16.58-.54,7-1.08,13.94-1.66,20.92a150.86,150.86,0,0,1-5.42-30.92c-.9,8-1.54,16-2.82,24-1.58-3.92-3-7.8-4.56-11.69-1.19,3.57-2.62,7.09-3.68,10.68-1.23-6.15-2.4-12.31-3.64-18.46-.53,3.26-1,6.52-1.5,9.8-2.2-3.66-4.47-7.36-6.51-11-5.1,7.64-3.42,16.1-4.46,24.12-1.26-4-2.47-7.91-3.81-11.85q-1,7-2,14.13c-2.51-12.47-2.76-25-3.42-37.54-1.12,8.77-2,17.58-3.59,26.35-.42-3.24-1.23-9.71-1.63-13-1,2.43-1.85,4.88-2.69,7.33C109.52-36,109-44,108.27-52c-2.14,11.74-2.41,23.56-3.09,35.36-1-7.34-1.85-14.66-3.06-22-1.66,3.58-3.09,7.21-4.72,10.8-1.94-6.7-2.46-13.53-3.13-20.31H91.65Q91-36.34,90.29-24.47c-.8-11.39-1.06-22.81-3.59-34.12-1.55,14.33-2.63,28.67-3.75,43C79.66-34,80.66-52.49,79.4-70.93c-.81,11.87-.83,23.82-3.63,35.61C71.37-51,73.06-67.11,70.06-83c-.83,19.56-.2,39.12-1.56,58.68C67.64-40.15,66.87-56,64.93-71.85c-1.26,9.22-2.25,18.49-5.38,27.58-.88-7-1.54-14-2.25-20.94-.59,10.31-1,20.62-1.74,30.93-.79-9.21-1.16-18.42-1.87-27.62C53.1-49.74,52.77-37.57,52-25.4c-1.35-27.49-3.19-55-2.69-82.48h-1.9c-.15,24.17,1,48.37-1,72.52C44.25-45.62,43.74-56,42.88-66.28c-.77,6.28-1.5,12.57-2.25,18.85C35.23-59,36.43-71,35.63-82.9c-.46,9.58-1.3,19.14-1.76,28.72q-1.14-9.37-2.19-18.73c-.52,15.47-.63,31-1.56,46.43-.81-11.8-1-23.63-3.41-35.37C25.65-51.18,25.3-40.49,24.55-29.8c-.66-17.41-.66-34.88-5.14-52.12-7,13.25-4.6,27.34-5.92,41C12.8-52.28,12.42-63.65,11.08-75c-.79,1.46-1.56,2.92-2.31,4.4l-3.5-1.63c-.18,7.85-.36,15.71-.62,23.56-1.15-7-2.12-14-3.48-21Q0-58.05-1-46.46c-1-6.67-1.91-13.36-2.93-20C-5.49-57.23-5.82-48-6.74-38.71c-.58-7-1-14-1.57-20.93-2.46,14-.76,29.11-12.2,41.9-2-4.46-3.6-9-5.75-13.4-.8,7.82-1.61,15.63-2.36,23.46-.88-9.91-1.39-19.85-3.7-29.69-.44,5.45-.82,10.88-1.17,16.35l-5.11-3.77q-.48,9.66-1.06,19.34c-.7-11-1-22.11-1.7-33.15-.66,7-1.12,14-1.67,21-.62-3.24-1.74-6.64-2.13-9.85q-.87,6.57-1.66,13.16c-4.3-10.1-5-20.53-5.71-30.89-1.15,10.3-2.11,20.63-3.22,30.94C-56.56-17.18-57.31-20.1-58-23c-.36,3.28-1.24,6.42-1.42,9.75-1.32-8.19-1.93-16.43-3.77-24.58-1.47,2.6-2.9,5.22-4.27,7.83C-71-46.78-71.11-63.71-74.16-80.48q-1.14,9.27-2.26,18.61c-2.53-16-2.51-32.12-2.4-48.19h-1.63c0,15,.2,30-2.75,44.92-1.15-9.23-1.5-18.5-2.3-27.73-.5,12.51-.67,25-1.39,37.55-3.34-21.72-2.17-43.54-4.22-65.29-3,13.94-2.34,28-3.4,42.07-.75-17.32-.61-34.66-1.49-52-1.88,16.18-3,32.39-3.91,48.6-1.85-26.18.22-52.39-1.69-78.56-.79,6.62-1.46,13.24-2.18,19.87-.62-8.84-1-17.68-1.68-26.51-3.13,27.27-1.91,54.63-3.61,81.94-1.48-17.32-2.58-34.64-3.53-51.95-.68,11.4-1.3,22.81-1.93,34.21-.71-10-1.13-19.9-1.77-29.84-.92,9.6-1.54,19.22-3.31,28.78-2.68-6.51-3.48-13.22-4.73-19.85-.57,25.45.42,50.9-.79,76.34q-1.34-6.6-2.54-13.18c-1,12.12-1.91,24.24-3.06,36.36-1.23-3.14-2.4-6.29-3.59-9.43-2.43,4.56-5.09,9-7.62,13.59-1.24,3.67-2.65,7.31-3.8,11l-3.68-7.1c-1.27,6.86-2.4,13.74-3.75,20.59-.56-8-1-16.08-1.62-24.12-1.52,7.66-2.64,15.34-3.88,23-.6-6.18-1.12-12.34-1.65-18.5Q-162.57-7.69-164.46,0q-.48-11.53-1-23.06c-1.32,5.49-2.46,11-3.85,16.46-.73-5.11-1.36-10.24-2-15.34-1.13,5.13-2.23,10.27-3.44,15.4-.62-4.43-1.89-13.28-2.51-17.71-1.88,9.56-2.52,19.18-3.62,28.78-.37-14.42-.46-28.86-2-43.26-1.65,8.84-2.42,17.73-3.37,26.62-.81-10.33-1.15-20.68-2.93-31-.82,9.57-1.72,19.16-2.35,28.74-.65-13.33-1-26.68-2.47-40-3.37,13.59-2,27.43-3.09,41.12-.82-11.45-1.17-22.93-3.59-34.31-.84,9.22-1.39,18.44-2,27.66-1.14-12.54-2.17-25.06-3.61-37.58-.66,6.6-1.23,13.19-1.85,19.79-1.46-6.51-2.67-13.06-3.88-19.6-.74,5.11-1.47,10.2-2.14,15.31-1.56-5.85-2.42-11.76-3.48-17.62-.51,9.18-.88,18.37-1.58,27.55-2.39-12.48-2.74-25.07-3.7-37.61-.51,12.57-.82,25.15-2.09,37.71-2.83-14.55-2.26-29.24-2.26-43.84h-1.52c-.19,11.28-.57,22.56-1.47,33.84-2-7.9-2.29-15.91-3.13-23.86h-1c-.28,9.4-.59,18.81-1.12,28.22a237.29,237.29,0,0,1-3.84-25.42c-.66,8.12-1.3,16.24-2.11,24.36-2.54-13.24-2.42-26.6-3.42-39.9-.61,10.69-1,21.4-1.71,32.09-1.32-10.65-2.36-21.32-3.35-32-1,8.09-2.27,16.18-3.68,24.26-.71-3.28-1.63-6.69-2.34-9.9-.93,8.79-1.6,17.6-3,26.37q-1.26-11.56-2.55-23.12c-.35,16.62.39,33.3-3.06,49.83-1.53-18.08-.82-36.2-2.27-54.29-1.39,21.77.86,43.63-3,65.34-2.54-24.34-.14-48.74-2.41-73.09-1,22.88-.62,45.8-3.87,68.64-1.42-25.83.79-51.69-1.68-77.5-1.39,24,.64,48.09-3.7,72-.92-19.58-.22-39.17-1.61-58.72-2.25,18.42-2.55,36.91-3.83,55.37-1.36-23.25.22-46.53-1.74-69.76-1.43,25.46-1.83,50.94-3.81,76.4-1.17-21.78.13-43.57-1.72-65.35C-296.52-58-296.94-44-298-30c-.81-19.92-.15-39.86-1.47-59.77-3,24.13-2.91,48.33-2.69,72.52h-2c-.27-23.82,1.78-47.72-2.09-71.47q-1.44,11.61-2.8,23.22c-.47-12.94-.62-25.9-1.88-38.82-6.12,28.65.46,57.73-3.32,86.49C-315.49-41-316.15-64.3-318-87.55c-1.12,21-.16,42.08-1.69,63.11-1.2-18.42.1-37-3.7-55.3-.89,16.94-.71,33.9-1.75,50.85-5.29-30.17-.93-60.55-3.74-90.79-2,28.42.44,56.87-1.72,85.29-5-29.82-1.13-59.83-3.75-89.72-2.49,37.65,1,75.34-2,113-1-48-1.75-96-3.65-144-3.3,41.69,3.31,83.59-3.4,125.15-2-23.61.14-47.26-2.06-70.86-1.1,19.53-.42,39.08-1.44,58.63-4.82-18.3-2.16-36.88-4-55.3-1.85,24.7,1.11,49.52-3.59,74.14-2.66-46.49,1.15-93-2-139.51-1.89,29.31.65,58.65-1.45,88-1.81,23.46-.16,47-2,70.43-2.53-46.87,1-93.79-1.85-140.66-1.87,43.56-2.12,87.14-3.74,130.7-2.14-36.17.75-72.38-1.61-108.54-3.15,28.76-2.1,57.59-3.82,86.37-1.07-19.19-.43-38.41-1.93-57.59-3.68,19.46-2.43,39.07-2.54,58.61-1.08-1.68-2.16-3.37-3.22-5-1.47,9.07-2.4,18.18-3.19,27.29-6.81-9-6.72-19-7.38-28.62-1.11,5.82-2.07,11.66-3.48,17.45-.78-3.61-1.72-7.31-2.36-10.9-1.33,8.45-2.44,16.92-3.61,25.38a212.88,212.88,0,0,1-3-24.13c-.27,1.37-.82,4.11-1.09,5.48-1.21-.48-2.4-1-3.57-1.46-1.25,6.35-2.81,12.68-4.58,19-2.11-14.77-5.26-29.47-7.89-44.21-2.15,12.54-2.48,25.39-8.61,37.53-1.56-5.88-2.91-11.78-4.45-17.65-2.32,7.68-3.81,15.42-5.53,23.16-1.92-12.47-2.23-25-3-37.49-.8,3.66-1.72,7.26-2.41,11-.48-15.07.23-30.22-3.52-45.16-.59,12.44-.64,24.9-.89,37.36-1.47-3.25-2.86-6.51-4.33-9.75q-.76,9.36-1.48,18.7c-.57-2-1.68-5.83-2.25-7.78-1.43,2.54-2.79,5.11-4,7.7-.36-7.33-.86-14.65-1.21-22q-1,11.55-2.07,23.14c-.58-10-1.06-19.89-1.7-29.82-.77,5.13-1.43,10.24-2.09,15.39-.48-8.07-.86-16.13-1.28-24.18-1.3,8.39-2.27,16.8-3.59,25.19-1.48-6.89-2.89-13.78-4.5-20.65-.42,11-.72,22-1.37,33-.7-11.82-1-23.63-1.64-35.43-.69,3.32-1.64,6.5-2.19,9.85-1.06-7-2.07-14-3.37-20.94-1.36,11.47-2.07,23-6.1,34.27-4.43-9.69-4.19-19.8-4.81-29.75-.62,3-1.85,9-2.47,12-1.21-26.54.84-53.12-1.6-79.66-1.66,25.83.39,51.69-1.46,77.51-.92-5.14-1.69-10.29-2.49-15.41-.55,17.87-.37,35.76-.25,53.64h-2c-.13-24.18.69-48.35-.57-72.5-1.47,13.62-2.71,27.26-4.17,40.9-1.6-16.6-2.51-33.2-3.72-49.8-1,19.38-.66,38.77-.53,58.16l-1.78-.06c-.07-13.1-.31-26.19-1.32-39.28-1.11,30.26-.2,60.55-3.12,90.79-.61-1.91-1.85-5.7-2.46-7.59-1.72,7.31-3.33,14.62-5,22-1.25-6.24-2.42-12.47-3.77-18.7q-2.1,8.22-4,16.45c-1.83-8-3.68-16-5.62-24-.7,6.58-1.39,13.15-2.2,19.74-1.79-6.22-3.11-12.51-4.78-18.74-.84,7-1.59,13.93-2.41,20.91-1.45-5.52-2.57-11.11-3.74-16.65-1.57,4.77-3,9.55-4.79,14.29-1.62-6.87-2.75-13.77-4-20.65-.92,8-1.73,16.07-3,24.08-1.08-8.22-2-16.45-3.14-24.66-1.64,7.37-2.46,14.82-4,22.22-1.64-5.55-2.89-11.12-4.88-16.62-.87,3.37-2.59,10.11-3.45,13.48-1.61-8-2.6-16.13-3.44-24.2-1.48,10.65-2.69,21.32-4,32-3.13-13.88-2.12-27.95-4.89-41.84-1,11.37-1.78,22.78-3.6,34.13-1-6.78-2-13.56-3.08-20.32-1.08,6.73-1.74,13.46-2.51,20.21-1.43-5.88-2.53-11.8-4.1-17.66-1.67,5.52-2.9,11.06-4.3,16.61-1.91-9.92-2-19.93-3.08-29.88-1.65,10.69-2.73,21.41-4.58,32.09-1.59-11.4-3-22.81-4-34.22-1,7.37-2,14.73-3.37,22.1A120.18,120.18,0,0,1-631.08-23c-1.5,5.83-3.5,11.6-5.33,17.4-.42-3-1.28-9.09-1.72-12.12Q-639.72-11-641.22-4.3c-3.24-12.45-3.61-25.08-4.3-37.66-1.37,11.74-2.64,23.47-3.63,35.22-1.44-9.56-2.82-19.12-4.25-28.67-2.71,10.19-3.4,20.53-5.27,30.79a330.55,330.55,0,0,0-5.48-49.51c-.41,13.27-.69,26.55-1.82,39.83-3.34-12.08-2.5-24.41-3.7-36.59-.61,12.88-.7,25.75-1.23,38.63-2.21-11-3.76-22.08-5.86-33.09-1.61,8-2.71,16.11-3.75,24.2-.7-13.21-1.85-26.4-3.78-39.55-.65,17.26-.58,34.53-1.2,51.8-1.5-10.7-3.15-21.38-6.08-32-2.29,11.72-2.73,23.53-3.57,35.31-.83-19.92-1.91-39.83-3.72-59.73-.9,19.14-.46,38.31-1.32,57.47-5.4-24.54.1-49.55-8-73.91-.42,15.43-.45,30.87-1.5,46.29-1.26-22.13-2.14-44.26-3.62-66.39-1.14,18.79-.68,37.6-1.68,56.4a486.64,486.64,0,0,1-5.79-59.75c-.75,15.46-.44,31.06-5.58,46.28-1.4-24.66.51-49.36-1.8-74-1.87,27.68.75,55.39-1.7,83.05-1.71-16.58-1.76-33.28-5.33-49.78-.9,14.46-.91,29-2.64,43.41-7.52-28.29-1.39-57.08-4.94-85.55-2.18,26.94,1.82,54-3.59,80.73-.55-6.2-1.12-12.4-1.66-18.58q-.9,6.56-1.75,13.14c-.53-3-1.59-9-2.1-12-.68,3.64-1.41,7.23-2,10.91-.62-6.61-1.21-13.23-1.85-19.83-.53,14-.67,28-1.37,42-1.06-12.15-2-24.32-4-36.44-.65,13.26-.79,26.51-1.18,39.76-1.66-2.48-3.31-5-4.94-7.47q-.12,7-.2,14c-.85-1.53-2.55-4.59-3.39-6.12-.42,6.89-.81,13.79-1.28,20.7-.6-13.65-.88-27.3-1.83-40.94-1.26,20,.81,40.06-3.13,60-1.19-1.64-3.57-4.92-4.76-6.54-.19,2.11-.57,6.36-.75,8.47-1.27-6.59-2.35-13.17-3.85-19.74-.82,5.47-1.43,11-2.09,16.43l-3-13c-1,1.72-1.89,3.43-2.82,5.16-1-8.74-1.63-17.47-3.3-26.16-.89,6.61-1.79,13.21-2.82,19.83-1.41-7.38-2.07-14.82-3-22.22-.32,10.3-.78,20.58-1.28,30.87q-1-11.57-2-23.13-1,7.16-2,14.32c-.32-3.19-.72-6.5-.92-9.65-2.13,3.64-4.16,7.3-6.58,10.88-.56-12.23-.82-24.45-1.44-36.66a336.25,336.25,0,0,0-3.83,36.53c-2.12-11-2.63-22-2.91-33l-2.86,6.15c-.76-9.51-1-19.05-3.12-28.48-1,12.5-1.21,25-1.73,37.53-1.54-9.5-2.87-19-4.17-28.49-.44,8-1,16.05-1.46,24.08-.57-9.57-1.43-19.12-2-28.69-.68,9.94-1.26,19.89-2,29.84-.63-14.38-.7-28.77-1.67-43.15-.28,4.92-.42,9.81-.57,14.74l-4-1.94q-.46,9.6-1,19.23c-.68-11.06-1-22.11-1.72-33.17-.68,12.18-1,24.34-1.85,36.52-.61-12.17-.9-24.32-1.71-36.48-.46,9.4-.88,18.79-1.07,28.2l-1.36-.06c-.33-9.39-.71-18.79-1.32-28.18-.48,10.31-1.19,20.62-1.77,30.93-.45-9.39-.86-18.79-1-28.2l-1.36.06c-.34,9.39-.75,18.79-1.37,28.19-.62-10.31-.91-20.61-1.32-30.92-1.5,8.49-2.52,17-5.44,25.42-1.07-11.44-1.7-22.89-2.34-34.34-.62,11.81-1.08,23.6-1.83,35.39-.73-10.31-1.12-20.64-1.91-30.95-.62,10.31-.89,20.65-1.46,31-.64-2.87-1.24-5.74-1.83-8.6-.4,1.28-.79,2.57-1.17,3.86l-7.47.6c-.17,7.64-.31,15.28-.53,22.93Q-891-45.23-893-53.94q-.81,9.25-1.7,18.53c-.57-10.66-.79-21.33-1.36-32C-899-51.27-899.19-35-899.78-18.8c-.91-8.16-1.79-16.3-2.87-24.42-1.38,7-2.22,14-3.28,21-.44-15.49-.68-31-3.44-46.42-.61,15.88-.57,31.75-1.72,47.62-.86-17.72-.48-35.43-1.82-53.14-5.47,20.5-1.13,41.38-3.27,62-1-4.79-1.81-9.59-2.71-14.35-1.26,8.81-2.31,17.61-3.19,26.45-.67-17-1.28-34-3.48-50.89-.8,6.62-1.52,13.24-2.3,19.87-1.08-24,.58-48-1.58-71.94-.88,28.5-1.3,57-3.79,85.47a123.26,123.26,0,0,1-6.28-13.12q.39,8.75.79,17.51l-5.69-1.66c-.81,3.82-1.58,7.64-2.4,11.47l-3.13-6.38c-1.39,4.68-2.49,9.38-3.5,14.11-1-7.69-2-15.36-3.27-23l-2,17.58c-1-10.65-1.85-21.29-3.73-31.89-.64,8.78-1.1,17.57-1.74,26.35-.7-8.51-1.18-17-1.93-25.51-4.06,7.94-7.62,16-11.18,24-1.33-1.56-2.66-3.12-4-4.66l-.78,4.7c-1.81-5.82-3.56-11.61-5.61-17.38-.87,3.7-1.69,7.32-2.48,11-.46-5.12-.82-10.24-1.21-15.35L-993-22.27c-1.78-4-3.46-8-5.29-12-.63,3-1.87,9.08-2.5,12.11-.52-3-1.55-9.08-2.06-12.11-1.36,5.84-2.33,11.7-3.39,17.56-1.12-4.73-2.22-9.47-3.42-14.19-.59,4.4-1.75,13.21-2.33,17.61-.49-7.32-.79-14.64-1.17-22-1.81,11.37-4.16,22.73-5.88,34.11-1-7.7-1.87-15.4-3.4-23.06-.83,7-1.43,13.9-2.13,20.87-1-8.85-1.83-17.71-3.41-26.53-.86,8.48-1.44,17-2.19,25.44-.64-11.46-1.08-22.91-2.69-34.33q-1.48,11.61-2.75,23.25c-.82-11-1.26-22.05-3.6-33-.68,11.72-1,23.44-1.53,35.15-1.66-12.11-3-24.24-4.11-36.38-.57,15.11-.7,30.21-1.62,45.3-3.2-17.64-2.52-35.4-3.89-53.11-.88,14.57-.67,29.15-.63,43.72h-3.6c.09-14.95,0-29.91-1.18-44.85-1.09,18.4.52,36.91-3.64,55.2-1-19.13-.29-38.29-1.92-57.4-1,18.44-.3,36.91-1.63,55.35-3.66-23.56-2-47.24-3.66-70.86-1.14,23.62-1.21,47.26-4,70.84-.75-18.45-.13-36.91-1.67-55.34-.84,14.2-.73,28.42-.68,42.62h-3.73c.09-20.48.62-41-1-61.46-1,19.6-.11,39.22-2.12,58.81-2.67-11.39-2.4-22.94-3.3-34.4-.53,12.22-1,24.45-2.89,36.63-2.58-22.35-1.41-44.75-1.43-67.13h-2c.15,18.62.44,37.26-.81,55.89-4.64-21.66-1.74-43.56-3.71-65.31-1.08,18.1-.61,36.26-4,54.26-1.47-25.46.62-51-1.67-76.42-1.11,25.46-1.39,51-3.81,76.4-.75-18.08-.29-36.19-1.57-54.27-2.2,15.1-2.79,30.27-3.85,45.42-.68-15.84-.68-31.68-1.28-47.51q-2.34,17.61-4.27,35.25c-.78-18.62-.65-37.24-.49-55.86h-2c-.11,17.46,1.48,35.1-3.09,52.43-1.25-22.08.2-44.2-1.36-66.27-2.84,16.92-3,33.93-4,50.91-.93-19.56-.31-39.14-1.61-58.7-3,28.58-2.91,57.22-2.64,85.84h-2c-.88-26.69,2.8-53.56-2.84-80.13-1.92,28.36.68,56.76-1.87,85.1-.71-16.26-.2-32.57-3.27-48.76-2,22.88-.24,45.82-2.09,68.7-2.24-32.1.62-64.26-1.74-96.35-5.73,28.05-.73,56.27-3.8,84.27-.83-17.73,0-35.52-3.08-53.18-3.2,28.4.3,56.9-2.52,85.32-2.7-40.42,2.07-80.93-2.51-121.3a157.08,157.08,0,0,0-2.11,24.38c.48,36.93.22,73.85.35,110.78h-2c-.36-29.74,1.89-59.54-2.85-89.19-.86,17.35-1.17,34.72-3.7,52-.72-8.83-1.12-17.68-1.87-26.5-2.51,21,3.68,42.61-5.27,63.16-.75-8.5-1.23-17-1.78-25.5-.38,4.35-.78,8.72-1.15,13.08l-3.33-5.05V-2.32q-1.77-2-3.57-3.9c-.57,2.19-1.69,6.58-2.26,8.77-1-3.25-1.84-6.63-2.7-9.86-1.71,3.56-3.41,7.13-5.13,10.7-3.08-.73-6.16-1.46-9.23-2.17-2.55,3.29-5.2,6.55-8.08,9.75-1.9-4.27-3.77-8.53-5.65-12.79l-2.84-.39c-5.75,3.92-12.16,7.56-16.26,12.26l-6.49.47c.17.41.32.83.45,1.25h7.84c.46,3,1.37,9,1.83,12,3.91-3.72,6.48-7.85,9.13-11.94,2.56,3.82,5.2,7.62,8,11.38,1.19-1.58,3.56-4.72,4.74-6.3,1,3.89,2,7.8,3.06,11.7,1-1.68,2-3.34,3-5,.29,1.86.89,5.58,1.2,7.44,1-3.73,2-7.48,3.26-11.19,2.6-2.14,4.91-4.5,7.22-6.72,1.7,4.21,3.07,8.78,9,11.6.44,1.47,1.3,4.43,1.74,5.91,1.16-1.19,2.29-2.39,3.44-3.59.28,6.9.52,13.78.85,20.67.65-6.25,1.26-12.51,1.94-18.75q.84,6.56,1.61,13.13c.64-3,1.94-9,2.58-11.95.37,10.84.31,21.69.41,32.55h1.61c.09-13.1.27-26.21,1.11-39.29,3.42,28.11,1.17,56.31,4.6,84.42,3.18-18.48,1.17-37.1,2.78-55.63,1.41,19.93-.86,40,3.37,59.83,2.54-25.46-.25-51,2.19-76.45,2.2,28.84-1.24,57.76,2.37,86.58,5.22-28-.39-56.29,3.22-84.35,2.09,44.29-.93,88.6,1.52,132.89,7.09-42.3-.37-85,3.88-127.36,3.44,39-3.54,78.35,3.88,117.24,1.8-36.48-1.13-73,1.63-109.48,1.89,28.57-.51,57.18,1.52,85.75,1.63,21.62.28,43.28,2.18,64.9,2.36-51.32-1.32-102.67,1.87-154,1.7,25.62-.46,51.27,1.45,76.88,1.81,23.46.14,47,2,70.44,2.56-45-1.1-90.1,1.94-135.12,3.66,46.49,1.39,93,3.57,139.55,2.34-43.17-.72-86.37,1.61-129.53,6.77,34.15,0,68.67,4,102.94,2-38.76-.88-77.55,1.5-116.29,5.58,49.78.71,99.7,3.82,149.52,2.6-46.91-1.22-93.86,2-140.76,6.17,26.78-.07,54,3.47,80.94,2-26.61-.54-53.25,2-79.84,3,8.57,2.54,17.39,2.74,26.12-.11,22.34-1,44.69.81,67,2.51-28.57-1.56-57.24,2.67-85.76,1.5,5.63,2.16,11.29,3.19,17,.6-7,1.15-14,1.85-20.95,3.15,18.21,2.34,36.56,2.21,54.84h1.83c-.39-28.63,1.25-57.23,3.09-85.82.7,14.75.65,29.5,1.76,44.25.52-13.31.53-26.65,3.13-39.89,2.11,21.41.39,42.87,2.4,64.28,1.16-20.29.13-40.61,1.59-60.89,1,11.75,1.2,23.56,4,35.24.56-14.35.6-28.7,1.44-43,1.67,13.24,2.9,26.5,3.43,39.77,1.24-8.75,2.37-17.51,4.06-26.24.62,6.18,1.21,12.38,1.81,18.57,1-9.9,1.71-19.81,3.66-29.66.68,9.87,1.12,19.77,1.87,29.65.72-8.83,1.08-17.68,1.78-26.5.66,6.59,1.19,13.19,1.85,19.8,1.2-8.39,2.32-16.79,3.27-25.2,1.28,5.82,2.55,11.66,3.92,17.49.64-6.26,1.19-12.52,1.81-18.76.55,2.87,1.12,5.75,1.65,8.64,1.23-5.11,2.38-10.19,3.7-15.29.82,11.44,1.3,22.89,2.2,34.34,2.43-11.38,2.74-22.86,3.6-34.31.55,8.09,1,16.18,1.58,24.28,1-8.27,1.92-16.52,3.22-24.75,1.89,12.63,1.74,25.33,2.09,38,1.15-11.4,2.23-22.8,3.91-34.17q.87,11.52,1.73,23.1c1.22-6.23,2.25-12.44,3.73-18.63.75,9.9,1.19,19.82,1.83,29.73.94-8.85,1.87-17.7,3.33-26.52.94,8.49,1.74,17,2.66,25.47,2.51-8.75,2.46-17.67,3.26-26.51,1.08,6.23,2.16,12.45,3.57,18.66.77-8.81,1.23-17.64,1.79-26.45,1.26,6.59,2.18,13.22,3.83,19.79.86-9.18,1.15-18.38,1.77-27.56.94,10,1.36,20,3.61,29.83,1.06-11,1.23-22.12,1.89-33.16,1.06,14,2.27,28,3.93,42,.61-10.69.92-21.39,1.65-32.07,1.87,12.52,3,25.06,3.77,37.62.53-13.26.68-26.55,3-39.73.95,8,1.72,16.12,2.52,24.2.79-11.38.92-22.81,3.69-34.1.47,8.76,1,17.53,1.37,26.31q1.4-11.79,3.15-23.55c1.09,5.25,1.79,10.5,2.69,15.77,1.26-3.22,2.49-6.54,3.79-9.72q.69,6.52,1.37,13.08c.64-1.91,1.92-5.71,2.55-7.62q3.63,8.73,7.15,17.5c1.62-8.77,2.68-17.56,3.51-26.37.56,4.75,1,9.48,1.55,14.26,1.06-7,2-13.93,3.35-20.85.82,6.22,1.65,12.46,2.44,18.71,1.48-7.67,2.67-15.35,3.82-23q1.44,26,4.84,51.86c1.61,17.33.95,34.7,2.38,52C-928,93-924.1,67.55-918.49,42.2c.76,3.67,1.39,7.26,2.14,11q.9-8.79,1.89-17.55c.73,14,1.68,28,3.57,42,.69-15.1.78-30.2,1.53-45.31,6.23,22.32,6.81,45,7.62,67.52.83-13.29,1.15-26.64,5-39.78.75,7.68,1.39,15.37,2,23.07,1-8.8,2-17.59,3.6-26.35C-890,70.4-889.8,84-889.07,97.63c2.16-15.08,3.08-30.21,4-45.33.6,16.22.58,32.45,1.55,48.68.92-9.37,1.52-18.76,2.82-28.11,1.25,6.74,1.87,13.5,2.84,20.27,1.36-5.83,2.62-11.66,4-17.48.32,16.94.2,33.9,1.51,50.83,1.27-21.43.13-42.87,1.63-64.3,2.81,8,4.16,16,5.64,24.1.55-1.81,1.69-5.41,2.24-7.21.38,3.25,1.13,9.77,1.5,13,.71-10.32,1.43-20.62,2.73-30.92,1,5.84,1.83,11.7,2.69,17.57.51-4.39,1.54-13.18,2.07-17.57.55,9.2.91,18.4,1.46,27.6,1.3-13.66,3.34-27.27,5.77-40.88,1.92,9.9,3,19.85,4.85,29.76a104.88,104.88,0,0,0,6-28.55c1.23,4.63,2.45,9.28,3.68,13.92,1-7.63,1.74-15.25,3.31-22.84.79,6.58,1.48,13.17,2.29,19.77.57-8.47,1-16.94,1.67-25.39.66,6.61,1.24,13.24,1.92,19.88,1.52-4.32,2.82-8.69,4.07-13,1.44,11.71,2.32,23.43,3.42,35.15.53-14,.51-28.07,2.62-42,.58,4.42,1.79,13.24,2.38,17.64,2.82-7.75,5.44-15.55,9.46-23.12,1.85,4.71,3.63,9.42,5.4,14.15,1.17-4.31,2.31-8.62,3.61-12.91,1.47,3.89,2.69,7.78,4,11.71.15-1.48.48-4.45.63-5.94,1.74,1.09,3.46,2.19,5.2,3.3,1.15-3.41,2.29-6.87,3.51-10.25,1.81,8.77,2.44,17.59,3.5,26.41.6-8.83,1.08-17.67,1.85-26.48.64,14.73.57,29.46,1.44,44.2,1.95-9.2,3.28-18.44,5.44-27.6,3.52,17.26,2.69,34.68,3.78,52,.89-14.76.78-29.57,3.7-44.25,5,26.81,1.37,53.83,3.31,80.73,5.12-23.85,1.74-47.94,4.07-71.89,1.28,17.14,1.93,34.3,4.77,51.38,1.45-9,1.63-18,2.26-26.93.56,1.88,1.68,5.66,2.23,7.55.73-3.22,1.17-6.63,2-9.77.58,5.11,1.08,10.21,1.66,15.35.74-8.52,1.45-17,2.46-25.53,2.44,16.23,2,32.55,2.87,48.83.7-11.79,1.15-23.59,1.78-35.36a340,340,0,0,0,5.82,34.12c.48-22.5,1.46-45,5.62-67.4.66,19.56.13,39.12,1.47,58.67,1.26-12.24-1.36-25.23,7.14-36.71q1.15,11.67,2.09,23.36c2.65-15.42,2.72-31,3.77-46.42.64,14,.73,28,1.24,42.05.77-2.9,1.54-5.79,2.29-8.68.57,3,1.67,8.95,2.22,11.93.82-22.86-.28-45.73,1.28-68.57,1.26,16.62,1.87,33.28,5.47,49.8,1.15-12.87,1.08-25.78,1.63-38.65,1.08,10.23,1.94,20.52,4,30.71,1.94-15.79,2.69-31.62,3.72-47.43,2.38,15.11,2.74,30.28,3.9,45.43,1.59-8.82,2.54-17.69,3.73-26.52,2.33,14.31,3.41,28.7,5.31,43,1.12-22.47-.77-45,3.42-67.4,1,18.79.59,37.6,1.87,56.4.46-9.89.77-19.78,1-29.67l3.2,6.08c.48-5,.94-10.07,1.47-15.09,1.41,6.16,2.54,12.33,3.77,18.52.73-8.42,1.42-16.84,2.71-25.23q1.29,11.59,2.51,23.21c2.43-11.76,4.37-23.53,5.62-35.35.6,14,1.26,28,3.39,41.92,1.5-13.23,2.69-26.48,3.89-39.72,1,10.7,1.56,21.44,3.65,32.09,1.17-12.91,2.21-25.82,3.72-38.72.8,12.1,1.09,24.23,3.4,36.28,1-7.34,2-14.67,3.41-22a95.19,95.19,0,0,1,4.24,15.38c.93-6.23,1.78-12.45,3.21-18.63,1.48,7.32,2.67,14.67,3.84,22,1.12-6.93,2.24-13.83,3.7-20.71.84,5.09,1.71,10.16,2.67,15.27a225,225,0,0,0,5.44-23.2c.92,6.6,1.67,13.19,2.46,19.81,2.3-3.5,4.39-7.08,6.55-10.62.62,3.64,1.14,7.13,1.91,10.81,1.85-8.15,3.71-16.28,5.16-24.46.31,10.77.77,21.53,1.68,32.29,2.93-7.32,4.07-14.86,5.93-22.29,1.28,3.24,2.53,6.45,3.89,9.71,1.17-6.56,2-13.14,2.89-19.7,1.1,8.46,2.2,16.91,3.51,25.35,1.08-7,2.06-14,3.3-21,1.23,4.38,2.38,8.76,3.59,13.15,1.35-2.89,2.77-5.77,4.19-8.64,1.63,3.92,2.91,7.87,4.27,11.83,1.81-6.82,3.48-13.66,5.11-20.49.82,5.14,1.56,10.27,2.42,15.43,2.36-5.81,3.48-11.78,5-17.68.78,6.53,1.57,13.09,2.65,19.63,1.61-3.94,3-7.91,4.34-11.87,1.24,4.72,2.45,9.45,4,14.14,1.48-5.44,2.36-11,3.51-16.41,1.89,11.3,4.23,22.58,6.83,33.84,2,17.25,1,34.55,1,51.84h1.78c.07-13.11.29-26.2,1.23-39.28.75,12.53,1,25.08,2,37.61.51-15.5.07-31,3-46.46,1.92,16.17,3,32.36,3.62,48.57,1.32-8,2.49-16,4.34-24,.81,15.45.4,31,3.63,46.36.91-22.91,1.83-45.79,3.55-68.67.88,16.94.73,33.9,1.59,50.85.55-9.57,1.41-19.11,1.92-28.67.45,4.4,1.34,13.22,1.8,17.63q1.1-4.38,2.2-8.7c.89,7.51,1.84,15,3.05,22.53,2.27-7.08,3-14.3,4.34-21.44.68,3.65,1.12,7.2,1.78,10.89.51-6.6.93-13.2,1.43-19.79q1.14,11.52,2.32,23.12c.57-12.9.66-25.81,1.46-38.68.37,3.44.54,6.82.86,10.3l3.69-1.91c.2,10.83.34,21.7,2.43,32.48,1-12.2,1.56-24.42,2.88-36.61,2.21,9.57,2.27,19.24,3.33,28.87.53-16.61,1.26-33.22,3.52-49.78,1.51,5.44,2.63,10.89,4,16.36.09-2.14.25-6.39.35-8.52l2.63,3.55c2.44-4.55,4.85-9.1,7.27-13.64,4.23,14.6,2.89,29.54,4,44.29,1.67-6.57,2.73-13.2,4-19.8.51,7,1,13.94,1.55,20.92,2.84-18.08,2.18-36.34,6.93-54.31,2.7,8.06,4.17,16.25,6.06,24.4,3.64-8,6-16.25,8.78-24.38,1,11.81,1.7,23.66,3.55,35.45,3.67-16.18,7.11-32.37,7.86-48.7,2.54,9.35,3.29,18.84,4.56,28.28l4.37-.21a148.76,148.76,0,0,1,4.12-15.16c6.45,14,3,28.66,6.3,42.93,1.67,8.29,3.39,16.57,4.4,24.91.42-13.25.71-26.5,1.68-39.74.88,18.81,1.15,37.64,3.7,56.4,1.37-22.5-.44-45,1.94-67.5,3.64,14.27,2.2,28.78,3.51,43.16,1.75-8,2.68-16.15,4-24.22.69,22.48-.41,45,1.52,67.47,1.7-25.45-.42-50.94,1.48-76.38,2.89,28.76,2.25,57.57,4,86.35,2.12-38-.73-76,1.5-114,5.07,39.8,1.06,79.73,4.07,119.56,2.1-40.6-1-81.24,1.57-121.84,1.81,28.79,2.2,57.6,3.81,86.38,1.79-22.49-1.36-45.13,3.3-67.51,3.07,37.62-.9,75.31,2.3,112.94,2.78-32.1-2.69-64.35,3.13-96.35,2.41,26.73.7,53.52,1.1,80.28h2c-.94-36.76.88-73.49,2.89-110.22,1.63,43.39.22,86.79.62,130.18h1.8c1-36.36,1.66-72.72,3.07-109.08,2,31-.69,62,1.6,93,6.95-45.64-.41-91.6,3.89-137.33,2.22,43.93-1.05,87.89,1.71,131.81,5.15-39.07.73-78.29,3.66-117.4,2.44,37.64-1,75.32,1.94,113,3.15-10.78,2.55-21.77,2.73-32.65-.25-24-.29-48-.25-72h1.86c-.18,16-.75,32.14,2.48,48.1,1.9-21,.6-42.07,2.28-63.08,2.47,34.37-1.48,68.81,2.35,103.15,4.74-30.24.12-60.65,3-90.95,1.06,18.46.8,37,3.89,55.35.85-19.19.3-38.39,1.62-57.57,1.19,18.43,2.23,36.88,3.72,55.3,1.2-20.65.38-41.32,1.62-62,1.45,9.2,2.58,18.41,3.9,27.6.55-9.54,1-19.09,1.71-28.63,1.61,14,2.76,28,3.92,42,.6-10.69.86-21.38,1.52-32,1,12.48,2,25,3.82,37.43.56-6.2,1.07-12.37,1.61-18.54.72,4.43,2.15,13.28,2.88,17.72,2-12.9,2-25.88,2.84-38.81.64,11.43,1.06,22.9,3.24,34.28.79-7,1.28-13.93,1.83-20.88,1.13,5.08,2.29,10.18,3.55,15.27l4.5-7.44c.77,7.64,1.41,15.31,2.57,22.95.33-2.79,1-8.35,1.29-11.13l3.5,1.32c.65-1.39,1.32-2.79,2-4.17.44,6.52.84,13,1.36,19.59,1.46-8.83,2.6-17.69,3.82-26.53,1,4.28,1.85,8.54,2.66,12.85,1.26-1.22,2.54-2.44,3.82-3.66,1,5.37,1.5,10.76,2.31,16.16,1-3,1.94-5.94,3-8.91,1.24,3.33,2,6.53,3.32,9.91.14-5.44.18-10.9.34-16.33,1,1.72,2,3.43,3.12,5.17,1.35-7.25,2.25-14.56,3.36-21.81.7,5.48,1.25,10.93,2,16.43,1.72-6.91,2.56-13.87,3.62-20.81q.69,11.55,1.58,23.13c1.24-12.53,2.42-25.06,3.42-37.59,1.17,5.5,2.2,11,3.46,16.48,1-4.8,2-9.59,3.09-14.37,1.58,7.71,2.06,15.49,3,23.24.46-8.08.88-16.14,1.39-24.2,1.76,8.78,3.06,17.59,4.2,26.42.51-8.81.68-17.62,1.21-26.42,1.5,8,2.87,16.08,4.21,24.13.44-11.39.75-22.77,1.41-34.14q2.46,13.76,4,27.56c.47-9.94.84-19.87,1.39-29.8,1.1,7.33,2,14.69,3.44,22,.82-8.1,1.54-16.19,2.31-24.27,1.19,9.16,2.36,18.32,3.92,27.47.53-8.79.87-17.57,1.46-26.35,1.28,8.78,2.34,17.56,3.85,26.33.54-8,1-16.08,1.64-24.1,1.34,8,2.4,16.12,3.68,24.17q1.08-8.79,2.31-17.52c1.37,6.53,2.16,13.09,3.13,19.66,1-3,2.57-5.74,3.75-8.65.24,3,.74,9,1,12.06,1.15-1.72,2.3-3.44,3.49-5.16-.11,3.07-.33,9.22-.42,12.29q2.13-.93,4.29-1.83c.21,3,.47,6.12.77,9.17,1-4.89,1.9-9.81,3-14.68.85,4.79,1.31,9.58,1.8,14.41,1.15-1.25,2.31-2.51,3.5-3.76a616,616,0,0,0,2.82,71.62c.93-18.8.43-37.63,1.92-56.41,1.45,22.12-.17,44.27,1.46,66.39,2.28-25.06,2.38-50.18,4-75.25,1.56,41.9.18,83.82.59,125.73h1.79c-.13-32.12,2.89-64.21,1.89-96.34h1.84c.49,33.41-1.28,66.84,1,100.24,1.21-32.86.64-65.74,3.76-98.57,1.61,35.62.25,71.26.62,106.89h2c-.18-18.64-.38-37.29.75-55.91.85,5.13,1.43,10.24,2.2,15.4.84-9.18,1.48-18.38,2.69-27.54,1.32,7.68,2.53,15.41,4,23.11q1.32-8.79,2.53-17.53c.7,14.9.66,29.83.6,44.75H-88c-.25-24.93,1.23-49.85,3-74.74.69,15.49.75,31,1.7,46.5,5.36-27.59.88-55.41,3.7-83.08,1.76,28.24.42,56.49.77,84.73h1.92c-.57-33.43,1.13-66.83,3-100.24,1.74,27-.61,53.93,1.79,80.86,1-34.7.79-69.41,3.48-104.08,1,15.08,1,30.17,1.59,45.27,1.71-13.24,3-26.49,4-39.74.72,8.5,1.38,17,2.37,25.5,2.39-9.87,1.86-19.89,2.56-29.81l2.21,6.32q1.38-3.75,2.84-7.44c1.24,8,2,16.11,3,24.17,1.39-8.81,2.49-17.66,3.75-26.48.55,7.34.84,14.67,1.37,22,1.06-7.68,1.89-15.37,3.37-23,.35,1.78,1,5.36,1.39,7.15,1.6-2.06,3.24-4.1,4.95-6.12.44,8.44.78,16.88,1.28,25.32,3.44-11.31,6.46-22.69,7.76-34.19,1,7.74,2,15.48,3.33,23.2,2-2.91,3.23-6.07,5.48-8.9,2.47,6.88,3,13.92,3.83,20.93.51-3,1.5-9,2-12,.42,4.76.66,9.5,1.06,14.28.72-1.73,1.43-3.46,2.17-5.18,1.39,3.17,2.8,6.34,4.26,9.51.26-5.07.39-10.14.62-15.18C-1.26,59,1.25,64.36,6,69.12c2-3.54,3.14-7.25,4.57-10.87.92,5.73,2,11.43,3.23,17.15q.9-9.27,1.81-18.5c.64,11.4,1.08,22.82,1.83,34.23,1.37-9.92,2.45-19.85,3.53-29.78L23.64,79C25.2,71.65,26,64.23,27.16,56.86,29.33,71.2,29.41,85.6,30.51,100c.6-14.39.67-28.78,1.46-43.16.5,3.24.44,6.33,1.08,9.63,1.23-1.26,2.45-2.53,3.72-3.8.36,34.24-1.54,68.5,1,102.71,2.51-39.29-2.6-78.73,4.6-117.9a184.52,184.52,0,0,1,1.69,25.19c-.49,42.47-.16,84.94-.33,127.4h2c.42-50-1.15-100,.71-150,.7,9.56,1.49,19.13,2.15,28.71.64-10.33,1.1-20.65,2-31,1.5,25.45-.64,51,1.78,76.4.9-14.72.6-29.45,1-44.17,1,2.44,2,4.92,3.07,7.42.24-11.37.42-22.74,1.09-34.08.47,9.6,1.26,19.2,2,28.81,4-6.36,4.65-13.19,6.17-19.85.27,28.19,0,56.38,0,84.59h2c.1-22.16-.11-44.32-.24-66.46.11-12.72-.12-25.65,5.33-38,.73,21.7-.23,43.4,1,65.09,1.45-19.56,4.27-39.07,6.08-58.62,2.58,11.71,2.56,23.55,3.2,35.35q1.13-14.45,3-28.83c1.39,8.85,2,17.73,2.82,26.62,1-11.8,2.26-23.6,5-35.31,1.13,11,1.66,22.06,4.26,33,1-14-.55-28.18,5.13-41.84,1,15.08,1,30.18,1.76,45.28,1-14.38,2-28.75,4.06-43.08.53,7,.83,13.93,1.34,20.91.49-3,1.48-9,2-12,.58,1.86,1.75,5.6,2.34,7.47.64-5.47,1.12-11,1.79-16.42,2.09,14.71,2.53,29.48,3.34,44.24.69-14.45,1-28.95,4.86-43.26,1.12,11.47,1.75,23,2.55,34.43,1.15-11.15,1.61-22.53,7.18-33.27q1,9.42,1.94,18.84c.75-6.62,1.44-13.25,2.32-19.86,1.71,9.9,2.34,19.86,3.37,29.8.46-11.79.77-23.58,1.43-35.35.81,3.66,1.26,7.27,2.14,11,.75-3.62,1.17-7.32,2-10.9.44,15.07.5,30.16,1.29,45.24,1.35-20.27,3.16-40.53,5.74-60.75q1.5,19.33,3.78,38.65a199.68,199.68,0,0,0,3.33-26.47L164,39.94c.64-2.9,1.28-5.79,1.95-8.66.64,3.66.91,7.23,1.62,10.93.86-3.25,1.1-6.66,2.18-9.84.38,8.07.7,16.13,1.06,24.2,1.56-7.07,2.33-14.28,6.19-21.08,2.93,8.35,2.29,16.93,2.93,25.42,1.48-8.16,1.54-16.57,6.21-24.37,1,1.64,3.13,4.93,4.15,6.57.08-5,0-10,.11-15,1.89,4.7,3.8,9.45,5.92,14.14.89-3.34,2.67-10,3.57-13.33,1.39,9.22,1.72,18.47,2.51,27.72.78-11.46.86-23,5.14-34.26.79,8.47,1.39,16.93,2,25.42,2-8.78,4.12-17.53,5.84-26.32q1.11,9.43,2.42,18.87a85.15,85.15,0,0,0,5.55-13.36c-.2,2.63-.37,5.26-.5,7.91q2.13-1,4.29-1.93c.27,2,.84,6.08,1.11,8.1.59-5.47.81-11,1.28-16.42,1.16,3.74,2,7.46,3.08,11.23a80.31,80.31,0,0,0,5.6-12.14q-.36,8.49-.53,17,1.32-1.59,2.64-3.12c1.08,1,2.16,2,3.28,3,.14-5.31.2-10.63.42-15.91.29,1.67.86,5,1.13,6.7,1.26-.55,2.54-1.11,3.86-1.66.24,3,.54,6,.85,9.07q.9-8.73,1.74-17.47,1.29,8.93,2.69,17.88a91.92,91.92,0,0,0,5.74-11,277.47,277.47,0,0,0,3.91,52.91c1.26-13.29,1.64-26.59,2.25-39.89,4.45,19.8,4.94,39.78,5.78,59.72.7-13.46.81-26.92.83-40.37l1.81-.06c.11,24.12-.23,48.25-.07,72.37l3.66-6.15c-.07,15.41-.11,30.83,1,46.23,4.38-30.2,1.45-60.52,3.41-90.77,1.94,16.2,3.11,32.41,3.75,48.65.78-6.26,1.54-12.51,2.39-18.73.5,18.06.13,36.14,1.5,54.2,1.12-22.14,2-44.29,3.32-66.41.75,4.35,1.5,8.73,2.29,13.1q.69-17.1,1.66-34.18c3.89,27.81,2.4,55.73,2.55,83.61h2c1-27.12-3.42-54.52,4.19-81.4.87,8.45,1.62,16.93,2.35,25.41,1-11.8,1.79-23.61,3.86-35.38.72,18.46.11,36.92,1.59,55.36,1-19.55.3-39.13,1.8-58.67.75,9.2,1,18.41,1.66,27.64,1.32-8,2.7-16,4.52-24l3.7,3.68c.39-10.91.94-21.84,3.19-32.67,1.45,25.77-.81,51.58,1.69,77.35,1.83-29.51-.57-59.07,1.42-88.59,1.12,8.49,2,17,3.39,25.46q1.5-6.63,3-13.24C340,51,340.5,58.77,341.56,66.51c.5-6.23,1-12.44,1.54-18.65,1.52,9.51,2.66,19,4,28.56.35-14.35.17-28.77,3.24-43,.94,10.63,1.12,21.27,1.65,31.92,6.26-10.9,6.48-22.5,7.53-33.88.33,1.25.64,2.53,1,3.8,2.54.23,5.13.4,7.69.64v7.23C370.59,37.56,373,32,376,26.54c1.59,4,2.91,8,4.32,12.07.15-1.82.46-5.46.6-7.27,1,1.7,2,3.41,3.08,5.12.34-1.88,1.08-5.61,1.43-7.48.42,2.87.86,5.75,1.29,8.64.46-1.54,1.36-4.62,1.82-6.16.71,1.51,2.16,4.51,2.89,6,.31-4.68.68-9.36,1.08-14,.68,4.39,1.37,8.77,2.11,13.18.53-3.63.71-7.33,1.41-10.93,4.12,12,7.12,24.13,7.87,36.43,0-9.58,1.06-19.13,1.19-28.68,1.25,15.11,3.37,30.22,6,45.27.54-10,1.14-20,2.18-29.91,3.7,18.74,1.6,37.7,2.82,56.54,1.21-9.94,2.36-19.88,3.88-29.8,1.23,7.66,2.44,15.34,3.54,23,1.15-8.09,2.17-16.16,4-24.19,1,17.13,0,34.37,4.56,51.35,3.55-13.29,3.64-26.78,4-40.19.62,3,1.85,9,2.47,12,.73-5.12,1.28-10.25,2-15.35.61,17.51.46,35,.37,52.55h2c0-22.32-.53-44.65.59-67,1.7,13.62,4.36,27.2,5.91,40.82.18-19.57,3.61-39,5.75-58.53.56,13.52.82,27,2.12,40.56,1.12-1.18,2.24-2.35,3.39-3.52q1,2.34,2,4.71c.24-8.77.7-17.52,1.1-26.26.57,9.56,1.45,19.11,2.09,28.68,2.6-15.8,2.67-31.69,3.53-47.54,1,11.81,1.41,23.68,4,35.43,3.5-16.53,2.06-33.24,3.45-49.84.49,8.84,1.19,17.67,1.74,26.51.33-9.57,1.42-19.12,1.88-28.7,1.54,22.51,0,45,1.78,67.53,4-21.5,2.51-43.17,2.62-64.77l1.79-.07c.06,20.18-.15,40.45,4.83,60.44,1.12-17.34.79-34.71,3.54-52,4.7,18.48,1.1,37.25,4.81,55.78,4-25.56-.22-51.27,2.37-76.88.67,9.56,1.44,19.11,2.1,28.69.73-7,1.34-14,2.09-21,.51,16.62.36,33.25,1.55,49.87Z"/><line class="cls-4" x1="-1241.34" y1="120.71" x2="580.66" y2="120.71"/><path d="M508.06-29.55a77.58,77.58,0,0,1-2.23,12.83c-2.72-22.8-2.23-45.61-3.64-68.5-1.08,25.48-.19,51-1.66,76.41-1-18-2.55-34.57-7.49-51.92-.53,12.48-.87,25-1.23,37.45-2.73-16.93-5-33.72-6.2-50.82-.47,10.69-.77,21.4-1.21,32.09-1.32-2.87-3.32-5.87-4.34-8.69-.42,3.63-1.21,7.2-1.47,10.87-.6-3.25-1.9-6.63-2.21-9.83-.43,11.79-.92,23.55-1.63,35.33-.79-19.52-.7-39-1-58.57q-1.65,3.66-3.09,7.33c-.39-3.24-1.18-9.72-1.56-13-1,13.31-2.18,26.53-3.68,39.8-.22-8.21-.24-16.43-.3-24.63-1.37.59-2.71,1.19-4,1.8-.27-2-.82-6-1.09-8-.79,5.52-1.6,11-2.31,16.57-2.55-9-4-18.44-5.29-27.65-1.39,8.78-2.35,17.59-3.28,26.41-1.21-8.51-2.14-17-4.17-25.47-1.47,10.25-2.47,20.65-3.19,31-.54-13.26-1-26.52-1.54-39.78-.73,6.25-1.41,12.51-2.09,18.77-.27-3.24-1.22-6.59-1.21-9.78-.93,1.74-1.85,3.48-2.74,5.23-3.92-25.72-4-51.46-5.29-77.38-.87,26.27-.7,52.44-3.57,78.61-.6-11.81-1.21-23.6-1.94-35.39-.53,14.4-.73,28.82-2,43.19-2.09-15.49-2.65-30.92-3.44-46.52-1.26,28.93.35,57.65-3.85,86.39-.34-9.13-.36-18.27-.4-27.39-1.24,1.24-2.45,2.51-3.64,3.77-.44-1.82-1.32-5.43-1.76-7.24q-.12,17-.18,34c-.91-1.52-2.75-4.56-3.64-6.09,0,5,0,10,.18,14.94-1.25-1.28-2.49-2.57-3.7-3.84-.23,1.62-.44,3.23-.62,4.86-.55-1.11-1.08-2.22-1.58-3.34-3.48,2.52-6.77,5.13-10.6,7.46-1.83-6-2.45-12.17-3.42-18.24-3.11,8.4-4.6,17-6.81,25.46q-1-14.85-1.43-29.75c-1.54,7.44-2.24,15-5.16,22.34-2.66-6.95-4.77-14-6.7-21-.83,8.73-1.49,17.47-3,26.17q-.9-10.8-1.74-21.6c-1.81-1.08-3.61-2.19-5.37-3.29-1,5.3-1.83,10.59-2.65,15.9-.48-6.18-.92-12.34-1.38-18.51-.63,4.41-1.94,13.24-2.58,17.66-2.08-11-2.7-22.19-4.74-33.21-.7,12.55-1.19,25.09-1.81,37.64-8.36-18-5.47-34-7.63-53.18-.64,12.91-1.08,25.82-1.65,38.73-.79-8.47-1.36-17-2.11-25.41-.47,10.68-.91,21.36-1.5,32-.61-9.57-1.35-19.13-1.89-28.71-1.5,5.43-2.82,10.86-4.1,16.32-.82-13.25-1.91-26.37-3.33-39.57-.6,12-1.42,23.72-2.71,35.62-2.34-20.36-1.54-40.72-2.89-61.14-.65,16.6-.86,33.21-1.76,49.8-.77-9.19-1-18.41-1.48-27.61-1,6.41-2.14,12.81-3.22,19.21-2.45-24.85-1-49.72-2.42-74.62a334.36,334.36,0,0,0-3.41,37.53c-1.26-3.67-2.49-7.33-3.75-11q-1.17,11.64-2.31,23.26c-1.62-11-2.59-22.12-3.42-33.18-.78,6.24-1.52,12.48-2.27,18.73-.58-20.11-.42-40.19-.31-60.31h-2c-.29,39,.93,77.9-1,116.84-1.35-20.86-2.53-41.7-2.53-62.57,0-16.26-.3-31.89-3-48-.89,11-1.81,22-3.48,32.83q-1.14-7.08-2.2-14.14c-3.55,35.41-.55,71-4.74,106.34-1-10.31-1.59-20.68-2.09-31-.69,3.3-2,6.48-2.43,9.82-.54-7.33-1-14.67-1.45-22-1.3,20.82-5,41.23-7.49,61.92-.2-3.19-.57-6.41-.62-9.58-1.63-.06-3.24-.11-4.83-.18-1.19,4-2.24,8-3.43,12-.7-10.94-1.45-22.21-3.7-33-.77,10.24-1.47,20.69-3.4,30.79a231.48,231.48,0,0,1-4.27-24.24C236-19,235.44-11.63,234.83-4.23a103.19,103.19,0,0,1-5.76-13c-.86,3.74-2.37,7.34-3.12,11.12-2.82-8.89-3.32-18.83-4-28.07A271.75,271.75,0,0,1,218.69-.86c-3.48-10.15-3.42-21.74-4.15-32.33-2.51,8.68-2.16,17.52-2.6,26.3-2-2.86-3.87-5.71-5.88-8.53l-2.49,8.8c-1.28-8.82-2.33-17.65-3.42-26.47-.9,9.19-1.67,18.39-2.93,27.56q-2.55-12.12-4.65-24.24C190.21-19.67,188.71-9.3,187.2,1a254.11,254.11,0,0,0-3.07-32.82C182.72-24.08,183-16,178.51-8.56q-1.09-9.48-1.93-19c-1.21,6.62-2.34,13.26-3.81,19.86a162.92,162.92,0,0,1-3.56-23.14c-1.45,5.53-2.9,11.06-4.54,16.58-1.36-5.51-2.24-11.07-3.22-16.58-.55,7-1.09,13.94-1.67,20.92a138.71,138.71,0,0,1-5.42-30.92c-.9,8-1.54,16-2.82,24-1.58-3.92-3-7.8-4.56-11.69-1.19,3.57-2.62,7.09-3.68,10.68-1.23-6.15-2.4-12.31-3.64-18.46-.53,3.26-1,6.52-1.5,9.8-2.2-3.66-4.47-7.36-6.51-11-5.1,7.64-3.42,16.1-4.46,24.12-1.26-4-2.47-7.91-3.81-11.85q-1,7-2,14.13c-1.87-12.62-2.79-24.81-3.42-37.54-1.12,8.77-2,17.58-3.59,26.35-.42-3.24-1.23-9.71-1.63-13-1,2.43-1.85,4.88-2.69,7.33C109.52-36,109-44,108.27-52c-1.61,11.85-2.46,23.42-3.09,35.36-1-7.34-1.85-14.66-3.06-22-1.66,3.58-3.09,7.21-4.72,10.8-1.94-6.7-2.46-13.53-3.13-20.31H91.65Q91-36.34,90.29-24.47A333.52,333.52,0,0,0,86.7-58.59c-1.53,14.31-2.65,28.67-3.75,43C79.66-33.8,80.44-52.54,79.4-70.93a312.64,312.64,0,0,1-3.63,35.61C72.62-51.18,72.06-67.12,70-83.13c-.58,19.56-.55,39.13-1.56,58.68-.87-15.9-1.9-31.73-3.57-47.57-1,9.14-2.39,18.85-5.38,27.58-.88-7-1.54-14-2.25-20.94-.56,10.31-1,20.63-1.74,30.93-.79-9.21-1.16-18.42-1.87-27.62-.53,12.17-1,24.33-1.67,36.5C50.54-53.08,49.13-80.51,49.26-108h-1.9c0,24.21.5,48.34-1,72.52-2.1-10.08-2.88-20.65-3.55-30.92-.77,6.28-1.5,12.57-2.25,18.85-3.75-12.46-4.51-22.5-5-35.47-.5,9.58-1.26,19.14-1.76,28.72q-1.14-9.37-2.19-18.73c-.44,15.48-.81,31-1.56,46.43-.72-12-1.63-23.51-3.41-35.37-1,10.66-1.49,21.37-2.16,32.05-.61-17.73-1.65-34.71-5.14-52.12-6.38,12.84-5.14,27.16-5.92,41C12.78-52.48,12.08-63.8,11-75.15c-.79,1.46-1.56,2.92-2.31,4.4L5.2-72.38C5-64.53,4.84-56.67,4.58-48.82c-1.15-7-2.13-14-3.48-21Q-.05-58.23-1-46.63C-2-53.3-2.95-60-4-66.63c-1.59,9.23-1.92,18.5-2.84,27.75-.58-7-1-14-1.57-20.93-2,16-3.37,28.11-12.2,41.9-2-4.46-3.6-9-5.75-13.4-.8,7.82-1.61,15.63-2.36,23.46-.67-9.84-1.47-20-3.7-29.69-.44,5.45-.82,10.88-1.17,16.35L-38.67-25q-.48,9.66-1.06,19.34c-.65-11-1-22.1-1.7-33.15-.66,7-1.12,14-1.67,21-.62-3.24-1.74-6.64-2.13-9.85Q-46.1-21-46.89-14.46c-4-9.3-5.41-20.86-5.71-30.89-1.14,10.3-2.13,20.63-3.22,30.94-.81-2.94-1.56-5.86-2.28-8.79-.36,3.28-1.24,6.42-1.42,9.75-1.32-8.19-1.93-16.43-3.77-24.58-1.47,2.6-2.9,5.22-4.27,7.83C-70.37-47-71.79-63.84-74.23-80.65Q-75.37-71.38-76.49-62a387.9,387.9,0,0,1-2.4-48.19h-1.63c0,15.2-.49,29.88-2.75,44.92-1.15-9.23-1.5-18.5-2.3-27.73C-86-80.52-86.39-68-87-55.49-89.5-77.21-89.67-99-91.18-120.78c-2.75,13.86-2.56,28-3.4,42.07-.57-17.33-.82-34.66-1.49-52-1.71,16.18-3,32.35-3.91,48.6-1.27-26.18-.37-52.38-1.69-78.56-.79,6.62-1.46,13.24-2.18,19.87-.62-8.84-1-17.68-1.68-26.51-2.47,27.27-2.33,54.6-3.61,81.94q-2.08-26-3.53-51.95-1,17.1-1.93,34.21c-.68-9.94-1.16-19.89-1.77-29.84-.79,9.59-1.59,19.31-3.31,28.78-2.68-6.51-3.48-13.22-4.73-19.85-.35,25.46.09,50.9-.79,76.34q-1.33-6.6-2.54-13.18-1.44,18.18-3.06,36.36c-1.23-3.14-2.4-6.29-3.59-9.43-2.43,4.56-5.09,9-7.62,13.59-1.24,3.67-2.65,7.31-3.8,11l-3.68-7.1c-1.27,6.86-2.4,13.74-3.75,20.59-.56-8-1-16.08-1.62-24.12-1.52,7.66-2.64,15.34-3.88,23-.6-6.18-1.12-12.34-1.65-18.5q-2.25,7.61-4.14,15.25-.48-11.53-1-23.06c-1.32,5.49-2.46,11-3.85,16.46-.73-5.11-1.36-10.24-2-15.34-1.13,5.13-2.23,10.27-3.44,15.4-.62-4.43-1.89-13.28-2.51-17.71C-179.15-15-180-5.28-180.95,4.31c-.3-14.43-.53-28.89-2-43.26-1.65,8.84-2.42,17.73-3.37,26.62-.65-10.3-1.22-20.77-2.93-31-.85,9.57-1.71,19.15-2.35,28.74-.61-13.37-1.32-26.64-2.47-40-3,13.52-2.28,27.38-3.09,41.12-.77-11.62-1.75-22.8-3.59-34.31-.84,9.22-1.39,18.44-2,27.66-1.12-12.54-2.29-25.06-3.61-37.58-.66,6.6-1.23,13.19-1.85,19.79-1.46-6.51-2.67-13.06-3.88-19.6-.74,5.11-1.47,10.2-2.14,15.31-1.56-5.85-2.42-11.76-3.48-17.62-.51,9.18-.88,18.37-1.58,27.55-1.82-12.58-2.84-24.93-3.7-37.61-.49,12.61-1.09,25.13-2.09,37.71-2.66-14.46-2.43-29.2-2.26-43.84h-1.52c-.27,11.32-.73,22.54-1.47,33.84-2-7.9-2.29-15.91-3.13-23.86h-.95c-.25,9.41-.58,18.83-1.12,28.22a237.29,237.29,0,0,1-3.84-25.42c-.66,8.12-1.3,16.24-2.11,24.36-1.81-13.36-2.65-26.45-3.42-39.9-.57,10.7-1,21.4-1.71,32.09C-247.93-57.31-249-68-250-78.68c-.95,8.09-2.27,16.18-3.68,24.26-.71-3.28-1.63-6.69-2.34-9.9-.93,8.79-1.6,17.6-3,26.37l-2.55-23.12c-.19,16.83-.53,33.16-3.06,49.83-1.06-18.09-1.27-36.19-2.27-54.29-.79,21.88-.23,43.59-3,65.34-1.81-24.35-.83-48.73-2.41-73.09-.81,23-1.29,45.79-3.87,68.64-.9-25.85.09-51.68-1.68-77.49-.92,24.11-.33,48.05-3.7,72-.64-19.58-.59-39.16-1.61-58.72C-284.95-50.41-285.86-32-287-13.48c-.86-23.26-.4-46.52-1.74-69.76-1.28,25.47-2.07,50.95-3.81,76.4-.75-21.79-.42-43.57-1.72-65.35-2.25,13.93-2.89,28-3.84,42.07-.56-19.92-.5-39.85-1.47-59.77-2.53,24.18-2.86,48.23-2.69,72.52h-2c0-24,.88-47.63-2.09-71.47q-1.44,11.61-2.8,23.22c-.42-13-.94-25.86-1.88-38.82-4.47,28.79-.86,57.57-3.32,86.49-1.15-23.26-2.12-46.52-3.75-69.76-.76,21-.6,42.09-1.69,63.11-1.07-18.48-.28-37-3.7-55.3-.67,17-1,33.91-1.75,50.85-4-30.21-1.84-60.45-3.74-90.79-1.45,28.43-.16,56.87-1.72,85.29-3.77-29.57-1.87-59.41-3.67-89.41-1.88,37.66.35,75.34-2,113-1-48-1.84-96-3.64-144-2.39,41.78,2.06,83.53-3.4,125.15-1.39-23.62-.5-47.25-2.06-70.86-.79,19.54-.71,39.09-1.44,58.63-3.5-18.46-2.56-36.64-4-55.3-1.14,24.76-.06,49.38-3.56,74.08-2.06-46.5.49-93-2-139.51-1.32,29.32.11,58.71-1.45,88-1.25,23.43-.69,47-2,70.43-2-46.88.46-93.79-1.85-140.66-1.72,43.55-2.25,87.14-3.74,130.7-1.56-36.18.15-72.37-1.61-108.54-2.59,28.75-2.45,57.56-3.82,86.37-.78-19.19-.8-38.4-1.93-57.59-2.79,19.59-2.62,38.86-2.54,58.61-1.08-1.68-2.16-3.37-3.22-5-1.47,9.07-2.4,18.18-3.19,27.29-5.85-7.52-7.47-19.39-7.38-28.62-1.11,5.82-2.07,11.66-3.48,17.45-.78-3.61-1.72-7.31-2.36-10.9-1.33,8.45-2.44,16.92-3.61,25.38a212.88,212.88,0,0,1-3-24.13c-.27,1.37-.82,4.11-1.09,5.48-1.21-.48-2.4-1-3.57-1.46-1.25,6.35-2.81,12.68-4.58,19-2.34-14.79-5.16-29.48-7.89-44.21-2,13.48-4,24.71-8.61,37.53-1.56-5.88-2.91-11.78-4.45-17.65-2.32,7.68-3.81,15.42-5.53,23.16-1.46-12.53-2.29-24.89-3-37.49-.8,3.66-1.72,7.26-2.41,11-.3-15.33-.74-30-3.52-45.16-.44,12.46-.68,24.9-.89,37.36-1.47-3.26-2.86-6.51-4.33-9.75q-.75,9.36-1.48,18.7c-.57-2-1.68-5.83-2.25-7.78-1.43,2.54-2.79,5.11-4,7.7-.36-7.33-.86-14.65-1.21-22q-1,11.55-2.07,23.14c-.56-9.94-1.07-19.89-1.7-29.82-.77,5.13-1.43,10.24-2.09,15.39-.48-8.07-.86-16.13-1.28-24.18-1.3,8.39-2.27,16.8-3.59,25.19-1.48-6.89-2.89-13.78-4.5-20.65-.38,11-.73,22-1.37,33-.61-11.81-1.11-23.62-1.64-35.43-.69,3.32-1.64,6.5-2.19,9.85-1.06-7-2.07-14-3.37-20.94a221.47,221.47,0,0,1-6.1,34.27c-4-8.86-4.71-20.17-4.81-29.75-.62,3-1.85,9-2.47,12-.74-26.57.16-53.11-1.6-79.66-1.11,25.84-.19,51.68-1.46,77.51-.92-5.14-1.69-10.29-2.49-15.41-.38,17.89-.37,35.75-.25,53.64h-2c0-24.18.37-48.33-.57-72.5-1.41,13.63-2.77,27.27-4.17,40.9-1.45-16.59-2.56-33.19-3.72-49.8-.72,19.39-.67,38.75-.53,58.16l-1.78-.06c-.15-13.15-.54-26.16-1.32-39.28-.86,30.3-.71,60.55-3.12,90.79-.61-1.91-1.85-5.7-2.46-7.59-1.72,7.31-3.33,14.62-5,22-1.25-6.24-2.42-12.47-3.77-18.7q-2.1,8.22-4,16.45c-1.83-8-3.68-16-5.62-24-.7,6.58-1.39,13.15-2.2,19.74-1.79-6.22-3.11-12.51-4.78-18.74C-549.29-7-550-.1-550.86,6.88c-1.45-5.52-2.57-11.11-3.74-16.65-1.57,4.77-3,9.55-4.79,14.29-1.62-6.87-2.75-13.77-4-20.65-.92,8-1.73,16.07-3,24.08-1.08-8.22-2-16.46-3.15-24.66-1.63,7.37-2.45,14.82-4,22.22-1.64-5.55-2.89-11.12-4.88-16.62C-579.29-7.74-581-1-581.87,2.37c-1.61-8-2.6-16.13-3.44-24.2-1.47,10.64-2.72,21.32-4,32-2.79-13.83-2.45-28-4.89-41.84-1,11.44-2.08,22.75-3.6,34.13-1-6.78-2-13.56-3.08-20.32-1.08,6.73-1.74,13.46-2.51,20.21-1.43-5.88-2.53-11.8-4.1-17.66-1.67,5.52-2.9,11.06-4.3,16.61-1.79-9.84-2.2-19.94-3.08-29.88-1.56,10.69-2.79,21.43-4.58,32.09-1.52-11.4-2.88-22.77-4-34.22-1,7.37-2,14.73-3.37,22.1A119.35,119.35,0,0,1-631.08-23c-1.5,5.83-3.5,11.6-5.33,17.4-.42-3-1.28-9.09-1.72-12.12Q-639.72-11-641.22-4.3A275.33,275.33,0,0,1-645.52-42q-2,17.61-3.63,35.22c-1.44-9.55-2.83-19.11-4.25-28.67-2.55,10.08-3.63,20.54-5.27,30.79a439.63,439.63,0,0,0-5.48-49.51c-.4,13.31-.94,26.54-1.82,39.83-2.21-12.34-2.93-24.09-3.7-36.59-.47,12.87-.81,25.75-1.23,38.63-2-11-3.83-22.07-5.86-33.09-1.61,8-2.71,16.11-3.75,24.2-.87-13.29-2.09-26.34-3.78-39.55-.5,17.26-.73,34.54-1.2,51.8a225.71,225.71,0,0,0-6.08-32c-1.77,11.82-2.77,23.38-3.57,35.31-.88-19.94-2-39.84-3.72-59.73-.66,19.15-.68,38.31-1.32,57.47-3.83-24.73-2-49.52-8-73.91-.35,15.44-.68,30.86-1.5,46.29-1.2-22.13-2.25-44.27-3.62-66.39-.86,18.79-.93,37.61-1.68,56.4a597.71,597.71,0,0,1-5.79-59.75c-.64,15.93-1.62,30.8-5.58,46.28-.92-24.68-.12-49.34-1.8-74-1.21,27.7,0,55.38-1.7,83.05-1.41-16.7-2.53-33.23-5.33-49.78-.79,14.48-1,29-2.64,43.41-5.74-28.41-2.6-56.84-4.94-85.55-1.28,27,.43,53.82-3.57,80.66-.55-6.2-1.12-12.4-1.66-18.58q-.9,6.56-1.75,13.14c-.53-3-1.59-9-2.1-12-.68,3.64-1.41,7.23-2,10.91-.62-6.61-1.21-13.23-1.85-19.83-.49,14-.71,28-1.37,42-1.08-12.21-2.31-24.29-4-36.44-.51,13.25-.84,26.5-1.18,39.76-1.66-2.48-3.31-5-4.94-7.47q-.12,7-.2,14c-.85-1.53-2.55-4.59-3.39-6.12-.42,6.89-.81,13.79-1.28,20.7-.53-13.66-1.07-27.29-1.83-40.94-.73,20.1-.27,40-3.13,60-1.19-1.64-3.57-4.92-4.76-6.54-.19,2.11-.57,6.36-.75,8.47-1.27-6.59-2.35-13.17-3.85-19.74-.82,5.47-1.43,11-2.09,16.43l-3-13c-1,1.72-1.89,3.43-2.82,5.16-1-8.74-1.63-17.47-3.3-26.16-.89,6.61-1.79,13.21-2.82,19.83-1.41-7.38-2.07-14.82-3-22.22-.32,10.3-.77,20.59-1.28,30.87q-1-11.57-2-23.13-1,7.16-2,14.32c-.32-3.19-.72-6.5-.92-9.65-2.13,3.64-4.16,7.3-6.58,10.88-.48-12.22-.92-24.44-1.44-36.66-1.76,12.22-3,24.22-3.83,36.53a182.63,182.63,0,0,1-2.91-33l-2.86,6.15c-.55-9.44-1.11-19.22-3.12-28.48-.8,12.52-1.28,25-1.73,37.53-1.54-9.47-2.89-19-4.17-28.49-.44,8-1,16-1.46,24.08-.61-9.57-1.4-19.12-2-28.69-.66,10-1.28,19.9-2,29.84-.57-14.38-.76-28.78-1.67-43.15-.28,4.92-.42,9.81-.57,14.74l-4-1.87q-.46,9.6-1,19.23c-.63-11-1-22.12-1.72-33.17-.6,12.17-1.16,24.35-1.85,36.52-.53-12.17-1-24.32-1.71-36.48-.48,9.39-.88,18.8-1.07,28.2l-1.36-.06c-.31-9.39-.71-18.8-1.32-28.18-.49,10.31-1.16,20.62-1.77,30.93-.47-9.39-.87-18.8-1-28.2l-1.36.06c-.32,9.4-.74,18.8-1.37,28.19-.61-10.3-.95-20.61-1.32-30.92-1.5,8.49-2.53,17-5.44,25.42-.94-11.44-1.69-22.87-2.34-34.34-.58,11.8-1.16,23.6-1.83,35.39-.69-10.31-1.15-20.64-1.91-30.95-.59,10.32-.93,20.65-1.46,31-.64-2.87-1.24-5.74-1.83-8.6-.4,1.28-.79,2.57-1.17,3.86l-7.47.6c-.17,7.64-.31,15.28-.53,22.93Q-891-45.23-893-53.94q-.81,9.25-1.7,18.53c-.53-10.66-.83-21.32-1.36-32-2.29,16.21-3.12,32.26-3.68,48.61-.91-8.16-1.79-16.3-2.87-24.42-1.38,7-2.22,14-3.28,21a411.72,411.72,0,0,0-3.44-46.42c-.48,15.88-.83,31.75-1.72,47.62-.62-17.72-.85-35.43-1.82-53.14-3.75,20.69-2.2,41.11-3.27,62-1-4.79-1.81-9.59-2.71-14.35-1.26,8.81-2.31,17.61-3.19,26.45-.69-17-1.64-33.94-3.48-50.89-.8,6.62-1.52,13.24-2.3,19.87-.69-24,0-48-1.58-71.94-.83,28.53-1.58,57-3.79,85.47a123.26,123.26,0,0,1-6.28-13.12q.39,8.75.79,17.51l-5.69-1.66c-.81,3.82-1.58,7.64-2.4,11.47l-3.13-6.38c-1.39,4.69-2.49,9.38-3.5,14.11-1-7.69-2-15.36-3.27-23l-2,17.58c-.85-10.62-1.87-21.38-3.73-31.89-.64,8.78-1.1,17.57-1.74,26.35-.7-8.51-1.18-17-1.93-25.51-4.06,7.94-7.61,16-11.18,24-1.33-1.56-2.66-3.12-4-4.66l-.78,4.7c-1.81-5.82-3.56-11.61-5.61-17.38-.87,3.7-1.69,7.32-2.48,11-.46-5.12-.82-10.24-1.21-15.35L-993-22.27c-1.78-4-3.46-8-5.29-12-.63,3-1.87,9.08-2.5,12.11-.52-3-1.55-9.08-2.06-12.11-1.36,5.84-2.33,11.7-3.39,17.56-1.12-4.73-2.22-9.47-3.42-14.19-.59,4.4-1.75,13.21-2.33,17.61-.49-7.32-.79-14.62-1.17-22-2,11.27-4,22.52-5.88,33.81-1-7.77-1.87-15.48-3.41-22.9-.82,6.86-1.42,13.71-2.12,20.67-1.05-8.81-1.83-17.45-3.4-25.57-.86,8.17-1.45,16.32-2.2,24.66-.47-10.59-1-21.4-2.68-31.89-1,7.27-1.91,14.49-2.75,21.8-.54-9.26-1.18-19.15-3.59-28.15-.67,10.27-1.06,20.56-1.54,30.84q-2.28-14.64-4.09-29.37c-.49,12.7-1,25.39-1.64,38.08-2-13.8-2.87-27.29-3.84-41.19-.9,11.2-.71,22.47-.67,33.69l-3.61.61c0-10.69.14-21.44-1.11-32.08-.85,14-1,27.3-3.71,41.1-.49-13.2-.74-26.29-1.84-39.45-.64,12.71-1,25.41-1.71,38.11-2.13-14.71-2-29.28-3.54-44-1.13,14.94-2.16,29.75-4.11,44.61-.34-11,0-22.5-1.56-33.48-.88,7.65-.8,15.19-.76,24.63-1.5.16-2.24.22-3.74.32.16-10.52.83-21.5-.91-31.94-.84,10.2-1.12,20.25-2.25,30.43-2.65-6.95-2.35-12.75-3.22-17.89a121.7,121.7,0,0,1-3,19.26,187.5,187.5,0,0,1-1.27-31.95,11.69,11.69,0,0,1-2.05.09c.1,7.93.33,15-.95,25.22-3.72-9.58-2.44-20.09-3.56-30.07-1.12,8-.69,15.16-4.12,24.06-.53-12.69-.5-25.15-1.49-37.81-1,12.44-2.13,24.54-4,36.88-.5-9.41-.37-18.89-1.45-28.27-2.24,6.51-2.87,13.76-4,21.86-.65-9.1-.61-17.17-1.19-26.64-1.6,5.46-3,11-4.34,17.2-.5-11.46-.55-22.78-.4-34.25-.79-.8-1.18-1.21-2-2,.12,9.82,1.49,21.88-3.19,31-1-15.4-.47-30.86-1.26-46.29-2.84,10.37-3.36,21.7-4.1,32.36-.82-15.28-.77-30.58-1.55-45.87-2.53,20.86-2.91,41.48-2.75,62.49l-2-1c-.14-22.36.46-43.81-2.78-66.06-1.15,22.6-.22,45.2-2,67.78-.45-14.21-1-28.06-3.14-42.11-2.11,19-.95,38.34-2.14,57.43-1.54-28.45-.13-56.9-1.69-85.35-5.9,23.51-2,49-3.84,73-.53-16.8-.93-33.31-3.06-50-2.35,26.6-.73,53.25-2.55,79.88-1.91-39.17.9-78.31-2.5-117.43a115.71,115.71,0,0,0-2.11,22.75c-.35,35.42.25,72.34.34,108.51h-2c0-29.74.92-59.07-2.85-88.64-.79,17.32-1.69,34.5-3.7,51.73-.72-8.83-1.12-17.68-1.87-26.5-1.12,21.63,1.06,42.13-5.27,63.16-.75-8.5-1.23-17-1.78-25.5-.38,4.35-.78,8.72-1.15,13.08l-3.33-5.12V-2.32q-1.77-2-3.57-3.9c-.57,2.19-1.69,6.58-2.26,8.77-1-3.25-1.84-6.63-2.7-9.86-1.71,3.56-3.41,7.13-5.13,10.7-3.08-.73-6.16-1.46-9.23-2.17-2.55,3.29-5.2,6.55-8.08,9.75-1.9-4.27-3.77-8.53-5.65-12.79l-2.84-.39c-5.75,3.92-12.16,7.56-16.26,12.26l-6.49.47c.17.41.32.83.45,1.25h7.84c.46,3,1.37,9,1.83,12,3.91-3.72,6.48-7.85,9.13-11.94,2.56,3.82,5.2,7.62,8,11.38,1.19-1.58,3.56-4.72,4.74-6.3,1,3.89,2,7.8,3.06,11.7,1-1.68,2-3.34,3-5,.29,1.86.89,5.58,1.2,7.44,1-3.73,2-7.48,3.26-11.19,2.6-2.14,4.91-4.5,7.22-6.72,1.7,4.21,3.07,8.78,9,11.6.44,1.47,1.3,4.43,1.74,5.91,1.16-1.19,2.29-2.39,3.44-3.59.28,6.9.52,13.78.85,20.67.65-6.25,1.26-12.51,1.94-18.75q.84,6.56,1.61,13.13c.64-3,1.94-9,2.58-11.95.35,10.84.36,21.7.41,32.55h1.61c.14-13.13.47-26.18,1.11-39.29,2.69,28.07,1.88,56.27,4.6,84.33,2.06-18.4,1.89-36.74,2.78-55.22.8,19.54.16,38.81,3.37,58.15,1.75-24.91.56-49.83,2.19-74.74,1.32,27.53-.33,55,2.39,82.5,3.48-26.76,1-53.49,3.2-80.35,1.48,40.71-.38,81.43,1.56,122.12,4.87-39,.88-77.92,3.84-117,2.05,32.58-4.39,67.72,4,99.56,1.12-31-.35-62,1.56-92.93,1.09,23.25.18,46.55,1.59,69.75,1.1,18.07,1,36.21,2.22,54.31,1.49-42.6-.66-85.21,1.76-127.78,1,19.61-.15,39.84,1.52,59,1.55,17.8,1,36.34,2.1,54.51,1.5-34.8-.4-69.61,1.81-104.37,3,33.43,2.27,67,3.74,100.45,1.27-31.45-.18-62.92,1.46-94.34,4.5,21.29,2,42.58,4.21,64.12,1.11-25-.11-50,1.32-75,4.28,32,2.39,64.09,4.06,96.25,1.24-30.47-.58-61,1.8-91.43,3.43,14.12.8,27.64,3.65,41.67,1.52-14,.49-28,1.78-42,3,4.64,2.76,9.33,2.8,13.27.1,10-.72,21.57,1,32,1-13.85-1-28.4,2.48-42a80.6,80.6,0,0,1,3.22,7.81c.59-3.17,1.13-6.48,1.81-10.14,3.19,9.58,2.43,16.14,2.35,23.55.73-.09,1.1-.12,1.83-.15-.44-14.33,1.64-28.77,2.9-43,.72,11.27.69,19.26,1.84,26.13.48-6.13.48-13.4,3.06-23,.94,11.39.64,23.46,2.53,34.76,1-10.71.81-21.58,1.46-32.31,1,8.31,1.23,14.84,4.08,21.72.53-7.43.54-16.14,1.37-27.35,1.68,10.44,2.93,19.1,3.48,26.9,1.23-4.67,2.35-10,4-16.12.63,4.59,1.23,8.92,1.84,13.14,1-6.17,1.68-13.17,3.62-21.14.69,8.23,1.14,15.64,1.9,22.8.7-6,1.06-12.57,1.75-19.82.66,5.55,1.2,10.82,1.86,16,1.2-6,2.31-12.72,3.26-20.12,1.28,5.28,2.55,10.45,3.92,15.63.64-5.15,1.19-10.6,1.81-16.34.55,2.7,1.11,5.38,1.65,8,1.22-4.46,2.37-9.17,3.69-14.12.74,10.71,1.31,21.44,2.21,32.14,2.49-10.4,2.85-21.33,3.59-31.94.55,8.09,1,15.91,1.58,23.62,1-7.69,1.92-15.72,3.22-24,1.29,12.52,1.8,24.73,2.09,37.31q1.69-16.74,3.91-33.41c.57,7.77,1.16,15.43,1.72,23.06,1.23-6.13,2.26-12.39,3.74-18.69.72,9.88,1.22,19.77,1.83,29.66.94-8.87,1.87-17.86,3.33-26.68.94,8.49,1.74,17,2.66,25.47,2.51-8.75,2.46-17.67,3.26-26.51,1.08,6.23,2.16,12.45,3.57,18.66.77-8.81,1.23-17.64,1.79-26.45,1.26,6.59,2.18,13.22,3.83,19.79.86-9.18,1.15-18.38,1.77-27.56.73,9.9,1.45,20.12,3.61,29.83,1-11,1.33-22.11,1.89-33.16q1.5,21,3.93,42c.56-10.69.95-21.39,1.65-32.07,1.63,12.56,2.85,25,3.77,37.62.51-13.43,1.29-26.39,3-39.73,1,8.05,1.72,16.12,2.52,24.2a293.24,293.24,0,0,1,3.69-34.1c.47,8.76,1,17.53,1.37,26.31q1.39-11.79,3.15-23.55c1.1,5.25,1.79,10.5,2.69,15.77,1.26-3.22,2.49-6.54,3.79-9.72q.69,6.53,1.37,13.08c.64-1.91,1.92-5.71,2.55-7.62q3.63,8.73,7.15,17.5c1.62-8.77,2.68-17.56,3.51-26.37.56,4.75,1,9.48,1.55,14.26,1.06-7,2-13.93,3.35-20.85.82,6.22,1.65,12.46,2.44,18.71,1.48-7.67,2.67-15.35,3.82-23,1.12,17.36,3.26,35,4.84,51.86s1.38,34.69,2.38,52c0-26,3.46-51,8.77-76.42.76,3.67,1.39,7.26,2.14,11q.9-8.79,1.89-17.55c.7,14,1.72,28,3.57,42,.57-15.1.92-30.21,1.53-45.31,5.2,22.46,6.77,44.56,7.62,67.52a264.75,264.75,0,0,1,5-39.78c.75,7.68,1.39,15.37,2,23.07.95-8.8,2-17.59,3.6-26.35.86,13.61,1.45,27.21,2.08,40.83,1.87-15.09,3.05-30.16,4-45.33.48,16.23.8,32.46,1.55,48.68.84-9.37,1.56-18.78,2.82-28.11,1.25,6.74,1.87,13.5,2.84,20.27,1.36-5.83,2.62-11.66,3.95-17.48.26,17,.53,33.88,1.52,50.83.86-21.44.59-42.87,1.63-64.3,2.81,8,4.16,16,5.64,24.1.55-1.81,1.69-5.41,2.24-7.21.38,3.25,1.13,9.77,1.5,13,.65-10.31,1.43-20.67,2.72-30.92,1,5.84,1.84,11.7,2.7,17.57.51-4.39,1.54-13.18,2.07-17.57.55,9.2.91,18.4,1.46,27.6,1.54-13.74,3.48-27.25,5.77-40.88,1.82,9.89,3.05,19.87,4.85,29.76a98.68,98.68,0,0,0,6-28.55c1.23,4.63,2.45,9.28,3.68,13.92,1-7.63,1.74-15.25,3.31-22.84.79,6.58,1.48,13.17,2.29,19.77.57-8.47,1-16.94,1.67-25.39.66,6.61,1.24,13.24,1.92,19.88,1.52-4.32,2.82-8.69,4.07-13,1.28,11.71,2.36,23.42,3.42,35.15.42-14,.63-28.12,2.62-42,.58,4.42,1.79,13.24,2.38,17.64,2.82-7.75,5.44-15.55,9.46-23.12,1.85,4.71,3.63,9.42,5.4,14.15,1.17-4.31,2.31-8.62,3.61-12.91,1.47,3.89,2.69,7.78,4,11.71.14-1.48.47-4.45.62-5.94,1.74,1.09,3.46,2.19,5.2,3.3,1.15-3.41,2.29-6.87,3.51-10.25,1.81,8.77,2.44,17.59,3.5,26.41.6-8.83,1.08-17.67,1.85-26.48.57,14.73.64,29.48,1.44,44.2,1.85-9.19,3.36-18.46,5.44-27.6,2.57,17.34,3,34.53,3.78,52,.73-14.79,1-29.66,3.69-44.25,3.71,26.87,2.17,53.7,3.32,80.73,3.84-23.89,2.55-47.81,4.07-71.89,1.18,17.21,2.42,34.29,4.77,51.38,1.45-9,1.63-18,2.26-26.93.56,1.88,1.68,5.66,2.23,7.55.73-3.22,1.17-6.63,2-9.77.58,5.11,1.08,10.21,1.66,15.35.74-8.52,1.45-17,2.46-25.53,1.81,16.27,2.24,32.48,2.87,48.83.63-11.79,1.2-23.58,1.78-35.36,1.59,11.51,3.44,22.74,5.82,34.12.62-22.71,2.06-45,5.62-67.4.46,19.57.46,39.12,1.47,58.67.65-12.58-.5-25.82,7.14-36.71q1.15,11.67,2.09,23.36c2.08-15.45,2.89-30.86,3.77-46.42.6,14,.77,28,1.24,42.05.77-2.9,1.54-5.79,2.29-8.68.57,3,1.67,9,2.22,11.93.5-22.87.19-45.72,1.28-68.57,1.18,16.77,2.54,33.23,5.47,49.8.81-12.89,1.22-25.74,1.63-38.65a293.77,293.77,0,0,0,4,30.71c1.67-15.79,2.73-31.59,3.72-47.43,1.93,15.11,2.88,30.23,3.9,45.43,1.59-8.82,2.54-17.69,3.73-26.52,2.24,14.29,3.49,28.7,5.31,43,.64-22.63.32-44.94,3.42-67.4.79,18.8.9,37.61,1.87,56.4q.71-14.82,1-29.67l3.2,6.08c.48-5,.94-10.07,1.46-15.09,1.42,6.16,2.55,12.33,3.78,18.52.73-8.42,1.42-16.84,2.71-25.23q1.29,11.6,2.51,23.21c2.26-11.8,4.13-23.43,5.62-35.35a387,387,0,0,0,3.39,41.92q2-19.89,3.84-39.79c.79,10.67,1.62,21.57,3.65,32.09,1.15-12.92,2.34-25.82,3.72-38.72.73,12.25,1.66,24.13,3.4,36.28,1-7.34,2-14.67,3.41-22a95.19,95.19,0,0,1,4.24,15.38c.93-6.23,1.78-12.45,3.21-18.63,1.48,7.32,2.67,14.67,3.84,22,1.12-6.93,2.24-13.83,3.7-20.71.84,5.09,1.7,10.16,2.67,15.27a225,225,0,0,0,5.44-23.2c.92,6.6,1.67,13.19,2.46,19.81,2.3-3.5,4.39-7.08,6.55-10.62.62,3.64,1.14,7.13,1.91,10.81,1.85-8.15,3.71-16.28,5.16-24.46.26,10.76.75,21.57,1.68,32.29,2.93-7.32,4.07-14.86,5.93-22.29,1.28,3.24,2.53,6.45,3.89,9.71,1.17-6.56,2-13.14,2.89-19.7,1.1,8.46,2.2,16.91,3.51,25.35,1.08-7,2.06-14,3.3-21,1.23,4.38,2.38,8.76,3.59,13.15,1.35-2.89,2.77-5.77,4.19-8.64,1.63,3.92,2.91,7.87,4.27,11.83,1.81-6.82,3.48-13.66,5.11-20.49.82,5.14,1.56,10.27,2.42,15.43,2.36-5.81,3.48-11.78,5-17.68.78,6.53,1.57,13.09,2.65,19.63,1.61-3.94,3-7.91,4.34-11.87,1.24,4.72,2.45,9.45,4,14.14,1.48-5.44,2.36-11,3.51-16.41,2,11.35,4.33,22.58,6.83,33.84,1.32,17.32,1.13,34.48,1,51.84h1.78c.14-13.14.51-26.16,1.23-39.28.62,12.54,1.19,25.08,2,37.61.37-15.64.81-30.95,3-46.46,1.73,16.18,2.91,32.31,3.62,48.57,1.32-8,2.49-16,4.34-24,.61,15.62,1.2,30.9,3.63,46.36.92-22.91,2-45.79,3.55-68.67.66,17,.94,33.9,1.59,50.85.59-9.56,1.38-19.11,1.92-28.67.45,4.4,1.34,13.22,1.8,17.63q1.1-4.38,2.2-8.7c.9,7.51,1.84,15,3.05,22.53,2.27-7.08,3-14.3,4.34-21.44.68,3.65,1.12,7.2,1.78,10.89.51-6.6.93-13.2,1.43-19.79q1.14,11.52,2.32,23.12c.45-12.9.85-25.79,1.46-38.68.37,3.44.54,6.82.86,10.3l3.69-1.91c0,10.69.39,22,2.43,32.48.91-12.21,1.77-24.41,2.88-36.61,2.07,9.42,2.51,19.29,3.33,28.87.61-16.69,1.61-33.19,3.52-49.78,1.51,5.44,2.63,10.89,4,16.36.09-2.14.25-6.39.35-8.52.65.89,2,2.66,2.63,3.55,2.44-4.55,4.85-9.1,7.27-13.64,3,14.82,3.21,29.24,4,44.29,1.67-6.57,2.73-13.2,4-19.8.52,7,1,13.94,1.56,20.92,2.51-18,2.24-36.64,6.93-54.31,2.7,8.06,4.17,16.25,6.06,24.4,3.64-8,6-16.25,8.78-24.38,1,11.88,2,23.63,3.55,35.45a369.45,369.45,0,0,0,7.86-48.7c2.44,9.16,3.5,18.88,4.56,28.28l4.37-.21a148.76,148.76,0,0,1,4.12-15.16C-379,50-381.15,65-378.43,79.15c1.58,8.23,3.39,16.57,4.4,24.91.4-13.27.9-26.49,1.68-39.74.8,18.87,1.57,37.63,3.7,56.4.83-22.52.3-45,1.94-67.5,3.3,14.18,2.52,28.74,3.51,43.16,1.75-8,2.68-16.15,4-24.22.4,22.52.13,45,1.52,67.47,1.13-25.46.17-50.92,1.48-76.38,2.43,28.75,2.55,57.55,4,86.35,1.61-38-.21-76,1.5-114,4.13,39.76,1.77,79.69,4.07,119.56,1.57-40.61-.41-81.24,1.57-121.84,1.63,28.78,2.36,57.6,3.81,86.38,1-22.66,0-45,3.3-67.51,2.35,37.63-.16,75.31,2.3,112.94,1.74-32.23-1.21-64.27,3.13-96.35,1.78,26.76,1,53.48,1.1,80.28h2c-.61-36.8.91-73.47,2.89-110.22,1.34,43.39.38,86.78.62,130.18h1.8c1-36.36,1.75-72.73,3.07-109.08,1.37,31,0,62,1.6,93,5.61-45.68.67-91.53,3.9-137.33,1.7,43.93-.5,87.89,1.7,131.81,4.15-39,1.48-78.25,3.66-117.4,1.83,37.65-.36,75.32,1.94,113,2.94-10.27,2.89-22.14,2.73-32.65-.36-23.86-.28-48-.25-72h1.86c-.19,16.29.09,32,2.48,48.1,1.34-21,1.11-42.06,2.28-63.08,1.75,34.4-.58,68.8,2.35,103.15,3.52-30.28,1.08-60.59,3-90.95.91,18.43.79,37.11,3.9,55.35.6-19.19.62-38.38,1.61-57.57,1.16,18.44,2.33,36.88,3.72,55.3.85-20.66.74-41.33,1.62-62,1.45,9.2,2.58,18.41,3.9,27.6.53-9.54,1-19.09,1.71-28.63,1.59,14,2.78,28,3.92,42,.55-10.68.9-21.37,1.52-32,1,12.53,2.24,25,3.82,37.43.56-6.2,1.07-12.37,1.61-18.54.72,4.43,2.15,13.28,2.88,17.72,1.47-13,2.19-25.78,2.84-38.81.65,11.59,1.56,22.78,3.24,34.28.79-7,1.28-13.93,1.83-20.88,1.13,5.08,2.29,10.18,3.55,15.27l4.5-7.44c.77,7.64,1.41,15.31,2.57,23,.33-2.79,1-8.35,1.29-11.13l3.5,1.32c.65-1.39,1.32-2.79,2-4.17.44,6.52.84,13,1.36,19.59,1.46-8.83,2.6-17.69,3.82-26.53,1,4.28,1.85,8.54,2.66,12.85,1.26-1.22,2.54-2.44,3.82-3.66,1,5.37,1.5,10.76,2.31,16.16,1-3,1.94-5.94,3-8.91,1.24,3.33,2,6.53,3.32,9.91.14-5.44.18-10.9.34-16.33,1,1.72,2,3.43,3.12,5.17,1.35-7.25,2.25-14.56,3.36-21.81.7,5.48,1.25,10.93,2,16.43,1.72-6.91,2.56-13.87,3.62-20.81q.69,11.55,1.58,23.13,1.83-18.78,3.42-37.59c1.17,5.5,2.2,11,3.46,16.48,1-4.8,2-9.59,3.09-14.37,1.58,7.71,2.06,15.49,3,23.24.46-8.08.88-16.14,1.39-24.2,1.76,8.78,3.06,17.59,4.2,26.42.51-8.81.68-17.62,1.21-26.42,1.5,8,2.87,16.08,4.21,24.13.41-11.38.85-22.76,1.41-34.14q2.46,13.76,4,27.56c.45-9.93.85-19.87,1.39-29.8,1.1,7.33,2,14.69,3.44,22,.82-8.09,1.54-16.18,2.31-24.26,1.19,9.16,2.36,18.32,3.92,27.47.53-8.79.87-17.57,1.46-26.35,1.28,8.78,2.34,17.56,3.85,26.33.54-8,1-16.08,1.64-24.1,1.34,8,2.4,16.12,3.68,24.17q1.08-8.79,2.31-17.52c1.37,6.53,2.16,13.09,3.13,19.66,1-3,2.57-5.74,3.75-8.65.24,3,.74,9,1,12.06,1.15-1.72,2.3-3.44,3.49-5.16-.11,3.07-.33,9.22-.42,12.29q2.13-.93,4.29-1.83c.21,3,.47,6.12.77,9.17,1-4.89,1.9-9.81,3-14.68.85,4.79,1.31,9.58,1.8,14.41,1.15-1.25,2.31-2.51,3.5-3.76-.23,24,.72,47.74,2.82,71.62.69-18.81.79-37.62,1.92-56.41.92,22.13.4,44.27,1.46,66.39,2-25.05,2.61-50.16,4-75.25,1.25,41.91.36,83.81.59,125.73h1.79c.27-32.14,2.37-64.2,1.89-96.34h1.84c.24,33.43-.81,66.83,1,100.24,1-32.89,1.07-65.76,3.76-98.57,1.26,35.63.44,71.25.62,106.89h2c-.2-18.63-.42-37.31.75-55.91.85,5.13,1.43,10.24,2.2,15.4.84-9.18,1.48-18.38,2.69-27.54,1.32,7.68,2.53,15.41,4,23.11q1.32-8.79,2.53-17.53c.67,14.91.69,29.83.6,44.75H-88c0-25,1.29-49.83,3-74.74.56,15.5.94,31,1.7,46.5,4.08-27.63,1.8-55.3,3.7-83.08,1.35,28.25.63,56.47.77,84.73h1.92c-.3-33.47,1.16-66.83,3-100.24,1.14,27,.1,53.92,1.79,80.86.9-34.72,1.13-69.42,3.48-104.08.76,15.08,1.12,30.17,1.59,45.27,1.57-13.24,2.88-26.46,4-39.74.72,8.5,1.38,17,2.37,25.5,2.21-9.63,2.19-20,2.56-29.81l2.21,6.32q1.38-3.75,2.84-7.44c1.24,8,2,16.11,3,24.17,1.39-8.81,2.48-17.66,3.75-26.48.55,7.34.84,14.67,1.37,22,1.07-7.68,1.89-15.37,3.37-23,.35,1.78,1,5.36,1.39,7.15,1.6-2.06,3.24-4.1,4.95-6.12.44,8.44.78,16.88,1.28,25.32a284.08,284.08,0,0,0,7.76-34.19c1,7.74,2,15.48,3.33,23.2,2-2.91,3.23-6.07,5.48-8.9,2.47,6.88,3,13.92,3.83,20.93.51-3,1.5-9,2-12,.42,4.76.66,9.5,1.06,14.28.72-1.73,1.43-3.46,2.17-5.18,1.39,3.17,2.8,6.34,4.26,9.51.26-5.07.39-10.14.62-15.18C-1.26,58.88,1.25,64.25,6,69c2-3.54,3.14-7.25,4.57-10.87.92,5.73,2,11.43,3.23,17.15q.9-9.27,1.81-18.5C16.23,68.2,16.8,79.61,17.47,91,18.84,81.12,20,71.18,21,61.24L23.64,78.9C25.2,71.54,26,64.12,27.16,56.75c2,14.29,2.38,28.73,3.35,43.11.55-14.39.72-28.78,1.46-43.16.5,3.24.44,6.33,1.08,9.63,1.23-1.26,2.45-2.53,3.72-3.8.11,34.27-1,68.48,1,102.71,1.75-39.42-1.31-78.73,4.6-117.9a167.26,167.26,0,0,1,1.69,25.3c.25,41.8-.21,84.93-.33,127.4h2c.25-50-.85-100,.71-150,.72,9.57,1.48,19.14,2.15,28.71.59-10.32,1.12-20.65,2-31,1,25.48,0,50.94,1.78,76.4.82-14.71.68-29.44,1-44.17,1,2.44,2,4.92,3.07,7.42C56.68,76,57,64.68,57.53,53.32c.47,9.61,1.22,19.22,2,28.81,4-6.36,4.65-13.19,6.17-19.85.2,28.2,0,56.39,0,84.59h2c0-22.15-.35-44.57-.24-66.46.08-13.89,1.27-24.56,5.33-38,.45,21.7.16,43.4,1,65.09,1.69-19.57,4.1-39.07,6.08-58.62a319.27,319.27,0,0,1,3.2,35.35c.73-9.63,1.73-19.26,3-28.83,1.4,8.85,2,17.73,2.82,26.62q1.62-17.77,5-35.31c.9,10.95,1.77,22.26,4.26,33,.6-14.07-.07-28.46,5.13-41.84.79,15.08,1.17,30.18,1.76,45.28,1-14.39,2.1-28.78,4.06-43.08.53,7,.83,13.93,1.34,20.91.49-3,1.48-9,2-12,.58,1.86,1.75,5.6,2.34,7.47.64-5.47,1.12-11,1.79-16.42,2,14.67,2.61,29.47,3.34,44.24.53-14.51,1.23-29.13,4.86-43.26,1,11.48,1.78,22.94,2.55,34.43,1.25-12.27,2.85-21.69,7.18-33.27q1,9.42,1.94,18.84c.75-6.62,1.44-13.25,2.32-19.86C140.41,51,141.22,61,142.13,71c.43-11.79.87-23.57,1.43-35.35.81,3.66,1.26,7.27,2.14,11,.75-3.62,1.17-7.32,2-10.9.37,15.09.66,30.17,1.29,45.24,1.45-20.31,3.31-40.53,5.74-60.75,1.09,12.92,2.34,25.77,3.78,38.65a199.68,199.68,0,0,0,3.33-26.47L164,39.94c.64-2.9,1.28-5.79,1.95-8.66.64,3.66.91,7.23,1.62,10.93.86-3.25,1.1-6.66,2.18-9.84.38,8.07.7,16.13,1.07,24.2,1.55-7.07,2.32-14.28,6.18-21.08,2.93,8.35,2.29,16.93,2.93,25.42,1.48-8.16,1.54-16.57,6.21-24.37,1,1.64,3.13,4.93,4.15,6.57.08-5,0-10,.11-15,1.89,4.7,3.8,9.45,5.92,14.14.89-3.34,2.67-10,3.57-13.33,1.39,9.22,1.72,18.47,2.51,27.72.77-12.18,2-22.47,5.14-34.26.79,8.47,1.39,16.93,2,25.42,2-8.78,4.12-17.53,5.84-26.32q1.11,9.43,2.42,18.87a85.15,85.15,0,0,0,5.55-13.36c-.2,2.63-.37,5.26-.5,7.91q2.13-1,4.29-1.93c.27,2,.84,6.08,1.11,8.1.59-5.47.81-11,1.28-16.42,1.16,3.74,2,7.46,3.08,11.23a80.31,80.31,0,0,0,5.6-12.14q-.36,8.49-.53,17,1.32-1.59,2.64-3.12c1.08,1,2.16,2,3.28,3,.14-5.31.2-10.63.42-15.91.29,1.67.86,5,1.13,6.7,1.26-.55,2.54-1.11,3.86-1.66.24,3,.54,6,.85,9.07q.9-8.73,1.74-17.47,1.29,8.93,2.69,17.88a91.92,91.92,0,0,0,5.74-11,366,366,0,0,0,3.91,52.91c1-13.3,1.68-26.56,2.25-39.89,3.72,19.86,5,39.57,5.78,59.72.52-13.47.76-26.89.83-40.37l1.81-.06c0,24.12-.16,48.25-.07,72.37l3.66-6.15c0,15.45.16,30.8,1,46.23,3.42-30.21,2.06-60.45,3.41-90.77,1.75,16.21,3,32.37,3.75,48.65.78-6.26,1.54-12.51,2.39-18.73.34,18.08.51,36.13,1.5,54.2,1.08-22.14,2.08-44.28,3.32-66.41.75,4.35,1.5,8.73,2.29,13.1q.75-17.08,1.66-34.18c3.17,27.88,2.59,55.6,2.55,83.61h2c.33-27.58-1.87-54.25,4.19-81.4.86,8.45,1.62,16.93,2.35,25.41,1-11.9,2.15-23.57,3.86-35.38.46,18.47.56,36.91,1.59,55.36.73-19.56.69-39.13,1.8-58.67.75,9.2,1,18.41,1.66,27.64,1.32-8,2.7-16,4.52-24l3.7,3.68a179.87,179.87,0,0,1,3.19-32.67c.91,25.8-.09,51.58,1.69,77.35,1.28-29.53,0-59.06,1.42-88.59,1.12,8.49,2,17,3.39,25.46q1.5-6.63,3-13.24C340,51,340.5,58.77,341.56,66.51c.5-6.23,1-12.44,1.54-18.65,1.5,9.49,2.7,19,4,28.56.2-14.39.34-28.88,3.24-43,.9,10.61,1.21,21.28,1.65,31.92,4.85-11.94,6.38-21.08,7.53-33.88.33,1.25.64,2.53,1,3.8,2.54.23,5.13.4,7.69.64v7.23C370.59,37.56,373,32,376,26.54c1.59,4,2.91,8,4.32,12.07.15-1.82.46-5.46.6-7.27,1,1.7,2,3.41,3.08,5.12.35-1.88,1.08-5.61,1.43-7.48.42,2.87.86,5.75,1.29,8.64.46-1.54,1.36-4.62,1.82-6.16.71,1.51,2.16,4.51,2.89,6,.31-4.68.68-9.36,1.08-14,.68,4.39,1.37,8.77,2.11,13.18.53-3.63.71-7.33,1.41-10.93a199.82,199.82,0,0,1,7.87,36.43c.1-9.58.94-19.11,1.19-28.68,1.47,15.2,3.51,30.21,6,45.27.49-10,1.13-20,2.18-29.91,2.67,18.82,2.14,37.59,2.82,56.54,1.17-9.94,2.37-19.9,3.88-29.8,1.23,7.66,2.44,15.34,3.54,23,1.15-8.09,2.17-16.16,4-24.19.68,17.42,1.2,34.2,4.56,51.35a248.69,248.69,0,0,0,4-40.19c.62,3,1.85,9,2.47,12,.73-5.12,1.28-10.25,2-15.35.43,17.52.45,35,.37,52.55h2c-.11-22.34-.24-44.64.59-67,1.94,13.61,4.06,27.19,5.91,40.82.78-19.66,3.41-39,5.75-58.53.51,13.56,1.12,27,2.12,40.56,1.12-1.18,2.24-2.35,3.39-3.52q1,2.34,2,4.71c.24-8.77.7-17.52,1.1-26.26.59,9.57,1.41,19.12,2.09,28.68,2-15.83,2.79-31.6,3.53-47.54.9,12,2,23.56,4,35.43,2.43-16.61,2.6-33.1,3.45-49.84.49,8.84,1.19,17.67,1.74,26.51.4-9.58,1.34-19.12,1.88-28.7,1,22.51.6,45,1.78,67.53,3-21.63,2.73-43,2.62-64.77l1.79-.07c.08,20.57.79,40.26,4.83,60.44.86-17.4,1.46-34.68,3.54-52,3.25,18.5,2.35,37.18,4.82,55.78,2.78-25.61.77-51.21,2.36-76.88.68,9.56,1.43,19.12,2.1,28.69.73-7,1.34-14,2.09-21,.39,16.64.66,33.25,1.55,49.87Z"/></g></g></svg>