<svg id="Layer_1" data-name="Layer 1" xmlns="http://www.w3.org/2000/svg" width="605.101" height="211.333" viewBox="0 0 605.101 211.333"><defs><style>.cls-1{stroke:#000;stroke-miterlimit:10;stroke-width:0.25px;}</style></defs><path d="M150.753,106.557l-.813.006-.228,0c-.4,0-.75,0-1.218,0l-.67,0c-.322,0-.643,0-.951,0h-.9c-.308-.01-.509-.022-1.045-.04l-.884.018c-.455-.021-.656-.04-.964-.064-.107.021-.255.044-.415.068l-.643-.077-.63.032c-.093-.013-.214-.027-.281-.04-.683,0-1.339,0-2.089-.006-.174-.072-.255-.145-.456-.226a4.671,4.671,0,0,0-1.218.181c-.6-.1-.9-.205-.911-.3l-.911-.009a3.44,3.44,0,0,0-.991-.365,1.2,1.2,0,0,0-.549.357c-.482-.143-.911-.293-1.339-.456-.134.091-.3.181-.455.278-.188-.148-.456-.309-.63-.468-.214.122-.4.252-.643.384-.2-.244-.227-.475-.535-.751a.74.74,0,0,0-.175.219l-1.272-.206a4.176,4.176,0,0,1-.335.324c-.214-.243-.308-.475-.549-.738-.214.216-.321.455-.576.682a8.518,8.518,0,0,0-.549-.879,2.259,2.259,0,0,0-.335.589l-.428-.056a4.213,4.213,0,0,0-.415-.753c-.161.228-.389.451-.563.691a2.97,2.97,0,0,1-.335-.792l-.428-.083a3.31,3.31,0,0,1-.429.713,5.986,5.986,0,0,1-.428-.964,6.067,6.067,0,0,1-1.715.475,6.086,6.086,0,0,1-.75-1.318,12.351,12.351,0,0,1-.575,1.134c-.228-.418-.349-.823-.6-1.266-.2.342-.281.72-.469,1.082-.2-.148-.388-.3-.576-.447-.134.025-.254.053-.375.083l-2.37-.445a5.738,5.738,0,0,1-.161,1.063,15.293,15.293,0,0,1-1.339-1.094c-.174.286-.362.578-.536.876-.187-.6-.254-1.186-.442-1.8a3.585,3.585,0,0,0-1.138,2.541c-.281-.509-.563-1.03-.911-1.576a8.039,8.039,0,0,0-1.031,1.152,6.348,6.348,0,0,0-1.1-3.263,19.577,19.577,0,0,1-.536,3.143c-.281-1.275-.161-2.487-.576-3.843-1.741,1.041-.361,2.888-1.044,4.3-.3-.389-.576-.79-.858-1.2a11.593,11.593,0,0,0-1,1.993,16.119,16.119,0,0,0-1.112-4.4c-.254.509-.482,1.032-.723,1.567-.348-2.2.188-4.138-.509-6.543a37.893,37.893,0,0,1-1.192,7.514,20.553,20.553,0,0,1-2-1.6c.08.606.174,1.214.254,1.816l-1.808-.4c-.254.387-.5.783-.763,1.181l-.978-.822a9.133,9.133,0,0,0-1.1,1.577c-.335-.956-.629-1.927-1.045-2.94-.16.529-.468,1.6-.629,2.152a27.014,27.014,0,0,0-1.192-4.353c-.2,1.133-.348,2.29-.549,3.458-.214-1.19-.362-2.38-.6-3.608a23.264,23.264,0,0,0-3.549,2.906c-.428-.3-.844-.616-1.259-.908l-.241.731c-.576-1.039-1.138-2.111-1.781-3.23-.281.582-.536,1.169-.79,1.776-.148-.931-.255-1.866-.375-2.806l-.536,1.235c-.562-.861-1.1-1.74-1.687-2.653-.188.559-.59,1.6-.777,2.146-.174-.663-.5-1.907-.656-2.553-.442,1.048-.737,2.164-1.085,3.289-.348-1.05-.7-2.133-1.085-3.207-.188.883-.549,2.679-.737,3.589-.147-1.613-.241-3.217-.361-4.838-.576,2.332-1.34,4.708-1.875,7.21-.322-1.808-.59-3.635-1.072-5.534-.267,1.579-.455,3.187-.669,4.823-.335-2.182-.59-4.375-1.085-6.658-.268,2.015-.455,4.082-.7,6.185-.2-2.9-.348-5.824-.857-8.888q-.468,2.818-.87,5.76a62.724,62.724,0,0,0-1.152-9.178c-.214,3.072-.308,6.21-.482,9.337Q67.066,93.42,66.5,88.091c-.174,4.177-.215,8.422-.509,12.63-1.005-5.272-.791-10.351-1.232-15.7-.282,4.14-.215,8.454-.2,12.734l-1.139-.243c0-4.515,0-9.02-.375-13.674C62.7,89.29,63.209,95.1,61.9,100.457c-.309-6.065-.094-12-.6-18.27-.322,5.692-.094,11.65-.522,17.431-1.166-7.929-.617-15.433-1.166-23.469-.361,7.577-.375,15.4-1.259,23.06-.241-6.3,0-12.459-.535-19-.268,4.726-.228,9.631-.215,14.511l-1.178-.311c0-7.211.2-14.308-.335-21.877-.321,6.759,0,13.9-.67,20.656A101.749,101.749,0,0,1,54.37,80.249c-.174,4.411-.322,8.864-.924,13.194C52.629,84.708,53,76.436,53,67.994l-.656-.525c0,7.126.147,14.339-.255,21.308-1.473-9.14-.549-17.16-1.178-26.178-.349,6.874-.188,14.179-1.259,20.805-.469-10.635.187-20.477-.536-31.462-.348,10.124-.442,20.562-1.2,30.631-.242-7.719-.094-15.21-.5-23.148-.7,5.818-.884,12.179-1.219,18.506-.214-7.047-.214-13.877-.415-20.94q-.75,7.035-1.339,14.408c-.255-8.541-.214-16.858-.161-25.147l-.629-.72c0,7.919.482,16.334-.978,23.081-.388-10.552.067-20.331-.429-31.154-.9,6.851-.937,14.863-1.272,22.7-.295-9.626-.094-18.76-.509-28.667-.964,12.655-.924,26.718-.83,40.764l-.643-.4c-.268-13.411.9-25.452-.9-40.774-.6,13.579.214,28.662-.59,42.358-.227-8.407-.067-16.57-1.031-25.784-.656,11.254-.08,23.6-.67,35.191-.709-17.284.2-33.369-.549-51.061C33.45,44.6,35.031,61.213,34.053,75.529c-.254-9.72,0-19.133-.978-29.651-1,14.775.094,31.213-.79,46.528-.857-22.965.657-44.249-.8-68.431C30,47.77,31.326,74.6,30.933,99.916l-.643-.076c-.107-17.114.6-33.748-.9-52.049-.267,9.877-.375,19.984-1.178,29.737-.228-5.379-.348-10.728-.589-16.168-.788,12.084,1.148,25.813-1.648,37.507v23.2c.2-1.87.616-5.6.817-7.45.121,6.567.094,13.157.121,19.73l.522-.23c0-7.87.08-15.754.348-23.629,1.085,16.441.375,33.442,1.46,49.191,1-11.479.362-21.838.884-32.755.442,11.23-.281,23.193,1.058,33.468.817-14.966-.08-28.839.7-43.424.7,15.748-.388,32.54.75,47.635,1.661-16.621-.12-30.993,1.018-46.717.67,23.609-.294,48.328.482,71.357,2.25-25.019-.107-45.612,1.233-68.765,1.1,19.908-1.112,42.3,1.232,60.129.576-19.352-.362-37.406.522-56.575.434,25.393.29,50.893,1.165,75,.75-26.54-.415-51.045.589-77.16.439,23.962.388,48.194,1.112,71.176.8-22.78-.348-43.452.616-65.782,1.152,21.428.442,44.123,1.125,65.183.75-21.193-.228-40.411.509-61.112,2.156,14.32,0,31.971,1.339,46.162.657-18.248-.281-35.048.482-52.979,1.768,21.088.228,44.608,1.206,65.4.83-21.625-.389-41,.643-62.2,1.955,10.445,0,23.478,1.1,34.023.629-11.857-.174-22.554.616-34.212,2.089,11.584-.037,26.172,1.125,37.879.8-12.552-.5-23.21.844-35.66.482,2.035.7,4.185,1.017,6.278.188-2.87.362-5.714.59-8.56.991,6.6.736,13.823.7,20.907l.576-.481c-.12-10.9.4-22,.991-32.938.214,5.46.2,10.961.549,16.283a115.084,115.084,0,0,1,.924-14.913c.67,7.526.121,15.49.764,22.81.361-7.443,0-14.508.509-21.862a76.959,76.959,0,0,0,1.272,11.8c.174-4.995.187-9.933.455-14.864.523,4.37.911,8.707,1.085,13.055.388-3.058.75-6.057,1.339-9.068q.3,2.914.576,5.783c.322-3.256.536-6.441,1.165-9.656.215,3.015.349,6.035.59,9,.227-2.782.334-5.507.562-8.231.214,1.941.375,3.888.589,5.8.375-2.607.737-5.167,1.032-7.676.415,1.618.8,3.218,1.245,4.764.2-1.852.375-3.611.576-5.386l.522,2.308c.389-1.471.75-2.9,1.166-4.324.267,3.03.415,6.042.7,9a60.721,60.721,0,0,0,1.152-9.154c.174,2.054.321,4.088.495,6.108.308-2.152.616-4.271,1.018-6.351a58.691,58.691,0,0,1,.67,9.163c.361-2.855.71-5.656,1.232-8.42q.28,2.667.549,5.3c.388-1.56.71-3,1.192-4.477.228,2.18.375,4.36.576,6.5.294-2.03.589-4.029,1.058-6.016.294,1.761.549,3.51.844,5.243a22.631,22.631,0,0,0,1.031-5.709,33.861,33.861,0,0,0,1.125,3.536c.241-1.789.388-3.541.576-5.282a34.774,34.774,0,0,0,1.2,3.613c.281-1.77.362-3.492.562-5.206a21.8,21.8,0,0,0,1.152,5.277c.335-2.023.389-3.988.59-5.946.334,2.428.723,4.8,1.245,7.071.2-1.846.3-3.657.522-5.441a36.887,36.887,0,0,1,1.206,5.94,25.4,25.4,0,0,1,.937-6.43c.308,1.219.549,2.405.8,3.612a15.621,15.621,0,0,1,1.165-5.191c.147,1.273.321,2.532.442,3.778q.442-1.741.991-3.415c.348.71.576,1.416.857,2.107.4-.467.79-.921,1.2-1.365.148.552.282,1.1.429,1.648.2-.266.616-.785.8-1.036.776.64,1.513,1.25,2.276,1.82A17.7,17.7,0,0,0,98.1,107.8c.174.507.321,1.024.482,1.513a22.931,22.931,0,0,1,1.072-2.256c.254.634.522,1.254.763,1.866.469-.794.857-1.56,1.219-2.3.774,3.207,2.222,6.027,2.29,9.022a10.4,10.4,0,0,1,2.772-6.889c.241.257.442.5.683.753.188-.455.388-.906.6-1.347a7.743,7.743,0,0,0,1.125,2.8c.227-1.07.254-2.1.482-3.133a4.89,4.89,0,0,1,2.424,3.88,4.018,4.018,0,0,1,1.567-2.57,12.991,12.991,0,0,1,.629,1.138,7.3,7.3,0,0,1,1.152-1.528,15.922,15.922,0,0,1,.656,1.872,8.307,8.307,0,0,0,1.273-2.289,11.42,11.42,0,0,0,.5,2.044,7.4,7.4,0,0,1,.884-1.339,7.746,7.746,0,0,1,.9.649c.442-.3.831-.583,1.259-.856a3.213,3.213,0,0,0,.482,1.673c.4-.818,0-1.47.523-2.261a8.4,8.4,0,0,1,1.781.514c.174-.079.536-.232.71-.307.12.071.361.214.469.284a3.842,3.842,0,0,1,.87-.906c.308.114.576.225.857.33.161-.121.482-.354.657-.467.174.184.281.37.455.544a7.345,7.345,0,0,1,1.835-.974c.6.133.937.272,1.54.372a8.171,8.171,0,0,0,1.888-.542l1.165.095a8.1,8.1,0,0,1,1.058-.29c.255.053.469.1.724.149.187-.083.321-.161.535-.239.2.048.389.093.6.134.482-.053.9-.1,1.339-.14.456.052.737.1,1.085.146a1.628,1.628,0,0,1,.83-.232c.188.015.576.039.764.05.8-.051,1.806-.1,3-.131.576,0,1.138,0,1.7-.008.375-.01.736-.019,1.151-.027l1.246-.011.2,0,1.647-.017.813-.007Z"/><line class="cls-1" x1="138.328" y1="106.685" x2="571.061" y2="106.685"/></svg>