<svg id="Layer_1" data-name="Layer 1" xmlns="http://www.w3.org/2000/svg" width="709.008" height="282.667" viewBox="0 0 709.008 282.667"><defs><style>.cls-1,.cls-2,.cls-3,.cls-4,.cls-5,.cls-6,.cls-7{fill:none;}.cls-1,.cls-2{stroke:#b3b3b3;}.cls-1,.cls-2,.cls-3,.cls-4,.cls-5,.cls-6,.cls-7,.cls-8{stroke-miterlimit:10;}.cls-2{stroke-dasharray:2.993 2.993;}.cls-3{stroke:#cbcbcb;}.cls-4{stroke:#ccc;}.cls-5,.cls-7,.cls-8{stroke:#000;}.cls-5{stroke-width:2px;}.cls-6{stroke:gray;}</style></defs><line class="cls-1" x1="54.552" y1="101.255" x2="56.052" y2="101.255"/><line class="cls-2" x1="59.045" y1="101.255" x2="662.213" y2="101.255"/><line class="cls-1" x1="663.71" y1="101.255" x2="665.21" y2="101.255"/><line class="cls-3" x1="547.5" y1="241.206" x2="547.5" y2="31.809"/><line class="cls-3" x1="172.727" y1="241.206" x2="172.727" y2="31.809"/><line class="cls-3" x1="361.847" y1="241.206" x2="361.847" y2="31.809"/><line class="cls-3" x1="53.861" y1="240.148" x2="53.861" y2="31.809"/><line class="cls-4" x1="53.283" y1="31.809" x2="57.597" y2="31.809"/><line class="cls-4" x1="53.283" y1="240.148" x2="57.597" y2="240.148"/><path d="M36.8,136.754a1.176,1.176,0,0,1-.062.457.205.205,0,0,1-.2.13H34.191a.209.209,0,0,1-.2-.133,1.155,1.155,0,0,1-.063-.454,1.116,1.116,0,0,1,.063-.446.209.209,0,0,1,.2-.13H36.54a.23.23,0,0,1,.115.028.227.227,0,0,1,.082.1.6.6,0,0,1,.048.181A2.106,2.106,0,0,1,36.8,136.754Z"/><path d="M42.529,138.989a2.459,2.459,0,0,1-.014.28.83.83,0,0,1-.043.189.206.206,0,0,1-.073.1.173.173,0,0,1-.1.031H38.1a.891.891,0,0,1-.214-.022.284.284,0,0,1-.147-.088.426.426,0,0,1-.082-.189,1.66,1.66,0,0,1-.025-.322,2.444,2.444,0,0,1,.017-.319.824.824,0,0,1,.062-.236,1.1,1.1,0,0,1,.116-.2,2.054,2.054,0,0,1,.183-.217l1.265-1.355a6.633,6.633,0,0,0,.609-.72,4.187,4.187,0,0,0,.362-.592,2.282,2.282,0,0,0,.178-.5,2.054,2.054,0,0,0,.047-.429,1.028,1.028,0,0,0-.059-.352.827.827,0,0,0-.175-.291.793.793,0,0,0-.291-.195,1.1,1.1,0,0,0-.412-.07,1.9,1.9,0,0,0-.59.084,2.86,2.86,0,0,0-.451.19,3.639,3.639,0,0,0-.324.191.412.412,0,0,1-.2.088.121.121,0,0,1-.087-.034.248.248,0,0,1-.06-.113,1.256,1.256,0,0,1-.036-.212,2.94,2.94,0,0,1-.015-.324c0-.087,0-.159.009-.218A1.1,1.1,0,0,1,37.8,133a.467.467,0,0,1,.045-.113.565.565,0,0,1,.1-.115,1.322,1.322,0,0,1,.26-.173,3.149,3.149,0,0,1,.466-.2,4.254,4.254,0,0,1,.609-.166,3.425,3.425,0,0,1,.694-.068,3.116,3.116,0,0,1,1,.144,1.94,1.94,0,0,1,.708.4,1.594,1.594,0,0,1,.421.609,2.064,2.064,0,0,1,.138.759,3.619,3.619,0,0,1-.067.7,2.667,2.667,0,0,1-.283.743,5.893,5.893,0,0,1-.6.881,14.251,14.251,0,0,1-1.032,1.12l-.853.875h2.879a.18.18,0,0,1,.105.034.281.281,0,0,1,.082.1.668.668,0,0,1,.05.186A1.968,1.968,0,0,1,42.529,138.989Z"/><path d="M48.614,137.493a1.234,1.234,0,0,1-.06.438c-.039.1-.092.15-.16.15h-.649v1.32a.156.156,0,0,1-.034.1.255.255,0,0,1-.119.071,1.075,1.075,0,0,1-.22.042,3.337,3.337,0,0,1-.35.014,3.3,3.3,0,0,1-.342-.014,1.037,1.037,0,0,1-.219-.042.235.235,0,0,1-.114-.071.166.166,0,0,1-.03-.1v-1.32h-2.8a.466.466,0,0,1-.141-.02.189.189,0,0,1-.1-.091.586.586,0,0,1-.063-.2,2.71,2.71,0,0,1-.019-.353c0-.12,0-.225.009-.313a1.994,1.994,0,0,1,.027-.24,1.189,1.189,0,0,1,.057-.2,1.693,1.693,0,0,1,.093-.2l2.269-4a.232.232,0,0,1,.1-.087.654.654,0,0,1,.188-.062,2.112,2.112,0,0,1,.308-.037c.125-.008.275-.011.452-.011s.355,0,.491.014a1.824,1.824,0,0,1,.324.045.467.467,0,0,1,.178.076.134.134,0,0,1,.057.108v4.4h.649c.06,0,.111.046.155.138A1.177,1.177,0,0,1,48.614,137.493Zm-2.3-3.957h-.012L44.38,136.9h1.937Z"/><line class="cls-3" x1="666.097" y1="240.148" x2="53.664" y2="240.148"/><line class="cls-3" x1="666.097" y1="31.809" x2="53.664" y2="31.809"/><path d="M48.535,66.753a8.09,8.09,0,0,1-.141,1.58,3.492,3.492,0,0,1-.46,1.2,2.153,2.153,0,0,1-.83.762,3.11,3.11,0,0,1-2.492.009,1.939,1.939,0,0,1-.779-.74,3.36,3.36,0,0,1-.4-1.18,9.716,9.716,0,0,1-.116-1.577,7.882,7.882,0,0,1,.145-1.579,3.477,3.477,0,0,1,.463-1.2,2.144,2.144,0,0,1,.829-.762,3.1,3.1,0,0,1,2.49-.008,1.925,1.925,0,0,1,.781.74,3.288,3.288,0,0,1,.4,1.179A9.857,9.857,0,0,1,48.535,66.753Zm-1.5.073q0-.519-.028-.917a5.428,5.428,0,0,0-.088-.691,2.586,2.586,0,0,0-.146-.5,1.006,1.006,0,0,0-.212-.325.715.715,0,0,0-.282-.172,1.145,1.145,0,0,0-.351-.051.9.9,0,0,0-.55.161,1.067,1.067,0,0,0-.344.483,3.075,3.075,0,0,0-.178.8,10.73,10.73,0,0,0-.051,1.118,10.865,10.865,0,0,0,.063,1.29,2.955,2.955,0,0,0,.194.813.873.873,0,0,0,.342.423.98.98,0,0,0,.5.122,1,1,0,0,0,.389-.071.825.825,0,0,0,.3-.211,1.162,1.162,0,0,0,.211-.356,2.743,2.743,0,0,0,.139-.5,4.828,4.828,0,0,0,.073-.638C47.033,67.374,47.039,67.112,47.039,66.826Z"/><path d="M36.8,102.174a1.179,1.179,0,0,1-.062.457.205.205,0,0,1-.2.13H34.191a.209.209,0,0,1-.2-.133,1.155,1.155,0,0,1-.063-.454,1.113,1.113,0,0,1,.063-.446.209.209,0,0,1,.2-.13H36.54a.22.22,0,0,1,.115.028.227.227,0,0,1,.082.1.6.6,0,0,1,.048.181A2.106,2.106,0,0,1,36.8,102.174Z"/><path d="M42.462,104.449a1.693,1.693,0,0,1-.018.268.62.62,0,0,1-.048.175.236.236,0,0,1-.07.093.153.153,0,0,1-.091.028h-4.03a.14.14,0,0,1-.085-.028.237.237,0,0,1-.071-.093.659.659,0,0,1-.047-.175,1.706,1.706,0,0,1-.017-.268,2.094,2.094,0,0,1,.014-.274.605.605,0,0,1,.045-.178.263.263,0,0,1,.071-.1.137.137,0,0,1,.09-.031h1.36V99.114l-1.174.649a.822.822,0,0,1-.212.076.142.142,0,0,1-.13-.033.3.3,0,0,1-.064-.167,2.356,2.356,0,0,1-.018-.333c0-.09,0-.164.006-.223A.547.547,0,0,1,38,98.934a.259.259,0,0,1,.062-.1.664.664,0,0,1,.107-.085l1.569-1.016a.25.25,0,0,1,.071-.037.573.573,0,0,1,.11-.022c.045-.006.1-.009.177-.011s.169,0,.285,0c.144,0,.259,0,.348.008a1.032,1.032,0,0,1,.2.028.173.173,0,0,1,.091.054.152.152,0,0,1,.023.085v6.034h1.19a.156.156,0,0,1,.094.031.255.255,0,0,1,.073.1.675.675,0,0,1,.045.178A2.072,2.072,0,0,1,42.462,104.449Z"/><path d="M48.388,104.409a2.71,2.71,0,0,1-.013.279.884.884,0,0,1-.043.19.212.212,0,0,1-.074.1.172.172,0,0,1-.1.031h-4.2a.886.886,0,0,1-.214-.022.282.282,0,0,1-.148-.088.426.426,0,0,1-.082-.189,1.743,1.743,0,0,1-.025-.322,2.633,2.633,0,0,1,.017-.319.875.875,0,0,1,.062-.237,1.124,1.124,0,0,1,.116-.2,2.075,2.075,0,0,1,.184-.217l1.264-1.355a6.654,6.654,0,0,0,.61-.72,4.267,4.267,0,0,0,.361-.592,2.23,2.23,0,0,0,.178-.495,2.058,2.058,0,0,0,.048-.429,1.025,1.025,0,0,0-.06-.352.812.812,0,0,0-.175-.291.785.785,0,0,0-.291-.2,1.1,1.1,0,0,0-.412-.07A1.906,1.906,0,0,0,44.8,99a3,3,0,0,0-.451.189q-.195.105-.324.192a.418.418,0,0,1-.2.088.127.127,0,0,1-.087-.034.264.264,0,0,1-.06-.113,1.366,1.366,0,0,1-.036-.212c-.009-.088-.014-.2-.014-.324,0-.087,0-.159.008-.218a.936.936,0,0,1,.026-.152A.43.43,0,0,1,43.7,98.3a.583.583,0,0,1,.1-.116,1.377,1.377,0,0,1,.26-.172,3.149,3.149,0,0,1,.466-.2,4.465,4.465,0,0,1,.609-.167,3.5,3.5,0,0,1,.7-.067,3.088,3.088,0,0,1,1,.144,1.957,1.957,0,0,1,.708.4,1.609,1.609,0,0,1,.421.609,2.084,2.084,0,0,1,.137.759,3.627,3.627,0,0,1-.067.7,2.706,2.706,0,0,1-.282.743,5.928,5.928,0,0,1-.6.88,13.879,13.879,0,0,1-1.032,1.121l-.853.875h2.879a.176.176,0,0,1,.1.034.281.281,0,0,1,.082.1.7.7,0,0,1,.051.186A2.152,2.152,0,0,1,48.388,104.409Z"/><path d="M53.005,24.3a.182.182,0,0,1-.028.1.2.2,0,0,1-.1.071.622.622,0,0,1-.183.039c-.077.008-.172.011-.285.011s-.219,0-.294-.011a.661.661,0,0,1-.183-.039.22.22,0,0,1-.1-.071.169.169,0,0,1-.031-.1V23.74a3.211,3.211,0,0,1-.816.649,2.132,2.132,0,0,1-1.919.008,1.852,1.852,0,0,1-.649-.6,2.629,2.629,0,0,1-.365-.883,4.889,4.889,0,0,1-.112-1.064,4.664,4.664,0,0,1,.144-1.208,2.728,2.728,0,0,1,.42-.915,1.872,1.872,0,0,1,.689-.581,2.109,2.109,0,0,1,.948-.2,1.693,1.693,0,0,1,.768.173,2.729,2.729,0,0,1,.683.5V16.893a.167.167,0,0,1,.032-.1.22.22,0,0,1,.112-.076.94.94,0,0,1,.218-.048,3.489,3.489,0,0,1,.688,0,.9.9,0,0,1,.215.048.24.24,0,0,1,.112.076.163.163,0,0,1,.034.1Zm-1.411-3.365a3.138,3.138,0,0,0-.584-.587.982.982,0,0,0-.585-.2.819.819,0,0,0-.476.138,1.017,1.017,0,0,0-.322.37,2,2,0,0,0-.181.516,2.91,2.91,0,0,0-.059.585,3.646,3.646,0,0,0,.051.615,1.9,1.9,0,0,0,.166.534,1.011,1.011,0,0,0,.308.375.8.8,0,0,0,.485.141.968.968,0,0,0,.285-.042,1.024,1.024,0,0,0,.282-.139,1.8,1.8,0,0,0,.3-.251,4.916,4.916,0,0,0,.333-.381Z"/><path d="M59.808,22.3a2.2,2.2,0,0,1-.107.706,1.864,1.864,0,0,1-.748.976,2.655,2.655,0,0,1-.579.289,3.611,3.611,0,0,1-.674.166,5.4,5.4,0,0,1-.8.054H54.959a.466.466,0,0,1-.314-.11.455.455,0,0,1-.127-.359V17.654a.454.454,0,0,1,.127-.358.466.466,0,0,1,.314-.11h1.835a4.916,4.916,0,0,1,1.137.113,2.21,2.21,0,0,1,.784.342,1.509,1.509,0,0,1,.489.578,1.874,1.874,0,0,1,.17.824,1.8,1.8,0,0,1-.069.5,1.459,1.459,0,0,1-.516.765,1.607,1.607,0,0,1-.432.237,1.943,1.943,0,0,1,.573.2,1.632,1.632,0,0,1,.457.364,1.689,1.689,0,0,1,.308.523A1.892,1.892,0,0,1,59.808,22.3Zm-1.92-3.076a1.087,1.087,0,0,0-.067-.395.713.713,0,0,0-.2-.291.947.947,0,0,0-.342-.178,1.983,1.983,0,0,0-.55-.062h-.751v1.9H56.8a1.44,1.44,0,0,0,.514-.076.9.9,0,0,0,.319-.209.856.856,0,0,0,.19-.311A1.143,1.143,0,0,0,57.888,19.224Zm.379,3.127a1.145,1.145,0,0,0-.085-.454.858.858,0,0,0-.248-.336,1.155,1.155,0,0,0-.418-.209,2.444,2.444,0,0,0-.661-.073h-.88v2.077h1.072a1.818,1.818,0,0,0,.523-.065,1.048,1.048,0,0,0,.366-.192.865.865,0,0,0,.243-.316A1.007,1.007,0,0,0,58.267,22.351Z"/><path d="M659.859,245.141a2.44,2.44,0,0,1-.014.279.682.682,0,0,1-.043.186.248.248,0,0,1-.07.105.15.15,0,0,1-.093.034H657.81v5.888a.159.159,0,0,1-.037.1.246.246,0,0,1-.121.074,1.247,1.247,0,0,1-.229.045,4.013,4.013,0,0,1-.716,0,1.213,1.213,0,0,1-.229-.045.255.255,0,0,1-.122-.074.158.158,0,0,1-.036-.1v-5.888h-1.829a.144.144,0,0,1-.1-.034.265.265,0,0,1-.068-.105.725.725,0,0,1-.042-.186,2.21,2.21,0,0,1-.015-.279,2.331,2.331,0,0,1,.015-.288.732.732,0,0,1,.042-.189.233.233,0,0,1,.068-.1.148.148,0,0,1,.1-.031h5.148a.153.153,0,0,1,.093.031.219.219,0,0,1,.07.1.688.688,0,0,1,.043.189A2.574,2.574,0,0,1,659.859,245.141Z"/><path d="M662.168,244.9a.8.8,0,0,1-.175.593,1.385,1.385,0,0,1-1.3.006.775.775,0,0,1-.166-.57.816.816,0,0,1,.172-.6,1.368,1.368,0,0,1,1.3-.006A.777.777,0,0,1,662.168,244.9Zm-.108,6.741a.154.154,0,0,1-.034.1.242.242,0,0,1-.115.071.979.979,0,0,1-.218.042,4.233,4.233,0,0,1-.688,0,.957.957,0,0,1-.217-.042.241.241,0,0,1-.116-.071.149.149,0,0,1-.035-.1V246.62a.152.152,0,0,1,.035-.1.258.258,0,0,1,.116-.074,1.031,1.031,0,0,1,.217-.048,3.706,3.706,0,0,1,.688,0,1.057,1.057,0,0,1,.218.048.26.26,0,0,1,.115.074.156.156,0,0,1,.034.1Z"/><path d="M671.488,251.644a.154.154,0,0,1-.034.1.245.245,0,0,1-.113.071.915.915,0,0,1-.214.042,3.27,3.27,0,0,1-.345.014,3.337,3.337,0,0,1-.35-.014.99.99,0,0,1-.218-.042.231.231,0,0,1-.112-.071.164.164,0,0,1-.031-.1v-2.987a2.077,2.077,0,0,0-.048-.463,1.116,1.116,0,0,0-.146-.358.715.715,0,0,0-.249-.232.744.744,0,0,0-.359-.082.851.851,0,0,0-.514.2,3.47,3.47,0,0,0-.564.575v3.348a.148.148,0,0,1-.034.1.247.247,0,0,1-.115.071.979.979,0,0,1-.218.042,3.189,3.189,0,0,1-.338.014,3.27,3.27,0,0,1-.345-.014.979.979,0,0,1-.218-.042.247.247,0,0,1-.115-.071.154.154,0,0,1-.034-.1v-2.987a2.077,2.077,0,0,0-.048-.463,1.161,1.161,0,0,0-.143-.358.683.683,0,0,0-.249-.232.748.748,0,0,0-.356-.082.855.855,0,0,0-.519.2,3.279,3.279,0,0,0-.559.575v3.348a.154.154,0,0,1-.034.1.247.247,0,0,1-.115.071.979.979,0,0,1-.218.042,4.246,4.246,0,0,1-.689,0,.958.958,0,0,1-.216-.042.249.249,0,0,1-.117-.071.154.154,0,0,1-.034-.1v-5.036a.176.176,0,0,1,.028-.1.205.205,0,0,1,.1-.071.828.828,0,0,1,.19-.043,2.85,2.85,0,0,1,.291-.013c.12,0,.219,0,.3.013a.693.693,0,0,1,.184.043.206.206,0,0,1,.093.071.169.169,0,0,1,.028.1v.581a3.336,3.336,0,0,1,.833-.676,1.781,1.781,0,0,1,.866-.227,2.221,2.221,0,0,1,.559.066,1.579,1.579,0,0,1,.443.186,1.406,1.406,0,0,1,.336.29,1.683,1.683,0,0,1,.237.379,4.121,4.121,0,0,1,.444-.418,2.55,2.55,0,0,1,.429-.285,1.994,1.994,0,0,1,.423-.164,1.788,1.788,0,0,1,.432-.054,1.908,1.908,0,0,1,.847.17,1.476,1.476,0,0,1,.555.46,1.82,1.82,0,0,1,.3.681,3.582,3.582,0,0,1,.091.824Z"/><path d="M677.534,248.979a.549.549,0,0,1-.116.384.417.417,0,0,1-.32.124h-3.064a2.081,2.081,0,0,0,.076.584,1.111,1.111,0,0,0,.242.447,1.064,1.064,0,0,0,.43.279,1.833,1.833,0,0,0,.629.1,3.521,3.521,0,0,0,.655-.054,4.234,4.234,0,0,0,.488-.118c.137-.043.251-.083.341-.118a.613.613,0,0,1,.221-.054.18.18,0,0,1,.084.019.143.143,0,0,1,.056.071.454.454,0,0,1,.032.144c.006.062.009.14.009.235s0,.153-.006.211-.01.108-.017.15a.355.355,0,0,1-.034.1.351.351,0,0,1-.06.082.654.654,0,0,1-.2.108,3.117,3.117,0,0,1-.418.133,5.779,5.779,0,0,1-.581.113,4.988,4.988,0,0,1-.7.048,3.7,3.7,0,0,1-1.177-.17,2.082,2.082,0,0,1-.844-.514,2.129,2.129,0,0,1-.5-.869,4.081,4.081,0,0,1-.166-1.23,3.9,3.9,0,0,1,.174-1.211,2.535,2.535,0,0,1,.508-.914,2.185,2.185,0,0,1,.811-.574,2.791,2.791,0,0,1,1.075-.2,2.82,2.82,0,0,1,1.081.187,1.951,1.951,0,0,1,.736.516,2.087,2.087,0,0,1,.424.782,3.415,3.415,0,0,1,.136.983Zm-1.378-.406a1.45,1.45,0,0,0-.24-.94.928.928,0,0,0-.793-.342,1.022,1.022,0,0,0-.471.1.958.958,0,0,0-.333.274,1.249,1.249,0,0,0-.2.406,2,2,0,0,0-.081.5Z"/><line class="cls-3" x1="666.097" y1="241.206" x2="666.097" y2="31.809"/><line class="cls-1" x1="54.552" y1="66.532" x2="56.052" y2="66.532"/><line class="cls-2" x1="59.045" y1="66.532" x2="662.213" y2="66.532"/><line class="cls-1" x1="663.71" y1="66.532" x2="665.21" y2="66.532"/><line class="cls-1" x1="55.362" y1="205.425" x2="56.862" y2="205.425"/><line class="cls-2" x1="59.856" y1="205.425" x2="663.023" y2="205.425"/><line class="cls-1" x1="664.52" y1="205.425" x2="666.02" y2="205.425"/><line class="cls-1" x1="54.552" y1="170.702" x2="56.052" y2="170.702"/><line class="cls-2" x1="59.045" y1="170.702" x2="662.213" y2="170.702"/><line class="cls-1" x1="663.71" y1="170.702" x2="665.21" y2="170.702"/><line class="cls-1" x1="53.282" y1="135.978" x2="54.782" y2="135.978"/><line class="cls-2" x1="57.776" y1="135.978" x2="660.943" y2="135.978"/><line class="cls-1" x1="662.44" y1="135.978" x2="663.94" y2="135.978"/><path d="M36.8,171.334a1.181,1.181,0,0,1-.061.457.206.206,0,0,1-.2.13H34.19a.21.21,0,0,1-.2-.133,1.179,1.179,0,0,1-.062-.454,1.139,1.139,0,0,1,.062-.446.21.21,0,0,1,.2-.13h2.349a.2.2,0,0,1,.2.124.6.6,0,0,1,.048.181A2.339,2.339,0,0,1,36.8,171.334Z"/><path d="M42.5,172.034a2.183,2.183,0,0,1-.209.971,2.025,2.025,0,0,1-.581.711,2.643,2.643,0,0,1-.893.438,4.112,4.112,0,0,1-1.135.149,4.432,4.432,0,0,1-.7-.053,4.329,4.329,0,0,1-.578-.133,2.6,2.6,0,0,1-.415-.164,1.148,1.148,0,0,1-.215-.13.332.332,0,0,1-.076-.1.936.936,0,0,1-.045-.133,1.166,1.166,0,0,1-.028-.192c-.006-.077-.008-.17-.008-.279a1.071,1.071,0,0,1,.045-.376.146.146,0,0,1,.136-.1.5.5,0,0,1,.194.076,3.6,3.6,0,0,0,.352.164,4.32,4.32,0,0,0,.5.164,2.607,2.607,0,0,0,.655.076,1.858,1.858,0,0,0,.548-.074,1.179,1.179,0,0,0,.4-.206.827.827,0,0,0,.249-.321,1.061,1.061,0,0,0,.081-.421,1.016,1.016,0,0,0-.1-.457.925.925,0,0,0-.293-.347,1.458,1.458,0,0,0-.491-.224,2.756,2.756,0,0,0-.7-.078h-.632a.348.348,0,0,1-.125-.02.174.174,0,0,1-.084-.082.522.522,0,0,1-.049-.172,2.449,2.449,0,0,1-.013-.285,2.171,2.171,0,0,1,.013-.268.51.51,0,0,1,.046-.162.188.188,0,0,1,.079-.079.284.284,0,0,1,.115-.022h.638a2.023,2.023,0,0,0,.582-.076,1.2,1.2,0,0,0,.426-.218.941.941,0,0,0,.263-.341,1.07,1.07,0,0,0,.09-.443,1.012,1.012,0,0,0-.062-.353.8.8,0,0,0-.184-.288.848.848,0,0,0-.313-.192,1.306,1.306,0,0,0-.451-.071,1.729,1.729,0,0,0-.554.088,3.465,3.465,0,0,0-.466.192c-.137.07-.254.135-.349.195a.482.482,0,0,1-.212.09.143.143,0,0,1-.079-.02.148.148,0,0,1-.057-.076.622.622,0,0,1-.033-.163,2.594,2.594,0,0,1-.012-.277c0-.094,0-.173.006-.235a.928.928,0,0,1,.022-.155.568.568,0,0,1,.042-.107.507.507,0,0,1,.082-.1,1.7,1.7,0,0,1,.232-.161,2.767,2.767,0,0,1,.44-.209,3.851,3.851,0,0,1,.613-.171,3.712,3.712,0,0,1,.753-.071,3.246,3.246,0,0,1,.941.124,1.936,1.936,0,0,1,.688.358,1.48,1.48,0,0,1,.423.576,1.952,1.952,0,0,1,.145.771,2.209,2.209,0,0,1-.085.621,1.714,1.714,0,0,1-.248.514,1.528,1.528,0,0,1-.409.383,1.849,1.849,0,0,1-.568.237v.017a2.153,2.153,0,0,1,.689.195,1.762,1.762,0,0,1,.516.376,1.592,1.592,0,0,1,.324.51A1.634,1.634,0,0,1,42.5,172.034Z"/><path d="M48.5,171.735a3.026,3.026,0,0,1-.169,1.024,2.22,2.22,0,0,1-1.3,1.349,2.915,2.915,0,0,1-1.106.195,3.048,3.048,0,0,1-.886-.115,1.985,1.985,0,0,1-.655-.334,1.764,1.764,0,0,1-.452-.527,2.965,2.965,0,0,1-.279-.7,4.825,4.825,0,0,1-.144-.846q-.041-.458-.04-.971,0-.429.042-.9a5.392,5.392,0,0,1,.165-.92,4,4,0,0,1,.341-.861,2.532,2.532,0,0,1,1.409-1.2,3.417,3.417,0,0,1,1.17-.18,3.681,3.681,0,0,1,.432.025c.146.017.28.039.4.065a1.979,1.979,0,0,1,.316.09.659.659,0,0,1,.173.088.258.258,0,0,1,.064.081.532.532,0,0,1,.037.1.8.8,0,0,1,.02.133q.006.078.006.192,0,.174-.009.291a.749.749,0,0,1-.031.18.2.2,0,0,1-.062.094.167.167,0,0,1-.1.027.571.571,0,0,1-.175-.036c-.072-.025-.159-.052-.26-.082a3.079,3.079,0,0,0-.359-.079,2.9,2.9,0,0,0-.476-.034,1.634,1.634,0,0,0-.774.169,1.43,1.43,0,0,0-.513.46,2,2,0,0,0-.288.675,3.725,3.725,0,0,0-.1.813,3.037,3.037,0,0,1,.285-.158,2.158,2.158,0,0,1,.35-.135,3.379,3.379,0,0,1,.409-.094,2.908,2.908,0,0,1,.469-.036,2.651,2.651,0,0,1,.948.152,1.633,1.633,0,0,1,.646.435,1.769,1.769,0,0,1,.37.683A3.1,3.1,0,0,1,48.5,171.735Zm-1.456.141a2.284,2.284,0,0,0-.051-.5A.986.986,0,0,0,46.83,171a.7.7,0,0,0-.3-.225,1.2,1.2,0,0,0-.452-.076,1.689,1.689,0,0,0-.311.028,2.091,2.091,0,0,0-.3.079,2.137,2.137,0,0,0-.282.121,2.788,2.788,0,0,0-.254.15A6.256,6.256,0,0,0,45,172.087a2.02,2.02,0,0,0,.2.641.793.793,0,0,0,.333.336,1.041,1.041,0,0,0,.466.1,1.019,1.019,0,0,0,.455-.1.884.884,0,0,0,.324-.271,1.264,1.264,0,0,0,.2-.409A1.809,1.809,0,0,0,47.045,171.876Z"/><path d="M36.8,205.914a1.181,1.181,0,0,1-.061.457.206.206,0,0,1-.2.13H34.19a.21.21,0,0,1-.2-.133,1.179,1.179,0,0,1-.062-.454,1.139,1.139,0,0,1,.062-.446.21.21,0,0,1,.2-.13h2.349a.2.2,0,0,1,.2.124.6.6,0,0,1,.048.181A2.339,2.339,0,0,1,36.8,205.914Z"/><path d="M42.755,206.653a1.257,1.257,0,0,1-.06.438c-.039.1-.093.15-.161.15h-.65v1.321a.149.149,0,0,1-.033.1.25.25,0,0,1-.119.071,1.024,1.024,0,0,1-.22.042,3.328,3.328,0,0,1-.349.014,3.284,3.284,0,0,1-.342-.014.986.986,0,0,1-.221-.042.228.228,0,0,1-.112-.071.159.159,0,0,1-.031-.1v-1.321H37.663a.473.473,0,0,1-.142-.02.188.188,0,0,1-.1-.091.541.541,0,0,1-.062-.2,2.373,2.373,0,0,1-.02-.353c0-.12,0-.224.008-.313a1.973,1.973,0,0,1,.029-.24,1.1,1.1,0,0,1,.056-.2,2.191,2.191,0,0,1,.093-.2l2.27-4a.226.226,0,0,1,.1-.087.669.669,0,0,1,.19-.062,2.243,2.243,0,0,1,.307-.037c.124-.008.275-.011.452-.011.192,0,.355,0,.491.014a1.921,1.921,0,0,1,.325.045.5.5,0,0,1,.178.076.136.136,0,0,1,.055.108v4.4h.65c.06,0,.112.046.155.138A1.176,1.176,0,0,1,42.755,206.653Zm-2.3-3.957h-.012l-1.925,3.359h1.937Z"/><path d="M48.5,206.794a2.186,2.186,0,0,1-.172.887,1.719,1.719,0,0,1-.508.657,2.316,2.316,0,0,1-.833.407,4.3,4.3,0,0,1-1.147.138,4.252,4.252,0,0,1-1.088-.124,2.234,2.234,0,0,1-.786-.364,1.5,1.5,0,0,1-.473-.593,1.951,1.951,0,0,1-.158-.81,1.828,1.828,0,0,1,.092-.584,1.749,1.749,0,0,1,.277-.508,2.476,2.476,0,0,1,.458-.441,4.5,4.5,0,0,1,.629-.392,3.681,3.681,0,0,1-.52-.341,2.193,2.193,0,0,1-.394-.4,1.6,1.6,0,0,1-.249-.477,1.828,1.828,0,0,1-.084-.565,1.988,1.988,0,0,1,.155-.8,1.694,1.694,0,0,1,.463-.62,2.11,2.11,0,0,1,.77-.4,3.689,3.689,0,0,1,1.072-.141,3.617,3.617,0,0,1,1.037.13,1.933,1.933,0,0,1,.708.366,1.459,1.459,0,0,1,.409.568,1.934,1.934,0,0,1,.133.731,1.588,1.588,0,0,1-.087.516,1.963,1.963,0,0,1-.246.477,2.384,2.384,0,0,1-.39.427,3.154,3.154,0,0,1-.524.364,4.6,4.6,0,0,1,.615.384,2.481,2.481,0,0,1,.457.437,1.827,1.827,0,0,1,.285.5A1.657,1.657,0,0,1,48.5,206.794Zm-1.468.1a1.017,1.017,0,0,0-.07-.381,1.032,1.032,0,0,0-.221-.325,2.08,2.08,0,0,0-.375-.293,5.831,5.831,0,0,0-.526-.288,4.39,4.39,0,0,0-.457.283,1.725,1.725,0,0,0-.327.3,1.116,1.116,0,0,0-.194.327,1.025,1.025,0,0,0-.066.37.815.815,0,0,0,.286.672,1.327,1.327,0,0,0,.849.231,1.235,1.235,0,0,0,.827-.237A.819.819,0,0,0,47.033,206.9Zm-.169-3.646a1.068,1.068,0,0,0-.057-.356.663.663,0,0,0-.177-.269.816.816,0,0,0-.3-.166,1.383,1.383,0,0,0-.42-.056,1,1,0,0,0-.706.217.782.782,0,0,0-.232.6.882.882,0,0,0,.243.621,1.657,1.657,0,0,0,.322.265q.2.13.468.277a2.306,2.306,0,0,0,.635-.519A.95.95,0,0,0,46.864,203.25Z"/><path d="M36.8,240.494a1.179,1.179,0,0,1-.062.457.205.205,0,0,1-.2.13H34.191a.209.209,0,0,1-.2-.133,1.159,1.159,0,0,1-.063-.454,1.122,1.122,0,0,1,.063-.447.21.21,0,0,1,.2-.129H36.54a.22.22,0,0,1,.115.028.227.227,0,0,1,.082.1.6.6,0,0,1,.048.181A2.106,2.106,0,0,1,36.8,240.494Z"/><path d="M42.642,240.9a2.986,2.986,0,0,1-.17,1.024,2.248,2.248,0,0,1-.5.813,2.309,2.309,0,0,1-.806.536,2.928,2.928,0,0,1-1.107.195,3.048,3.048,0,0,1-.887-.116,1.988,1.988,0,0,1-.654-.333,1.782,1.782,0,0,1-.452-.528,3,3,0,0,1-.279-.7,4.837,4.837,0,0,1-.144-.847c-.026-.3-.04-.628-.04-.97,0-.286.015-.586.043-.9a5.388,5.388,0,0,1,.163-.92,4.005,4.005,0,0,1,.342-.861,2.524,2.524,0,0,1,1.408-1.2,3.4,3.4,0,0,1,1.172-.181,3.708,3.708,0,0,1,.432.026,3.953,3.953,0,0,1,.4.065,2.01,2.01,0,0,1,.316.09.668.668,0,0,1,.172.087.281.281,0,0,1,.066.082.549.549,0,0,1,.036.1.71.71,0,0,1,.02.132c0,.053,0,.117,0,.192,0,.117,0,.214-.008.291a.72.72,0,0,1-.031.181.188.188,0,0,1-.062.093.16.16,0,0,1-.1.028.553.553,0,0,1-.175-.037c-.071-.024-.158-.051-.26-.081a2.867,2.867,0,0,0-.358-.079,2.938,2.938,0,0,0-.478-.034,1.62,1.62,0,0,0-.773.169,1.442,1.442,0,0,0-.514.46,2,2,0,0,0-.287.675,3.725,3.725,0,0,0-.1.813,2.719,2.719,0,0,1,.285-.158,2.255,2.255,0,0,1,.35-.136,3.383,3.383,0,0,1,.409-.093,2.9,2.9,0,0,1,.469-.037,2.628,2.628,0,0,1,.948.153,1.638,1.638,0,0,1,.647.434,1.775,1.775,0,0,1,.369.683A3.148,3.148,0,0,1,42.642,240.9Zm-1.457.141a2.179,2.179,0,0,0-.051-.506.958.958,0,0,0-.163-.367.691.691,0,0,0-.3-.225,1.193,1.193,0,0,0-.452-.077,1.679,1.679,0,0,0-.31.029,1.979,1.979,0,0,0-.3.079,2.012,2.012,0,0,0-.282.121,2.7,2.7,0,0,0-.254.15,6.143,6.143,0,0,0,.068,1.007,2.02,2.02,0,0,0,.2.641.787.787,0,0,0,.333.336,1.041,1.041,0,0,0,.466.1,1.015,1.015,0,0,0,.454-.1.9.9,0,0,0,.326-.271,1.3,1.3,0,0,0,.2-.41A1.835,1.835,0,0,0,41.185,241.036Z"/><path d="M48.535,239.652a8.094,8.094,0,0,1-.141,1.581,3.5,3.5,0,0,1-.46,1.2,2.153,2.153,0,0,1-.83.762,3.1,3.1,0,0,1-2.492.008,1.932,1.932,0,0,1-.779-.74,3.355,3.355,0,0,1-.4-1.179,9.72,9.72,0,0,1-.116-1.578,7.871,7.871,0,0,1,.145-1.578,3.477,3.477,0,0,1,.463-1.205,2.144,2.144,0,0,1,.829-.762,3.095,3.095,0,0,1,2.49-.009,1.931,1.931,0,0,1,.781.74,3.3,3.3,0,0,1,.4,1.18A9.844,9.844,0,0,1,48.535,239.652Zm-1.5.074c0-.347-.009-.652-.028-.917a5.422,5.422,0,0,0-.088-.692,2.608,2.608,0,0,0-.146-.5,1.017,1.017,0,0,0-.212-.325.712.712,0,0,0-.282-.171,1.115,1.115,0,0,0-.351-.051.9.9,0,0,0-.55.16,1.073,1.073,0,0,0-.344.483,3.093,3.093,0,0,0-.178.8,10.71,10.71,0,0,0-.051,1.117,10.853,10.853,0,0,0,.063,1.29,2.955,2.955,0,0,0,.194.813.876.876,0,0,0,.342.424,1.1,1.1,0,0,0,.891.05.8.8,0,0,0,.3-.211,1.15,1.15,0,0,0,.211-.356,2.743,2.743,0,0,0,.139-.5,4.808,4.808,0,0,0,.073-.638C47.033,240.273,47.039,240.012,47.039,239.726Z"/><line class="cls-5" x1="70.926" y1="66.532" x2="70.926" y2="240.148"/><line class="cls-5" x1="131.092" y1="66.532" x2="131.092" y2="240.148"/><path d="M63.4,44.129a5,5,0,0,1-.262,1.72,2.932,2.932,0,0,1-.754,1.165,3.015,3.015,0,0,1-1.194.663,5.841,5.841,0,0,1-1.674.212H57.776a.413.413,0,0,1-.44-.469V41.053a.455.455,0,0,1,.127-.359.462.462,0,0,1,.313-.11H59.65a5.251,5.251,0,0,1,1.657.229,3.006,3.006,0,0,1,1.146.677,2.918,2.918,0,0,1,.709,1.11A4.417,4.417,0,0,1,63.4,44.129Zm-1.535.051a3.659,3.659,0,0,0-.121-.965,2.052,2.052,0,0,0-.39-.773,1.808,1.808,0,0,0-.688-.511,2.8,2.8,0,0,0-1.1-.184h-.751v4.968h.774a2.925,2.925,0,0,0,1.027-.158,1.721,1.721,0,0,0,.7-.477,2.062,2.062,0,0,0,.417-.793A3.938,3.938,0,0,0,61.869,44.18Z"/><path d="M66.069,40.957a.8.8,0,0,1-.176.593,1.386,1.386,0,0,1-1.3.005.771.771,0,0,1-.167-.57.812.812,0,0,1,.173-.595,1.36,1.36,0,0,1,1.3-.006A.774.774,0,0,1,66.069,40.957Zm-.107,6.74a.152.152,0,0,1-.035.1.25.25,0,0,1-.115.071,1.108,1.108,0,0,1-.218.042c-.089.009-.2.014-.344.014s-.254-.005-.344-.014a1.108,1.108,0,0,1-.218-.042.244.244,0,0,1-.115-.071.151.151,0,0,1-.034-.1V42.673a.155.155,0,0,1,.034-.1.254.254,0,0,1,.115-.073.94.94,0,0,1,.218-.048,3.489,3.489,0,0,1,.688,0,.94.94,0,0,1,.218.048.259.259,0,0,1,.115.073.155.155,0,0,1,.035.1Z"/><path d="M70.613,43.13c0,.136,0,.247-.011.333a1.068,1.068,0,0,1-.034.2.189.189,0,0,1-.06.1.142.142,0,0,1-.092.028.308.308,0,0,1-.1-.019l-.127-.043c-.047-.015-.1-.029-.155-.042a.831.831,0,0,0-.187-.02.627.627,0,0,0-.237.048,1,1,0,0,0-.245.15,1.857,1.857,0,0,0-.266.271,4.532,4.532,0,0,0-.3.418V47.7a.151.151,0,0,1-.034.1.25.25,0,0,1-.115.071,1.108,1.108,0,0,1-.218.042c-.09.009-.2.014-.345.014s-.253-.005-.343-.014a1.108,1.108,0,0,1-.218-.042.244.244,0,0,1-.115-.071.151.151,0,0,1-.034-.1V42.662a.172.172,0,0,1,.028-.1.2.2,0,0,1,.1-.07.79.79,0,0,1,.19-.043,2.561,2.561,0,0,1,.29-.014,2.719,2.719,0,0,1,.3.014.657.657,0,0,1,.183.043.2.2,0,0,1,.093.07.172.172,0,0,1,.028.1v.627a4.026,4.026,0,0,1,.372-.466,2.285,2.285,0,0,1,.333-.291,1.06,1.06,0,0,1,.317-.15,1.226,1.226,0,0,1,.316-.042,1.525,1.525,0,0,1,.159.009,1.426,1.426,0,0,1,.174.028,1.106,1.106,0,0,1,.159.045.31.31,0,0,1,.1.054.164.164,0,0,1,.045.062.4.4,0,0,1,.025.093,1.28,1.28,0,0,1,.018.178C70.611,42.888,70.613,43,70.613,43.13Z"/><path d="M76.009,45.033a.549.549,0,0,1-.115.384.413.413,0,0,1-.319.124H72.509a2.085,2.085,0,0,0,.077.584,1.092,1.092,0,0,0,.243.446,1.065,1.065,0,0,0,.428.28,1.84,1.84,0,0,0,.63.095,3.528,3.528,0,0,0,.655-.053,4.435,4.435,0,0,0,.488-.119c.138-.043.252-.083.342-.118a.635.635,0,0,1,.22-.054.163.163,0,0,1,.084.02.147.147,0,0,1,.057.07.487.487,0,0,1,.031.144c.006.062.009.141.009.235s0,.153-.006.211a1.506,1.506,0,0,1-.017.15.343.343,0,0,1-.034.1.4.4,0,0,1-.059.082.692.692,0,0,1-.2.108,3.23,3.23,0,0,1-.418.132,5.835,5.835,0,0,1-.581.113,4.856,4.856,0,0,1-.7.048,3.721,3.721,0,0,1-1.176-.169,2.115,2.115,0,0,1-.845-.514,2.142,2.142,0,0,1-.505-.869,4.084,4.084,0,0,1-.166-1.231,3.9,3.9,0,0,1,.175-1.211,2.528,2.528,0,0,1,.508-.914,2.164,2.164,0,0,1,.809-.573,2.788,2.788,0,0,1,1.076-.2,2.821,2.821,0,0,1,1.081.186,1.962,1.962,0,0,1,.737.517,2.086,2.086,0,0,1,.424.782,3.449,3.449,0,0,1,.134.982Zm-1.377-.407a1.461,1.461,0,0,0-.24-.939.924.924,0,0,0-.793-.342,1.038,1.038,0,0,0-.471.1.958.958,0,0,0-.333.274,1.265,1.265,0,0,0-.2.407,2.091,2.091,0,0,0-.082.5Z"/><path d="M80.989,46.9c0,.1,0,.179-.009.245a1.4,1.4,0,0,1-.022.167.5.5,0,0,1-.034.11.425.425,0,0,1-.087.107,1.259,1.259,0,0,1-.232.158,2.27,2.27,0,0,1-.373.167,3.1,3.1,0,0,1-.454.118,2.8,2.8,0,0,1-.505.045,2.748,2.748,0,0,1-1.03-.18,1.926,1.926,0,0,1-.754-.534,2.338,2.338,0,0,1-.46-.861,4.527,4.527,0,0,1,.034-2.469,2.51,2.51,0,0,1,.527-.912,2.1,2.1,0,0,1,.8-.536,2.849,2.849,0,0,1,1.016-.175,2.515,2.515,0,0,1,.849.147,2.092,2.092,0,0,1,.339.152.981.981,0,0,1,.212.147.613.613,0,0,1,.088.1.369.369,0,0,1,.039.11,1.377,1.377,0,0,1,.023.167c.006.066.008.145.008.24a1.3,1.3,0,0,1-.056.46q-.057.132-.147.132a.344.344,0,0,1-.2-.079c-.072-.052-.156-.111-.254-.175a2,2,0,0,0-.35-.175,1.334,1.334,0,0,0-.486-.079.963.963,0,0,0-.846.426,2.206,2.206,0,0,0-.294,1.251,3.134,3.134,0,0,0,.073.717,1.544,1.544,0,0,0,.218.519.922.922,0,0,0,.361.314,1.165,1.165,0,0,0,.5.1,1.313,1.313,0,0,0,.506-.088,2.056,2.056,0,0,0,.369-.2c.105-.071.194-.136.266-.194a.308.308,0,0,1,.18-.088.127.127,0,0,1,.085.029.2.2,0,0,1,.054.1,1.262,1.262,0,0,1,.03.2C80.985,46.67,80.989,46.771,80.989,46.9Z"/><path d="M85,47.2a1.692,1.692,0,0,1-.032.381.405.405,0,0,1-.081.186.457.457,0,0,1-.15.1,1.342,1.342,0,0,1-.231.073,2.274,2.274,0,0,1-.288.048A2.711,2.711,0,0,1,83.9,48a2.268,2.268,0,0,1-.734-.107,1.226,1.226,0,0,1-.514-.331,1.372,1.372,0,0,1-.3-.561,2.962,2.962,0,0,1-.1-.8V43.622h-.6c-.071,0-.126-.045-.163-.133a1.227,1.227,0,0,1-.057-.443,2.175,2.175,0,0,1,.014-.277.652.652,0,0,1,.043-.178.2.2,0,0,1,.07-.093.172.172,0,0,1,.1-.028h.6V41.347a.173.173,0,0,1,.031-.1.236.236,0,0,1,.113-.077.92.92,0,0,1,.221-.044,3.222,3.222,0,0,1,.34-.015,3.335,3.335,0,0,1,.348.015.872.872,0,0,1,.217.044.252.252,0,0,1,.113.077.163.163,0,0,1,.034.1V42.47h1.095a.176.176,0,0,1,.1.028.2.2,0,0,1,.07.093.652.652,0,0,1,.043.178,2.378,2.378,0,0,1,.014.277,1.227,1.227,0,0,1-.057.443c-.037.088-.092.133-.163.133h-1.1v2.365a1.17,1.17,0,0,0,.13.618.5.5,0,0,0,.463.206.963.963,0,0,0,.2-.02,1.2,1.2,0,0,0,.16-.045l.12-.045a.227.227,0,0,1,.087-.02.121.121,0,0,1,.065.02.137.137,0,0,1,.048.079,1.185,1.185,0,0,1,.031.161A2.016,2.016,0,0,1,85,47.2Z"/><path d="M93.919,255.779a2.093,2.093,0,0,1-.015.274.756.756,0,0,1-.042.177.23.23,0,0,1-.071.1.151.151,0,0,1-.093.031H90.029a.461.461,0,0,1-.314-.11.448.448,0,0,1-.126-.358v-6.368a.448.448,0,0,1,.126-.358.461.461,0,0,1,.314-.11h3.646a.146.146,0,0,1,.09.028.224.224,0,0,1,.069.1.812.812,0,0,1,.042.18,2.372,2.372,0,0,1,.014.28,2.249,2.249,0,0,1-.014.268.792.792,0,0,1-.042.178.251.251,0,0,1-.069.1.142.142,0,0,1-.09.03H91.067V252h2.208a.162.162,0,0,1,.093.031.226.226,0,0,1,.07.1.686.686,0,0,1,.043.175,2.249,2.249,0,0,1,.014.268,2.208,2.208,0,0,1-.014.271.668.668,0,0,1-.043.173.2.2,0,0,1-.07.093.174.174,0,0,1-.093.028H91.067v2.06H93.7a.152.152,0,0,1,.093.032.233.233,0,0,1,.071.1.792.792,0,0,1,.042.178A2.093,2.093,0,0,1,93.919,255.779Z"/><path d="M99.281,256.186a.151.151,0,0,1-.057.124.4.4,0,0,1-.177.065,3.505,3.505,0,0,1-.729,0,.32.32,0,0,1-.163-.065.165.165,0,0,1-.049-.124v-.4a2.276,2.276,0,0,1-.708.519,2.061,2.061,0,0,1-.884.186,2.461,2.461,0,0,1-.736-.1,1.647,1.647,0,0,1-.581-.311,1.4,1.4,0,0,1-.382-.511,1.741,1.741,0,0,1-.135-.711,1.611,1.611,0,0,1,.172-.765,1.394,1.394,0,0,1,.514-.536,2.541,2.541,0,0,1,.849-.313,6.051,6.051,0,0,1,1.18-.1h.491v-.305a1.607,1.607,0,0,0-.047-.415.7.7,0,0,0-.159-.3.643.643,0,0,0-.294-.175,1.549,1.549,0,0,0-.454-.056,2.369,2.369,0,0,0-.635.078,3.692,3.692,0,0,0-.494.176c-.142.064-.262.122-.358.174a.52.52,0,0,1-.234.079.173.173,0,0,1-.111-.039.31.31,0,0,1-.079-.113.855.855,0,0,1-.048-.181,1.7,1.7,0,0,1-.016-.237,1.026,1.026,0,0,1,.028-.276.437.437,0,0,1,.107-.184,1.053,1.053,0,0,1,.277-.18,3.306,3.306,0,0,1,.463-.184,4.378,4.378,0,0,1,.578-.138,3.805,3.805,0,0,1,.646-.054,3.865,3.865,0,0,1,1.014.116,1.7,1.7,0,0,1,.691.356,1.372,1.372,0,0,1,.4.618,2.909,2.909,0,0,1,.124.9Zm-1.4-2.157h-.542a2.912,2.912,0,0,0-.587.051,1.144,1.144,0,0,0-.4.152.627.627,0,0,0-.223.246.741.741,0,0,0-.07.33.634.634,0,0,0,.2.5.8.8,0,0,0,.556.18,1.039,1.039,0,0,0,.551-.152,2.269,2.269,0,0,0,.51-.446Z"/><path d="M103.932,251.6c0,.135,0,.246-.01.333a1.058,1.058,0,0,1-.035.2.189.189,0,0,1-.059.1.147.147,0,0,1-.093.029.321.321,0,0,1-.1-.02l-.127-.042a1.477,1.477,0,0,0-.155-.043.825.825,0,0,0-.186-.019.651.651,0,0,0-.238.047,1.031,1.031,0,0,0-.245.15,1.805,1.805,0,0,0-.265.271,4.348,4.348,0,0,0-.3.418v3.138a.156.156,0,0,1-.034.1.259.259,0,0,1-.116.071,1.028,1.028,0,0,1-.217.042,4.246,4.246,0,0,1-.689,0,1.039,1.039,0,0,1-.218-.042.255.255,0,0,1-.115-.071.156.156,0,0,1-.034-.1v-5.035a.18.18,0,0,1,.028-.1.2.2,0,0,1,.1-.07.83.83,0,0,1,.189-.043,2.561,2.561,0,0,1,.29-.014,2.719,2.719,0,0,1,.3.014.7.7,0,0,1,.184.043.2.2,0,0,1,.092.07.172.172,0,0,1,.029.1v.627a4.026,4.026,0,0,1,.372-.466,2.186,2.186,0,0,1,.333-.291,1.052,1.052,0,0,1,.316-.149,1.192,1.192,0,0,1,.317-.043,1.522,1.522,0,0,1,.158.009,1.473,1.473,0,0,1,.175.028,1.128,1.128,0,0,1,.158.045.3.3,0,0,1,.1.054.154.154,0,0,1,.045.062.452.452,0,0,1,.026.093,1.351,1.351,0,0,1,.017.178C103.93,251.359,103.932,251.466,103.932,251.6Z"/><path d="M106.23,256.168a.156.156,0,0,1-.034.1.261.261,0,0,1-.115.071,1.039,1.039,0,0,1-.218.042,4.246,4.246,0,0,1-.689,0,1.028,1.028,0,0,1-.217-.042.254.254,0,0,1-.116-.071.156.156,0,0,1-.034-.1v-7.423a.168.168,0,0,1,.034-.1.25.25,0,0,1,.116-.077.991.991,0,0,1,.217-.047,3.306,3.306,0,0,1,.689,0,1,1,0,0,1,.218.047.257.257,0,0,1,.115.077.168.168,0,0,1,.034.1Z"/><path d="M110.565,256.36l-.609,1.784a.369.369,0,0,1-.277.2,2.678,2.678,0,0,1-.661.062,2.647,2.647,0,0,1-.361-.02.519.519,0,0,1-.2-.065.152.152,0,0,1-.074-.113.37.37,0,0,1,.035-.164l.672-1.688a.372.372,0,0,1-.133-.1.462.462,0,0,1-.088-.15l-1.733-4.628a.963.963,0,0,1-.074-.3.206.206,0,0,1,.069-.163.434.434,0,0,1,.228-.082,3.2,3.2,0,0,1,.426-.023q.243,0,.384.009a.674.674,0,0,1,.22.042.243.243,0,0,1,.119.1,1.118,1.118,0,0,1,.079.2l1.185,3.37h.017l1.084-3.438a.376.376,0,0,1,.088-.195.359.359,0,0,1,.177-.07,2.811,2.811,0,0,1,.435-.023,2.962,2.962,0,0,1,.4.023.478.478,0,0,1,.238.085.2.2,0,0,1,.076.166.832.832,0,0,1-.045.246Z"/><path d="M95.312,266.474a5,5,0,0,1-.262,1.719,2.923,2.923,0,0,1-.753,1.166,3.026,3.026,0,0,1-1.195.663,5.841,5.841,0,0,1-1.674.212H89.684a.464.464,0,0,1-.313-.11.455.455,0,0,1-.127-.359V263.4a.454.454,0,0,1,.127-.358.464.464,0,0,1,.313-.11h1.874a5.218,5.218,0,0,1,1.657.229,3,3,0,0,1,1.146.677,2.9,2.9,0,0,1,.709,1.109A4.427,4.427,0,0,1,95.312,266.474Zm-1.535.051a3.659,3.659,0,0,0-.121-.965,2.052,2.052,0,0,0-.39-.773,1.8,1.8,0,0,0-.688-.512,2.8,2.8,0,0,0-1.1-.183h-.751v4.968H91.5a2.925,2.925,0,0,0,1.027-.158,1.731,1.731,0,0,0,.7-.477,2.046,2.046,0,0,0,.417-.794A3.931,3.931,0,0,0,93.777,266.525Z"/><path d="M101.1,267.377a.546.546,0,0,1-.115.384.415.415,0,0,1-.319.125H97.6a2.124,2.124,0,0,0,.076.584,1.112,1.112,0,0,0,.244.446,1.063,1.063,0,0,0,.428.279,1.839,1.839,0,0,0,.63.1,3.5,3.5,0,0,0,.654-.054,4.2,4.2,0,0,0,.489-.118c.137-.043.252-.083.342-.119a.648.648,0,0,1,.22-.053.166.166,0,0,1,.084.02.142.142,0,0,1,.057.07.487.487,0,0,1,.031.144c.006.062.009.14.009.235s0,.153-.006.211-.01.108-.017.15a.343.343,0,0,1-.034.1.4.4,0,0,1-.059.082.7.7,0,0,1-.2.107,3.215,3.215,0,0,1-.418.133,5.835,5.835,0,0,1-.581.113,4.856,4.856,0,0,1-.7.048,3.687,3.687,0,0,1-1.176-.17,2.1,2.1,0,0,1-.845-.513,2.142,2.142,0,0,1-.505-.869,4.093,4.093,0,0,1-.166-1.231,3.9,3.9,0,0,1,.175-1.211,2.52,2.52,0,0,1,.508-.914,2.178,2.178,0,0,1,.809-.574,2.785,2.785,0,0,1,1.076-.2,2.821,2.821,0,0,1,1.081.186,1.951,1.951,0,0,1,.737.517,2.089,2.089,0,0,1,.424.781,3.461,3.461,0,0,1,.134.983Zm-1.377-.406a1.464,1.464,0,0,0-.24-.94.926.926,0,0,0-.793-.342,1.042,1.042,0,0,0-.472.1.977.977,0,0,0-.333.274,1.273,1.273,0,0,0-.2.407,2.034,2.034,0,0,0-.082.5Z"/><path d="M103.69,270.042a.158.158,0,0,1-.034.1.26.26,0,0,1-.115.07.979.979,0,0,1-.218.042,3.964,3.964,0,0,1-.689,0,.968.968,0,0,1-.217-.042.253.253,0,0,1-.116-.07.158.158,0,0,1-.034-.1v-7.423a.169.169,0,0,1,.034-.1.249.249,0,0,1,.116-.076.93.93,0,0,1,.217-.048,3.5,3.5,0,0,1,.689,0,.94.94,0,0,1,.218.048.256.256,0,0,1,.115.076.169.169,0,0,1,.034.1Z"/><path d="M109.4,270.059a.146.146,0,0,1-.057.124.384.384,0,0,1-.177.065,2.427,2.427,0,0,1-.359.02,2.458,2.458,0,0,1-.37-.02.312.312,0,0,1-.163-.065.162.162,0,0,1-.049-.124v-.4a2.276,2.276,0,0,1-.708.519,2.044,2.044,0,0,1-.884.187,2.461,2.461,0,0,1-.736-.1,1.67,1.67,0,0,1-.581-.31,1.4,1.4,0,0,1-.382-.511,1.741,1.741,0,0,1-.134-.711,1.605,1.605,0,0,1,.171-.765,1.411,1.411,0,0,1,.514-.537,2.569,2.569,0,0,1,.85-.313,6.046,6.046,0,0,1,1.179-.1H108v-.305a1.6,1.6,0,0,0-.048-.415.7.7,0,0,0-.158-.3.659.659,0,0,0-.294-.176,1.6,1.6,0,0,0-.455-.056,2.354,2.354,0,0,0-.634.079,3.6,3.6,0,0,0-.494.175c-.143.064-.263.122-.359.175a.52.52,0,0,1-.234.079.17.17,0,0,1-.111-.04.315.315,0,0,1-.079-.112.871.871,0,0,1-.048-.181,1.7,1.7,0,0,1-.016-.237,1.072,1.072,0,0,1,.028-.277.42.42,0,0,1,.108-.183,1.05,1.05,0,0,1,.276-.181,3.306,3.306,0,0,1,.463-.184,4.417,4.417,0,0,1,.578-.138,4.291,4.291,0,0,1,1.66.062,1.713,1.713,0,0,1,.692.356,1.39,1.39,0,0,1,.395.618,2.916,2.916,0,0,1,.124.9ZM108,267.9h-.542a2.9,2.9,0,0,0-.587.051,1.149,1.149,0,0,0-.4.152.635.635,0,0,0-.223.246.756.756,0,0,0-.07.331.635.635,0,0,0,.2.5.8.8,0,0,0,.556.181,1.048,1.048,0,0,0,.551-.152,2.319,2.319,0,0,0,.511-.446Z"/><path d="M113.524,270.234l-.61,1.784a.366.366,0,0,1-.277.2,2.669,2.669,0,0,1-.66.062,2.636,2.636,0,0,1-.361-.02.483.483,0,0,1-.2-.065.144.144,0,0,1-.074-.113.365.365,0,0,1,.034-.163l.672-1.688a.384.384,0,0,1-.133-.1.462.462,0,0,1-.087-.149l-1.734-4.629a.979.979,0,0,1-.073-.3.208.208,0,0,1,.068-.164.451.451,0,0,1,.228-.082,3.245,3.245,0,0,1,.427-.022c.161,0,.29,0,.384.008a.67.67,0,0,1,.219.043.241.241,0,0,1,.12.1,1.134,1.134,0,0,1,.079.2l1.185,3.37h.017l1.084-3.437a.377.377,0,0,1,.087-.195.367.367,0,0,1,.177-.071,2.863,2.863,0,0,1,.436-.022,3,3,0,0,1,.4.022.487.487,0,0,1,.238.085.207.207,0,0,1,.076.167.831.831,0,0,1-.046.245Z"/><path d="M148.037,255.739a2.257,2.257,0,0,1-.015.285.834.834,0,0,1-.042.193.243.243,0,0,1-.07.11.154.154,0,0,1-.1.033h-3.347a.464.464,0,0,1-.314-.109.452.452,0,0,1-.127-.359v-6.633a.163.163,0,0,1,.036-.1.267.267,0,0,1,.122-.073,1.152,1.152,0,0,1,.229-.045,3.82,3.82,0,0,1,.72,0,1.166,1.166,0,0,1,.225.045.253.253,0,0,1,.121.073.158.158,0,0,1,.037.1v5.877h2.3a.164.164,0,0,1,.1.031.225.225,0,0,1,.07.1.727.727,0,0,1,.042.185A2.291,2.291,0,0,1,148.037,255.739Z"/><path d="M153.117,256.186a.154.154,0,0,1-.056.124.4.4,0,0,1-.179.065,2.412,2.412,0,0,1-.358.02,2.451,2.451,0,0,1-.369-.02.328.328,0,0,1-.164-.065.164.164,0,0,1-.048-.124v-.4a2.288,2.288,0,0,1-.708.519,2.053,2.053,0,0,1-.884.186,2.468,2.468,0,0,1-.737-.1,1.656,1.656,0,0,1-.581-.311,1.381,1.381,0,0,1-.381-.511,1.723,1.723,0,0,1-.136-.71,1.617,1.617,0,0,1,.172-.765,1.393,1.393,0,0,1,.515-.537,2.565,2.565,0,0,1,.848-.313,6.068,6.068,0,0,1,1.181-.1h.491v-.306a1.552,1.552,0,0,0-.049-.414.684.684,0,0,0-.157-.3.654.654,0,0,0-.294-.175,1.549,1.549,0,0,0-.454-.056,2.335,2.335,0,0,0-.636.079,3.593,3.593,0,0,0-.493.175c-.143.064-.262.122-.359.174a.52.52,0,0,1-.234.079.163.163,0,0,1-.11-.039.288.288,0,0,1-.079-.113.8.8,0,0,1-.048-.181,1.434,1.434,0,0,1-.017-.237,1.068,1.068,0,0,1,.028-.276.437.437,0,0,1,.107-.184,1.079,1.079,0,0,1,.277-.18,3.306,3.306,0,0,1,.463-.184,4.357,4.357,0,0,1,.579-.138,3.8,3.8,0,0,1,.646-.053,3.909,3.909,0,0,1,1.013.115,1.707,1.707,0,0,1,.692.356,1.379,1.379,0,0,1,.395.618,2.881,2.881,0,0,1,.124.9Zm-1.394-2.157h-.542a2.909,2.909,0,0,0-.588.051,1.138,1.138,0,0,0-.394.152.638.638,0,0,0-.224.246.742.742,0,0,0-.07.331.635.635,0,0,0,.2.5.8.8,0,0,0,.557.18,1.036,1.036,0,0,0,.55-.152,2.312,2.312,0,0,0,.511-.445Z"/><path d="M157.408,255.672a1.819,1.819,0,0,1-.031.381.41.41,0,0,1-.082.186.452.452,0,0,1-.15.1,1.37,1.37,0,0,1-.231.073,2.331,2.331,0,0,1-.288.049,2.974,2.974,0,0,1-.314.017,2.233,2.233,0,0,1-.733-.108,1.215,1.215,0,0,1-.514-.33,1.38,1.38,0,0,1-.3-.561,3.016,3.016,0,0,1-.095-.8v-2.58h-.6a.179.179,0,0,1-.164-.133,1.217,1.217,0,0,1-.057-.442,2.16,2.16,0,0,1,.015-.278.656.656,0,0,1,.042-.178.208.208,0,0,1,.07-.092.177.177,0,0,1,.1-.029h.6v-1.123a.168.168,0,0,1,.031-.1.231.231,0,0,1,.113-.077.86.86,0,0,1,.22-.045c.092-.009.206-.014.342-.014s.254.005.346.014a.824.824,0,0,1,.218.045.248.248,0,0,1,.112.077.153.153,0,0,1,.035.1v1.123h1.095a.175.175,0,0,1,.1.029.2.2,0,0,1,.07.092.656.656,0,0,1,.042.178,2.16,2.16,0,0,1,.015.278,1.239,1.239,0,0,1-.057.442c-.038.089-.093.133-.164.133h-1.1v2.365a1.181,1.181,0,0,0,.129.618.5.5,0,0,0,.463.206,1.031,1.031,0,0,0,.2-.019,1.656,1.656,0,0,0,.162-.045c.046-.018.086-.032.118-.046a.236.236,0,0,1,.088-.02.118.118,0,0,1,.064.02.134.134,0,0,1,.048.079,1.1,1.1,0,0,1,.031.161A1.828,1.828,0,0,1,157.408,255.672Z"/><path d="M162.945,253.5a.546.546,0,0,1-.115.384.416.416,0,0,1-.32.125h-3.065a2.086,2.086,0,0,0,.076.584,1.118,1.118,0,0,0,.243.445,1.058,1.058,0,0,0,.429.28,1.839,1.839,0,0,0,.63.1,3.5,3.5,0,0,0,.654-.054,4.342,4.342,0,0,0,.488-.118c.138-.044.252-.083.342-.119a.658.658,0,0,1,.221-.054.159.159,0,0,1,.084.021.143.143,0,0,1,.057.07.513.513,0,0,1,.031.144q.009.093.009.234c0,.083,0,.153-.006.212a1.242,1.242,0,0,1-.018.149.36.36,0,0,1-.033.1.439.439,0,0,1-.06.082.693.693,0,0,1-.2.107,3.18,3.18,0,0,1-.418.132,5.511,5.511,0,0,1-.581.113,4.7,4.7,0,0,1-.7.048,3.7,3.7,0,0,1-1.177-.169,2.1,2.1,0,0,1-.844-.513,2.14,2.14,0,0,1-.5-.87,4.052,4.052,0,0,1-.166-1.231,3.909,3.909,0,0,1,.174-1.211,2.558,2.558,0,0,1,.508-.914,2.19,2.19,0,0,1,.81-.573,2.785,2.785,0,0,1,1.076-.2,2.824,2.824,0,0,1,1.081.186,1.939,1.939,0,0,1,.736.517,2.068,2.068,0,0,1,.424.781,3.423,3.423,0,0,1,.135.982Zm-1.377-.406a1.464,1.464,0,0,0-.24-.94.928.928,0,0,0-.793-.342,1.042,1.042,0,0,0-.472.1.965.965,0,0,0-.333.273,1.268,1.268,0,0,0-.2.408,2.034,2.034,0,0,0-.082.5Z"/><path d="M146.718,266.475a5.012,5.012,0,0,1-.261,1.718,2.928,2.928,0,0,1-.754,1.166,3.019,3.019,0,0,1-1.195.663,5.834,5.834,0,0,1-1.673.212H141.09a.464.464,0,0,1-.313-.11.451.451,0,0,1-.127-.358V263.4a.454.454,0,0,1,.127-.358.463.463,0,0,1,.313-.109h1.874a5.255,5.255,0,0,1,1.658.228,3.007,3.007,0,0,1,1.145.677,2.91,2.91,0,0,1,.709,1.109A4.428,4.428,0,0,1,146.718,266.475Zm-1.535.05a3.659,3.659,0,0,0-.121-.965,2.052,2.052,0,0,0-.39-.773,1.8,1.8,0,0,0-.688-.512,2.8,2.8,0,0,0-1.1-.183h-.75v4.968h.773a2.925,2.925,0,0,0,1.027-.158,1.715,1.715,0,0,0,.7-.477,2.076,2.076,0,0,0,.417-.793A3.982,3.982,0,0,0,145.183,266.525Z"/><path d="M152.505,267.378a.549.549,0,0,1-.116.384.413.413,0,0,1-.319.124h-3.065a2.081,2.081,0,0,0,.076.584,1.1,1.1,0,0,0,.243.446,1.05,1.05,0,0,0,.429.279,1.805,1.805,0,0,0,.629.1,3.521,3.521,0,0,0,.655-.054,4.234,4.234,0,0,0,.488-.118c.138-.043.252-.083.342-.118a.635.635,0,0,1,.221-.054.168.168,0,0,1,.084.02.145.145,0,0,1,.056.07.458.458,0,0,1,.031.145q.009.091.009.234c0,.082,0,.153-.006.211a1.282,1.282,0,0,1-.017.15.364.364,0,0,1-.033.1.452.452,0,0,1-.06.082.683.683,0,0,1-.2.107,3.215,3.215,0,0,1-.418.133,5.779,5.779,0,0,1-.581.113,4.842,4.842,0,0,1-.7.048,3.666,3.666,0,0,1-1.177-.17,2.1,2.1,0,0,1-.845-.513,2.154,2.154,0,0,1-.5-.869,4.084,4.084,0,0,1-.166-1.231,3.9,3.9,0,0,1,.175-1.211,2.528,2.528,0,0,1,.508-.914,2.175,2.175,0,0,1,.809-.573,2.79,2.79,0,0,1,1.077-.2,2.828,2.828,0,0,1,1.081.186,1.958,1.958,0,0,1,.736.517,2.086,2.086,0,0,1,.424.782,3.413,3.413,0,0,1,.135.982Zm-1.377-.406a1.472,1.472,0,0,0-.241-.941.929.929,0,0,0-.793-.342,1.038,1.038,0,0,0-.471.1.967.967,0,0,0-.333.274,1.233,1.233,0,0,0-.2.407,2,2,0,0,0-.082.5Z"/><path d="M155.1,270.042a.153.153,0,0,1-.034.1.258.258,0,0,1-.115.071,1.108,1.108,0,0,1-.218.042,4.233,4.233,0,0,1-.688,0,1.108,1.108,0,0,1-.218-.042.252.252,0,0,1-.115-.071.154.154,0,0,1-.035-.1v-7.423a.161.161,0,0,1,.035-.1.241.241,0,0,1,.115-.077.946.946,0,0,1,.218-.047,3.3,3.3,0,0,1,.688,0,.946.946,0,0,1,.218.047.246.246,0,0,1,.115.077.16.16,0,0,1,.034.1Z"/><path d="M160.8,270.06a.151.151,0,0,1-.056.124.389.389,0,0,1-.178.064,2.289,2.289,0,0,1-.358.02,2.352,2.352,0,0,1-.371-.02.316.316,0,0,1-.163-.064.164.164,0,0,1-.048-.124v-.4a2.275,2.275,0,0,1-.708.52,2.065,2.065,0,0,1-.884.186,2.5,2.5,0,0,1-.737-.1,1.672,1.672,0,0,1-.581-.311,1.381,1.381,0,0,1-.381-.511,1.741,1.741,0,0,1-.135-.711,1.6,1.6,0,0,1,.172-.765,1.392,1.392,0,0,1,.513-.536,2.547,2.547,0,0,1,.85-.314,6.129,6.129,0,0,1,1.18-.1h.491v-.305a1.6,1.6,0,0,0-.048-.415.692.692,0,0,0-.158-.3.653.653,0,0,0-.294-.176,1.591,1.591,0,0,0-.454-.055,2.359,2.359,0,0,0-.635.078,3.466,3.466,0,0,0-.494.176c-.143.063-.263.122-.359.174a.513.513,0,0,1-.234.079.166.166,0,0,1-.11-.04.284.284,0,0,1-.079-.112.749.749,0,0,1-.048-.181,1.552,1.552,0,0,1-.017-.237,1.063,1.063,0,0,1,.028-.276.423.423,0,0,1,.108-.184,1.044,1.044,0,0,1,.276-.18,3.188,3.188,0,0,1,.463-.184,4.259,4.259,0,0,1,.578-.139,3.914,3.914,0,0,1,.647-.053,3.862,3.862,0,0,1,1.013.116,1.706,1.706,0,0,1,.692.355,1.39,1.39,0,0,1,.4.618,2.916,2.916,0,0,1,.124.9Zm-1.394-2.158h-.542a2.972,2.972,0,0,0-.587.051,1.149,1.149,0,0,0-.4.152.642.642,0,0,0-.222.247.738.738,0,0,0-.071.33.635.635,0,0,0,.2.5.8.8,0,0,0,.555.18,1.039,1.039,0,0,0,.551-.152,2.319,2.319,0,0,0,.511-.446Z"/><path d="M164.93,270.234l-.61,1.784a.368.368,0,0,1-.276.2,2.693,2.693,0,0,1-.661.061,2.837,2.837,0,0,1-.361-.019.5.5,0,0,1-.2-.066.143.143,0,0,1-.073-.112.364.364,0,0,1,.033-.164l.672-1.688a.381.381,0,0,1-.133-.1.5.5,0,0,1-.087-.15l-1.733-4.628a.963.963,0,0,1-.074-.3.2.2,0,0,1,.068-.163.436.436,0,0,1,.228-.082,3.056,3.056,0,0,1,.427-.023c.161,0,.29,0,.384.008a.7.7,0,0,1,.22.043.245.245,0,0,1,.119.105,1.074,1.074,0,0,1,.079.2l1.185,3.37h.017l1.084-3.438a.385.385,0,0,1,.087-.195.362.362,0,0,1,.178-.07,2.687,2.687,0,0,1,.435-.023,2.852,2.852,0,0,1,.4.023.468.468,0,0,1,.237.085.2.2,0,0,1,.076.166.842.842,0,0,1-.046.246Z"/><line class="cls-6" x1="70.921" y1="242.583" x2="70.921" y2="246.083"/><line class="cls-6" x1="129.092" y1="246.083" x2="70.787" y2="246.083"/><line class="cls-6" x1="129.092" y1="246.083" x2="129.092" y2="242.583"/><line class="cls-5" x1="134.87" y1="74.281" x2="134.87" y2="240.148"/><line class="cls-5" x1="139.315" y1="84" x2="139.315" y2="240.148"/><line class="cls-5" x1="143.016" y1="69.333" x2="143.016" y2="240.148"/><line class="cls-5" x1="169.092" y1="71.333" x2="169.092" y2="240.148"/><line class="cls-5" x1="163.262" y1="84" x2="163.262" y2="240.148"/><line class="cls-5" x1="157.871" y1="80.444" x2="157.871" y2="240.148"/><line class="cls-5" x1="153.798" y1="93.111" x2="153.798" y2="240.148"/><line class="cls-7" x1="131.183" y1="59.627" x2="131.183" y2="57.178"/><line class="cls-7" x1="170.648" y1="57.178" x2="131.092" y2="57.178"/><line class="cls-7" x1="170.648" y1="57.178" x2="170.648" y2="59.627"/><line class="cls-6" x1="70.926" y1="50.954" x2="70.926" y2="61.731"/><path d="M113.731,47.824a.236.236,0,0,1-.022.105.182.182,0,0,1-.108.07,1.059,1.059,0,0,1-.248.04c-.109.007-.258.011-.446.011-.158,0-.284,0-.378-.011a.884.884,0,0,1-.223-.042.251.251,0,0,1-.116-.08.493.493,0,0,1-.057-.115l-.654-1.632q-.118-.276-.231-.491a1.564,1.564,0,0,0-.252-.358.922.922,0,0,0-.319-.218,1.1,1.1,0,0,0-.418-.073H109.8v2.783a.156.156,0,0,1-.037.1.262.262,0,0,1-.122.073,1.15,1.15,0,0,1-.225.045,3.82,3.82,0,0,1-.72,0,1.168,1.168,0,0,1-.229-.045.251.251,0,0,1-.119-.073.17.17,0,0,1-.033-.1V41.18a.452.452,0,0,1,.127-.359.466.466,0,0,1,.314-.11h1.89c.193,0,.351,0,.475.012s.237.017.339.028a3.1,3.1,0,0,1,.793.214,1.908,1.908,0,0,1,.6.4,1.664,1.664,0,0,1,.376.582,2.117,2.117,0,0,1,.13.77,2.23,2.23,0,0,1-.094.669,1.7,1.7,0,0,1-.273.539,1.762,1.762,0,0,1-.446.412,2.42,2.42,0,0,1-.6.283,1.586,1.586,0,0,1,.308.192,1.625,1.625,0,0,1,.27.273,2.743,2.743,0,0,1,.241.367,5.007,5.007,0,0,1,.22.466l.615,1.439c.056.144.094.248.113.314A.646.646,0,0,1,113.731,47.824Zm-1.913-4.956a1.087,1.087,0,0,0-.164-.61.894.894,0,0,0-.536-.35,1.969,1.969,0,0,0-.257-.045,3.7,3.7,0,0,0-.4-.017H109.8v2.072h.756a1.807,1.807,0,0,0,.553-.076,1.122,1.122,0,0,0,.4-.215.882.882,0,0,0,.237-.33A1.112,1.112,0,0,0,111.818,42.868Z"/><path d="M119.218,45.16a.545.545,0,0,1-.116.383.413.413,0,0,1-.318.125h-3.066a2.085,2.085,0,0,0,.077.584,1.1,1.1,0,0,0,.242.446,1.069,1.069,0,0,0,.429.28,1.838,1.838,0,0,0,.629.095,3.539,3.539,0,0,0,.656-.053,4.55,4.55,0,0,0,.488-.119c.137-.043.251-.083.342-.118a.626.626,0,0,1,.219-.054.164.164,0,0,1,.085.02.153.153,0,0,1,.057.07.46.46,0,0,1,.03.144c.006.062.009.141.009.235s0,.153-.006.211-.009.109-.016.15a.343.343,0,0,1-.035.1.362.362,0,0,1-.058.082.747.747,0,0,1-.2.108,3.372,3.372,0,0,1-.417.132,5.858,5.858,0,0,1-.582.113,4.836,4.836,0,0,1-.7.048,3.73,3.73,0,0,1-1.176-.169,2.1,2.1,0,0,1-.844-.514,2.131,2.131,0,0,1-.5-.869,4.086,4.086,0,0,1-.167-1.231,3.934,3.934,0,0,1,.175-1.211,2.535,2.535,0,0,1,.508-.914,2.168,2.168,0,0,1,.81-.573,3.122,3.122,0,0,1,2.156-.012,1.958,1.958,0,0,1,.738.517,2.084,2.084,0,0,1,.423.782,3.413,3.413,0,0,1,.135.982Zm-1.378-.407a1.458,1.458,0,0,0-.239-.94.928.928,0,0,0-.794-.341,1.037,1.037,0,0,0-.47.1.949.949,0,0,0-.333.274,1.245,1.245,0,0,0-.2.407,2.042,2.042,0,0,0-.082.5Z"/><path d="M125.281,47.824a.156.156,0,0,1-.034.1.253.253,0,0,1-.113.071,1.039,1.039,0,0,1-.217.042c-.092.009-.206.014-.342.014s-.255,0-.347-.014a1.065,1.065,0,0,1-.218-.042.255.255,0,0,1-.112-.071.156.156,0,0,1-.034-.1V41.287a.108.108,0,0,1-.048.051.158.158,0,0,1-.076.017.8.8,0,0,1-.164-.022c-.068-.016-.143-.03-.226-.043s-.165-.022-.245-.028-.161-.009-.24-.009a1.5,1.5,0,0,0-.424.051.607.607,0,0,0-.268.155.579.579,0,0,0-.138.274,1.745,1.745,0,0,0-.039.4V42.6h.835a.166.166,0,0,1,.1.028.214.214,0,0,1,.072.093.741.741,0,0,1,.042.178,2.365,2.365,0,0,1,.014.277,1.255,1.255,0,0,1-.056.443c-.038.088-.093.133-.164.133H122v4.075a.156.156,0,0,1-.034.1.257.257,0,0,1-.114.071,1.039,1.039,0,0,1-.217.042c-.092.009-.208.014-.347.014s-.249,0-.341-.014a1.115,1.115,0,0,1-.221-.042.228.228,0,0,1-.112-.071.16.16,0,0,1-.031-.1V43.749h-.633c-.071,0-.125-.045-.16-.133a1.29,1.29,0,0,1-.054-.443,2.365,2.365,0,0,1,.014-.277.706.706,0,0,1,.04-.178.188.188,0,0,1,.067-.093.174.174,0,0,1,.1-.028h.627v-.435a3.2,3.2,0,0,1,.112-.894,1.541,1.541,0,0,1,.359-.644,1.522,1.522,0,0,1,.621-.384,2.836,2.836,0,0,1,.906-.127c.1,0,.21,0,.325.012s.227.017.335.03.2.029.283.046a1.279,1.279,0,0,1,.186.05.334.334,0,0,1,.107.06.191.191,0,0,1,.057.084.2.2,0,0,1,.031-.09.236.236,0,0,1,.1-.074.761.761,0,0,1,.209-.053,2.736,2.736,0,0,1,.369-.02,2.943,2.943,0,0,1,.342.017.988.988,0,0,1,.217.048.257.257,0,0,1,.113.076.171.171,0,0,1,.034.1Z"/><path d="M131.361,45.16a.545.545,0,0,1-.116.383.415.415,0,0,1-.319.125h-3.065a2.086,2.086,0,0,0,.076.584,1.126,1.126,0,0,0,.242.446,1.072,1.072,0,0,0,.43.28,1.838,1.838,0,0,0,.629.095,3.52,3.52,0,0,0,.655-.053,4.435,4.435,0,0,0,.488-.119c.137-.043.251-.083.342-.118a.625.625,0,0,1,.22-.054.17.17,0,0,1,.085.02.159.159,0,0,1,.057.07.491.491,0,0,1,.03.144c.006.062.009.141.009.235s0,.153-.006.211a1.257,1.257,0,0,1-.017.15.343.343,0,0,1-.034.1.368.368,0,0,1-.059.082.713.713,0,0,1-.2.108,3.317,3.317,0,0,1-.417.132,5.8,5.8,0,0,1-.582.113,4.822,4.822,0,0,1-.7.048,3.737,3.737,0,0,1-1.177-.169,2.093,2.093,0,0,1-.843-.514,2.131,2.131,0,0,1-.5-.869,4.055,4.055,0,0,1-.167-1.231,3.935,3.935,0,0,1,.174-1.211,2.565,2.565,0,0,1,.508-.914,2.171,2.171,0,0,1,.811-.573,2.783,2.783,0,0,1,1.075-.2,2.817,2.817,0,0,1,1.081.186,1.946,1.946,0,0,1,.737.517,2.07,2.07,0,0,1,.423.782,3.378,3.378,0,0,1,.136.982Zm-1.378-.407a1.458,1.458,0,0,0-.239-.94.929.929,0,0,0-.794-.341,1.041,1.041,0,0,0-.471.1.958.958,0,0,0-.333.274,1.243,1.243,0,0,0-.2.407,2,2,0,0,0-.082.5Z"/><path d="M136.339,47.022c0,.1,0,.18-.007.246a1.611,1.611,0,0,1-.023.167.556.556,0,0,1-.034.11.412.412,0,0,1-.088.107,1.244,1.244,0,0,1-.231.158,2.336,2.336,0,0,1-.372.167,3.162,3.162,0,0,1-.454.118,2.818,2.818,0,0,1-.506.045,2.737,2.737,0,0,1-1.031-.181,1.932,1.932,0,0,1-.753-.533,2.324,2.324,0,0,1-.46-.861,3.959,3.959,0,0,1-.156-1.163,4.025,4.025,0,0,1,.19-1.306,2.483,2.483,0,0,1,.528-.912,2.105,2.105,0,0,1,.8-.537,2.863,2.863,0,0,1,1.016-.174,2.519,2.519,0,0,1,.444.039,2.562,2.562,0,0,1,.406.108,2.132,2.132,0,0,1,.339.152,1.081,1.081,0,0,1,.212.146.638.638,0,0,1,.087.105.4.4,0,0,1,.04.11,1.642,1.642,0,0,1,.022.167c0,.066.008.145.008.24a1.324,1.324,0,0,1-.056.46q-.057.132-.147.132a.344.344,0,0,1-.2-.079c-.072-.053-.156-.111-.254-.175a1.934,1.934,0,0,0-.35-.175,1.332,1.332,0,0,0-.485-.079.969.969,0,0,0-.848.426,2.211,2.211,0,0,0-.293,1.251,3.13,3.13,0,0,0,.074.717,1.5,1.5,0,0,0,.217.519.922.922,0,0,0,.361.314,1.163,1.163,0,0,0,.506.1,1.3,1.3,0,0,0,.5-.088,2.011,2.011,0,0,0,.371-.2c.1-.071.193-.136.265-.194a.308.308,0,0,1,.181-.088.133.133,0,0,1,.084.028.2.2,0,0,1,.053.105,1.234,1.234,0,0,1,.032.2C136.337,46.8,136.339,46.9,136.339,47.022Z"/><path d="M142.284,42.6a.438.438,0,0,1,.33.1.422.422,0,0,1,.094.294v4.832a.152.152,0,0,1-.035.1.247.247,0,0,1-.113.071,1.053,1.053,0,0,1-.217.042c-.092.009-.206.014-.341.014s-.255,0-.348-.014a1.053,1.053,0,0,1-.217-.042.247.247,0,0,1-.113-.071.15.15,0,0,1-.033-.1V43.749h-2.264v2.365a1.17,1.17,0,0,0,.13.618.5.5,0,0,0,.463.206.97.97,0,0,0,.2-.02,1.3,1.3,0,0,0,.16-.045c.048-.017.087-.032.119-.045a.214.214,0,0,1,.087-.02.114.114,0,0,1,.066.02.132.132,0,0,1,.047.079,1.162,1.162,0,0,1,.032.161,2.247,2.247,0,0,1,.013.26,1.781,1.781,0,0,1-.028.375.427.427,0,0,1-.079.186.392.392,0,0,1-.152.1,1.561,1.561,0,0,1-.235.073,2.257,2.257,0,0,1-.287.048,2.711,2.711,0,0,1-.313.017,2.27,2.27,0,0,1-.735-.107,1.217,1.217,0,0,1-.513-.331,1.367,1.367,0,0,1-.3-.561,2.923,2.923,0,0,1-.1-.8V43.749h-.605c-.071,0-.125-.045-.163-.133a1.231,1.231,0,0,1-.056-.443,2.392,2.392,0,0,1,.013-.277.691.691,0,0,1,.043-.178.206.206,0,0,1,.071-.093.169.169,0,0,1,.1-.028h.6V41.474a.18.18,0,0,1,.03-.1.245.245,0,0,1,.114-.077.944.944,0,0,1,.22-.045c.092-.009.206-.014.341-.014s.255.005.348.014a.914.914,0,0,1,.217.045.264.264,0,0,1,.113.077.169.169,0,0,1,.034.1V42.6Zm.536-1.513a.8.8,0,0,1-.175.593,1.388,1.388,0,0,1-1.3.005.776.776,0,0,1-.166-.57.812.812,0,0,1,.172-.595,1.362,1.362,0,0,1,1.3-.006A.778.778,0,0,1,142.82,41.084Z"/><path d="M149.227,45.256a3.845,3.845,0,0,1-.169,1.174,2.483,2.483,0,0,1-.513.914,2.283,2.283,0,0,1-.865.593,3.241,3.241,0,0,1-1.214.209,3.309,3.309,0,0,1-1.168-.187,2.1,2.1,0,0,1-.824-.541,2.214,2.214,0,0,1-.485-.875,4.055,4.055,0,0,1-.158-1.186A3.812,3.812,0,0,1,144,44.18a2.492,2.492,0,0,1,.516-.914,2.308,2.308,0,0,1,.861-.59,3.225,3.225,0,0,1,1.211-.209,3.394,3.394,0,0,1,1.174.183,2.079,2.079,0,0,1,.822.539,2.253,2.253,0,0,1,.482.875A4.117,4.117,0,0,1,149.227,45.256Zm-1.462.056a3.661,3.661,0,0,0-.059-.686,1.6,1.6,0,0,0-.2-.544.987.987,0,0,0-.375-.362,1.211,1.211,0,0,0-.589-.13,1.252,1.252,0,0,0-.554.116.994.994,0,0,0-.39.339,1.628,1.628,0,0,0-.228.536,3.025,3.025,0,0,0-.076.714,3.491,3.491,0,0,0,.062.686,1.69,1.69,0,0,0,.2.545.949.949,0,0,0,.375.358,1.234,1.234,0,0,0,.587.127,1.267,1.267,0,0,0,.56-.115,1,1,0,0,0,.389-.336,1.546,1.546,0,0,0,.226-.534A3.137,3.137,0,0,0,147.765,45.312Z"/><path d="M155.161,47.824a.156.156,0,0,1-.034.1.257.257,0,0,1-.114.071,1.042,1.042,0,0,1-.216.042c-.093.009-.207.014-.342.014s-.255,0-.347-.014a1.051,1.051,0,0,1-.218-.042.259.259,0,0,1-.113-.071.155.155,0,0,1-.033-.1V44.951a2.458,2.458,0,0,0-.054-.576,1.15,1.15,0,0,0-.155-.358.7.7,0,0,0-.263-.232.81.81,0,0,0-.375-.082.941.941,0,0,0-.548.2,3,3,0,0,0-.576.576v3.347a.155.155,0,0,1-.033.1.265.265,0,0,1-.116.071,1.112,1.112,0,0,1-.217.042c-.091.009-.206.014-.345.014s-.254,0-.345-.014a1.1,1.1,0,0,1-.216-.042.258.258,0,0,1-.117-.071.155.155,0,0,1-.033-.1V42.789a.165.165,0,0,1,.029-.1.192.192,0,0,1,.1-.07.769.769,0,0,1,.189-.043,2.555,2.555,0,0,1,.291-.014,2.692,2.692,0,0,1,.3.014.647.647,0,0,1,.184.043.213.213,0,0,1,.094.07.179.179,0,0,1,.027.1v.581a3.209,3.209,0,0,1,.85-.677,1.913,1.913,0,0,1,.9-.226,1.991,1.991,0,0,1,.867.169,1.531,1.531,0,0,1,.571.46,1.875,1.875,0,0,1,.312.681,3.9,3.9,0,0,1,.1.937Z"/><path d="M160.1,46.4a1.682,1.682,0,0,1-.161.756,1.514,1.514,0,0,1-.454.548,2.067,2.067,0,0,1-.694.33,3.3,3.3,0,0,1-.87.11,3.358,3.358,0,0,1-.54-.042,3.427,3.427,0,0,1-.459-.107,2.459,2.459,0,0,1-.338-.133.893.893,0,0,1-.2-.127.4.4,0,0,1-.095-.187,1.516,1.516,0,0,1-.035-.375,2.27,2.27,0,0,1,.012-.262.718.718,0,0,1,.033-.159.159.159,0,0,1,.057-.079.17.17,0,0,1,.085-.019.422.422,0,0,1,.184.07c.081.047.181.1.3.155a3.117,3.117,0,0,0,.421.159,1.892,1.892,0,0,0,.545.073,1.308,1.308,0,0,0,.341-.04.846.846,0,0,0,.26-.113.474.474,0,0,0,.167-.186.58.58,0,0,0,.056-.259.434.434,0,0,0-.1-.291.927.927,0,0,0-.277-.212,3.333,3.333,0,0,0-.389-.169c-.146-.053-.294-.111-.446-.175a4.207,4.207,0,0,1-.447-.22,1.741,1.741,0,0,1-.389-.3,1.4,1.4,0,0,1-.277-.435,1.613,1.613,0,0,1-.1-.609,1.55,1.55,0,0,1,.141-.664,1.455,1.455,0,0,1,.407-.517,1.933,1.933,0,0,1,.646-.333,2.874,2.874,0,0,1,.855-.118,3.165,3.165,0,0,1,.461.034,3.423,3.423,0,0,1,.4.084,2.015,2.015,0,0,1,.305.111.981.981,0,0,1,.177.1.276.276,0,0,1,.076.085.342.342,0,0,1,.035.1c.007.04.013.089.019.147s.009.131.009.218,0,.184-.009.248a.636.636,0,0,1-.028.153.134.134,0,0,1-.054.076.154.154,0,0,1-.079.019.383.383,0,0,1-.158-.059,2.792,2.792,0,0,0-.268-.127,3.223,3.223,0,0,0-.373-.127,1.807,1.807,0,0,0-.482-.059,1.258,1.258,0,0,0-.333.039.653.653,0,0,0-.232.113.474.474,0,0,0-.135.172.492.492,0,0,0-.045.212.424.424,0,0,0,.107.294.986.986,0,0,0,.282.209,3.236,3.236,0,0,0,.4.169c.148.052.3.11.451.172a4.23,4.23,0,0,1,.451.217,1.731,1.731,0,0,1,.4.3,1.423,1.423,0,0,1,.282.432A1.522,1.522,0,0,1,160.1,46.4Z"/><path d="M166.089,40.293a11.866,11.866,0,0,0-.713,7.077,12.816,12.816,0,0,0,.708,2.283.469.469,0,0,1,.034.156.131.131,0,0,1-.063.109.447.447,0,0,1-.188.068,2.142,2.142,0,0,1-.354.023c-.105,0-.195,0-.27-.011a1.379,1.379,0,0,1-.19-.032.352.352,0,0,1-.118-.05.171.171,0,0,1-.059-.071,11.025,11.025,0,0,1-.531-1.182,10.44,10.44,0,0,1-.376-1.2,10.215,10.215,0,0,1-.222-1.225,10.63,10.63,0,0,1-.074-1.256,10.17,10.17,0,0,1,.077-1.25,10,10,0,0,1,.228-1.225,11.641,11.641,0,0,1,.375-1.206,11.909,11.909,0,0,1,.523-1.191.106.106,0,0,1,.045-.05.365.365,0,0,1,.1-.043.985.985,0,0,1,.184-.028c.077-.006.175-.008.3-.008a2.346,2.346,0,0,1,.333.019.575.575,0,0,1,.2.06.14.14,0,0,1,.076.1A.264.264,0,0,1,166.089,40.293Z"/><path d="M172.034,45.16a.545.545,0,0,1-.116.383.416.416,0,0,1-.319.125h-3.065a2.086,2.086,0,0,0,.076.584,1.126,1.126,0,0,0,.242.446,1.072,1.072,0,0,0,.43.28,1.838,1.838,0,0,0,.629.095,3.52,3.52,0,0,0,.655-.053,4.435,4.435,0,0,0,.488-.119c.137-.043.251-.083.342-.118a.625.625,0,0,1,.22-.054.17.17,0,0,1,.085.02.151.151,0,0,1,.056.07.457.457,0,0,1,.031.144c.006.062.009.141.009.235s0,.153-.006.211a1.257,1.257,0,0,1-.017.15.373.373,0,0,1-.034.1.368.368,0,0,1-.059.082.73.73,0,0,1-.2.108,3.317,3.317,0,0,1-.417.132,5.8,5.8,0,0,1-.582.113,4.822,4.822,0,0,1-.7.048,3.737,3.737,0,0,1-1.177-.169,2.1,2.1,0,0,1-.844-.514,2.154,2.154,0,0,1-.5-.869,4.088,4.088,0,0,1-.166-1.231,3.935,3.935,0,0,1,.174-1.211,2.535,2.535,0,0,1,.508-.914,2.171,2.171,0,0,1,.811-.573,2.78,2.78,0,0,1,1.075-.2,2.817,2.817,0,0,1,1.081.186,1.946,1.946,0,0,1,.737.517,2.07,2.07,0,0,1,.423.782,3.378,3.378,0,0,1,.136.982Zm-1.378-.407a1.458,1.458,0,0,0-.239-.94.929.929,0,0,0-.794-.341,1.041,1.041,0,0,0-.471.1.958.958,0,0,0-.333.274,1.243,1.243,0,0,0-.2.407,2,2,0,0,0-.082.5Z"/><path d="M177.492,47.841a.151.151,0,0,1-.056.124.377.377,0,0,1-.179.065,2.412,2.412,0,0,1-.358.02,2.451,2.451,0,0,1-.369-.02.311.311,0,0,1-.164-.065.161.161,0,0,1-.048-.124v-.4a2.272,2.272,0,0,1-.708.519,2.053,2.053,0,0,1-.884.187,2.5,2.5,0,0,1-.737-.1,1.656,1.656,0,0,1-.581-.311,1.389,1.389,0,0,1-.381-.511,1.725,1.725,0,0,1-.136-.711,1.617,1.617,0,0,1,.172-.765,1.4,1.4,0,0,1,.515-.536,2.522,2.522,0,0,1,.848-.313,6.062,6.062,0,0,1,1.181-.1h.491v-.3a1.554,1.554,0,0,0-.049-.415.68.68,0,0,0-.157-.3.654.654,0,0,0-.294-.175,1.546,1.546,0,0,0-.454-.057,2.375,2.375,0,0,0-.636.079,3.731,3.731,0,0,0-.493.175c-.143.064-.262.122-.359.175a.52.52,0,0,1-.234.079.168.168,0,0,1-.11-.039.3.3,0,0,1-.079-.113.8.8,0,0,1-.048-.181,1.434,1.434,0,0,1-.017-.237,1.063,1.063,0,0,1,.028-.276.437.437,0,0,1,.107-.184,1.077,1.077,0,0,1,.277-.181,3.192,3.192,0,0,1,.463-.183,4.357,4.357,0,0,1,.579-.138,3.8,3.8,0,0,1,.646-.054,3.862,3.862,0,0,1,1.013.116,1.706,1.706,0,0,1,.692.355,1.387,1.387,0,0,1,.395.619,2.879,2.879,0,0,1,.124.9ZM176.1,45.685h-.542a2.991,2.991,0,0,0-.588.05,1.138,1.138,0,0,0-.394.153.643.643,0,0,0-.224.245.742.742,0,0,0-.07.331.635.635,0,0,0,.2.5.8.8,0,0,0,.557.181,1.045,1.045,0,0,0,.55-.152,2.319,2.319,0,0,0,.511-.446Z"/><path d="M182.144,43.257q0,.2-.012.333a.917.917,0,0,1-.033.2.2.2,0,0,1-.059.1.149.149,0,0,1-.093.028.323.323,0,0,1-.1-.019c-.037-.013-.079-.028-.127-.043s-.1-.029-.155-.042a.82.82,0,0,0-.185-.02.628.628,0,0,0-.238.048,1,1,0,0,0-.246.15,1.757,1.757,0,0,0-.264.271,4.172,4.172,0,0,0-.3.418v3.138a.151.151,0,0,1-.034.1.254.254,0,0,1-.116.071,1.1,1.1,0,0,1-.217.042c-.09.009-.206.014-.344.014s-.254,0-.345-.014a1.112,1.112,0,0,1-.217-.042.254.254,0,0,1-.116-.071.155.155,0,0,1-.033-.1V42.789a.172.172,0,0,1,.028-.1.2.2,0,0,1,.1-.07.771.771,0,0,1,.188-.043,2.568,2.568,0,0,1,.291-.014,2.712,2.712,0,0,1,.3.014.656.656,0,0,1,.184.043.2.2,0,0,1,.093.07.172.172,0,0,1,.028.1v.627a3.92,3.92,0,0,1,.373-.466,2.045,2.045,0,0,1,.333-.291,1.056,1.056,0,0,1,.316-.15,1.226,1.226,0,0,1,.316-.042,1.522,1.522,0,0,1,.158.009,1.441,1.441,0,0,1,.175.028,1.128,1.128,0,0,1,.158.045.272.272,0,0,1,.1.054.157.157,0,0,1,.046.062.527.527,0,0,1,.026.093,1.554,1.554,0,0,1,.016.178Q182.144,43.055,182.144,43.257Z"/><path d="M184.441,47.824a.155.155,0,0,1-.033.1.265.265,0,0,1-.116.071,1.112,1.112,0,0,1-.217.042c-.091.009-.206.014-.345.014s-.254,0-.345-.014a1.1,1.1,0,0,1-.216-.042.258.258,0,0,1-.117-.071.155.155,0,0,1-.033-.1V40.4a.17.17,0,0,1,.033-.1.261.261,0,0,1,.117-.076,1.05,1.05,0,0,1,.216-.048,3.509,3.509,0,0,1,.69,0,1.061,1.061,0,0,1,.217.048.269.269,0,0,1,.116.076.17.17,0,0,1,.033.1Z"/><path d="M188.777,48.016l-.61,1.784a.366.366,0,0,1-.277.2,2.669,2.669,0,0,1-.66.062,2.485,2.485,0,0,1-.361-.02.483.483,0,0,1-.2-.065.144.144,0,0,1-.074-.112.367.367,0,0,1,.034-.164l.671-1.688a.387.387,0,0,1-.132-.1.477.477,0,0,1-.087-.15l-1.734-4.629a.979.979,0,0,1-.073-.3.209.209,0,0,1,.068-.164.46.46,0,0,1,.228-.082,3.235,3.235,0,0,1,.427-.022c.161,0,.29,0,.384.008a.67.67,0,0,1,.219.043.234.234,0,0,1,.119.1,1.054,1.054,0,0,1,.08.2l1.185,3.371H188l1.084-3.438a.269.269,0,0,1,.264-.266,2.863,2.863,0,0,1,.436-.022,3,3,0,0,1,.4.022.489.489,0,0,1,.237.085.205.205,0,0,1,.077.167.842.842,0,0,1-.046.246Z"/><path d="M193.615,44.979a10.849,10.849,0,0,1-.073,1.256,9.839,9.839,0,0,1-.224,1.225,11.037,11.037,0,0,1-.372,1.2,10.616,10.616,0,0,1-.528,1.182.171.171,0,0,1-.059.071.34.34,0,0,1-.119.05,1.336,1.336,0,0,1-.189.032c-.075.007-.166.011-.271.011a2.163,2.163,0,0,1-.358-.023.447.447,0,0,1-.189-.068.13.13,0,0,1-.062-.109.445.445,0,0,1,.034-.156,12.41,12.41,0,0,0,.714-2.278,11.672,11.672,0,0,0,.245-2.407,11.862,11.862,0,0,0-.242-2.4,11.672,11.672,0,0,0-.723-2.273.264.264,0,0,1-.02-.135.137.137,0,0,1,.079-.1.6.6,0,0,1,.2-.06,2.316,2.316,0,0,1,.336-.019c.116,0,.213,0,.288.008a1.071,1.071,0,0,1,.185.028.337.337,0,0,1,.105.043.174.174,0,0,1,.048.05,11.981,11.981,0,0,1,.892,2.4A10.107,10.107,0,0,1,193.615,44.979Z"/><polygon class="cls-8" points="175.537 240.148 175.537 105.013 629.759 240.148 175.537 240.148"/><line class="cls-7" x1="176.581" y1="59.627" x2="176.581" y2="57.178"/><line class="cls-7" x1="629.759" y1="57.178" x2="175.537" y2="57.178"/><line class="cls-7" x1="629.759" y1="57.178" x2="629.759" y2="59.627"/><path d="M351.5,50.762a.219.219,0,0,1-.023.1.172.172,0,0,1-.107.071,1.035,1.035,0,0,1-.248.039c-.11.008-.258.011-.446.011-.159,0-.285,0-.378-.011a.8.8,0,0,1-.223-.042.24.24,0,0,1-.116-.079.465.465,0,0,1-.057-.116l-.654-1.631c-.079-.185-.156-.348-.232-.491a1.541,1.541,0,0,0-.252-.359.906.906,0,0,0-.318-.217,1.106,1.106,0,0,0-.418-.074h-.463V50.75a.159.159,0,0,1-.036.1.254.254,0,0,1-.122.073,1.232,1.232,0,0,1-.226.046,4.047,4.047,0,0,1-.719,0,1.236,1.236,0,0,1-.229-.046.238.238,0,0,1-.119-.073.168.168,0,0,1-.033-.1V44.117a.451.451,0,0,1,.127-.358.464.464,0,0,1,.313-.11h1.891c.192,0,.35,0,.474.011s.238.017.339.028a3.088,3.088,0,0,1,.793.215,1.868,1.868,0,0,1,.6.4,1.66,1.66,0,0,1,.376.581,2.119,2.119,0,0,1,.13.771,2.235,2.235,0,0,1-.094.669,1.7,1.7,0,0,1-.273.539,1.786,1.786,0,0,1-.447.412,2.376,2.376,0,0,1-.6.282,1.681,1.681,0,0,1,.307.192,1.637,1.637,0,0,1,.271.274,2.532,2.532,0,0,1,.24.367,4.882,4.882,0,0,1,.221.466l.615,1.439c.056.143.094.248.112.313A.608.608,0,0,1,351.5,50.762Zm-1.913-4.957a1.081,1.081,0,0,0-.164-.609.892.892,0,0,0-.537-.35,2.159,2.159,0,0,0-.256-.046,3.751,3.751,0,0,0-.4-.016h-.666v2.071h.757a1.807,1.807,0,0,0,.553-.076,1.093,1.093,0,0,0,.395-.215.874.874,0,0,0,.238-.33A1.13,1.13,0,0,0,349.582,45.805Z"/><path d="M356.982,48.1a.548.548,0,0,1-.116.384.414.414,0,0,1-.319.124h-3.065a2.076,2.076,0,0,0,.076.584,1.12,1.12,0,0,0,.242.446,1.062,1.062,0,0,0,.43.28,1.837,1.837,0,0,0,.629.1,3.514,3.514,0,0,0,.655-.054,4.532,4.532,0,0,0,.489-.118c.136-.044.251-.083.341-.119a.643.643,0,0,1,.22-.053.157.157,0,0,1,.085.02.148.148,0,0,1,.057.07.491.491,0,0,1,.03.144q.009.093.009.234c0,.083,0,.154-.006.212a1.308,1.308,0,0,1-.017.15.343.343,0,0,1-.034.1.425.425,0,0,1-.058.082.721.721,0,0,1-.2.107,3.16,3.16,0,0,1-.417.132,5.784,5.784,0,0,1-.582.114,4.962,4.962,0,0,1-.7.047,3.708,3.708,0,0,1-1.177-.169,2.082,2.082,0,0,1-.843-.514,2.118,2.118,0,0,1-.5-.869,4.05,4.05,0,0,1-.167-1.231,3.909,3.909,0,0,1,.175-1.211,2.556,2.556,0,0,1,.507-.914,2.2,2.2,0,0,1,.811-.573,2.783,2.783,0,0,1,1.075-.2,2.816,2.816,0,0,1,1.081.187,1.944,1.944,0,0,1,.737.516,2.085,2.085,0,0,1,.423.782,3.385,3.385,0,0,1,.136.983Zm-1.378-.406a1.458,1.458,0,0,0-.239-.94.93.93,0,0,0-.794-.342,1.028,1.028,0,0,0-.471.1.958.958,0,0,0-.333.274,1.228,1.228,0,0,0-.2.406,2,2,0,0,0-.082.5Z"/><path d="M362.728,45.721c0,.018,0,.041,0,.068a.816.816,0,0,1-.012.087c0,.032-.013.068-.022.11s-.021.088-.037.141l-1.513,4.556a.432.432,0,0,1-.076.155.319.319,0,0,1-.158.093,1.27,1.27,0,0,1-.3.045c-.126.008-.291.011-.494.011s-.362,0-.488-.014a1.307,1.307,0,0,1-.3-.048.305.305,0,0,1-.156-.093.444.444,0,0,1-.076-.149l-1.513-4.556c-.023-.075-.04-.143-.054-.2a1.137,1.137,0,0,1-.023-.13c0-.026,0-.051,0-.073a.161.161,0,0,1,.032-.1.226.226,0,0,1,.11-.071.956.956,0,0,1,.217-.039c.093-.008.208-.012.348-.012a3.708,3.708,0,0,1,.373.015,1.143,1.143,0,0,1,.222.039.213.213,0,0,1,.115.073.448.448,0,0,1,.057.116l1.147,3.7.033.141.034-.141,1.129-3.7a.327.327,0,0,1,.054-.116.228.228,0,0,1,.116-.073,1.053,1.053,0,0,1,.211-.039,3.222,3.222,0,0,1,.347-.015q.209,0,.342.012a.837.837,0,0,1,.205.039.215.215,0,0,1,.1.071A.179.179,0,0,1,362.728,45.721Z"/><path d="M368.108,48.1a.548.548,0,0,1-.115.384.415.415,0,0,1-.32.124h-3.065a2.076,2.076,0,0,0,.076.584,1.109,1.109,0,0,0,.243.446,1.058,1.058,0,0,0,.429.28,1.839,1.839,0,0,0,.63.1,3.5,3.5,0,0,0,.654-.054,4.419,4.419,0,0,0,.489-.118c.137-.044.251-.083.341-.119a.652.652,0,0,1,.221-.053.156.156,0,0,1,.084.02.148.148,0,0,1,.057.07.521.521,0,0,1,.031.144q.009.093.009.234c0,.083,0,.154-.006.212a1.288,1.288,0,0,1-.018.15.344.344,0,0,1-.033.1.439.439,0,0,1-.06.082.669.669,0,0,1-.2.107,3.18,3.18,0,0,1-.418.132,5.761,5.761,0,0,1-.581.114,4.983,4.983,0,0,1-.7.047,3.7,3.7,0,0,1-1.177-.169,2.093,2.093,0,0,1-.844-.514,2.129,2.129,0,0,1-.5-.869,4.052,4.052,0,0,1-.166-1.231,3.879,3.879,0,0,1,.175-1.211,2.541,2.541,0,0,1,.507-.914,2.2,2.2,0,0,1,.81-.573,2.785,2.785,0,0,1,1.076-.2,2.824,2.824,0,0,1,1.081.187,1.948,1.948,0,0,1,.736.516,2.087,2.087,0,0,1,.424.782,3.42,3.42,0,0,1,.135.983Zm-1.377-.406a1.464,1.464,0,0,0-.24-.94.928.928,0,0,0-.793-.342,1.029,1.029,0,0,0-.472.1.967.967,0,0,0-.333.274,1.248,1.248,0,0,0-.2.406,2.05,2.05,0,0,0-.082.5Z"/><path d="M372.511,46.2c0,.135,0,.246-.01.333a1.058,1.058,0,0,1-.035.2.2.2,0,0,1-.059.1.147.147,0,0,1-.093.028.311.311,0,0,1-.1-.02l-.127-.042c-.047-.015-.1-.029-.156-.043a.825.825,0,0,0-.186-.019.636.636,0,0,0-.238.048,1.024,1.024,0,0,0-.245.149,1.855,1.855,0,0,0-.265.271,4.477,4.477,0,0,0-.3.418v3.139a.156.156,0,0,1-.034.1.251.251,0,0,1-.116.071.968.968,0,0,1-.217.042,4.246,4.246,0,0,1-.689,0,.979.979,0,0,1-.218-.042.247.247,0,0,1-.115-.071.156.156,0,0,1-.034-.1V45.726a.182.182,0,0,1,.028-.1.211.211,0,0,1,.1-.07.785.785,0,0,1,.189-.042,2.321,2.321,0,0,1,.29-.015,2.464,2.464,0,0,1,.3.015.67.67,0,0,1,.184.042.211.211,0,0,1,.093.07.182.182,0,0,1,.028.1v.627a4.114,4.114,0,0,1,.372-.466,2.186,2.186,0,0,1,.333-.291,1.052,1.052,0,0,1,.316-.149,1.192,1.192,0,0,1,.317-.043,1.507,1.507,0,0,1,.158.009,1.441,1.441,0,0,1,.175.028,1.283,1.283,0,0,1,.158.045.317.317,0,0,1,.1.054.185.185,0,0,1,.045.062.6.6,0,0,1,.025.093,1.2,1.2,0,0,1,.017.178C372.509,45.952,372.511,46.06,372.511,46.2Z"/><path d="M378.456,48.176a4.569,4.569,0,0,1-.147,1.208,2.763,2.763,0,0,1-.424.915,1.882,1.882,0,0,1-.679.581,2.012,2.012,0,0,1-.918.2,2.3,2.3,0,0,1-.474-.047,1.643,1.643,0,0,1-.421-.156,2.281,2.281,0,0,1-.395-.271,3.684,3.684,0,0,1-.4-.4v.548a.176.176,0,0,1-.031.1.226.226,0,0,1-.1.071.668.668,0,0,1-.189.039c-.078.008-.175.011-.287.011s-.214,0-.291-.011a.676.676,0,0,1-.187-.039.2.2,0,0,1-.1-.071.182.182,0,0,1-.029-.1V43.338a.163.163,0,0,1,.035-.1.24.24,0,0,1,.115-.076.928.928,0,0,1,.218-.048,3.489,3.489,0,0,1,.688,0,.94.94,0,0,1,.218.048.245.245,0,0,1,.115.076.168.168,0,0,1,.034.1v2.784a2.944,2.944,0,0,1,.384-.328,2.379,2.379,0,0,1,.384-.223,1.766,1.766,0,0,1,.395-.127,2.272,2.272,0,0,1,.429-.04,1.889,1.889,0,0,1,.948.223,1.83,1.83,0,0,1,.635.6,2.663,2.663,0,0,1,.358.883A4.827,4.827,0,0,1,378.456,48.176Zm-1.474.1a3.908,3.908,0,0,0-.048-.621,1.788,1.788,0,0,0-.166-.531,1.039,1.039,0,0,0-.307-.37.8.8,0,0,0-.478-.138.955.955,0,0,0-.276.04,1.008,1.008,0,0,0-.28.135,2.031,2.031,0,0,0-.3.249,3.619,3.619,0,0,0-.321.378v1.671a3,3,0,0,0,.573.584.951.951,0,0,0,.573.2.76.76,0,0,0,.468-.141,1.144,1.144,0,0,0,.32-.367,1.741,1.741,0,0,0,.183-.513A2.959,2.959,0,0,0,376.982,48.278Z"/><path d="M384.513,43.231a11.855,11.855,0,0,0-.714,7.076,12.992,12.992,0,0,0,.708,2.284.449.449,0,0,1,.035.155.133.133,0,0,1-.063.11.461.461,0,0,1-.188.068,2.162,2.162,0,0,1-.354.022c-.105,0-.195,0-.27-.011a1.368,1.368,0,0,1-.19-.031.334.334,0,0,1-.118-.051.179.179,0,0,1-.06-.07,11.324,11.324,0,0,1-.53-1.183,10.379,10.379,0,0,1-.376-1.2,10.02,10.02,0,0,1-.222-1.225,10.6,10.6,0,0,1-.074-1.255,10.375,10.375,0,0,1,.076-1.251,10.078,10.078,0,0,1,.229-1.225,11.7,11.7,0,0,1,.375-1.205,11.9,11.9,0,0,1,.522-1.191.119.119,0,0,1,.045-.051.392.392,0,0,1,.1-.042.887.887,0,0,1,.184-.029c.077-.005.175-.008.3-.008a2.18,2.18,0,0,1,.333.02.584.584,0,0,1,.2.059.141.141,0,0,1,.076.1A.267.267,0,0,1,384.513,43.231Z"/><path d="M387.228,50.762a.155.155,0,0,1-.033.1.251.251,0,0,1-.116.071.98.98,0,0,1-.217.042,4.258,4.258,0,0,1-.69,0,.97.97,0,0,1-.216-.042.249.249,0,0,1-.117-.071.155.155,0,0,1-.033-.1V43.338a.167.167,0,0,1,.033-.1.253.253,0,0,1,.117-.076.933.933,0,0,1,.216-.048,3.509,3.509,0,0,1,.69,0,.943.943,0,0,1,.217.048.255.255,0,0,1,.116.076.167.167,0,0,1,.033.1Z"/><path d="M392.935,50.779a.15.15,0,0,1-.055.124.4.4,0,0,1-.179.065,2.448,2.448,0,0,1-.359.019,2.485,2.485,0,0,1-.369-.019.319.319,0,0,1-.164-.065.161.161,0,0,1-.048-.124v-.4a2.288,2.288,0,0,1-.708.519,2.06,2.06,0,0,1-.883.186,2.47,2.47,0,0,1-.738-.1,1.664,1.664,0,0,1-.581-.311,1.386,1.386,0,0,1-.381-.51,1.746,1.746,0,0,1-.135-.712,1.616,1.616,0,0,1,.171-.764,1.407,1.407,0,0,1,.515-.537,2.549,2.549,0,0,1,.849-.313,6.051,6.051,0,0,1,1.18-.1h.492v-.3a1.594,1.594,0,0,0-.049-.414.684.684,0,0,0-.157-.3.668.668,0,0,0-.294-.175,1.553,1.553,0,0,0-.454-.056,2.325,2.325,0,0,0-.636.079,3.5,3.5,0,0,0-.493.175c-.144.064-.263.122-.36.175a.53.53,0,0,1-.233.079.168.168,0,0,1-.111-.04.288.288,0,0,1-.079-.113.743.743,0,0,1-.047-.18,1.45,1.45,0,0,1-.018-.238,1.114,1.114,0,0,1,.028-.276.439.439,0,0,1,.108-.184,1.052,1.052,0,0,1,.276-.18,3.306,3.306,0,0,1,.463-.184,4.395,4.395,0,0,1,.579-.138,3.8,3.8,0,0,1,.647-.054,3.859,3.859,0,0,1,1.012.116,1.711,1.711,0,0,1,.693.356,1.4,1.4,0,0,1,.394.618,2.881,2.881,0,0,1,.124.9Zm-1.393-2.157H391a2.9,2.9,0,0,0-.588.051,1.152,1.152,0,0,0-.395.152.635.635,0,0,0-.223.246.741.741,0,0,0-.071.33.641.641,0,0,0,.2.5.8.8,0,0,0,.557.181,1.037,1.037,0,0,0,.55-.153,2.271,2.271,0,0,0,.512-.446Z"/><path d="M397.225,50.265a1.753,1.753,0,0,1-.031.381.427.427,0,0,1-.081.186.441.441,0,0,1-.15.1,1.272,1.272,0,0,1-.232.073,2.479,2.479,0,0,1-.287.049,2.974,2.974,0,0,1-.314.016,2.241,2.241,0,0,1-.734-.107,1.215,1.215,0,0,1-.514-.33,1.382,1.382,0,0,1-.3-.562,2.92,2.92,0,0,1-.1-.8v-2.58h-.605c-.071,0-.126-.044-.163-.133a1.228,1.228,0,0,1-.056-.443,2.416,2.416,0,0,1,.013-.277.672.672,0,0,1,.043-.177.209.209,0,0,1,.071-.094.176.176,0,0,1,.1-.028h.6V44.411a.176.176,0,0,1,.03-.1.239.239,0,0,1,.113-.077.869.869,0,0,1,.221-.045c.092-.009.206-.014.341-.014s.255.005.348.014a.815.815,0,0,1,.216.045.254.254,0,0,1,.114.077.166.166,0,0,1,.034.1v1.123H397a.179.179,0,0,1,.1.028.209.209,0,0,1,.071.094.672.672,0,0,1,.043.177,2.668,2.668,0,0,1,.013.277,1.228,1.228,0,0,1-.056.443c-.038.089-.092.133-.164.133h-1.1v2.365a1.17,1.17,0,0,0,.13.618.5.5,0,0,0,.463.206.907.907,0,0,0,.2-.02,1.3,1.3,0,0,0,.16-.044l.119-.046a.228.228,0,0,1,.087-.019.117.117,0,0,1,.065.019.131.131,0,0,1,.048.079,1.227,1.227,0,0,1,.032.161A2.273,2.273,0,0,1,397.225,50.265Z"/><path d="M402.763,48.1a.548.548,0,0,1-.115.384.414.414,0,0,1-.319.124h-3.066a2.113,2.113,0,0,0,.076.584,1.1,1.1,0,0,0,.244.446,1.055,1.055,0,0,0,.428.28,1.839,1.839,0,0,0,.63.1,3.521,3.521,0,0,0,.655-.054,4.452,4.452,0,0,0,.488-.118c.138-.044.252-.083.342-.119a.648.648,0,0,1,.22-.053.154.154,0,0,1,.084.02.142.142,0,0,1,.057.07.487.487,0,0,1,.031.144q.009.093.009.234c0,.083,0,.154-.006.212s-.01.108-.017.15a.343.343,0,0,1-.034.1.432.432,0,0,1-.059.082.7.7,0,0,1-.2.107,3.23,3.23,0,0,1-.418.132,5.817,5.817,0,0,1-.581.114,5.008,5.008,0,0,1-.7.047,3.693,3.693,0,0,1-1.176-.169,2.1,2.1,0,0,1-.845-.514,2.129,2.129,0,0,1-.5-.869,4.084,4.084,0,0,1-.166-1.231,3.909,3.909,0,0,1,.175-1.211,2.528,2.528,0,0,1,.508-.914,2.187,2.187,0,0,1,.809-.573,2.788,2.788,0,0,1,1.076-.2,2.82,2.82,0,0,1,1.081.187,1.96,1.96,0,0,1,.737.516,2.1,2.1,0,0,1,.424.782,3.456,3.456,0,0,1,.134.983Zm-1.377-.406a1.464,1.464,0,0,0-.24-.94.926.926,0,0,0-.793-.342,1.029,1.029,0,0,0-.472.1.977.977,0,0,0-.333.274,1.268,1.268,0,0,0-.2.406,2.05,2.05,0,0,0-.082.5Z"/><path d="M409.78,46.2c0,.135,0,.246-.011.333a1.07,1.07,0,0,1-.034.2.2.2,0,0,1-.06.1.142.142,0,0,1-.092.028.311.311,0,0,1-.1-.02l-.127-.042c-.047-.015-.1-.029-.155-.043a.834.834,0,0,0-.187-.019.627.627,0,0,0-.237.048,1.024,1.024,0,0,0-.245.149,1.857,1.857,0,0,0-.266.271,4.673,4.673,0,0,0-.3.418v3.139a.15.15,0,0,1-.034.1.242.242,0,0,1-.115.071.979.979,0,0,1-.218.042,4.233,4.233,0,0,1-.688,0,.979.979,0,0,1-.218-.042.237.237,0,0,1-.115-.071.15.15,0,0,1-.034-.1V45.726a.174.174,0,0,1,.028-.1.207.207,0,0,1,.1-.07.794.794,0,0,1,.19-.042,2.321,2.321,0,0,1,.29-.015,2.464,2.464,0,0,1,.3.015.661.661,0,0,1,.183.042.206.206,0,0,1,.093.07.174.174,0,0,1,.028.1v.627a4.114,4.114,0,0,1,.372-.466,2.285,2.285,0,0,1,.333-.291,1.057,1.057,0,0,1,.317-.149,1.185,1.185,0,0,1,.316-.043,1.492,1.492,0,0,1,.158.009,1.411,1.411,0,0,1,.175.028,1.252,1.252,0,0,1,.159.045.31.31,0,0,1,.1.054.172.172,0,0,1,.045.062.434.434,0,0,1,.025.093,1.317,1.317,0,0,1,.018.178C409.778,45.952,409.78,46.06,409.78,46.2Z"/><path d="M415.177,48.1a.548.548,0,0,1-.116.384.412.412,0,0,1-.318.124h-3.066a2.075,2.075,0,0,0,.077.584,1.1,1.1,0,0,0,.242.446,1.058,1.058,0,0,0,.429.28,1.837,1.837,0,0,0,.629.1,3.532,3.532,0,0,0,.656-.054,4.568,4.568,0,0,0,.488-.118c.137-.044.251-.083.342-.119a.643.643,0,0,1,.219-.053.155.155,0,0,1,.085.02.148.148,0,0,1,.057.07.46.46,0,0,1,.03.144q.009.093.009.234c0,.083,0,.154-.006.212s-.009.108-.016.15a.343.343,0,0,1-.035.1.386.386,0,0,1-.058.082.725.725,0,0,1-.2.107,3.209,3.209,0,0,1-.417.132,5.841,5.841,0,0,1-.582.114,4.987,4.987,0,0,1-.7.047,3.7,3.7,0,0,1-1.176-.169,2.093,2.093,0,0,1-.844-.514,2.118,2.118,0,0,1-.5-.869,4.082,4.082,0,0,1-.167-1.231,3.939,3.939,0,0,1,.175-1.211,2.543,2.543,0,0,1,.508-.914,2.19,2.19,0,0,1,.81-.573,3.115,3.115,0,0,1,2.156-.011,1.956,1.956,0,0,1,.738.516,2.1,2.1,0,0,1,.423.782,3.42,3.42,0,0,1,.135.983Zm-1.378-.406a1.458,1.458,0,0,0-.239-.94.928.928,0,0,0-.794-.342,1.024,1.024,0,0,0-.47.1.949.949,0,0,0-.333.274,1.23,1.23,0,0,0-.2.406,2.05,2.05,0,0,0-.082.5Z"/><path d="M421.24,50.762a.156.156,0,0,1-.034.1.245.245,0,0,1-.113.071.923.923,0,0,1-.217.042,3.284,3.284,0,0,1-.342.014,3.35,3.35,0,0,1-.347-.014.944.944,0,0,1-.218-.042.246.246,0,0,1-.112-.071.156.156,0,0,1-.034-.1V44.225a.111.111,0,0,1-.048.05.147.147,0,0,1-.076.017.8.8,0,0,1-.164-.022c-.068-.015-.143-.029-.226-.042s-.165-.023-.245-.029-.161-.008-.24-.008a1.5,1.5,0,0,0-.424.051.589.589,0,0,0-.268.155.575.575,0,0,0-.138.273,1.757,1.757,0,0,0-.039.4v.463h.835a.174.174,0,0,1,.1.028.218.218,0,0,1,.072.094.719.719,0,0,1,.042.177,2.39,2.39,0,0,1,.014.277,1.251,1.251,0,0,1-.056.443c-.038.089-.093.133-.164.133h-.841v4.076a.156.156,0,0,1-.034.1.248.248,0,0,1-.114.071.923.923,0,0,1-.217.042,3.35,3.35,0,0,1-.347.014,3.276,3.276,0,0,1-.341-.014.986.986,0,0,1-.221-.042.221.221,0,0,1-.112-.071.153.153,0,0,1-.031-.1V46.686h-.633c-.071,0-.125-.044-.16-.133a1.286,1.286,0,0,1-.054-.443,2.39,2.39,0,0,1,.014-.277.686.686,0,0,1,.04-.177.191.191,0,0,1,.067-.094.182.182,0,0,1,.1-.028h.627V45.1a3.215,3.215,0,0,1,.112-.9,1.537,1.537,0,0,1,.359-.643,1.5,1.5,0,0,1,.621-.384,2.83,2.83,0,0,1,.906-.128c.1,0,.21,0,.325.012s.227.018.335.031.2.028.283.045a1.4,1.4,0,0,1,.186.051.354.354,0,0,1,.107.059.055.055,0,1,0,.088-.006.227.227,0,0,1,.1-.073.722.722,0,0,1,.209-.054,3.522,3.522,0,0,1,.711,0,.884.884,0,0,1,.217.048.249.249,0,0,1,.113.076.168.168,0,0,1,.034.1Z"/><path d="M427.32,48.1a.548.548,0,0,1-.116.384.414.414,0,0,1-.319.124H423.82a2.076,2.076,0,0,0,.076.584,1.12,1.12,0,0,0,.242.446,1.062,1.062,0,0,0,.43.28,1.837,1.837,0,0,0,.629.1,3.514,3.514,0,0,0,.655-.054,4.452,4.452,0,0,0,.488-.118c.137-.044.251-.083.342-.119a.643.643,0,0,1,.22-.053.16.16,0,0,1,.085.02.153.153,0,0,1,.057.07.491.491,0,0,1,.03.144q.009.093.009.234c0,.083,0,.154-.006.212a1.308,1.308,0,0,1-.017.15.343.343,0,0,1-.034.1.392.392,0,0,1-.059.082.694.694,0,0,1-.2.107,3.16,3.16,0,0,1-.417.132,5.784,5.784,0,0,1-.582.114,4.972,4.972,0,0,1-.7.047,3.708,3.708,0,0,1-1.177-.169,2.082,2.082,0,0,1-.843-.514,2.118,2.118,0,0,1-.505-.869,4.05,4.05,0,0,1-.167-1.231,3.939,3.939,0,0,1,.174-1.211,2.573,2.573,0,0,1,.508-.914,2.194,2.194,0,0,1,.811-.573,2.783,2.783,0,0,1,1.075-.2,2.816,2.816,0,0,1,1.081.187,1.944,1.944,0,0,1,.737.516,2.085,2.085,0,0,1,.423.782,3.385,3.385,0,0,1,.136.983Zm-1.378-.406a1.458,1.458,0,0,0-.239-.94.93.93,0,0,0-.794-.342,1.028,1.028,0,0,0-.471.1.958.958,0,0,0-.333.274,1.228,1.228,0,0,0-.2.406,2,2,0,0,0-.082.5Z"/><path d="M432.3,49.96c0,.1,0,.18-.008.246a1.209,1.209,0,0,1-.023.166.5.5,0,0,1-.033.11.434.434,0,0,1-.088.107,1.191,1.191,0,0,1-.231.159,2.348,2.348,0,0,1-.373.166,3.093,3.093,0,0,1-.454.119,2.909,2.909,0,0,1-.5.045,2.733,2.733,0,0,1-1.031-.181,1.938,1.938,0,0,1-.754-.533,2.352,2.352,0,0,1-.459-.861,4.505,4.505,0,0,1,.034-2.47,2.483,2.483,0,0,1,.527-.911,2.109,2.109,0,0,1,.8-.537,2.861,2.861,0,0,1,1.015-.175,2.412,2.412,0,0,1,.444.04,2.534,2.534,0,0,1,.406.107,2.226,2.226,0,0,1,.339.152,1.088,1.088,0,0,1,.212.147.665.665,0,0,1,.088.1.407.407,0,0,1,.039.111,1.38,1.38,0,0,1,.022.166q.009.1.009.24a1.291,1.291,0,0,1-.057.46c-.038.088-.087.133-.146.133a.348.348,0,0,1-.2-.079c-.073-.053-.156-.111-.254-.175a1.882,1.882,0,0,0-.351-.175,1.329,1.329,0,0,0-.485-.079.966.966,0,0,0-.847.426,2.209,2.209,0,0,0-.294,1.25,3.124,3.124,0,0,0,.074.717,1.558,1.558,0,0,0,.217.52.922.922,0,0,0,.362.313,1.159,1.159,0,0,0,.505.105,1.323,1.323,0,0,0,.5-.088,2.033,2.033,0,0,0,.37-.2c.1-.071.194-.136.265-.194a.31.31,0,0,1,.181-.088.128.128,0,0,1,.085.028.205.205,0,0,1,.053.1,1.248,1.248,0,0,1,.031.2C432.3,49.734,432.3,49.836,432.3,49.96Z"/><path d="M438.243,45.534a.434.434,0,0,1,.33.1.422.422,0,0,1,.094.294v4.832a.151.151,0,0,1-.035.1.239.239,0,0,1-.113.071.934.934,0,0,1-.217.042,3.276,3.276,0,0,1-.341.014,3.371,3.371,0,0,1-.348-.014.934.934,0,0,1-.217-.042.239.239,0,0,1-.113-.071.149.149,0,0,1-.033-.1V46.686h-2.264v2.365a1.17,1.17,0,0,0,.13.618.5.5,0,0,0,.463.206.907.907,0,0,0,.2-.02,1.3,1.3,0,0,0,.16-.044l.119-.046a.228.228,0,0,1,.087-.019.121.121,0,0,1,.066.019.135.135,0,0,1,.047.079,1.227,1.227,0,0,1,.032.161,2.273,2.273,0,0,1,.013.26,1.838,1.838,0,0,1-.028.375.437.437,0,0,1-.079.187.391.391,0,0,1-.152.1,1.361,1.361,0,0,1-.235.073,2.442,2.442,0,0,1-.287.049,2.955,2.955,0,0,1-.313.016,2.243,2.243,0,0,1-.735-.107,1.205,1.205,0,0,1-.513-.33,1.371,1.371,0,0,1-.3-.562,2.92,2.92,0,0,1-.1-.8v-2.58h-.605c-.071,0-.125-.044-.163-.133a1.228,1.228,0,0,1-.056-.443,2.416,2.416,0,0,1,.013-.277.672.672,0,0,1,.043-.177.209.209,0,0,1,.071-.094.176.176,0,0,1,.1-.028h.6V44.411a.176.176,0,0,1,.03-.1.238.238,0,0,1,.114-.077.85.85,0,0,1,.22-.045c.092-.009.206-.014.341-.014s.255.005.348.014a.824.824,0,0,1,.217.045.256.256,0,0,1,.113.077.166.166,0,0,1,.034.1v1.123Zm.536-1.513a.8.8,0,0,1-.175.593,1.385,1.385,0,0,1-1.3.006.778.778,0,0,1-.166-.57.816.816,0,0,1,.172-.6,1.37,1.37,0,0,1,1.3-.006A.781.781,0,0,1,438.779,44.021Z"/><path d="M445.186,48.193a3.84,3.84,0,0,1-.169,1.174,2.487,2.487,0,0,1-.513.915,2.3,2.3,0,0,1-.865.593,3.242,3.242,0,0,1-1.214.208,3.332,3.332,0,0,1-1.168-.186,2.1,2.1,0,0,1-.824-.542,2.207,2.207,0,0,1-.485-.875,4.048,4.048,0,0,1-.158-1.185,3.812,3.812,0,0,1,.172-1.177,2.5,2.5,0,0,1,.516-.915,2.308,2.308,0,0,1,.861-.59,3.225,3.225,0,0,1,1.211-.209,3.393,3.393,0,0,1,1.174.184,2.058,2.058,0,0,1,.822.539,2.259,2.259,0,0,1,.482.875A4.1,4.1,0,0,1,445.186,48.193Zm-1.462.057a3.646,3.646,0,0,0-.059-.686,1.6,1.6,0,0,0-.2-.545.985.985,0,0,0-.375-.361,1.2,1.2,0,0,0-.589-.13,1.238,1.238,0,0,0-.554.116.992.992,0,0,0-.39.338,1.643,1.643,0,0,0-.228.537,3.019,3.019,0,0,0-.076.714,3.481,3.481,0,0,0,.062.685,1.69,1.69,0,0,0,.2.545.952.952,0,0,0,.375.359,1.243,1.243,0,0,0,.587.127,1.267,1.267,0,0,0,.56-.116.993.993,0,0,0,.389-.336,1.541,1.541,0,0,0,.226-.533A3.143,3.143,0,0,0,443.724,48.25Z"/><path d="M451.12,50.762a.156.156,0,0,1-.034.1.248.248,0,0,1-.114.071.923.923,0,0,1-.217.042,3.276,3.276,0,0,1-.341.014,3.337,3.337,0,0,1-.347-.014.933.933,0,0,1-.218-.042.25.25,0,0,1-.113-.071.155.155,0,0,1-.033-.1V47.888a2.47,2.47,0,0,0-.054-.576,1.16,1.16,0,0,0-.155-.358.689.689,0,0,0-.263-.231.81.81,0,0,0-.375-.082.947.947,0,0,0-.548.2,3,3,0,0,0-.576.576v3.348a.155.155,0,0,1-.033.1.256.256,0,0,1-.116.071.98.98,0,0,1-.217.042,4.258,4.258,0,0,1-.69,0,.97.97,0,0,1-.216-.042.249.249,0,0,1-.117-.071.155.155,0,0,1-.033-.1V45.726a.167.167,0,0,1,.029-.1.2.2,0,0,1,.1-.07.773.773,0,0,1,.189-.042,2.317,2.317,0,0,1,.291-.015,2.44,2.44,0,0,1,.3.015.661.661,0,0,1,.184.042.221.221,0,0,1,.094.07.181.181,0,0,1,.027.1v.582a3.235,3.235,0,0,1,.85-.678,1.925,1.925,0,0,1,.9-.226,1.991,1.991,0,0,1,.867.17,1.521,1.521,0,0,1,.571.46,1.87,1.87,0,0,1,.312.68,3.91,3.91,0,0,1,.1.937Z"/><path d="M456.058,49.339a1.7,1.7,0,0,1-.16.757,1.5,1.5,0,0,1-.455.547,2.03,2.03,0,0,1-.694.33,3.247,3.247,0,0,1-.869.11,3.362,3.362,0,0,1-1-.149,2.337,2.337,0,0,1-.338-.133.817.817,0,0,1-.2-.127.387.387,0,0,1-.1-.186,1.541,1.541,0,0,1-.034-.376,2.568,2.568,0,0,1,.011-.262.746.746,0,0,1,.034-.158.149.149,0,0,1,.057-.079.168.168,0,0,1,.084-.02.423.423,0,0,1,.184.071c.081.047.181.1.3.155a3.245,3.245,0,0,0,.42.158,1.863,1.863,0,0,0,.545.073,1.363,1.363,0,0,0,.342-.039.87.87,0,0,0,.26-.113.477.477,0,0,0,.166-.186.571.571,0,0,0,.056-.26.434.434,0,0,0-.1-.291.937.937,0,0,0-.276-.211,3.425,3.425,0,0,0-.39-.17c-.145-.052-.294-.111-.446-.175a3.843,3.843,0,0,1-.446-.22,1.67,1.67,0,0,1-.389-.3,1.368,1.368,0,0,1-.277-.434,1.6,1.6,0,0,1-.1-.61,1.56,1.56,0,0,1,.14-.663,1.438,1.438,0,0,1,.407-.517,1.915,1.915,0,0,1,.646-.333,2.875,2.875,0,0,1,.856-.119,3.141,3.141,0,0,1,.46.034,3.414,3.414,0,0,1,.4.085,2,2,0,0,1,.306.11,1.078,1.078,0,0,1,.177.1.289.289,0,0,1,.076.084.349.349,0,0,1,.034.1c.007.039.014.088.02.147s.008.131.008.217c0,.1,0,.185-.008.249a.679.679,0,0,1-.028.152.135.135,0,0,1-.054.076.154.154,0,0,1-.079.02.388.388,0,0,1-.158-.059,2.6,2.6,0,0,0-.269-.127,2.866,2.866,0,0,0-.372-.127,1.77,1.77,0,0,0-.482-.06,1.215,1.215,0,0,0-.333.04.621.621,0,0,0-.232.113.474.474,0,0,0-.135.172.492.492,0,0,0-.045.212.422.422,0,0,0,.106.293,1,1,0,0,0,.282.209,3.214,3.214,0,0,0,.4.169c.148.053.3.111.451.173a3.976,3.976,0,0,1,.452.217,1.7,1.7,0,0,1,.4.3,1.381,1.381,0,0,1,.282.432A1.5,1.5,0,0,1,456.058,49.339Z"/><path d="M459.406,47.917a10.818,10.818,0,0,1-.073,1.255,10.023,10.023,0,0,1-.223,1.225,10.792,10.792,0,0,1-.9,2.386.179.179,0,0,1-.06.07.334.334,0,0,1-.118.051,1.368,1.368,0,0,1-.19.031c-.075.007-.165.011-.27.011a2.175,2.175,0,0,1-.358-.022.466.466,0,0,1-.19-.068.134.134,0,0,1-.062-.11.445.445,0,0,1,.034-.155,12.282,12.282,0,0,0,.714-2.278,11.951,11.951,0,0,0,0-4.81,11.528,11.528,0,0,0-.723-2.272.267.267,0,0,1-.02-.135.143.143,0,0,1,.079-.1.614.614,0,0,1,.2-.059,2.17,2.17,0,0,1,.336-.02c.117,0,.213,0,.288.008a.985.985,0,0,1,.186.029.341.341,0,0,1,.1.042.192.192,0,0,1,.048.051,11.991,11.991,0,0,1,.891,2.4A10.121,10.121,0,0,1,459.406,47.917Z"/><line class="cls-6" x1="131.192" y1="242.583" x2="131.192" y2="246.083"/><line class="cls-6" x1="174.426" y1="246.083" x2="131.092" y2="246.083"/><line class="cls-6" x1="174.426" y1="246.083" x2="174.426" y2="242.583"/><line class="cls-6" x1="176.592" y1="242.583" x2="176.592" y2="246.083"/><line class="cls-6" x1="634.426" y1="246.083" x2="175.537" y2="246.083"/><line class="cls-6" x1="634.426" y1="246.083" x2="634.426" y2="242.583"/><path d="M378.862,256.3a.22.22,0,0,1-.023.1.172.172,0,0,1-.107.07,1.079,1.079,0,0,1-.248.04c-.109.008-.258.011-.446.011-.158,0-.284,0-.378-.011a.884.884,0,0,1-.223-.042.247.247,0,0,1-.116-.079.482.482,0,0,1-.057-.116l-.654-1.631q-.119-.278-.231-.492a1.6,1.6,0,0,0-.252-.358.935.935,0,0,0-.319-.218,1.106,1.106,0,0,0-.418-.073h-.463v2.783a.155.155,0,0,1-.036.1.262.262,0,0,1-.122.073,1.15,1.15,0,0,1-.225.045,3.82,3.82,0,0,1-.72,0,1.168,1.168,0,0,1-.229-.045.251.251,0,0,1-.119-.073.17.17,0,0,1-.033-.1v-6.633a.452.452,0,0,1,.127-.359.463.463,0,0,1,.313-.109h1.891c.192,0,.351,0,.475.011s.237.017.339.028a3.092,3.092,0,0,1,.792.215,1.882,1.882,0,0,1,.6.4,1.664,1.664,0,0,1,.376.582,2.119,2.119,0,0,1,.13.771,2.228,2.228,0,0,1-.094.668,1.707,1.707,0,0,1-.273.54,1.8,1.8,0,0,1-.446.412,2.418,2.418,0,0,1-.6.282,1.724,1.724,0,0,1,.308.192,1.6,1.6,0,0,1,.27.274,2.575,2.575,0,0,1,.24.366,4.758,4.758,0,0,1,.221.466l.615,1.44c.056.143.094.247.113.313A.646.646,0,0,1,378.862,256.3Zm-1.913-4.956a1.087,1.087,0,0,0-.164-.61.9.9,0,0,0-.536-.35,2,2,0,0,0-.257-.045,3.7,3.7,0,0,0-.4-.017h-.666v2.072h.757a1.807,1.807,0,0,0,.553-.076,1.108,1.108,0,0,0,.395-.215.874.874,0,0,0,.238-.33A1.13,1.13,0,0,0,376.949,251.339Z"/><path d="M384.349,253.631a.549.549,0,0,1-.116.384.414.414,0,0,1-.318.124h-3.066a2.118,2.118,0,0,0,.076.584,1.116,1.116,0,0,0,.243.446,1.051,1.051,0,0,0,.429.28,1.838,1.838,0,0,0,.629.095,3.52,3.52,0,0,0,.655-.053,4.532,4.532,0,0,0,.489-.118c.136-.044.251-.083.342-.119a.621.621,0,0,1,.219-.054.167.167,0,0,1,.085.02.151.151,0,0,1,.057.071.454.454,0,0,1,.03.144q.009.093.009.234c0,.082,0,.153-.006.211a1.257,1.257,0,0,1-.017.15.318.318,0,0,1-.034.1.341.341,0,0,1-.058.082.719.719,0,0,1-.2.108,3.26,3.26,0,0,1-.417.132,5.584,5.584,0,0,1-.582.113,4.836,4.836,0,0,1-.7.048,3.7,3.7,0,0,1-1.176-.169,2.086,2.086,0,0,1-.844-.514,2.118,2.118,0,0,1-.5-.869,4.082,4.082,0,0,1-.167-1.231,3.934,3.934,0,0,1,.175-1.211,2.543,2.543,0,0,1,.508-.914,2.179,2.179,0,0,1,.81-.573,3.115,3.115,0,0,1,2.156-.011,1.956,1.956,0,0,1,.738.516,2.092,2.092,0,0,1,.423.782,3.413,3.413,0,0,1,.135.982Zm-1.378-.406a1.456,1.456,0,0,0-.239-.94.928.928,0,0,0-.794-.342,1.041,1.041,0,0,0-.471.1.979.979,0,0,0-.333.274,1.263,1.263,0,0,0-.2.407,2,2,0,0,0-.082.5Z"/><path d="M390.1,251.254c0,.019,0,.042,0,.068a.811.811,0,0,1-.011.088c-.006.031-.014.068-.023.11s-.021.088-.037.141l-1.513,4.555a.437.437,0,0,1-.076.156.327.327,0,0,1-.158.093,1.385,1.385,0,0,1-.3.045c-.126.008-.291.011-.494.011s-.362,0-.488-.014a1.366,1.366,0,0,1-.3-.048.309.309,0,0,1-.155-.093.433.433,0,0,1-.077-.15l-1.513-4.555c-.023-.076-.04-.143-.054-.2a1.109,1.109,0,0,1-.022-.13c0-.027,0-.051,0-.074a.159.159,0,0,1,.031-.1.223.223,0,0,1,.11-.071.9.9,0,0,1,.217-.04c.093-.007.208-.011.348-.011s.278,0,.373.014a1.2,1.2,0,0,1,.222.04.208.208,0,0,1,.116.073.432.432,0,0,1,.056.116l1.147,3.7.033.141.034-.141,1.129-3.7a.319.319,0,0,1,.054-.116.216.216,0,0,1,.116-.073,1.118,1.118,0,0,1,.211-.04c.089-.009.2-.014.348-.014s.253,0,.341.011a.777.777,0,0,1,.2.04.209.209,0,0,1,.1.071A.17.17,0,0,1,390.1,251.254Z"/><path d="M395.475,253.631a.549.549,0,0,1-.115.384.414.414,0,0,1-.319.124h-3.066a2.118,2.118,0,0,0,.076.584,1.105,1.105,0,0,0,.244.446,1.048,1.048,0,0,0,.428.28,1.84,1.84,0,0,0,.63.095,3.509,3.509,0,0,0,.654-.053,4.419,4.419,0,0,0,.489-.118c.137-.044.252-.083.342-.119a.63.63,0,0,1,.22-.054.166.166,0,0,1,.084.02.145.145,0,0,1,.057.071.479.479,0,0,1,.031.144q.009.093.009.234c0,.082,0,.153-.006.211a1.236,1.236,0,0,1-.018.15.318.318,0,0,1-.033.1.377.377,0,0,1-.059.082.688.688,0,0,1-.2.108,3.209,3.209,0,0,1-.417.132,5.533,5.533,0,0,1-.582.113,4.832,4.832,0,0,1-.7.048,3.689,3.689,0,0,1-1.176-.169,2.1,2.1,0,0,1-.845-.514,2.129,2.129,0,0,1-.5-.869,4.084,4.084,0,0,1-.166-1.231,3.9,3.9,0,0,1,.175-1.211,2.528,2.528,0,0,1,.508-.914,2.175,2.175,0,0,1,.809-.573,3.117,3.117,0,0,1,2.157-.011,1.96,1.96,0,0,1,.737.516,2.078,2.078,0,0,1,.423.782,3.413,3.413,0,0,1,.135.982Zm-1.377-.406a1.462,1.462,0,0,0-.24-.94.928.928,0,0,0-.793-.342,1.042,1.042,0,0,0-.472.1.988.988,0,0,0-.333.274,1.263,1.263,0,0,0-.2.407,2.042,2.042,0,0,0-.082.5Z"/><path d="M399.879,251.729c0,.135,0,.246-.011.333a1.157,1.157,0,0,1-.034.2.2.2,0,0,1-.06.1.146.146,0,0,1-.093.029.311.311,0,0,1-.1-.02l-.127-.042a1.571,1.571,0,0,0-.156-.043.825.825,0,0,0-.186-.019.645.645,0,0,0-.237.047,1.031,1.031,0,0,0-.245.15,1.857,1.857,0,0,0-.266.271,4.348,4.348,0,0,0-.3.418V256.3a.156.156,0,0,1-.034.1.261.261,0,0,1-.115.071,1.039,1.039,0,0,1-.218.042,4.246,4.246,0,0,1-.689,0,1.028,1.028,0,0,1-.217-.042.254.254,0,0,1-.116-.071.156.156,0,0,1-.034-.1V251.26a.18.18,0,0,1,.028-.1.2.2,0,0,1,.1-.07.828.828,0,0,1,.19-.043,2.549,2.549,0,0,1,.29-.014,2.7,2.7,0,0,1,.3.014.7.7,0,0,1,.184.043.2.2,0,0,1,.093.07.18.18,0,0,1,.028.1v.627a4.026,4.026,0,0,1,.372-.466,2.234,2.234,0,0,1,.333-.291,1.085,1.085,0,0,1,.317-.15,1.22,1.22,0,0,1,.316-.042,1.507,1.507,0,0,1,.158.009,1.441,1.441,0,0,1,.175.028,1.128,1.128,0,0,1,.158.045.317.317,0,0,1,.1.054.176.176,0,0,1,.045.062.54.54,0,0,1,.025.093,1.317,1.317,0,0,1,.018.178C399.877,251.486,399.879,251.593,399.879,251.729Z"/><path d="M405.823,253.71a4.569,4.569,0,0,1-.147,1.208,2.791,2.791,0,0,1-.423.915,1.913,1.913,0,0,1-.68.581,2.022,2.022,0,0,1-.918.2,2.226,2.226,0,0,1-.474-.048,1.64,1.64,0,0,1-.421-.155,2.379,2.379,0,0,1-.395-.271,3.778,3.778,0,0,1-.4-.395v.547a.17.17,0,0,1-.031.1.221.221,0,0,1-.1.07.718.718,0,0,1-.19.04c-.078.008-.175.011-.287.011s-.214,0-.291-.011a.711.711,0,0,1-.187-.04.2.2,0,0,1-.1-.07.183.183,0,0,1-.028-.1v-7.423a.16.16,0,0,1,.034-.1.241.241,0,0,1,.115-.077,1.057,1.057,0,0,1,.218-.048,3.489,3.489,0,0,1,.688,0,1.057,1.057,0,0,1,.218.048.246.246,0,0,1,.115.077.16.16,0,0,1,.034.1v2.783a2.932,2.932,0,0,1,.384-.327,2.387,2.387,0,0,1,.384-.224,1.763,1.763,0,0,1,.395-.126,2.272,2.272,0,0,1,.429-.04,1.886,1.886,0,0,1,.948.223,1.827,1.827,0,0,1,.635.6,2.7,2.7,0,0,1,.359.884A4.882,4.882,0,0,1,405.823,253.71Zm-1.474.1a3.815,3.815,0,0,0-.048-.622,1.772,1.772,0,0,0-.166-.53,1.03,1.03,0,0,0-.307-.37.791.791,0,0,0-.478-.138.99.99,0,0,0-.276.039,1.023,1.023,0,0,0-.279.136,1.98,1.98,0,0,0-.3.248,3.52,3.52,0,0,0-.322.379v1.671a3.026,3.026,0,0,0,.574.583.949.949,0,0,0,.572.2.772.772,0,0,0,.469-.141,1.141,1.141,0,0,0,.319-.367,1.777,1.777,0,0,0,.184-.514A3.034,3.034,0,0,0,404.349,253.812Z"/><path d="M414.516,249.792a2.746,2.746,0,0,1-.013.28.834.834,0,0,1-.042.186.249.249,0,0,1-.072.1.14.14,0,0,1-.092.034h-1.83v5.888a.156.156,0,0,1-.037.1.253.253,0,0,1-.121.073,1.156,1.156,0,0,1-.228.045,3.789,3.789,0,0,1-.717,0,1.168,1.168,0,0,1-.229-.045.263.263,0,0,1-.121-.073.156.156,0,0,1-.037-.1V250.4h-1.829a.141.141,0,0,1-.1-.034.276.276,0,0,1-.068-.1.782.782,0,0,1-.042-.186,2.248,2.248,0,0,1-.014-.28,2.365,2.365,0,0,1,.014-.288.787.787,0,0,1,.042-.189.259.259,0,0,1,.068-.1.155.155,0,0,1,.1-.03H414.3a.153.153,0,0,1,.092.03.235.235,0,0,1,.072.1.839.839,0,0,1,.042.189C414.511,249.583,414.516,249.679,414.516,249.792Z"/><path d="M416.826,249.555a.8.8,0,0,1-.176.593,1.379,1.379,0,0,1-1.295,0,.771.771,0,0,1-.167-.57.813.813,0,0,1,.173-.595,1.36,1.36,0,0,1,1.3-.006A.774.774,0,0,1,416.826,249.555Zm-.108,6.74a.151.151,0,0,1-.034.1.25.25,0,0,1-.115.071,1.039,1.039,0,0,1-.218.042,4.233,4.233,0,0,1-.688,0,1.039,1.039,0,0,1-.218-.042.244.244,0,0,1-.115-.071.151.151,0,0,1-.034-.1v-5.024a.155.155,0,0,1,.034-.1.262.262,0,0,1,.115-.073,1,1,0,0,1,.218-.048,3.489,3.489,0,0,1,.688,0,1,1,0,0,1,.218.048.268.268,0,0,1,.115.073.155.155,0,0,1,.034.1Z"/><path d="M426.145,256.3a.155.155,0,0,1-.033.1.259.259,0,0,1-.113.071.981.981,0,0,1-.215.042,3.262,3.262,0,0,1-.344.014,3.37,3.37,0,0,1-.351-.014,1.03,1.03,0,0,1-.216-.042.235.235,0,0,1-.114-.071.167.167,0,0,1-.031-.1v-2.986a2.014,2.014,0,0,0-.048-.463,1.1,1.1,0,0,0-.146-.358.713.713,0,0,0-.248-.232.751.751,0,0,0-.36-.082.849.849,0,0,0-.513.2,3.444,3.444,0,0,0-.565.576V256.3a.15.15,0,0,1-.033.1.248.248,0,0,1-.116.071,1.042,1.042,0,0,1-.217.042,3.209,3.209,0,0,1-.339.014,3.3,3.3,0,0,1-.345-.014,1.017,1.017,0,0,1-.216-.042.258.258,0,0,1-.117-.071.156.156,0,0,1-.034-.1v-2.986a2.014,2.014,0,0,0-.048-.463,1.118,1.118,0,0,0-.143-.358.68.68,0,0,0-.248-.232.752.752,0,0,0-.357-.082.854.854,0,0,0-.518.2,3.29,3.29,0,0,0-.56.576V256.3a.15.15,0,0,1-.033.1.254.254,0,0,1-.116.071,1.042,1.042,0,0,1-.217.042,3.3,3.3,0,0,1-.345.014,3.262,3.262,0,0,1-.344-.014,1.028,1.028,0,0,1-.217-.042.248.248,0,0,1-.116-.071.151.151,0,0,1-.034-.1V251.26a.165.165,0,0,1,.029-.1.192.192,0,0,1,.1-.07.83.83,0,0,1,.189-.043,2.568,2.568,0,0,1,.291-.014,2.725,2.725,0,0,1,.3.014.684.684,0,0,1,.183.043.213.213,0,0,1,.094.07.179.179,0,0,1,.027.1v.581a3.378,3.378,0,0,1,.833-.677,1.8,1.8,0,0,1,.866-.226,2.231,2.231,0,0,1,.56.065,1.573,1.573,0,0,1,.442.186,1.391,1.391,0,0,1,.336.291,1.667,1.667,0,0,1,.238.378,4.432,4.432,0,0,1,.443-.418,2.625,2.625,0,0,1,.429-.284,1.93,1.93,0,0,1,.424-.164,1.731,1.731,0,0,1,.431-.054,1.922,1.922,0,0,1,.847.169,1.5,1.5,0,0,1,.556.46,1.86,1.86,0,0,1,.3.681,3.645,3.645,0,0,1,.09.824Z"/><path d="M432.191,253.631a.549.549,0,0,1-.115.384.415.415,0,0,1-.32.124h-3.065a2.081,2.081,0,0,0,.076.584,1.116,1.116,0,0,0,.243.446,1.058,1.058,0,0,0,.429.28,1.84,1.84,0,0,0,.63.095,3.509,3.509,0,0,0,.654-.053,4.419,4.419,0,0,0,.489-.118c.137-.044.252-.083.341-.119a.635.635,0,0,1,.221-.054.166.166,0,0,1,.084.02.151.151,0,0,1,.057.071.513.513,0,0,1,.031.144q.009.093.009.234c0,.082,0,.153-.006.211a1.236,1.236,0,0,1-.018.15.344.344,0,0,1-.033.1.414.414,0,0,1-.059.082.688.688,0,0,1-.2.108,3.18,3.18,0,0,1-.418.132,5.511,5.511,0,0,1-.581.113,4.832,4.832,0,0,1-.7.048,3.7,3.7,0,0,1-1.177-.169,2.093,2.093,0,0,1-.844-.514,2.129,2.129,0,0,1-.5-.869,4.052,4.052,0,0,1-.166-1.231,3.875,3.875,0,0,1,.175-1.211,2.541,2.541,0,0,1,.507-.914,2.187,2.187,0,0,1,.81-.573,3.117,3.117,0,0,1,2.157-.011,1.948,1.948,0,0,1,.736.516,2.08,2.08,0,0,1,.424.782,3.413,3.413,0,0,1,.135.982Zm-1.377-.406a1.462,1.462,0,0,0-.24-.94.928.928,0,0,0-.793-.342,1.042,1.042,0,0,0-.472.1.979.979,0,0,0-.333.274,1.263,1.263,0,0,0-.2.407,2.042,2.042,0,0,0-.082.5Z"/></svg>