<svg id="Layer_1" data-name="Layer 1" xmlns="http://www.w3.org/2000/svg" width="508.04" height="390.36" viewBox="0 0 508.04 390.36"><defs><style>.cls-1,.cls-2{fill:none;stroke-miterlimit:10;}.cls-1{stroke:#ccc;}.cls-2,.cls-3{stroke:#000;}.cls-3{stroke-linecap:round;stroke-linejoin:round;stroke-width:3px;fill-rule:evenodd;}</style></defs><polyline class="cls-1" points="10.531 380.359 10.531 10.433 498.041 10.433"/><line class="cls-1" x1="10.531" y1="380.58" x2="498.041" y2="380.58"/><line class="cls-1" x1="10.531" y1="362.073" x2="498.041" y2="362.073"/><line class="cls-1" x1="10.531" y1="343.565" x2="498.041" y2="343.565"/><line class="cls-1" x1="10.531" y1="325.058" x2="498.041" y2="325.058"/><line class="cls-1" x1="10.531" y1="306.551" x2="498.041" y2="306.551"/><line class="cls-1" x1="10.531" y1="288.043" x2="498.041" y2="288.043"/><line class="cls-1" x1="10.531" y1="269.536" x2="498.041" y2="269.536"/><line class="cls-1" x1="10.531" y1="251.029" x2="498.041" y2="251.029"/><line class="cls-1" x1="10.531" y1="232.521" x2="498.041" y2="232.521"/><line class="cls-1" x1="10.531" y1="214.014" x2="498.041" y2="214.014"/><line class="cls-1" x1="10.531" y1="195.507" x2="498.041" y2="195.507"/><line class="cls-1" x1="10.531" y1="176.999" x2="498.041" y2="176.999"/><line class="cls-1" x1="10.531" y1="158.492" x2="498.041" y2="158.492"/><line class="cls-1" x1="10.531" y1="139.985" x2="498.041" y2="139.985"/><line class="cls-1" x1="10.531" y1="121.477" x2="498.041" y2="121.477"/><line class="cls-1" x1="10.531" y1="102.97" x2="498.041" y2="102.97"/><line class="cls-1" x1="10.531" y1="84.463" x2="498.041" y2="84.463"/><line class="cls-1" x1="10.531" y1="65.955" x2="498.041" y2="65.955"/><line class="cls-1" x1="10.531" y1="47.448" x2="498.041" y2="47.448"/><line class="cls-1" x1="10.531" y1="28.941" x2="498.041" y2="28.941"/><line class="cls-1" x1="498.041" y1="10.433" x2="498.041" y2="380.359"/><line class="cls-1" x1="473.666" y1="10.433" x2="473.666" y2="380.359"/><line class="cls-1" x1="449.29" y1="10.433" x2="449.29" y2="380.359"/><line class="cls-1" x1="424.915" y1="10.433" x2="424.915" y2="380.359"/><line class="cls-1" x1="400.539" y1="10.433" x2="400.539" y2="380.359"/><line class="cls-1" x1="376.164" y1="10.433" x2="376.164" y2="380.359"/><line class="cls-1" x1="351.788" y1="10.433" x2="351.788" y2="380.359"/><line class="cls-1" x1="327.413" y1="10.433" x2="327.413" y2="380.359"/><line class="cls-1" x1="303.037" y1="10.433" x2="303.037" y2="380.359"/><line class="cls-1" x1="278.662" y1="10.433" x2="278.662" y2="380.359"/><line class="cls-1" x1="254.286" y1="10.433" x2="254.286" y2="380.359"/><line class="cls-1" x1="229.911" y1="10.433" x2="229.911" y2="380.359"/><line class="cls-1" x1="205.535" y1="10.433" x2="205.535" y2="380.359"/><line class="cls-1" x1="181.16" y1="10.433" x2="181.16" y2="380.359"/><line class="cls-1" x1="156.784" y1="10.433" x2="156.784" y2="380.359"/><line class="cls-1" x1="132.409" y1="10.433" x2="132.409" y2="380.359"/><line class="cls-1" x1="108.033" y1="10.433" x2="108.033" y2="380.359"/><line class="cls-1" x1="83.658" y1="10.433" x2="83.658" y2="380.359"/><line class="cls-1" x1="59.282" y1="10.433" x2="59.282" y2="380.359"/><line class="cls-1" x1="34.907" y1="10.433" x2="34.907" y2="380.359"/><line class="cls-2" x1="254.02" y1="10.001" x2="254.02" y2="380.359"/><line class="cls-2" x1="498.041" y1="195.507" x2="10.531" y2="195.507"/><path class="cls-3" d="M107.723,173.875c-.027-.242-.3-.73-.451-1.577a9.363,9.363,0,0,1-.032-2.817,1.482,1.482,0,0,1,.859-1.271,4.853,4.853,0,0,1,1.971-.255,15.925,15.925,0,0,0,3.179-.137c.741-.2.784-.668.763-1.176s-.106-1.059-.117-1.441a1.058,1.058,0,0,1,.2-.773c.149-.18.382-.328.483-.476a.362.362,0,0,0-.032-.44c-.1-.143-.27-.281-.217-.376s.328-.148.445-.281a.544.544,0,0,0,0-.54c-.075-.2-.181-.376-.26-.566a2.645,2.645,0,0,1-.159-.541.308.308,0,0,1,.111-.355,3.861,3.861,0,0,1,.8-.4c.381-.159.869-.349.97-.683s-.186-.81-.649-1.5-1.105-1.59-1.475-2.21a3.918,3.918,0,0,1-.522-1.176.915.915,0,0,1,.035-.593,7.1,7.1,0,0,0,.331-1.43,6.5,6.5,0,0,0-.242-2.588,12.187,12.187,0,0,0-1.5-3.029A9.438,9.438,0,0,0,110.2,145a9.685,9.685,0,0,0-2.776-1.539,10.969,10.969,0,0,0-3.741-.588,16,16,0,0,0-5.19.789,11.38,11.38,0,0,0-4.612,3.056,10.2,10.2,0,0,0-2.747,5.627,14.045,14.045,0,0,0,1.094,7.34c.975,2.071,2.48,3.31,3.2,4.624a6.051,6.051,0,0,1,.392,4.168,33.137,33.137,0,0,1-1.028,3.945,9.2,9.2,0,0,0-.423,1.42c0,.169.127.19,1.5.2s4.006.011,6.12.02,3.714.028,4.625.038S107.749,174.117,107.723,173.875Z"/><path class="cls-3" d="M208.286,293.877c.912-.011,2.512-.029,4.626-.039s4.742-.009,6.119-.019,1.5-.032,1.5-.2a9.185,9.185,0,0,0-.424-1.419,33.159,33.159,0,0,1-1.028-3.946,6.057,6.057,0,0,1,.393-4.168c.72-1.313,2.225-2.552,3.2-4.623a14.056,14.056,0,0,0,1.094-7.34,10.2,10.2,0,0,0-2.747-5.627,11.357,11.357,0,0,0-4.613-3.056,15.993,15.993,0,0,0-5.189-.789,10.936,10.936,0,0,0-3.741.588,9.683,9.683,0,0,0-2.776,1.538,9.441,9.441,0,0,0-2.016,2.246,12.118,12.118,0,0,0-1.5,3.029,6.481,6.481,0,0,0-.242,2.588,7.011,7.011,0,0,0,.331,1.429.916.916,0,0,1,.035.593,3.935,3.935,0,0,1-.522,1.176c-.371.621-1.012,1.522-1.475,2.211s-.75,1.165-.649,1.5.588.524.97.683a3.819,3.819,0,0,1,.794.4.307.307,0,0,1,.112.355,2.791,2.791,0,0,1-.159.54c-.08.191-.186.371-.26.567a.544.544,0,0,0,0,.54c.117.132.392.185.445.281s-.116.233-.217.376a.358.358,0,0,0-.032.439c.1.149.334.3.482.477a1.058,1.058,0,0,1,.2.773c-.011.381-.1.932-.117,1.441s.021.974.763,1.175a15.845,15.845,0,0,0,3.179.138,4.875,4.875,0,0,1,1.971.254,1.484,1.484,0,0,1,.858,1.271,9.3,9.3,0,0,1-.032,2.818c-.148.847-.423,1.334-.45,1.577S207.375,293.887,208.286,293.877Z"/><path d="M271.428,27.319a4.64,4.64,0,0,1-.029.574,1.535,1.535,0,0,1-.088.381.429.429,0,0,1-.146.2.344.344,0,0,1-.194.059H262.03a.939.939,0,0,1-.721-.27,1.107,1.107,0,0,1-.252-.785v-.515a2.8,2.8,0,0,1,.03-.428,2.1,2.1,0,0,1,.1-.393,2.716,2.716,0,0,1,.205-.433c.09-.157.2-.344.334-.563l5.883-9.328h-5.836a.43.43,0,0,1-.24-.064.474.474,0,0,1-.164-.205,1.325,1.325,0,0,1-.094-.375,4.752,4.752,0,0,1-.029-.563,5.142,5.142,0,0,1,.029-.592,1.4,1.4,0,0,1,.094-.386.429.429,0,0,1,.164-.206.464.464,0,0,1,.24-.058h8.379a.924.924,0,0,1,.709.246.978.978,0,0,1,.229.691v.575a4.25,4.25,0,0,1-.03.544,2.128,2.128,0,0,1-.105.446,2.816,2.816,0,0,1-.2.445c-.086.152-.2.334-.328.545l-5.789,9.2h6.339q.224,0,.34.281A2.815,2.815,0,0,1,271.428,27.319Z"/><path d="M492.568,188.905a3.448,3.448,0,0,1,.276.656.353.353,0,0,1-.077.375.893.893,0,0,1-.509.164c-.247.023-.588.035-1.026.035q-.55,0-.867-.023a2.491,2.491,0,0,1-.5-.077.55.55,0,0,1-.264-.146.88.88,0,0,1-.14-.234l-2.848-5.473-2.836,5.473a1.169,1.169,0,0,1-.152.234.55.55,0,0,1-.264.146,2.513,2.513,0,0,1-.5.077q-.322.023-.849.023c-.407,0-.721-.012-.944-.035a.713.713,0,0,1-.451-.164.376.376,0,0,1-.047-.375,3.534,3.534,0,0,1,.293-.656l3.633-6.621-3.375-6.223a4.555,4.555,0,0,1-.287-.674.341.341,0,0,1,.058-.375.856.856,0,0,1,.5-.152c.243-.02.586-.03,1.032-.03q.55,0,.873.024a2.646,2.646,0,0,1,.51.076.51.51,0,0,1,.263.146,1.29,1.29,0,0,1,.147.235l2.66,5.015,2.59-5.015a1.29,1.29,0,0,1,.146-.235.5.5,0,0,1,.246-.146,2.227,2.227,0,0,1,.469-.076c.2-.016.475-.024.826-.024.391,0,.7.01.926.03a.752.752,0,0,1,.469.158.367.367,0,0,1,.064.375,4.141,4.141,0,0,1-.264.668l-3.375,6.187Z"/><path d="M419.873,100.3V85.319l.007-.05h-.007l-.015,0-14.572,1.952h0V99.056a4.736,4.736,0,0,0-1.9-.193c-2.141.208-3.744,1.732-3.582,3.4s2.029,2.861,4.169,2.653,3.746-1.732,3.584-3.405a.4.4,0,0,1,0-.083V91.166L417.6,89.7V97.92a4.769,4.769,0,0,0-1.9-.194c-2.141.208-3.745,1.733-3.583,3.405s2.03,2.86,4.17,2.652,3.745-1.732,3.582-3.4A.468.468,0,0,1,419.873,100.3Z"/><path d="M177.831,286.2V271.223l.007-.05-.007,0v0l-.015,0-14.571,1.951h0V284.96a4.736,4.736,0,0,0-1.9-.192c-2.141.207-3.744,1.732-3.582,3.4s2.028,2.86,4.169,2.652,3.745-1.731,3.583-3.4a.393.393,0,0,1,0-.082V277.07l10.043-1.466v8.22a4.768,4.768,0,0,0-1.9-.194c-2.141.208-3.744,1.733-3.582,3.405s2.029,2.86,4.169,2.652,3.746-1.732,3.582-3.4A.588.588,0,0,1,177.831,286.2Z"/></svg>