<svg id="Layer_1" data-name="Layer 1" xmlns="http://www.w3.org/2000/svg" width="709.008" height="272.788" viewBox="0 0 709.008 272.788"><defs><style>.cls-1,.cls-10,.cls-2,.cls-3,.cls-4,.cls-5,.cls-6,.cls-8,.cls-9{fill:none;}.cls-1,.cls-2{stroke:#b3b3b3;}.cls-1,.cls-10,.cls-2,.cls-3,.cls-4,.cls-5,.cls-6,.cls-7,.cls-8,.cls-9{stroke-miterlimit:10;}.cls-2{stroke-dasharray:2.993 2.993;}.cls-3,.cls-4{stroke:#cbcbcb;}.cls-4{stroke-dasharray:3.002 3.002;}.cls-5{stroke:#ccc;}.cls-10,.cls-6{stroke:red;}.cls-10,.cls-6,.cls-7,.cls-8,.cls-9{stroke-width:2px;}.cls-7{fill:#fbb03b;}.cls-7,.cls-8,.cls-9{stroke:#000;}.cls-9{stroke-dasharray:2.976 2.976;}.cls-10{opacity:0.15;}.cls-11{fill:#666;}</style></defs><line class="cls-1" x1="54.552" y1="98.446" x2="56.052" y2="98.446"/><line class="cls-2" x1="59.045" y1="98.446" x2="662.213" y2="98.446"/><line class="cls-1" x1="663.709" y1="98.446" x2="665.209" y2="98.446"/><line class="cls-3" x1="547.5" y1="238.397" x2="547.5" y2="29"/><line class="cls-3" x1="172.727" y1="238.397" x2="172.727" y2="29"/><line class="cls-3" x1="666.098" y1="133.169" x2="664.598" y2="133.169"/><line class="cls-4" x1="661.595" y1="133.169" x2="56.665" y2="133.169"/><line class="cls-3" x1="55.164" y1="133.169" x2="53.664" y2="133.169"/><line class="cls-3" x1="361.847" y1="238.397" x2="361.847" y2="29"/><line class="cls-3" x1="53.861" y1="237.338" x2="53.861" y2="29"/><line class="cls-5" x1="53.283" y1="29" x2="57.597" y2="29"/><line class="cls-5" x1="53.283" y1="237.338" x2="57.597" y2="237.338"/><path d="M37.35,62.79a8.094,8.094,0,0,1-.141,1.581,3.492,3.492,0,0,1-.46,1.2,2.153,2.153,0,0,1-.83.762,2.691,2.691,0,0,1-1.251.265,2.653,2.653,0,0,1-1.241-.257,1.945,1.945,0,0,1-.78-.739,3.381,3.381,0,0,1-.4-1.18,9.72,9.72,0,0,1-.116-1.578,7.956,7.956,0,0,1,.144-1.578,3.5,3.5,0,0,1,.463-1.2,2.158,2.158,0,0,1,.829-.762,3.108,3.108,0,0,1,2.491-.009,1.927,1.927,0,0,1,.781.741,3.308,3.308,0,0,1,.4,1.179A9.961,9.961,0,0,1,37.35,62.79Zm-1.5.074q0-.519-.028-.917a5.634,5.634,0,0,0-.088-.692,2.706,2.706,0,0,0-.146-.5,1.012,1.012,0,0,0-.212-.324.7.7,0,0,0-.282-.172,1.145,1.145,0,0,0-.351-.051.907.907,0,0,0-.55.16,1.076,1.076,0,0,0-.344.484,3.075,3.075,0,0,0-.178.8,10.73,10.73,0,0,0-.051,1.118,10.877,10.877,0,0,0,.063,1.29,2.947,2.947,0,0,0,.194.812.871.871,0,0,0,.342.424.977.977,0,0,0,.5.121,1,1,0,0,0,.389-.07.816.816,0,0,0,.3-.212,1.176,1.176,0,0,0,.211-.355,2.766,2.766,0,0,0,.139-.5,4.828,4.828,0,0,0,.073-.638C35.848,63.412,35.854,63.15,35.854,62.864Z"/><path d="M43.152,66.28a.181.181,0,0,1-.027.1.207.207,0,0,1-.1.07.626.626,0,0,1-.183.04c-.077.007-.172.011-.285.011s-.218,0-.293-.011a.657.657,0,0,1-.184-.04.225.225,0,0,1-.1-.07.176.176,0,0,1-.031-.1v-.56a3.252,3.252,0,0,1-.815.65,2.141,2.141,0,0,1-1.919.008,1.846,1.846,0,0,1-.65-.6,2.588,2.588,0,0,1-.364-.883,4.891,4.891,0,0,1-.113-1.065,4.664,4.664,0,0,1,.144-1.208,2.757,2.757,0,0,1,.42-.915,1.868,1.868,0,0,1,.69-.581,2.122,2.122,0,0,1,.948-.2,1.706,1.706,0,0,1,.768.172,2.706,2.706,0,0,1,.682.506V58.873a.175.175,0,0,1,.031-.1.232.232,0,0,1,.114-.076.925.925,0,0,1,.217-.049,2.92,2.92,0,0,1,.344-.017,2.95,2.95,0,0,1,.345.017.884.884,0,0,1,.214.049.243.243,0,0,1,.113.076.157.157,0,0,1,.033.1Zm-1.411-3.366a3.1,3.1,0,0,0-.584-.586.983.983,0,0,0-.584-.2.813.813,0,0,0-.477.139,1.006,1.006,0,0,0-.322.369,1.96,1.96,0,0,0-.18.517,2.832,2.832,0,0,0-.06.585,3.646,3.646,0,0,0,.051.615,1.937,1.937,0,0,0,.167.533,1.011,1.011,0,0,0,.308.375.79.79,0,0,0,.485.142,1.013,1.013,0,0,0,.285-.042,1.068,1.068,0,0,0,.282-.139,1.84,1.84,0,0,0,.3-.251,4.712,4.712,0,0,0,.333-.381Z"/><path d="M49.955,64.281a2.18,2.18,0,0,1-.107.706,1.861,1.861,0,0,1-.748.976,2.652,2.652,0,0,1-.579.288,3.443,3.443,0,0,1-.674.166,5.4,5.4,0,0,1-.8.054H45.106a.463.463,0,0,1-.313-.109.455.455,0,0,1-.127-.36V59.635a.448.448,0,0,1,.127-.358.459.459,0,0,1,.313-.111H46.94a4.854,4.854,0,0,1,1.138.114,2.223,2.223,0,0,1,.785.341,1.53,1.53,0,0,1,.489.579,1.882,1.882,0,0,1,.169.824,1.8,1.8,0,0,1-.068.5,1.511,1.511,0,0,1-.2.426,1.455,1.455,0,0,1-.318.338,1.654,1.654,0,0,1-.432.238,1.918,1.918,0,0,1,.572.2,1.623,1.623,0,0,1,.458.364,1.729,1.729,0,0,1,.308.523A1.893,1.893,0,0,1,49.955,64.281ZM48.036,61.2a1.073,1.073,0,0,0-.068-.4.716.716,0,0,0-.2-.29.927.927,0,0,0-.341-.178,1.953,1.953,0,0,0-.551-.062h-.751v1.9h.83a1.418,1.418,0,0,0,.514-.076.886.886,0,0,0,.319-.209.837.837,0,0,0,.189-.311A1.109,1.109,0,0,0,48.036,61.2Zm.378,3.127a1.148,1.148,0,0,0-.085-.454.873.873,0,0,0-.248-.336,1.162,1.162,0,0,0-.418-.209,2.482,2.482,0,0,0-.66-.073h-.881v2.077H47.2a1.819,1.819,0,0,0,.522-.064,1.063,1.063,0,0,0,.367-.193.861.861,0,0,0,.243-.315A1.024,1.024,0,0,0,48.414,64.331Z"/><path d="M38.3,202.128a1.173,1.173,0,0,1-.062.457.206.206,0,0,1-.2.13H35.689a.211.211,0,0,1-.2-.133,1.176,1.176,0,0,1-.061-.454,1.143,1.143,0,0,1,.061-.446.212.212,0,0,1,.2-.129h2.349a.234.234,0,0,1,.116.027.23.23,0,0,1,.082.1.575.575,0,0,1,.048.181A2.3,2.3,0,0,1,38.3,202.128Z"/><path d="M44.141,202.53a3.03,3.03,0,0,1-.169,1.024,2.22,2.22,0,0,1-1.3,1.349,2.915,2.915,0,0,1-1.106.2,3.046,3.046,0,0,1-.886-.116,1.984,1.984,0,0,1-.655-.333,1.768,1.768,0,0,1-.452-.528,2.957,2.957,0,0,1-.279-.7,4.825,4.825,0,0,1-.144-.846q-.041-.457-.04-.971,0-.429.042-.9a5.4,5.4,0,0,1,.165-.919,4,4,0,0,1,.341-.861,2.522,2.522,0,0,1,1.409-1.205,3.392,3.392,0,0,1,1.17-.181,3.478,3.478,0,0,1,.432.026c.146.016.28.038.4.064a2.081,2.081,0,0,1,.316.091.665.665,0,0,1,.173.087.261.261,0,0,1,.064.082.506.506,0,0,1,.037.1.8.8,0,0,1,.02.132q.006.079.006.192,0,.175-.009.291a.759.759,0,0,1-.031.181.188.188,0,0,1-.062.093.16.16,0,0,1-.1.028.571.571,0,0,1-.175-.036c-.072-.025-.159-.052-.26-.082a2.873,2.873,0,0,0-.359-.08,3.018,3.018,0,0,0-.476-.034,1.622,1.622,0,0,0-.774.17,1.421,1.421,0,0,0-.513.46,1.989,1.989,0,0,0-.288.675,3.716,3.716,0,0,0-.1.812c.083-.052.178-.1.285-.158a2.294,2.294,0,0,1,.35-.135,3.2,3.2,0,0,1,.409-.093,2.8,2.8,0,0,1,.469-.036,2.629,2.629,0,0,1,.948.152,1.621,1.621,0,0,1,.646.434,1.776,1.776,0,0,1,.37.683A3.113,3.113,0,0,1,44.141,202.53Zm-1.456.14a2.291,2.291,0,0,0-.051-.5.974.974,0,0,0-.164-.367.693.693,0,0,0-.3-.225,1.193,1.193,0,0,0-.452-.077,1.607,1.607,0,0,0-.311.029,1.967,1.967,0,0,0-.3.079,2.012,2.012,0,0,0-.282.121,2.784,2.784,0,0,0-.254.149,6.261,6.261,0,0,0,.068,1.008,2.02,2.02,0,0,0,.2.641.8.8,0,0,0,.333.336,1.055,1.055,0,0,0,.466.1,1.033,1.033,0,0,0,.455-.095.9.9,0,0,0,.324-.272,1.254,1.254,0,0,0,.2-.409A1.8,1.8,0,0,0,42.685,202.67Z"/><path d="M50.034,201.287a8.1,8.1,0,0,1-.141,1.581,3.46,3.46,0,0,1-.46,1.2,2.15,2.15,0,0,1-.83.761,3.1,3.1,0,0,1-2.493.009,1.936,1.936,0,0,1-.778-.74,3.353,3.353,0,0,1-.4-1.18,9.707,9.707,0,0,1-.116-1.577,7.949,7.949,0,0,1,.144-1.578,3.489,3.489,0,0,1,.463-1.2,2.164,2.164,0,0,1,.83-.763,3.108,3.108,0,0,1,2.489-.008,1.942,1.942,0,0,1,.783.74,3.341,3.341,0,0,1,.4,1.179A9.983,9.983,0,0,1,50.034,201.287Zm-1.5.074c0-.347-.01-.653-.028-.917a5.446,5.446,0,0,0-.088-.692,2.467,2.467,0,0,0-.147-.5,1,1,0,0,0-.212-.325.712.712,0,0,0-.282-.172,1.127,1.127,0,0,0-.349-.051.9.9,0,0,0-.551.162,1.057,1.057,0,0,0-.344.482,3.084,3.084,0,0,0-.178.8,10.734,10.734,0,0,0-.05,1.117,11.143,11.143,0,0,0,.061,1.29,2.988,2.988,0,0,0,.2.813.872.872,0,0,0,.341.423,1.1,1.1,0,0,0,.893.051.827.827,0,0,0,.3-.211,1.183,1.183,0,0,0,.212-.356,2.842,2.842,0,0,0,.138-.5,5.219,5.219,0,0,0,.074-.639C48.531,201.909,48.538,201.647,48.538,201.361Z"/><line class="cls-3" x1="666.097" y1="237.338" x2="53.664" y2="237.338"/><line class="cls-3" x1="666.097" y1="29" x2="53.664" y2="29"/><path d="M38.3,98.183a1.179,1.179,0,0,1-.062.457.206.206,0,0,1-.2.13H35.689a.211.211,0,0,1-.2-.133,1.187,1.187,0,0,1-.061-.454,1.143,1.143,0,0,1,.061-.446.211.211,0,0,1,.2-.13h2.349a.234.234,0,0,1,.116.028.227.227,0,0,1,.082.1.567.567,0,0,1,.048.181A2.316,2.316,0,0,1,38.3,98.183Z"/><path d="M43.96,100.457a1.842,1.842,0,0,1-.017.269.659.659,0,0,1-.047.175.248.248,0,0,1-.072.093.146.146,0,0,1-.09.028H39.7a.144.144,0,0,1-.085-.028.236.236,0,0,1-.07-.093.617.617,0,0,1-.049-.175,1.842,1.842,0,0,1-.017-.269,2.066,2.066,0,0,1,.015-.273.605.605,0,0,1,.045-.178.25.25,0,0,1,.07-.1.139.139,0,0,1,.091-.032h1.36V95.123l-1.174.649a.831.831,0,0,1-.211.076.139.139,0,0,1-.13-.033.3.3,0,0,1-.066-.167,2.782,2.782,0,0,1-.016-.333c0-.09,0-.164.006-.223a.515.515,0,0,1,.027-.149.293.293,0,0,1,.062-.1.868.868,0,0,1,.108-.085l1.569-1.016a.216.216,0,0,1,.071-.037.573.573,0,0,1,.11-.022,1.761,1.761,0,0,1,.178-.012q.109,0,.285,0c.142,0,.259,0,.346.009a1.057,1.057,0,0,1,.2.028.127.127,0,0,1,.112.138v6.035h1.191a.144.144,0,0,1,.093.032.235.235,0,0,1,.073.1.573.573,0,0,1,.046.178A2.28,2.28,0,0,1,43.96,100.457Z"/><path d="M49.887,100.418a2.248,2.248,0,0,1-.014.28.848.848,0,0,1-.042.189.224.224,0,0,1-.073.1.176.176,0,0,1-.1.031h-4.2a.853.853,0,0,1-.215-.023.269.269,0,0,1-.146-.087.4.4,0,0,1-.082-.189,1.649,1.649,0,0,1-.026-.322,2.621,2.621,0,0,1,.017-.319.9.9,0,0,1,.062-.237,1.15,1.15,0,0,1,.116-.2,2.16,2.16,0,0,1,.183-.218L46.63,98.07a6.633,6.633,0,0,0,.609-.72,4.1,4.1,0,0,0,.362-.593,2.137,2.137,0,0,0,.177-.494,2,2,0,0,0,.049-.429,1.049,1.049,0,0,0-.059-.352.832.832,0,0,0-.175-.291A.816.816,0,0,0,47.3,95a1.121,1.121,0,0,0-.412-.07,1.866,1.866,0,0,0-.59.085,2.782,2.782,0,0,0-.452.19,3.719,3.719,0,0,0-.325.191.406.406,0,0,1-.2.088.129.129,0,0,1-.088-.034.242.242,0,0,1-.058-.114,1.136,1.136,0,0,1-.037-.211,2.989,2.989,0,0,1-.014-.325c0-.086,0-.158.008-.217a1.235,1.235,0,0,1,.025-.152.452.452,0,0,1,.046-.113.593.593,0,0,1,.1-.115,1.322,1.322,0,0,1,.26-.173,3.18,3.18,0,0,1,.465-.2,4.367,4.367,0,0,1,.61-.166,3.4,3.4,0,0,1,.694-.069,3.084,3.084,0,0,1,1,.145,1.981,1.981,0,0,1,.709.4,1.606,1.606,0,0,1,.42.61,2.044,2.044,0,0,1,.139.759,3.637,3.637,0,0,1-.068.7,2.685,2.685,0,0,1-.283.742,5.982,5.982,0,0,1-.6.881,14.325,14.325,0,0,1-1.034,1.12l-.852.875h2.879a.173.173,0,0,1,.1.034.246.246,0,0,1,.082.1.633.633,0,0,1,.051.186A1.825,1.825,0,0,1,49.887,100.418Z"/><path d="M38.3,132.536a1.176,1.176,0,0,1-.062.457.207.207,0,0,1-.2.129H35.689a.211.211,0,0,1-.2-.132,1.183,1.183,0,0,1-.061-.454,1.149,1.149,0,0,1,.061-.447.212.212,0,0,1,.2-.129h2.349a.224.224,0,0,1,.116.028.221.221,0,0,1,.082.1.575.575,0,0,1,.048.181A2.3,2.3,0,0,1,38.3,132.536Z"/><path d="M44.027,134.771a2.466,2.466,0,0,1-.013.279.9.9,0,0,1-.042.19.225.225,0,0,1-.074.1.173.173,0,0,1-.1.031H39.6a.9.9,0,0,1-.215-.022.282.282,0,0,1-.147-.088.4.4,0,0,1-.082-.189,1.736,1.736,0,0,1-.025-.322,2.633,2.633,0,0,1,.017-.319.858.858,0,0,1,.062-.236,1.062,1.062,0,0,1,.115-.2,2.2,2.2,0,0,1,.184-.217l1.265-1.355a6.749,6.749,0,0,0,.609-.72,4.172,4.172,0,0,0,.361-.592,2.143,2.143,0,0,0,.178-.494,2.078,2.078,0,0,0,.049-.43,1.064,1.064,0,0,0-.06-.353.836.836,0,0,0-.175-.291.8.8,0,0,0-.291-.194,1.1,1.1,0,0,0-.412-.07,1.9,1.9,0,0,0-.59.084,2.916,2.916,0,0,0-.452.189,3.652,3.652,0,0,0-.324.193.421.421,0,0,1-.2.086.122.122,0,0,1-.088-.033.248.248,0,0,1-.059-.113,1.371,1.371,0,0,1-.037-.212c-.009-.088-.013-.2-.013-.324,0-.087,0-.159.007-.218a1.085,1.085,0,0,1,.026-.152.431.431,0,0,1,.046-.113.583.583,0,0,1,.1-.116,1.377,1.377,0,0,1,.26-.172,3.149,3.149,0,0,1,.466-.2,4.386,4.386,0,0,1,.609-.167,3.487,3.487,0,0,1,.695-.067,3.143,3.143,0,0,1,1,.143,1.978,1.978,0,0,1,.709.4,1.614,1.614,0,0,1,.42.609,2.064,2.064,0,0,1,.138.759,3.627,3.627,0,0,1-.067.7,2.682,2.682,0,0,1-.283.742,5.792,5.792,0,0,1-.6.881,14.086,14.086,0,0,1-1.033,1.121l-.852.874h2.878a.18.18,0,0,1,.1.034.264.264,0,0,1,.082.105.665.665,0,0,1,.051.186A1.982,1.982,0,0,1,44.027,134.771Z"/><path d="M50.113,133.275a1.251,1.251,0,0,1-.059.437c-.039.1-.093.151-.161.151h-.65v1.32a.157.157,0,0,1-.033.1.263.263,0,0,1-.119.071,1.164,1.164,0,0,1-.22.042,3.349,3.349,0,0,1-.35.014,3.263,3.263,0,0,1-.341-.014,1.115,1.115,0,0,1-.221-.042.23.23,0,0,1-.112-.071.163.163,0,0,1-.032-.1v-1.32H45.021a.44.44,0,0,1-.141-.021.2.2,0,0,1-.105-.09.569.569,0,0,1-.061-.2,2.361,2.361,0,0,1-.021-.353c0-.12,0-.225.009-.313a2.149,2.149,0,0,1,.028-.24,1.164,1.164,0,0,1,.057-.2,1.975,1.975,0,0,1,.093-.2l2.269-4a.235.235,0,0,1,.1-.087.7.7,0,0,1,.19-.063,2.263,2.263,0,0,1,.307-.036c.124-.008.275-.011.451-.011.193,0,.356,0,.492.013a2.03,2.03,0,0,1,.325.046.508.508,0,0,1,.178.076.136.136,0,0,1,.055.108v4.4h.65c.06,0,.112.046.155.138A1.18,1.18,0,0,1,50.113,133.275Zm-2.3-3.957H47.8l-1.925,3.359h1.936Z"/><path d="M38.3,167.331a1.169,1.169,0,0,1-.062.457.206.206,0,0,1-.2.13H35.689a.211.211,0,0,1-.2-.132,1.186,1.186,0,0,1-.061-.455,1.143,1.143,0,0,1,.061-.446.212.212,0,0,1,.2-.129h2.349a.224.224,0,0,1,.116.028.221.221,0,0,1,.082.1.575.575,0,0,1,.048.181A2.3,2.3,0,0,1,38.3,167.331Z"/><path d="M44.254,168.071a1.247,1.247,0,0,1-.06.437c-.039.1-.092.151-.161.151h-.649v1.32a.157.157,0,0,1-.033.1.268.268,0,0,1-.12.071,1.136,1.136,0,0,1-.219.042,3.39,3.39,0,0,1-.35.013,3.319,3.319,0,0,1-.342-.013,1.1,1.1,0,0,1-.22-.042.239.239,0,0,1-.113-.071.169.169,0,0,1-.031-.1v-1.32H39.162a.436.436,0,0,1-.141-.021.188.188,0,0,1-.105-.09.567.567,0,0,1-.062-.2,2.528,2.528,0,0,1-.02-.353c0-.121,0-.225.009-.313a1.936,1.936,0,0,1,.028-.24,1.083,1.083,0,0,1,.057-.2,1.624,1.624,0,0,1,.093-.2l2.269-4a.228.228,0,0,1,.1-.087.691.691,0,0,1,.189-.063,2.28,2.28,0,0,1,.308-.036c.124-.008.274-.012.451-.012s.355,0,.491.014a1.906,1.906,0,0,1,.325.046.482.482,0,0,1,.178.076.136.136,0,0,1,.056.108v4.4h.649c.061,0,.113.046.155.138A1.173,1.173,0,0,1,44.254,168.071Zm-2.3-3.957h-.012l-1.924,3.359h1.936Z"/><path d="M50,168.212a2.181,2.181,0,0,1-.172.886,1.714,1.714,0,0,1-.508.658,2.291,2.291,0,0,1-.833.406,4.818,4.818,0,0,1-2.235.015,2.228,2.228,0,0,1-.785-.364,1.515,1.515,0,0,1-.474-.593,1.971,1.971,0,0,1-.158-.81,1.8,1.8,0,0,1,.093-.584,1.71,1.71,0,0,1,.276-.508,2.476,2.476,0,0,1,.458-.441,4.625,4.625,0,0,1,.629-.392,3.8,3.8,0,0,1-.52-.342,2.22,2.22,0,0,1-.394-.4,1.638,1.638,0,0,1-.249-.478,1.822,1.822,0,0,1-.084-.564,2,2,0,0,1,.155-.8,1.688,1.688,0,0,1,.463-.62,2.124,2.124,0,0,1,.771-.405,3.721,3.721,0,0,1,1.072-.14,3.615,3.615,0,0,1,1.036.13,1.933,1.933,0,0,1,.708.366,1.439,1.439,0,0,1,.409.567,1.939,1.939,0,0,1,.133.732,1.571,1.571,0,0,1-.087.516,1.964,1.964,0,0,1-.246.477,2.311,2.311,0,0,1-.39.427,3.215,3.215,0,0,1-.524.364,4.436,4.436,0,0,1,.615.384,2.418,2.418,0,0,1,.457.437,1.822,1.822,0,0,1,.285.5A1.636,1.636,0,0,1,50,168.212Zm-1.468.1a.991.991,0,0,0-.07-.381,1,1,0,0,0-.221-.325,1.971,1.971,0,0,0-.375-.293,5.567,5.567,0,0,0-.525-.288,4.289,4.289,0,0,0-.457.282,1.762,1.762,0,0,0-.327.3,1.125,1.125,0,0,0-.2.328,1.019,1.019,0,0,0-.065.369.814.814,0,0,0,.285.672,1.33,1.33,0,0,0,.85.231,1.237,1.237,0,0,0,.827-.237A.819.819,0,0,0,48.532,168.314Zm-.169-3.647a1.062,1.062,0,0,0-.056-.355.658.658,0,0,0-.178-.269.809.809,0,0,0-.3-.167,1.417,1.417,0,0,0-.42-.055,1,1,0,0,0-.706.216.789.789,0,0,0-.231.6.87.87,0,0,0,.243.621,1.685,1.685,0,0,0,.321.265c.132.087.288.178.469.277a2.337,2.337,0,0,0,.635-.519A.957.957,0,0,0,48.363,164.667Z"/><path d="M161.989,248.335a2.013,2.013,0,0,1-.016.269.7.7,0,0,1-.048.175.245.245,0,0,1-.071.092.145.145,0,0,1-.09.029h-4.031a.139.139,0,0,1-.085-.029.234.234,0,0,1-.07-.092.652.652,0,0,1-.049-.175,2.013,2.013,0,0,1-.016-.269,2.28,2.28,0,0,1,.014-.273.638.638,0,0,1,.045-.178.251.251,0,0,1,.071-.1.134.134,0,0,1,.09-.032h1.361V243l-1.175.649a.818.818,0,0,1-.211.076.139.139,0,0,1-.13-.033.293.293,0,0,1-.065-.167,2.551,2.551,0,0,1-.017-.333c0-.09,0-.164.006-.223a.551.551,0,0,1,.027-.149.272.272,0,0,1,.063-.1.712.712,0,0,1,.107-.085l1.57-1.016a.211.211,0,0,1,.07-.037.573.573,0,0,1,.11-.022,1.783,1.783,0,0,1,.178-.012q.109,0,.285,0c.143,0,.259,0,.347.009a1.044,1.044,0,0,1,.2.028.127.127,0,0,1,.112.138v6.035h1.192a.143.143,0,0,1,.092.032.236.236,0,0,1,.074.1.635.635,0,0,1,.046.178A2.543,2.543,0,0,1,161.989,248.335Z"/><path d="M168.063,245.219a8.024,8.024,0,0,1-.141,1.581,3.447,3.447,0,0,1-.46,1.2,2.164,2.164,0,0,1-.83.763,3.1,3.1,0,0,1-2.492.008,1.937,1.937,0,0,1-.779-.739,3.368,3.368,0,0,1-.4-1.18,9.727,9.727,0,0,1-.115-1.578,8.028,8.028,0,0,1,.143-1.578,3.5,3.5,0,0,1,.463-1.205,2.16,2.16,0,0,1,.83-.762,3.095,3.095,0,0,1,2.49-.009,1.947,1.947,0,0,1,.782.74,3.34,3.34,0,0,1,.4,1.18A9.961,9.961,0,0,1,168.063,245.219Zm-1.5.073q0-.518-.028-.917a5.253,5.253,0,0,0-.088-.691,2.558,2.558,0,0,0-.146-.5,1.012,1.012,0,0,0-.212-.324.7.7,0,0,0-.282-.172,1.138,1.138,0,0,0-.35-.051.91.91,0,0,0-.551.16,1.076,1.076,0,0,0-.344.484,3.03,3.03,0,0,0-.177.8,10.494,10.494,0,0,0-.051,1.119,11.155,11.155,0,0,0,.061,1.29,2.949,2.949,0,0,0,.2.812.874.874,0,0,0,.341.424.98.98,0,0,0,.5.121,1.009,1.009,0,0,0,.39-.07.829.829,0,0,0,.3-.212,1.171,1.171,0,0,0,.212-.356,2.8,2.8,0,0,0,.139-.5,5.149,5.149,0,0,0,.073-.637Q166.568,245.721,166.567,245.292Z"/><path d="M173.923,245.219a8.1,8.1,0,0,1-.141,1.581,3.467,3.467,0,0,1-.46,1.2,2.164,2.164,0,0,1-.83.763,2.691,2.691,0,0,1-1.251.265,2.653,2.653,0,0,1-1.241-.257,1.937,1.937,0,0,1-.779-.739,3.388,3.388,0,0,1-.4-1.18,9.72,9.72,0,0,1-.116-1.578,7.871,7.871,0,0,1,.145-1.578,3.477,3.477,0,0,1,.463-1.205,2.151,2.151,0,0,1,.829-.762,3.095,3.095,0,0,1,2.49-.009,1.931,1.931,0,0,1,.781.74,3.32,3.32,0,0,1,.4,1.18A9.969,9.969,0,0,1,173.923,245.219Zm-1.5.073q0-.518-.028-.917a5.632,5.632,0,0,0-.087-.691,2.7,2.7,0,0,0-.147-.5,1.012,1.012,0,0,0-.212-.324.7.7,0,0,0-.282-.172,1.145,1.145,0,0,0-.351-.051.9.9,0,0,0-.549.16,1.07,1.07,0,0,0-.345.484,3.067,3.067,0,0,0-.178.8,10.764,10.764,0,0,0-.051,1.119,10.877,10.877,0,0,0,.063,1.29,2.956,2.956,0,0,0,.194.812.876.876,0,0,0,.342.424.982.982,0,0,0,.5.121,1.009,1.009,0,0,0,.39-.07.821.821,0,0,0,.3-.212,1.15,1.15,0,0,0,.211-.356,2.72,2.72,0,0,0,.139-.5,4.631,4.631,0,0,0,.073-.637C172.421,245.84,172.427,245.578,172.427,245.292Z"/><path d="M182.374,248.708a.158.158,0,0,1-.034.1.249.249,0,0,1-.113.07.884.884,0,0,1-.217.042,3.263,3.263,0,0,1-.342.015,3.3,3.3,0,0,1-.347-.015.874.874,0,0,1-.217-.042.253.253,0,0,1-.114-.07.157.157,0,0,1-.033-.1v-2.874a2.455,2.455,0,0,0-.054-.575,1.15,1.15,0,0,0-.155-.358.692.692,0,0,0-.263-.232.822.822,0,0,0-.375-.082.944.944,0,0,0-.548.2,3,3,0,0,0-.576.576v3.347a.152.152,0,0,1-.033.1.245.245,0,0,1-.116.07.925.925,0,0,1-.217.042,3.259,3.259,0,0,1-.345.015,3.225,3.225,0,0,1-.344-.015.925.925,0,0,1-.217-.042.24.24,0,0,1-.116-.07.153.153,0,0,1-.034-.1v-7.423a.163.163,0,0,1,.034-.1.244.244,0,0,1,.116-.076,1,1,0,0,1,.217-.048,2.718,2.718,0,0,1,.344-.017,2.745,2.745,0,0,1,.345.017,1,1,0,0,1,.217.048.249.249,0,0,1,.116.076.162.162,0,0,1,.033.1v2.783a2.73,2.73,0,0,1,.748-.539,1.865,1.865,0,0,1,.793-.178,2.014,2.014,0,0,1,.868.169,1.513,1.513,0,0,1,.57.463,1.9,1.9,0,0,1,.312.686,4,4,0,0,1,.1.951Z"/><path d="M187.291,248.319a1.846,1.846,0,0,1-.018.279.776.776,0,0,1-.044.184.173.173,0,0,1-.074.092.193.193,0,0,1-.1.026h-3.291a.282.282,0,0,1-.235-.1.535.535,0,0,1-.082-.333v-.26a1.7,1.7,0,0,1,.009-.183.811.811,0,0,1,.033-.157,1.006,1.006,0,0,1,.069-.156,1.6,1.6,0,0,1,.11-.175l1.885-2.913h-1.783c-.073,0-.129-.045-.173-.135a1.082,1.082,0,0,1-.065-.435,2.31,2.31,0,0,1,.014-.274.637.637,0,0,1,.043-.175.2.2,0,0,1,.073-.093.206.206,0,0,1,.108-.028h3.076a.532.532,0,0,1,.135.016.189.189,0,0,1,.093.063.318.318,0,0,1,.057.124.841.841,0,0,1,.019.2v.278a1.711,1.711,0,0,1-.01.2,1.219,1.219,0,0,1-.035.166.811.811,0,0,1-.065.158c-.027.053-.06.109-.1.17l-1.874,2.907h1.988a.2.2,0,0,1,.095.023.173.173,0,0,1,.077.084.59.59,0,0,1,.047.172A1.788,1.788,0,0,1,187.291,248.319Z"/><path d="M346.833,248.335a1.827,1.827,0,0,1-.017.268.659.659,0,0,1-.047.175.233.233,0,0,1-.072.093.147.147,0,0,1-.09.029h-4.03a.145.145,0,0,1-.085-.029.222.222,0,0,1-.07-.093.617.617,0,0,1-.049-.175,1.827,1.827,0,0,1-.017-.268,2.083,2.083,0,0,1,.015-.274.638.638,0,0,1,.045-.178.26.26,0,0,1,.07-.1.144.144,0,0,1,.091-.032h1.361V243l-1.175.65a.918.918,0,0,1-.211.076.137.137,0,0,1-.13-.034.3.3,0,0,1-.066-.166,2.794,2.794,0,0,1-.016-.333c0-.091,0-.165.006-.224a.528.528,0,0,1,.027-.149.289.289,0,0,1,.063-.1.712.712,0,0,1,.107-.085l1.569-1.015a.217.217,0,0,1,.071-.038.784.784,0,0,1,.11-.022c.045-.006.1-.009.178-.011s.168,0,.285,0c.142,0,.259,0,.347.008a1.145,1.145,0,0,1,.2.028.165.165,0,0,1,.09.054.16.16,0,0,1,.022.085v6.034h1.191a.15.15,0,0,1,.093.032.227.227,0,0,1,.073.1.573.573,0,0,1,.046.178A2.3,2.3,0,0,1,346.833,248.335Z"/><path d="M349.746,247.861a3.606,3.606,0,0,1-.022.409,2.022,2.022,0,0,1-.2.666,2.483,2.483,0,0,1-.2.319l-.756,1.084a.475.475,0,0,1-.087.1.372.372,0,0,1-.117.062.922.922,0,0,1-.163.037,1.788,1.788,0,0,1-.243.014,2.08,2.08,0,0,1-.265-.014.4.4,0,0,1-.147-.042.092.092,0,0,1-.048-.074.238.238,0,0,1,.025-.107l.689-1.559v-.891a.891.891,0,0,1,.046-.311.359.359,0,0,1,.14-.18.6.6,0,0,1,.244-.083,2.929,2.929,0,0,1,.355-.019,2.72,2.72,0,0,1,.339.019.559.559,0,0,1,.234.083.351.351,0,0,1,.135.18A.95.95,0,0,1,349.746,247.861Z"/><path d="M355.888,245.219a8.09,8.09,0,0,1-.141,1.58,3.492,3.492,0,0,1-.46,1.2,2.153,2.153,0,0,1-.83.762,3.1,3.1,0,0,1-2.492.009,1.939,1.939,0,0,1-.779-.74,3.36,3.36,0,0,1-.4-1.18,9.707,9.707,0,0,1-.116-1.577,7.864,7.864,0,0,1,.145-1.578,3.489,3.489,0,0,1,.462-1.205,2.164,2.164,0,0,1,.83-.763,3.1,3.1,0,0,1,2.49-.008,1.929,1.929,0,0,1,.781.739,3.327,3.327,0,0,1,.4,1.18A9.857,9.857,0,0,1,355.888,245.219Zm-1.5.073q0-.519-.028-.917a5.615,5.615,0,0,0-.088-.691,2.608,2.608,0,0,0-.146-.5,1.006,1.006,0,0,0-.212-.325.726.726,0,0,0-.282-.172,1.145,1.145,0,0,0-.351-.051.9.9,0,0,0-.55.161,1.073,1.073,0,0,0-.344.483,3.075,3.075,0,0,0-.178.8,10.744,10.744,0,0,0-.051,1.118,10.865,10.865,0,0,0,.063,1.29,2.964,2.964,0,0,0,.194.813.873.873,0,0,0,.342.423,1.1,1.1,0,0,0,.891.051.813.813,0,0,0,.3-.211,1.175,1.175,0,0,0,.211-.357,2.708,2.708,0,0,0,.139-.5,4.828,4.828,0,0,0,.073-.638C354.386,245.84,354.392,245.578,354.392,245.292Z"/><path d="M361.747,245.219a8.09,8.09,0,0,1-.141,1.58,3.472,3.472,0,0,1-.46,1.2,2.146,2.146,0,0,1-.83.762,3.1,3.1,0,0,1-2.492.009,1.939,1.939,0,0,1-.779-.74,3.381,3.381,0,0,1-.4-1.18,9.589,9.589,0,0,1-.117-1.577,7.864,7.864,0,0,1,.145-1.578,3.489,3.489,0,0,1,.463-1.205,2.161,2.161,0,0,1,.829-.763,3.1,3.1,0,0,1,2.49-.008,1.929,1.929,0,0,1,.781.739,3.308,3.308,0,0,1,.4,1.18A9.982,9.982,0,0,1,361.747,245.219Zm-1.5.073q0-.519-.027-.917a5.816,5.816,0,0,0-.088-.691,2.6,2.6,0,0,0-.147-.5.99.99,0,0,0-.212-.325.719.719,0,0,0-.282-.172,1.138,1.138,0,0,0-.35-.051.9.9,0,0,0-.55.161,1.067,1.067,0,0,0-.345.483,3.075,3.075,0,0,0-.178.8,10.744,10.744,0,0,0-.051,1.118,10.865,10.865,0,0,0,.063,1.29,2.964,2.964,0,0,0,.194.813.873.873,0,0,0,.342.423,1.1,1.1,0,0,0,.892.051.821.821,0,0,0,.3-.211,1.175,1.175,0,0,0,.211-.357,2.793,2.793,0,0,0,.138-.5,4.665,4.665,0,0,0,.073-.638C360.245,245.84,360.251,245.578,360.251,245.292Z"/><path d="M367.607,245.219a8.014,8.014,0,0,1-.141,1.58,3.452,3.452,0,0,1-.46,1.2,2.153,2.153,0,0,1-.83.762,3.1,3.1,0,0,1-2.492.009,1.939,1.939,0,0,1-.779-.74,3.36,3.36,0,0,1-.4-1.18,9.715,9.715,0,0,1-.115-1.577,8.021,8.021,0,0,1,.143-1.578,3.489,3.489,0,0,1,.463-1.205,2.164,2.164,0,0,1,.83-.763,3.1,3.1,0,0,1,2.49-.008,1.944,1.944,0,0,1,.782.739,3.347,3.347,0,0,1,.4,1.18A9.974,9.974,0,0,1,367.607,245.219Zm-1.5.073q0-.519-.028-.917a5.428,5.428,0,0,0-.088-.691,2.537,2.537,0,0,0-.146-.5,1.006,1.006,0,0,0-.212-.325.716.716,0,0,0-.283-.172,1.127,1.127,0,0,0-.349-.051.9.9,0,0,0-.551.161,1.073,1.073,0,0,0-.344.483,3.038,3.038,0,0,0-.177.8,10.474,10.474,0,0,0-.051,1.118,11.143,11.143,0,0,0,.061,1.29,2.957,2.957,0,0,0,.2.813.875.875,0,0,0,.34.423,1.1,1.1,0,0,0,.893.051.827.827,0,0,0,.3-.211,1.177,1.177,0,0,0,.212-.357,2.79,2.79,0,0,0,.139-.5,5.19,5.19,0,0,0,.073-.638C366.1,245.84,366.111,245.578,366.111,245.292Z"/><path d="M376.058,248.707a.146.146,0,0,1-.035.1.243.243,0,0,1-.112.071.933.933,0,0,1-.218.042,3.255,3.255,0,0,1-.34.014,3.358,3.358,0,0,1-.348-.014.923.923,0,0,1-.217-.042.247.247,0,0,1-.113-.071.151.151,0,0,1-.034-.1v-2.873a2.411,2.411,0,0,0-.054-.576,1.115,1.115,0,0,0-.155-.358.7.7,0,0,0-.262-.232.827.827,0,0,0-.376-.082.943.943,0,0,0-.548.2,2.932,2.932,0,0,0-.575.575v3.347a.156.156,0,0,1-.034.1.259.259,0,0,1-.116.071.957.957,0,0,1-.217.042,4.246,4.246,0,0,1-.689,0,.979.979,0,0,1-.218-.042.255.255,0,0,1-.115-.071.156.156,0,0,1-.034-.1v-7.422a.167.167,0,0,1,.034-.1.251.251,0,0,1,.115-.076.94.94,0,0,1,.218-.048,3.306,3.306,0,0,1,.689,0,.919.919,0,0,1,.217.048.255.255,0,0,1,.116.076.167.167,0,0,1,.034.1v2.783a2.7,2.7,0,0,1,.748-.539,1.851,1.851,0,0,1,.793-.179,1.986,1.986,0,0,1,.866.17,1.489,1.489,0,0,1,.57.463,1.906,1.906,0,0,1,.314.685,4.121,4.121,0,0,1,.1.952Z"/><path d="M380.975,248.318a1.837,1.837,0,0,1-.018.279.758.758,0,0,1-.045.184.174.174,0,0,1-.073.093.206.206,0,0,1-.1.026h-3.291a.284.284,0,0,1-.234-.1.53.53,0,0,1-.082-.333v-.26a1.684,1.684,0,0,1,.009-.183.739.739,0,0,1,.033-.158,1.041,1.041,0,0,1,.068-.156,1.681,1.681,0,0,1,.111-.174l1.884-2.914h-1.783c-.072,0-.129-.044-.173-.135a1.079,1.079,0,0,1-.064-.435,2.292,2.292,0,0,1,.014-.273.631.631,0,0,1,.042-.175.2.2,0,0,1,.074-.094.2.2,0,0,1,.107-.028h3.076a.49.49,0,0,1,.136.017.2.2,0,0,1,.093.062.323.323,0,0,1,.056.125.836.836,0,0,1,.02.2v.277a1.683,1.683,0,0,1-.011.2,1.233,1.233,0,0,1-.034.167.878.878,0,0,1-.065.158c-.028.053-.061.108-.1.169l-1.874,2.907h1.987a.212.212,0,0,1,.1.023.178.178,0,0,1,.076.085.571.571,0,0,1,.048.171A1.8,1.8,0,0,1,380.975,248.318Z"/><path d="M529.561,248.335a1.842,1.842,0,0,1-.017.269.617.617,0,0,1-.049.175.225.225,0,0,1-.07.092.147.147,0,0,1-.09.029H525.3a.132.132,0,0,1-.084-.029.227.227,0,0,1-.072-.092.659.659,0,0,1-.047-.175,1.842,1.842,0,0,1-.017-.269,2.28,2.28,0,0,1,.014-.273.573.573,0,0,1,.046-.178.25.25,0,0,1,.07-.1.136.136,0,0,1,.09-.032h1.36V243l-1.174.649a.822.822,0,0,1-.212.076.142.142,0,0,1-.13-.033.3.3,0,0,1-.064-.167,2.384,2.384,0,0,1-.017-.333c0-.09,0-.164,0-.223a.547.547,0,0,1,.029-.149.271.271,0,0,1,.062-.1.677.677,0,0,1,.108-.085l1.569-1.016a.211.211,0,0,1,.07-.037.569.569,0,0,1,.111-.022,1.738,1.738,0,0,1,.177-.012q.109,0,.285,0c.143,0,.259,0,.347.009a1.02,1.02,0,0,1,.2.028.163.163,0,0,1,.091.054.151.151,0,0,1,.023.084v6.035h1.191a.15.15,0,0,1,.093.032.244.244,0,0,1,.073.1.638.638,0,0,1,.045.178A2.066,2.066,0,0,1,529.561,248.335Z"/><path d="M535.635,245.219a8.1,8.1,0,0,1-.142,1.581,3.447,3.447,0,0,1-.46,1.2,2.164,2.164,0,0,1-.83.763,2.686,2.686,0,0,1-1.25.265,2.654,2.654,0,0,1-1.242-.257,1.943,1.943,0,0,1-.779-.739,3.368,3.368,0,0,1-.4-1.18,9.72,9.72,0,0,1-.116-1.578,7.945,7.945,0,0,1,.145-1.578,3.477,3.477,0,0,1,.463-1.205,2.146,2.146,0,0,1,.83-.762,3.092,3.092,0,0,1,2.489-.009,1.931,1.931,0,0,1,.781.74,3.32,3.32,0,0,1,.4,1.18A9.836,9.836,0,0,1,535.635,245.219Zm-1.5.073q0-.518-.029-.917a5.428,5.428,0,0,0-.088-.691,2.49,2.49,0,0,0-.146-.5,1.012,1.012,0,0,0-.212-.324.7.7,0,0,0-.282-.172,1.138,1.138,0,0,0-.35-.051.91.91,0,0,0-.551.16,1.084,1.084,0,0,0-.344.484,3.108,3.108,0,0,0-.178.8,11.049,11.049,0,0,0-.051,1.119,10.877,10.877,0,0,0,.063,1.29,2.956,2.956,0,0,0,.194.812.876.876,0,0,0,.342.424.981.981,0,0,0,.5.121,1,1,0,0,0,.388-.07.816.816,0,0,0,.3-.212,1.151,1.151,0,0,0,.212-.356,2.723,2.723,0,0,0,.138-.5,4.792,4.792,0,0,0,.073-.637Q534.139,245.721,534.139,245.292Z"/><path d="M538.332,247.862a3.388,3.388,0,0,1-.022.409,1.906,1.906,0,0,1-.074.347,2.034,2.034,0,0,1-.13.319,2.3,2.3,0,0,1-.2.318l-.757,1.084a.455.455,0,0,1-.087.1.365.365,0,0,1-.116.061.916.916,0,0,1-.163.038,1.994,1.994,0,0,1-.243.013,2.35,2.35,0,0,1-.266-.013.4.4,0,0,1-.146-.043.092.092,0,0,1-.048-.074.241.241,0,0,1,.025-.107l.689-1.558v-.891a.894.894,0,0,1,.045-.311.363.363,0,0,1,.141-.181.576.576,0,0,1,.243-.082,2.766,2.766,0,0,1,.356-.019,2.524,2.524,0,0,1,.338.019.536.536,0,0,1,.234.082.349.349,0,0,1,.136.181A.953.953,0,0,1,538.332,247.862Z"/><path d="M544.476,245.219a8.1,8.1,0,0,1-.142,1.581,3.447,3.447,0,0,1-.46,1.2,2.164,2.164,0,0,1-.83.763,2.686,2.686,0,0,1-1.25.265,2.654,2.654,0,0,1-1.242-.257,1.952,1.952,0,0,1-.78-.739,3.388,3.388,0,0,1-.4-1.18,9.72,9.72,0,0,1-.116-1.578,8.024,8.024,0,0,1,.144-1.578,3.5,3.5,0,0,1,.463-1.205,2.16,2.16,0,0,1,.83-.762,3.095,3.095,0,0,1,2.49-.009,1.931,1.931,0,0,1,.781.74,3.32,3.32,0,0,1,.4,1.18A9.836,9.836,0,0,1,544.476,245.219Zm-1.5.073q0-.518-.028-.917a5.428,5.428,0,0,0-.088-.691,2.558,2.558,0,0,0-.146-.5,1.012,1.012,0,0,0-.212-.324.7.7,0,0,0-.282-.172,1.138,1.138,0,0,0-.35-.051.908.908,0,0,0-.551.16,1.076,1.076,0,0,0-.344.484,3.108,3.108,0,0,0-.178.8,11.049,11.049,0,0,0-.051,1.119,10.877,10.877,0,0,0,.063,1.29,2.956,2.956,0,0,0,.194.812.876.876,0,0,0,.342.424.981.981,0,0,0,.5.121,1,1,0,0,0,.388-.07.816.816,0,0,0,.3-.212,1.171,1.171,0,0,0,.212-.356,2.723,2.723,0,0,0,.138-.5,4.792,4.792,0,0,0,.073-.637C542.973,245.84,542.979,245.578,542.979,245.292Z"/><path d="M550.335,245.219a8.1,8.1,0,0,1-.142,1.581,3.428,3.428,0,0,1-.46,1.2,2.156,2.156,0,0,1-.83.763,2.686,2.686,0,0,1-1.25.265,2.654,2.654,0,0,1-1.242-.257,1.943,1.943,0,0,1-.779-.739,3.367,3.367,0,0,1-.4-1.18,9.6,9.6,0,0,1-.117-1.578,7.945,7.945,0,0,1,.145-1.578,3.5,3.5,0,0,1,.463-1.205,2.153,2.153,0,0,1,.83-.762,3.092,3.092,0,0,1,2.489-.009,1.931,1.931,0,0,1,.781.74,3.32,3.32,0,0,1,.4,1.18A9.961,9.961,0,0,1,550.335,245.219Zm-1.5.073c0-.345-.01-.651-.028-.917a5.615,5.615,0,0,0-.088-.691,2.487,2.487,0,0,0-.147-.5,1,1,0,0,0-.212-.324.7.7,0,0,0-.282-.172,1.134,1.134,0,0,0-.35-.051.905.905,0,0,0-.55.16,1.078,1.078,0,0,0-.345.484,3.108,3.108,0,0,0-.178.8,11.049,11.049,0,0,0-.051,1.119,10.877,10.877,0,0,0,.063,1.29,2.956,2.956,0,0,0,.194.812.876.876,0,0,0,.342.424.986.986,0,0,0,.5.121,1.007,1.007,0,0,0,.389-.07.824.824,0,0,0,.3-.212,1.17,1.17,0,0,0,.211-.356,2.723,2.723,0,0,0,.138-.5,4.631,4.631,0,0,0,.073-.637Q548.839,245.721,548.839,245.292Z"/><path d="M556.194,245.219a8.179,8.179,0,0,1-.141,1.581,3.447,3.447,0,0,1-.46,1.2,2.164,2.164,0,0,1-.83.763,2.686,2.686,0,0,1-1.25.265,2.654,2.654,0,0,1-1.242-.257,1.945,1.945,0,0,1-.78-.739,3.388,3.388,0,0,1-.4-1.18,9.72,9.72,0,0,1-.116-1.578,8.024,8.024,0,0,1,.144-1.578,3.5,3.5,0,0,1,.463-1.205,2.153,2.153,0,0,1,.83-.762,3.092,3.092,0,0,1,2.489-.009,1.934,1.934,0,0,1,.782.74,3.32,3.32,0,0,1,.4,1.18A9.961,9.961,0,0,1,556.194,245.219Zm-1.5.073c0-.345-.01-.651-.028-.917a5.615,5.615,0,0,0-.088-.691,2.558,2.558,0,0,0-.146-.5,1.012,1.012,0,0,0-.212-.324.7.7,0,0,0-.283-.172,1.127,1.127,0,0,0-.349-.051.908.908,0,0,0-.551.16,1.078,1.078,0,0,0-.345.484,3.111,3.111,0,0,0-.177.8,10.764,10.764,0,0,0-.051,1.119,10.905,10.905,0,0,0,.062,1.29,2.952,2.952,0,0,0,.2.812.874.874,0,0,0,.341.424.986.986,0,0,0,.5.121,1,1,0,0,0,.389-.07.824.824,0,0,0,.3-.212,1.171,1.171,0,0,0,.212-.356,2.809,2.809,0,0,0,.137-.5,4.621,4.621,0,0,0,.074-.637Q554.7,245.721,554.7,245.292Z"/><path d="M564.645,248.708a.153.153,0,0,1-.034.1.239.239,0,0,1-.113.07.884.884,0,0,1-.217.042,3.263,3.263,0,0,1-.342.015,3.327,3.327,0,0,1-.347-.015.884.884,0,0,1-.217-.042.239.239,0,0,1-.113-.07.153.153,0,0,1-.034-.1v-2.874a2.464,2.464,0,0,0-.053-.575,1.15,1.15,0,0,0-.155-.358.707.707,0,0,0-.263-.232.83.83,0,0,0-.376-.082.936.936,0,0,0-.547.2,2.915,2.915,0,0,0-.576.576v3.347a.158.158,0,0,1-.034.1.245.245,0,0,1-.116.07.915.915,0,0,1-.217.042,3.964,3.964,0,0,1-.689,0,.915.915,0,0,1-.217-.042.25.25,0,0,1-.116-.07.158.158,0,0,1-.034-.1v-7.423a.169.169,0,0,1,.034-.1.255.255,0,0,1,.116-.076.985.985,0,0,1,.217-.048,3.5,3.5,0,0,1,.689,0,.985.985,0,0,1,.217.048.249.249,0,0,1,.116.076.169.169,0,0,1,.034.1v2.783a2.73,2.73,0,0,1,.748-.539,1.861,1.861,0,0,1,.793-.178,2,2,0,0,1,.866.169,1.5,1.5,0,0,1,.57.463,1.885,1.885,0,0,1,.314.686,4.057,4.057,0,0,1,.1.951Z"/><path d="M569.561,248.319a1.86,1.86,0,0,1-.017.279.771.771,0,0,1-.045.184.181.181,0,0,1-.073.092.2.2,0,0,1-.1.026h-3.291a.28.28,0,0,1-.234-.1.528.528,0,0,1-.082-.333v-.26a1.7,1.7,0,0,1,.009-.183.636.636,0,0,1,.033-.157,1,1,0,0,1,.068-.156,1.6,1.6,0,0,1,.11-.175l1.885-2.913h-1.784a.2.2,0,0,1-.172-.135,1.085,1.085,0,0,1-.064-.435,2.336,2.336,0,0,1,.013-.274.724.724,0,0,1,.042-.175.2.2,0,0,1,.075-.093.2.2,0,0,1,.106-.028h3.077a.52.52,0,0,1,.135.016.2.2,0,0,1,.094.063.318.318,0,0,1,.056.124.836.836,0,0,1,.02.2v.278a1.493,1.493,0,0,1-.012.2,1.084,1.084,0,0,1-.033.166.878.878,0,0,1-.065.158c-.029.053-.061.109-.1.17l-1.874,2.907h1.987a.2.2,0,0,1,.1.023.171.171,0,0,1,.076.084.587.587,0,0,1,.048.172A1.8,1.8,0,0,1,569.561,248.319Z"/><line class="cls-3" x1="666.097" y1="238.397" x2="666.097" y2="29"/><line class="cls-1" x1="54.552" y1="63.723" x2="56.052" y2="63.723"/><line class="cls-2" x1="59.045" y1="63.723" x2="662.213" y2="63.723"/><line class="cls-1" x1="663.709" y1="63.723" x2="665.209" y2="63.723"/><line class="cls-1" x1="55.362" y1="202.615" x2="56.862" y2="202.615"/><line class="cls-2" x1="59.856" y1="202.615" x2="663.023" y2="202.615"/><line class="cls-1" x1="664.52" y1="202.615" x2="666.02" y2="202.615"/><line class="cls-1" x1="54.552" y1="167.892" x2="56.052" y2="167.892"/><line class="cls-2" x1="59.045" y1="167.892" x2="662.213" y2="167.892"/><line class="cls-1" x1="663.709" y1="167.892" x2="665.209" y2="167.892"/><path d="M38.969,234.5a1.176,1.176,0,0,1-.062.457.206.206,0,0,1-.2.13H36.36a.211.211,0,0,1-.2-.133,1.183,1.183,0,0,1-.061-.454,1.143,1.143,0,0,1,.061-.446.211.211,0,0,1,.2-.13h2.349a.224.224,0,0,1,.116.028.234.234,0,0,1,.082.1.575.575,0,0,1,.048.181A2.3,2.3,0,0,1,38.969,234.5Z"/><path d="M44.693,230.66c0,.109,0,.2-.011.285s-.018.156-.032.226a1.105,1.105,0,0,1-.053.2c-.023.062-.049.128-.079.2l-2.405,5.572a.313.313,0,0,1-.088.118.376.376,0,0,1-.149.071,1.288,1.288,0,0,1-.245.034c-.1.006-.224.008-.37.008a4.221,4.221,0,0,1-.474-.02.754.754,0,0,1-.257-.062.141.141,0,0,1-.088-.107.326.326,0,0,1,.039-.161l2.586-5.7H40c-.079,0-.138-.052-.178-.156a1.51,1.51,0,0,1-.059-.494,2.177,2.177,0,0,1,.017-.29.928.928,0,0,1,.048-.2.28.28,0,0,1,.073-.113.16.16,0,0,1,.1-.033h4.342a.625.625,0,0,1,.169.019.181.181,0,0,1,.107.088.545.545,0,0,1,.059.192A2.053,2.053,0,0,1,44.693,230.66Z"/><path d="M50.558,236.734a2.248,2.248,0,0,1-.014.28.836.836,0,0,1-.042.189.226.226,0,0,1-.073.1.178.178,0,0,1-.1.031h-4.2a.906.906,0,0,1-.215-.022.277.277,0,0,1-.146-.088.4.4,0,0,1-.082-.189,1.649,1.649,0,0,1-.026-.322,2.633,2.633,0,0,1,.017-.319.9.9,0,0,1,.062-.236,1.158,1.158,0,0,1,.116-.2,2.054,2.054,0,0,1,.183-.217l1.265-1.355a6.633,6.633,0,0,0,.609-.72,4.081,4.081,0,0,0,.361-.592,2.133,2.133,0,0,0,.178-.5,2.061,2.061,0,0,0,.049-.429,1.029,1.029,0,0,0-.06-.352.839.839,0,0,0-.174-.291.8.8,0,0,0-.291-.195,1.1,1.1,0,0,0-.412-.07,1.9,1.9,0,0,0-.59.084,2.833,2.833,0,0,0-.452.19c-.129.069-.238.133-.325.191a.41.41,0,0,1-.2.088.125.125,0,0,1-.088-.034.238.238,0,0,1-.058-.113,1.149,1.149,0,0,1-.037-.212,2.969,2.969,0,0,1-.014-.324c0-.087,0-.159.008-.218a1.1,1.1,0,0,1,.025-.152.468.468,0,0,1,.046-.113.565.565,0,0,1,.1-.115,1.308,1.308,0,0,1,.259-.173,3.2,3.2,0,0,1,.466-.2,4.233,4.233,0,0,1,.61-.166A3.4,3.4,0,0,1,48,229.9a3.113,3.113,0,0,1,1,.144,1.953,1.953,0,0,1,.709.4,1.6,1.6,0,0,1,.42.609,2.044,2.044,0,0,1,.139.759,3.619,3.619,0,0,1-.068.7,2.667,2.667,0,0,1-.283.743,5.955,5.955,0,0,1-.6.881,14.325,14.325,0,0,1-1.034,1.12l-.852.875H50.3a.173.173,0,0,1,.1.034.254.254,0,0,1,.082.1.633.633,0,0,1,.051.186A1.825,1.825,0,0,1,50.558,236.734Z"/><path class="cls-6" d="M54.552,63.723c134.448,0,95.274-7.76,145.115,173.58"/><path class="cls-6" d="M55.362,202.615C142.667,64.342,120.667,63.687,229,64.342"/><path class="cls-6" d="M666.917,202.034c-87.3-138.273-65.3-138.929-173.637-138.273"/><line class="cls-6" x1="229" y1="64.342" x2="493.28" y2="63.761"/><circle class="cls-7" cx="361.847" cy="64.342" r="9.688"/><path d="M366.265,67.854a.177.177,0,0,1-.033.105.222.222,0,0,1-.117.077,1.141,1.141,0,0,1-.225.046,2.915,2.915,0,0,1-.358.018,2.836,2.836,0,0,1-.351-.018,1.087,1.087,0,0,1-.223-.046.239.239,0,0,1-.117-.077.166.166,0,0,1-.035-.105v-6.17h-.012l-2.2,6.164a.287.287,0,0,1-.076.126.373.373,0,0,1-.144.079.956.956,0,0,1-.231.038c-.094.006-.208.009-.34.009a3.276,3.276,0,0,1-.34-.015.963.963,0,0,1-.232-.047.411.411,0,0,1-.143-.079.22.22,0,0,1-.07-.111L358.9,61.684h-.011v6.17a.177.177,0,0,1-.033.105.223.223,0,0,1-.12.077,1.19,1.19,0,0,1-.225.046,3.47,3.47,0,0,1-.706,0,1.153,1.153,0,0,1-.226-.046.222.222,0,0,1-.117-.077.176.176,0,0,1-.032-.105V61.1a.616.616,0,0,1,.158-.457.571.571,0,0,1,.422-.158h1.008a2.063,2.063,0,0,1,.462.044.891.891,0,0,1,.334.146.837.837,0,0,1,.235.27,1.96,1.96,0,0,1,.164.413l1.641,4.517h.023l1.7-4.505a2.408,2.408,0,0,1,.167-.416.968.968,0,0,1,.211-.276.7.7,0,0,1,.284-.149,1.456,1.456,0,0,1,.381-.044h1.037a.793.793,0,0,1,.273.041.458.458,0,0,1,.187.12.533.533,0,0,1,.112.193.834.834,0,0,1,.038.261Z"/><line class="cls-8" x1="149.111" y1="29" x2="149.111" y2="30.5"/><line class="cls-9" x1="149.111" y1="33.476" x2="149.111" y2="234.35"/><line class="cls-8" x1="149.111" y1="235.838" x2="149.111" y2="237.338"/><line class="cls-8" x1="573.111" y1="28.691" x2="573.111" y2="30.191"/><line class="cls-9" x1="573.111" y1="33.167" x2="573.111" y2="234.041"/><line class="cls-8" x1="573.111" y1="235.529" x2="573.111" y2="237.029"/><path d="M119.916,22.7a2.279,2.279,0,0,1-.015.285.787.787,0,0,1-.042.192.249.249,0,0,1-.07.11.156.156,0,0,1-.1.034h-3.347a.466.466,0,0,1-.314-.11.452.452,0,0,1-.127-.359V16.222a.161.161,0,0,1,.036-.1.266.266,0,0,1,.123-.073,1.126,1.126,0,0,1,.228-.045,3.82,3.82,0,0,1,.72,0,1.135,1.135,0,0,1,.225.045.253.253,0,0,1,.121.073.157.157,0,0,1,.038.1V22.1h2.3a.16.16,0,0,1,.1.031.216.216,0,0,1,.07.1.7.7,0,0,1,.042.186A2.3,2.3,0,0,1,119.916,22.7Z"/><path d="M125.8,20.563a3.871,3.871,0,0,1-.169,1.174,2.475,2.475,0,0,1-.514.915,2.283,2.283,0,0,1-.864.593,3.245,3.245,0,0,1-1.214.208,3.328,3.328,0,0,1-1.168-.186,2.1,2.1,0,0,1-.824-.542,2.207,2.207,0,0,1-.485-.875,4.046,4.046,0,0,1-.159-1.185,3.842,3.842,0,0,1,.172-1.177,2.485,2.485,0,0,1,.517-.915,2.292,2.292,0,0,1,.861-.59,3.221,3.221,0,0,1,1.211-.209,3.4,3.4,0,0,1,1.174.184,2.055,2.055,0,0,1,.821.539,2.248,2.248,0,0,1,.483.875A4.1,4.1,0,0,1,125.8,20.563Zm-1.462.057a3.643,3.643,0,0,0-.06-.686,1.6,1.6,0,0,0-.2-.545,1,1,0,0,0-.375-.361,1.2,1.2,0,0,0-.59-.13,1.234,1.234,0,0,0-.553.116.985.985,0,0,0-.39.338,1.623,1.623,0,0,0-.229.537,3.072,3.072,0,0,0-.076.714,3.478,3.478,0,0,0,.063.685,1.667,1.667,0,0,0,.2.545.952.952,0,0,0,.375.359,1.24,1.24,0,0,0,.587.127,1.262,1.262,0,0,0,.559-.116.989.989,0,0,0,.39-.336,1.541,1.541,0,0,0,.226-.533A3.143,3.143,0,0,0,124.336,20.62Z"/><path d="M134.6,18.085a.789.789,0,0,1-.017.152c-.011.061-.032.147-.062.26l-1.343,4.556a.466.466,0,0,1-.074.155.293.293,0,0,1-.138.093.972.972,0,0,1-.266.045c-.114.008-.264.011-.448.011s-.335,0-.452-.014a1.137,1.137,0,0,1-.274-.048.284.284,0,0,1-.143-.093.4.4,0,0,1-.069-.149l-.846-3.06-.011-.051-.012.051-.779,3.06a.426.426,0,0,1-.065.155.276.276,0,0,1-.144.093,1.081,1.081,0,0,1-.276.045c-.117.008-.267.011-.452.011s-.339,0-.455-.014a1.108,1.108,0,0,1-.27-.048.287.287,0,0,1-.144-.093.419.419,0,0,1-.068-.149L126.464,18.5a1.806,1.806,0,0,1-.065-.257,1.13,1.13,0,0,1-.014-.155.169.169,0,0,1,.031-.1.222.222,0,0,1,.112-.068,1.178,1.178,0,0,1,.221-.036c.092-.008.208-.012.347-.012s.273,0,.367.012a.976.976,0,0,1,.221.039.216.216,0,0,1,.109.076.409.409,0,0,1,.048.116l1,3.7.011.067.011-.067.937-3.7a.327.327,0,0,1,.054-.116.251.251,0,0,1,.11-.076.837.837,0,0,1,.206-.039q.132-.012.342-.012a3.065,3.065,0,0,1,.338.015,1,1,0,0,1,.206.039.209.209,0,0,1,.107.068.3.3,0,0,1,.048.1l1,3.725.017.062.011-.067.96-3.7a.3.3,0,0,1,.045-.116.234.234,0,0,1,.113-.076.946.946,0,0,1,.215-.039c.09-.008.205-.012.344-.012s.253,0,.342.012a1.045,1.045,0,0,1,.209.036.2.2,0,0,1,.1.068A.174.174,0,0,1,134.6,18.085Z"/><path d="M141.938,22.33q0,.147-.009.246a1.209,1.209,0,0,1-.023.166.5.5,0,0,1-.033.11.434.434,0,0,1-.088.107,1.191,1.191,0,0,1-.231.159,2.348,2.348,0,0,1-.373.166,3.093,3.093,0,0,1-.454.119,2.9,2.9,0,0,1-.5.045,2.733,2.733,0,0,1-1.031-.181,1.928,1.928,0,0,1-.753-.533,2.339,2.339,0,0,1-.46-.861,4.505,4.505,0,0,1,.034-2.47,2.483,2.483,0,0,1,.527-.911,2.109,2.109,0,0,1,.8-.537,2.861,2.861,0,0,1,1.015-.175,2.412,2.412,0,0,1,.444.04,2.534,2.534,0,0,1,.406.107,2.226,2.226,0,0,1,.339.152,1.057,1.057,0,0,1,.212.147.665.665,0,0,1,.088.1.407.407,0,0,1,.039.111,1.38,1.38,0,0,1,.022.166q.009.1.009.24a1.291,1.291,0,0,1-.057.46c-.038.088-.087.133-.146.133a.348.348,0,0,1-.2-.079c-.072-.053-.156-.111-.254-.175a1.882,1.882,0,0,0-.351-.175,1.329,1.329,0,0,0-.485-.079.966.966,0,0,0-.847.426,2.209,2.209,0,0,0-.294,1.25,3.124,3.124,0,0,0,.074.717,1.558,1.558,0,0,0,.217.52.922.922,0,0,0,.362.313,1.159,1.159,0,0,0,.5.105,1.323,1.323,0,0,0,.5-.088,2.033,2.033,0,0,0,.37-.2c.1-.071.194-.136.265-.194a.31.31,0,0,1,.181-.088.128.128,0,0,1,.085.028.213.213,0,0,1,.054.1,1.4,1.4,0,0,1,.03.2C141.934,22.1,141.938,22.206,141.938,22.33Z"/><path d="M146.2,18.565c0,.135,0,.246-.011.333a1,1,0,0,1-.034.2.2.2,0,0,1-.059.1.149.149,0,0,1-.093.028.332.332,0,0,1-.1-.02l-.127-.042c-.046-.015-.1-.029-.155-.043a.815.815,0,0,0-.185-.019.632.632,0,0,0-.238.048,1.029,1.029,0,0,0-.246.149,1.8,1.8,0,0,0-.264.271,4.291,4.291,0,0,0-.3.418v3.139a.155.155,0,0,1-.033.1.255.255,0,0,1-.117.071.97.97,0,0,1-.216.042,4.258,4.258,0,0,1-.69,0,.98.98,0,0,1-.217-.042A.251.251,0,0,1,143,23.23a.155.155,0,0,1-.033-.1V18.1a.174.174,0,0,1,.028-.1.206.206,0,0,1,.1-.07.775.775,0,0,1,.188-.042,2.328,2.328,0,0,1,.291-.015,2.458,2.458,0,0,1,.3.015.661.661,0,0,1,.184.042.211.211,0,0,1,.093.07.174.174,0,0,1,.028.1v.627a4,4,0,0,1,.373-.466,2.094,2.094,0,0,1,.333-.291,1.052,1.052,0,0,1,.316-.149,1.185,1.185,0,0,1,.316-.043,1.522,1.522,0,0,1,.158.009,1.441,1.441,0,0,1,.175.028,1.283,1.283,0,0,1,.158.045.288.288,0,0,1,.1.054.164.164,0,0,1,.046.062.583.583,0,0,1,.026.093,1.6,1.6,0,0,1,.016.178C146.2,18.322,146.2,18.43,146.2,18.565Z"/><path d="M152.025,20.563a3.809,3.809,0,0,1-.17,1.174,2.473,2.473,0,0,1-.513.915,2.3,2.3,0,0,1-.863.593,3.249,3.249,0,0,1-1.214.208,3.327,3.327,0,0,1-1.169-.186,2.111,2.111,0,0,1-.825-.542,2.244,2.244,0,0,1-.485-.875,4.082,4.082,0,0,1-.158-1.185,3.811,3.811,0,0,1,.173-1.177,2.483,2.483,0,0,1,.516-.915,2.308,2.308,0,0,1,.861-.59,3.221,3.221,0,0,1,1.211-.209,3.4,3.4,0,0,1,1.174.184,2.051,2.051,0,0,1,.822.539,2.246,2.246,0,0,1,.482.875A4.071,4.071,0,0,1,152.025,20.563Zm-1.462.057a3.731,3.731,0,0,0-.059-.686,1.645,1.645,0,0,0-.2-.545,1.009,1.009,0,0,0-.376-.361,1.2,1.2,0,0,0-.59-.13,1.231,1.231,0,0,0-.553.116.982.982,0,0,0-.389.338,1.623,1.623,0,0,0-.229.537,3.019,3.019,0,0,0-.076.714,3.562,3.562,0,0,0,.061.685,1.715,1.715,0,0,0,.2.545.948.948,0,0,0,.376.359,1.236,1.236,0,0,0,.586.127,1.262,1.262,0,0,0,.559-.116,1,1,0,0,0,.39-.336,1.559,1.559,0,0,0,.225-.533A3.14,3.14,0,0,0,150.563,20.62Z"/><path d="M156.693,21.709a1.7,1.7,0,0,1-.16.757,1.5,1.5,0,0,1-.455.547,2.03,2.03,0,0,1-.694.33,3.247,3.247,0,0,1-.869.11,3.319,3.319,0,0,1-.539-.042,3.262,3.262,0,0,1-.46-.107,2.354,2.354,0,0,1-.339-.133.838.838,0,0,1-.2-.127.4.4,0,0,1-.1-.186,1.55,1.55,0,0,1-.033-.376c0-.109,0-.2.01-.262a.682.682,0,0,1,.035-.158.143.143,0,0,1,.056-.079.168.168,0,0,1,.084-.02.423.423,0,0,1,.184.071c.081.047.181.1.3.155a3.3,3.3,0,0,0,.42.158,1.867,1.867,0,0,0,.545.073,1.358,1.358,0,0,0,.342-.039.87.87,0,0,0,.26-.113.477.477,0,0,0,.166-.186.572.572,0,0,0,.057-.26.435.435,0,0,0-.105-.291.937.937,0,0,0-.276-.211,3.348,3.348,0,0,0-.39-.17c-.144-.052-.294-.111-.446-.175a3.843,3.843,0,0,1-.446-.22,1.67,1.67,0,0,1-.389-.3,1.386,1.386,0,0,1-.277-.434,1.6,1.6,0,0,1-.1-.61,1.546,1.546,0,0,1,.141-.663,1.424,1.424,0,0,1,.406-.517,1.925,1.925,0,0,1,.646-.333,2.875,2.875,0,0,1,.856-.119,3.141,3.141,0,0,1,.46.034,3.414,3.414,0,0,1,.4.085,2,2,0,0,1,.306.11,1.078,1.078,0,0,1,.177.1.294.294,0,0,1,.077.084.382.382,0,0,1,.033.1c.008.039.014.088.02.147s.008.131.008.217c0,.1,0,.185-.008.249a.679.679,0,0,1-.028.152.135.135,0,0,1-.054.076.154.154,0,0,1-.079.02.388.388,0,0,1-.158-.059,2.6,2.6,0,0,0-.269-.127,2.866,2.866,0,0,0-.372-.127,1.765,1.765,0,0,0-.482-.06,1.215,1.215,0,0,0-.333.04.621.621,0,0,0-.232.113.474.474,0,0,0-.135.172.492.492,0,0,0-.045.212.422.422,0,0,0,.106.293,1.01,1.01,0,0,0,.282.209,3.214,3.214,0,0,0,.4.169c.148.053.3.111.451.173a3.976,3.976,0,0,1,.452.217,1.678,1.678,0,0,1,.4.3,1.381,1.381,0,0,1,.282.432A1.5,1.5,0,0,1,156.693,21.709Z"/><path d="M161.306,21.709a1.7,1.7,0,0,1-.161.757,1.505,1.505,0,0,1-.455.547,2.039,2.039,0,0,1-.694.33,3.254,3.254,0,0,1-.87.11,3.346,3.346,0,0,1-.539-.042,3.3,3.3,0,0,1-.46-.107,2.384,2.384,0,0,1-.338-.133.817.817,0,0,1-.2-.127.4.4,0,0,1-.1-.186,1.593,1.593,0,0,1-.034-.376,2.27,2.27,0,0,1,.012-.262.6.6,0,0,1,.033-.158.148.148,0,0,1,.056-.079.17.17,0,0,1,.085-.02.428.428,0,0,1,.184.071c.081.047.182.1.3.155a3.263,3.263,0,0,0,.421.158,1.858,1.858,0,0,0,.545.073,1.341,1.341,0,0,0,.34-.039.87.87,0,0,0,.26-.113.488.488,0,0,0,.167-.186.585.585,0,0,0,.057-.26.43.43,0,0,0-.1-.291.942.942,0,0,0-.277-.211,3.188,3.188,0,0,0-.389-.17c-.145-.052-.294-.111-.446-.175a3.843,3.843,0,0,1-.446-.22,1.7,1.7,0,0,1-.39-.3,1.383,1.383,0,0,1-.276-.434,1.6,1.6,0,0,1-.1-.61,1.532,1.532,0,0,1,.142-.663,1.435,1.435,0,0,1,.406-.517,1.93,1.93,0,0,1,.647-.333,2.871,2.871,0,0,1,.854-.119,3.155,3.155,0,0,1,.461.034,3.414,3.414,0,0,1,.4.085,2.022,2.022,0,0,1,.305.11,1.054,1.054,0,0,1,.178.1.275.275,0,0,1,.076.084.349.349,0,0,1,.034.1c.008.039.014.088.02.147s.008.131.008.217c0,.1,0,.185-.008.249a.621.621,0,0,1-.029.152.13.13,0,0,1-.053.076.157.157,0,0,1-.079.02.4.4,0,0,1-.159-.059,2.643,2.643,0,0,0-.267-.127,2.992,2.992,0,0,0-.373-.127,1.773,1.773,0,0,0-.483-.06,1.215,1.215,0,0,0-.333.04.632.632,0,0,0-.231.113.466.466,0,0,0-.136.172.507.507,0,0,0-.045.212.419.419,0,0,0,.108.293.968.968,0,0,0,.282.209,3.073,3.073,0,0,0,.4.169q.224.079.451.173a4.059,4.059,0,0,1,.452.217,1.7,1.7,0,0,1,.4.3,1.4,1.4,0,0,1,.282.432A1.5,1.5,0,0,1,161.306,21.709Z"/><path d="M167.465,20.563a3.84,3.84,0,0,1-.17,1.174,2.461,2.461,0,0,1-.514.915,2.287,2.287,0,0,1-.863.593,3.249,3.249,0,0,1-1.214.208,3.33,3.33,0,0,1-1.169-.186,2.107,2.107,0,0,1-.824-.542,2.219,2.219,0,0,1-.485-.875,4.046,4.046,0,0,1-.159-1.185,3.811,3.811,0,0,1,.173-1.177,2.471,2.471,0,0,1,.517-.915,2.3,2.3,0,0,1,.86-.59,3.225,3.225,0,0,1,1.211-.209,3.4,3.4,0,0,1,1.175.184,2.055,2.055,0,0,1,.821.539,2.261,2.261,0,0,1,.483.875A4.1,4.1,0,0,1,167.465,20.563ZM166,20.62a3.728,3.728,0,0,0-.06-.686,1.623,1.623,0,0,0-.2-.545,1.009,1.009,0,0,0-.376-.361,1.2,1.2,0,0,0-.59-.13,1.226,1.226,0,0,0-.552.116.985.985,0,0,0-.39.338,1.623,1.623,0,0,0-.229.537,3.072,3.072,0,0,0-.076.714,3.559,3.559,0,0,0,.062.685,1.714,1.714,0,0,0,.2.545.961.961,0,0,0,.376.359,1.237,1.237,0,0,0,.587.127,1.258,1.258,0,0,0,.558-.116.989.989,0,0,0,.39-.336,1.541,1.541,0,0,0,.226-.533A3.14,3.14,0,0,0,166,20.62Z"/><path d="M173.188,18.091c0,.018,0,.041,0,.068a.816.816,0,0,1-.012.087c0,.032-.013.068-.023.11s-.021.088-.036.141L171.6,23.053a.468.468,0,0,1-.077.155.319.319,0,0,1-.158.093,1.28,1.28,0,0,1-.3.045c-.126.008-.29.011-.493.011s-.362,0-.488-.014a1.307,1.307,0,0,1-.3-.048.31.31,0,0,1-.155-.093.426.426,0,0,1-.076-.149L168.046,18.5c-.023-.075-.041-.143-.054-.2a1.076,1.076,0,0,1-.022-.13c0-.026,0-.051,0-.073a.16.16,0,0,1,.031-.1.232.232,0,0,1,.109-.071.966.966,0,0,1,.218-.039c.092-.008.208-.012.347-.012a3.694,3.694,0,0,1,.373.015,1.155,1.155,0,0,1,.223.039.224.224,0,0,1,.116.073.481.481,0,0,1,.056.116l1.146,3.7.034.141.033-.141,1.13-3.7a.325.325,0,0,1,.053-.116.237.237,0,0,1,.116-.073,1.065,1.065,0,0,1,.212-.039,3.209,3.209,0,0,1,.347-.015q.209,0,.342.012a.847.847,0,0,1,.206.039.208.208,0,0,1,.1.071A.172.172,0,0,1,173.188,18.091Z"/><path d="M178.568,20.467a.548.548,0,0,1-.116.384.412.412,0,0,1-.318.124h-3.066a2.075,2.075,0,0,0,.077.584,1.1,1.1,0,0,0,.242.446,1.058,1.058,0,0,0,.429.28,1.837,1.837,0,0,0,.629.1,3.532,3.532,0,0,0,.656-.054,4.568,4.568,0,0,0,.488-.118c.137-.044.251-.083.342-.119a.643.643,0,0,1,.219-.053.155.155,0,0,1,.085.02.148.148,0,0,1,.057.07.46.46,0,0,1,.03.144q.009.093.009.234c0,.083,0,.154-.006.212s-.009.108-.016.15a.343.343,0,0,1-.035.1.386.386,0,0,1-.058.082.725.725,0,0,1-.2.107,3.209,3.209,0,0,1-.417.132,5.841,5.841,0,0,1-.582.114,4.987,4.987,0,0,1-.7.047,3.7,3.7,0,0,1-1.176-.169,2.093,2.093,0,0,1-.844-.514,2.118,2.118,0,0,1-.5-.869,4.082,4.082,0,0,1-.167-1.231,3.939,3.939,0,0,1,.175-1.211,2.543,2.543,0,0,1,.508-.914,2.19,2.19,0,0,1,.81-.573,3.115,3.115,0,0,1,2.156-.011,1.956,1.956,0,0,1,.738.516,2.1,2.1,0,0,1,.423.782,3.42,3.42,0,0,1,.135.983Zm-1.378-.406a1.458,1.458,0,0,0-.239-.94.928.928,0,0,0-.794-.342,1.024,1.024,0,0,0-.47.1.949.949,0,0,0-.333.274,1.23,1.23,0,0,0-.2.406,2.05,2.05,0,0,0-.082.5Z"/><path d="M182.972,18.565q0,.2-.012.333a1.082,1.082,0,0,1-.033.2.2.2,0,0,1-.06.1.145.145,0,0,1-.093.028.321.321,0,0,1-.1-.02l-.127-.042c-.047-.015-.1-.029-.155-.043a.831.831,0,0,0-.186-.019.627.627,0,0,0-.237.048,1.029,1.029,0,0,0-.246.149,1.855,1.855,0,0,0-.265.271,4.469,4.469,0,0,0-.3.418v3.139a.155.155,0,0,1-.033.1.251.251,0,0,1-.116.071.98.98,0,0,1-.217.042,3.3,3.3,0,0,1-.345.014,3.262,3.262,0,0,1-.344-.014.968.968,0,0,1-.217-.042.241.241,0,0,1-.116-.071.15.15,0,0,1-.034-.1V18.1a.167.167,0,0,1,.029-.1.2.2,0,0,1,.1-.07.785.785,0,0,1,.189-.042,2.317,2.317,0,0,1,.291-.015,2.469,2.469,0,0,1,.3.015.652.652,0,0,1,.183.042.221.221,0,0,1,.094.07.181.181,0,0,1,.027.1v.627a4,4,0,0,1,.373-.466,2.139,2.139,0,0,1,.333-.291,1.057,1.057,0,0,1,.317-.149,1.178,1.178,0,0,1,.315-.043,1.492,1.492,0,0,1,.158.009,1.382,1.382,0,0,1,.175.028,1.234,1.234,0,0,1,.158.045.305.305,0,0,1,.1.054.189.189,0,0,1,.046.062.6.6,0,0,1,.025.093,1.552,1.552,0,0,1,.017.178C182.97,18.322,182.972,18.43,182.972,18.565Z"/><path d="M544.533,23.248a.152.152,0,0,1-.037.1.246.246,0,0,1-.121.074,1.162,1.162,0,0,1-.226.045,3.135,3.135,0,0,1-.356.017,3.246,3.246,0,0,1-.363-.017,1.1,1.1,0,0,1-.227-.045.245.245,0,0,1-.118-.074.157.157,0,0,1-.037-.1V20.3h-2.732v2.953a.16.16,0,0,1-.034.1.231.231,0,0,1-.118.074,1.162,1.162,0,0,1-.226.045,3.82,3.82,0,0,1-.72,0,1.168,1.168,0,0,1-.229-.045.256.256,0,0,1-.121-.074.157.157,0,0,1-.037-.1v-6.9a.159.159,0,0,1,.037-.1.255.255,0,0,1,.121-.073,1.236,1.236,0,0,1,.229-.046,4.058,4.058,0,0,1,.72,0,1.232,1.232,0,0,1,.226.046.23.23,0,0,1,.118.073.162.162,0,0,1,.034.1v2.682h2.732V16.349a.159.159,0,0,1,.037-.1.244.244,0,0,1,.118-.073,1.16,1.16,0,0,1,.227-.046,3.279,3.279,0,0,1,.363-.016,3.167,3.167,0,0,1,.356.016,1.232,1.232,0,0,1,.226.046.246.246,0,0,1,.121.073.154.154,0,0,1,.037.1Z"/><path d="M547.57,16.519a.8.8,0,0,1-.175.593,1.386,1.386,0,0,1-1.295.005.767.767,0,0,1-.167-.57.812.812,0,0,1,.172-.6,1.36,1.36,0,0,1,1.295-.006A.769.769,0,0,1,547.57,16.519Zm-.107,6.74a.158.158,0,0,1-.034.1.259.259,0,0,1-.116.071,1.082,1.082,0,0,1-.217.042c-.09.009-.205.014-.345.014s-.254,0-.344-.014a1.108,1.108,0,0,1-.218-.042.255.255,0,0,1-.115-.071.158.158,0,0,1-.034-.1V18.235a.158.158,0,0,1,.034-.1.265.265,0,0,1,.115-.073.94.94,0,0,1,.218-.048,3.5,3.5,0,0,1,.689,0,.919.919,0,0,1,.217.048.27.27,0,0,1,.116.073.158.158,0,0,1,.034.1Z"/><path d="M553.418,18.574a.98.98,0,0,1-.062.4c-.042.087-.092.13-.152.13h-.593a.823.823,0,0,1,.178.308,1.222,1.222,0,0,1,.054.358,1.958,1.958,0,0,1-.148.782,1.545,1.545,0,0,1-.42.576,1.843,1.843,0,0,1-.661.356,2.864,2.864,0,0,1-.86.121,1.8,1.8,0,0,1-.463-.059,1.2,1.2,0,0,1-.339-.138.788.788,0,0,0-.121.174.474.474,0,0,0-.054.226.32.32,0,0,0,.144.269.733.733,0,0,0,.4.115l1.226.045a2.931,2.931,0,0,1,.764.122,1.642,1.642,0,0,1,.565.293,1.274,1.274,0,0,1,.35.455,1.435,1.435,0,0,1,.122.6,1.561,1.561,0,0,1-.164.7,1.594,1.594,0,0,1-.492.574,2.543,2.543,0,0,1-.821.383,4.22,4.22,0,0,1-1.154.142,5.153,5.153,0,0,1-1.1-.1,2.407,2.407,0,0,1-.745-.282,1.1,1.1,0,0,1-.557-.983,1.334,1.334,0,0,1,.048-.355,1.316,1.316,0,0,1,.142-.325,1.686,1.686,0,0,1,.228-.3,2.529,2.529,0,0,1,.311-.271.941.941,0,0,1-.508-.841,1.235,1.235,0,0,1,.152-.607,1.958,1.958,0,0,1,.395-.494,1.53,1.53,0,0,1-.316-.474,1.755,1.755,0,0,1-.119-.689,1.9,1.9,0,0,1,.156-.787,1.665,1.665,0,0,1,.432-.588,1.916,1.916,0,0,1,.66-.366,2.674,2.674,0,0,1,.847-.127,3.481,3.481,0,0,1,.454.028,3.013,3.013,0,0,1,.4.079h1.6c.064,0,.115.041.154.124A1.041,1.041,0,0,1,553.418,18.574Zm-1.49,5.21a.443.443,0,0,0-.2-.39,1.061,1.061,0,0,0-.559-.146l-1.011-.028a1.467,1.467,0,0,0-.234.206,1.183,1.183,0,0,0-.141.189.566.566,0,0,0-.071.175.911.911,0,0,0-.017.175.463.463,0,0,0,.286.429,1.784,1.784,0,0,0,.8.146,1.919,1.919,0,0,0,.542-.065,1.054,1.054,0,0,0,.356-.171.613.613,0,0,0,.191-.241A.7.7,0,0,0,551.928,23.784Zm-.333-4.019a.785.785,0,0,0-.864-.858.913.913,0,0,0-.367.07.731.731,0,0,0-.262.192.789.789,0,0,0-.156.283,1.1,1.1,0,0,0-.05.335.817.817,0,0,0,.225.607.851.851,0,0,0,.627.223.936.936,0,0,0,.372-.067.735.735,0,0,0,.263-.187.8.8,0,0,0,.158-.274A.975.975,0,0,0,551.6,19.765Z"/><path d="M559.171,23.259a.158.158,0,0,1-.034.1.257.257,0,0,1-.114.071,1.042,1.042,0,0,1-.216.042c-.093.009-.206.014-.342.014s-.255,0-.347-.014a1.051,1.051,0,0,1-.218-.042.265.265,0,0,1-.113-.071.157.157,0,0,1-.033-.1V20.386a2.458,2.458,0,0,0-.054-.576,1.15,1.15,0,0,0-.155-.358.692.692,0,0,0-.263-.232.81.81,0,0,0-.375-.082.944.944,0,0,0-.548.2,3,3,0,0,0-.576.576v3.347a.157.157,0,0,1-.033.1.259.259,0,0,1-.116.071,1.112,1.112,0,0,1-.217.042c-.091.009-.206.014-.345.014s-.254,0-.344-.014a1.1,1.1,0,0,1-.217-.042.248.248,0,0,1-.116-.071.153.153,0,0,1-.034-.1V15.836a.165.165,0,0,1,.034-.1.251.251,0,0,1,.116-.076.985.985,0,0,1,.217-.048,2.92,2.92,0,0,1,.344-.017,2.95,2.95,0,0,1,.345.017,1,1,0,0,1,.217.048.263.263,0,0,1,.116.076.17.17,0,0,1,.033.1v2.783a2.71,2.71,0,0,1,.748-.539,1.85,1.85,0,0,1,.793-.178,1.991,1.991,0,0,1,.867.169,1.519,1.519,0,0,1,.571.463,1.891,1.891,0,0,1,.312.686,4.005,4.005,0,0,1,.1.951Z"/><path d="M566.988,22.457c0,.1,0,.18-.008.246a1.4,1.4,0,0,1-.022.167.556.556,0,0,1-.034.11.412.412,0,0,1-.088.107,1.224,1.224,0,0,1-.232.158,2.258,2.258,0,0,1-.372.167,3.128,3.128,0,0,1-.454.118,2.809,2.809,0,0,1-.506.045,2.735,2.735,0,0,1-1.03-.181,1.918,1.918,0,0,1-.753-.533,2.34,2.34,0,0,1-.461-.861,3.994,3.994,0,0,1-.155-1.163,4.054,4.054,0,0,1,.189-1.306,2.476,2.476,0,0,1,.529-.912,2.1,2.1,0,0,1,.8-.537,2.863,2.863,0,0,1,1.016-.174,2.519,2.519,0,0,1,.444.039,2.562,2.562,0,0,1,.406.108,2.046,2.046,0,0,1,.339.152,1.081,1.081,0,0,1,.212.146.638.638,0,0,1,.087.1.4.4,0,0,1,.04.11c.008.045.016.1.022.167s.008.145.008.239a1.316,1.316,0,0,1-.056.46c-.038.089-.087.133-.147.133a.344.344,0,0,1-.2-.079c-.072-.053-.157-.111-.254-.175a1.934,1.934,0,0,0-.35-.175,1.336,1.336,0,0,0-.485-.079.968.968,0,0,0-.848.426,2.211,2.211,0,0,0-.293,1.251,3.134,3.134,0,0,0,.073.717,1.5,1.5,0,0,0,.218.519.926.926,0,0,0,.36.314,1.17,1.17,0,0,0,.506.1,1.3,1.3,0,0,0,.5-.088,1.969,1.969,0,0,0,.37-.2c.106-.071.194-.136.266-.194a.308.308,0,0,1,.181-.088.133.133,0,0,1,.084.028.2.2,0,0,1,.053.1,1.234,1.234,0,0,1,.032.2C566.985,22.232,566.988,22.333,566.988,22.457Z"/><path d="M571.251,18.692q0,.2-.012.333a.981.981,0,0,1-.033.2.2.2,0,0,1-.06.1.144.144,0,0,1-.092.028.318.318,0,0,1-.1-.019c-.037-.013-.079-.028-.127-.043s-.1-.029-.155-.042a.822.822,0,0,0-.186-.02.627.627,0,0,0-.237.048,1,1,0,0,0-.246.15,1.806,1.806,0,0,0-.265.271,4.634,4.634,0,0,0-.3.417v3.139a.152.152,0,0,1-.033.1.254.254,0,0,1-.116.071,1.112,1.112,0,0,1-.217.042c-.091.009-.206.014-.344.014s-.254,0-.345-.014a1.112,1.112,0,0,1-.217-.042.248.248,0,0,1-.116-.071.152.152,0,0,1-.033-.1V18.224a.165.165,0,0,1,.028-.1.2.2,0,0,1,.1-.07.78.78,0,0,1,.189-.043,2.568,2.568,0,0,1,.291-.014,2.712,2.712,0,0,1,.3.014.648.648,0,0,1,.183.043.208.208,0,0,1,.094.07.171.171,0,0,1,.027.1v.626a3.881,3.881,0,0,1,.374-.465,2.045,2.045,0,0,1,.333-.291,1.044,1.044,0,0,1,.316-.15,1.218,1.218,0,0,1,.315-.042,1.525,1.525,0,0,1,.159.009,1.4,1.4,0,0,1,.174.028,1.106,1.106,0,0,1,.159.045.3.3,0,0,1,.1.053.185.185,0,0,1,.046.062.569.569,0,0,1,.026.094c.006.039.012.1.016.177S571.251,18.557,571.251,18.692Z"/><path d="M577.077,20.691a3.814,3.814,0,0,1-.17,1.174,2.469,2.469,0,0,1-.513.914,2.287,2.287,0,0,1-.864.593,3.245,3.245,0,0,1-1.214.209,3.311,3.311,0,0,1-1.169-.187,2.105,2.105,0,0,1-.824-.541,2.226,2.226,0,0,1-.485-.875,4.055,4.055,0,0,1-.158-1.186,3.781,3.781,0,0,1,.173-1.177,2.478,2.478,0,0,1,.516-.914,2.313,2.313,0,0,1,.86-.59,3.229,3.229,0,0,1,1.211-.209,3.4,3.4,0,0,1,1.175.183,2.079,2.079,0,0,1,.822.539,2.279,2.279,0,0,1,.482.875A4.117,4.117,0,0,1,577.077,20.691Zm-1.462.056a3.747,3.747,0,0,0-.059-.686,1.632,1.632,0,0,0-.2-.545,1,1,0,0,0-.376-.361,1.208,1.208,0,0,0-.589-.13,1.244,1.244,0,0,0-.553.116.994.994,0,0,0-.39.339,1.628,1.628,0,0,0-.228.536,3.025,3.025,0,0,0-.076.714,3.573,3.573,0,0,0,.061.686,1.714,1.714,0,0,0,.2.545.959.959,0,0,0,.376.358,1.228,1.228,0,0,0,.587.127,1.248,1.248,0,0,0,.559-.116,1,1,0,0,0,.389-.335,1.546,1.546,0,0,0,.226-.534A3.134,3.134,0,0,0,575.615,20.747Z"/><path d="M581.745,21.837a1.712,1.712,0,0,1-.16.756,1.507,1.507,0,0,1-.455.548,2.067,2.067,0,0,1-.694.33,3.29,3.29,0,0,1-.87.11,3.225,3.225,0,0,1-.539-.043,3.45,3.45,0,0,1-.46-.106,2.459,2.459,0,0,1-.338-.133.883.883,0,0,1-.2-.127.4.4,0,0,1-.1-.187,1.526,1.526,0,0,1-.034-.375,2.554,2.554,0,0,1,.011-.262.772.772,0,0,1,.034-.159A.148.148,0,0,1,578,22.11a.166.166,0,0,1,.084-.019.422.422,0,0,1,.184.07c.081.047.181.1.3.155a2.977,2.977,0,0,0,.42.158,1.861,1.861,0,0,0,.545.074,1.316,1.316,0,0,0,.342-.04.867.867,0,0,0,.26-.113.464.464,0,0,0,.166-.186.567.567,0,0,0,.056-.259.434.434,0,0,0-.1-.291.927.927,0,0,0-.277-.212,3.172,3.172,0,0,0-.389-.169q-.217-.079-.446-.175a4.192,4.192,0,0,1-.446-.22,1.7,1.7,0,0,1-.389-.3,1.384,1.384,0,0,1-.277-.435,1.593,1.593,0,0,1-.1-.609,1.564,1.564,0,0,1,.14-.664,1.446,1.446,0,0,1,.407-.517,1.915,1.915,0,0,1,.646-.333,2.876,2.876,0,0,1,.856-.118,2.986,2.986,0,0,1,.459.034,3.4,3.4,0,0,1,.4.084,1.976,1.976,0,0,1,.305.111,1.036,1.036,0,0,1,.178.1.291.291,0,0,1,.076.085.342.342,0,0,1,.034.1c.007.04.014.089.02.147s.008.131.008.218,0,.184-.008.248a.729.729,0,0,1-.028.152.142.142,0,0,1-.054.077.154.154,0,0,1-.079.019.373.373,0,0,1-.158-.059,2.945,2.945,0,0,0-.269-.127,3.2,3.2,0,0,0-.372-.127,1.812,1.812,0,0,0-.482-.059,1.253,1.253,0,0,0-.333.039.636.636,0,0,0-.232.113.488.488,0,0,0-.136.172.507.507,0,0,0-.044.212.423.423,0,0,0,.106.294,1.015,1.015,0,0,0,.282.209,3.3,3.3,0,0,0,.4.169c.148.052.3.11.451.172a4.153,4.153,0,0,1,.452.217,1.72,1.72,0,0,1,.4.3,1.407,1.407,0,0,1,.283.432A1.5,1.5,0,0,1,581.745,21.837Z"/><path d="M586.357,21.837a1.685,1.685,0,0,1-.161.756,1.5,1.5,0,0,1-.454.548,2.086,2.086,0,0,1-.694.33,3.3,3.3,0,0,1-.87.11,3.234,3.234,0,0,1-.539-.043,3.414,3.414,0,0,1-.46-.106,2.511,2.511,0,0,1-.338-.133.883.883,0,0,1-.2-.127.4.4,0,0,1-.1-.187,1.526,1.526,0,0,1-.034-.375,2.554,2.554,0,0,1,.011-.262.659.659,0,0,1,.034-.159.152.152,0,0,1,.056-.079.17.17,0,0,1,.085-.019.422.422,0,0,1,.184.07c.081.047.181.1.3.155a2.977,2.977,0,0,0,.42.158,1.861,1.861,0,0,0,.545.074,1.3,1.3,0,0,0,.341-.04.846.846,0,0,0,.26-.113.474.474,0,0,0,.167-.186.581.581,0,0,0,.057-.259.435.435,0,0,0-.105-.291.927.927,0,0,0-.277-.212,3.043,3.043,0,0,0-.389-.169q-.217-.079-.446-.175a4.1,4.1,0,0,1-.446-.22,1.725,1.725,0,0,1-.39-.3,1.4,1.4,0,0,1-.276-.435,1.592,1.592,0,0,1-.1-.609,1.536,1.536,0,0,1,.142-.664,1.433,1.433,0,0,1,.406-.517,1.925,1.925,0,0,1,.646-.333,2.874,2.874,0,0,1,.855-.118,3.032,3.032,0,0,1,.461.034,3.423,3.423,0,0,1,.4.084,2.015,2.015,0,0,1,.305.111,1.036,1.036,0,0,1,.178.1.277.277,0,0,1,.076.085.374.374,0,0,1,.034.1,1.376,1.376,0,0,1,.019.147c.006.058.009.131.009.218s0,.184-.009.248a.574.574,0,0,1-.028.152.137.137,0,0,1-.054.077.152.152,0,0,1-.079.019.383.383,0,0,1-.158-.059,2.792,2.792,0,0,0-.268-.127,3.223,3.223,0,0,0-.373-.127,1.8,1.8,0,0,0-.482-.059,1.258,1.258,0,0,0-.333.039.639.639,0,0,0-.231.113.466.466,0,0,0-.136.172.507.507,0,0,0-.045.212.424.424,0,0,0,.107.294.992.992,0,0,0,.283.209,3.218,3.218,0,0,0,.4.169c.148.052.3.11.451.172a4.139,4.139,0,0,1,.451.217,1.71,1.71,0,0,1,.4.3,1.423,1.423,0,0,1,.282.432A1.522,1.522,0,0,1,586.357,21.837Z"/><path d="M592.516,20.691a3.876,3.876,0,0,1-.169,1.174,2.5,2.5,0,0,1-.514.914,2.28,2.28,0,0,1-.864.593,3.245,3.245,0,0,1-1.214.209,3.3,3.3,0,0,1-1.168-.187,2.091,2.091,0,0,1-.824-.541,2.228,2.228,0,0,1-.486-.875,4.089,4.089,0,0,1-.158-1.186,3.842,3.842,0,0,1,.172-1.177,2.48,2.48,0,0,1,.517-.914,2.292,2.292,0,0,1,.861-.59,3.221,3.221,0,0,1,1.211-.209,3.4,3.4,0,0,1,1.174.183,2.076,2.076,0,0,1,.821.539,2.241,2.241,0,0,1,.482.875A4.081,4.081,0,0,1,592.516,20.691Zm-1.462.056a3.658,3.658,0,0,0-.06-.686,1.61,1.61,0,0,0-.2-.545,1.007,1.007,0,0,0-.375-.361,1.215,1.215,0,0,0-.59-.13,1.255,1.255,0,0,0-.554.116.985.985,0,0,0-.389.339,1.608,1.608,0,0,0-.229.536,3.025,3.025,0,0,0-.076.714,3.489,3.489,0,0,0,.063.686,1.667,1.667,0,0,0,.2.545.949.949,0,0,0,.375.358,1.228,1.228,0,0,0,.587.127,1.248,1.248,0,0,0,.559-.116,1.009,1.009,0,0,0,.39-.335,1.545,1.545,0,0,0,.225-.534A3.134,3.134,0,0,0,591.054,20.747Z"/><path d="M598.24,18.218c0,.019,0,.042,0,.068s-.006.055-.011.087-.013.069-.023.11-.021.089-.036.141l-1.513,4.556a.458.458,0,0,1-.076.155.32.32,0,0,1-.158.094,1.4,1.4,0,0,1-.3.045c-.126.007-.29.011-.493.011s-.362,0-.488-.014a1.43,1.43,0,0,1-.3-.048.319.319,0,0,1-.155-.094.428.428,0,0,1-.077-.149L593.1,18.624c-.023-.075-.041-.143-.054-.2a.922.922,0,0,1-.023-.13c0-.026,0-.05,0-.073a.151.151,0,0,1,.031-.1.215.215,0,0,1,.109-.071.907.907,0,0,1,.218-.04c.092-.007.208-.011.347-.011s.279,0,.373.014a1.132,1.132,0,0,1,.222.04.211.211,0,0,1,.117.073.464.464,0,0,1,.056.116l1.146,3.7.034.141.033-.141,1.13-3.7a.3.3,0,0,1,.053-.116.224.224,0,0,1,.116-.073,1.055,1.055,0,0,1,.212-.04c.088-.009.2-.014.346-.014s.253,0,.342.011a.778.778,0,0,1,.206.04.205.205,0,0,1,.1.071A.176.176,0,0,1,598.24,18.218Z"/><path d="M603.62,20.6a.545.545,0,0,1-.116.383.414.414,0,0,1-.318.125H600.12a2.124,2.124,0,0,0,.076.584,1.126,1.126,0,0,0,.242.446,1.06,1.06,0,0,0,.43.279,1.837,1.837,0,0,0,.629.1,3.43,3.43,0,0,0,.655-.054,4.307,4.307,0,0,0,.489-.118c.136-.043.251-.083.341-.118a.63.63,0,0,1,.22-.054.167.167,0,0,1,.085.02.153.153,0,0,1,.057.07.491.491,0,0,1,.03.144c.006.062.009.14.009.235s0,.153-.006.211a1.257,1.257,0,0,1-.017.15.318.318,0,0,1-.034.1.362.362,0,0,1-.058.082.721.721,0,0,1-.2.107,3.145,3.145,0,0,1-.417.133,5.8,5.8,0,0,1-.582.113,4.812,4.812,0,0,1-.7.048,3.737,3.737,0,0,1-1.177-.169,2.1,2.1,0,0,1-.843-.514,2.131,2.131,0,0,1-.5-.869,4.055,4.055,0,0,1-.167-1.231,3.9,3.9,0,0,1,.175-1.211,2.548,2.548,0,0,1,.507-.914,2.193,2.193,0,0,1,.811-.574,3.13,3.13,0,0,1,2.156-.011,1.958,1.958,0,0,1,.738.517,2.068,2.068,0,0,1,.422.782,3.378,3.378,0,0,1,.136.982Zm-1.378-.407a1.458,1.458,0,0,0-.239-.94.929.929,0,0,0-.794-.341,1.041,1.041,0,0,0-.471.1.958.958,0,0,0-.333.274,1.243,1.243,0,0,0-.2.407,2,2,0,0,0-.082.5Z"/><path d="M608.022,18.692c0,.136,0,.247-.01.333a1.124,1.124,0,0,1-.034.2.2.2,0,0,1-.06.1.145.145,0,0,1-.093.028.307.307,0,0,1-.1-.019L607.6,19.3q-.071-.023-.156-.042a.822.822,0,0,0-.186-.02.627.627,0,0,0-.237.048.985.985,0,0,0-.246.15,1.855,1.855,0,0,0-.265.271,4.45,4.45,0,0,0-.3.417v3.139a.158.158,0,0,1-.034.1.261.261,0,0,1-.115.071,1.108,1.108,0,0,1-.218.042c-.09.009-.205.014-.345.014s-.254,0-.344-.014a1.082,1.082,0,0,1-.217-.042.254.254,0,0,1-.116-.071.158.158,0,0,1-.034-.1V18.224a.18.18,0,0,1,.028-.1.2.2,0,0,1,.1-.07.78.78,0,0,1,.189-.043A2.574,2.574,0,0,1,605.4,18a2.706,2.706,0,0,1,.3.014.665.665,0,0,1,.184.043.2.2,0,0,1,.093.07.18.18,0,0,1,.028.1v.626a4.094,4.094,0,0,1,.372-.465,2.178,2.178,0,0,1,.333-.291,1.056,1.056,0,0,1,.316-.15,1.233,1.233,0,0,1,.317-.042,1.507,1.507,0,0,1,.158.009,1.441,1.441,0,0,1,.175.028,1.128,1.128,0,0,1,.158.045.318.318,0,0,1,.1.053.2.2,0,0,1,.045.062.583.583,0,0,1,.025.094,1.28,1.28,0,0,1,.018.177C608.021,18.45,608.022,18.557,608.022,18.692Z"/><path class="cls-10" d="M71.667,237.3C128.75,92.033,116.582,61.474,220.5,64.221"/><path class="cls-10" d="M112.333,237.373C136,101.022,111,57.533,217.084,64.28"/><path class="cls-10" d="M187.3,237.373C159.5,68.065,175.333,63.687,67.471,64.246"/><path class="cls-10" d="M167.126,237.3C159.848,91.77,195.333,60.481,66.8,63.132"/><path class="cls-6" d="M666.1,64.339c-134.448,0-95.274-7.759-145.114,173.581"/><path class="cls-10" d="M648.983,237.92C591.9,92.649,604.067,62.09,500.149,64.838"/><path class="cls-10" d="M608.316,237.989C584.649,101.638,609.649,58.149,503.565,64.9"/><path class="cls-10" d="M533.35,237.989C561.149,68.681,545.316,64.3,653.178,64.862"/><path class="cls-10" d="M553.524,237.92C563.333,93.589,525.316,61.1,653.849,63.748"/><path class="cls-11" d="M621.052,188.958a2.237,2.237,0,0,1-.014.28.836.836,0,0,1-.042.189.219.219,0,0,1-.073.1.176.176,0,0,1-.1.031h-4.2a.906.906,0,0,1-.215-.022.282.282,0,0,1-.146-.087.4.4,0,0,1-.082-.19,1.642,1.642,0,0,1-.026-.322,2.633,2.633,0,0,1,.017-.319.9.9,0,0,1,.062-.236,1.158,1.158,0,0,1,.116-.2,2.3,2.3,0,0,1,.183-.217l1.265-1.355a6.539,6.539,0,0,0,.609-.72,4.1,4.1,0,0,0,.362-.592,2.137,2.137,0,0,0,.177-.494,2.012,2.012,0,0,0,.049-.43,1.053,1.053,0,0,0-.059-.352.842.842,0,0,0-.175-.291.8.8,0,0,0-.291-.195,1.1,1.1,0,0,0-.412-.07,1.9,1.9,0,0,0-.59.084,2.873,2.873,0,0,0-.452.19,3.7,3.7,0,0,0-.325.192.412.412,0,0,1-.2.087.125.125,0,0,1-.088-.034.248.248,0,0,1-.058-.113,1.245,1.245,0,0,1-.037-.211,3,3,0,0,1-.014-.325c0-.087,0-.159.008-.217a1.254,1.254,0,0,1,.025-.153.468.468,0,0,1,.046-.113.593.593,0,0,1,.1-.115,1.322,1.322,0,0,1,.26-.173,3.18,3.18,0,0,1,.465-.2,4.367,4.367,0,0,1,.61-.166,3.4,3.4,0,0,1,.694-.068,3.113,3.113,0,0,1,1,.144,1.968,1.968,0,0,1,.709.4,1.6,1.6,0,0,1,.42.609,2.044,2.044,0,0,1,.139.759,3.637,3.637,0,0,1-.068.7,2.642,2.642,0,0,1-.283.742,5.878,5.878,0,0,1-.6.881,14.325,14.325,0,0,1-1.034,1.12l-.852.875H620.8a.173.173,0,0,1,.1.034.246.246,0,0,1,.082.1.633.633,0,0,1,.051.186A1.834,1.834,0,0,1,621.052,188.958Z"/><path class="cls-11" d="M627.138,187.462a1.257,1.257,0,0,1-.06.438c-.039.1-.093.15-.161.15h-.649v1.32a.151.151,0,0,1-.034.1.25.25,0,0,1-.119.071,1.078,1.078,0,0,1-.219.042,3.362,3.362,0,0,1-.35.014,3.284,3.284,0,0,1-.342-.014,1.047,1.047,0,0,1-.221-.042.233.233,0,0,1-.112-.071.167.167,0,0,1-.031-.1v-1.32h-2.794a.473.473,0,0,1-.142-.02.192.192,0,0,1-.1-.091.541.541,0,0,1-.062-.2,2.518,2.518,0,0,1-.02-.353c0-.12,0-.224.009-.313a1.8,1.8,0,0,1,.028-.24,1.1,1.1,0,0,1,.057-.2,1.849,1.849,0,0,1,.092-.2l2.27-4a.229.229,0,0,1,.1-.087.651.651,0,0,1,.189-.062,2.26,2.26,0,0,1,.308-.037c.124-.008.274-.011.451-.011.192,0,.355,0,.491.014a1.921,1.921,0,0,1,.325.045.5.5,0,0,1,.178.076.137.137,0,0,1,.056.108v4.4h.649c.061,0,.112.046.155.138A1.176,1.176,0,0,1,627.138,187.462Zm-2.3-3.957h-.012l-1.925,3.359h1.937Z"/><path class="cls-11" d="M635.476,189.37a.183.183,0,0,1-.029.1.2.2,0,0,1-.1.07.633.633,0,0,1-.184.04c-.077.008-.172.011-.285.011s-.219,0-.294-.011a.658.658,0,0,1-.183-.04.219.219,0,0,1-.1-.07.17.17,0,0,1-.031-.1v-.559a3.216,3.216,0,0,1-.816.65,2.141,2.141,0,0,1-1.919.008,1.852,1.852,0,0,1-.649-.6,2.629,2.629,0,0,1-.365-.883,4.891,4.891,0,0,1-.112-1.065,4.67,4.67,0,0,1,.144-1.208,2.7,2.7,0,0,1,.421-.914,1.861,1.861,0,0,1,.688-.581,2.109,2.109,0,0,1,.948-.2,1.7,1.7,0,0,1,.768.172,2.735,2.735,0,0,1,.683.506v-2.727a.164.164,0,0,1,.032-.1.215.215,0,0,1,.112-.076.935.935,0,0,1,.218-.049,3.706,3.706,0,0,1,.688,0,.893.893,0,0,1,.215.049.233.233,0,0,1,.112.076.161.161,0,0,1,.035.1Zm-1.412-3.364a3.138,3.138,0,0,0-.584-.587.981.981,0,0,0-.584-.2.82.82,0,0,0-.477.138,1,1,0,0,0-.322.37,1.978,1.978,0,0,0-.181.516,2.91,2.91,0,0,0-.059.585,3.646,3.646,0,0,0,.051.615,1.91,1.91,0,0,0,.166.534,1.019,1.019,0,0,0,.308.375.8.8,0,0,0,.485.141,1,1,0,0,0,.285-.042,1.1,1.1,0,0,0,.283-.139,1.84,1.84,0,0,0,.3-.251c.1-.1.212-.23.333-.381Z"/><path class="cls-11" d="M642.277,187.372a2.176,2.176,0,0,1-.107.706,1.851,1.851,0,0,1-.748.976,2.6,2.6,0,0,1-.578.288,3.622,3.622,0,0,1-.675.167,5.4,5.4,0,0,1-.8.053h-1.941a.465.465,0,0,1-.314-.109.452.452,0,0,1-.127-.359v-6.368a.448.448,0,0,1,.127-.358.461.461,0,0,1,.314-.11h1.834a4.916,4.916,0,0,1,1.137.112,2.247,2.247,0,0,1,.786.342,1.527,1.527,0,0,1,.488.579,1.885,1.885,0,0,1,.169.824,1.8,1.8,0,0,1-.068.5,1.511,1.511,0,0,1-.2.426,1.434,1.434,0,0,1-.318.338,1.625,1.625,0,0,1-.432.238,1.909,1.909,0,0,1,.572.2,1.609,1.609,0,0,1,.458.364,1.729,1.729,0,0,1,.308.523A1.893,1.893,0,0,1,642.277,187.372Zm-1.919-3.077a1.073,1.073,0,0,0-.068-.395.707.707,0,0,0-.2-.29.942.942,0,0,0-.341-.178,1.99,1.99,0,0,0-.551-.062h-.751v1.9h.83a1.418,1.418,0,0,0,.514-.076.873.873,0,0,0,.319-.209.849.849,0,0,0,.189-.31A1.119,1.119,0,0,0,640.358,184.3Zm.378,3.128a1.142,1.142,0,0,0-.085-.454.839.839,0,0,0-.248-.336,1.131,1.131,0,0,0-.418-.209,2.431,2.431,0,0,0-.66-.074h-.881v2.078h1.074a1.809,1.809,0,0,0,.521-.065,1.044,1.044,0,0,0,.367-.192.873.873,0,0,0,.243-.316A1.022,1.022,0,0,0,640.736,187.423Z"/><path class="cls-11" d="M588.817,160.637a1.261,1.261,0,0,1-.059.438c-.039.1-.093.149-.16.149h-.651v1.321a.15.15,0,0,1-.033.1.25.25,0,0,1-.119.071,1.148,1.148,0,0,1-.22.042c-.091.009-.207.014-.349.014s-.249,0-.342-.014a1.1,1.1,0,0,1-.22-.042.227.227,0,0,1-.113-.071.16.16,0,0,1-.031-.1v-1.321h-2.794a.443.443,0,0,1-.142-.02.186.186,0,0,1-.1-.09.567.567,0,0,1-.062-.2,2.373,2.373,0,0,1-.02-.353c0-.12,0-.225.008-.313a2.193,2.193,0,0,1,.029-.24,1.082,1.082,0,0,1,.056-.2,2.077,2.077,0,0,1,.093-.2l2.27-4a.225.225,0,0,1,.095-.087.669.669,0,0,1,.19-.062,2.1,2.1,0,0,1,.307-.037c.124-.008.275-.011.452-.011s.356,0,.491.013a1.922,1.922,0,0,1,.325.046.475.475,0,0,1,.178.076.131.131,0,0,1,.055.107v4.4h.651c.059,0,.111.046.154.138A1.177,1.177,0,0,1,588.817,160.637Zm-2.3-3.957h-.012l-1.924,3.359h1.936Z"/><path class="cls-11" d="M594.564,160.778a2.178,2.178,0,0,1-.172.886,1.732,1.732,0,0,1-.508.658,2.308,2.308,0,0,1-.833.407,4.84,4.84,0,0,1-2.236.014,2.232,2.232,0,0,1-.784-.364,1.506,1.506,0,0,1-.474-.593,1.951,1.951,0,0,1-.159-.81,1.811,1.811,0,0,1,.094-.585,1.718,1.718,0,0,1,.276-.507,2.444,2.444,0,0,1,.458-.441,4.5,4.5,0,0,1,.629-.392,3.587,3.587,0,0,1-.519-.342,2.238,2.238,0,0,1-.4-.4,1.62,1.62,0,0,1-.249-.477,1.848,1.848,0,0,1-.084-.564,1.984,1.984,0,0,1,.156-.8,1.677,1.677,0,0,1,.463-.62,2.11,2.11,0,0,1,.77-.4,4.184,4.184,0,0,1,2.108-.012,1.911,1.911,0,0,1,.708.367,1.44,1.44,0,0,1,.411.568,1.949,1.949,0,0,1,.132.731,1.562,1.562,0,0,1-.087.516,1.932,1.932,0,0,1-.247.477,2.3,2.3,0,0,1-.388.426,3.136,3.136,0,0,1-.526.365,4.449,4.449,0,0,1,.616.384,2.481,2.481,0,0,1,.457.437,1.827,1.827,0,0,1,.285.5A1.63,1.63,0,0,1,594.564,160.778Zm-1.468.1a1,1,0,0,0-.071-.381,1.012,1.012,0,0,0-.22-.325,2.08,2.08,0,0,0-.375-.293,5.971,5.971,0,0,0-.526-.288,4.687,4.687,0,0,0-.457.282,1.8,1.8,0,0,0-.327.3,1.121,1.121,0,0,0-.194.328,1.047,1.047,0,0,0-.065.37.811.811,0,0,0,.285.671,1.321,1.321,0,0,0,.849.232,1.235,1.235,0,0,0,.827-.237A.819.819,0,0,0,593.1,160.88Zm-.169-3.647a1.037,1.037,0,0,0-.057-.355.658.658,0,0,0-.178-.269.789.789,0,0,0-.3-.166,1.378,1.378,0,0,0-.42-.056,1,1,0,0,0-.7.217.783.783,0,0,0-.233.6.9.9,0,0,0,.06.333.916.916,0,0,0,.183.288,1.725,1.725,0,0,0,.322.265c.132.087.289.179.468.277a2.292,2.292,0,0,0,.635-.519A.953.953,0,0,0,592.927,157.233Z"/><path class="cls-11" d="M603.015,162.545a.178.178,0,0,1-.029.105.2.2,0,0,1-.1.07.668.668,0,0,1-.184.04c-.077.007-.172.011-.285.011s-.219,0-.293-.011a.7.7,0,0,1-.184-.04.216.216,0,0,1-.1-.07.166.166,0,0,1-.032-.105v-.559a3.221,3.221,0,0,1-.816.65,2.138,2.138,0,0,1-1.918.008,1.864,1.864,0,0,1-.65-.6,2.616,2.616,0,0,1-.364-.883,4.83,4.83,0,0,1-.113-1.065,4.62,4.62,0,0,1,.145-1.208,2.7,2.7,0,0,1,.42-.914,1.868,1.868,0,0,1,.689-.582,2.117,2.117,0,0,1,.947-.2,1.684,1.684,0,0,1,.768.172,2.714,2.714,0,0,1,.684.506v-2.727a.166.166,0,0,1,.031-.1.23.23,0,0,1,.113-.076.943.943,0,0,1,.217-.048,2.92,2.92,0,0,1,.344-.017,2.95,2.95,0,0,1,.345.017.889.889,0,0,1,.214.048.242.242,0,0,1,.112.076.158.158,0,0,1,.035.1Zm-1.411-3.364a3.168,3.168,0,0,0-.584-.587.977.977,0,0,0-.584-.2.814.814,0,0,0-.478.138.994.994,0,0,0-.321.369,1.963,1.963,0,0,0-.182.517,2.9,2.9,0,0,0-.059.584,3.667,3.667,0,0,0,.051.616,1.937,1.937,0,0,0,.166.533,1,1,0,0,0,.309.375.787.787,0,0,0,.484.141.964.964,0,0,0,.285-.042,1.073,1.073,0,0,0,.284-.138,1.989,1.989,0,0,0,.3-.251c.1-.1.211-.231.333-.381Z"/><path class="cls-11" d="M609.816,160.547a2.165,2.165,0,0,1-.107.705,1.843,1.843,0,0,1-.3.559,1.878,1.878,0,0,1-.452.418,2.579,2.579,0,0,1-.578.288,3.553,3.553,0,0,1-.674.166,5.276,5.276,0,0,1-.8.054h-1.942a.461.461,0,0,1-.314-.11.454.454,0,0,1-.127-.359V155.9a.455.455,0,0,1,.127-.359.466.466,0,0,1,.314-.11H606.8a4.907,4.907,0,0,1,1.136.113,2.229,2.229,0,0,1,.786.342,1.5,1.5,0,0,1,.488.579,1.871,1.871,0,0,1,.17.824,1.791,1.791,0,0,1-.069.5,1.448,1.448,0,0,1-.516.765,1.623,1.623,0,0,1-.432.237,1.954,1.954,0,0,1,.573.2,1.6,1.6,0,0,1,.457.364,1.716,1.716,0,0,1,.308.522A1.9,1.9,0,0,1,609.816,160.547ZM607.9,157.47a1.1,1.1,0,0,0-.067-.4.71.71,0,0,0-.2-.29.925.925,0,0,0-.342-.178,1.943,1.943,0,0,0-.551-.063h-.75v1.9h.829a1.418,1.418,0,0,0,.514-.076.877.877,0,0,0,.319-.209.866.866,0,0,0,.19-.31A1.144,1.144,0,0,0,607.9,157.47Zm.378,3.128a1.15,1.15,0,0,0-.084-.455.873.873,0,0,0-.248-.336,1.138,1.138,0,0,0-.418-.208,2.444,2.444,0,0,0-.661-.074h-.88V161.6h1.073a1.765,1.765,0,0,0,.521-.065,1.026,1.026,0,0,0,.367-.191.873.873,0,0,0,.243-.316A1.022,1.022,0,0,0,608.275,160.6Z"/><circle class="cls-7" cx="628.667" cy="64.342" r="9.688"/><path d="M631.626,67.854a.163.163,0,0,1-.038.105.267.267,0,0,1-.126.077,1.236,1.236,0,0,1-.234.046,3.132,3.132,0,0,1-.37.018,3.27,3.27,0,0,1-.378-.018,1.173,1.173,0,0,1-.234-.046.261.261,0,0,1-.123-.077.163.163,0,0,1-.038-.105V64.789h-2.836v3.065a.172.172,0,0,1-.035.105.251.251,0,0,1-.123.077,1.232,1.232,0,0,1-.235.046,3.166,3.166,0,0,1-.375.018,3.205,3.205,0,0,1-.372-.018,1.241,1.241,0,0,1-.237-.046.262.262,0,0,1-.126-.077.163.163,0,0,1-.038-.105v-7.16a.168.168,0,0,1,.038-.106.269.269,0,0,1,.126-.076,1.313,1.313,0,0,1,.237-.047,3.233,3.233,0,0,1,.372-.017,3.2,3.2,0,0,1,.375.017,1.3,1.3,0,0,1,.235.047.257.257,0,0,1,.123.076.177.177,0,0,1,.035.106v2.783h2.836V60.694a.168.168,0,0,1,.038-.106.268.268,0,0,1,.123-.076,1.238,1.238,0,0,1,.234-.047,3.3,3.3,0,0,1,.378-.017,3.161,3.161,0,0,1,.37.017,1.31,1.31,0,0,1,.234.047.274.274,0,0,1,.126.076.168.168,0,0,1,.038.106Z"/><circle class="cls-7" cx="93.688" cy="63.687" r="9.688"/><path d="M96.143,66.764a2.45,2.45,0,0,1-.015.3.884.884,0,0,1-.044.2.258.258,0,0,1-.073.114.16.16,0,0,1-.1.036H92.434a.483.483,0,0,1-.326-.115.471.471,0,0,1-.131-.372V60.037a.158.158,0,0,1,.038-.1.261.261,0,0,1,.126-.076,1.2,1.2,0,0,1,.237-.047,3.884,3.884,0,0,1,.747,0,1.194,1.194,0,0,1,.234.047.261.261,0,0,1,.126.076.158.158,0,0,1,.038.1v6.1h2.385a.175.175,0,0,1,.1.032.245.245,0,0,1,.073.106.779.779,0,0,1,.044.193A2.45,2.45,0,0,1,96.143,66.764Z"/><path class="cls-11" d="M659.178,219.844a1.827,1.827,0,0,1-.017.268.62.62,0,0,1-.048.175.248.248,0,0,1-.07.093.154.154,0,0,1-.091.029h-4.03a.143.143,0,0,1-.085-.029.229.229,0,0,1-.07-.093.62.62,0,0,1-.048-.175,1.685,1.685,0,0,1-.018-.268,2.083,2.083,0,0,1,.015-.274.605.605,0,0,1,.045-.178.249.249,0,0,1,.071-.1.137.137,0,0,1,.09-.031h1.36V214.51l-1.175.649a.886.886,0,0,1-.211.076.137.137,0,0,1-.129-.034.289.289,0,0,1-.066-.166,2.6,2.6,0,0,1-.016-.333c0-.091,0-.165.005-.224a.48.48,0,0,1,.029-.149.254.254,0,0,1,.062-.1.781.781,0,0,1,.107-.085l1.569-1.016a.243.243,0,0,1,.07-.036.612.612,0,0,1,.111-.023c.046-.006.1-.009.177-.011s.169,0,.286,0c.143,0,.258,0,.346.008a1,1,0,0,1,.2.029.156.156,0,0,1,.09.053.144.144,0,0,1,.024.085v6.035h1.19a.149.149,0,0,1,.093.031.243.243,0,0,1,.074.1.638.638,0,0,1,.045.178A2.1,2.1,0,0,1,659.178,219.844Z"/><path class="cls-11" d="M665.105,219.805a2.466,2.466,0,0,1-.013.279.888.888,0,0,1-.043.189.219.219,0,0,1-.073.1.179.179,0,0,1-.1.032h-4.2a.9.9,0,0,1-.215-.023.278.278,0,0,1-.147-.087.436.436,0,0,1-.082-.19,1.736,1.736,0,0,1-.025-.322,2.4,2.4,0,0,1,.018-.318.823.823,0,0,1,.061-.237,1.158,1.158,0,0,1,.116-.2,2.055,2.055,0,0,1,.184-.217l1.264-1.355a6.539,6.539,0,0,0,.609-.72,4.117,4.117,0,0,0,.361-.592,2.143,2.143,0,0,0,.178-.494,2.01,2.01,0,0,0,.049-.429,1.035,1.035,0,0,0-.06-.353.839.839,0,0,0-.174-.291.827.827,0,0,0-.291-.195,1.106,1.106,0,0,0-.413-.07,1.9,1.9,0,0,0-.589.084,2.833,2.833,0,0,0-.452.19,3.528,3.528,0,0,0-.324.192.418.418,0,0,1-.2.087.121.121,0,0,1-.087-.034.23.23,0,0,1-.059-.113,1.245,1.245,0,0,1-.037-.211c-.009-.089-.014-.2-.014-.325,0-.086,0-.159.009-.217a.872.872,0,0,1,.025-.153.38.38,0,0,1,.045-.112.536.536,0,0,1,.1-.116,1.242,1.242,0,0,1,.259-.172,3.19,3.19,0,0,1,.466-.2,4.367,4.367,0,0,1,.61-.166,3.411,3.411,0,0,1,.694-.068,3.124,3.124,0,0,1,1,.144,2,2,0,0,1,.708.4,1.617,1.617,0,0,1,.421.609,2.073,2.073,0,0,1,.138.76,3.635,3.635,0,0,1-.068.7,2.674,2.674,0,0,1-.283.742,5.893,5.893,0,0,1-.6.881,13.739,13.739,0,0,1-1.033,1.12l-.851.875h2.879a.176.176,0,0,1,.1.034.257.257,0,0,1,.082.1.588.588,0,0,1,.051.186A1.816,1.816,0,0,1,665.105,219.805Z"/><path class="cls-11" d="M673.669,220.217a.182.182,0,0,1-.028.1.2.2,0,0,1-.1.07.6.6,0,0,1-.184.04c-.077.008-.172.011-.285.011a2.91,2.91,0,0,1-.293-.011.609.609,0,0,1-.183-.04.225.225,0,0,1-.1-.07.169.169,0,0,1-.031-.1v-.559a3.22,3.22,0,0,1-.817.649,2.138,2.138,0,0,1-1.918.008,1.864,1.864,0,0,1-.65-.6,2.587,2.587,0,0,1-.363-.883,4.829,4.829,0,0,1-.114-1.065,4.625,4.625,0,0,1,.145-1.208,2.723,2.723,0,0,1,.42-.914,1.856,1.856,0,0,1,.689-.581,2.106,2.106,0,0,1,.948-.2,1.68,1.68,0,0,1,.767.173,2.691,2.691,0,0,1,.684.5V212.81a.172.172,0,0,1,.031-.1.233.233,0,0,1,.113-.076.992.992,0,0,1,.217-.049,2.95,2.95,0,0,1,.344-.016,2.987,2.987,0,0,1,.346.016.924.924,0,0,1,.213.049.243.243,0,0,1,.113.076.162.162,0,0,1,.034.1Zm-1.411-3.365a3.168,3.168,0,0,0-.584-.587.983.983,0,0,0-.584-.2.821.821,0,0,0-.478.138,1,1,0,0,0-.321.37,1.943,1.943,0,0,0-.182.516,2.909,2.909,0,0,0-.058.585,3.545,3.545,0,0,0,.051.615,1.91,1.91,0,0,0,.166.534,1.019,1.019,0,0,0,.308.375.794.794,0,0,0,.485.141.973.973,0,0,0,.285-.042,1.057,1.057,0,0,0,.283-.139,1.884,1.884,0,0,0,.3-.251q.151-.155.333-.381Z"/><path class="cls-11" d="M680.471,218.218a2.149,2.149,0,0,1-.108.706,1.854,1.854,0,0,1-.3.559,1.9,1.9,0,0,1-.452.417,2.579,2.579,0,0,1-.578.288,3.535,3.535,0,0,1-.674.167,5.408,5.408,0,0,1-.8.054h-1.942a.464.464,0,0,1-.313-.11.455.455,0,0,1-.127-.359v-6.368a.453.453,0,0,1,.127-.358.464.464,0,0,1,.313-.11h1.835a4.868,4.868,0,0,1,1.137.113,2.249,2.249,0,0,1,.785.341,1.517,1.517,0,0,1,.488.579,1.871,1.871,0,0,1,.17.824,1.8,1.8,0,0,1-.068.5,1.511,1.511,0,0,1-.2.426,1.439,1.439,0,0,1-.319.338,1.592,1.592,0,0,1-.431.238,1.934,1.934,0,0,1,.573.2,1.632,1.632,0,0,1,.457.364,1.706,1.706,0,0,1,.307.523A1.87,1.87,0,0,1,680.471,218.218Zm-1.919-3.077a1.1,1.1,0,0,0-.068-.395.716.716,0,0,0-.2-.29.955.955,0,0,0-.342-.178,1.978,1.978,0,0,0-.55-.062h-.75v1.9h.829a1.431,1.431,0,0,0,.513-.076.9.9,0,0,0,.32-.209.867.867,0,0,0,.189-.311A1.145,1.145,0,0,0,678.552,215.141Zm.378,3.128a1.159,1.159,0,0,0-.084-.454.878.878,0,0,0-.248-.336,1.163,1.163,0,0,0-.418-.209,2.454,2.454,0,0,0-.661-.073h-.88v2.077h1.072a1.8,1.8,0,0,0,.521-.065,1.057,1.057,0,0,0,.368-.192.9.9,0,0,0,.243-.316A1.038,1.038,0,0,0,678.93,218.269Z"/></svg>