<svg id="Layer_1" data-name="Layer 1" xmlns="http://www.w3.org/2000/svg" width="623" height="236.954" viewBox="0 0 623 236.954"><defs><style>.cls-1{fill:#999;}</style></defs><path d="M590.73,57.759c-.16-.49-.31-1-.46-1.47-.11,1.15-.31,2.28-.39,3.44-.46-1.09-.91-2.17-1.34-3.26-.33.85-.67,1.7-1,2.55-.41-2.64-.67-5.28-1.06-7.93q-.289,4.59-.71,9.15c-1-3-1-6.08-1.15-9.14-.22,3.47-.48,6.94-.87,10.39-1-5.75-.17-11.6-1.2-17.36-.42,5.78-.17,11.59-.47,17.38-.51-3.35-.74-6.71-1.25-10.05-.45,2.4-.77,4.81-1,7.24-.33-4.62-.6-9.24-1.16-13.85-.28,4.73-.32,9.46-.49,14.19-.56-4.42-.29-9-1.63-13.28-.4,3.95-.37,7.93-.5,11.9-1.9-5.76-.84-11.8-1.38-17.67-.25,6,0,12.08-.55,18.12-2-7.93,0-16.07-1.55-24-.61,8.09.05,16.2-.46,24.3-1.15-8-1-16-1.38-23.93-.38,8.09.08,16.19-.32,24.28-1.72-7.9-1.25-16-1.79-23.93-.46,7.09.18,14.21-.64,21.29-1.65-7.26-.4-14.67-1.13-22-.24,7.86-.45,15.72-.83,23.57-1-8-1-15.94-1.35-23.92-.39,8.66.05,17.32-.26,26-2.07-10.08-.73-20.33-1.39-30.49-.85,9.7-.53,19.41-.83,29.12-.1-1.37-.31-4.11-.42-5.49-.24.78-.47,1.55-.69,2.33-.17-8.77.26-17.54-.3-26.31-.47,10.87.17,21.74-.35,32.61-.84-10.29-1.13-20.6-1.43-30.91-1.46,7.56.3,15.31-1.26,22.88-.9-7.13-.35-14.31-.86-21.46-.39,8,.1,16-.4,23.94-.22-5.45-.3-10.93-1.77-16.27-.16,3.91-.19,7.82-.29,11.73-.67-5.29-1.27-10.6-1.47-15.92-.12,3.35-.17,6.71-.28,10.06a28.233,28.233,0,0,1-1-2.73c-.1,1.14-.29,2.26-.35,3.41-.14-1-.45-2.08-.52-3.08-.11,3.69-.18,7.38-.39,11.07-.25-6.12-.13-12.23-.22-18.35-.26.77-.51,1.53-.74,2.3L549,34.1c-.23,4.16-.47,8.31-.87,12.47-.06-2.58-.06-5.15-.07-7.72-.33.18-.65.37-1,.56-.07-.63-.2-1.89-.26-2.52-.19,1.73-.38,3.46-.55,5.19-.62-2.86-.91-5.77-1.25-8.66-.33,2.75-.56,5.51-.78,8.28-.28-2.67-.5-5.33-1-8-.34,3.22-.57,6.46-.75,9.7-.15-4.15-.21-8.3-.36-12.46-.18,2-.34,3.92-.5,5.88-.06-1-.29-2.06-.28-3.06-.22.54-.44,1.09-.65,1.64-1.15-8.05-.86-16.16-1.26-24.24-.28,8.21,0,16.43-.84,24.62-.15-3.69-.26-7.39-.46-11.08-.14,4.51-.15,9-.48,13.53-.66-4.84-.56-9.72-.81-14.57-.46,9,.35,18.07-.91,27.06-.08-2.86-.09-5.73-.1-8.58-.29.39-.58.78-.86,1.18-.1-.57-.31-1.7-.41-2.27v10.64c-.21-.48-.65-1.43-.86-1.91v4.68c-.29-.4-.59-.8-.87-1.2-.06.5-.11,1-.15,1.52-.13-.35-.26-.7-.37-1-.83.79-1.61,1.61-2.51,2.34a53.116,53.116,0,0,1-.81-5.71c-.74,2.63-1.09,5.31-1.61,8-.16-3.11-.27-6.21-.34-9.32a52.557,52.557,0,0,1-1.22,7c-.63-2.18-1.13-4.38-1.59-6.58-.2,2.73-.35,5.47-.71,8.2-.14-2.26-.27-4.51-.41-6.77l-1.27-1c-.23,1.66-.43,3.32-.63,5-.11-1.93-.21-3.86-.32-5.8-.15,1.38-.46,4.15-.61,5.53-.55-3.45-.58-6.94-1.12-10.4-.22,3.93-.25,7.86-.43,11.79-2.56-5.39-1.03-11.2-1.72-16.77-.2,4.05-.21,8.09-.39,12.14-.19-2.66-.32-5.31-.5-8-.12,3.34-.21,6.68-.35,10-.14-3-.33-6-.45-9-.36,1.7-.67,3.4-1,5.11-.17-4.14-.41-8.27-.79-12.4-.13,3.72-.26,7.45-.64,11.16-.81-6.36-.17-12.78-.69-19.15-.21,5.2-.11,10.4-.41,15.6-.18-2.88-.23-5.77-.35-8.65-.24,2-.51,4-.77,6-.81-7.78,0-15.59-.57-23.38a92.69,92.69,0,0,0-.8,11.76c-.3-1.15-.59-2.3-.89-3.44-.19,2.43-.37,4.85-.55,7.28-.38-3.46-.59-6.92-.81-10.39l-.51,5.93c-.19-6.3-.08-12.6-.07-18.89H506c-.12,12.2.33,24.4-.23,36.6-.32-6.53-.67-13.07-.6-19.6,0-5,.15-10.06-.71-15-.24,3.43-.42,6.86-.83,10.29-.18-1.48-.35-3-.52-4.44-1.11,11.09.15,22.24-1.11,33.32-.24-3.24-.36-6.48-.49-9.72-.17,1-.48,2-.58,3.08-.13-2.3-.23-4.6-.34-6.89-.11,6.49-1.31,12.92-1.77,19.39-.05-1-.14-2-.15-3h-1.15c-.28,1.24-.52,2.5-.8,3.74-.22-3.44-.33-6.9-.88-10.32-.23,3.21-.33,6.44-.81,9.64-.47-2.52-.74-5.06-1-7.59-.13,2.31-.26,4.62-.41,6.94a35.426,35.426,0,0,1-1.36-4.06c-.21,1.17-.56,2.3-.74,3.48a55.362,55.362,0,0,1-1-8.79,96.21,96.21,0,0,1-.77,10.44c-.92-3.32-.69-6.76-1-10.13a46.4,46.4,0,0,0-.61,8.24c-.48-.9-.92-1.79-1.39-2.68-.15.7-.45,2.07-.59,2.76-.31-2.76-.55-5.53-.81-8.29-.22,2.88-.4,5.76-.7,8.63-.4-2.53-.76-5.06-1.1-7.59-.57,3.2-.88,6.42-1.27,9.63-.14-3.44-.28-6.87-.73-10.28-.33,2.43-.27,5-1.33,7.3q-.251-3-.45-6c-.29,2.07-.56,4.15-.9,6.22a67.913,67.913,0,0,1-.85-7.25c-.34,1.74-.68,3.47-1.07,5.2-.32-1.73-.53-3.47-.76-5.2-.13,2.19-.26,4.37-.4,6.56a61.3,61.3,0,0,1-1.28-9.69c-.21,2.51-.36,5-.67,7.53-.37-1.23-.7-2.45-1.08-3.66-.28,1.11-.62,2.22-.87,3.34-.29-1.92-.57-3.85-.86-5.78-.13,1-.24,2-.36,3.07-.52-1.15-1.05-2.31-1.53-3.46-1.21,2.4-.81,5-1.06,7.56-.3-1.24-.59-2.48-.9-3.71-.17,1.47-.32,2.94-.47,4.42a107.819,107.819,0,0,1-.81-11.76c-.26,2.75-.46,5.51-.85,8.26-.1-1-.29-3-.38-4.06-.23.76-.44,1.53-.64,2.3-.12-2.52-.25-5-.42-7.54-.51,3.67-.57,7.38-.73,11.07-.24-2.29-.44-4.59-.72-6.88-.4,1.12-.74,2.26-1.12,3.38a45.469,45.469,0,0,1-.74-6.36h-.62q-.15,3.7-.32,7.43a98.034,98.034,0,0,0-.85-10.69c-.37,4.49-.63,9-.89,13.48-.78-5.76-.54-11.56-.84-17.34a88.886,88.886,0,0,1-.86,11.16c-1.06-4.95-.66-10-1.37-15-.2,6.13-.05,12.25-.37,18.38-.2-5-.38-9.94-.84-14.9a57.782,57.782,0,0,1-1.26,8.71c-.2-2.19-.36-4.37-.53-6.56-.14,3.23-.24,6.46-.41,9.69-.19-2.88-.27-5.77-.44-8.65-.14,3.81-.22,7.62-.4,11.43-.32-8.61-.75-17.22-.64-25.84h-.45c0,7.58.24,15.16-.24,22.72-.52-3.21-.64-6.45-.84-9.68-.19,2-.36,3.93-.54,5.9-1.28-3.61-1-7.4-1.18-11.11-.11,3-.31,6-.42,9-.18-2-.36-3.92-.52-5.87-.12,4.85-.15,9.69-.37,14.54-.19-3.69-.24-7.4-.8-11.08-.26,3.35-.34,6.7-.52,10-.15-5.45-.15-10.92-1.21-16.32-1.67,4.15-1.09,8.56-1.4,12.85-.17-3.56-.26-7.12-.58-10.67l-.54,1.38-.83-.51q-.06,3.69-.15,7.38c-.27-2.19-.5-4.39-.82-6.58q-.27,3.63-.51,7.26c-.23-2.09-.45-4.18-.69-6.27-.38,2.89-.46,5.8-.67,8.69-.14-2.18-.25-4.37-.37-6.55-.59,4.39-.18,9.12-2.89,13.12-.48-1.39-.85-2.81-1.36-4.19-.19,2.45-.38,4.89-.56,7.35a85.648,85.648,0,0,0-.88-9.31c-.1,1.71-.19,3.41-.27,5.13l-1.21-1.19q-.12,3-.25,6.06c-.17-3.46-.23-6.92-.41-10.38-.15,2.19-.26,4.38-.39,6.57-.15-1-.41-2.09-.5-3.09-.14,1.37-.27,2.75-.4,4.12a37.443,37.443,0,0,1-1.35-9.68c-.27,3.23-.5,6.47-.76,9.7-.19-.92-.37-1.84-.54-2.75-.09,1-.29,2-.34,3.05-.31-2.57-.45-5.15-.89-7.7-.35.81-.69,1.63-1,2.45-.84-5.25-.86-10.55-1.58-15.8q-.27,2.91-.53,5.83a120.85,120.85,0,0,1-.57-15.1h-.39a92.018,92.018,0,0,1-.65,14.07c-.27-2.89-.35-5.8-.54-8.69-.12,3.92-.16,7.85-.33,11.77-.79-6.81-.51-13.64-1-20.46-.71,4.37-.55,8.79-.81,13.18-.17-5.42-.14-10.86-.35-16.28-.44,5.07-.72,10.15-.92,15.22-.44-8.2.05-16.41-.4-24.6-.19,2.07-.35,4.14-.52,6.22-.15-2.77-.25-5.54-.4-8.31-.74,8.55-.45,17.12-.85,25.67-.35-5.42-.61-10.85-.84-16.27q-.24,5.36-.45,10.72c-.17-3.12-.27-6.24-.42-9.35-.22,3-.37,6-.79,9a40.161,40.161,0,0,1-1.13-6.23c-.13,8,.1,15.94-.18,23.91-.21-1.38-.41-2.76-.6-4.13-.23,3.8-.45,7.59-.73,11.39-.29-1-.57-2-.85-3-.57,1.42-1.2,2.83-1.8,4.25-.29,1.15-.63,2.29-.9,3.45l-.87-2.22c-.3,2.14-.57,4.3-.89,6.45-.13-2.52-.25-5-.38-7.56-.36,2.4-.63,4.81-.92,7.21-.14-1.93-.26-3.86-.39-5.79-.36,1.58-.68,3.18-1,4.77q-.12-3.6-.23-7.22c-.32,1.72-.58,3.44-.91,5.16-.18-1.6-.32-3.21-.47-4.81-.27,1.61-.53,3.22-.81,4.83l-.6-5.55c-.44,3-.59,6-.85,9-.09-4.51-.11-9-.47-13.55-.39,2.77-.57,5.56-.79,8.34-.2-3.23-.28-6.48-.7-9.7-.19,3-.41,6-.55,9-.16-4.18-.24-8.36-.59-12.53-.8,4.26-.47,8.59-.73,12.88a101.816,101.816,0,0,0-.85-10.74c-.2,2.88-.33,5.77-.47,8.66-.27-3.93-.51-7.85-.85-11.77-.16,2.06-.29,4.13-.44,6.2-.34-2-.63-4.09-.92-6.14-.17,1.6-.34,3.19-.5,4.79-.37-1.83-.58-3.68-.83-5.52-.12,2.88-.21,5.76-.37,8.63-.57-3.91-.65-7.85-.88-11.78-.12,3.94-.19,7.88-.49,11.82a94.124,94.124,0,0,1-.54-13.74h-.36c0,3.53-.13,7.06-.34,10.6a69.761,69.761,0,0,1-.74-7.48h-.23c-.06,2.94-.14,5.89-.26,8.84q-.63-4-.91-8c-.16,2.54-.31,5.09-.5,7.63-.6-4.14-.57-8.33-.81-12.5-.15,3.35-.24,6.71-.41,10.06-.31-3.34-.55-6.68-.79-10-.22,2.53-.54,5.07-.87,7.6-.17-1-.39-2.1-.55-3.1-.23,2.75-.38,5.51-.72,8.26l-.6-7.25c-.08,5.21.09,10.44-.73,15.61-.36-5.66-.19-11.34-.53-17-.33,6.82.2,13.67-.72,20.47-.6-7.63,0-15.27-.57-22.9-.25,7.17-.15,14.35-.92,21.5-.34-8.09.19-16.19-.4-24.27-.33,7.51.15,15.06-.87,22.55-.22-6.13-.05-12.27-.38-18.39-.54,5.77-.61,11.56-.91,17.34-.32-7.28.05-14.57-.41-21.85-.34,8-.44,16-.9,23.93-.28-6.82,0-13.65-.41-20.47-.56,4.38-.66,8.79-.91,13.18-.19-6.24,0-12.49-.35-18.72a223.491,223.491,0,0,0-.63,22.71H366c-.07-7.46.42-15-.5-22.38q-.35,3.63-.66,7.27c-.11-4.06-.15-8.11-.45-12.16-1.44,9,.11,18.08-.78,27.09-.3-7.28-.45-14.57-.89-21.85-.26,6.59,0,13.18-.4,19.77-.28-5.77,0-11.58-.87-17.32-.21,5.3-.17,10.61-.42,15.92-1.25-9.45-.22-19-.88-28.43-.48,8.9.1,17.81-.41,26.71-1.19-9.34-.27-18.74-.89-28.1-.59,11.79.24,23.6-.47,35.39-.24-15-.41-30.08-.86-45.11-.78,13.06.78,26.18-.81,39.2-.47-7.4,0-14.81-.48-22.2-.26,6.12-.1,12.25-.35,18.37-1.14-5.73-.51-11.56-.94-17.32-.43,7.73.27,15.51-.85,23.22-.62-14.56.28-29.14-.48-43.7-.45,9.18.15,18.37-.34,27.55-.43,7.35,0,14.72-.48,22.07-.6-14.69.23-29.39-.44-44.07-.44,13.65-.5,27.3-.89,40.95-.5-11.34.18-22.68-.38-34-.74,9-.5,18-.9,27.06-.25-6-.1-12-.46-18-.87,6.1-.58,12.24-.6,18.36-.26-.53-.51-1-.76-1.58-.35,2.84-.57,5.69-.76,8.55-1.61-2.81-1.59-5.94-1.74-9-.27,1.82-.49,3.65-.83,5.47-.18-1.13-.4-2.29-.56-3.42-.31,2.65-.57,5.3-.85,8-.36-2.51-.58-5-.71-7.56-.07.43-.2,1.29-.26,1.72l-.85-.46c-.29,2-.66,4-1.08,6-.5-4.63-1.25-9.23-1.87-13.85-.51,3.93-.59,7.95-2,11.76-.37-1.85-.69-3.69-1.05-5.53-.55,2.4-.9,4.83-1.31,7.25-.45-3.9-.53-7.83-.7-11.74-.19,1.15-.4,2.27-.57,3.43-.11-4.72.06-9.47-.83-14.15-.14,3.9-.15,7.8-.21,11.71-.35-1-.68-2-1-3.06-.12,2-.23,3.91-.35,5.86-.13-.61-.4-1.83-.53-2.44-.34.8-.66,1.6-1,2.41-.08-2.29-.2-4.59-.28-6.88-.17,2.42-.33,4.83-.49,7.25-.14-3.11-.25-6.23-.41-9.34-.18,1.61-.33,3.21-.49,4.82-.11-2.52-.2-5-.3-7.57-.31,2.63-.54,5.26-.85,7.89-.35-2.16-.69-4.32-1.07-6.47-.1,3.44-.17,6.89-.32,10.33-.17-3.7-.25-7.4-.39-11.09-.16,1-.39,2-.52,3.08-.25-2.18-.49-4.37-.8-6.56a61.894,61.894,0,0,1-1.44,10.74c-1.05-3-1-6.2-1.14-9.32-.15.94-.44,2.82-.58,3.76-.29-8.31.2-16.64-.38-24.95-.4,8.09.09,16.19-.35,24.28-.21-1.61-.4-3.23-.59-4.83-.13,5.6-.08,11.2-.06,16.8h-.47c0-7.58.16-15.15-.13-22.72-.35,4.27-.65,8.55-1,12.82-.38-5.2-.6-10.4-.88-15.6-.23,6.07-.16,12.14-.13,18.21h-.42c0-4.11-.07-8.21-.31-12.31-.26,9.48-.05,19-.74,28.44-.14-.6-.44-1.78-.58-2.38-.41,2.3-.79,4.59-1.18,6.88-.29-2-.57-3.9-.89-5.86q-.5,2.58-.93,5.16c-.44-2.51-.88-5-1.34-7.52-.16,2.06-.32,4.12-.51,6.19-.43-2-.74-3.92-1.14-5.88-.2,2.19-.37,4.37-.57,6.56-.34-1.74-.6-3.49-.88-5.22-.37,1.49-.71,3-1.14,4.48-.38-2.16-.65-4.32-.94-6.47-.22,2.51-.41,5-.72,7.54-.25-2.58-.46-5.15-.74-7.73-.39,2.32-.58,4.65-.95,7-.39-1.74-.69-3.49-1.16-5.21-.2,1-.61,3.16-.81,4.22-.38-2.52-.62-5-.82-7.58-.35,3.34-.63,6.68-.95,10-.74-4.35-.5-8.75-1.15-13.11-.24,3.57-.42,7.14-.86,10.7-.24-2.13-.47-4.25-.73-6.37-.25,2.11-.41,4.22-.59,6.33-.34-1.84-.6-3.69-1-5.53-.39,1.73-.68,3.46-1,5.2-.45-3.1-.47-6.24-.73-9.36-.39,3.35-.64,6.71-1.08,10.06-.38-3.57-.71-7.15-1-10.72-.23,2.3-.48,4.61-.79,6.92-.4-1.47-.74-3-1-4.43-.35,1.82-.83,3.63-1.26,5.45-.1-1-.3-2.85-.41-3.8-.25,1.4-.49,2.79-.73,4.19a77.881,77.881,0,0,1-1-11.79c-.32,3.67-.62,7.35-.86,11-.34-3-.66-6-1-9-.64,3.19-.81,6.43-1.25,9.64a139.281,139.281,0,0,0-1.29-15.51c-.1,4.16-.17,8.32-.44,12.48-.79-3.78-.59-7.651-.87-11.46-.15,4-.17,8.059-.29,12.1-.53-3.449-.89-6.919-1.39-10.37-.38,2.52-.64,5-.89,7.58-.16-4.129-.44-8.269-.89-12.39-.16,5.41-.14,10.82-.29,16.231a97.077,97.077,0,0,0-1.44-10c-.54,3.67-.64,7.37-.84,11.06-.2-6.24-.45-12.48-.88-18.71-.21,6-.11,12-.31,18-1.28-7.691,0-15.52-1.9-23.151-.1,4.831-.11,9.67-.36,14.5-.29-6.93-.5-13.869-.85-20.8-.27,5.89-.16,11.779-.4,17.67-.78-6.22-1.18-12.47-1.37-18.72-.18,4.84-.1,9.73-1.32,14.5-.33-7.73.12-15.46-.43-23.18-.44,8.669.18,17.349-.4,26-.4-5.19-.42-10.42-1.26-15.59-.21,4.529-.22,9.07-.63,13.6-1.78-8.86-.32-17.88-1.17-26.8-.51,8.42.44,16.88-.84,25.27-.13-1.94-.26-3.89-.4-5.83-.14,1.38-.28,2.75-.41,4.12-.12-.94-.37-2.81-.5-3.75-.16,1.14-.33,2.27-.47,3.42-.14-2.07-.28-4.15-.43-6.21-.13,4.38-.17,8.77-.33,13.16-.25-3.811-.48-7.62-.94-11.42-.15,4.16-.18,8.31-.27,12.46q-.6-1.17-1.17-2.34c0,1.45,0,2.91-.05,4.37l-.8-1.92c-.1,2.16-.19,4.32-.31,6.49-.14-4.28-.2-8.56-.43-12.83-.3,6.26.19,12.55-.74,18.78-.28-.51-.84-1.54-1.13-2,0,.67-.13,2-.17,2.66-.3-2.07-.56-4.13-.91-6.19-.2,1.72-.34,3.43-.5,5.15-.24-1.36-.48-2.71-.71-4.07-.22.54-.45,1.07-.67,1.61-.23-2.73-.38-5.47-.78-8.19-.21,2.07-.42,4.14-.66,6.21-.34-2.31-.49-4.64-.72-7-.08,3.23-.19,6.45-.31,9.67l-.48-7.24c-.16,1.49-.31,3-.47,4.48-.07-1-.16-2-.21-3-.51,1.14-1,2.29-1.56,3.41-.13-3.83-.19-7.66-.34-11.49-.49,3.81-.74,7.63-.91,11.45a81.293,81.293,0,0,1-.68-10.33l-.68,1.92a83.454,83.454,0,0,0-.74-8.92c-.25,3.92-.29,7.84-.41,11.76-.36-3-.68-5.95-1-8.92-.1,2.51-.22,5-.34,7.54-.14-3-.34-6-.47-9-.16,3.12-.3,6.23-.48,9.35-.15-4.51-.17-9-.4-13.52-.06,1.54-.1,3.08-.13,4.62l-.95-.6q-.111,3-.25,6c-.16-3.47-.23-6.93-.41-10.4-.16,3.82-.24,7.63-.43,11.44-.15-3.81-.21-7.61-.41-11.42-.1,2.94-.2,5.88-.25,8.83h-.32c-.08-2.94-.17-5.88-.31-8.83-.12,3.24-.29,6.46-.42,9.69-.11-2.94-.21-5.88-.25-8.83h-.32c-.08,2.94-.18,5.88-.32,8.83-.15-3.23-.22-6.46-.32-9.69a63.986,63.986,0,0,1-1.28,8c-.26-3.59-.41-7.17-.56-10.76-.14,3.7-.25,7.39-.43,11.09-.17-3.24-.26-6.47-.45-9.7-.15,3.23-.21,6.47-.35,9.7-.15-.9-.29-1.79-.43-2.69-.1.4-.19.8-.28,1.21l-1.77.19c0,2.39-.07,4.78-.12,7.18-.36-1.82-.7-3.63-1-5.45-.13,1.93-.27,3.87-.4,5.8-.14-3.34-.19-6.68-.33-10a143.749,143.749,0,0,0-.85,15.3c-.21-2.56-.42-5.11-.68-7.65-.32,2.19-.52,4.39-.77,6.59a128.6,128.6,0,0,0-.82-14.55c-.14,5-.13,10-.4,14.92-.21-5.55-.12-11.1-.43-16.64-1.3,6.42-.27,13-.78,19.42-.22-1.49-.43-3-.64-4.49q-.45,4.14-.75,8.28c-.16-5.31-.31-10.63-.83-15.94-.19,2.08-.36,4.15-.54,6.23-.26-7.51.14-15-.38-22.53-.2,8.92-.3,17.85-.89,26.77-.58-1.35-1-2.73-1.49-4.11.06,1.82.13,3.65.19,5.48l-1.35-.52c-.19,1.2-.37,2.4-.57,3.59l-.73-2c-.33,1.47-.59,2.94-.82,4.42-.25-2.41-.47-4.81-.78-7.22-.12,1.38-.35,4.13-.47,5.51-.23-3.33-.44-6.67-.89-10-.15,2.75-.26,5.5-.41,8.26-.16-2.67-.27-5.33-.45-8-1,2.49-1.8,5-2.65,7.52-.32-.48-.63-1-.94-1.45l-.18,1.47c-.43-1.82-.85-3.64-1.33-5.45-.21,1.16-.4,2.3-.59,3.46-.11-1.6-.19-3.21-.28-4.81l-.4,2.36c-.42-1.26-.82-2.52-1.26-3.77-.14,1-.44,2.85-.58,3.8-.13-1-.37-2.85-.49-3.8-.33,1.83-.55,3.67-.81,5.51-.26-1.49-.52-3-.81-4.45-.14,1.38-.41,4.14-.55,5.52-.11-2.3-.18-4.59-.27-6.88-.43,3.56-1,7.12-1.4,10.68-.24-2.41-.44-4.82-.8-7.22-.2,2.18-.34,4.35-.5,6.54-.25-2.78-.44-5.55-.81-8.31-.2,2.65-.34,5.31-.52,8-.15-3.58-.26-7.17-.64-10.75q-.35,3.63-.65,7.28a99.543,99.543,0,0,0-.86-10.42c-.16,3.67-.23,7.34-.36,11q-.581-5.68-1-11.39c-.13,4.73-.16,9.46-.38,14.18-.75-5.52-.59-11.08-.92-16.63-.21,4.56-.16,9.13-.15,13.69h-.85c0-4.69,0-9.37-.28-14-.26,5.76.12,11.56-.86,17.29-.23-6-.07-12-.45-18-.24,5.77-.07,11.56-.39,17.34-.87-7.38-.46-14.8-.87-22.2-.27,7.4-.28,14.81-.94,22.19-.18-5.78,0-11.56-.4-17.34-.2,4.45-.17,8.91-.16,13.36h-.88c0-6.42.15-12.84-.25-19.26-.24,6.14,0,12.29-.5,18.43a92.79,92.79,0,0,1-.78-10.78c-.13,3.83-.24,7.66-.69,11.47-.61-7-.33-14-.33-21h-.49c0,5.83.11,11.67-.19,17.51-1.1-6.79-.41-13.65-.88-20.46-.26,5.67-.14,11.36-.94,17-.35-8,.14-16-.4-23.94-.26,8-.33,16-.9,23.93-.18-5.67-.07-11.34-.37-17-.52,4.73-.66,9.48-.91,14.23-.16-5-.16-9.93-.31-14.89q-.559,5.52-1,11c-.19-5.84-.16-11.67-.12-17.5h-.47c0,5.47.36,11-.73,16.42-.29-6.92.05-13.84-.32-20.76-.67,5.3-.7,10.63-.95,16-.22-6.13-.07-12.26-.38-18.39-.72,8.95-.69,17.93-.62,26.89h-.48c-.2-8.36.67-16.77-.67-25.1-.45,8.89.16,17.78-.44,26.66-.17-5.09-.05-10.2-.77-15.27-.49,7.16-.06,14.35-.5,21.52-.53-10.06.15-20.13-.41-30.19-1.35,8.75-.17,17.59-.9,26.37-.19-5.55,0-11.13-.73-16.66-.75,8.9.07,17.83-.59,26.73-.64-12.66.49-25.35-.6-38a65.091,65.091,0,0,0-.5,7.63c.12,11.57.06,23.14.09,34.7h-.48c-.08-9.32.45-18.65-.67-27.94-.2,5.43-.28,10.88-.88,16.3-.17-2.77-.26-5.54-.44-8.3-.59,6.56.87,13.34-1.25,19.78-.17-2.66-.29-5.33-.42-8l-.27,4.1c-.26-.54-.52-1.07-.79-1.61v3.33l-.84-1.22c-.14.69-.4,2.06-.54,2.75-.23-1-.43-2.08-.64-3.09-.4,1.12-.8,2.23-1.21,3.35l-2.19-.68c-.6,1-1.23,2-1.91,3.06l-1.34-4-.67-.12a22.484,22.484,0,0,0-3.81,3.86l-1.53.15a1.864,1.864,0,0,0,.1.39h1.86c.11.94.32,2.82.43,3.76a19.311,19.311,0,0,0,2.16-3.74c.61,1.2,1.24,2.39,1.9,3.56l1.12-2c.24,1.22.47,2.45.72,3.67l.72-1.57c.07.58.21,1.75.29,2.33.24-1.17.47-2.34.77-3.5.61-.67,1.16-1.41,1.7-2.11.41,1.32.73,2.75,2.14,3.63.1.46.31,1.39.41,1.86l.82-1.13c.06,2.16.12,4.32.2,6.47q.221-2.921.46-5.87c.13,1.37.25,2.74.38,4.11.15-.93.46-2.8.61-3.74.09,3.4.07,6.8.09,10.2h.39c0-4.1.06-8.2.26-12.3.81,8.8.28,17.64,1.09,26.44.75-5.79.27-11.62.66-17.42.33,6.24-.21,12.52.79,18.74.61-8-.06-16,.52-24,.52,9-.29,18.09.56,27.12,1.24-8.77-.09-17.63.76-26.42.5,13.87-.22,27.75.36,41.62,1.68-13.25-.08-26.61.92-39.89.82,12.23-.83,24.54.92,36.73.43-11.43-.27-22.88.39-34.3.44,9-.12,17.91.36,26.86.38,6.77.06,13.56.51,20.33.56-16.07-.31-32.16.44-48.23.41,8-.1,16.06.35,24.08.43,7.35,0,14.72.48,22.07.6-14.11-.26-28.23.46-42.33.86,14.57.33,29.15.84,43.72.56-13.53-.17-27.06.38-40.58,1.61,10.7,0,21.51,1,32.25.49-12.14-.21-24.3.36-36.43,1.32,15.59.17,31.23.9,46.84.62-14.7-.29-29.41.48-44.1,1.46,8.39,0,16.92.82,25.36.47-8.34-.13-16.68.46-25a33.518,33.518,0,0,1,.65,8.18c0,7-.24,14,.19,21,.6-9-.37-17.93.63-26.86.36,1.76.52,3.53.76,5.32.14-2.19.27-4.38.44-6.57.74,5.71.55,11.46.52,17.18h.43c-.09-9,.3-17.92.74-26.88.16,4.62.15,9.24.41,13.86a106.459,106.459,0,0,1,.69-12.47c.5,6.7.09,13.42.57,20.13.27-6.36,0-12.72.38-19.07a94.906,94.906,0,0,0,.95,11c.13-4.49.14-9,.34-13.47.39,4.14.68,8.3.81,12.45.29-2.74.56-5.48,1-8.22q.22,2.91.43,5.82c.24-3.1.4-6.2.87-9.29.16,3.09.26,6.19.44,9.29.17-2.77.25-5.54.42-8.3.16,2.06.28,4.13.44,6.2.28-2.63.55-5.26.77-7.89.31,1.82.6,3.65.93,5.47.15-2,.28-3.92.43-5.87l.39,2.7c.29-1.6.56-3.19.87-4.79.2,3.59.31,7.17.52,10.76a104.548,104.548,0,0,0,.86-10.75c.13,2.54.24,5.07.37,7.61.23-2.59.46-5.18.76-7.75.45,4,.41,7.93.5,11.9.27-3.57.53-7.14.92-10.7q.21,3.609.41,7.24c.29-2,.53-3.9.89-5.84.17,3.1.28,6.21.43,9.31.22-2.77.44-5.54.79-8.3.22,2.65.41,5.31.63,8a57.888,57.888,0,0,0,.77-8.3c.25,2,.51,3.9.84,5.84.18-2.76.29-5.52.43-8.28.3,2.06.51,4.14.9,6.2.21-2.88.27-5.76.42-8.63a91.637,91.637,0,0,0,.86,9.34c.25-3.46.29-6.93.44-10.39.25,4.39.54,8.78.93,13.16.15-3.35.22-6.7.39-10,.45,3.93.71,7.86.9,11.79a123.087,123.087,0,0,1,.7-12.44c.23,2.52.41,5,.6,7.57a83.186,83.186,0,0,1,.87-10.68c.11,2.75.24,5.5.33,8.24q.33-3.69.74-7.37c.26,1.64.43,3.29.64,4.94.3-1,.59-2,.9-3,.11,1.36.21,2.73.32,4.1.15-.6.46-1.79.6-2.38.58,1.82,1.13,3.65,1.7,5.48.38-2.75.63-5.51.83-8.26.13,1.48.24,3,.36,4.46.26-2.18.48-4.36.8-6.53.19,1.95.39,3.9.57,5.86.35-2.4.64-4.81.91-7.21.22,5.42.61,10.84,1.14,16.25s.23,10.87.57,16.3a129.23,129.23,0,0,1,2.07-23.94c.18,1.15.33,2.27.51,3.43.14-1.83.29-3.67.45-5.5.17,4.39.39,8.77.84,13.14.17-4.73.19-9.46.36-14.19,1.48,7,1.62,14.08,1.81,21.15a73.432,73.432,0,0,1,1.17-12.46c.18,2.41.33,4.81.47,7.23.23-2.76.48-5.51.86-8.26.25,4.26.31,8.53.49,12.79.51-4.72.73-9.46.95-14.2.14,5.08.14,10.17.37,15.25.21-2.94.35-5.88.66-8.8.3,2.11.44,4.22.67,6.34.33-1.82.62-3.65.94-5.47.08,5.31.05,10.62.36,15.92.3-6.71,0-13.43.39-20.14a62.674,62.674,0,0,1,1.33,7.55c.13-.57.4-1.69.53-2.26.09,1,.27,3.06.35,4.08.17-3.23.34-6.46.65-9.68.23,1.83.43,3.66.64,5.5.12-1.38.36-4.13.49-5.5.13,2.88.21,5.76.34,8.64.31-4.28.79-8.54,1.37-12.8.45,3.1.7,6.22,1.15,9.32a42.7,42.7,0,0,0,1.41-8.95l.87,4.37c.25-2.39.42-4.78.79-7.16.19,2.06.35,4.13.54,6.2.14-2.66.24-5.31.4-8,.15,2.07.29,4.15.45,6.23.36-1.36.67-2.72,1-4.08.34,3.66.55,7.34.81,11,.13-4.4.12-8.8.62-13.18.14,1.39.43,4.15.57,5.53a63.047,63.047,0,0,1,2.24-7.24c.43,1.47.85,2.95,1.27,4.43.28-1.35.55-2.7.86-4,.34,1.22.63,2.43.93,3.67,0-.47.12-1.4.15-1.86l1.23,1c.27-1.07.54-2.15.83-3.21.43,2.75.58,5.51.83,8.27.14-2.77.26-5.53.44-8.29.15,4.61.13,9.22.34,13.84.46-2.88.78-5.77,1.29-8.64.83,5.4.64,10.86.89,16.29a133.734,133.734,0,0,1,.88-13.86c1.18,8.4.32,16.87.78,25.29,1.21-7.47.41-15,1-22.52.31,5.37.46,10.75,1.13,16.1.35-2.81.39-5.63.54-8.441.13.59.4,1.77.53,2.361.17-1,.27-2.07.46-3,.14,1.6.26,3.19.39,4.8.18-2.67.35-5.33.58-8,.58,5.08.48,10.19.68,15.29.17-3.69.28-7.39.43-11.08.35,3.57.74,7.15,1.37,10.69a173.219,173.219,0,0,1,1.33-21.11c.16,6.13,0,12.26.35,18.38.3-3.84-.32-7.9,1.69-11.5.18,2.44.35,4.879.49,7.32.63-4.831.65-9.7.9-14.551.15,4.4.17,8.79.29,13.18.18-.91.37-1.82.54-2.72.14.93.4,2.8.53,3.74.19-7.16-.07-14.33.3-21.48a145.974,145.974,0,0,0,1.3,15.6c.27-4,.25-8.08.38-12.11.26,3.21.46,6.43,1,9.62.45-4.949.63-9.91.88-14.86.56,4.731.65,9.49.92,14.23.38-2.76.6-5.54.88-8.3.55,4.48.81,9,1.26,13.48.26-7-.18-14.11.81-21.12.25,5.89.14,11.78.44,17.67.11-3.1.18-6.19.24-9.29l.76,1.9c.12-1.57.22-3.15.35-4.72.33,1.93.6,3.86.89,5.8.17-2.64.34-5.28.64-7.91q.31,3.64.6,7.27c.57-3.68,1-7.37,1.33-11.07.14,4.38.3,8.77.8,13.13.35-4.14.64-8.29.92-12.44.23,3.35.37,6.72.86,10,.28-4,.53-8.09.88-12.13.19,3.79.26,7.59.81,11.37.24-2.3.48-4.6.8-6.89a36.685,36.685,0,0,1,1,4.82c.22-2,.42-3.9.76-5.84.35,2.3.63,4.6.91,6.9.26-2.16.53-4.33.87-6.48.2,1.59.41,3.18.64,4.78.55-2.41.93-4.84,1.28-7.27.22,2.07.4,4.14.59,6.21.54-1.1,1-2.22,1.55-3.33.14,1.14.27,2.24.45,3.39.43-2.55.88-5.1,1.22-7.66.07,3.37.18,6.74.4,10.11a66.88,66.88,0,0,0,1.4-7c.31,1,.6,2,.92,3,.28-2,.46-4.11.68-6.17.26,2.65.52,5.3.84,7.94.25-2.19.48-4.38.78-6.57.29,1.37.56,2.75.85,4.12.32-.9.65-1.81,1-2.71.38,1.23.69,2.47,1,3.71.43-2.14.82-4.28,1.21-6.42.19,1.61.37,3.22.57,4.84a52.821,52.821,0,0,0,1.18-5.54c.18,2,.37,4.1.63,6.15.38-1.24.7-2.48,1-3.72.3,1.48.58,3,1,4.43.35-1.71.56-3.43.83-5.14.45,3.54,1,7.07,1.62,10.6.47,5.4.23,10.82.23,16.24h.42c0-4.1.07-8.2.29-12.3.17,3.92.23,7.86.47,11.78a126.274,126.274,0,0,1,.7-14.55c.45,5.06.72,10.13.85,15.21.32-2.51.59-5,1-7.52.19,4.84.1,9.7.86,14.52.22-7.18.43-14.34.84-21.51.21,5.31.17,10.62.38,15.93.13-3,.33-6,.45-9,.1,1.39.32,4.15.43,5.53.17-.91.34-1.82.52-2.73.21,2.36.43,4.7.72,7.06a61.722,61.722,0,0,0,1-6.71c.16,1.14.26,2.25.42,3.41.12-2.07.22-4.14.33-6.2q.27,3.621.55,7.24c.14-4,.16-8.08.35-12.12.09,1.08.13,2.14.21,3.23l.87-.6a77.132,77.132,0,0,0,.57,10.18c.25-3.82.37-7.65.68-11.47.53,3,.54,6,.79,9,.13-5.2.3-10.41.83-15.59.36,1.7.63,3.41.94,5.12,0-.67.06-2,.09-2.67.15.28.46.84.62,1.11.58-1.42,1.15-2.85,1.72-4.27,1,4.58.69,9.25.94,13.88.4-2.06.65-4.14,1-6.2.12,2.18.22,4.36.36,6.55.68-5.67.52-11.39,1.64-17,.64,2.53,1,5.1,1.44,7.65.86-2.52,1.42-5.09,2.08-7.64.23,3.7.4,7.41.84,11.1a115.474,115.474,0,0,0,1.86-15.25,88.279,88.279,0,0,1,.93,8.871l1-.07c.28-1.59.56-3.18,1-4.75,1.52,4.39.71,9,1.49,13.45.39,2.6.8,5.19,1,7.81.1-4.16.17-8.31.4-12.45.2,5.89.27,11.79.87,17.67.33-7-.1-14.11.46-21.15.86,4.47.52,9,.83,13.52.41-2.52.63-5.06.95-7.59.16,7-.1,14.09.36,21.14.4-8-.1-16,.35-23.93.68,9,.53,18,.94,27.05.5-11.9-.18-23.82.35-35.72,1.2,12.47.25,25,1,37.45.5-12.71-.23-25.45.38-38.16.43,9,.52,18,.9,27.06.42-7-.32-14.14.78-21.15.73,11.78-.21,23.59.54,35.38.66-10.06-.63-20.16.75-30.19.56,8.38.16,16.77.26,25.15H360c-.22-11.52.21-23,.68-34.53.39,13.59.05,27.19.15,40.78h.42c.24-11.39.4-22.79.73-34.18.47,9.71-.16,19.43.38,29.14,1.65-14.3-.1-28.69.92-43,.53,13.76-.25,27.53.41,41.29,1.21-12.24.17-24.52.86-36.77.58,11.79-.24,23.59.46,35.38.75-3.38.6-6.82.65-10.23q-.09-11.28-.06-22.56h.4a94.851,94.851,0,0,0,.58,15.07c.46-6.58.15-13.18.55-19.76.58,10.77-.35,21.55.55,32.31,1.12-9.47,0-19,.72-28.49.25,5.78.19,11.58.92,17.34.2-6,.07-12,.38-18,.29,5.77.53,11.55.88,17.32.29-6.47.1-12.95.39-19.42.34,2.88.61,5.77.92,8.65.13-3,.25-6,.41-9,.38,4.38.65,8.77.92,13.16.15-3.35.21-6.7.36-10,.24,3.9.48,7.82.91,11.72.13-1.94.25-3.87.38-5.81l.68,5.55c.49-4,.48-8.1.67-12.16a104.243,104.243,0,0,0,.78,10.68c.19-2.18.3-4.36.43-6.54.27,1.59.54,3.19.84,4.79.36-.78.71-1.56,1.07-2.33.18,2.39.33,4.79.61,7.19.07-.88.22-2.62.3-3.49l.83.41c.15-.43.31-.87.47-1.3.11,2,.2,4.08.32,6.13.35-2.76.62-5.54.91-8.31.24,1.34.44,2.68.63,4l.9-1.15c.24,1.68.36,3.37.55,5.06.23-.93.46-1.86.7-2.79.29,1,.47,2,.78,3.11,0-1.71.05-3.42.08-5.12l.74,1.62c.32-2.27.53-4.56.8-6.83.16,1.72.29,3.42.47,5.14.41-2.16.61-4.34.86-6.51.11,2.41.23,4.83.37,7.24q.45-5.88.81-11.77c.28,1.72.52,3.44.82,5.16.24-1.5.49-3,.73-4.5.38,2.41.49,4.85.72,7.28.11-2.53.21-5.06.33-7.58.42,2.75.73,5.51,1,8.27.12-2.76.16-5.52.29-8.27.36,2.51.68,5,1,7.56.1-3.57.17-7.13.33-10.7q.58,4.309,1,8.64c.11-3.12.2-6.23.33-9.34.26,2.3.48,4.6.81,6.9.2-2.54.37-5.07.55-7.6.28,2.87.56,5.74.93,8.6.12-2.75.2-5.5.34-8.25.3,2.75.56,5.5.91,8.25.13-2.52.25-5,.39-7.55.32,2.52.57,5,.87,7.57q.251-2.751.55-5.49c.32,2,.51,4.1.74,6.16.23-.93.61-1.8.89-2.71,0,.94.17,2.83.23,3.78.27-.54.54-1.08.83-1.62,0,1-.08,2.89-.1,3.85l1-.57c.05,1,.11,1.91.18,2.87.24-1.53.45-3.07.72-4.6.2,1.5.31,3,.42,4.52.27-.4.55-.79.83-1.18q-.161,11.22.67,22.43c.22-5.89.1-11.78.45-17.67.34,6.93,0,13.87.35,20.8.54-7.85.56-15.72,1-23.57.36,13.12,0,26.25.14,39.38h.42c0-10.06.68-20.11.45-30.18H412c.12,10.46-.3,20.94.24,31.4.28-10.29.15-20.59.88-30.88.38,11.16.06,22.32.15,33.49h.47c0-5.83-.09-11.68.18-17.51.2,1.61.34,3.21.52,4.82.2-2.87.35-5.75.64-8.62.31,2.4.6,4.82.93,7.24q.31-2.76.6-5.49c.17,4.66.16,9.34.14,14h.42c-.06-7.81.29-15.61.71-23.41.17,4.85.18,9.71.4,14.57,1.27-8.65.21-17.36.88-26,.42,8.85.1,17.7.18,26.54h.46c-.14-10.47.27-20.93.7-31.4.41,8.44-.15,16.89.42,25.33.25-10.87.19-21.74.82-32.6.23,4.72.25,9.45.38,14.18.4-4.15.7-8.3.95-12.45.17,2.66.33,5.32.56,8a72.94,72.94,0,0,0,.61-9.34l.52,2c.22-.78.45-1.56.67-2.33.3,2.52.47,5,.71,7.57.33-2.76.59-5.53.88-8.29.13,2.29.2,4.59.33,6.89.25-2.4.45-4.81.8-7.21.08.56.24,1.68.33,2.25q.559-1,1.17-1.92c.1,2.64.18,5.29.3,7.93a76.962,76.962,0,0,0,1.84-10.71c.24,2.42.47,4.85.79,7.27.47-.92.76-1.91,1.29-2.79a38.376,38.376,0,0,1,.91,6.56c.12-.94.35-2.82.47-3.76.1,1.49.16,3,.25,4.47.17-.54.34-1.09.51-1.62.33,1,.67,2,1,3,.06-1.58.09-3.17.15-4.75a15.18,15.18,0,0,0,2.25,4.85,32.184,32.184,0,0,0,1.07-3.47q.33,2.7.76,5.38.221-2.91.43-5.8c.16,3.57.26,7.15.44,10.72.32-3.1.58-6.22.83-9.33.16,1.39.47,4.15.63,5.54.37-2.31.56-4.63.83-6.94.52,4.49.53,9,.79,13.5.15-4.51.16-9,.35-13.52.12,1,.1,2,.25,3l.88-1.19c.09,10.72-.36,21.46.25,32.17.59-12.3-.62-24.66,1.08-36.93a73.2,73.2,0,0,1,.43,8c-.12,13.3,0,26.61-.08,39.91h.47c.1-15.67-.27-31.34.17-47,.16,3,.35,6,.51,9,.15-3.24.25-6.47.46-9.7.36,8-.15,16,.42,23.93.22-4.61.15-9.22.24-13.83.23.77.47,1.54.73,2.32,0-3.56.1-7.12.25-10.68.11,3,.3,6,.48,9,1-2,1.1-4.13,1.46-6.22.07,8.83,0,17.66,0,26.5H454c0-6.94,0-13.88-.06-20.82,0-4,0-8,1.26-11.91.17,6.79-.06,13.59.24,20.39.34-6.13,1-12.24,1.44-18.37a89.273,89.273,0,0,1,.75,11.07c.18-3,.42-6,.7-9,.33,2.78.48,5.56.67,8.34a98.4,98.4,0,0,1,1.19-11.06c.27,3.45.4,6.91,1,10.34.24-4.38-.13-8.831,1.21-13.111.24,4.721.25,9.45.42,14.181.25-4.5.49-9,1-13.49.13,2.18.2,4.36.32,6.55.12-.94.35-2.82.47-3.75.14.58.41,1.75.55,2.34.15-1.72.27-3.441.43-5.15.49,4.61.59,9.239.79,13.86a82.271,82.271,0,0,1,1.15-13.551c.26,3.59.41,7.191.6,10.78.27-3.49.38-7,1.7-10.42.15,2,.31,3.941.46,5.91.17-2.08.34-4.15.55-6.23.4,3.11.55,6.23.8,9.34.1-3.69.18-7.39.33-11.08.19,1.15.3,2.28.51,3.44.18-1.13.28-2.29.48-3.41.1,4.72.11,9.45.3,14.17.32-6.35.75-12.7,1.36-19q.36,6.06.89,12.11a80.133,80.133,0,0,0,.79-8.3c.13.6.38,1.78.5,2.37.16-.9.31-1.81.46-2.71.16,1.15.22,2.27.39,3.43.2-1,.26-2.09.52-3.09.09,2.53.16,5.06.25,7.58a28.074,28.074,0,0,1,1.46-6.6c.69,2.621.54,5.31.69,8,.36-2.55.37-5.19,1.47-7.629.25.51.75,1.54,1,2.059v-4.72c.45,1.481.9,3,1.4,4.43.22-1,.64-3.129.85-4.17.33,2.89.41,5.78.59,8.681.19-3.59.21-7.21,1.22-10.731.19,2.65.33,5.3.48,8,.46-2.75,1-5.49,1.38-8.24q.27,3,.57,5.91a33.165,33.165,0,0,0,1.32-4.19c-.05.83-.09,1.65-.12,2.48l1-.6c.07.63.2,1.9.27,2.53.14-1.71.19-3.43.3-5.14.27,1.17.47,2.34.73,3.52a31.667,31.667,0,0,0,1.33-3.8c-.06,1.77-.11,3.54-.13,5.32.21-.33.42-.65.62-1l.78,1c0-1.67.05-3.33.1-5,.07.53.2,1.58.27,2.1l.91-.52c.06.94.13,1.89.2,2.84.14-1.82.28-3.65.41-5.47q.32,2.79.64,5.6a32.092,32.092,0,0,0,1.36-3.44,114.859,114.859,0,0,0,.92,16.57c.3-4.16.39-8.33.54-12.49a138,138,0,0,1,1.37,18.7c.16-4.21.19-8.43.19-12.64h.43c0,7.55-.06,15.11,0,22.67l.87-1.93c0,4.83,0,9.66.24,14.48,1-9.45.35-19,.81-28.43.46,5.08.74,10.15.89,15.24.18-2,.36-3.92.56-5.87.12,5.66,0,11.32.36,17,.26-6.93.47-13.87.78-20.8.18,1.36.36,2.73.55,4.1q.15-5.349.39-10.7c.92,8.71.57,17.45.6,26.19h.48c.23-8.5-.81-17.08,1-25.5q.3,4,.55,8c.23-3.7.43-7.4.91-11.08.17,5.78,0,11.56.38,17.34.24-6.13.07-12.26.43-18.38.17,2.88.24,5.77.39,8.66.31-2.51.64-5,1.07-7.52l.88,1.16a79.93,79.93,0,0,1,.75-10.24c.34,8.07-.19,16.16.4,24.23.43-9.24-.14-18.5.34-27.75.26,2.66.46,5.32.8,8,.23-1.39.47-2.77.71-4.15.37,2.41.5,4.83.75,7.25.12-2,.23-3.9.36-5.84.36,3,.63,6,.94,9a93.75,93.75,0,0,1,.77-13.49c.22,3.33.26,6.67.39,10,1.48-3.41,1.53-7,1.78-10.61.08.39.15.79.24,1.19.61.07,1.22.12,1.82.2v2.26c.56-1.74,1.13-3.48,1.83-5.19.38,1.25.69,2.51,1,3.78,0-.57.11-1.71.14-2.28.24.54.48,1.07.73,1.6.08-.58.25-1.75.34-2.34.09.9.2,1.8.3,2.71.11-.48.32-1.45.43-1.93.17.47.51,1.41.69,1.88.07-1.46.16-2.93.25-4.39.16,1.37.33,2.75.5,4.13.13-1.14.17-2.3.33-3.43a55.7,55.7,0,0,1,1.87,11.41c0-3,.25-6,.28-9,.29,4.73.8,9.46,1.42,14.18.13-3.13.27-6.25.52-9.37.88,5.87.38,11.81.67,17.71.28-3.11.56-6.23.92-9.33q.44,3.6.83,7.21c.28-2.54.52-5.06,1-7.58.24,5.37,0,10.77,1.08,16.09a69.94,69.94,0,0,0,.94-12.59c.15.94.44,2.81.59,3.75.17-1.6.3-3.21.48-4.8.14,5.48.1,11,.08,16.46h.47c0-7-.12-14,.14-21,.41,4.26,1,8.52,1.4,12.78.05-6.13.86-12.22,1.36-18.33.14,4.23.2,8.47.51,12.7.26-.37.53-.73.8-1.1.15.49.31,1,.48,1.48.06-2.75.16-5.49.26-8.23.13,3,.34,6,.49,9,.62-5,.64-9.93.84-14.9a106.3,106.3,0,0,0,.94,11.1c.83-5.18.49-10.41.81-15.61.12,2.77.29,5.53.42,8.3.07-3,.33-6,.44-9,.37,7.05,0,14.11.42,21.16.94-6.74.6-13.53.62-20.29h.43c0,6.32,0,12.67,1.14,18.93.27-5.43.19-10.87.84-16.29,1.11,5.79.26,11.67,1.14,17.48.95-8-.05-16.07.56-24.09.16,3,.34,6,.49,9,.18-2.19.32-4.38.5-6.57.13,5.55,0,11.1.4,16.64.82-5.27.43-10.61,1.25-15.88,1,7.58.36,15.22.88,22.83.4-7.75,0-15.5.39-23.24.19,1.6.3,3.2.47,4.81.15-2.41.29-4.82.46-7.22.48,7.25-.43,14.57.88,21.78.31-6.05-.09-12.13,1.12-18.13.53,5.59.27,11.2.59,16.79.22-5,.18-9.91.25-14.87.24.76.48,1.52.74,2.29q.131-2.9.33-5.79c.2,7.74.26,15.48.84,23.21.2-8.09,0-16.21,1.38-24.25.26,7.74-.13,15.49.37,23.22.28-8.44.81-16.87,1.3-25.31.5,7.28.51,14.57.88,21.85.34-6.75-.15-13.52.54-20.26,1.74,5.6.6,11.45,1.15,17.15.89-6.12.35-12.3,1.21-18.42.61,6.12.7,12.25.93,18.39.4-6,.5-12,1.22-18,.4,5.92.15,11.86.73,17.78,1-6.34.71-12.76,1.09-19.13.29,6.11.53,12.23.88,18.34.24-6.23.39-12.46.87-18.69.12,4.21.21,8.42.67,12.62.57-3.86.65-7.76,1.48-11.59.19,3.69.27,7.38.43,11.08.35-3.21.78-6.42,1.35-9.62.21,2.51.43,5,.72,7.54A68.638,68.638,0,0,1,585,63.949c.3,3,.48,6,1,8.93.11-2.86.15-5.72.25-8.57.47,1.82,1,3.62,1.45,5.44.25-2.26.53-4.52.8-6.79a58.238,58.238,0,0,0,1.36,9.26c.12-3,.2-6,.32-9,.17,1,.33,1.91.5,2.86Z"/><path class="cls-1" d="M572.11,164.357c-.891-10.835-1-21.669-1.184-32.447h-.339c-.071,11.019.134,22.045-.177,33.059-1.358-10.908-1.355-22.033-1.558-33.059h-.4c-.064,9.486.16,18.985-.467,28.443-1.221-9.391-.855-18.927-.877-28.443h-.426c-.179,10.4-.369,20.8-.657,31.188-.746-10.43-.935-20.8-1.129-31.188h-.376c-.067,11.6.132,23.2-.105,34.825-1.354-11.524-1.249-23.174-1.2-34.825h-.737c-.15,10.807-.092,21.618-.283,32.43-.1-2.4-.31-7.186-.42-9.6-.24,1.364-.47,2.71-.69,4.074-.1-8.968,0-17.937,0-26.9H560.6c.012,12.64.176,25.28-.17,37.92-.59-12.627-.9-25.271-1.144-37.92h-.909c.044,7.981.293,15.986-.637,23.88-.573-7.936-.559-15.908-.6-23.88h-.418c-.011,9.432.1,18.848-.238,28.216-.218-9.45-.3-18.952-1.738-28.216h-.036c-.155,6.76-.187,13.519-.286,20.279-.488-6.744-.936-13.5-1.222-20.279h-.371c-.048,3.346-.094,6.692-.157,10.033-.32-1.573-.79-3.217-1-4.773-.1,1.993-.29,3.951-.35,5.962-.14-1.748-.45-3.637-.52-5.385-.11,6.452-.18,12.9-.39,19.355-.2-8.4-.167-16.794-.188-25.192h-1.563c-.146,3.914-.313,7.828-.529,11.746-.052-3.925-.058-7.836-.066-11.746h-1.578c-.079,1.3-.163,2.6-.236,3.9-.16-1.293-.3-2.593-.42-3.9h-1.455c-.051,1.078-.106,2.153-.155,3.232-.065-1.078-.126-2.155-.189-3.232H542.7c-.082,2.067-.164,4.135-.23,6.2-.043-2.067-.07-4.136-.1-6.2h-5.719c-.055,6.345-.222,12.685-.728,19-.08-5-.09-10.018-.1-15-.29.682-.58,1.364-.86,2.063-.1-1-.31-2.972-.41-3.969v18.6c-.21-.839-.65-2.5-.86-3.339v8.182c-.29-.7-.59-1.4-.87-2.1-.06.874-.11,1.748-.15,2.658-.13-.612-.26-1.224-.37-1.749-.83,1.381-1.61,2.815-2.51,4.091q-.559-4.949-.81-9.983c-.74,4.6-1.09,9.284-1.61,13.987-.16-5.437-.27-10.857-.34-16.295-.248,4.123-.656,8.212-1.22,12.239-.63-3.811-1.13-7.658-1.59-11.5-.2,4.773-.35,9.563-.71,14.336-.14-3.951-.27-7.885-.41-11.836l-1.27-1.749c-.23,2.9-.43,5.805-.63,8.742-.11-3.374-.21-6.748-.32-10.14-.15,2.413-.46,7.256-.61,9.668-.55-6.032-.58-12.133-1.12-18.183-.22,6.871-.25,13.742-.43,20.614-2.474-9.108-1.134-18.9-1.664-28.339h-.078c-.175,6.752-.2,13.49-.368,20.244-.19-4.651-.32-9.284-.5-13.987-.12,5.839-.21,11.679-.35,17.483-.14-5.245-.33-10.49-.45-15.735-.36,2.972-.67,5.944-1,8.934q-.2-8.481-.583-16.939h-.3c-.11,4.929-.254,9.86-.542,14.771-.358-4.909-.429-9.838-.446-14.771h-.473c-.037,2.855-.087,5.71-.181,8.564-.1-2.851-.163-5.708-.218-8.564h-.613c-.1,1.31-.192,2.621-.289,3.931-.078-1.31-.129-2.62-.18-3.931H506c-.043,4.5-.109,9-.227,13.5q-.189-6.744-.358-13.5h-2.8c-.024,7.171-.145,14.336-.61,21.485-.24-5.665-.36-11.33-.49-16.994-.17,1.748-.48,3.5-.58,5.385-.107-3.3-.19-6.589-.279-9.876h-.106c-.227,10.611-1.294,21.14-1.725,31.73-.05-1.748-.14-3.5-.15-5.245h-1.15c-.28,2.168-.52,4.371-.8,6.539-.22-6.014-.33-12.064-.88-18.043-.23,5.612-.33,11.26-.81,16.854-.47-4.406-.74-8.846-1-13.27q-.195,6.059-.41,12.134-.8-3.474-1.36-7.1c-.21,2.046-.56,4.022-.74,6.085-.567-5.068-.9-10.207-1-15.368q-.1,9.156-.77,18.253c-.92-5.8-.69-11.819-1-17.711a140.884,140.884,0,0,0-.61,14.406c-.48-1.573-.92-3.129-1.39-4.685-.15,1.223-.45,3.619-.59,4.825-.31-4.825-.55-9.668-.81-14.494-.22,5.035-.4,10.071-.7,15.089q-.6-6.636-1.1-13.271c-.57,5.595-.88,11.225-1.27,16.837-.14-6.014-.28-12.011-.73-17.973-.33,4.248-.27,8.742-1.33,12.763q-.251-5.245-.45-10.49c-.29,3.619-.56,7.256-.9,10.875q-.62-6.294-.85-12.676c-.34,3.042-.68,6.067-1.07,9.092-.32-3.025-.53-6.067-.76-9.092-.13,3.829-.26,7.64-.4,11.469-.684-5.578-1.112-11.244-1.28-16.941-.21,4.388-.36,8.741-.67,13.165-.37-2.151-.7-4.284-1.08-6.4-.28,1.94-.62,3.881-.87,5.839-.29-3.357-.57-6.731-.86-10.105-.13,1.748-.24,3.5-.36,5.367-.52-2.01-1.05-4.038-1.53-6.049-1.21,4.2-.81,8.742-1.06,13.218-.3-2.168-.59-4.336-.9-6.487-.17,2.57-.32,5.14-.47,7.728q-.726-10.234-.81-20.561c-.26,4.808-.46,9.634-.85,14.442-.1-1.749-.29-5.246-.38-7.1-.23,1.329-.44,2.675-.64,4.021-.12-4.405-.25-8.741-.42-13.182-.51,6.416-.57,12.9-.73,19.354-.24-4-.44-8.025-.72-12.029-.4,1.959-.74,3.952-1.12,5.91-.4-3.672-.643-7.387-.74-11.12h-.62q-.15,6.47-.32,12.991-.132-9.38-.85-18.69c-.37,7.85-.63,15.735-.89,23.568-.63-8.131-.6-16.308-.718-24.475h-.238q-.2,6.859-.744,13.67c-.554-4.522-.709-9.091-.832-13.67h-.659c-.032,6.525-.054,13.049-.249,19.579-.15-6.566-.289-13.072-.544-19.579h-.675c-.223,2.939-.511,5.862-.881,8.757-.153-2.924-.282-5.838-.41-8.757h-.182c-.109,4.743-.2,9.486-.348,14.229-.179-4.737-.264-9.49-.415-14.229h-.042c-.128,6.363-.211,12.726-.383,19.09-.135-6.363-.284-12.726-.41-19.09h-.645c-.034,4.548-.11,9.094-.275,13.635-.419-4.523-.579-9.08-.729-13.635h-.285c-.123,2.346-.243,4.676-.366,7.026a51.757,51.757,0,0,1-.874-7.026h-.637c-.03,1.112-.066,2.225-.089,3.337-.058-1.126-.116-2.234-.173-3.337h-.431c-.067,6.165-.126,12.325-.286,18.5-.181-6.159-.248-12.348-.739-18.5h-.094c-.231,5.564-.316,11.125-.487,16.607-.087-5.534-.129-11.08-.352-16.607h-2.082c-.075,3.514-.032,7.05-.176,10.54-.1-3.514-.17-7.029-.271-10.54h-1.756c-.024,2.1-.044,4.206-.073,6.309-.148-2.1-.287-4.2-.433-6.309h-.6c-.1,2.5-.206,5-.3,7.5q-.236-3.749-.472-7.5h-.433c-.2,3.909-.293,7.829-.455,11.729-.14-3.811-.25-7.64-.37-11.452-.59,7.675-.18,15.945-2.89,22.939-.48-2.43-.85-4.913-1.36-7.326-.19,4.284-.38,8.55-.56,12.851q-.186-8.175-.88-16.278c-.1,2.99-.19,5.962-.27,8.969l-1.21-2.08q-.12,5.245-.25,10.6c-.17-6.049-.23-12.1-.41-18.148-.15,3.829-.26,7.658-.39,11.487-.15-1.749-.41-3.654-.5-5.4-.14,2.4-.27,4.808-.4,7.2a111.921,111.921,0,0,1-1.35-16.925c-.27,5.648-.5,11.312-.76,16.96-.19-1.609-.37-3.217-.54-4.809-.09,1.749-.29,3.5-.34,5.333-.31-4.493-.45-9-.89-13.462-.35,1.416-.69,2.849-1,4.283-.5-5.47-.71-10.972-.95-16.467h-3.593c-.018.873-.025,1.747-.047,2.62-.058-.873-.1-1.747-.146-2.62h-8.83c-.022,2.283-.038,4.566-.084,6.851-.2-2.289-.388-4.577-.569-6.851h-.044c-.225,6.52-.442,13.024-.717,19.544q-.435-2.622-.85-5.245c-.57,2.483-1.2,4.948-1.8,7.431-.29,2.01-.63,4-.9,6.032l-.87-3.882c-.3,3.742-.57,7.518-.89,11.277-.13-4.406-.25-8.742-.38-13.217-.36,4.2-.63,8.409-.92,12.605-.14-3.374-.26-6.748-.39-10.123-.36,2.763-.68,5.56-1,8.34q-.12-6.294-.23-12.623c-.32,3.007-.58,6.014-.91,9.021-.18-2.8-.32-5.612-.47-8.409-.27,2.814-.53,5.629-.81,8.444l-.6-9.7c-.44,5.245-.59,10.49-.85,15.735-.09-7.885-.11-15.735-.47-23.69-.39,4.843-.57,9.721-.79,14.581-.2-5.647-.28-11.329-.7-16.959-.19,5.245-.41,10.49-.55,15.735-.16-7.308-.24-14.616-.59-21.907-.8,7.448-.47,15.019-.73,22.519q-.141-9.422-.85-18.777c-.2,5.035-.33,10.088-.47,15.141-.27-6.872-.51-13.725-.85-20.579-.16,3.6-.29,7.221-.44,10.84-.34-3.5-.63-7.151-.92-10.735-.17,2.8-.34,5.577-.5,8.375-.37-3.2-.58-6.434-.83-9.651-.12,5.035-.21,10.07-.37,15.088-.421-5.05-.574-10.129-.719-15.208h-.25c-.084,5.093-.179,10.185-.4,15.278-.328-5.076-.5-10.174-.561-15.278h-.425q-.089,4.89-.254,9.788c-.285-3.246-.47-6.513-.605-9.788h-.411q-.083,6.077-.214,12.166c-.365-4.055-.626-8.111-.814-12.166h-.161c-.137,3.838-.271,7.685-.435,11.519-.317-3.821-.457-7.667-.555-11.519h-.49c-.053,2.419-.105,4.838-.175,7.253-.128-2.419-.24-4.837-.349-7.253h-1.092c-.074,1.019-.143,2.039-.219,3.057-.1-.985-.207-2.024-.315-3.057h-.341c-.176,4.025-.33,8.058-.614,12.079l-.572-12.079H376.1c-.068,8.912.076,17.853-.726,26.695-.323-8.887-.237-17.8-.458-26.695h-.132c-.184,10.923.182,21.879-.66,32.762-.491-10.915-.187-21.842-.369-32.762h-.314c-.13,10.114-.186,20.231-.807,30.314-.243-10.1-.047-20.213-.127-30.314h-.414c-.035,9.114-.022,18.236-.729,27.307-.187-9.1-.11-18.213-.279-27.307h-.311c-.342,8.482-.448,16.982-.7,25.471-.213-8.486-.124-16.98-.174-25.471h-.5c-.174,9.734-.321,19.451-.641,29.108-.228-9.7-.09-19.406-.25-29.108h-.54c-.244,5.451-.353,10.915-.53,16.362-.095-5.452-.095-10.908-.115-16.362h-.758q-.245,11.662-.107,23.338H366c-.042-7.759.11-15.568.05-23.338H363.8c.1,7.683.241,15.368-.192,23.024-.181-7.671-.313-15.348-.481-23.024h-.551c-.017,6.462-.034,12.925-.258,19.387-.179-6.451-.132-12.93-.3-19.387h-.732c-.059,5.644-.106,11.291-.258,16.939-.426-5.631-.578-11.283-.631-16.939h-.441c-.015,4.645-.066,9.289-.218,13.932-.338-4.637-.5-9.282-.578-13.932h-.488c.029,8.9.012,17.79-.294,26.678q-.122-13.318-.236-26.678h-.762c-.1,5.456-.292,10.905-.672,16.345-.2-5.447-.228-10.9-.233-16.345h-.464c-.023,3.217-.058,6.434-.133,9.648-.364-3.2-.538-6.421-.633-9.648h-.476c-.021,6.668-.13,13.331-.681,19.964-.162-6.653-.218-13.308-.229-19.964H353.1c-.112,10.1.068,20.22-.309,30.314-.236-10.1-.25-20.209-.222-30.314h-.795q-.128,12.429-.313,24.859c-.209-8.287-.21-16.574-.184-24.859h-.882c-.046,4.236-.107,8.477-.214,12.726-.1-4.242-.135-8.484-.165-12.726h-.922c-.007,4.453.035,8.907.027,13.355-.26-.927-.51-1.748-.76-2.762-.35,4.965-.57,9.948-.76,14.948-1.61-4.913-1.59-10.385-1.74-15.735-.27,3.182-.49,6.381-.83,9.563-.18-1.975-.4-4-.56-5.979-.31,4.633-.57,9.266-.85,13.987-.36-4.388-.58-8.742-.71-13.218-.07.752-.2,2.256-.26,3.007l-.85-.8c-.29,3.5-.66,6.994-1.08,10.49-.5-8.095-1.25-16.137-1.87-24.215-.51,6.872-.59,13.9-2,20.561-.37-3.234-.69-6.451-1.05-9.668-.55,4.2-.9,8.444-1.31,12.676-.45-6.819-.53-13.69-.7-20.526-.19,2.01-.4,3.968-.57,6-.052-3.887-.044-7.785-.112-11.677h-.874q-.026,3.7-.054,7.411c-.35-1.749-.68-3.5-1-5.351-.12,3.5-.23,6.837-.35,10.246-.13-1.067-.4-3.2-.53-4.266-.34,1.4-.66,2.8-1,4.214-.08-4-.2-8.026-.28-12.029-.17,4.231-.33,8.444-.49,12.675-.111-4.3-.208-8.6-.321-12.9h-.288q-.145,2.5-.291,5c-.042-1.672-.08-3.334-.118-5h-.69c-.109,1.852-.217,3.705-.342,5.557q-.258-2.78-.514-5.557h-.646c-.063,4.1-.128,8.208-.23,12.306-.108-4.1-.182-8.206-.256-12.306h-2.272c-.182,1.878-.383,3.75-.622,5.61a48.445,48.445,0,0,1-.748-5.61h-2.376c0,5.215.013,10.43.024,15.645h-.47c0-5.217.021-10.432.034-15.645h-2.183l.009,2.9h-.42c0-.967,0-1.933-.008-2.9h-.468c-.063,10.388-.142,20.772-.574,31.1-.14-1.049-.44-3.112-.58-4.161-.41,4.021-.79,8.025-1.18,12.029-.29-3.5-.57-6.819-.89-10.246q-.5,4.51-.93,9.022c-.44-4.389-.88-8.742-1.34-13.148-.16,3.6-.32,7.2-.51,10.822-.43-3.5-.74-6.853-1.14-10.28-.2,3.829-.37,7.64-.57,11.469-.34-3.042-.6-6.1-.88-9.126-.37,2.605-.71,5.245-1.14,7.833-.38-3.777-.65-7.553-.94-11.312-.22,4.388-.41,8.741-.72,13.182-.25-4.51-.46-9-.74-13.515-.39,4.057-.58,8.13-.95,12.239-.39-3.042-.69-6.1-1.16-9.109-.2,1.748-.61,5.525-.81,7.378-.38-4.406-.62-8.742-.82-13.253-.35,5.84-.63,11.68-.95,17.484-.74-7.6-.5-15.3-1.15-22.921-.24,6.242-.42,12.483-.86,18.708-.24-3.724-.47-7.431-.73-11.138-.25,3.69-.41,7.379-.59,11.068-.34-3.217-.6-6.452-1-9.669-.39,3.025-.68,6.05-1,9.092-.45-5.42-.47-10.91-.73-16.365-.39,5.857-.64,11.732-1.08,17.589-.38-6.242-.71-12.5-1-18.743-.23,4.021-.48,8.06-.79,12.1-.4-2.57-.74-5.245-1-7.746-.35,3.182-.83,6.347-1.26,9.529-.1-1.748-.3-4.983-.41-6.644-.25,2.448-.49,4.878-.73,7.326-.632-6.817-.966-13.708-1-20.613-.32,6.416-.62,12.85-.86,19.232-.34-5.245-.66-10.491-1-15.736-.64,5.578-.81,11.242-1.25,16.855q-.212-13.611-1.29-27.118c-.1,7.274-.17,14.547-.44,21.82-.79-6.609-.59-13.375-.87-20.036-.15,6.993-.17,14.092-.29,21.155-.53-6.032-.89-12.1-1.39-18.131-.38,4.406-.64,8.742-.89,13.253-.157-7.091-.432-14.2-.868-21.275h-.027c-.153,9.33-.137,18.659-.285,27.989q-.459-8.8-1.44-17.484c-.54,6.417-.64,12.886-.84,19.337-.183-9.952-.414-19.9-.778-29.842h-.142c-.144,9.534-.088,19.067-.27,28.6-.9-9.482-.536-19.085-.906-28.6h-1.11c-.047,4.494-.111,8.988-.244,13.477q-.162-6.735-.3-13.477h-.824c-.028,2.668-.066,5.337-.128,8q-.287-4-.506-8h-2.1c-.029.209-.05.418-.08.627,0-.209-.007-.418-.011-.627h-.657q-.058,2.78-.162,5.557c-.082-1.85-.146-3.7-.206-5.557h-1.6c-.03.693-.048,1.386-.084,2.078-.08-.692-.145-1.385-.213-2.078H258.9c-.035,2.662-.067,5.324-.122,7.987q-.15-3.994-.31-7.987h-.8c-.033,3.27-.061,6.538-.1,9.806q-.6-2.046-1.17-4.091c0,2.535,0,5.087-.05,7.64l-.8-3.357c-.1,3.777-.19,7.553-.31,11.347-.133-7.12-.2-14.24-.4-21.345h-.049c-.242,10.586.18,21.216-.719,31.748-.28-.892-.84-2.693-1.13-3.5,0,1.172-.13,3.5-.17,4.651-.3-3.619-.56-7.221-.91-10.823-.2,3.008-.34,6-.5,9-.24-2.377-.48-4.738-.71-7.115-.22.944-.45,1.87-.67,2.814-.23-4.773-.38-9.563-.78-14.319-.21,3.619-.42,7.239-.66,10.858-.34-4.039-.49-8.113-.72-12.239q-.12,8.471-.31,16.907l-.48-12.658c-.16,2.6-.31,5.245-.47,7.832-.07-1.748-.16-3.5-.21-5.245-.51,1.993-1,4-1.56,5.962-.13-6.7-.19-13.392-.34-20.089-.49,6.662-.74,13.34-.91,20.019-.446-5.989-.673-12.021-.68-18.06l-.68,3.356q-.077-4.561-.322-9.106h-.6c-.1,4.691-.149,9.381-.231,14.072-.325-4.732-.616-9.393-.905-14.072h-.133c-.092,3.874-.2,7.733-.3,11.659-.1-3.886-.234-7.773-.35-11.659H239.1c-.116,4.09-.229,8.176-.364,12.271-.078-4.1-.122-8.182-.177-12.271h-1.407c-.047,2.051-.091,4.1-.146,6.152-.054-2.053-.093-4.1-.134-6.152h-.526c-.053,2.657-.1,5.314-.18,7.97-.06-2.659-.1-5.314-.149-7.97h-.464c-.015,1.147-.036,2.293-.047,3.442h-.32c-.018-1.147-.04-2.3-.059-3.442h-.546q-.065,2.472-.125,4.945-.052-2.472-.1-4.945h-.676c-.038,1.648-.072,3.3-.117,4.945-.044-1.648-.072-3.3-.1-4.945h-1.257c-.078.664-.153,1.329-.238,1.991-.028-.665-.043-1.327-.068-1.991h-.861c-.022.856-.037,1.711-.061,2.567-.026-.856-.043-1.711-.066-2.567h-.682c-.018.856-.031,1.713-.052,2.567-.082-.859-.157-1.713-.235-2.567h-.582l-1.663.312c0,4.179-.07,8.357-.12,12.553-.36-3.182-.7-6.346-1-9.528-.13,3.374-.27,6.766-.4,10.14-.108-4.5-.171-8.994-.254-13.477h-.3q-.6,11.342-.63,22.744c-.21-4.476-.42-8.934-.68-13.375-.32,3.829-.52,7.675-.77,11.521q0-10.464-.562-20.89h-.316c-.083,7.222-.119,14.428-.342,21.537-.155-7.181-.148-14.363-.258-21.537h-.725c-.352,8.794.169,17.679-.227,26.4-.22-2.6-.43-5.245-.64-7.85q-.45,7.237-.75,14.476c-.16-9.284-.31-18.585-.83-27.869-.19,3.637-.36,7.256-.54,10.892-.106-5.352-.1-10.7-.1-16.047h-.582c-.124,7.822-.3,15.643-.592,23.461-.58-2.361-1-4.773-1.49-7.186.06,3.182.13,6.381.19,9.581l-1.35-.909c-.19,2.1-.37,4.2-.57,6.276l-.73-3.5c-.33,2.57-.59,5.14-.82,7.727-.25-4.213-.47-8.409-.78-12.623-.12,2.413-.35,7.221-.47,9.634-.23-5.822-.44-11.662-.89-17.484-.15,4.808-.26,9.616-.41,14.442-.16-4.669-.27-9.319-.45-13.987-1,4.353-1.8,8.741-2.65,13.147-.32-.839-.63-1.748-.94-2.535l-.18,2.57c-.43-3.182-.85-6.364-1.33-9.528-.21,2.028-.4,4.021-.59,6.049-.11-2.8-.19-5.612-.28-8.41l-.4,4.127c-.42-2.2-.82-4.406-1.26-6.592-.14,1.749-.44,4.983-.58,6.644-.13-1.748-.37-4.983-.49-6.644-.33,3.2-.55,6.417-.81,9.634-.26-2.6-.52-5.245-.81-7.781-.14,2.413-.41,7.239-.55,9.651-.11-4.021-.18-8.025-.27-12.028-.43,6.224-1,12.448-1.4,18.672-.24-4.213-.44-8.427-.8-12.623-.2,3.811-.34,7.6-.5,11.434-.25-4.86-.44-9.7-.81-14.529-.2,4.634-.34,9.284-.52,13.987-.15-6.259-.26-12.535-.64-18.8q-.35,6.346-.65,12.729-.156-9.143-.86-18.219c-.16,6.417-.23,12.834-.36,19.233q-.581-9.931-1-19.914c-.13,8.269-.16,16.539-.38,24.792-.75-9.651-.59-19.372-.92-29.076-.21,7.973-.16,15.963-.15,23.935h-.85c0-8.2,0-16.382-.28-24.477-.26,10.071.12,20.211-.86,30.229-.227-10.372-.077-20.745-.441-31.118h-.014c-.228,9.972-.069,19.977-.385,29.965-.672-9.963-.583-19.967-.7-29.965h-.329c-.154,9.992-.276,19.985-.786,29.947-.178-9.982-.009-19.965-.39-29.947h-.017c-.19,7.658-.163,15.331-.153,22.989h-.88c0-7.663.059-15.326-.024-22.989h-.35c-.037,7.18-.042,14.363-.376,21.537q-.7-9.375-.78-18.847c-.13,6.7-.24,13.392-.69,20.054-.378-7.582-.414-15.163-.387-22.744h-.416c0,5.546-.044,11.094-.207,16.642-.512-5.528-.632-11.082-.666-16.642h-.593c-.11,3.538-.275,7.071-.561,10.593-.088-3.532-.123-7.063-.134-10.593h-.818q-.138,5.3-.348,10.575c-.064-3.525-.09-7.05-.112-10.575h-1.007q-.078,2.865-.161,5.732-.052-2.874-.083-5.732h-4.831q.007,1.791.014,3.582h-.48c-.016-1.193-.017-2.388-.02-3.582h-.91c-.043,2.1-.1,4.206-.18,6.309-.04-2.1-.064-4.2-.086-6.309h-.956c-.008,5.747-.027,11.5-.228,17.236-.173-5.744-.212-11.489-.213-17.236h-.845c-.02,3.523-.085,7.043-.252,10.558-.069-3.515-.088-7.036-.119-10.558h-.951c.01,9.392.148,18.787-.25,28.164-.271-9.382-.224-18.773-.163-28.164h-.865q.017,17.872.018,35.734h-.48c-.058-11.913.2-23.836-.086-35.734h-.85c-.121,5.134-.29,10.266-.614,15.383-.17-4.843-.26-9.686-.44-14.511-.59,11.469.87,23.323-1.25,34.582-.17-4.65-.29-9.318-.42-13.987l-.27,7.169c-.26-.944-.52-1.871-.79-2.815v5.822l-.84-2.133c-.14,1.206-.4,3.6-.54,4.808-.23-1.748-.43-3.637-.64-5.4-.4,1.958-.8,3.9-1.21,5.857l-2.19-1.189c-.6,1.748-1.23,3.5-1.91,5.35l-1.34-6.994-.67-.21a37.571,37.571,0,0,0-3.81,6.749l-1.53.262a5.315,5.315,0,0,0,.1.682h1.86c.11,1.644.32,4.931.43,6.574a44.625,44.625,0,0,0,2.16-6.539c.61,2.1,1.24,4.179,1.9,6.224l1.12-3.5c.24,2.133.47,4.283.72,6.416l.72-2.745c.07,1.014.21,3.06.29,4.074.24-2.046.47-4.091.77-6.119.61-1.172,1.16-2.466,1.7-3.689.41,2.307.73,4.808,2.14,6.346.1.8.31,2.43.41,3.252l.82-1.976c.06,3.777.12,7.553.2,11.312q.221-5.1.46-10.262c.13,2.395.25,4.79.38,7.185.15-1.626.46-4.895.61-6.539.09,5.945.07,11.889.09,17.834h.39c0-7.168.06-14.337.26-21.5.582,11.063.477,22.162.67,33.245h.868c.047-5.827-.012-11.659.212-17.475.176,5.814.109,11.648.155,17.475h.913c.008-8.89-.127-17.781.242-26.671.293,8.856.168,17.762.151,26.671h.954c-.061-8.488-.253-16.986.215-25.447.175,8.48.2,16.964.182,25.447h.784c-.043-7.481-.007-14.959.314-22.423.286,7.462.27,14.942.2,22.423h.818c.02-6.061.088-12.12.288-18.174.17,6.077.19,12.131.179,18.174h.834c.037-6.665.119-13.33.3-19.992.2,6.646.181,13.317.162,19.992h.887c.045-4.439.111-8.877.241-13.314.15,4.438.247,8.876.325,13.314h.762q.048-3.912.133-7.824c.224,2.6.381,5.213.5,7.824h.643c.025-5.046.085-10.091.221-15.132.244,5.041.4,10.086.506,15.132h.651q.075-5.172.223-10.341c.342,3.435.52,6.884.608,10.341h.436c.038-3.239.1-6.476.236-9.712.375,3.2.583,6.451.648,9.712h.542c.07-1.885.159-3.771.28-5.656.22,1.877.364,3.762.5,5.656h.395c.094-2.614.191-5.227.307-7.841.193,2.609.321,5.224.407,7.841h.7c.141-8.267.354-16.525.586-24.8.16,8.078.15,16.155.41,24.233-.014-7.285.216-14.565.69-21.8.318,7.447.269,14.908.314,22.37h.4c.019-6.843.007-13.683.241-20.517q.155,9.657.95,19.232c.13-7.85.14-15.735.34-23.551.39,7.239.68,14.512.81,21.768.29-4.791.56-9.581,1-14.372q.22,5.088.43,10.176c.24-5.42.4-10.84.87-16.243.16,5.4.26,10.823.44,16.243.17-4.843.25-9.686.42-14.512.16,3.6.28,7.221.44,10.84.28-4.6.55-9.2.77-13.8.31,3.182.6,6.382.93,9.564.15-3.5.28-6.854.43-10.263l.39,4.721c.29-2.8.56-5.578.87-8.375.2,6.277.31,12.536.52,18.812q.707-9.351.86-18.795c.13,4.441.24,8.865.37,13.306.23-4.529.46-9.057.76-13.55.45,6.993.41,13.864.5,20.805.27-6.241.53-12.483.92-18.707q.21,6.311.41,12.658c.29-3.5.53-6.819.89-10.211.17,5.42.28,10.858.43,16.278.22-4.843.44-9.686.79-14.512.22,4.633.41,9.284.63,13.987.456-4.8.713-9.648.77-14.511.25,3.5.51,6.818.84,10.21.18-4.825.29-9.651.43-14.476.3,3.6.51,7.238.9,10.84.21-5.036.27-10.071.42-15.089q.191,8.2.86,16.33c.25-6.049.29-12.116.44-18.166.25,7.676.54,15.351.93,23.009.15-5.857.22-11.714.39-17.484.45,6.871.71,13.742.9,20.614q.034-10.9.7-21.75c.23,4.406.41,8.742.6,13.235.06-6.25.351-12.488.87-18.673.11,4.808.24,9.616.33,14.407q.33-6.451.74-12.886c.26,2.868.43,5.753.64,8.637.3-1.748.59-3.5.9-5.245.11,2.378.21,4.773.32,7.169.15-1.049.46-3.13.6-4.162.58,3.183,1.13,6.382,1.7,9.582.38-4.808.63-9.634.83-14.442.13,2.588.24,5.245.36,7.8.26-3.812.48-7.623.8-11.417.19,3.409.39,6.819.57,10.245.35-4.2.64-8.409.91-12.605q.33,14.214,1.14,28.411c.176,3.136.256,6.282.3,9.432h.661q.51-11.455,1.676-22.79c.18,2.011.33,3.969.51,6,.14-3.2.29-6.417.45-9.616.17,7.675.39,15.333.84,22.974.17-8.27.19-16.54.36-24.81a281.418,281.418,0,0,1,1.665,28.245h.373c.192-4.374.495-8.731.942-13.051.18,4.213.33,8.409.47,12.64.23-4.825.48-9.633.86-14.441.166,4.946.249,9.9.338,14.852H228c.251-5.765.411-11.541.564-17.318.091,5.769.127,11.545.2,17.318h.531c.084-2.017.176-4.032.3-6.04.164,2.012.279,4.025.388,6.04h.781c.146-1.508.29-3.016.441-4.519q.019,2.259.03,4.519h.514c.024-3.967.074-7.933.206-11.9q.807,5.885,1.234,11.9h.27c.126-.936.271-2,.356-2.649.035.676.083,1.631.134,2.649h.36c.133-4.151.278-8.3.506-12.44.23,3.2.43,6.4.64,9.617.12-2.413.36-7.221.49-9.617.107,4.147.185,8.294.28,12.44h.185q.462-9.879,1.245-19.713c.45,5.42.7,10.875,1.15,16.3a127.069,127.069,0,0,0,1.41-15.648l.87,7.641c.25-4.179.42-8.358.79-12.519.19,3.6.35,7.221.54,10.84.14-4.651.24-9.284.4-13.987.15,3.619.29,7.256.45,10.892.36-2.377.67-4.755,1-7.133.34,6.4.55,12.833.81,19.232.13-7.693.12-15.386.62-23.043.14,2.43.43,7.255.57,9.668q.9-6.441,2.24-12.658c.43,2.57.85,5.158,1.27,7.745.28-2.36.55-4.72.86-6.993.34,2.133.63,4.248.93,6.416,0-.822.12-2.448.15-3.252l1.23,1.749c.27-1.871.54-3.759.83-5.613.43,4.808.58,9.634.83,14.459.14-4.843.26-9.668.44-14.494.15,8.06.13,16.12.34,24.2.46-5.035.78-10.088,1.29-15.106.613,6.972.67,14,.758,21.024h.257q.209-8.408.755-16.776c.448,5.579.6,11.174.645,16.776h.891c.018-3.977.065-7.955.244-11.933.131,3.977.238,7.956.364,11.933h3.034c.073-1.75.146-3.5.232-5.254.114,1.75.2,3.5.265,5.254h2.661c.218-5.381.5-10.755.884-16.111.08,5.371.08,10.742.1,16.111h.987a27.972,27.972,0,0,1,.949-4.082c.057,1.361.1,2.721.156,4.082h.8c.2-5.57.272-11.154.436-16.723.109,5.582.157,11.153.217,16.723h1.212c.036-9.822-.059-19.647.231-29.451q.231,13.688,1.3,27.274c.27-6.993.25-14.126.38-21.172.26,5.612.46,11.242,1,16.819.45-8.655.63-17.326.88-25.981.56,8.27.65,16.592.92,24.879.38-4.825.6-9.686.88-14.511.517,7.359.782,14.777,1.185,22.143h.1c.2-11.778-.163-23.719.789-35.5.25,10.3.14,20.6.44,30.894.11-5.42.18-10.822.24-16.242l.76,3.322c.12-2.745.22-5.508.35-8.253.33,3.375.6,6.749.89,10.141.17-4.616.34-9.232.64-13.83q.31,6.365.6,12.711c.57-6.434,1-12.886,1.33-19.355.14,7.658.3,15.334.8,22.957.35-7.239.64-14.494.92-21.75.23,5.857.37,11.749.86,17.484.28-6.994.53-14.145.88-21.208.19,6.626.26,13.27.81,19.879.24-4.021.48-8.043.8-12.047.441,2.767.775,5.582,1,8.428.22-3.5.42-6.819.76-10.211.35,4.021.63,8.043.91,12.064.26-3.777.53-7.571.87-11.33.2,2.78.41,5.56.64,8.358.55-4.214.93-8.462,1.28-12.711.22,3.619.4,7.238.59,10.857.54-1.923,1-3.881,1.55-5.822.14,1.993.27,3.917.45,5.927.43-4.458.88-8.916,1.22-13.392.07,5.892.18,11.784.4,17.676q.887-6.05,1.4-12.239c.31,1.749.6,3.5.92,5.245.28-3.5.46-7.186.68-10.787.26,4.633.52,9.266.84,13.882.25-3.829.48-7.658.78-11.487.29,2.395.56,4.808.85,7.2.32-1.573.65-3.164,1-4.738.38,2.151.69,4.319,1,6.487.43-3.742.82-7.483,1.21-11.225.19,2.815.37,5.63.57,8.462q.738-4.784,1.18-9.686c.18,3.5.37,7.169.63,10.753.38-2.168.7-4.336,1-6.5.3,2.588.58,5.245,1,7.745.35-2.989.56-6,.83-8.986q.675,9.284,1.62,18.532c.3,6.088.31,12.19.278,18.3h.431c.044-3.8.114-7.605.231-11.408.094,3.8.157,7.6.233,11.408h.309q.149-8.142.628-16.251.412,8.115.626,16.251h1c.077-.935.141-1.867.228-2.806q.032,1.4.053,2.806h1.243c.114-5.008.24-10.016.4-15.027.113,5.009.155,10.018.2,15.027h.547c.027-.97.06-1.941.082-2.911.032.777.076,1.8.125,2.911h3.225c.023-.759.047-1.523.07-2.282q.048,1.141.1,2.282h.6c.047-3.6.1-7.218.2-10.814.09,1.889.13,3.742.21,5.648l.87-1.049c-.012,2.073.013,4.144.056,6.215h.881c.088-2.825.182-5.649.313-8.471.285,2.824.418,5.648.521,8.471h.389c.128-6.674.321-13.347.71-19.993.36,2.973.63,5.962.94,8.952,0-1.171.06-3.5.09-4.668.15.489.46,1.469.62,1.941.58-2.483,1.15-4.983,1.72-7.466.875,7.008.747,14.137.869,21.234h.361c.242-2.6.458-5.213.71-7.806q.123,3.9.241,7.806h.334c.444-8.714.442-17.47,1.425-26.077.64,4.423,1,8.917,1.44,13.375.86-4.406,1.42-8.9,2.08-13.357.23,6.469.4,12.955.84,19.407.958-8.806,1.579-17.713,1.86-26.663q.688,7.707.93,15.508l1-.122c.28-2.78.56-5.56,1-8.305,1.52,7.675.71,15.735,1.49,23.515l.234,2.719h.918c.059-3.615.133-7.225.248-10.831.07,3.609.129,7.22.2,10.831h.822c.009-5.644.056-11.292.312-16.915.616,5.6.617,11.253.682,16.915h.663c.144-2.182.277-4.367.435-6.547.028,2.177.041,4.361.05,6.547h.469c.018-3.816.068-7.625.191-11.425.165,3.808.279,7.616.366,11.425h.723c-.029-8.864-.025-17.727.2-26.584.487,8.85.616,17.716.652,26.584h.48c-.025-9.279-.006-18.557.248-27.825.253,9.267.391,18.537.537,27.825h.5c.014-5.848.119-11.7.639-17.492.207,5.827.273,11.659.289,17.492h.531c.1-2.809.249-5.615.47-8.418.107,2.805.171,5.612.218,8.418h.7q.205-12.4.514-24.818c.136,8.271.18,16.544.189,24.818h.916q.088-6.641.195-13.279c.123,4.426.169,8.852.182,13.279h.894c-.1-12.514-.285-25.03.224-37.511.275,12.5.2,25.006.152,37.511h.876c-.027-9.873-.076-19.746.242-29.609.278,9.867.234,19.738.19,29.609h.876q-.029-12.54-.016-25.08h.4c-.2,8.371-.019,16.754.509,25.08h.112c.39-11.084.124-22.2.509-33.28.342,11.091.163,22.188.14,33.28h.925c-.043-8.869-.179-17.745.2-26.6.219,8.864.2,17.754.685,26.6h.282c.117-9.252.06-18.5.333-27.755.266,9.246.5,18.506.8,27.755h.119c.208-10.472.08-20.957.348-31.427.34,5.035.61,10.088.92,15.124.13-5.246.25-10.491.41-15.736.38,7.658.65,15.333.92,23.009.15-5.857.21-11.714.36-17.484.24,6.819.48,13.672.91,20.491.13-3.392.25-6.766.38-10.158l.68,9.7c.49-6.993.48-14.161.67-21.26q.115,9.366.78,18.673c.19-3.812.3-7.623.43-11.435.27,2.78.54,5.578.84,8.375.36-1.364.71-2.727,1.07-4.074.18,4.179.33,8.375.61,12.571.07-1.538.22-4.58.3-6.1l.83.717c.15-.751.31-1.521.47-2.273.11,3.5.2,7.134.32,10.718.35-4.826.62-9.686.91-14.529.24,2.343.44,4.686.63,6.993l.9-2.01c.24,2.937.36,5.892.55,8.847.23-1.626.46-3.252.7-4.878.29,1.748.47,3.5.78,5.437,0-2.99.05-5.979.08-8.952l.74,2.833c.32-3.969.53-7.973.8-11.942.16,3.008.29,5.98.47,8.987.41-3.776.61-7.588.86-11.382.11,4.214.23,8.445.37,12.658q.45-10.28.81-20.578c.28,3.007.52,6.014.82,9.022.24-2.623.49-5.246.73-7.868.38,4.213.49,8.479.72,12.728.11-4.423.21-8.847.33-13.253.42,4.808.73,9.634,1,14.459.12-4.825.16-9.651.29-14.459.36,4.389.68,8.742,1,13.218.1-6.242.17-12.466.33-18.708q.58,7.536,1,15.106c.11-5.455.2-10.892.33-16.329.26,4.021.48,8.042.81,12.063.2-4.44.37-8.864.55-13.287.28,5.018.56,10.035.93,15.036.12-4.808.2-9.616.34-14.424.3,4.808.56,9.616.91,14.424.13-4.406.25-8.742.39-13.2.32,4.405.57,8.741.87,13.235q.251-4.809.55-9.6c.32,3.5.51,7.168.74,10.77.23-1.626.61-3.147.89-4.738,0,1.644.17,4.948.23,6.609.27-.944.54-1.888.83-2.832,0,1.748-.08,5.052-.1,6.731l1-1c.05,1.749.11,3.34.18,5.018.24-2.675.45-5.367.72-8.042.2,2.622.31,5.245.42,7.9.27-.7.55-1.381.83-2.063-.034,4.188-.022,8.375.011,12.562h1.006c.033-1.413.055-2.826.1-4.24.04,1.413.068,2.827.092,4.24h1.023c.067-3.028.138-6.057.235-9.083q.071,4.542.106,9.083h8.343c.036-1.39.069-2.781.131-4.17.038,1.39.063,2.78.09,4.17h.964q.135-6.333.286-12.667c.117,4.221.152,8.444.16,12.667h.563c.1-8.461.236-16.921.517-25.377.23,8.252.25,16.522.38,24.791.4-7.255.7-14.511.95-21.767.17,4.651.33,9.3.56,13.987.4-5.415.607-10.869.61-16.33l.52,3.5c.22-1.364.45-2.727.67-4.074.3,4.406.47,8.742.71,13.236.33-4.826.59-9.669.88-14.494.13,4,.2,8.025.33,12.046.25-4.2.45-8.41.8-12.606.08.979.24,2.937.33,3.934q.559-1.749,1.17-3.357c.1,4.616.18,9.249.3,13.865.865-6.158,1.48-12.416,1.84-18.725.24,4.231.47,8.479.79,12.71.47-1.608.76-3.339,1.29-4.878a114.964,114.964,0,0,1,.91,11.47c.12-1.644.35-4.931.47-6.574.1,2.6.16,5.245.25,7.815.17-.944.34-1.906.51-2.832.33,1.748.67,3.5,1,5.245.06-2.763.09-5.543.15-8.305a38.166,38.166,0,0,0,2.25,8.48q.633-2.979,1.07-6.067.33,4.72.76,9.406.221-5.088.43-10.141c.129,5.011.227,10.03.35,15.045h.29q.344-6.3.63-12.614c.16,2.43.47,7.255.63,9.686.37-4.039.56-8.1.83-12.134.332,5.011.455,10.036.569,15.062h.343c.058-5.026.107-10.051.228-15.1.12,1.748.1,3.5.25,5.245l.88-2.081q.029,5.965,0,11.933h.447c.106-6.762.352-13.516.886-20.255q.433,6.968.43,13.987c-.011,2.089-.011,4.179-.019,6.268h.393q.048-9.333.186-18.664c.16,5.245.35,10.49.51,15.736.15-5.665.25-11.312.46-16.96.171,6.634.146,13.267.133,19.888h.511c.006-.743.008-1.486.016-2.229.126.74.267,1.486.4,2.229h.343q.026-8.423.236-16.845c.11,5.245.3,10.49.48,15.735,1-3.5,1.1-7.221,1.46-10.875.018,4,.011,7.99.014,11.985h.392c0-.685,0-1.369-.006-2.054,0-6.994,0-13.987,1.26-20.823.109,7.62.062,15.247.088,22.877h.681c.306-6.446.646-12.89.911-19.346.479,6.416.73,12.877.75,19.346h0q.27-7.863.7-15.727c.33,4.861.48,9.721.67,14.582q.282-9.72,1.19-19.337c.27,6.032.4,12.081,1,18.078.24-7.658-.13-15.438,1.21-22.921.24,8.252.25,16.522.42,24.792.25-7.868.49-15.736,1-23.586.13,3.812.2,7.623.32,11.452.12-1.643.35-4.93.47-6.556.14,1.014.41,3.059.55,4.091.15-3.007.27-6.014.43-9,.488,8.028.589,16.091.788,24.136h0c.012-7.906.4-15.8,1.149-23.594.26,6.276.41,12.571.6,18.847.27-6.1.38-12.238,1.7-18.218.15,3.5.31,6.889.46,10.333.17-3.637.34-7.256.55-10.892.4,5.437.55,10.892.8,16.33.1-6.452.18-12.921.33-19.372.19,2.01.3,3.986.51,6.014.18-1.976.28-4,.48-5.962.1,8.252.11,16.522.3,24.774.32-11.1.75-22.2,1.36-33.219q.36,10.6.89,21.173.611-7.215.79-14.511c.13,1.049.38,3.112.5,4.143.16-1.573.31-3.164.46-4.738.16,2.011.22,3.969.39,6,.2-1.748.26-3.654.52-5.4.09,4.423.16,8.846.25,13.252a81.563,81.563,0,0,1,1.46-11.539c.69,4.581.54,9.284.69,13.987.36-4.458.37-9.074,1.47-13.34.25.892.75,2.692,1,3.6v-8.253c.45,2.588.9,5.245,1.4,7.746.22-1.749.64-5.473.85-7.291.33,5.053.41,10.1.59,15.176.19-6.277.21-12.606,1.22-18.76.19,4.633.33,9.266.48,13.987.46-4.808,1-9.6,1.38-14.407q.27,5.245.57,10.333c.532-2.388.973-4.836,1.32-7.326-.05,1.451-.09,2.885-.12,4.336l1-1.049c.07,1.1.2,3.322.27,4.424.14-2.99.19-6,.3-8.987.27,2.046.47,4.091.73,6.154q.785-3.245,1.33-6.644c-.06,3.095-.11,6.19-.13,9.3.21-.577.42-1.137.62-1.749l.78,1.749c0-2.92.05-5.822.1-8.742.07.927.2,2.762.27,3.671l.91-.909c.06,1.644.13,3.305.2,4.966.14-3.182.28-6.382.41-9.564q.32,4.878.64,9.791.778-2.937,1.36-6.014c-.093,9.683.214,19.365.92,28.97.3-7.273.39-14.564.54-21.837q.941,11.574,1.227,23.262h.275q.058-6.336.058-12.667h.43q0,6.33-.014,12.667h1.918c.007-.265.009-.531.016-.8.014.265.024.53.037.8h3.439c.021-.865.032-1.731.054-2.6.052.865.087,1.731.131,2.6h1.8c.051-.463.1-.927.154-1.39.02.463.035.927.055,1.39h1c.113-2.261.239-4.521.407-6.775.038,2.258.055,4.517.069,6.775h.551c.038-2.865.094-5.73.19-8.593.1,2.86.163,5.725.228,8.593h.651c.175-2.194.365-4.39.581-6.6l.88,2.028c.03-5.99.281-11.97.75-17.9.18,7.485.118,14.98.106,22.475h.459c-.027-9.542-.108-19.089.175-28.63.26,4.651.46,9.3.8,13.987.23-2.43.47-4.843.71-7.255.37,4.213.5,8.444.75,12.675.12-3.5.23-6.818.36-10.21.36,5.245.63,10.49.94,15.735-.068-7.884.189-15.766.77-23.585.22,5.822.26,11.661.39,17.483,1.48-5.962,1.53-12.238,1.78-18.55.08.682.15,1.381.24,2.081.61.122,1.22.21,1.82.349v3.952c.56-3.042,1.13-6.085,1.83-9.074.38,2.185.69,4.388,1,6.609,0-1,.11-2.99.14-3.987.24.944.48,1.871.73,2.8.08-1.014.25-3.06.34-4.092.09,1.574.2,3.148.3,4.739.11-.84.32-2.536.43-3.375.17.822.51,2.465.69,3.287.07-2.553.16-5.123.25-7.675.16,2.395.33,4.808.5,7.221.13-1.994.17-4.022.33-6a165.392,165.392,0,0,1,1.87,19.949c0-5.246.25-10.491.28-15.736.29,8.27.8,16.54,1.42,24.792.13-5.472.27-10.927.52-16.382.537,6.266.56,12.578.562,18.891h.773c.084-1.414.162-2.83.255-4.24.1,1.412.184,2.827.279,4.24h1.11c.126-1.63.264-3.259.441-4.887.042,1.628.067,3.257.089,4.887h2.966c.013-.2.022-.4.035-.6,0,.2,0,.4.006.6h.562q.038-4.271.122-8.541c.157,2.847.342,5.694.53,8.541h1.275c.288-6.083.67-12.158.955-18.244.115,6.076.184,12.164.374,18.244h1.49q.082-4.887.186-9.765c.081,3.255.19,6.51.3,9.765h.524c.3-6.71.353-13.375.507-20.08q.179,9.739.94,19.407c.83-9.057.49-18.2.81-27.292.12,4.843.29,9.668.42,14.511.07-5.245.33-10.49.44-15.735.292,9.725.128,19.46.25,29.189h.615c.355-9.21.16-18.455.175-27.668h.43c0,9.227.01,18.49.674,27.668h.588c.142-7.688.192-15.382.718-23.052.837,7.634.561,15.358.752,23.052h.716c.3-11.518-.269-23.093.232-34.609.16,5.245.34,10.49.49,15.735.18-3.829.32-7.658.5-11.486.13,9.7,0,19.406.4,29.092.82-9.213.43-18.55,1.25-27.764.728,9.642.589,19.34.659,29.032h.4c.063-9.921-.073-19.839.212-29.749.19,2.8.3,5.595.47,8.41.15-4.213.29-8.427.46-12.623.428,11.3-.238,22.692.538,33.962h.432c.143-9.215-.023-18.451,1.03-27.581.5,9.183.3,18.4.544,27.581h.079c.174-8.129.152-16.141.217-24.224.24,1.329.48,2.658.74,4q.131-5.07.33-10.123c.15,10.117.222,20.234.49,30.343h.453c.093-10.745.23-21.493,1.277-32.161.206,10.718.011,21.447.166,32.161h.4c.295-11.939.711-23.872,1.107-35.815.469,11.933.517,23.88.825,35.815h.105c.222-11.01-.153-22.045.49-33.035,1.74,9.79.6,20.018,1.15,29.984.89-10.7.35-21.5,1.21-32.2.61,10.7.7,21.418.93,32.153.4-10.491.5-20.981,1.22-31.471.4,10.35.15,20.736.73,31.086,1-11.085.71-22.309,1.09-33.446.29,10.682.53,21.382.88,32.065.24-10.893.39-21.785.87-32.677.12,7.36.21,14.721.67,22.064.57-6.749.65-13.567,1.48-20.263.19,6.451.27,12.9.43,19.372.35-5.613.78-11.225,1.35-16.82.21,4.389.43,8.742.72,13.183.211-5.672.652-11.31,1.32-16.872.3,5.245.48,10.49,1,15.613.11-5,.15-10,.25-14.983.47,3.182,1,6.329,1.45,9.511.25-3.952.53-7.9.8-11.872.2,5.452.659,10.866,1.36,16.19.12-5.245.2-10.49.32-15.735.17,1.748.33,3.339.5,5l.05-14.546c-.16-.857-.31-1.749-.46-2.57-.11,2.01-.31,3.986-.39,6.014-.46-1.906-.91-3.794-1.34-5.7-.33,1.487-.67,2.973-1,4.459-.41-4.616-.67-9.232-1.06-13.865q-.289,8.025-.71,16c-1-5.245-1-10.63-1.15-15.98-.22,6.066-.48,12.133-.87,18.165-1-10.053-.17-20.281-1.2-30.352-.42,10.106-.17,20.264-.47,30.387-.51-5.857-.74-11.731-1.25-17.571-.45,4.2-.77,8.41-1,12.658-.33-8.077-.6-16.155-1.16-24.215-.28,8.27-.32,16.54-.49,24.81-.56-7.728-.29-15.736-1.63-23.219-.4,6.906-.37,13.865-.5,20.806-1.9-10.071-.84-20.631-1.38-30.894-.25,10.49,0,21.121-.55,31.681-1.52-10.537-.733-21.285-.946-31.923h-.852C572.21,142.72,572.5,153.544,572.11,164.357Z"/><path d="M27.5,68.476a.219.219,0,0,1-.035.123.237.237,0,0,1-.123.083,1.341,1.341,0,0,1-.233.053,3,3,0,0,1-.725,0,1.326,1.326,0,0,1-.238-.053.237.237,0,0,1-.123-.083.219.219,0,0,1-.035-.123V57.56a.2.2,0,0,1,.04-.123.266.266,0,0,1,.131-.084A1.471,1.471,0,0,1,26.4,57.3a2.3,2.3,0,0,1,.347-.022,2.466,2.466,0,0,1,.365.022,1.352,1.352,0,0,1,.233.052.244.244,0,0,1,.123.084.219.219,0,0,1,.035.123Z"/><path d="M37.167,68.485a.2.2,0,0,1-.035.118.279.279,0,0,1-.115.084.823.823,0,0,1-.219.053,3.1,3.1,0,0,1-.352.017,3.174,3.174,0,0,1-.36-.017.832.832,0,0,1-.22-.053.269.269,0,0,1-.114-.084.192.192,0,0,1-.035-.118V63.853a4.566,4.566,0,0,0-.106-1.09,2.246,2.246,0,0,0-.308-.712,1.326,1.326,0,0,0-.523-.457,1.66,1.66,0,0,0-.742-.158,1.874,1.874,0,0,0-1.09.387,5.9,5.9,0,0,0-1.143,1.133v5.529a.192.192,0,0,1-.035.118.269.269,0,0,1-.114.084.832.832,0,0,1-.22.053,3.174,3.174,0,0,1-.36.017,3.1,3.1,0,0,1-.352-.017.912.912,0,0,1-.224-.053.241.241,0,0,1-.114-.084.212.212,0,0,1-.031-.118V60.574a.239.239,0,0,1,.027-.118.227.227,0,0,1,.1-.088.611.611,0,0,1,.2-.053,4.019,4.019,0,0,1,.646,0,.531.531,0,0,1,.2.053.271.271,0,0,1,.1.088.212.212,0,0,1,.031.118V61.62A4.872,4.872,0,0,1,33,60.526a2.872,2.872,0,0,1,1.341-.347,2.973,2.973,0,0,1,1.331.268,2.407,2.407,0,0,1,.875.716,2.869,2.869,0,0,1,.479,1.051,6.283,6.283,0,0,1,.145,1.445Z"/><path d="M47.09,64.406a7.1,7.1,0,0,1-.225,1.864,4.057,4.057,0,0,1-.659,1.4,2.959,2.959,0,0,1-1.076.887,3.316,3.316,0,0,1-1.468.312,2.837,2.837,0,0,1-.651-.07,2.47,2.47,0,0,1-.584-.22,3.367,3.367,0,0,1-.567-.378c-.187-.152-.387-.331-.6-.536v3.955a.212.212,0,0,1-.035.123.245.245,0,0,1-.114.088.8.8,0,0,1-.22.053,2.928,2.928,0,0,1-.36.018,2.854,2.854,0,0,1-.352-.018.868.868,0,0,1-.224-.053.226.226,0,0,1-.114-.088.234.234,0,0,1-.031-.123V60.574a.26.26,0,0,1,.027-.127.206.206,0,0,1,.105-.083.671.671,0,0,1,.2-.049,2.821,2.821,0,0,1,.3-.013,2.788,2.788,0,0,1,.3.013.666.666,0,0,1,.2.049.241.241,0,0,1,.11.083.239.239,0,0,1,.031.127v1.064A8.4,8.4,0,0,1,41.781,61a4.232,4.232,0,0,1,.672-.452,3.2,3.2,0,0,1,.7-.273,3.295,3.295,0,0,1,2.219.242,2.77,2.77,0,0,1,.989.914,4.072,4.072,0,0,1,.558,1.349A7.311,7.311,0,0,1,47.09,64.406Zm-1.5.167a7.352,7.352,0,0,0-.093-1.173,3.4,3.4,0,0,0-.318-1.006,1.889,1.889,0,0,0-.606-.7,1.621,1.621,0,0,0-.946-.264,1.9,1.9,0,0,0-.558.084,2.274,2.274,0,0,0-.557.263,3.93,3.93,0,0,0-.592.475,7.221,7.221,0,0,0-.655.725V66.12A6.305,6.305,0,0,0,42.4,67.237a1.919,1.919,0,0,0,1.132.386,1.657,1.657,0,0,0,.942-.263,2.006,2.006,0,0,0,.637-.7,3.526,3.526,0,0,0,.358-.984A5.279,5.279,0,0,0,45.587,64.573Z"/><path d="M56.046,68.485a.22.22,0,0,1-.031.118.243.243,0,0,1-.11.084.814.814,0,0,1-.207.053,2.465,2.465,0,0,1-.312.017,2.647,2.647,0,0,1-.329-.017.739.739,0,0,1-.2-.053.208.208,0,0,1-.1-.084.239.239,0,0,1-.027-.118V67.439a4.927,4.927,0,0,1-1.336,1.09,2.869,2.869,0,0,1-1.336.342,3.03,3.03,0,0,1-1.331-.263,2.349,2.349,0,0,1-.875-.717,2.907,2.907,0,0,1-.479-1.054,6.385,6.385,0,0,1-.145-1.464v-4.8a.22.22,0,0,1,.031-.118.267.267,0,0,1,.119-.088.736.736,0,0,1,.228-.053c.094-.009.211-.013.352-.013s.258,0,.351.013a.688.688,0,0,1,.224.053.3.3,0,0,1,.119.088.192.192,0,0,1,.035.118V65.18a4.93,4.93,0,0,0,.1,1.112,2.1,2.1,0,0,0,.308.712,1.437,1.437,0,0,0,.523.457,1.6,1.6,0,0,0,.738.162,1.861,1.861,0,0,0,1.086-.386A6.21,6.21,0,0,0,54.587,66.1V60.574a.22.22,0,0,1,.03-.118.267.267,0,0,1,.119-.088.737.737,0,0,1,.224-.053c.091-.009.21-.013.356-.013s.258,0,.352.013a.643.643,0,0,1,.219.053.351.351,0,0,1,.119.088.183.183,0,0,1,.04.118Z"/><path d="M62.84,67.905a1.8,1.8,0,0,1-.036.4.452.452,0,0,1-.105.22.7.7,0,0,1-.211.131,1.708,1.708,0,0,1-.321.1c-.12.027-.247.049-.382.066a3.357,3.357,0,0,1-1.459-.136,1.7,1.7,0,0,1-.721-.492,2.023,2.023,0,0,1-.408-.835,4.909,4.909,0,0,1-.128-1.191V61.55H57.962a.236.236,0,0,1-.211-.141.976.976,0,0,1-.079-.457,1.489,1.489,0,0,1,.022-.281.758.758,0,0,1,.057-.189.214.214,0,0,1,.092-.1.26.26,0,0,1,.127-.031h1.1V58.465a.217.217,0,0,1,.031-.114.244.244,0,0,1,.114-.092.738.738,0,0,1,.224-.058,3.1,3.1,0,0,1,.352-.017,3.187,3.187,0,0,1,.36.017.687.687,0,0,1,.22.058.279.279,0,0,1,.114.092.2.2,0,0,1,.035.114v1.881H62.55a.239.239,0,0,1,.123.031.248.248,0,0,1,.092.1.621.621,0,0,1,.057.189,1.847,1.847,0,0,1,.018.281.974.974,0,0,1-.08.457.236.236,0,0,1-.21.141H60.519v4.412a2.515,2.515,0,0,0,.242,1.235.916.916,0,0,0,.866.418,1.507,1.507,0,0,0,.36-.04,2.672,2.672,0,0,0,.281-.084c.082-.029.153-.057.211-.083a.4.4,0,0,1,.158-.04.175.175,0,0,1,.084.022.147.147,0,0,1,.061.084,1,1,0,0,1,.04.167A1.605,1.605,0,0,1,62.84,67.905Z"/><path d="M73.791,66.331a2.5,2.5,0,0,1-.224,1.081,2.2,2.2,0,0,1-.638.8,2.861,2.861,0,0,1-.984.492,4.445,4.445,0,0,1-1.257.167,4.724,4.724,0,0,1-.8-.066,4.661,4.661,0,0,1-.686-.167,3.459,3.459,0,0,1-.514-.211,1.532,1.532,0,0,1-.307-.2.5.5,0,0,1-.141-.246,1.691,1.691,0,0,1-.044-.431,1.847,1.847,0,0,1,.018-.281.884.884,0,0,1,.044-.185.194.194,0,0,1,.074-.1.207.207,0,0,1,.11-.031.628.628,0,0,1,.286.119c.126.079.281.166.466.259a4.363,4.363,0,0,0,.654.26,2.913,2.913,0,0,0,.871.118,2.6,2.6,0,0,0,.668-.079A1.607,1.607,0,0,0,71.9,67.4a1.028,1.028,0,0,0,.338-.391,1.232,1.232,0,0,0,.119-.562.912.912,0,0,0-.171-.563,1.655,1.655,0,0,0-.453-.4,3.731,3.731,0,0,0-.633-.312q-.351-.137-.725-.286a7.521,7.521,0,0,1-.729-.338,2.783,2.783,0,0,1-.638-.462,2.1,2.1,0,0,1-.452-.65,2.184,2.184,0,0,1-.172-.9,2.269,2.269,0,0,1,.181-.892,2.069,2.069,0,0,1,.54-.748,2.728,2.728,0,0,1,.9-.514,3.739,3.739,0,0,1,1.261-.193,3.863,3.863,0,0,1,.633.053,4.272,4.272,0,0,1,.571.132,2.631,2.631,0,0,1,.435.171,1.818,1.818,0,0,1,.273.163.469.469,0,0,1,.123.123.4.4,0,0,1,.044.118c.009.044.017.1.026.163a1.753,1.753,0,0,1,.013.237,2.157,2.157,0,0,1-.013.259.639.639,0,0,1-.044.181.239.239,0,0,1-.074.1.171.171,0,0,1-.1.03.49.49,0,0,1-.229-.1,3.046,3.046,0,0,0-.386-.207,4.334,4.334,0,0,0-.558-.206,2.529,2.529,0,0,0-.734-.1,2.323,2.323,0,0,0-.651.083,1.248,1.248,0,0,0-.461.238,1,1,0,0,0-.273.365,1.131,1.131,0,0,0-.092.457.928.928,0,0,0,.176.575,1.669,1.669,0,0,0,.457.409,3.764,3.764,0,0,0,.642.316l.733.29c.249.1.5.211.739.334a2.768,2.768,0,0,1,.646.449,2.017,2.017,0,0,1,.452.632A2.06,2.06,0,0,1,73.791,66.331Z"/><path d="M77.482,57.9a.955.955,0,0,1-.193.694,1.04,1.04,0,0,1-.712.184,1.023,1.023,0,0,1-.7-.18.937.937,0,0,1-.189-.681.953.953,0,0,1,.194-.694,1.036,1.036,0,0,1,.711-.185,1.023,1.023,0,0,1,.7.18A.941.941,0,0,1,77.482,57.9Zm-.167,10.582a.2.2,0,0,1-.035.118.276.276,0,0,1-.114.084.832.832,0,0,1-.22.053,3.187,3.187,0,0,1-.36.017,3.1,3.1,0,0,1-.352-.017.9.9,0,0,1-.224-.053A.236.236,0,0,1,75.9,68.6a.212.212,0,0,1-.031-.118V60.574a.217.217,0,0,1,.031-.114.228.228,0,0,1,.114-.088.862.862,0,0,1,.224-.052,2.854,2.854,0,0,1,.352-.018,2.939,2.939,0,0,1,.36.018.8.8,0,0,1,.22.052.265.265,0,0,1,.114.088.2.2,0,0,1,.035.114Z"/><path d="M86.605,60.935a.9.9,0,0,1-.083.444.25.25,0,0,1-.216.136H85.173a1.779,1.779,0,0,1,.43.7,2.581,2.581,0,0,1,.123.8,3.143,3.143,0,0,1-.219,1.213,2.434,2.434,0,0,1-.629.892,2.811,2.811,0,0,1-.971.558,3.818,3.818,0,0,1-1.248.193,3.255,3.255,0,0,1-.919-.127,1.913,1.913,0,0,1-.672-.321,1.386,1.386,0,0,0-.259.361,1.017,1.017,0,0,0-.1.465.606.606,0,0,0,.285.51,1.386,1.386,0,0,0,.761.22l2.065.088a4.308,4.308,0,0,1,1.081.162,2.719,2.719,0,0,1,.853.413,1.907,1.907,0,0,1,.562.66,1.949,1.949,0,0,1,.2.909,2.435,2.435,0,0,1-.228,1.037,2.383,2.383,0,0,1-.7.866,3.5,3.5,0,0,1-1.2.589,6.1,6.1,0,0,1-1.722.215,7.07,7.07,0,0,1-1.631-.162,3.562,3.562,0,0,1-1.1-.444,1.729,1.729,0,0,1-.624-.672,1.889,1.889,0,0,1-.193-.849,2.236,2.236,0,0,1,.07-.562A2,2,0,0,1,79.4,68.7a2.514,2.514,0,0,1,.36-.47,4.79,4.79,0,0,1,.5-.444,1.554,1.554,0,0,1-.637-.553,1.353,1.353,0,0,1-.206-.721,2.046,2.046,0,0,1,.219-.958,3.238,3.238,0,0,1,.545-.756,2.587,2.587,0,0,1-.43-.734,2.731,2.731,0,0,1-.158-.989,3.075,3.075,0,0,1,.228-1.213,2.566,2.566,0,0,1,.633-.905,2.774,2.774,0,0,1,.971-.567,3.724,3.724,0,0,1,1.235-.2,5.43,5.43,0,0,1,.672.039,4.643,4.643,0,0,1,.585.11h2.39a.238.238,0,0,1,.224.145A1.009,1.009,0,0,1,86.605,60.935Zm-1.538,8.349a.889.889,0,0,0-.417-.786,2.119,2.119,0,0,0-1.13-.3l-2.048-.07a3.8,3.8,0,0,0-.461.418,2.3,2.3,0,0,0-.286.377,1.291,1.291,0,0,0-.145.356,1.67,1.67,0,0,0-.039.361.932.932,0,0,0,.58.866,3.637,3.637,0,0,0,1.617.294,4.059,4.059,0,0,0,1.1-.128,2.084,2.084,0,0,0,.716-.338,1.241,1.241,0,0,0,.391-.483A1.4,1.4,0,0,0,85.067,69.284Zm-.729-6.266a1.722,1.722,0,0,0-.444-1.261,1.687,1.687,0,0,0-1.261-.453,1.767,1.767,0,0,0-.734.141,1.43,1.43,0,0,0-.519.386,1.641,1.641,0,0,0-.308.567,2.238,2.238,0,0,0-.1.673,1.546,1.546,0,0,0,1.688,1.678,1.876,1.876,0,0,0,.747-.136,1.413,1.413,0,0,0,.523-.378,1.6,1.6,0,0,0,.308-.558A2.166,2.166,0,0,0,84.338,63.018Z"/><path d="M95.28,68.485a.2.2,0,0,1-.035.118.282.282,0,0,1-.114.084.832.832,0,0,1-.22.053,3.1,3.1,0,0,1-.352.017,3.187,3.187,0,0,1-.36-.017.832.832,0,0,1-.22-.053.269.269,0,0,1-.114-.084.2.2,0,0,1-.035-.118V63.853a4.515,4.515,0,0,0-.106-1.09,2.268,2.268,0,0,0-.307-.712,1.333,1.333,0,0,0-.523-.457,1.668,1.668,0,0,0-.743-.158,1.877,1.877,0,0,0-1.09.387,5.87,5.87,0,0,0-1.142,1.133v5.529a.2.2,0,0,1-.035.118.279.279,0,0,1-.115.084.823.823,0,0,1-.219.053,3.194,3.194,0,0,1-.361.017,3.076,3.076,0,0,1-.351-.017.889.889,0,0,1-.224-.053A.244.244,0,0,1,88.5,68.6a.22.22,0,0,1-.031-.118V60.574a.239.239,0,0,1,.027-.118.233.233,0,0,1,.1-.088.611.611,0,0,1,.2-.053,4.019,4.019,0,0,1,.646,0,.531.531,0,0,1,.2.053.271.271,0,0,1,.1.088.212.212,0,0,1,.031.118V61.62a4.86,4.86,0,0,1,1.332-1.094,2.868,2.868,0,0,1,1.34-.347,2.973,2.973,0,0,1,1.331.268,2.407,2.407,0,0,1,.875.716,2.853,2.853,0,0,1,.479,1.051,6.228,6.228,0,0,1,.145,1.445Z"/><path d="M103.884,68.493a.186.186,0,0,1-.07.159.5.5,0,0,1-.193.079,1.9,1.9,0,0,1-.361.026,2.057,2.057,0,0,1-.364-.026.439.439,0,0,1-.2-.079.2.2,0,0,1-.062-.159V67.7a3.89,3.89,0,0,1-1.155.862,3.067,3.067,0,0,1-1.349.307A3.693,3.693,0,0,1,99,68.709a2.449,2.449,0,0,1-.861-.47,2.131,2.131,0,0,1-.554-.756,2.5,2.5,0,0,1-.2-1.02,2.355,2.355,0,0,1,.273-1.16,2.252,2.252,0,0,1,.782-.817A3.833,3.833,0,0,1,99.692,64a7.709,7.709,0,0,1,1.661-.163h1.09V63.22a3.041,3.041,0,0,0-.1-.809,1.374,1.374,0,0,0-.312-.584,1.336,1.336,0,0,0-.558-.352,2.6,2.6,0,0,0-.843-.118,3.358,3.358,0,0,0-.963.127,5.226,5.226,0,0,0-.747.281q-.321.154-.536.282a.741.741,0,0,1-.321.127.219.219,0,0,1-.123-.035.3.3,0,0,1-.092-.106.5.5,0,0,1-.057-.18,1.5,1.5,0,0,1-.018-.241,1.52,1.52,0,0,1,.031-.348.5.5,0,0,1,.149-.241,1.909,1.909,0,0,1,.409-.268,4.43,4.43,0,0,1,.668-.282,6.1,6.1,0,0,1,.826-.211,5,5,0,0,1,.905-.083,4.752,4.752,0,0,1,1.451.193,2.347,2.347,0,0,1,.966.567,2.2,2.2,0,0,1,.537.927,4.508,4.508,0,0,1,.166,1.292Zm-1.441-3.612H101.2a4.693,4.693,0,0,0-1.037.1,2.154,2.154,0,0,0-.73.3,1.239,1.239,0,0,0-.426.475,1.421,1.421,0,0,0-.136.637,1.275,1.275,0,0,0,.391.98,1.543,1.543,0,0,0,1.094.365,2.038,2.038,0,0,0,1.059-.29,4.589,4.589,0,0,0,1.024-.888Z"/><path d="M108,68.485a.2.2,0,0,1-.035.118.279.279,0,0,1-.115.084.823.823,0,0,1-.219.053,3.194,3.194,0,0,1-.361.017,3.076,3.076,0,0,1-.351-.017.889.889,0,0,1-.224-.053.244.244,0,0,1-.115-.084.22.22,0,0,1-.03-.118V56.742a.249.249,0,0,1,.03-.123.236.236,0,0,1,.115-.088.852.852,0,0,1,.224-.052,2.836,2.836,0,0,1,.351-.018,2.945,2.945,0,0,1,.361.018.79.79,0,0,1,.219.052.268.268,0,0,1,.115.088.224.224,0,0,1,.035.123Z"/><path d="M35.514,169.906a8.815,8.815,0,0,1-.325,2.487,5.2,5.2,0,0,1-.971,1.885,4.229,4.229,0,0,1-1.622,1.2,5.735,5.735,0,0,1-2.276.418,5.87,5.87,0,0,1-2.219-.382,3.908,3.908,0,0,1-1.547-1.112,4.753,4.753,0,0,1-.91-1.811,9.376,9.376,0,0,1-.3-2.487,8.577,8.577,0,0,1,.326-2.443,5.081,5.081,0,0,1,.975-1.868,4.329,4.329,0,0,1,1.626-1.187,6.472,6.472,0,0,1,4.465-.039,3.957,3.957,0,0,1,1.551,1.1,4.684,4.684,0,0,1,.923,1.793A8.989,8.989,0,0,1,35.514,169.906Zm-1.6.1a8.827,8.827,0,0,0-.172-1.8,4.113,4.113,0,0,0-.57-1.442,2.754,2.754,0,0,0-1.067-.953,3.574,3.574,0,0,0-1.65-.343,3.372,3.372,0,0,0-1.65.369,3.1,3.1,0,0,0-1.084.984,4.108,4.108,0,0,0-.6,1.437,8.057,8.057,0,0,0-.18,1.727,9.544,9.544,0,0,0,.167,1.846,4.114,4.114,0,0,0,.562,1.455,2.693,2.693,0,0,0,1.057.949,3.638,3.638,0,0,0,1.664.338,3.446,3.446,0,0,0,1.668-.369,3,3,0,0,0,1.088-1,4.222,4.222,0,0,0,.588-1.455A8.4,8.4,0,0,0,33.915,170.011Z"/><path d="M44.514,175.5a.221.221,0,0,1-.03.119.247.247,0,0,1-.11.083.774.774,0,0,1-.207.053,2.282,2.282,0,0,1-.312.018,2.431,2.431,0,0,1-.329-.018.713.713,0,0,1-.2-.053.217.217,0,0,1-.1-.083.252.252,0,0,1-.026-.119v-1.046a4.908,4.908,0,0,1-1.336,1.09,2.862,2.862,0,0,1-1.336.343,3.016,3.016,0,0,1-1.331-.264,2.338,2.338,0,0,1-.875-.716,2.9,2.9,0,0,1-.479-1.055,6.321,6.321,0,0,1-.145-1.463v-4.8a.215.215,0,0,1,.031-.119.27.27,0,0,1,.118-.088.753.753,0,0,1,.229-.052c.094-.009.211-.013.352-.013s.257,0,.351.013a.691.691,0,0,1,.224.052.317.317,0,0,1,.119.088.2.2,0,0,1,.035.119V172.2a4.924,4.924,0,0,0,.1,1.112,2.078,2.078,0,0,0,.308.712,1.42,1.42,0,0,0,.523.457,1.586,1.586,0,0,0,.738.163,1.853,1.853,0,0,0,1.085-.387,6.149,6.149,0,0,0,1.147-1.134v-5.528a.224.224,0,0,1,.031-.119.274.274,0,0,1,.119-.088.732.732,0,0,1,.224-.052c.091-.009.209-.013.356-.013s.258,0,.351.013a.651.651,0,0,1,.22.052.375.375,0,0,1,.119.088.185.185,0,0,1,.039.119Z"/><path d="M51.308,174.924a1.8,1.8,0,0,1-.035.4.448.448,0,0,1-.105.22.685.685,0,0,1-.211.132,1.708,1.708,0,0,1-.321.1c-.12.026-.248.048-.382.066a3.409,3.409,0,0,1-1.459-.136,1.714,1.714,0,0,1-.721-.492,2.03,2.03,0,0,1-.409-.835,4.912,4.912,0,0,1-.127-1.191V168.57H46.43a.238.238,0,0,1-.211-.141.992.992,0,0,1-.079-.457,1.577,1.577,0,0,1,.022-.281.853.853,0,0,1,.057-.189.228.228,0,0,1,.093-.106.268.268,0,0,1,.127-.031h1.1v-1.88a.223.223,0,0,1,.031-.115.244.244,0,0,1,.114-.092.772.772,0,0,1,.224-.057,2.854,2.854,0,0,1,.352-.018,2.939,2.939,0,0,1,.36.018.717.717,0,0,1,.22.057.294.294,0,0,1,.114.092.21.21,0,0,1,.035.115v1.88h2.03a.244.244,0,0,1,.123.031.266.266,0,0,1,.093.106.621.621,0,0,1,.057.189,2,2,0,0,1,.017.281.979.979,0,0,1-.079.457.237.237,0,0,1-.211.141h-2.03v4.412a2.517,2.517,0,0,0,.242,1.235.914.914,0,0,0,.865.417,1.466,1.466,0,0,0,.361-.04c.1-.026.2-.054.281-.083s.152-.057.211-.084a.4.4,0,0,1,.158-.039.17.17,0,0,1,.084.022.144.144,0,0,1,.061.083,1,1,0,0,1,.04.167A1.759,1.759,0,0,1,51.308,174.924Z"/><path d="M60.5,171.426a7.137,7.137,0,0,1-.224,1.863,4.076,4.076,0,0,1-.66,1.4,2.952,2.952,0,0,1-1.076.888,3.316,3.316,0,0,1-1.468.312,2.885,2.885,0,0,1-.65-.07,2.521,2.521,0,0,1-.585-.22,3.493,3.493,0,0,1-.567-.378c-.187-.152-.387-.331-.6-.536v3.955a.212.212,0,0,1-.036.123.259.259,0,0,1-.114.088.832.832,0,0,1-.22.053,3.162,3.162,0,0,1-.36.017,3.1,3.1,0,0,1-.352-.017.912.912,0,0,1-.224-.053.238.238,0,0,1-.114-.088.244.244,0,0,1-.031-.123V167.594a.258.258,0,0,1,.027-.127.2.2,0,0,1,.105-.084.705.705,0,0,1,.2-.048,2.821,2.821,0,0,1,.3-.013,2.788,2.788,0,0,1,.3.013.7.7,0,0,1,.2.048.236.236,0,0,1,.11.084.228.228,0,0,1,.031.127v1.063a8.375,8.375,0,0,1,.694-.641,4.174,4.174,0,0,1,.672-.453,3.141,3.141,0,0,1,.7-.272,2.96,2.96,0,0,1,.751-.093,3.01,3.01,0,0,1,1.468.334,2.773,2.773,0,0,1,.989.915,4.063,4.063,0,0,1,.558,1.349A7.3,7.3,0,0,1,60.5,171.426Zm-1.5.167a7.238,7.238,0,0,0-.093-1.173,3.41,3.41,0,0,0-.318-1.007,1.888,1.888,0,0,0-.606-.7,1.62,1.62,0,0,0-.946-.263,1.9,1.9,0,0,0-.558.083,2.316,2.316,0,0,0-.557.264,3.982,3.982,0,0,0-.592.474,7.334,7.334,0,0,0-.654.725v3.147a6.3,6.3,0,0,0,1.14,1.116,1.914,1.914,0,0,0,1.132.387,1.65,1.65,0,0,0,.942-.264,1.993,1.993,0,0,0,.637-.7,3.538,3.538,0,0,0,.358-.984A5.293,5.293,0,0,0,59,171.593Z"/><path d="M69.458,175.5a.222.222,0,0,1-.031.119.241.241,0,0,1-.11.083.766.766,0,0,1-.206.053,2.282,2.282,0,0,1-.312.018,2.448,2.448,0,0,1-.33-.018.7.7,0,0,1-.2-.053.207.207,0,0,1-.1-.083.241.241,0,0,1-.027-.119v-1.046a4.908,4.908,0,0,1-1.336,1.09,2.858,2.858,0,0,1-1.335.343,3.017,3.017,0,0,1-1.332-.264,2.346,2.346,0,0,1-.875-.716,2.911,2.911,0,0,1-.479-1.055,6.376,6.376,0,0,1-.145-1.463v-4.8a.224.224,0,0,1,.031-.119.274.274,0,0,1,.119-.088.746.746,0,0,1,.228-.052c.094-.009.211-.013.352-.013s.258,0,.351.013a.7.7,0,0,1,.225.052.312.312,0,0,1,.118.088.2.2,0,0,1,.035.119V172.2a4.924,4.924,0,0,0,.1,1.112,2.078,2.078,0,0,0,.308.712,1.428,1.428,0,0,0,.523.457,1.586,1.586,0,0,0,.738.163,1.856,1.856,0,0,0,1.086-.387A6.21,6.21,0,0,0,68,173.122v-5.528a.215.215,0,0,1,.031-.119.27.27,0,0,1,.118-.088.739.739,0,0,1,.224-.052c.091-.009.21-.013.356-.013s.258,0,.352.013a.651.651,0,0,1,.22.052.37.37,0,0,1,.118.088.18.18,0,0,1,.04.119Z"/><path d="M76.252,174.924a1.862,1.862,0,0,1-.035.4.457.457,0,0,1-.106.22.685.685,0,0,1-.211.132,1.708,1.708,0,0,1-.321.1c-.12.026-.247.048-.382.066a3.409,3.409,0,0,1-1.459-.136,1.72,1.72,0,0,1-.721-.492,2.042,2.042,0,0,1-.408-.835,4.909,4.909,0,0,1-.128-1.191V168.57H71.374a.237.237,0,0,1-.211-.141.979.979,0,0,1-.079-.457,1.489,1.489,0,0,1,.022-.281.758.758,0,0,1,.057-.189.221.221,0,0,1,.092-.106.272.272,0,0,1,.128-.031h1.1v-1.88a.223.223,0,0,1,.031-.115.249.249,0,0,1,.114-.092.78.78,0,0,1,.224-.057,2.854,2.854,0,0,1,.352-.018,2.939,2.939,0,0,1,.36.018.717.717,0,0,1,.22.057.279.279,0,0,1,.114.092.2.2,0,0,1,.035.115v1.88h2.031a.244.244,0,0,1,.123.031.258.258,0,0,1,.092.106.621.621,0,0,1,.057.189,1.847,1.847,0,0,1,.018.281.992.992,0,0,1-.079.457.237.237,0,0,1-.211.141H73.931v4.412a2.517,2.517,0,0,0,.242,1.235.915.915,0,0,0,.866.417,1.452,1.452,0,0,0,.36-.04c.106-.026.2-.054.281-.083s.153-.057.211-.084a.4.4,0,0,1,.159-.039.164.164,0,0,1,.083.022.15.15,0,0,1,.062.083,1.132,1.132,0,0,1,.039.167A1.622,1.622,0,0,1,76.252,174.924Z"/><path d="M87.2,173.351a2.511,2.511,0,0,1-.224,1.081,2.216,2.216,0,0,1-.637.8,2.892,2.892,0,0,1-.985.492,4.482,4.482,0,0,1-1.257.167,4.813,4.813,0,0,1-1.489-.233,3.539,3.539,0,0,1-.515-.211,1.485,1.485,0,0,1-.307-.2.5.5,0,0,1-.141-.246,1.682,1.682,0,0,1-.044-.43,1.852,1.852,0,0,1,.018-.282.94.94,0,0,1,.044-.184.19.19,0,0,1,.074-.1.2.2,0,0,1,.11-.031.616.616,0,0,1,.286.119q.189.119.466.259a4.237,4.237,0,0,0,.655.259,2.91,2.91,0,0,0,.87.119,2.65,2.65,0,0,0,.668-.079,1.629,1.629,0,0,0,.518-.233,1.046,1.046,0,0,0,.339-.391,1.25,1.25,0,0,0,.118-.563.909.909,0,0,0-.171-.562,1.628,1.628,0,0,0-.453-.405,3.731,3.731,0,0,0-.633-.312q-.351-.137-.725-.285a7.529,7.529,0,0,1-.729-.339,2.8,2.8,0,0,1-.637-.461,2.1,2.1,0,0,1-.453-.651,2.181,2.181,0,0,1-.171-.905,2.271,2.271,0,0,1,.18-.892,2.074,2.074,0,0,1,.54-.747,2.721,2.721,0,0,1,.9-.514,3.742,3.742,0,0,1,1.261-.194,3.863,3.863,0,0,1,.633.053,4.236,4.236,0,0,1,.571.132,2.877,2.877,0,0,1,.436.171,1.945,1.945,0,0,1,.272.163.467.467,0,0,1,.123.123.376.376,0,0,1,.044.119c.009.044.018.1.026.162a1.761,1.761,0,0,1,.014.238,2.149,2.149,0,0,1-.014.259.607.607,0,0,1-.044.18.227.227,0,0,1-.074.1.165.165,0,0,1-.1.031.477.477,0,0,1-.228-.1,3.292,3.292,0,0,0-.387-.206,4.219,4.219,0,0,0-.558-.207,2.564,2.564,0,0,0-.734-.1,2.285,2.285,0,0,0-.651.084,1.261,1.261,0,0,0-.461.237,1,1,0,0,0-.272.365,1.122,1.122,0,0,0-.093.457.931.931,0,0,0,.176.576,1.681,1.681,0,0,0,.457.408,3.8,3.8,0,0,0,.642.317c.24.094.485.19.734.29s.5.211.738.334a2.764,2.764,0,0,1,.646.448,2.033,2.033,0,0,1,.452.633A2.06,2.06,0,0,1,87.2,173.351Z"/><path d="M90.894,164.922a.953.953,0,0,1-.193.694,1.034,1.034,0,0,1-.712.185,1.023,1.023,0,0,1-.7-.18.937.937,0,0,1-.189-.681.956.956,0,0,1,.194-.695,1.04,1.04,0,0,1,.712-.184,1.022,1.022,0,0,1,.7.18A.937.937,0,0,1,90.894,164.922ZM90.727,175.5a.193.193,0,0,1-.035.119.268.268,0,0,1-.114.083.8.8,0,0,1-.22.053,2.939,2.939,0,0,1-.36.018,2.854,2.854,0,0,1-.352-.018.858.858,0,0,1-.224-.053.235.235,0,0,1-.114-.083.213.213,0,0,1-.031-.119v-7.91a.217.217,0,0,1,.031-.114.223.223,0,0,1,.114-.088.858.858,0,0,1,.224-.053,2.879,2.879,0,0,1,.352-.017,2.967,2.967,0,0,1,.36.017.8.8,0,0,1,.22.053.252.252,0,0,1,.114.088.2.2,0,0,1,.035.114Z"/><path d="M100.017,167.954a.9.9,0,0,1-.083.444.248.248,0,0,1-.216.136H98.585a1.779,1.779,0,0,1,.43.7,2.583,2.583,0,0,1,.123.8,3.135,3.135,0,0,1-.219,1.212,2.438,2.438,0,0,1-.629.893,2.811,2.811,0,0,1-.971.558,3.818,3.818,0,0,1-1.248.193,3.248,3.248,0,0,1-.918-.127,1.919,1.919,0,0,1-.673-.321,1.365,1.365,0,0,0-.259.36,1.034,1.034,0,0,0-.1.466.606.606,0,0,0,.285.51,1.386,1.386,0,0,0,.761.219l2.065.088a4.262,4.262,0,0,1,1.081.163,2.687,2.687,0,0,1,.853.413,1.893,1.893,0,0,1,.562.659,1.953,1.953,0,0,1,.2.91,2.439,2.439,0,0,1-.228,1.037,2.381,2.381,0,0,1-.7.866,3.5,3.5,0,0,1-1.2.589,6.135,6.135,0,0,1-1.722.215,7.01,7.01,0,0,1-1.631-.163,3.524,3.524,0,0,1-1.1-.444,1.715,1.715,0,0,1-.624-.672,1.885,1.885,0,0,1-.193-.848,2.244,2.244,0,0,1,.07-.563,2,2,0,0,1,.216-.518,2.482,2.482,0,0,1,.36-.47,4.585,4.585,0,0,1,.5-.444,1.553,1.553,0,0,1-.638-.554,1.353,1.353,0,0,1-.206-.721,2.04,2.04,0,0,1,.22-.958,3.155,3.155,0,0,1,.545-.755,2.58,2.58,0,0,1-.431-.734A2.735,2.735,0,0,1,93,170.1a3.072,3.072,0,0,1,.228-1.213,2.566,2.566,0,0,1,.633-.905,2.774,2.774,0,0,1,.971-.567,3.724,3.724,0,0,1,1.235-.2,5.235,5.235,0,0,1,.672.04,4.834,4.834,0,0,1,.585.109h2.39a.241.241,0,0,1,.225.146A1.017,1.017,0,0,1,100.017,167.954Zm-1.538,8.35a.891.891,0,0,0-.417-.787,2.128,2.128,0,0,0-1.13-.294l-2.048-.07a3.714,3.714,0,0,0-.461.417,2.35,2.35,0,0,0-.286.378,1.279,1.279,0,0,0-.145.356,1.655,1.655,0,0,0-.039.36.931.931,0,0,0,.58.866,3.637,3.637,0,0,0,1.617.294,4.058,4.058,0,0,0,1.1-.127,2.121,2.121,0,0,0,.716-.338,1.249,1.249,0,0,0,.392-.484A1.414,1.414,0,0,0,98.479,176.3Zm-.729-6.267a1.724,1.724,0,0,0-.444-1.261,1.685,1.685,0,0,0-1.261-.453,1.767,1.767,0,0,0-.734.141,1.444,1.444,0,0,0-.519.387,1.639,1.639,0,0,0-.307.567,2.205,2.205,0,0,0-.1.672,1.544,1.544,0,0,0,1.687,1.679,1.894,1.894,0,0,0,.747-.136,1.413,1.413,0,0,0,.523-.378,1.609,1.609,0,0,0,.308-.558A2.168,2.168,0,0,0,97.75,170.037Z"/><path d="M108.692,175.5a.2.2,0,0,1-.035.119.274.274,0,0,1-.114.083.8.8,0,0,1-.22.053,2.854,2.854,0,0,1-.352.018,2.939,2.939,0,0,1-.36-.018.8.8,0,0,1-.22-.053.281.281,0,0,1-.114-.083.2.2,0,0,1-.035-.119v-4.632a4.52,4.52,0,0,0-.106-1.09,2.239,2.239,0,0,0-.307-.711,1.325,1.325,0,0,0-.523-.457,1.655,1.655,0,0,0-.743-.159,1.877,1.877,0,0,0-1.09.387,5.907,5.907,0,0,0-1.142,1.134V175.5a.2.2,0,0,1-.035.119.278.278,0,0,1-.115.083.786.786,0,0,1-.219.053,2.945,2.945,0,0,1-.361.018,2.836,2.836,0,0,1-.351-.018.848.848,0,0,1-.224-.053.243.243,0,0,1-.115-.083.221.221,0,0,1-.03-.119v-7.91a.2.2,0,0,1,.131-.207.619.619,0,0,1,.2-.052,3.129,3.129,0,0,1,.325-.013,3.162,3.162,0,0,1,.321.013.527.527,0,0,1,.2.052.28.28,0,0,1,.1.088.215.215,0,0,1,.031.119v1.046a4.842,4.842,0,0,1,1.332-1.094,2.857,2.857,0,0,1,1.34-.348,2.98,2.98,0,0,1,1.332.269,2.391,2.391,0,0,1,.874.716,2.856,2.856,0,0,1,.479,1.05,6.237,6.237,0,0,1,.145,1.446Z"/><path d="M117.3,175.513a.185.185,0,0,1-.071.158.486.486,0,0,1-.193.079,1.8,1.8,0,0,1-.36.027,1.956,1.956,0,0,1-.365-.027.428.428,0,0,1-.2-.079.2.2,0,0,1-.061-.158v-.791a3.907,3.907,0,0,1-1.156.861,3.068,3.068,0,0,1-1.349.308,3.662,3.662,0,0,1-1.13-.163,2.433,2.433,0,0,1-.861-.47A2.114,2.114,0,0,1,111,174.5a2.5,2.5,0,0,1-.2-1.019,2.352,2.352,0,0,1,.273-1.16,2.263,2.263,0,0,1,.782-.818,3.855,3.855,0,0,1,1.248-.488,7.776,7.776,0,0,1,1.661-.162h1.09v-.615a3.079,3.079,0,0,0-.1-.809,1.406,1.406,0,0,0-.312-.585,1.344,1.344,0,0,0-.559-.351,2.6,2.6,0,0,0-.843-.119,3.356,3.356,0,0,0-.963.128,5.109,5.109,0,0,0-.747.281c-.214.1-.392.2-.536.281a.742.742,0,0,1-.321.128.212.212,0,0,1-.123-.036.291.291,0,0,1-.092-.1.561.561,0,0,1-.057-.18,1.5,1.5,0,0,1-.018-.242,1.516,1.516,0,0,1,.031-.347.5.5,0,0,1,.149-.242,1.949,1.949,0,0,1,.409-.268,4.538,4.538,0,0,1,.668-.281,6.1,6.1,0,0,1,.826-.211,4.908,4.908,0,0,1,.905-.084,4.75,4.75,0,0,1,1.451.194,2.347,2.347,0,0,1,.966.567,2.194,2.194,0,0,1,.537.927,4.5,4.5,0,0,1,.167,1.292Zm-1.442-3.612h-1.239a4.639,4.639,0,0,0-1.037.1,2.134,2.134,0,0,0-.73.3,1.236,1.236,0,0,0-.426.474,1.424,1.424,0,0,0-.136.637,1.273,1.273,0,0,0,.391.98,1.539,1.539,0,0,0,1.094.365,2.038,2.038,0,0,0,1.059-.29,4.538,4.538,0,0,0,1.024-.888Z"/><path d="M121.41,175.5a.2.2,0,0,1-.035.119.278.278,0,0,1-.115.083.786.786,0,0,1-.219.053,2.945,2.945,0,0,1-.361.018,2.847,2.847,0,0,1-.351-.018.848.848,0,0,1-.224-.053.243.243,0,0,1-.115-.083.221.221,0,0,1-.03-.119V163.762a.244.244,0,0,1,.03-.123.23.23,0,0,1,.115-.088.889.889,0,0,1,.224-.053,3.089,3.089,0,0,1,.351-.017,3.194,3.194,0,0,1,.361.017.823.823,0,0,1,.219.053.261.261,0,0,1,.115.088.219.219,0,0,1,.035.123Z"/></svg>