<svg id="Layer_1" data-name="Layer 1" xmlns="http://www.w3.org/2000/svg" width="330.31" height="75.896" viewBox="0 0 330.31 75.896"><defs><style>.cls-1{fill:none;stroke:#000;stroke-miterlimit:10;}</style></defs><path d="M279.685,42H275.4l-6.719,6.225V27.371l6.745,6.225h4.264Z"/><path d="M50.625,33.6h4.29l6.719-6.225V48.225L54.889,42H50.625Z"/><path d="M41.576,39.875a2.532,2.532,0,0,1-.013.285.951.951,0,0,1-.043.192.256.256,0,0,1-.07.111.16.16,0,0,1-.1.033H38a.459.459,0,0,1-.313-.11.448.448,0,0,1-.127-.358V33.4a.16.16,0,0,1,.037-.1.246.246,0,0,1,.121-.073,1.168,1.168,0,0,1,.229-.045,3.81,3.81,0,0,1,.719,0,1.162,1.162,0,0,1,.226.045.259.259,0,0,1,.122.073.159.159,0,0,1,.036.1v5.876h2.3a.171.171,0,0,1,.1.031.232.232,0,0,1,.07.1.828.828,0,0,1,.043.186A2.544,2.544,0,0,1,41.576,39.875Z"/><path d="M293.546,40.3a.221.221,0,0,1-.022.1.178.178,0,0,1-.108.07,1.05,1.05,0,0,1-.248.04c-.109.008-.258.011-.446.011-.157,0-.284,0-.378-.011a.894.894,0,0,1-.223-.042.257.257,0,0,1-.116-.079.446.446,0,0,1-.055-.116l-.656-1.631q-.119-.278-.231-.492a1.562,1.562,0,0,0-.251-.358.945.945,0,0,0-.319-.218,1.106,1.106,0,0,0-.418-.073h-.463v2.783a.161.161,0,0,1-.036.1.266.266,0,0,1-.123.073,1.1,1.1,0,0,1-.225.045,2.974,2.974,0,0,1-.361.017,3.016,3.016,0,0,1-.359-.017,1.14,1.14,0,0,1-.228-.045.241.241,0,0,1-.119-.073.171.171,0,0,1-.034-.1V33.66a.452.452,0,0,1,.127-.359.465.465,0,0,1,.314-.109h1.89c.193,0,.351,0,.475.011s.237.017.339.028a3.141,3.141,0,0,1,.793.214,1.924,1.924,0,0,1,.6.4,1.676,1.676,0,0,1,.375.582,2.117,2.117,0,0,1,.13.77,2.3,2.3,0,0,1-.092.669,1.732,1.732,0,0,1-.275.54,1.794,1.794,0,0,1-.445.412,2.425,2.425,0,0,1-.605.282,1.689,1.689,0,0,1,.308.192,1.6,1.6,0,0,1,.271.274,2.76,2.76,0,0,1,.24.366,4.764,4.764,0,0,1,.22.466l.616,1.44c.056.143.093.247.112.313A.6.6,0,0,1,293.546,40.3Zm-1.913-4.956a1.087,1.087,0,0,0-.164-.61.894.894,0,0,0-.536-.35,1.969,1.969,0,0,0-.257-.045,3.67,3.67,0,0,0-.4-.017h-.666V36.4h.756a1.8,1.8,0,0,0,.553-.076,1.122,1.122,0,0,0,.4-.215.882.882,0,0,0,.237-.33A1.112,1.112,0,0,0,291.633,35.348Z"/><circle cx="165.155" cy="37.798" r="5.54"/><line class="cls-1" x1="77.931" y1="37.948" x2="252.379" y2="37.948"/></svg>