<svg id="Layer_1" data-name="Layer 1" xmlns="http://www.w3.org/2000/svg" width="401.778" height="227.185" viewBox="0 0 401.778 227.185"><defs><style>.cls-1,.cls-2{fill:#fff;stroke-miterlimit:10;stroke-width:2px;}.cls-1{stroke:#000;}.cls-2{stroke:#cecccc;}.cls-3{fill:#7e7e7e;}</style></defs><rect x="148.148" y="168.645" width="13.704" height="17.743"/><path d="M267.747,181.719h-4.29l-6.719,6.224V167.089l6.745,6.226h4.264Z"/><path d="M16.786,173.314h4.29l6.719-6.225v20.854l-6.745-6.225H16.786Z"/><path d="M213.586,19.749v4.29l6.225,6.719H198.957l6.225-6.745V19.749Z"/><path d="M194.654,7.887a2.472,2.472,0,0,1-.014.28.731.731,0,0,1-.043.186.246.246,0,0,1-.07.1.146.146,0,0,1-.093.034h-1.829v5.888a.162.162,0,0,1-.037.1.263.263,0,0,1-.121.073,1.168,1.168,0,0,1-.229.045,3.789,3.789,0,0,1-.717,0,1.126,1.126,0,0,1-.228-.045.257.257,0,0,1-.122-.073.155.155,0,0,1-.036-.1V8.491h-1.83a.135.135,0,0,1-.095-.034.255.255,0,0,1-.069-.1.782.782,0,0,1-.042-.186,2.472,2.472,0,0,1-.014-.28,2.587,2.587,0,0,1,.014-.288.787.787,0,0,1,.042-.189.24.24,0,0,1,.069-.1.148.148,0,0,1,.095-.031h5.149a.162.162,0,0,1,.093.031.232.232,0,0,1,.07.1.737.737,0,0,1,.043.189A2.587,2.587,0,0,1,194.654,7.887Z"/><path d="M200.806,12.392a2.2,2.2,0,0,1-.106.705,1.866,1.866,0,0,1-.749.977,2.608,2.608,0,0,1-.579.288,3.534,3.534,0,0,1-.674.166,5.257,5.257,0,0,1-.8.054h-1.942a.464.464,0,0,1-.313-.11.45.45,0,0,1-.127-.359V7.746a.452.452,0,0,1,.127-.359.464.464,0,0,1,.313-.11h1.835a4.916,4.916,0,0,1,1.137.113,2.224,2.224,0,0,1,.785.342,1.5,1.5,0,0,1,.488.579,1.854,1.854,0,0,1,.169.824,1.791,1.791,0,0,1-.067.5,1.5,1.5,0,0,1-.2.427,1.484,1.484,0,0,1-.32.338,1.616,1.616,0,0,1-.431.237,1.954,1.954,0,0,1,.573.2,1.615,1.615,0,0,1,.457.364,1.716,1.716,0,0,1,.308.522A1.9,1.9,0,0,1,200.806,12.392Zm-1.919-3.077a1.1,1.1,0,0,0-.067-.395.739.739,0,0,0-.2-.291.947.947,0,0,0-.342-.177,1.953,1.953,0,0,0-.551-.063h-.751v1.9h.83a1.418,1.418,0,0,0,.514-.076.9.9,0,0,0,.319-.209.836.836,0,0,0,.189-.31A1.119,1.119,0,0,0,198.887,9.315Zm.378,3.127a1.166,1.166,0,0,0-.084-.454.885.885,0,0,0-.249-.336,1.15,1.15,0,0,0-.417-.209,2.49,2.49,0,0,0-.661-.073h-.881v2.077h1.073a1.777,1.777,0,0,0,.522-.065,1.077,1.077,0,0,0,.367-.191.9.9,0,0,0,.243-.316A1.024,1.024,0,0,0,199.265,12.442Z"/><path d="M206.012,13.961a2.5,2.5,0,0,1-.014.285.832.832,0,0,1-.043.192.243.243,0,0,1-.07.11.151.151,0,0,1-.1.034h-3.347a.466.466,0,0,1-.314-.11.45.45,0,0,1-.127-.359V7.481a.16.16,0,0,1,.037-.1.254.254,0,0,1,.122-.073,1.205,1.205,0,0,1,.228-.046,4.058,4.058,0,0,1,.72,0,1.2,1.2,0,0,1,.225.046.254.254,0,0,1,.122.073.155.155,0,0,1,.037.1v5.876h2.3a.167.167,0,0,1,.1.031.225.225,0,0,1,.07.1.731.731,0,0,1,.043.186A2.5,2.5,0,0,1,206.012,13.961Z"/><path d="M207.514,16.044a.382.382,0,0,1-.073.119.339.339,0,0,1-.128.073.934.934,0,0,1-.2.042,3.141,3.141,0,0,1-.686-.008.64.64,0,0,1-.223-.068.165.165,0,0,1-.087-.116.343.343,0,0,1,.022-.166l3.376-9.478a.313.313,0,0,1,.067-.122.34.34,0,0,1,.125-.076.961.961,0,0,1,.206-.042,2.7,2.7,0,0,1,.308-.014,2.441,2.441,0,0,1,.381.023.6.6,0,0,1,.217.067.168.168,0,0,1,.085.116.376.376,0,0,1-.017.167Z"/><path d="M216.714,7.887a2.761,2.761,0,0,1-.013.28.776.776,0,0,1-.043.186.239.239,0,0,1-.071.1.143.143,0,0,1-.093.034h-1.829v5.888a.156.156,0,0,1-.037.1.253.253,0,0,1-.121.073,1.156,1.156,0,0,1-.228.045,3.789,3.789,0,0,1-.717,0,1.138,1.138,0,0,1-.229-.045.267.267,0,0,1-.122-.073.161.161,0,0,1-.036-.1V8.491h-1.829a.139.139,0,0,1-.1-.034.264.264,0,0,1-.068-.1.735.735,0,0,1-.042-.186,2.238,2.238,0,0,1-.015-.28,2.343,2.343,0,0,1,.015-.288.742.742,0,0,1,.042-.189.248.248,0,0,1,.068-.1.153.153,0,0,1,.1-.031h5.148a.157.157,0,0,1,.093.031.226.226,0,0,1,.071.1.782.782,0,0,1,.043.189C216.709,7.678,216.714,7.774,216.714,7.887Z"/><path d="M222.868,12.392a2.2,2.2,0,0,1-.107.705,1.871,1.871,0,0,1-.748.977,2.63,2.63,0,0,1-.579.288,3.545,3.545,0,0,1-.675.166,5.248,5.248,0,0,1-.8.054h-1.941a.466.466,0,0,1-.314-.11.45.45,0,0,1-.127-.359V7.746a.452.452,0,0,1,.127-.359.466.466,0,0,1,.314-.11h1.835a4.923,4.923,0,0,1,1.137.113,2.232,2.232,0,0,1,.785.342,1.5,1.5,0,0,1,.488.579,1.868,1.868,0,0,1,.169.824,1.829,1.829,0,0,1-.067.5,1.5,1.5,0,0,1-.2.427,1.48,1.48,0,0,1-.319.338,1.623,1.623,0,0,1-.432.237,1.961,1.961,0,0,1,.574.2,1.629,1.629,0,0,1,.457.364,1.713,1.713,0,0,1,.307.522A1.9,1.9,0,0,1,222.868,12.392Zm-1.919-3.077a1.1,1.1,0,0,0-.068-.395.729.729,0,0,0-.2-.291.939.939,0,0,0-.342-.177,1.943,1.943,0,0,0-.551-.063h-.75v1.9h.83a1.416,1.416,0,0,0,.513-.076A.9.9,0,0,0,220.7,10a.834.834,0,0,0,.188-.31A1.12,1.12,0,0,0,220.949,9.315Zm.377,3.127a1.185,1.185,0,0,0-.083-.454.878.878,0,0,0-.25-.336,1.15,1.15,0,0,0-.417-.209,2.479,2.479,0,0,0-.661-.073h-.88v2.077h1.073a1.765,1.765,0,0,0,.521-.065,1.059,1.059,0,0,0,.367-.191.887.887,0,0,0,.244-.316A1.039,1.039,0,0,0,221.326,12.442Z"/><path d="M229.478,14.39a.212.212,0,0,1-.023.1.176.176,0,0,1-.107.07,1.069,1.069,0,0,1-.248.04c-.109.007-.258.011-.446.011-.158,0-.285,0-.378-.011a.894.894,0,0,1-.223-.042.241.241,0,0,1-.116-.08.425.425,0,0,1-.056-.115l-.655-1.632q-.119-.276-.232-.491a1.54,1.54,0,0,0-.251-.358.922.922,0,0,0-.319-.218,1.1,1.1,0,0,0-.418-.073h-.463v2.783a.155.155,0,0,1-.036.1.257.257,0,0,1-.122.073,1.135,1.135,0,0,1-.225.045,3.82,3.82,0,0,1-.72,0,1.168,1.168,0,0,1-.229-.045.242.242,0,0,1-.118-.073.171.171,0,0,1-.034-.1V7.746a.452.452,0,0,1,.127-.359.464.464,0,0,1,.313-.11h1.891c.192,0,.351,0,.475.012s.237.017.338.028a3.088,3.088,0,0,1,.793.214,1.917,1.917,0,0,1,.6.4,1.676,1.676,0,0,1,.375.582,2.117,2.117,0,0,1,.13.77,2.263,2.263,0,0,1-.093.669,1.7,1.7,0,0,1-.274.539,1.762,1.762,0,0,1-.446.412,2.4,2.4,0,0,1-.6.283,1.617,1.617,0,0,1,.308.192,1.668,1.668,0,0,1,.271.273,2.738,2.738,0,0,1,.239.367,4.758,4.758,0,0,1,.221.466l.615,1.439c.057.144.094.248.113.314A.6.6,0,0,1,229.478,14.39Zm-1.913-4.956a1.087,1.087,0,0,0-.164-.61.9.9,0,0,0-.536-.35,2.031,2.031,0,0,0-.257-.045,3.691,3.691,0,0,0-.4-.017h-.666v2.072h.757a1.8,1.8,0,0,0,.553-.076,1.108,1.108,0,0,0,.395-.215.874.874,0,0,0,.238-.33A1.13,1.13,0,0,0,227.565,9.434Z"/><path d="M25.079,198.044c0,.094,0,.174-.008.239a1.115,1.115,0,0,1-.026.17.463.463,0,0,1-.045.121.6.6,0,0,1-.09.116,1.2,1.2,0,0,1-.24.167,2.881,2.881,0,0,1-.435.194,3.849,3.849,0,0,1-.587.156,3.9,3.9,0,0,1-.714.062,3.768,3.768,0,0,1-1.355-.232,2.673,2.673,0,0,1-1.027-.691A3.091,3.091,0,0,1,19.9,197.2a5.141,5.141,0,0,1-.226-1.6,5.062,5.062,0,0,1,.248-1.653,3.465,3.465,0,0,1,.694-1.214,2.912,2.912,0,0,1,1.07-.745,3.619,3.619,0,0,1,1.375-.254,3.4,3.4,0,0,1,.587.05,3.82,3.82,0,0,1,.522.133,2.7,2.7,0,0,1,.432.189,1.277,1.277,0,0,1,.268.184.68.68,0,0,1,.105.127.514.514,0,0,1,.045.13,1.533,1.533,0,0,1,.025.186c.006.071.009.16.009.265s0,.209-.012.288a.759.759,0,0,1-.039.192.263.263,0,0,1-.068.107.135.135,0,0,1-.09.034.392.392,0,0,1-.215-.1,3.465,3.465,0,0,0-.336-.22,2.726,2.726,0,0,0-.491-.22,2.076,2.076,0,0,0-.68-.1,1.61,1.61,0,0,0-1.358.686,2.389,2.389,0,0,0-.363.8,4.117,4.117,0,0,0-.125,1.056,4.2,4.2,0,0,0,.132,1.114,2.176,2.176,0,0,0,.378.777,1.54,1.54,0,0,0,.593.454,1.955,1.955,0,0,0,.782.15,2.236,2.236,0,0,0,.684-.093,2.9,2.9,0,0,0,.493-.206q.207-.114.339-.2a.422.422,0,0,1,.206-.09.158.158,0,0,1,.091.023.168.168,0,0,1,.056.09.913.913,0,0,1,.034.189C25.076,197.8,25.079,197.908,25.079,198.044Z"/><path d="M253.233,196.96a2.169,2.169,0,0,1-.107.7,1.89,1.89,0,0,1-.3.559,1.913,1.913,0,0,1-.451.418,2.675,2.675,0,0,1-.579.288,3.526,3.526,0,0,1-.675.166,5.375,5.375,0,0,1-.8.054h-1.942a.464.464,0,0,1-.313-.11.452.452,0,0,1-.127-.359v-6.367a.452.452,0,0,1,.127-.359.464.464,0,0,1,.313-.11h1.835a4.923,4.923,0,0,1,1.137.113,2.232,2.232,0,0,1,.785.342,1.507,1.507,0,0,1,.488.578,1.861,1.861,0,0,1,.169.825,1.8,1.8,0,0,1-.067.5,1.523,1.523,0,0,1-.2.426,1.489,1.489,0,0,1-.32.339,1.616,1.616,0,0,1-.431.237,1.982,1.982,0,0,1,.573.2,1.636,1.636,0,0,1,.457.365,1.682,1.682,0,0,1,.307.522A1.872,1.872,0,0,1,253.233,196.96Zm-1.919-3.077a1.091,1.091,0,0,0-.068-.4.713.713,0,0,0-.2-.291.939.939,0,0,0-.342-.177,1.94,1.94,0,0,0-.55-.063H249.4v1.9h.83a1.409,1.409,0,0,0,.513-.076.9.9,0,0,0,.32-.209.83.83,0,0,0,.188-.311A1.11,1.11,0,0,0,251.314,193.883Zm.378,3.127a1.185,1.185,0,0,0-.084-.454.878.878,0,0,0-.249-.336,1.158,1.158,0,0,0-.417-.209,2.449,2.449,0,0,0-.661-.073H249.4v2.077h1.073a1.765,1.765,0,0,0,.521-.065,1.057,1.057,0,0,0,.368-.192.887.887,0,0,0,.243-.316A1.038,1.038,0,0,0,251.692,197.01Z"/><path d="M258.438,198.529a2.5,2.5,0,0,1-.014.285.888.888,0,0,1-.043.192.243.243,0,0,1-.07.11.153.153,0,0,1-.1.034h-3.347a.466.466,0,0,1-.314-.11.452.452,0,0,1-.127-.359v-6.633a.159.159,0,0,1,.037-.1.255.255,0,0,1,.121-.073,1.158,1.158,0,0,1,.229-.046,4.058,4.058,0,0,1,.72,0,1.141,1.141,0,0,1,.225.046.254.254,0,0,1,.122.073.153.153,0,0,1,.036.1v5.877h2.3a.169.169,0,0,1,.1.031.225.225,0,0,1,.07.1.776.776,0,0,1,.043.186A2.5,2.5,0,0,1,258.438,198.529Z"/><path d="M259.94,200.612a.382.382,0,0,1-.073.119.348.348,0,0,1-.128.073.932.932,0,0,1-.2.042,3.309,3.309,0,0,1-.685-.008.64.64,0,0,1-.223-.068.166.166,0,0,1-.088-.116.344.344,0,0,1,.023-.166l3.376-9.478a.3.3,0,0,1,.067-.122.324.324,0,0,1,.125-.076.948.948,0,0,1,.206-.042,2.7,2.7,0,0,1,.308-.014,2.592,2.592,0,0,1,.381.022.63.63,0,0,1,.217.068.166.166,0,0,1,.084.116.383.383,0,0,1-.016.166Z"/><path d="M269.57,196.96a2.169,2.169,0,0,1-.107.7,1.89,1.89,0,0,1-.3.559,1.913,1.913,0,0,1-.451.418,2.675,2.675,0,0,1-.579.288,3.526,3.526,0,0,1-.675.166,5.379,5.379,0,0,1-.8.054h-1.941a.464.464,0,0,1-.313-.11.452.452,0,0,1-.127-.359v-6.367a.452.452,0,0,1,.127-.359.464.464,0,0,1,.313-.11h1.835a4.923,4.923,0,0,1,1.137.113,2.232,2.232,0,0,1,.785.342,1.507,1.507,0,0,1,.488.578,1.875,1.875,0,0,1,.169.825,1.8,1.8,0,0,1-.067.5,1.5,1.5,0,0,1-.2.426,1.463,1.463,0,0,1-.319.339,1.607,1.607,0,0,1-.432.237,1.989,1.989,0,0,1,.574.2,1.636,1.636,0,0,1,.457.365,1.682,1.682,0,0,1,.307.522A1.872,1.872,0,0,1,269.57,196.96Zm-1.919-3.077a1.091,1.091,0,0,0-.068-.4.722.722,0,0,0-.2-.291.939.939,0,0,0-.342-.177,1.94,1.94,0,0,0-.55-.063h-.751v1.9h.83a1.412,1.412,0,0,0,.513-.076.9.9,0,0,0,.32-.209.83.83,0,0,0,.188-.311A1.11,1.11,0,0,0,267.651,193.883Zm.378,3.127a1.185,1.185,0,0,0-.084-.454.878.878,0,0,0-.249-.336,1.158,1.158,0,0,0-.417-.209,2.449,2.449,0,0,0-.661-.073h-.881v2.077h1.073a1.765,1.765,0,0,0,.521-.065,1.057,1.057,0,0,0,.368-.192.887.887,0,0,0,.243-.316A1.038,1.038,0,0,0,268.029,197.01Z"/><path d="M276.18,198.958a.223.223,0,0,1-.022.1.182.182,0,0,1-.108.07,1.026,1.026,0,0,1-.248.039c-.109.008-.258.012-.446.012-.157,0-.284,0-.378-.012a.811.811,0,0,1-.223-.042.245.245,0,0,1-.116-.079.456.456,0,0,1-.056-.115l-.655-1.632q-.119-.276-.231-.491a1.6,1.6,0,0,0-.251-.358.921.921,0,0,0-.32-.218,1.1,1.1,0,0,0-.418-.073h-.463v2.783a.153.153,0,0,1-.036.1.25.25,0,0,1-.122.074,1.119,1.119,0,0,1-.225.045,3.2,3.2,0,0,1-.362.017,3.237,3.237,0,0,1-.358-.017,1.168,1.168,0,0,1-.229-.045.236.236,0,0,1-.118-.074.168.168,0,0,1-.034-.1v-6.633a.452.452,0,0,1,.127-.359.464.464,0,0,1,.313-.11h1.891c.193,0,.351,0,.475.012s.237.017.339.028a3.1,3.1,0,0,1,.793.214,1.924,1.924,0,0,1,.6.4,1.676,1.676,0,0,1,.375.582,2.117,2.117,0,0,1,.13.77,2.263,2.263,0,0,1-.093.669,1.7,1.7,0,0,1-.274.539,1.793,1.793,0,0,1-.445.412,2.427,2.427,0,0,1-.605.283,1.663,1.663,0,0,1,.308.191,1.716,1.716,0,0,1,.271.274,2.738,2.738,0,0,1,.239.367,4.539,4.539,0,0,1,.221.466l.615,1.439c.057.143.094.248.113.314A.592.592,0,0,1,276.18,198.958ZM274.267,194a1.087,1.087,0,0,0-.164-.61.9.9,0,0,0-.536-.35,1.969,1.969,0,0,0-.257-.045,3.448,3.448,0,0,0-.4-.017h-.666v2.072H273a1.829,1.829,0,0,0,.553-.076,1.138,1.138,0,0,0,.4-.215.882.882,0,0,0,.237-.33A1.112,1.112,0,0,0,274.267,194Z"/><path d="M144.265,196.96a2.244,2.244,0,0,1-.215,1.01,2.078,2.078,0,0,1-.581.725,2.541,2.541,0,0,1-.858.438,3.645,3.645,0,0,1-1.05.147,3.784,3.784,0,0,1-.7-.062,4.011,4.011,0,0,1-.573-.15,2.467,2.467,0,0,1-.415-.183,1.2,1.2,0,0,1-.24-.17.411.411,0,0,1-.1-.212,1.89,1.89,0,0,1-.032-.4q0-.175.012-.294a.878.878,0,0,1,.036-.192.213.213,0,0,1,.069-.1.158.158,0,0,1,.1-.032.472.472,0,0,1,.223.094,3.976,3.976,0,0,0,.37.206,3.334,3.334,0,0,0,.539.206,2.555,2.555,0,0,0,.726.093,1.65,1.65,0,0,0,.485-.065,1.083,1.083,0,0,0,.364-.183.785.785,0,0,0,.229-.294.931.931,0,0,0,.079-.39.687.687,0,0,0-.136-.426,1.389,1.389,0,0,0-.352-.316,3.912,3.912,0,0,0-.494-.26c-.185-.08-.375-.166-.571-.256a5.316,5.316,0,0,1-.57-.308,2.3,2.3,0,0,1-.494-.412,1.957,1.957,0,0,1-.353-.567,2.3,2.3,0,0,1,.06-1.708,1.908,1.908,0,0,1,.524-.661,2.272,2.272,0,0,1,.78-.392,3.42,3.42,0,0,1,.951-.13,3.489,3.489,0,0,1,.519.04,3.547,3.547,0,0,1,.486.107,2.616,2.616,0,0,1,.4.153.89.89,0,0,1,.231.141.408.408,0,0,1,.078.1.492.492,0,0,1,.033.1.939.939,0,0,1,.019.164c0,.066.006.148.006.245s0,.2-.008.277a1.084,1.084,0,0,1-.028.186.229.229,0,0,1-.057.108.14.14,0,0,1-.1.033.479.479,0,0,1-.2-.078c-.089-.053-.2-.111-.333-.173a3.175,3.175,0,0,0-.457-.169,2.005,2.005,0,0,0-.57-.076,1.342,1.342,0,0,0-.423.059.857.857,0,0,0-.3.164.645.645,0,0,0-.181.251.83.83,0,0,0-.059.31.68.68,0,0,0,.133.421,1.255,1.255,0,0,0,.356.316,3.812,3.812,0,0,0,.5.26c.189.08.38.166.577.257a5.792,5.792,0,0,1,.575.307,2.329,2.329,0,0,1,.5.412,1.936,1.936,0,0,1,.355.565A1.962,1.962,0,0,1,144.265,196.96Z"/><path d="M149.413,198.529a2.532,2.532,0,0,1-.013.285.951.951,0,0,1-.043.192.244.244,0,0,1-.071.11.15.15,0,0,1-.1.034H145.84a.464.464,0,0,1-.313-.11.452.452,0,0,1-.127-.359v-6.633a.154.154,0,0,1,.037-.1.246.246,0,0,1,.121-.073,1.162,1.162,0,0,1,.228-.046,4.058,4.058,0,0,1,.72,0,1.153,1.153,0,0,1,.226.046.264.264,0,0,1,.122.073.158.158,0,0,1,.036.1v5.877h2.3a.166.166,0,0,1,.1.031.226.226,0,0,1,.071.1.828.828,0,0,1,.043.186A2.532,2.532,0,0,1,149.413,198.529Z"/><path d="M150.915,200.612a.365.365,0,0,1-.073.119.332.332,0,0,1-.128.073.934.934,0,0,1-.2.042,2.616,2.616,0,0,1-.308.014,2.57,2.57,0,0,1-.377-.022.64.64,0,0,1-.223-.068.166.166,0,0,1-.088-.116.342.342,0,0,1,.022-.166l3.376-9.478a.308.308,0,0,1,.068-.122.324.324,0,0,1,.125-.076.948.948,0,0,1,.206-.042,2.677,2.677,0,0,1,.307-.014,2.574,2.574,0,0,1,.381.022.623.623,0,0,1,.217.068.168.168,0,0,1,.085.116.37.37,0,0,1-.017.166Z"/><path d="M159.585,196.96a2.244,2.244,0,0,1-.215,1.01,2.066,2.066,0,0,1-.581.725,2.541,2.541,0,0,1-.858.438,3.645,3.645,0,0,1-1.05.147,3.784,3.784,0,0,1-.7-.062,4.011,4.011,0,0,1-.573-.15,2.453,2.453,0,0,1-.414-.183,1.142,1.142,0,0,1-.24-.17.419.419,0,0,1-.1-.212,1.974,1.974,0,0,1-.031-.4c0-.117,0-.215.011-.294a.816.816,0,0,1,.037-.192.212.212,0,0,1,.068-.1.161.161,0,0,1,.1-.032.47.47,0,0,1,.222.094,3.976,3.976,0,0,0,.37.206,3.371,3.371,0,0,0,.539.206,2.56,2.56,0,0,0,.726.093,1.646,1.646,0,0,0,.485-.065,1.1,1.1,0,0,0,.365-.183.793.793,0,0,0,.228-.294.931.931,0,0,0,.079-.39.692.692,0,0,0-.135-.426,1.378,1.378,0,0,0-.353-.316,3.912,3.912,0,0,0-.494-.26c-.185-.08-.375-.166-.57-.256a5.33,5.33,0,0,1-.571-.308,2.353,2.353,0,0,1-.494-.412,1.955,1.955,0,0,1-.352-.567,2.305,2.305,0,0,1,.059-1.708,1.911,1.911,0,0,1,.525-.661,2.259,2.259,0,0,1,.779-.392,3.425,3.425,0,0,1,.951-.13,3.5,3.5,0,0,1,.52.04,3.565,3.565,0,0,1,.485.107,2.616,2.616,0,0,1,.4.153.9.9,0,0,1,.232.141.4.4,0,0,1,.077.1.44.44,0,0,1,.033.1.927.927,0,0,1,.02.164c0,.066,0,.148,0,.245s0,.2-.007.277a1.073,1.073,0,0,1-.029.186.228.228,0,0,1-.056.108.144.144,0,0,1-.1.033.477.477,0,0,1-.2-.078c-.09-.053-.2-.111-.333-.173a3.221,3.221,0,0,0-.457-.169,2.017,2.017,0,0,0-.571-.076,1.335,1.335,0,0,0-.422.059.862.862,0,0,0-.3.164.655.655,0,0,0-.181.251.829.829,0,0,0-.058.31.686.686,0,0,0,.132.421,1.255,1.255,0,0,0,.356.316,3.766,3.766,0,0,0,.5.26q.282.12.576.257a5.683,5.683,0,0,1,.575.307,2.282,2.282,0,0,1,.5.412,1.918,1.918,0,0,1,.356.565A1.981,1.981,0,0,1,159.585,196.96Z"/><path d="M166.139,198.958a.223.223,0,0,1-.022.1.182.182,0,0,1-.108.07,1.026,1.026,0,0,1-.248.039c-.109.008-.258.012-.446.012-.157,0-.284,0-.378-.012a.811.811,0,0,1-.223-.042.245.245,0,0,1-.116-.079.456.456,0,0,1-.056-.115l-.655-1.632q-.119-.276-.231-.491a1.6,1.6,0,0,0-.251-.358.921.921,0,0,0-.32-.218,1.1,1.1,0,0,0-.418-.073H162.2v2.783a.153.153,0,0,1-.036.1.25.25,0,0,1-.122.074,1.119,1.119,0,0,1-.225.045,3.2,3.2,0,0,1-.362.017,3.237,3.237,0,0,1-.358-.017,1.168,1.168,0,0,1-.229-.045.236.236,0,0,1-.118-.074.168.168,0,0,1-.034-.1v-6.633a.452.452,0,0,1,.127-.359.464.464,0,0,1,.313-.11h1.891c.192,0,.351,0,.475.012s.237.017.339.028a3.1,3.1,0,0,1,.793.214,1.924,1.924,0,0,1,.6.4,1.676,1.676,0,0,1,.375.582,2.117,2.117,0,0,1,.13.77,2.263,2.263,0,0,1-.093.669,1.7,1.7,0,0,1-.274.539,1.793,1.793,0,0,1-.445.412,2.427,2.427,0,0,1-.605.283,1.663,1.663,0,0,1,.308.191,1.716,1.716,0,0,1,.271.274,2.738,2.738,0,0,1,.239.367,4.539,4.539,0,0,1,.221.466l.615,1.439c.057.143.094.248.113.314A.592.592,0,0,1,166.139,198.958ZM164.226,194a1.087,1.087,0,0,0-.164-.61.9.9,0,0,0-.536-.35,1.969,1.969,0,0,0-.257-.045,3.448,3.448,0,0,0-.4-.017H162.2v2.072h.757a1.829,1.829,0,0,0,.553-.076,1.138,1.138,0,0,0,.4-.215.882.882,0,0,0,.237-.33A1.112,1.112,0,0,0,164.226,194Z"/><path d="M41.048,173.314h4.29l6.719-6.225v20.854l-6.745-6.225H41.048Z"/><path d="M38.413,192.455a2.291,2.291,0,0,1-.014.285.641.641,0,0,1-.045.183.289.289,0,0,1-.07.1.141.141,0,0,1-.091.034H35.805v1.965h2.241a.153.153,0,0,1,.091.028.236.236,0,0,1,.07.1.6.6,0,0,1,.045.18,2.857,2.857,0,0,1,0,.565.685.685,0,0,1-.045.186.269.269,0,0,1-.07.1.148.148,0,0,1-.091.03H35.805v2.722a.171.171,0,0,1-.034.107.26.26,0,0,1-.121.076,1.067,1.067,0,0,1-.229.048,3.82,3.82,0,0,1-.72,0,1.018,1.018,0,0,1-.228-.048.271.271,0,0,1-.121-.076.162.162,0,0,1-.037-.107v-6.622a.452.452,0,0,1,.127-.359.464.464,0,0,1,.313-.11h3.438a.149.149,0,0,1,.091.031.271.271,0,0,1,.07.1.69.69,0,0,1,.045.189A2.365,2.365,0,0,1,38.413,192.455Z"/><path d="M43.635,198.529a2.5,2.5,0,0,1-.014.285.832.832,0,0,1-.043.192.243.243,0,0,1-.07.11.15.15,0,0,1-.1.034H40.062a.466.466,0,0,1-.314-.11.452.452,0,0,1-.127-.359v-6.633a.155.155,0,0,1,.038-.1.246.246,0,0,1,.121-.073,1.131,1.131,0,0,1,.228-.046,4.058,4.058,0,0,1,.72,0,1.126,1.126,0,0,1,.225.046.263.263,0,0,1,.123.073.158.158,0,0,1,.036.1v5.877h2.3a.166.166,0,0,1,.1.031.225.225,0,0,1,.07.1.731.731,0,0,1,.043.186A2.5,2.5,0,0,1,43.635,198.529Z"/><path d="M45.137,200.612a.365.365,0,0,1-.073.119.332.332,0,0,1-.128.073.934.934,0,0,1-.2.042,3.318,3.318,0,0,1-.686-.008.634.634,0,0,1-.222-.068.164.164,0,0,1-.088-.116.342.342,0,0,1,.022-.166l3.376-9.478a.306.306,0,0,1,.067-.122.34.34,0,0,1,.125-.076.958.958,0,0,1,.207-.042,2.677,2.677,0,0,1,.307-.014,2.592,2.592,0,0,1,.381.022.623.623,0,0,1,.217.068.168.168,0,0,1,.085.116.37.37,0,0,1-.017.166Z"/><path d="M53.576,192.455a2.291,2.291,0,0,1-.014.285.641.641,0,0,1-.045.183.289.289,0,0,1-.07.1.141.141,0,0,1-.091.034H50.968v1.965h2.241a.153.153,0,0,1,.091.028.228.228,0,0,1,.07.1.6.6,0,0,1,.045.18,2.857,2.857,0,0,1,0,.565.685.685,0,0,1-.045.186.259.259,0,0,1-.07.1.148.148,0,0,1-.091.03H50.968v2.722a.171.171,0,0,1-.034.107.26.26,0,0,1-.121.076,1.067,1.067,0,0,1-.229.048,3.81,3.81,0,0,1-.719,0,1.016,1.016,0,0,1-.229-.048.271.271,0,0,1-.121-.076.167.167,0,0,1-.037-.107v-6.622a.452.452,0,0,1,.127-.359.464.464,0,0,1,.313-.11h3.438a.149.149,0,0,1,.091.031.271.271,0,0,1,.07.1.69.69,0,0,1,.045.189A2.365,2.365,0,0,1,53.576,192.455Z"/><path d="M60.2,198.958a.212.212,0,0,1-.022.1.182.182,0,0,1-.107.07,1.026,1.026,0,0,1-.248.039c-.11.008-.258.012-.447.012-.157,0-.284,0-.378-.012a.8.8,0,0,1-.222-.042.248.248,0,0,1-.117-.079.424.424,0,0,1-.055-.115l-.655-1.632q-.12-.276-.232-.491a1.54,1.54,0,0,0-.251-.358.917.917,0,0,0-.319-.218,1.1,1.1,0,0,0-.418-.073h-.463v2.783a.158.158,0,0,1-.036.1.26.26,0,0,1-.122.074,1.131,1.131,0,0,1-.226.045,3.194,3.194,0,0,1-.361.017,3.244,3.244,0,0,1-.359-.017,1.171,1.171,0,0,1-.228-.045.227.227,0,0,1-.118-.074.162.162,0,0,1-.034-.1v-6.633a.455.455,0,0,1,.126-.359.466.466,0,0,1,.314-.11h1.891q.288,0,.474.012c.124.007.237.017.339.028a3.088,3.088,0,0,1,.793.214,1.929,1.929,0,0,1,.6.4,1.676,1.676,0,0,1,.375.582,2.117,2.117,0,0,1,.13.77,2.3,2.3,0,0,1-.093.669,1.727,1.727,0,0,1-.275.539,1.775,1.775,0,0,1-.445.412,2.436,2.436,0,0,1-.6.283,1.656,1.656,0,0,1,.307.191,1.68,1.68,0,0,1,.272.274,2.738,2.738,0,0,1,.239.367,5,5,0,0,1,.221.466l.615,1.439c.056.143.094.248.112.314A.553.553,0,0,1,60.2,198.958ZM58.289,194a1.079,1.079,0,0,0-.164-.61.894.894,0,0,0-.536-.35,1.969,1.969,0,0,0-.257-.045,3.417,3.417,0,0,0-.4-.017h-.666v2.072h.757a1.822,1.822,0,0,0,.552-.076,1.12,1.12,0,0,0,.4-.215.871.871,0,0,0,.237-.33A1.112,1.112,0,0,0,58.289,194Z"/><path d="M102.057,19.689v4.29l6.224,6.719H87.428l6.225-6.745V19.689Z"/><path d="M83.124,7.887a2.761,2.761,0,0,1-.013.28.776.776,0,0,1-.043.186.239.239,0,0,1-.071.1.142.142,0,0,1-.092.034H81.076v5.888a.157.157,0,0,1-.038.1.253.253,0,0,1-.121.073,1.14,1.14,0,0,1-.228.045,3.789,3.789,0,0,1-.717,0,1.138,1.138,0,0,1-.229-.045.267.267,0,0,1-.122-.073.161.161,0,0,1-.036-.1V8.491H77.756a.139.139,0,0,1-.1-.034.264.264,0,0,1-.068-.1.782.782,0,0,1-.042-.186,2.238,2.238,0,0,1-.015-.28A2.343,2.343,0,0,1,77.55,7.6a.787.787,0,0,1,.042-.189.248.248,0,0,1,.068-.1.153.153,0,0,1,.1-.031h5.149A.157.157,0,0,1,83,7.308a.226.226,0,0,1,.071.1.782.782,0,0,1,.043.189C83.119,7.678,83.124,7.774,83.124,7.887Z"/><path d="M89.277,12.392a2.169,2.169,0,0,1-.107.705,1.871,1.871,0,0,1-.748.977,2.63,2.63,0,0,1-.579.288,3.526,3.526,0,0,1-.675.166,5.248,5.248,0,0,1-.8.054H84.428a.464.464,0,0,1-.313-.11.45.45,0,0,1-.127-.359V7.746a.452.452,0,0,1,.127-.359.464.464,0,0,1,.313-.11h1.835A4.923,4.923,0,0,1,87.4,7.39a2.232,2.232,0,0,1,.785.342,1.5,1.5,0,0,1,.488.579,1.868,1.868,0,0,1,.169.824,1.791,1.791,0,0,1-.067.5,1.5,1.5,0,0,1-.2.427,1.458,1.458,0,0,1-.319.338,1.607,1.607,0,0,1-.432.237,1.951,1.951,0,0,1,.574.2,1.615,1.615,0,0,1,.457.364,1.693,1.693,0,0,1,.307.522A1.88,1.88,0,0,1,89.277,12.392ZM87.358,9.315a1.1,1.1,0,0,0-.068-.395.729.729,0,0,0-.2-.291.939.939,0,0,0-.342-.177,1.94,1.94,0,0,0-.55-.063h-.751v1.9h.83a1.409,1.409,0,0,0,.513-.076.9.9,0,0,0,.32-.209.834.834,0,0,0,.188-.31A1.12,1.12,0,0,0,87.358,9.315Zm.378,3.127a1.185,1.185,0,0,0-.084-.454.885.885,0,0,0-.249-.336,1.158,1.158,0,0,0-.417-.209,2.49,2.49,0,0,0-.661-.073h-.881v2.077h1.073a1.765,1.765,0,0,0,.521-.065,1.073,1.073,0,0,0,.368-.191.9.9,0,0,0,.243-.316A1.039,1.039,0,0,0,87.736,12.442Z"/><path d="M94.483,13.961a2.5,2.5,0,0,1-.014.285.888.888,0,0,1-.043.192.243.243,0,0,1-.07.11.155.155,0,0,1-.1.034H90.91a.464.464,0,0,1-.314-.11.45.45,0,0,1-.127-.359V7.481a.16.16,0,0,1,.037-.1.255.255,0,0,1,.121-.073,1.236,1.236,0,0,1,.229-.046,4.058,4.058,0,0,1,.72,0,1.237,1.237,0,0,1,.225.046.254.254,0,0,1,.122.073.154.154,0,0,1,.036.1v5.876h2.3a.171.171,0,0,1,.1.031.225.225,0,0,1,.07.1.776.776,0,0,1,.043.186A2.5,2.5,0,0,1,94.483,13.961Z"/><path d="M95.985,16.044a.366.366,0,0,1-.074.119.335.335,0,0,1-.127.073.944.944,0,0,1-.2.042,3.132,3.132,0,0,1-.685-.008.64.64,0,0,1-.223-.068.166.166,0,0,1-.088-.116.334.334,0,0,1,.023-.166l3.376-9.478a.3.3,0,0,1,.067-.122.324.324,0,0,1,.125-.076.948.948,0,0,1,.206-.042,2.7,2.7,0,0,1,.308-.014,2.441,2.441,0,0,1,.381.023.6.6,0,0,1,.216.067.165.165,0,0,1,.085.116.388.388,0,0,1-.016.167Z"/><path d="M105.185,7.887a2.472,2.472,0,0,1-.014.28.731.731,0,0,1-.043.186.238.238,0,0,1-.07.1.144.144,0,0,1-.093.034h-1.829v5.888a.162.162,0,0,1-.037.1.253.253,0,0,1-.121.073,1.168,1.168,0,0,1-.229.045,3.778,3.778,0,0,1-.716,0,1.138,1.138,0,0,1-.229-.045.257.257,0,0,1-.122-.073.161.161,0,0,1-.036-.1V8.491H99.817a.138.138,0,0,1-.1-.034.254.254,0,0,1-.068-.1.7.7,0,0,1-.042-.186,2.238,2.238,0,0,1-.015-.28,2.343,2.343,0,0,1,.015-.288.7.7,0,0,1,.042-.189.239.239,0,0,1,.068-.1.151.151,0,0,1,.1-.031h5.148a.16.16,0,0,1,.093.031.225.225,0,0,1,.07.1.737.737,0,0,1,.043.189A2.587,2.587,0,0,1,105.185,7.887Z"/><path d="M111.338,12.392a2.2,2.2,0,0,1-.106.705,1.871,1.871,0,0,1-.748.977,2.63,2.63,0,0,1-.579.288,3.545,3.545,0,0,1-.675.166,5.248,5.248,0,0,1-.8.054H106.49a.466.466,0,0,1-.314-.11.45.45,0,0,1-.127-.359V7.746a.452.452,0,0,1,.127-.359.466.466,0,0,1,.314-.11h1.835a4.907,4.907,0,0,1,1.136.113,2.216,2.216,0,0,1,.785.342,1.514,1.514,0,0,1,.489.579,1.868,1.868,0,0,1,.169.824,1.791,1.791,0,0,1-.068.5,1.5,1.5,0,0,1-.2.427,1.48,1.48,0,0,1-.319.338,1.623,1.623,0,0,1-.432.237,1.954,1.954,0,0,1,.573.2,1.615,1.615,0,0,1,.457.364,1.7,1.7,0,0,1,.308.522A1.9,1.9,0,0,1,111.338,12.392Zm-1.919-3.077a1.1,1.1,0,0,0-.067-.395.729.729,0,0,0-.2-.291.939.939,0,0,0-.342-.177,1.948,1.948,0,0,0-.551-.063h-.751v1.9h.83a1.418,1.418,0,0,0,.514-.076.9.9,0,0,0,.319-.209.836.836,0,0,0,.189-.31A1.119,1.119,0,0,0,109.419,9.315Zm.378,3.127a1.166,1.166,0,0,0-.084-.454.865.865,0,0,0-.249-.336,1.15,1.15,0,0,0-.417-.209,2.484,2.484,0,0,0-.661-.073h-.881v2.077h1.073a1.777,1.777,0,0,0,.522-.065,1.059,1.059,0,0,0,.367-.191.873.873,0,0,0,.243-.316A1.024,1.024,0,0,0,109.8,12.442Z"/><path d="M117.949,14.39a.212.212,0,0,1-.023.1.182.182,0,0,1-.107.07,1.069,1.069,0,0,1-.248.04c-.11.007-.258.011-.447.011-.157,0-.284,0-.378-.011a.885.885,0,0,1-.222-.042.241.241,0,0,1-.116-.08.425.425,0,0,1-.056-.115l-.655-1.632c-.079-.184-.157-.348-.232-.491a1.54,1.54,0,0,0-.251-.358.931.931,0,0,0-.319-.218,1.1,1.1,0,0,0-.418-.073h-.463v2.783a.161.161,0,0,1-.036.1.267.267,0,0,1-.122.073,1.131,1.131,0,0,1-.226.045,3.194,3.194,0,0,1-.361.017,3.244,3.244,0,0,1-.359-.017,1.171,1.171,0,0,1-.228-.045.233.233,0,0,1-.118-.073.165.165,0,0,1-.034-.1V7.746a.452.452,0,0,1,.127-.359.464.464,0,0,1,.313-.11h1.891q.288,0,.474.012c.124.007.238.017.339.028a3.088,3.088,0,0,1,.793.214,1.929,1.929,0,0,1,.6.4,1.676,1.676,0,0,1,.375.582,2.117,2.117,0,0,1,.13.77,2.3,2.3,0,0,1-.093.669,1.706,1.706,0,0,1-.275.539,1.757,1.757,0,0,1-.445.412,2.436,2.436,0,0,1-.6.283,1.579,1.579,0,0,1,.307.192,1.634,1.634,0,0,1,.272.273,2.738,2.738,0,0,1,.239.367,5,5,0,0,1,.221.466l.615,1.439c.057.144.094.248.112.314A.568.568,0,0,1,117.949,14.39Zm-1.914-4.956a1.079,1.079,0,0,0-.164-.61.894.894,0,0,0-.536-.35,1.969,1.969,0,0,0-.257-.045,3.657,3.657,0,0,0-.4-.017h-.666v2.072h.757a1.8,1.8,0,0,0,.553-.076,1.108,1.108,0,0,0,.395-.215.86.86,0,0,0,.237-.33A1.112,1.112,0,0,0,116.035,9.434Z"/><line class="cls-1" x1="6.996" y1="207.234" x2="299.235" y2="207.234"/><line class="cls-1" x1="270.078" y1="177.516" x2="299.235" y2="177.516"/><line class="cls-1" x1="6.996" y1="32.288" x2="299.235" y2="32.288"/><path d="M144.778,27.834q0,.141-.009.24a1.1,1.1,0,0,1-.026.169.5.5,0,0,1-.044.122.645.645,0,0,1-.091.116,1.149,1.149,0,0,1-.24.166,2.78,2.78,0,0,1-.435.2,3.711,3.711,0,0,1-.587.155,3.9,3.9,0,0,1-.714.062,3.759,3.759,0,0,1-1.354-.231,2.679,2.679,0,0,1-1.028-.692,3.091,3.091,0,0,1-.649-1.149,5.164,5.164,0,0,1-.226-1.6,5.068,5.068,0,0,1,.248-1.654,3.47,3.47,0,0,1,.7-1.214,2.92,2.92,0,0,1,1.069-.745,3.619,3.619,0,0,1,1.375-.254,3.3,3.3,0,0,1,.587.051,3.55,3.55,0,0,1,.522.133,2.5,2.5,0,0,1,.432.189,1.324,1.324,0,0,1,.269.183.7.7,0,0,1,.1.127.491.491,0,0,1,.045.13,1.4,1.4,0,0,1,.025.186c.006.072.009.16.009.266s0,.209-.012.287a.726.726,0,0,1-.039.193.271.271,0,0,1-.068.107.138.138,0,0,1-.09.034.394.394,0,0,1-.215-.1,3.465,3.465,0,0,0-.336-.22,2.693,2.693,0,0,0-.491-.221,2.1,2.1,0,0,0-.679-.1,1.6,1.6,0,0,0-1.359.686,2.38,2.38,0,0,0-.363.8,4.109,4.109,0,0,0-.125,1.055,4.161,4.161,0,0,0,.133,1.115,2.171,2.171,0,0,0,.378.776,1.528,1.528,0,0,0,.592.454,1.942,1.942,0,0,0,.783.15,2.234,2.234,0,0,0,.683-.093,2.828,2.828,0,0,0,.493-.206c.138-.075.251-.143.339-.2a.422.422,0,0,1,.206-.09.164.164,0,0,1,.091.022.166.166,0,0,1,.056.09.926.926,0,0,1,.034.189C144.774,27.59,144.778,27.7,144.778,27.834Z"/><path d="M150.411,26.084a.549.549,0,0,1-.116.384.413.413,0,0,1-.319.124h-3.065a2.075,2.075,0,0,0,.077.584,1.084,1.084,0,0,0,.242.446,1.048,1.048,0,0,0,.43.28,1.823,1.823,0,0,0,.628.1,3.54,3.54,0,0,0,.656-.054,4.568,4.568,0,0,0,.488-.118c.137-.044.251-.083.341-.119a.635.635,0,0,1,.22-.054.163.163,0,0,1,.084.02.144.144,0,0,1,.057.071.425.425,0,0,1,.031.144q.009.093.009.234c0,.083,0,.153-.006.212s-.009.108-.016.149a.4.4,0,0,1-.034.1.414.414,0,0,1-.06.083.683.683,0,0,1-.2.107,3.18,3.18,0,0,1-.418.132,5.817,5.817,0,0,1-.581.114,4.993,4.993,0,0,1-.7.047,3.7,3.7,0,0,1-1.177-.169,2.093,2.093,0,0,1-.844-.514,2.12,2.12,0,0,1-.506-.869,4.115,4.115,0,0,1-.166-1.231,3.9,3.9,0,0,1,.175-1.211,2.528,2.528,0,0,1,.508-.914,2.19,2.19,0,0,1,.81-.573,2.781,2.781,0,0,1,1.076-.2,2.824,2.824,0,0,1,1.081.187,1.956,1.956,0,0,1,.736.516,2.1,2.1,0,0,1,.424.782,3.413,3.413,0,0,1,.135.982Zm-1.377-.406a1.456,1.456,0,0,0-.241-.94A.926.926,0,0,0,148,24.4a1.018,1.018,0,0,0-.47.1.958.958,0,0,0-.333.274,1.23,1.23,0,0,0-.2.406,2,2,0,0,0-.082.5Z"/><path d="M153.11,22.008a.8.8,0,0,1-.175.593,1.385,1.385,0,0,1-1.3.006.773.773,0,0,1-.166-.57.816.816,0,0,1,.172-.6,1.36,1.36,0,0,1,1.295-.006A.775.775,0,0,1,153.11,22.008ZM153,28.749a.15.15,0,0,1-.034.1.237.237,0,0,1-.115.071.979.979,0,0,1-.218.042,4.233,4.233,0,0,1-.688,0,.968.968,0,0,1-.217-.042.241.241,0,0,1-.116-.071.151.151,0,0,1-.035-.1V23.725a.152.152,0,0,1,.035-.1.258.258,0,0,1,.116-.074,1.046,1.046,0,0,1,.217-.048,3.489,3.489,0,0,1,.688,0,1.057,1.057,0,0,1,.218.048.254.254,0,0,1,.115.074.151.151,0,0,1,.034.1Z"/><path d="M155.841,28.749a.156.156,0,0,1-.034.1.242.242,0,0,1-.115.071.979.979,0,0,1-.218.042,3.262,3.262,0,0,1-.344.014,3.3,3.3,0,0,1-.345-.014.958.958,0,0,1-.216-.042.249.249,0,0,1-.117-.071.156.156,0,0,1-.034-.1V21.325a.168.168,0,0,1,.034-.1.245.245,0,0,1,.117-.076.921.921,0,0,1,.216-.048,2.745,2.745,0,0,1,.345-.017,2.718,2.718,0,0,1,.344.017.94.94,0,0,1,.218.048.238.238,0,0,1,.115.076.168.168,0,0,1,.034.1Z"/><path d="M158.788,22.008a.8.8,0,0,1-.174.593,1.385,1.385,0,0,1-1.3.006.769.769,0,0,1-.166-.57.812.812,0,0,1,.172-.6,1.358,1.358,0,0,1,1.294-.006A.771.771,0,0,1,158.788,22.008Zm-.107,6.741a.156.156,0,0,1-.034.1.247.247,0,0,1-.115.071.979.979,0,0,1-.218.042,4.246,4.246,0,0,1-.689,0,.946.946,0,0,1-.216-.042.249.249,0,0,1-.117-.071.156.156,0,0,1-.034-.1V23.725a.156.156,0,0,1,.034-.1.268.268,0,0,1,.117-.074,1.02,1.02,0,0,1,.216-.048,3.5,3.5,0,0,1,.689,0,1.057,1.057,0,0,1,.218.048.266.266,0,0,1,.115.074.156.156,0,0,1,.034.1Z"/><path d="M164.908,28.749a.15.15,0,0,1-.034.1.239.239,0,0,1-.113.071.934.934,0,0,1-.217.042,3.3,3.3,0,0,1-.342.014,3.363,3.363,0,0,1-.347-.014.934.934,0,0,1-.217-.042.239.239,0,0,1-.113-.071.15.15,0,0,1-.034-.1V25.875a2.473,2.473,0,0,0-.053-.576,1.16,1.16,0,0,0-.155-.358.7.7,0,0,0-.263-.231.817.817,0,0,0-.376-.082.935.935,0,0,0-.547.2,2.943,2.943,0,0,0-.576.576v3.348a.156.156,0,0,1-.034.1.246.246,0,0,1-.116.071.968.968,0,0,1-.217.042,4.246,4.246,0,0,1-.689,0,.968.968,0,0,1-.217-.042.251.251,0,0,1-.116-.071.156.156,0,0,1-.034-.1V23.713a.182.182,0,0,1,.028-.1.211.211,0,0,1,.1-.07.785.785,0,0,1,.189-.042,2.328,2.328,0,0,1,.291-.015,2.458,2.458,0,0,1,.3.015.661.661,0,0,1,.184.042.211.211,0,0,1,.093.07.174.174,0,0,1,.028.1V24.3a3.2,3.2,0,0,1,.849-.678,1.929,1.929,0,0,1,.9-.226,1.983,1.983,0,0,1,.866.17,1.5,1.5,0,0,1,.57.46,1.849,1.849,0,0,1,.314.68,3.966,3.966,0,0,1,.1.937Z"/><path d="M170.841,24.063a.965.965,0,0,1-.062.4c-.041.086-.092.13-.153.13h-.592a.791.791,0,0,1,.177.307,1.2,1.2,0,0,1,.054.359,1.965,1.965,0,0,1-.147.782,1.553,1.553,0,0,1-.42.576,1.865,1.865,0,0,1-.661.355,2.856,2.856,0,0,1-.861.122,1.765,1.765,0,0,1-.463-.06,1.152,1.152,0,0,1-.338-.138.8.8,0,0,0-.122.175.486.486,0,0,0-.053.226.319.319,0,0,0,.144.268.735.735,0,0,0,.4.116l1.226.045a2.962,2.962,0,0,1,.765.121,1.647,1.647,0,0,1,.564.294,1.279,1.279,0,0,1,.35.454,1.435,1.435,0,0,1,.122.6,1.562,1.562,0,0,1-.164.7,1.609,1.609,0,0,1-.492.573,2.533,2.533,0,0,1-.821.384,4.223,4.223,0,0,1-1.154.141,5.1,5.1,0,0,1-1.1-.1,2.411,2.411,0,0,1-.745-.282,1.14,1.14,0,0,1-.423-.432,1.153,1.153,0,0,1-.133-.55,1.3,1.3,0,0,1,.048-.356,1.33,1.33,0,0,1,.142-.324,1.645,1.645,0,0,1,.228-.3,2.467,2.467,0,0,1,.311-.271.936.936,0,0,1-.508-.841,1.218,1.218,0,0,1,.153-.606,1.915,1.915,0,0,1,.394-.5,1.456,1.456,0,0,1-.315-.474,1.751,1.751,0,0,1-.12-.689,1.9,1.9,0,0,1,.156-.787,1.667,1.667,0,0,1,.431-.587,1.927,1.927,0,0,1,.662-.367,2.668,2.668,0,0,1,.846-.127,3.481,3.481,0,0,1,.454.028,3.013,3.013,0,0,1,.4.079h1.6c.065,0,.117.042.156.125A1.039,1.039,0,0,1,170.841,24.063Zm-1.49,5.211a.441.441,0,0,0-.2-.39,1.071,1.071,0,0,0-.56-.147l-1.01-.028a1.512,1.512,0,0,0-.234.206,1.33,1.33,0,0,0-.142.189.6.6,0,0,0-.07.175.919.919,0,0,0-.016.175.462.462,0,0,0,.285.429,1.781,1.781,0,0,0,.8.147,1.946,1.946,0,0,0,.542-.065,1.051,1.051,0,0,0,.357-.172.627.627,0,0,0,.191-.24A.7.7,0,0,0,169.351,29.274Zm-.333-4.02a.853.853,0,0,0-.226-.632.865.865,0,0,0-.638-.226.893.893,0,0,0-.367.071.731.731,0,0,0-.262.192.793.793,0,0,0-.156.282,1.1,1.1,0,0,0-.05.336.817.817,0,0,0,.225.607.858.858,0,0,0,.627.223.939.939,0,0,0,.372-.068.713.713,0,0,0,.263-.186.829.829,0,0,0,.158-.274A1.012,1.012,0,0,0,169.018,25.254Z"/><path d="M143.575,213.556a2.523,2.523,0,0,1-.014.282.913.913,0,0,1-.04.189.211.211,0,0,1-.062.1.136.136,0,0,1-.088.028.553.553,0,0,1-.237-.1,3.435,3.435,0,0,0-.434-.22,4.708,4.708,0,0,0-.647-.22,3.384,3.384,0,0,0-.872-.1,2.415,2.415,0,0,0-.959.184,2.078,2.078,0,0,0-.734.519,2.314,2.314,0,0,0-.469.808,3.157,3.157,0,0,0-.163,1.041,3.347,3.347,0,0,0,.166,1.1,2.231,2.231,0,0,0,.466.8,1.91,1.91,0,0,0,.719.486,2.546,2.546,0,0,0,.929.163,2.138,2.138,0,0,0,.491-.056,1.765,1.765,0,0,0,.451-.169v-1.694H140.7c-.068,0-.12-.042-.159-.127a1.19,1.19,0,0,1-.055-.432,2.184,2.184,0,0,1,.013-.265.707.707,0,0,1,.042-.172.253.253,0,0,1,.069-.1.139.139,0,0,1,.09-.031h2.466a.394.394,0,0,1,.162.031.368.368,0,0,1,.124.093.418.418,0,0,1,.082.15.675.675,0,0,1,.028.2v2.907a.691.691,0,0,1-.06.3.419.419,0,0,1-.242.2c-.123.049-.274.1-.455.153s-.367.1-.561.135-.39.066-.587.085-.4.028-.6.028a4.573,4.573,0,0,1-1.566-.251,3.087,3.087,0,0,1-1.906-1.891,4.909,4.909,0,0,1,.017-3.167,3.408,3.408,0,0,1,.768-1.214,3.319,3.319,0,0,1,1.2-.765,4.4,4.4,0,0,1,1.566-.265,5.2,5.2,0,0,1,.864.065,4.844,4.844,0,0,1,.68.158,2.658,2.658,0,0,1,.482.2,1.271,1.271,0,0,1,.269.186.472.472,0,0,1,.11.223A1.973,1.973,0,0,1,143.575,213.556Z"/><path d="M148.233,214.967q0,.2-.012.333a1.07,1.07,0,0,1-.034.2.2.2,0,0,1-.059.1.145.145,0,0,1-.093.028.292.292,0,0,1-.1-.02l-.127-.042c-.047-.015-.1-.029-.155-.043a.834.834,0,0,0-.187-.019.626.626,0,0,0-.236.048,1.029,1.029,0,0,0-.246.149,1.855,1.855,0,0,0-.265.271,4.469,4.469,0,0,0-.3.418v3.139a.15.15,0,0,1-.034.1.237.237,0,0,1-.115.071.979.979,0,0,1-.218.042,4.233,4.233,0,0,1-.688,0,.957.957,0,0,1-.217-.042.241.241,0,0,1-.116-.071.151.151,0,0,1-.035-.1V214.5a.177.177,0,0,1,.029-.1.2.2,0,0,1,.1-.07.794.794,0,0,1,.19-.042,2.353,2.353,0,0,1,.291-.014,2.5,2.5,0,0,1,.3.014.652.652,0,0,1,.183.042.211.211,0,0,1,.093.07.176.176,0,0,1,.028.1v.627a4,4,0,0,1,.373-.466,2.186,2.186,0,0,1,.333-.291,1.063,1.063,0,0,1,.316-.149,1.227,1.227,0,0,1,.316-.043,1.492,1.492,0,0,1,.158.009,1.588,1.588,0,0,1,.175.028,1.234,1.234,0,0,1,.158.045.317.317,0,0,1,.1.054.172.172,0,0,1,.045.062.434.434,0,0,1,.025.093,1.317,1.317,0,0,1,.018.178C148.231,214.724,148.233,214.832,148.233,214.967Z"/><path d="M154.057,216.965a3.84,3.84,0,0,1-.169,1.174,2.475,2.475,0,0,1-.514.915,2.287,2.287,0,0,1-.863.593,3.248,3.248,0,0,1-1.214.209,3.307,3.307,0,0,1-1.169-.187,2.116,2.116,0,0,1-.824-.541,2.233,2.233,0,0,1-.485-.875,4.058,4.058,0,0,1-.159-1.186,3.811,3.811,0,0,1,.173-1.177,2.483,2.483,0,0,1,.516-.915,2.3,2.3,0,0,1,.861-.59,3.225,3.225,0,0,1,1.211-.209,3.4,3.4,0,0,1,1.174.184,2.041,2.041,0,0,1,.821.539,2.25,2.25,0,0,1,.484.875A4.141,4.141,0,0,1,154.057,216.965Zm-1.462.057a3.661,3.661,0,0,0-.059-.686,1.6,1.6,0,0,0-.2-.545.985.985,0,0,0-.375-.361,1.2,1.2,0,0,0-.59-.13,1.237,1.237,0,0,0-.553.116,1,1,0,0,0-.389.338,1.6,1.6,0,0,0-.229.537,3.016,3.016,0,0,0-.077.714,3.566,3.566,0,0,0,.063.686,1.693,1.693,0,0,0,.2.544.961.961,0,0,0,.376.359,1.237,1.237,0,0,0,.587.127,1.268,1.268,0,0,0,.559-.116.993.993,0,0,0,.389-.336,1.541,1.541,0,0,0,.226-.533A3.143,3.143,0,0,0,152.6,217.022Z"/><path d="M159.957,219.534a.171.171,0,0,1-.028.1.2.2,0,0,1-.1.071.735.735,0,0,1-.186.042,2.353,2.353,0,0,1-.291.014,2.473,2.473,0,0,1-.3-.014.68.68,0,0,1-.183-.042.2.2,0,0,1-.1-.071.164.164,0,0,1-.029-.1v-.582a3.174,3.174,0,0,1-.849.677,1.9,1.9,0,0,1-.9.227,2.005,2.005,0,0,1-.872-.17,1.5,1.5,0,0,1-.57-.463,1.842,1.842,0,0,1-.311-.68,4.2,4.2,0,0,1-.093-.962V214.5a.164.164,0,0,1,.031-.1.231.231,0,0,1,.113-.07.988.988,0,0,1,.22-.042,3.3,3.3,0,0,1,.342-.014,3.262,3.262,0,0,1,.344.014.968.968,0,0,1,.217.042.248.248,0,0,1,.116.07.155.155,0,0,1,.034.1v2.845a2.778,2.778,0,0,0,.05.6,1.079,1.079,0,0,0,.156.359.709.709,0,0,0,.265.231.815.815,0,0,0,.375.082.926.926,0,0,0,.545-.2,3.214,3.214,0,0,0,.585-.575V214.5a.17.17,0,0,1,.03-.1.235.235,0,0,1,.114-.07.967.967,0,0,1,.218-.042,3.242,3.242,0,0,1,.343-.014,3.283,3.283,0,0,1,.345.014.926.926,0,0,1,.214.042.247.247,0,0,1,.113.07.155.155,0,0,1,.034.1Z"/><path d="M166.2,219.534a.15.15,0,0,1-.034.1.239.239,0,0,1-.113.071.934.934,0,0,1-.217.042,3.276,3.276,0,0,1-.341.014,3.371,3.371,0,0,1-.348-.014.934.934,0,0,1-.217-.042.239.239,0,0,1-.113-.071.15.15,0,0,1-.034-.1V216.66a2.464,2.464,0,0,0-.053-.575,1.156,1.156,0,0,0-.155-.359.7.7,0,0,0-.263-.231.811.811,0,0,0-.376-.082.941.941,0,0,0-.547.2,2.97,2.97,0,0,0-.576.576v3.348a.156.156,0,0,1-.034.1.247.247,0,0,1-.115.071.979.979,0,0,1-.218.042,4.246,4.246,0,0,1-.689,0,.968.968,0,0,1-.217-.042.251.251,0,0,1-.116-.071.156.156,0,0,1-.034-.1V214.5a.185.185,0,0,1,.028-.1.211.211,0,0,1,.1-.07.785.785,0,0,1,.189-.042,2.364,2.364,0,0,1,.291-.014,2.474,2.474,0,0,1,.3.014.661.661,0,0,1,.184.042.211.211,0,0,1,.093.07.176.176,0,0,1,.028.1v.582a3.187,3.187,0,0,1,.85-.678,1.922,1.922,0,0,1,.9-.226,1.983,1.983,0,0,1,.866.17,1.5,1.5,0,0,1,.57.46,1.857,1.857,0,0,1,.314.68,3.966,3.966,0,0,1,.1.937Z"/><path d="M172.365,219.534a.182.182,0,0,1-.029.1.207.207,0,0,1-.095.071.645.645,0,0,1-.184.039c-.077.008-.173.011-.285.011a2.932,2.932,0,0,1-.294-.011.669.669,0,0,1-.184-.039.217.217,0,0,1-.1-.071.169.169,0,0,1-.032-.1v-.559a3.212,3.212,0,0,1-.815.649,2.132,2.132,0,0,1-1.919.008,1.843,1.843,0,0,1-.649-.6,2.609,2.609,0,0,1-.365-.883,4.889,4.889,0,0,1-.112-1.064,4.659,4.659,0,0,1,.144-1.208,2.7,2.7,0,0,1,.421-.915,1.845,1.845,0,0,1,.688-.581,2.109,2.109,0,0,1,.948-.2,1.69,1.69,0,0,1,.768.173,2.722,2.722,0,0,1,.683.505v-2.726a.173.173,0,0,1,.031-.1.224.224,0,0,1,.113-.076.989.989,0,0,1,.218-.049,3.706,3.706,0,0,1,.688,0,.934.934,0,0,1,.214.049.243.243,0,0,1,.113.076.164.164,0,0,1,.035.1Zm-1.412-3.365a3.14,3.14,0,0,0-.585-.587.976.976,0,0,0-.583-.2.818.818,0,0,0-.477.138,1,1,0,0,0-.322.37,1.991,1.991,0,0,0-.181.516,2.91,2.91,0,0,0-.06.585,3.753,3.753,0,0,0,.051.615,1.933,1.933,0,0,0,.167.534,1.011,1.011,0,0,0,.308.375.8.8,0,0,0,.485.141.968.968,0,0,0,.285-.042,1.057,1.057,0,0,0,.283-.139,1.93,1.93,0,0,0,.3-.251,4.916,4.916,0,0,0,.333-.381Z"/><line class="cls-2" x1="162.428" y1="177.796" x2="252.228" y2="177.796"/><line class="cls-2" x1="56.86" y1="177.796" x2="147.5" y2="177.796"/><line class="cls-1" x1="29.39" y1="177.516" x2="39.16" y2="177.516"/><line class="cls-1" x1="6.996" y1="177.796" x2="15.096" y2="177.796"/><path d="M311.171,34.691a2.019,2.019,0,0,1-.016.268.644.644,0,0,1-.049.174.234.234,0,0,1-.071.094.147.147,0,0,1-.089.028h-4.032a.141.141,0,0,1-.084-.028.244.244,0,0,1-.071-.094.687.687,0,0,1-.048-.174,2.019,2.019,0,0,1-.016-.268,2.55,2.55,0,0,1,.013-.274.626.626,0,0,1,.046-.178.263.263,0,0,1,.071-.1.138.138,0,0,1,.089-.031h1.361V29.356l-1.174.649a.862.862,0,0,1-.212.076.138.138,0,0,1-.13-.034.289.289,0,0,1-.064-.166,2.384,2.384,0,0,1-.017-.333c0-.09,0-.165,0-.223a.608.608,0,0,1,.028-.15.276.276,0,0,1,.063-.1.613.613,0,0,1,.107-.085l1.57-1.016a.211.211,0,0,1,.07-.037.557.557,0,0,1,.11-.022,1.783,1.783,0,0,1,.178-.012q.109,0,.285,0c.143,0,.259,0,.347.009a1.02,1.02,0,0,1,.2.028.127.127,0,0,1,.113.138v6.035h1.192a.15.15,0,0,1,.092.031.247.247,0,0,1,.074.1.629.629,0,0,1,.045.178A2.286,2.286,0,0,1,311.171,34.691Z"/><path d="M314.083,34.442a1.007,1.007,0,0,1-.182.706.937.937,0,0,1-.658.18.927.927,0,0,1-.655-.178.945.945,0,0,1-.18-.674,1.014,1.014,0,0,1,.182-.711.942.942,0,0,1,.664-.181.918.918,0,0,1,.649.178A.956.956,0,0,1,314.083,34.442Z"/><path d="M320.333,31.574a8.172,8.172,0,0,1-.141,1.581,3.447,3.447,0,0,1-.46,1.2,2.156,2.156,0,0,1-.83.763,2.7,2.7,0,0,1-1.25.265,2.667,2.667,0,0,1-1.242-.257,1.941,1.941,0,0,1-.78-.74,3.382,3.382,0,0,1-.4-1.179,9.72,9.72,0,0,1-.116-1.578,8.017,8.017,0,0,1,.144-1.578,3.5,3.5,0,0,1,.463-1.205,2.153,2.153,0,0,1,.83-.762,3.092,3.092,0,0,1,2.489-.009,1.934,1.934,0,0,1,.782.74,3.32,3.32,0,0,1,.4,1.18A9.952,9.952,0,0,1,320.333,31.574Zm-1.5.074c0-.347-.01-.652-.028-.917a5.608,5.608,0,0,0-.088-.692,2.537,2.537,0,0,0-.146-.5,1.017,1.017,0,0,0-.212-.325.723.723,0,0,0-.283-.172,1.128,1.128,0,0,0-.349-.05.9.9,0,0,0-.551.16,1.074,1.074,0,0,0-.345.483,3.138,3.138,0,0,0-.177.8,10.71,10.71,0,0,0-.051,1.117,10.882,10.882,0,0,0,.062,1.29,2.951,2.951,0,0,0,.195.813.874.874,0,0,0,.341.424,1.1,1.1,0,0,0,.892.05.821.821,0,0,0,.3-.211,1.171,1.171,0,0,0,.212-.356,2.833,2.833,0,0,0,.137-.5,4.637,4.637,0,0,0,.074-.638Q318.837,32.076,318.837,31.648Z"/><path d="M312.211,14.379a.155.155,0,0,1-.036.1.262.262,0,0,1-.122.073,1.147,1.147,0,0,1-.226.045,3.115,3.115,0,0,1-.355.017,3.278,3.278,0,0,1-.364-.017,1.1,1.1,0,0,1-.226-.045.256.256,0,0,1-.119-.073.161.161,0,0,1-.036-.1V11.426h-2.733v2.953a.159.159,0,0,1-.034.1.233.233,0,0,1-.118.073,1.166,1.166,0,0,1-.225.045,3.82,3.82,0,0,1-.72,0,1.152,1.152,0,0,1-.229-.045.267.267,0,0,1-.122-.073.161.161,0,0,1-.036-.1v-6.9a.159.159,0,0,1,.036-.1.259.259,0,0,1,.122-.073,1.218,1.218,0,0,1,.229-.046,4.058,4.058,0,0,1,.72,0,1.237,1.237,0,0,1,.225.046.226.226,0,0,1,.118.073.157.157,0,0,1,.034.1v2.681h2.733V7.481a.159.159,0,0,1,.036-.1.248.248,0,0,1,.119-.073,1.163,1.163,0,0,1,.226-.046,3.311,3.311,0,0,1,.364-.016,3.147,3.147,0,0,1,.355.016,1.214,1.214,0,0,1,.226.046.254.254,0,0,1,.122.073.154.154,0,0,1,.036.1Z"/><path d="M318.37,11.726a.545.545,0,0,1-.116.383.413.413,0,0,1-.319.125H314.87a2.085,2.085,0,0,0,.077.584,1.1,1.1,0,0,0,.242.446,1.069,1.069,0,0,0,.429.28,1.863,1.863,0,0,0,.629.095,3.539,3.539,0,0,0,.656-.053,4.55,4.55,0,0,0,.488-.119c.137-.043.251-.083.341-.118a.635.635,0,0,1,.22-.054.163.163,0,0,1,.084.02.141.141,0,0,1,.057.07.457.457,0,0,1,.031.144c.006.062.009.141.009.235s0,.153-.006.211-.009.109-.016.15a.373.373,0,0,1-.035.1.368.368,0,0,1-.059.082.7.7,0,0,1-.2.108,3.339,3.339,0,0,1-.418.132,5.835,5.835,0,0,1-.581.113,4.832,4.832,0,0,1-.7.048,3.732,3.732,0,0,1-1.177-.169,2.1,2.1,0,0,1-.844-.514,2.131,2.131,0,0,1-.5-.869,4.086,4.086,0,0,1-.167-1.231,3.934,3.934,0,0,1,.175-1.211,2.535,2.535,0,0,1,.508-.914,2.168,2.168,0,0,1,.81-.573,2.787,2.787,0,0,1,1.075-.2,2.826,2.826,0,0,1,1.082.186,1.958,1.958,0,0,1,.736.517,2.086,2.086,0,0,1,.424.782,3.413,3.413,0,0,1,.135.982Zm-1.377-.407a1.458,1.458,0,0,0-.241-.94.926.926,0,0,0-.793-.341,1.037,1.037,0,0,0-.47.1.949.949,0,0,0-.333.274,1.245,1.245,0,0,0-.2.407,2.042,2.042,0,0,0-.082.5Z"/><path d="M321.069,7.65a.8.8,0,0,1-.175.593,1.388,1.388,0,0,1-1.3,0,.772.772,0,0,1-.166-.57.812.812,0,0,1,.172-.595,1.36,1.36,0,0,1,1.3-.006A.774.774,0,0,1,321.069,7.65Zm-.108,6.74a.151.151,0,0,1-.034.1.244.244,0,0,1-.115.071,1.108,1.108,0,0,1-.218.042c-.09.009-.2.014-.344.014s-.254,0-.344-.014a1.1,1.1,0,0,1-.217-.042.248.248,0,0,1-.116-.071.152.152,0,0,1-.035-.1V9.366a.154.154,0,0,1,.035-.1.258.258,0,0,1,.116-.073.93.93,0,0,1,.217-.048,3.489,3.489,0,0,1,.688,0,.94.94,0,0,1,.218.048.254.254,0,0,1,.115.073.153.153,0,0,1,.034.1Z"/><path d="M326.916,9.705a.971.971,0,0,1-.062.4q-.061.129-.153.129h-.592a.8.8,0,0,1,.177.308,1.159,1.159,0,0,1,.054.358,1.976,1.976,0,0,1-.146.782,1.559,1.559,0,0,1-.421.576,1.855,1.855,0,0,1-.66.356,2.868,2.868,0,0,1-.862.121,1.808,1.808,0,0,1-.463-.059,1.2,1.2,0,0,1-.337-.138.829.829,0,0,0-.123.174.49.49,0,0,0-.053.227.322.322,0,0,0,.144.268.737.737,0,0,0,.4.115l1.225.045a2.96,2.96,0,0,1,.765.122,1.646,1.646,0,0,1,.564.293,1.262,1.262,0,0,1,.35.455,1.435,1.435,0,0,1,.122.6,1.568,1.568,0,0,1-.164.7,1.606,1.606,0,0,1-.491.573,2.591,2.591,0,0,1-.822.384,4.257,4.257,0,0,1-1.154.141,5.163,5.163,0,0,1-1.1-.1,2.447,2.447,0,0,1-.745-.282,1.154,1.154,0,0,1-.423-.432,1.167,1.167,0,0,1-.132-.551,1.258,1.258,0,0,1,.048-.355,1.351,1.351,0,0,1,.141-.325,1.646,1.646,0,0,1,.229-.3,2.314,2.314,0,0,1,.31-.271.936.936,0,0,1-.508-.841,1.225,1.225,0,0,1,.153-.607,1.927,1.927,0,0,1,.394-.494,1.477,1.477,0,0,1-.315-.474,1.755,1.755,0,0,1-.119-.689,1.9,1.9,0,0,1,.155-.787,1.661,1.661,0,0,1,.432-.588,1.911,1.911,0,0,1,.661-.366,2.672,2.672,0,0,1,.846-.127,3.5,3.5,0,0,1,.455.028,3.028,3.028,0,0,1,.4.079h1.6c.065,0,.117.041.156.124A1.045,1.045,0,0,1,326.916,9.705Zm-1.49,5.21a.443.443,0,0,0-.2-.39,1.062,1.062,0,0,0-.56-.146l-1.009-.028a1.478,1.478,0,0,0-.235.206,1.318,1.318,0,0,0-.141.189.592.592,0,0,0-.071.175,1,1,0,0,0-.016.175.462.462,0,0,0,.285.429,1.784,1.784,0,0,0,.8.146,1.959,1.959,0,0,0,.542-.064,1.055,1.055,0,0,0,.356-.172.623.623,0,0,0,.191-.241A.68.68,0,0,0,325.426,14.915Zm-.333-4.019a.855.855,0,0,0-.225-.632.865.865,0,0,0-.639-.226.9.9,0,0,0-.366.07.726.726,0,0,0-.263.192.787.787,0,0,0-.155.283,1.073,1.073,0,0,0-.051.336.814.814,0,0,0,.225.606.854.854,0,0,0,.627.223.94.94,0,0,0,.372-.067.727.727,0,0,0,.263-.187.8.8,0,0,0,.158-.274A.975.975,0,0,0,325.093,10.9Z"/><path d="M332.668,14.39a.15.15,0,0,1-.033.1.247.247,0,0,1-.113.071,1.053,1.053,0,0,1-.217.042c-.093.009-.206.014-.342.014s-.255,0-.347-.014a1.039,1.039,0,0,1-.217-.042.257.257,0,0,1-.114-.071.156.156,0,0,1-.034-.1V11.517a2.476,2.476,0,0,0-.052-.576,1.151,1.151,0,0,0-.156-.358.7.7,0,0,0-.262-.232.817.817,0,0,0-.376-.082.934.934,0,0,0-.547.2,2.943,2.943,0,0,0-.576.576V14.39a.152.152,0,0,1-.035.1.244.244,0,0,1-.115.071,1.108,1.108,0,0,1-.218.042c-.089.009-.2.014-.343.014s-.254,0-.345-.014a1.1,1.1,0,0,1-.217-.042.248.248,0,0,1-.116-.071.151.151,0,0,1-.034-.1V6.967a.165.165,0,0,1,.034-.1.251.251,0,0,1,.116-.076,1.046,1.046,0,0,1,.217-.048,2.938,2.938,0,0,1,.345-.017,2.9,2.9,0,0,1,.343.017,1.057,1.057,0,0,1,.218.048.248.248,0,0,1,.115.076.166.166,0,0,1,.035.1V9.75a2.71,2.71,0,0,1,.748-.539,1.847,1.847,0,0,1,.793-.178,1.99,1.99,0,0,1,.866.169,1.507,1.507,0,0,1,.57.463,1.877,1.877,0,0,1,.314.686,4.068,4.068,0,0,1,.1.951Z"/><path d="M336.936,13.894a1.827,1.827,0,0,1-.03.38.426.426,0,0,1-.082.187.468.468,0,0,1-.15.1,1.468,1.468,0,0,1-.231.073,2.336,2.336,0,0,1-.288.048,2.728,2.728,0,0,1-.314.017,2.257,2.257,0,0,1-.733-.107,1.22,1.22,0,0,1-.514-.331,1.38,1.38,0,0,1-.3-.561,3.005,3.005,0,0,1-.095-.8V10.315h-.605c-.071,0-.126-.045-.163-.133a1.227,1.227,0,0,1-.057-.443,2.365,2.365,0,0,1,.014-.277.652.652,0,0,1,.043-.178.211.211,0,0,1,.07-.093.176.176,0,0,1,.1-.028h.6V8.04a.166.166,0,0,1,.031-.1.227.227,0,0,1,.112-.077.965.965,0,0,1,.221-.045c.092-.009.206-.014.341-.014s.256.005.347.014a.924.924,0,0,1,.218.045.254.254,0,0,1,.112.077.164.164,0,0,1,.035.1V9.163h1.094a.17.17,0,0,1,.1.028.213.213,0,0,1,.071.093.7.7,0,0,1,.042.178,2.165,2.165,0,0,1,.014.277,1.255,1.255,0,0,1-.056.443c-.038.088-.093.133-.164.133h-1.1V12.68a1.181,1.181,0,0,0,.129.618.5.5,0,0,0,.463.206.956.956,0,0,0,.2-.02,1.332,1.332,0,0,0,.162-.045l.118-.045a.218.218,0,0,1,.088-.02.11.11,0,0,1,.064.02.128.128,0,0,1,.048.079,1.185,1.185,0,0,1,.031.161A1.85,1.85,0,0,1,336.936,13.894Z"/><path d="M345.951,12.392a2.2,2.2,0,0,1-.106.705,1.871,1.871,0,0,1-.748.977,2.63,2.63,0,0,1-.579.288,3.545,3.545,0,0,1-.675.166,5.248,5.248,0,0,1-.8.054H341.1a.466.466,0,0,1-.314-.11.45.45,0,0,1-.127-.359V7.746a.452.452,0,0,1,.127-.359.466.466,0,0,1,.314-.11h1.835a4.923,4.923,0,0,1,1.137.113,2.232,2.232,0,0,1,.785.342,1.5,1.5,0,0,1,.488.579,1.868,1.868,0,0,1,.169.824,1.829,1.829,0,0,1-.067.5,1.5,1.5,0,0,1-.2.427,1.48,1.48,0,0,1-.319.338,1.623,1.623,0,0,1-.432.237,1.961,1.961,0,0,1,.574.2,1.629,1.629,0,0,1,.457.364,1.713,1.713,0,0,1,.307.522A1.9,1.9,0,0,1,345.951,12.392Zm-1.918-3.077a1.1,1.1,0,0,0-.068-.395.729.729,0,0,0-.2-.291.939.939,0,0,0-.342-.177,1.943,1.943,0,0,0-.551-.063h-.751v1.9h.831a1.416,1.416,0,0,0,.513-.076.9.9,0,0,0,.32-.209.834.834,0,0,0,.188-.31A1.12,1.12,0,0,0,344.033,9.315Zm.377,3.127a1.166,1.166,0,0,0-.084-.454.865.865,0,0,0-.249-.336,1.15,1.15,0,0,0-.417-.209A2.479,2.479,0,0,0,343,11.37h-.881v2.077h1.074a1.765,1.765,0,0,0,.521-.065,1.059,1.059,0,0,0,.367-.191.887.887,0,0,0,.244-.316A1.039,1.039,0,0,0,344.41,12.442Z"/><path d="M348.481,14.39a.156.156,0,0,1-.034.1.254.254,0,0,1-.116.071,1.1,1.1,0,0,1-.217.042c-.09.009-.2.014-.344.014s-.254,0-.345-.014a1.1,1.1,0,0,1-.217-.042.259.259,0,0,1-.116-.071.156.156,0,0,1-.034-.1V6.967a.171.171,0,0,1,.034-.1.263.263,0,0,1,.116-.076,1.046,1.046,0,0,1,.217-.048,3.5,3.5,0,0,1,.689,0,1.046,1.046,0,0,1,.217.048.257.257,0,0,1,.116.076.171.171,0,0,1,.034.1Z"/><path d="M354.55,11.726a.545.545,0,0,1-.116.383.415.415,0,0,1-.319.125H351.05a2.124,2.124,0,0,0,.076.584,1.114,1.114,0,0,0,.242.446,1.065,1.065,0,0,0,.43.28,1.859,1.859,0,0,0,.629.095,3.528,3.528,0,0,0,.655-.053,4.515,4.515,0,0,0,.489-.119c.136-.043.251-.083.34-.118a.64.64,0,0,1,.221-.054.166.166,0,0,1,.084.02.141.141,0,0,1,.057.07.487.487,0,0,1,.031.144c.006.062.009.141.009.235s0,.153-.006.211a1.506,1.506,0,0,1-.017.15.343.343,0,0,1-.034.1.368.368,0,0,1-.059.082.713.713,0,0,1-.2.108,3.286,3.286,0,0,1-.418.132,5.724,5.724,0,0,1-.581.113,4.832,4.832,0,0,1-.7.048,3.732,3.732,0,0,1-1.177-.169,2.1,2.1,0,0,1-.843-.514,2.133,2.133,0,0,1-.506-.869,4.088,4.088,0,0,1-.166-1.231,3.875,3.875,0,0,1,.175-1.211,2.533,2.533,0,0,1,.507-.914,2.179,2.179,0,0,1,.811-.573,2.776,2.776,0,0,1,1.075-.2,2.821,2.821,0,0,1,1.081.186,1.954,1.954,0,0,1,.737.517,2.07,2.07,0,0,1,.423.782,3.413,3.413,0,0,1,.136.982Zm-1.378-.407a1.452,1.452,0,0,0-.24-.94.927.927,0,0,0-.793-.341,1.035,1.035,0,0,0-.471.1.967.967,0,0,0-.333.274,1.265,1.265,0,0,0-.2.407,2,2,0,0,0-.081.5Z"/><path d="M360.527,14.39a.151.151,0,0,1-.034.1.247.247,0,0,1-.113.071,1.053,1.053,0,0,1-.217.042c-.092.009-.206.014-.341.014s-.255,0-.348-.014a1.053,1.053,0,0,1-.217-.042.247.247,0,0,1-.113-.071.151.151,0,0,1-.034-.1V11.517a2.467,2.467,0,0,0-.053-.576,1.15,1.15,0,0,0-.155-.358.707.707,0,0,0-.263-.232.811.811,0,0,0-.376-.082.936.936,0,0,0-.547.2,2.97,2.97,0,0,0-.576.576V14.39a.156.156,0,0,1-.034.1.255.255,0,0,1-.115.071,1.108,1.108,0,0,1-.218.042c-.09.009-.205.014-.344.014s-.254,0-.345-.014a1.07,1.07,0,0,1-.216-.042.258.258,0,0,1-.117-.071.156.156,0,0,1-.034-.1V9.355a.18.18,0,0,1,.028-.1.2.2,0,0,1,.1-.07.78.78,0,0,1,.189-.043,2.581,2.581,0,0,1,.291-.014,2.7,2.7,0,0,1,.3.014.656.656,0,0,1,.184.043.2.2,0,0,1,.093.07.172.172,0,0,1,.028.1v.581a3.178,3.178,0,0,1,.85-.677,1.91,1.91,0,0,1,.9-.226,1.984,1.984,0,0,1,.866.169,1.523,1.523,0,0,1,.571.46,1.86,1.86,0,0,1,.313.681,3.961,3.961,0,0,1,.1.937Z"/><path d="M366.7,14.39a.185.185,0,0,1-.029.1.213.213,0,0,1-.095.07.677.677,0,0,1-.184.04c-.077.007-.173.011-.285.011s-.219,0-.294-.011a.7.7,0,0,1-.184-.04.223.223,0,0,1-.1-.07.172.172,0,0,1-.032-.1v-.559a3.217,3.217,0,0,1-.815.65,2.141,2.141,0,0,1-1.919.008,1.853,1.853,0,0,1-.649-.6,2.614,2.614,0,0,1-.365-.884,4.876,4.876,0,0,1-.112-1.064,4.664,4.664,0,0,1,.144-1.208,2.719,2.719,0,0,1,.421-.915,1.864,1.864,0,0,1,.688-.581,2.122,2.122,0,0,1,.948-.2,1.69,1.69,0,0,1,.768.172,2.728,2.728,0,0,1,.683.506V6.984a.173.173,0,0,1,.031-.1.23.23,0,0,1,.113-.076.94.94,0,0,1,.218-.048,3.489,3.489,0,0,1,.688,0,.889.889,0,0,1,.214.048.251.251,0,0,1,.113.076.164.164,0,0,1,.035.1Zm-1.412-3.365a3.131,3.131,0,0,0-.585-.586.971.971,0,0,0-.583-.2.811.811,0,0,0-.477.139,1.006,1.006,0,0,0-.322.369,2,2,0,0,0-.181.517,2.9,2.9,0,0,0-.06.584,3.774,3.774,0,0,0,.051.616,1.937,1.937,0,0,0,.167.533,1.011,1.011,0,0,0,.308.375.8.8,0,0,0,.485.141.968.968,0,0,0,.285-.042,1.083,1.083,0,0,0,.283-.138,1.989,1.989,0,0,0,.3-.251c.1-.1.212-.231.333-.381Z"/><path d="M374.459,14.322a.515.515,0,0,1-.073.156.285.285,0,0,1-.147.09,1.2,1.2,0,0,1-.277.039c-.116.006-.269.009-.457.009q-.225,0-.387,0c-.107,0-.2-.006-.273-.014a.951.951,0,0,1-.184-.034.47.47,0,0,1-.119-.056.237.237,0,0,1-.073-.082.691.691,0,0,1-.048-.121l-2.174-6.475a1.717,1.717,0,0,1-.081-.322.189.189,0,0,1,.056-.178.446.446,0,0,1,.24-.074c.114-.009.272-.013.475-.013.173,0,.308,0,.406.011a.839.839,0,0,1,.226.04.187.187,0,0,1,.11.084.931.931,0,0,1,.06.141l1.777,5.634h.006l1.744-5.606a.61.61,0,0,1,.057-.155.222.222,0,0,1,.116-.093.76.76,0,0,1,.234-.045c.1-.008.24-.011.417-.011a3.793,3.793,0,0,1,.4.016.3.3,0,0,1,.2.082.222.222,0,0,1,.034.184,2.253,2.253,0,0,1-.088.316Z"/><path d="M381.228,14.407a.152.152,0,0,1-.057.124.373.373,0,0,1-.178.065,2.431,2.431,0,0,1-.358.02,2.458,2.458,0,0,1-.37-.02.311.311,0,0,1-.164-.065.165.165,0,0,1-.048-.124v-.4a2.272,2.272,0,0,1-.708.519,2.05,2.05,0,0,1-.884.187,2.456,2.456,0,0,1-.736-.105,1.634,1.634,0,0,1-.582-.31,1.412,1.412,0,0,1-.381-.511,1.741,1.741,0,0,1-.136-.711,1.606,1.606,0,0,1,.173-.765,1.394,1.394,0,0,1,.514-.536,2.519,2.519,0,0,1,.849-.313,6.051,6.051,0,0,1,1.18-.1h.491v-.3a1.6,1.6,0,0,0-.048-.415.681.681,0,0,0-.158-.3.648.648,0,0,0-.294-.175,1.546,1.546,0,0,0-.454-.057,2.362,2.362,0,0,0-.635.079,3.7,3.7,0,0,0-.494.175c-.143.064-.262.122-.358.175a.528.528,0,0,1-.234.079.171.171,0,0,1-.111-.039.3.3,0,0,1-.079-.113.871.871,0,0,1-.048-.181,1.559,1.559,0,0,1-.016-.237,1.021,1.021,0,0,1,.028-.276.435.435,0,0,1,.106-.184,1.086,1.086,0,0,1,.278-.181,3.1,3.1,0,0,1,.463-.183,4.5,4.5,0,0,1,.578-.139A3.911,3.911,0,0,1,379,9.033a3.865,3.865,0,0,1,1.014.116,1.7,1.7,0,0,1,.691.355,1.371,1.371,0,0,1,.395.619,2.877,2.877,0,0,1,.125.9Zm-1.395-2.156h-.542a2.987,2.987,0,0,0-.587.05,1.136,1.136,0,0,0-.395.153.632.632,0,0,0-.223.245.729.729,0,0,0-.071.331.633.633,0,0,0,.2.5.8.8,0,0,0,.556.181,1.051,1.051,0,0,0,.551-.152,2.317,2.317,0,0,0,.51-.446Z"/><path d="M384.068,14.39a.156.156,0,0,1-.034.1.254.254,0,0,1-.116.071,1.1,1.1,0,0,1-.217.042c-.09.009-.206.014-.344.014s-.254,0-.345-.014a1.1,1.1,0,0,1-.217-.042.254.254,0,0,1-.116-.071.156.156,0,0,1-.034-.1V6.967a.171.171,0,0,1,.034-.1.257.257,0,0,1,.116-.076,1.046,1.046,0,0,1,.217-.048,3.5,3.5,0,0,1,.689,0,1.046,1.046,0,0,1,.217.048.257.257,0,0,1,.116.076.171.171,0,0,1,.034.1Z"/><path d="M390.26,14.39a.18.18,0,0,1-.028.1.217.217,0,0,1-.1.071.847.847,0,0,1-.186.042,2.581,2.581,0,0,1-.291.014,2.694,2.694,0,0,1-.3-.014.788.788,0,0,1-.184-.042.2.2,0,0,1-.1-.071.165.165,0,0,1-.029-.1v-.581a3.174,3.174,0,0,1-.849.677,1.9,1.9,0,0,1-.895.226,2.014,2.014,0,0,1-.872-.169,1.507,1.507,0,0,1-.57-.463,1.847,1.847,0,0,1-.311-.681,4.183,4.183,0,0,1-.094-.962V9.355a.161.161,0,0,1,.032-.1.22.22,0,0,1,.113-.07.981.981,0,0,1,.22-.043c.092-.009.206-.014.341-.014s.254.005.345.014a.973.973,0,0,1,.217.043.24.24,0,0,1,.116.07.15.15,0,0,1,.033.1V12.2a2.773,2.773,0,0,0,.051.6,1.064,1.064,0,0,0,.155.358.732.732,0,0,0,.266.232.822.822,0,0,0,.375.082.928.928,0,0,0,.545-.2,3.19,3.19,0,0,0,.585-.576V9.355a.166.166,0,0,1,.03-.1.228.228,0,0,1,.114-.07.95.95,0,0,1,.217-.043c.09-.009.205-.014.344-.014s.254.005.345.014a.92.92,0,0,1,.214.043.249.249,0,0,1,.113.07.156.156,0,0,1,.034.1Z"/><path d="M396.34,11.726a.545.545,0,0,1-.116.383.415.415,0,0,1-.319.125H392.84a2.124,2.124,0,0,0,.076.584,1.1,1.1,0,0,0,.243.446,1.055,1.055,0,0,0,.429.28,1.859,1.859,0,0,0,.629.095,3.528,3.528,0,0,0,.655-.053,4.515,4.515,0,0,0,.489-.119c.136-.043.251-.083.34-.118a.64.64,0,0,1,.221-.054.166.166,0,0,1,.084.02.141.141,0,0,1,.057.07.487.487,0,0,1,.031.144c.006.062.009.141.009.235s0,.153-.006.211a1.506,1.506,0,0,1-.017.15.343.343,0,0,1-.034.1.368.368,0,0,1-.059.082.713.713,0,0,1-.2.108,3.286,3.286,0,0,1-.418.132,5.724,5.724,0,0,1-.581.113,4.832,4.832,0,0,1-.7.048,3.732,3.732,0,0,1-1.177-.169,2.1,2.1,0,0,1-.843-.514,2.133,2.133,0,0,1-.506-.869,4.12,4.12,0,0,1-.166-1.231,3.875,3.875,0,0,1,.175-1.211,2.533,2.533,0,0,1,.507-.914,2.179,2.179,0,0,1,.811-.573,2.776,2.776,0,0,1,1.075-.2,2.821,2.821,0,0,1,1.081.186,1.954,1.954,0,0,1,.737.517,2.07,2.07,0,0,1,.423.782,3.413,3.413,0,0,1,.136.982Zm-1.378-.407a1.452,1.452,0,0,0-.24-.94.927.927,0,0,0-.793-.341,1.035,1.035,0,0,0-.471.1.967.967,0,0,0-.333.274,1.265,1.265,0,0,0-.2.407,2,2,0,0,0-.081.5Z"/><path d="M306.281,177.657a1.177,1.177,0,0,1-.061.457.208.208,0,0,1-.2.13h-2.348a.209.209,0,0,1-.2-.133,1.175,1.175,0,0,1-.062-.454,1.139,1.139,0,0,1,.062-.446.21.21,0,0,1,.2-.129h2.348a.235.235,0,0,1,.117.027.231.231,0,0,1,.082.1.6.6,0,0,1,.047.18A2.116,2.116,0,0,1,306.281,177.657Z"/><path d="M311.943,179.932a2,2,0,0,1-.016.268.608.608,0,0,1-.049.175.24.24,0,0,1-.07.093.153.153,0,0,1-.09.029h-4.031a.136.136,0,0,1-.084-.029.225.225,0,0,1-.072-.093.649.649,0,0,1-.047-.175,1.685,1.685,0,0,1-.018-.268,2.546,2.546,0,0,1,.014-.274.585.585,0,0,1,.047-.177.236.236,0,0,1,.07-.1.139.139,0,0,1,.09-.031h1.359V174.6l-1.174.649a.844.844,0,0,1-.211.076.139.139,0,0,1-.13-.034.3.3,0,0,1-.065-.166,2.443,2.443,0,0,1-.015-.333c0-.091,0-.165,0-.224a.517.517,0,0,1,.03-.149.262.262,0,0,1,.062-.1.588.588,0,0,1,.108-.085l1.568-1.017a.243.243,0,0,1,.07-.036.679.679,0,0,1,.112-.023c.045-.006.1-.009.177-.011s.168,0,.286,0c.142,0,.257,0,.345.008a1,1,0,0,1,.2.029.154.154,0,0,1,.09.054.139.139,0,0,1,.024.084v6.035h1.191a.148.148,0,0,1,.092.031.24.24,0,0,1,.074.1.656.656,0,0,1,.045.177A2.115,2.115,0,0,1,311.943,179.932Z"/><path d="M314.857,179.684a1,1,0,0,1-.184.705,1.288,1.288,0,0,1-1.312,0,.945.945,0,0,1-.18-.674,1.023,1.023,0,0,1,.182-.712.946.946,0,0,1,.664-.18.919.919,0,0,1,.648.177A.96.96,0,0,1,314.857,179.684Z"/><path d="M321.107,176.816a8.1,8.1,0,0,1-.143,1.581,3.454,3.454,0,0,1-.459,1.2,2.16,2.16,0,0,1-.83.762,2.692,2.692,0,0,1-1.25.266,2.661,2.661,0,0,1-1.242-.257,1.933,1.933,0,0,1-.779-.74,3.381,3.381,0,0,1-.4-1.18,9.829,9.829,0,0,1-.115-1.577,7.938,7.938,0,0,1,.145-1.578,3.475,3.475,0,0,1,.463-1.206,2.139,2.139,0,0,1,.83-.762,3.1,3.1,0,0,1,2.488-.008,1.919,1.919,0,0,1,.781.74,3.3,3.3,0,0,1,.4,1.179A9.966,9.966,0,0,1,321.107,176.816Zm-1.5.073q0-.519-.03-.917a5.089,5.089,0,0,0-.088-.691,2.47,2.47,0,0,0-.146-.5,1.033,1.033,0,0,0-.211-.325.725.725,0,0,0-.283-.172,1.134,1.134,0,0,0-.35-.051.9.9,0,0,0-.551.161,1.066,1.066,0,0,0-.343.483,3.075,3.075,0,0,0-.178.8,11.028,11.028,0,0,0-.051,1.118,10.656,10.656,0,0,0,.063,1.29,2.959,2.959,0,0,0,.193.813.884.884,0,0,0,.342.423.988.988,0,0,0,.5.122,1,1,0,0,0,.388-.071.834.834,0,0,0,.3-.211,1.182,1.182,0,0,0,.211-.356,2.664,2.664,0,0,0,.139-.5,4.838,4.838,0,0,0,.072-.638C319.6,177.437,319.611,177.175,319.611,176.889Z"/><path d="M327.726,179.808a1.918,1.918,0,0,1-.029.381.439.439,0,0,1-.082.186.457.457,0,0,1-.151.1,1.354,1.354,0,0,1-.23.074,2.6,2.6,0,0,1-.289.048,2.955,2.955,0,0,1-.313.016,2.265,2.265,0,0,1-.734-.106,1.22,1.22,0,0,1-.514-.331,1.388,1.388,0,0,1-.3-.562,2.962,2.962,0,0,1-.095-.8v-2.58h-.606c-.07,0-.125-.044-.162-.133a1.2,1.2,0,0,1-.057-.443,2.158,2.158,0,0,1,.014-.276.634.634,0,0,1,.043-.178.193.193,0,0,1,.07-.093.171.171,0,0,1,.1-.029h.6v-1.123a.164.164,0,0,1,.031-.1.214.214,0,0,1,.111-.077.878.878,0,0,1,.221-.045c.092-.009.207-.014.342-.014s.256,0,.347.014a.824.824,0,0,1,.217.045.25.25,0,0,1,.113.077.166.166,0,0,1,.034.1v1.123H327.5a.169.169,0,0,1,.1.029.2.2,0,0,1,.072.093.723.723,0,0,1,.041.178,2.158,2.158,0,0,1,.014.276,1.256,1.256,0,0,1-.055.443c-.039.089-.094.133-.164.133h-1.1v2.365a1.17,1.17,0,0,0,.13.618.5.5,0,0,0,.463.207.963.963,0,0,0,.2-.02,1.52,1.52,0,0,0,.161-.045l.119-.046a.226.226,0,0,1,.088-.019.121.121,0,0,1,.064.019.13.13,0,0,1,.047.079,1.251,1.251,0,0,1,.031.161A1.869,1.869,0,0,1,327.726,179.808Z"/><path d="M333.734,177.736a3.84,3.84,0,0,1-.17,1.174,2.461,2.461,0,0,1-.514.915,2.279,2.279,0,0,1-.863.593,3.239,3.239,0,0,1-1.213.209,3.312,3.312,0,0,1-1.17-.187,2.124,2.124,0,0,1-.824-.541,2.258,2.258,0,0,1-.485-.875,4.094,4.094,0,0,1-.158-1.186,3.812,3.812,0,0,1,.172-1.177,2.5,2.5,0,0,1,.516-.915,2.308,2.308,0,0,1,.861-.59,3.229,3.229,0,0,1,1.211-.209,3.393,3.393,0,0,1,1.174.184,2.051,2.051,0,0,1,.822.539,2.248,2.248,0,0,1,.483.875A4.1,4.1,0,0,1,333.734,177.736Zm-1.463.057a3.747,3.747,0,0,0-.059-.686,1.562,1.562,0,0,0-.2-.545,1,1,0,0,0-.375-.361,1.2,1.2,0,0,0-.59-.13,1.237,1.237,0,0,0-.553.116.987.987,0,0,0-.388.338,1.584,1.584,0,0,0-.231.537,3.072,3.072,0,0,0-.076.714,3.548,3.548,0,0,0,.063.685,1.691,1.691,0,0,0,.2.545.952.952,0,0,0,.375.359,1.239,1.239,0,0,0,.588.127,1.264,1.264,0,0,0,.558-.116.993.993,0,0,0,.389-.336,1.542,1.542,0,0,0,.227-.533A3.2,3.2,0,0,0,332.271,177.793Z"/><path d="M342.3,176.816a8.1,8.1,0,0,1-.143,1.581,3.435,3.435,0,0,1-.459,1.2,2.153,2.153,0,0,1-.83.762,3.1,3.1,0,0,1-2.492.009,1.933,1.933,0,0,1-.779-.74,3.4,3.4,0,0,1-.4-1.18,9.707,9.707,0,0,1-.116-1.577,7.938,7.938,0,0,1,.145-1.578,3.5,3.5,0,0,1,.463-1.206,2.146,2.146,0,0,1,.83-.762,3.1,3.1,0,0,1,2.488-.008,1.919,1.919,0,0,1,.781.74,3.3,3.3,0,0,1,.4,1.179A10.094,10.094,0,0,1,342.3,176.816Zm-1.5.073q0-.519-.029-.917a5.428,5.428,0,0,0-.088-.691,2.467,2.467,0,0,0-.147-.5,1.016,1.016,0,0,0-.211-.325.718.718,0,0,0-.283-.172,1.127,1.127,0,0,0-.349-.051.9.9,0,0,0-.551.161,1.06,1.06,0,0,0-.344.483,3.075,3.075,0,0,0-.178.8,11.028,11.028,0,0,0-.051,1.118,10.656,10.656,0,0,0,.063,1.29,2.959,2.959,0,0,0,.193.813.884.884,0,0,0,.342.423.99.99,0,0,0,.5.122,1.007,1.007,0,0,0,.389-.071.843.843,0,0,0,.3-.211,1.2,1.2,0,0,0,.211-.356,2.746,2.746,0,0,0,.138-.5,4.675,4.675,0,0,0,.072-.638C340.8,177.437,340.808,177.175,340.808,176.889Z"/><path d="M345,179.684a1,1,0,0,1-.183.705,1.29,1.29,0,0,1-1.313,0,.946.946,0,0,1-.179-.674,1.024,1.024,0,0,1,.181-.712.948.948,0,0,1,.664-.18.92.92,0,0,1,.649.177A.96.96,0,0,1,345,179.684Z"/><path d="M351.251,176.816a8.182,8.182,0,0,1-.142,1.581,3.454,3.454,0,0,1-.459,1.2,2.16,2.16,0,0,1-.83.762,3.1,3.1,0,0,1-2.493.009,1.939,1.939,0,0,1-.779-.74,3.4,3.4,0,0,1-.4-1.18,9.829,9.829,0,0,1-.115-1.577,7.942,7.942,0,0,1,.144-1.578,3.5,3.5,0,0,1,.463-1.206,2.146,2.146,0,0,1,.83-.762,3.1,3.1,0,0,1,2.488-.008,1.921,1.921,0,0,1,.782.74,3.315,3.315,0,0,1,.4,1.179A10.094,10.094,0,0,1,351.251,176.816Zm-1.5.073q0-.519-.029-.917a5.428,5.428,0,0,0-.088-.691,2.537,2.537,0,0,0-.146-.5,1.033,1.033,0,0,0-.211-.325.722.722,0,0,0-.284-.172,1.123,1.123,0,0,0-.349-.051.9.9,0,0,0-.551.161,1.06,1.06,0,0,0-.344.483,3.078,3.078,0,0,0-.177.8,12.881,12.881,0,0,0,.011,2.408,2.955,2.955,0,0,0,.194.813.882.882,0,0,0,.341.423.99.99,0,0,0,.5.122,1,1,0,0,0,.389-.071.843.843,0,0,0,.3-.211,1.2,1.2,0,0,0,.211-.356,2.746,2.746,0,0,0,.138-.5,4.665,4.665,0,0,0,.073-.638C349.747,177.437,349.755,177.175,349.755,176.889Z"/><polygon class="cls-3" points="296.413 86.007 296.413 172.457 295.406 172.457 296.985 175.189 298.563 172.457 297.556 172.457 297.556 86.007 296.413 86.007"/><polygon class="cls-3" points="297.556 97.036 297.556 37.348 298.563 37.348 296.985 34.615 295.406 37.348 296.413 37.348 296.413 97.036 297.556 97.036"/><circle cx="155" cy="104.379" r="5.54"/><path d="M170.509,103.669a8.175,8.175,0,0,1-.142,1.581,3.466,3.466,0,0,1-.459,1.2,2.173,2.173,0,0,1-.831.763,2.686,2.686,0,0,1-1.25.265,2.651,2.651,0,0,1-1.242-.257,1.926,1.926,0,0,1-.779-.74,3.4,3.4,0,0,1-.4-1.179,9.834,9.834,0,0,1-.116-1.578,7.945,7.945,0,0,1,.145-1.578,3.51,3.51,0,0,1,.463-1.206,2.136,2.136,0,0,1,.83-.761,3.09,3.09,0,0,1,2.488-.009,1.925,1.925,0,0,1,.781.74,3.294,3.294,0,0,1,.4,1.18A10.081,10.081,0,0,1,170.509,103.669Zm-1.5.073q0-.517-.029-.917a5.428,5.428,0,0,0-.088-.691,2.487,2.487,0,0,0-.147-.5,1.011,1.011,0,0,0-.211-.324.707.707,0,0,0-.283-.172,1.123,1.123,0,0,0-.349-.051.906.906,0,0,0-.551.16,1.065,1.065,0,0,0-.344.483,3.127,3.127,0,0,0-.178.8,11.068,11.068,0,0,0-.05,1.118,10.672,10.672,0,0,0,.062,1.29,3,3,0,0,0,.193.813.892.892,0,0,0,.342.424.99.99,0,0,0,.5.121,1.023,1.023,0,0,0,.389-.07.845.845,0,0,0,.3-.212,1.19,1.19,0,0,0,.211-.356,2.723,2.723,0,0,0,.138-.5,4.788,4.788,0,0,0,.073-.638C169.005,104.29,169.013,104.028,169.013,103.742Z"/><path d="M173.206,106.537a1,1,0,0,1-.183.7,1.29,1.29,0,0,1-1.313,0,.946.946,0,0,1-.179-.674,1.026,1.026,0,0,1,.181-.712.948.948,0,0,1,.664-.18.915.915,0,0,1,.649.178A.957.957,0,0,1,173.206,106.537Z"/><path d="M179.242,104.979a2.61,2.61,0,0,1-.207,1.058,2.142,2.142,0,0,1-.583.785,2.61,2.61,0,0,1-.9.489,3.844,3.844,0,0,1-1.172.169,4.71,4.71,0,0,1-.642-.042,4.812,4.812,0,0,1-.549-.108,3.311,3.311,0,0,1-.4-.13.823.823,0,0,1-.2-.107.243.243,0,0,1-.07-.093.559.559,0,0,1-.037-.121,1.227,1.227,0,0,1-.02-.179c0-.071-.006-.155-.006-.254s0-.194.01-.267A.87.87,0,0,1,174.5,106a.231.231,0,0,1,.061-.1.119.119,0,0,1,.078-.027.422.422,0,0,1,.172.064c.078.043.18.091.3.144a2.961,2.961,0,0,0,.46.145,2.836,2.836,0,0,0,.649.064,2.437,2.437,0,0,0,.6-.067,1.175,1.175,0,0,0,.455-.218,1.007,1.007,0,0,0,.287-.375,1.311,1.311,0,0,0,.1-.542,1.281,1.281,0,0,0-.084-.483.864.864,0,0,0-.265-.358,1.218,1.218,0,0,0-.469-.221,2.918,2.918,0,0,0-.7-.073,4.881,4.881,0,0,0-.6.034,3.982,3.982,0,0,1-.506.033.293.293,0,0,1-.234-.081.475.475,0,0,1-.07-.3v-3.172a.488.488,0,0,1,.087-.325.356.356,0,0,1,.28-.1h3.461a.162.162,0,0,1,.095.034.273.273,0,0,1,.077.108.767.767,0,0,1,.044.194,2.441,2.441,0,0,1,.014.291,1.487,1.487,0,0,1-.058.491c-.04.1-.1.153-.172.153h-2.6v1.563c.133-.015.264-.024.393-.028s.265-.006.41-.006a3.7,3.7,0,0,1,1.052.138,2.1,2.1,0,0,1,.774.407,1.717,1.717,0,0,1,.476.666A2.4,2.4,0,0,1,179.242,104.979Z"/></svg>