<svg id="Layer_1" data-name="Layer 1" xmlns="http://www.w3.org/2000/svg" xmlns:xlink="http://www.w3.org/1999/xlink" width="704.747" height="338.48" viewBox="0 0 704.747 338.48"><defs><style>.cls-1,.cls-2,.cls-3,.cls-4,.cls-5{fill:none;}.cls-2{stroke:#cbcbcb;}.cls-2,.cls-3,.cls-4,.cls-5{stroke-miterlimit:10;}.cls-3{stroke:#000;}.cls-4{stroke:#ccc;}.cls-5{stroke:blue;}.cls-6{clip-path:url(#clip-path);}.cls-7{clip-path:url(#clip-path-2);}.cls-8{clip-path:url(#clip-path-3);}</style><clipPath id="clip-path"><rect class="cls-1" x="875.529" y="-141.823" width="428.727" height="67.617"/></clipPath><clipPath id="clip-path-2"><rect class="cls-1" x="639.212" y="-135.24" width="648.007" height="59.211"/></clipPath><clipPath id="clip-path-3"><rect class="cls-1" x="-406.084" y="-133.115" width="1747.919" height="52.948"/></clipPath></defs><line class="cls-2" x1="672.532" y1="67.5" x2="142.797" y2="67.5"/><path class="cls-3" d="M143.023,77.455c2.579,0,2.518-20.582,5.1-20.584s2.64,20.579,5.221,20.577,2.518-20.582,5.1-20.583,2.641,20.578,5.22,20.577,2.519-20.582,5.1-20.584,2.64,20.579,5.219,20.577,2.52-20.582,5.1-20.584,2.641,20.579,5.221,20.577,2.519-20.582,5.1-20.583,2.641,20.578,5.222,20.577,2.52-20.582,5.1-20.584,2.641,20.579,5.222,20.577,2.52-20.582,5.1-20.584,2.642,20.579,5.223,20.577,2.52-20.582,5.1-20.583,2.64,20.578,5.218,20.577,2.52-20.582,5.1-20.584S233.325,77.4,235.9,77.4s2.52-20.582,5.1-20.584,2.642,20.579,5.224,20.577,2.521-20.582,5.1-20.583,2.643,20.578,5.225,20.577,2.521-20.582,5.1-20.584,2.642,20.579,5.223,20.577,2.522-20.582,5.105-20.584,2.646,20.579,5.231,20.577,4.214-37.526,6.8-37.528"/><path class="cls-3" d="M284.018,39.84c2.58-.007,2.74,57.993,5.32,57.986s2.419-58.007,5-58.014S297.075,97.8,299.654,97.8s2.419-58.007,5-58.014,2.74,57.993,5.32,57.986,2.419-58.007,5-58.014,2.739,57.992,5.318,57.985,2.419-58.007,5-58.014,2.74,57.993,5.319,57.986,2.417-58.007,5-58.014,2.737,57.992,5.314,57.985,2.416-58.007,4.993-58.014,2.738,57.993,5.315,57.986,2.419-58.007,5-58.015,2.739,57.993,5.318,57.986,2.418-58.007,5-58.014,2.738,57.993,5.316,57.985,2.418-58.006,5-58.014,2.741,57.993,5.321,57.986,2.418-58.007,5-58.014,2.739,57.993,5.317,57.985,2.419-58.007,5-58.014,2.741,57.993,5.321,57.986,2.418-58.007,5-58.014,2.74,57.992,5.319,57.985,2.42-58.007,5-58.014,2.74,57.993,5.319,57.986,2.42-58.007,5-58.014,2.74,57.992,5.32,57.985,2.42-58.007,5-58.014S441.5,97.405,444.079,97.4s2.42-58.007,5-58.014,2.741,57.992,5.321,57.985,2.42-58.007,5-58.014,2.742,57.993,5.323,57.986,2.421-58.007,5-58.014,2.739,57.992,5.317,57.985,2.421-58.007,5-58.014,2.74,57.993,5.32,57.985,2.42-58.006,5-58.014,2.742,57.993,5.324,57.986,2.421-58.007,5-58.014,2.742,57.992,5.324,57.985,2.422-58.007,5-58.014,2.742,57.993,5.323,57.986,2.423-58.007,5.006-58.014,2.745,57.992,5.33,57.985,2.425-58.007,5.01-58.014"/><path class="cls-3" d="M672.684,77.455c-2.579,0-2.518-20.582-5.1-20.584s-2.641,20.579-5.222,20.577-2.517-20.582-5.1-20.583-2.641,20.578-5.22,20.577-2.519-20.582-5.1-20.584-2.64,20.579-5.219,20.577-2.52-20.582-5.1-20.584-2.641,20.579-5.221,20.577-2.519-20.582-5.1-20.583-2.641,20.578-5.222,20.577-2.52-20.582-5.1-20.584-2.641,20.579-5.222,20.577-2.52-20.582-5.1-20.584-2.642,20.579-5.223,20.577-2.52-20.582-5.1-20.583S592.7,77.4,590.123,77.4s-2.52-20.582-5.1-20.584S582.382,77.4,579.8,77.4s-2.52-20.582-5.1-20.584-2.642,20.579-5.224,20.577-2.521-20.582-5.1-20.583-2.643,20.578-5.225,20.577S556.63,56.8,554.047,56.8s-2.642,20.579-5.223,20.577-2.522-20.582-5.1-20.584-2.646,20.579-5.231,20.577-4.214-38.211-6.8-38.213"/><line class="cls-2" x1="672.532" y1="169.141" x2="142.797" y2="169.141"/><path class="cls-3" d="M143.06,179.1c2.579,0,2.518-20.582,5.1-20.584s2.641,20.579,5.221,20.578,2.518-20.583,5.1-20.584,2.64,20.579,5.22,20.577,2.519-20.582,5.1-20.584,2.64,20.579,5.219,20.577,2.52-20.582,5.1-20.584,2.641,20.579,5.221,20.578,2.519-20.583,5.1-20.584,2.641,20.579,5.221,20.577,2.52-20.582,5.1-20.584,2.641,20.579,5.222,20.577,2.52-20.582,5.1-20.584,2.642,20.579,5.223,20.577,2.52-20.582,5.1-20.583,2.639,20.578,5.218,20.577,2.52-20.582,5.1-20.584,2.64,20.579,5.219,20.577,2.52-20.582,5.1-20.584,2.643,20.579,5.225,20.577,2.521-20.582,5.1-20.583,2.643,20.578,5.225,20.577,2.521-20.582,5.1-20.584,2.641,20.579,5.222,20.577,2.523-20.582,5.106-20.584,2.646,20.579,5.231,20.577,4.14-26.952,6.725-26.953"/><path class="cls-3" d="M283.981,152.056c2.58-.005,2.814,32.966,5.394,32.961s2.345-32.977,4.924-32.982S297.112,185,299.691,185s2.345-32.977,4.924-32.982,2.814,32.966,5.394,32.961S312.354,152,314.933,152s2.813,32.966,5.392,32.961,2.345-32.977,4.925-32.982,2.814,32.967,5.393,32.961,2.343-32.976,4.921-32.981,2.811,32.966,5.387,32.961,2.343-32.977,4.92-32.982,2.812,32.967,5.389,32.962,2.346-32.977,4.925-32.982,2.813,32.966,5.392,32.961,2.344-32.976,4.922-32.981,2.811,32.966,5.389,32.961,2.344-32.977,4.923-32.982,2.815,32.967,5.4,32.962,2.345-32.977,4.923-32.982,2.813,32.966,5.391,32.961,2.345-32.976,4.924-32.982,2.815,32.967,5.395,32.962,2.344-32.977,4.923-32.982,2.814,32.966,5.393,32.961,2.346-32.976,4.927-32.981,2.813,32.966,5.392,32.961,2.347-32.977,4.927-32.982,2.814,32.967,5.394,32.962,2.346-32.977,4.926-32.982,2.814,32.966,5.395,32.961,2.346-32.976,4.927-32.982,2.815,32.967,5.395,32.962,2.347-32.977,4.927-32.982,2.816,32.966,5.4,32.961,2.347-32.976,4.928-32.981,2.813,32.966,5.391,32.961,2.347-32.977,4.928-32.982,2.813,32.967,5.392,32.962,2.347-32.977,4.927-32.982,2.816,32.966,5.4,32.961,2.347-32.976,4.929-32.982,2.816,32.967,5.4,32.962,2.348-32.977,4.93-32.982,2.816,32.966,5.4,32.961,2.349-32.976,4.932-32.981,2.819,32.966,5.4,32.961,2.351-32.977,4.936-32.982"/><path class="cls-3" d="M672.721,179.1c-2.579,0-2.518-20.582-5.1-20.584s-2.641,20.579-5.221,20.578-2.518-20.583-5.1-20.584-2.641,20.579-5.22,20.577-2.52-20.582-5.1-20.584-2.64,20.579-5.219,20.577-2.52-20.582-5.1-20.584-2.641,20.579-5.221,20.578-2.519-20.583-5.1-20.584-2.641,20.579-5.221,20.577-2.52-20.582-5.1-20.584-2.641,20.579-5.221,20.577-2.52-20.582-5.1-20.584-2.642,20.579-5.223,20.577-2.52-20.582-5.1-20.583-2.64,20.578-5.218,20.577S587.64,160,585.059,160s-2.64,17.613-5.219,17.611-2.52-16.138-5.1-16.14-2.642,14.586-5.224,14.585-2.521-13.165-5.1-13.167-2.642,11.78-5.224,11.778-2.426-10.332-5.008-10.333-2.738,8.89-5.319,8.888-2.522-7.889-5.105-7.891-2.63,6.5-5.215,6.5-4.3-20.266-6.889-20.268"/><line class="cls-2" x1="670.203" y1="305.26" x2="140.468" y2="305.26"/><line class="cls-3" x1="140.468" y1="238.834" x2="281.958" y2="238.834"/><line class="cls-2" x1="142.334" y1="100.822" x2="142.334" y2="34.303"/><line class="cls-4" x1="141.834" y1="34.303" x2="145.566" y2="34.303"/><line class="cls-4" x1="141.834" y1="100.822" x2="145.566" y2="100.822"/><line class="cls-2" x1="142.334" y1="202.401" x2="142.334" y2="135.881"/><line class="cls-4" x1="141.834" y1="135.881" x2="145.566" y2="135.881"/><line class="cls-4" x1="141.834" y1="202.401" x2="145.566" y2="202.401"/><line class="cls-2" x1="140.468" y1="305.26" x2="140.468" y2="238.74"/><line class="cls-4" x1="139.968" y1="238.74" x2="143.7" y2="238.74"/><line class="cls-4" x1="139.968" y1="305.26" x2="143.7" y2="305.26"/><line class="cls-3" x1="281.958" y1="238.834" x2="281.958" y2="272"/><line class="cls-3" x1="281.958" y1="272.001" x2="531.689" y2="272.001"/><line class="cls-3" x1="531.689" y1="272.001" x2="595.378" y2="240.809"/><line class="cls-3" x1="672.532" y1="240.809" x2="595.378" y2="240.809"/><line class="cls-5" x1="534.518" y1="279.18" x2="595.378" y2="279.18"/><line class="cls-5" x1="594.858" y1="279.708" x2="594.858" y2="276.928"/><line class="cls-5" x1="534.958" y1="279.43" x2="534.958" y2="276.65"/><path d="M534.469,291.209v3.246h-.955v-7.84h2.031a8.623,8.623,0,0,1,.875.038,4.058,4.058,0,0,1,.659.12,2.338,2.338,0,0,1,1.252.759,2.06,2.06,0,0,1,.433,1.339,2.231,2.231,0,0,1-.152.849,1.951,1.951,0,0,1-.428.651,2.238,2.238,0,0,1-.659.451,3.507,3.507,0,0,1-.852.258v.023l2.32,3.352h-.955l-2.414-3.246Zm0-3.733v2.871h.944c.293,0,.543-.009.75-.029a2.777,2.777,0,0,0,.556-.1,1.532,1.532,0,0,0,.768-.487,1.343,1.343,0,0,0,.27-.873,1.263,1.263,0,0,0-.258-.811,1.4,1.4,0,0,0-.7-.443,2.588,2.588,0,0,0-.5-.093q-.294-.03-.745-.03Z"/><path d="M542.907,293.81a4.256,4.256,0,0,0,.823-.073,4.941,4.941,0,0,0,.741-.208v.756a2.962,2.962,0,0,1-.738.231,4.936,4.936,0,0,1-.943.085,4.019,4.019,0,0,1-1.122-.152,2.332,2.332,0,0,1-.908-.492,2.293,2.293,0,0,1-.6-.888,3.583,3.583,0,0,1-.217-1.321,3.738,3.738,0,0,1,.211-1.322,2.772,2.772,0,0,1,.561-.934,2.278,2.278,0,0,1,.806-.563,2.483,2.483,0,0,1,.953-.187,2.438,2.438,0,0,1,.874.155,1.808,1.808,0,0,1,.7.489,2.406,2.406,0,0,1,.471.862,4.12,4.12,0,0,1,.172,1.265v.12c0,.034,0,.109-.006.226h-3.844a2.26,2.26,0,0,0,.162.905,1.581,1.581,0,0,0,.439.6,1.764,1.764,0,0,0,.653.337A2.992,2.992,0,0,0,542.907,293.81Zm-.479-4.289a1.4,1.4,0,0,0-.585.123,1.517,1.517,0,0,0-.471.334,1.71,1.71,0,0,0-.326.5,1.958,1.958,0,0,0-.155.607h2.848a2.122,2.122,0,0,0-.086-.613,1.522,1.522,0,0,0-.252-.5,1.181,1.181,0,0,0-.41-.331A1.257,1.257,0,0,0,542.428,289.521Z"/><path d="M546.294,294.455V285.97h.908v8.485Z"/><path d="M551.661,293.81a4.256,4.256,0,0,0,.823-.073,4.941,4.941,0,0,0,.741-.208v.756a2.962,2.962,0,0,1-.738.231,4.936,4.936,0,0,1-.943.085,4.019,4.019,0,0,1-1.122-.152,2.332,2.332,0,0,1-.908-.492,2.293,2.293,0,0,1-.6-.888,3.583,3.583,0,0,1-.217-1.321,3.761,3.761,0,0,1,.21-1.322,2.79,2.79,0,0,1,.562-.934,2.278,2.278,0,0,1,.806-.563,2.483,2.483,0,0,1,.953-.187,2.438,2.438,0,0,1,.874.155,1.808,1.808,0,0,1,.7.489,2.406,2.406,0,0,1,.471.862,4.12,4.12,0,0,1,.172,1.265v.12c0,.034,0,.109-.006.226H549.6a2.279,2.279,0,0,0,.161.905,1.593,1.593,0,0,0,.44.6,1.757,1.757,0,0,0,.653.337A2.992,2.992,0,0,0,551.661,293.81Zm-.479-4.289a1.4,1.4,0,0,0-.585.123,1.517,1.517,0,0,0-.471.334,1.69,1.69,0,0,0-.326.5,1.958,1.958,0,0,0-.155.607h2.848a2.122,2.122,0,0,0-.086-.613,1.522,1.522,0,0,0-.252-.5,1.19,1.19,0,0,0-.41-.331A1.257,1.257,0,0,0,551.182,289.521Z"/><path d="M558.247,293.84h-.024a1.851,1.851,0,0,1-.281.278,2.013,2.013,0,0,1-.392.246,2.454,2.454,0,0,1-.487.173,2.36,2.36,0,0,1-.562.064,2.2,2.2,0,0,1-.742-.12,1.632,1.632,0,0,1-.58-.351,1.6,1.6,0,0,1-.378-.566,2.021,2.021,0,0,1-.134-.756,1.787,1.787,0,0,1,.149-.744,1.582,1.582,0,0,1,.419-.557,1.905,1.905,0,0,1,.648-.351,2.681,2.681,0,0,1,.835-.123,4.619,4.619,0,0,1,.8.076,4.212,4.212,0,0,1,.656.176h.024V290.9a2.543,2.543,0,0,0-.029-.4,1.052,1.052,0,0,0-.1-.311,1.191,1.191,0,0,0-.486-.466,1.875,1.875,0,0,0-.9-.184,3.8,3.8,0,0,0-.794.079,5,5,0,0,0-.741.22v-.762a2.373,2.373,0,0,1,.331-.132,3.8,3.8,0,0,1,.4-.1,4.156,4.156,0,0,1,.445-.068c.156-.015.312-.023.469-.023a2.811,2.811,0,0,1,1.38.3,1.778,1.778,0,0,1,.77.791,1.556,1.556,0,0,1,.126.413,3.018,3.018,0,0,1,.038.5v3.715h-.762Zm-.047-1.829q-.252-.069-.6-.134a4.471,4.471,0,0,0-.758-.071,1.471,1.471,0,0,0-.9.246.885.885,0,0,0-.327.756,1.157,1.157,0,0,0,.081.451.881.881,0,0,0,.225.32.921.921,0,0,0,.338.187,1.388,1.388,0,0,0,.417.062,1.7,1.7,0,0,0,.543-.085,2.326,2.326,0,0,0,.446-.2,2.458,2.458,0,0,0,.333-.235c.091-.078.158-.138.2-.181Z"/><path d="M561.516,290.371a.666.666,0,0,0,.1.375.726.726,0,0,0,.26.237,1.664,1.664,0,0,0,.379.149c.143.04.291.075.444.106.209.047.408.1.6.155a1.792,1.792,0,0,1,.519.255,1.247,1.247,0,0,1,.384.46,1.68,1.68,0,0,1,.146.753,1.63,1.63,0,0,1-.165.747,1.507,1.507,0,0,1-.462.545,2.177,2.177,0,0,1-.715.334,3.456,3.456,0,0,1-.914.114,4.438,4.438,0,0,1-.554-.032,3.463,3.463,0,0,1-.439-.082,2.768,2.768,0,0,1-.326-.1,2.082,2.082,0,0,1-.222-.1v-.762a4.819,4.819,0,0,0,.684.223,3.222,3.222,0,0,0,.748.082,2.643,2.643,0,0,0,.581-.059A1.452,1.452,0,0,0,563,293.6a.824.824,0,0,0,.288-.287.783.783,0,0,0,.1-.4.744.744,0,0,0-.091-.387.8.8,0,0,0-.248-.252,1.541,1.541,0,0,0-.359-.164q-.205-.065-.429-.117c-.2-.043-.394-.094-.6-.152a2.145,2.145,0,0,1-.55-.246,1.2,1.2,0,0,1-.4-.431,1.432,1.432,0,0,1-.152-.7,1.719,1.719,0,0,1,.158-.762,1.508,1.508,0,0,1,.428-.533,1.872,1.872,0,0,1,.627-.317,2.666,2.666,0,0,1,.756-.1,3.926,3.926,0,0,1,.858.088,4.272,4.272,0,0,1,.718.222v.774a5.282,5.282,0,0,0-.695-.22,3.268,3.268,0,0,0-.723-.091,1.961,1.961,0,0,0-.538.065,1.045,1.045,0,0,0-.365.178.694.694,0,0,0-.209.27A.87.87,0,0,0,561.516,290.371Z"/><path d="M568.36,293.81a4.256,4.256,0,0,0,.823-.073,4.987,4.987,0,0,0,.742-.208v.756a2.984,2.984,0,0,1-.739.231,4.936,4.936,0,0,1-.943.085,4.019,4.019,0,0,1-1.122-.152,2.332,2.332,0,0,1-.908-.492,2.28,2.28,0,0,1-.6-.888,3.582,3.582,0,0,1-.218-1.321,3.76,3.76,0,0,1,.211-1.322,2.772,2.772,0,0,1,.561-.934,2.287,2.287,0,0,1,.806-.563,2.483,2.483,0,0,1,.953-.187,2.438,2.438,0,0,1,.874.155,1.8,1.8,0,0,1,.7.489,2.391,2.391,0,0,1,.471.862,4.09,4.09,0,0,1,.172,1.265v.12c0,.034,0,.109-.006.226H566.3a2.261,2.261,0,0,0,.161.905,1.591,1.591,0,0,0,.439.6,1.764,1.764,0,0,0,.653.337A2.992,2.992,0,0,0,568.36,293.81Zm-.479-4.289a1.39,1.39,0,0,0-.584.123,1.51,1.51,0,0,0-.472.334,1.71,1.71,0,0,0-.326.5,1.958,1.958,0,0,0-.155.607h2.848a2.122,2.122,0,0,0-.086-.613,1.484,1.484,0,0,0-.252-.5,1.187,1.187,0,0,0-.409-.331A1.265,1.265,0,0,0,567.881,289.521Z"/><path d="M576.2,294.455h-.955v-6.979h-2.619v-.861h6.193v.861H576.2Z"/><path d="M579.968,287.593V286.58h.908v1.013Zm.023,6.862v-5.567h.908v5.567Z"/><path d="M587.262,294.455h-.908v-3.58a2.087,2.087,0,0,0-.079-.618,1.1,1.1,0,0,0-.228-.419.891.891,0,0,0-.358-.241,1.364,1.364,0,0,0-.466-.076,1.577,1.577,0,0,0-.884.261,2.625,2.625,0,0,0-.715.718v3.955h-.908v-5.567h.7l.175.774h.018a3.334,3.334,0,0,1,.331-.361,2.138,2.138,0,0,1,.4-.293,2,2,0,0,1,.483-.2,2.218,2.218,0,0,1,.574-.07,1.7,1.7,0,0,1,1.031.3,1.915,1.915,0,0,1,.633.814h.024a2.943,2.943,0,0,1,.845-.817,2.047,2.047,0,0,1,1.109-.3,2.553,2.553,0,0,1,.622.082,1.57,1.57,0,0,1,.6.3,1.651,1.651,0,0,1,.458.606,2.354,2.354,0,0,1,.182,1v3.727H590v-3.58a2.12,2.12,0,0,0-.079-.618,1.089,1.089,0,0,0-.229-.419.888.888,0,0,0-.357-.241,1.368,1.368,0,0,0-.466-.076,1.6,1.6,0,0,0-.888.261,2.62,2.62,0,0,0-.718.718Z"/><path d="M595.3,293.81a4.267,4.267,0,0,0,.824-.073,4.941,4.941,0,0,0,.741-.208v.756a2.962,2.962,0,0,1-.738.231,4.946,4.946,0,0,1-.944.085,4.029,4.029,0,0,1-1.122-.152,2.335,2.335,0,0,1-.907-.492,2.282,2.282,0,0,1-.6-.888,3.583,3.583,0,0,1-.217-1.321,3.761,3.761,0,0,1,.21-1.322,2.772,2.772,0,0,1,.561-.934,2.29,2.29,0,0,1,.807-.563,2.474,2.474,0,0,1,.952-.187,2.438,2.438,0,0,1,.874.155,1.8,1.8,0,0,1,.705.489,2.4,2.4,0,0,1,.47.862,4.088,4.088,0,0,1,.173,1.265v.12c0,.034,0,.109-.006.226h-3.844a2.279,2.279,0,0,0,.161.905,1.593,1.593,0,0,0,.44.6,1.757,1.757,0,0,0,.653.337A2.984,2.984,0,0,0,595.3,293.81Zm-.479-4.289a1.393,1.393,0,0,0-.584.123,1.533,1.533,0,0,0-.472.334,1.71,1.71,0,0,0-.326.5,1.93,1.93,0,0,0-.154.607h2.848a2.122,2.122,0,0,0-.086-.613,1.5,1.5,0,0,0-.253-.5,1.187,1.187,0,0,0-.409-.331A1.259,1.259,0,0,0,594.822,289.521Z"/><path d="M27.5,72.289a.219.219,0,0,1-.035.123.244.244,0,0,1-.123.084,1.44,1.44,0,0,1-.233.053,3.139,3.139,0,0,1-.725,0,1.419,1.419,0,0,1-.238-.053.244.244,0,0,1-.123-.084.219.219,0,0,1-.035-.123V61.373a.2.2,0,0,1,.04-.123.259.259,0,0,1,.131-.083,1.459,1.459,0,0,1,.238-.053,2.3,2.3,0,0,1,.347-.022,2.466,2.466,0,0,1,.365.022,1.341,1.341,0,0,1,.233.053.237.237,0,0,1,.123.083.219.219,0,0,1,.035.123Z"/><path d="M37.167,72.3a.2.2,0,0,1-.035.119.278.278,0,0,1-.115.083.786.786,0,0,1-.219.053,2.879,2.879,0,0,1-.352.017,2.956,2.956,0,0,1-.36-.017.8.8,0,0,1-.22-.053.268.268,0,0,1-.114-.083.2.2,0,0,1-.035-.119V67.666a4.572,4.572,0,0,0-.106-1.09,2.256,2.256,0,0,0-.308-.712,1.334,1.334,0,0,0-.523-.457,1.66,1.66,0,0,0-.742-.158,1.874,1.874,0,0,0-1.09.387,5.937,5.937,0,0,0-1.143,1.134V72.3a.2.2,0,0,1-.035.119.268.268,0,0,1-.114.083.8.8,0,0,1-.22.053,2.956,2.956,0,0,1-.36.017,2.879,2.879,0,0,1-.352-.017A.868.868,0,0,1,30.5,72.5a.24.24,0,0,1-.114-.083.215.215,0,0,1-.031-.119v-7.91a.241.241,0,0,1,.027-.119.233.233,0,0,1,.1-.088.589.589,0,0,1,.2-.052,3.733,3.733,0,0,1,.646,0,.514.514,0,0,1,.2.052.28.28,0,0,1,.1.088.213.213,0,0,1,.031.119v1.046A4.853,4.853,0,0,1,33,64.34a2.861,2.861,0,0,1,1.341-.348,2.986,2.986,0,0,1,1.331.268,2.4,2.4,0,0,1,.875.717,2.872,2.872,0,0,1,.479,1.05,6.286,6.286,0,0,1,.145,1.446Z"/><path d="M47.09,68.22a7.1,7.1,0,0,1-.225,1.863,4.057,4.057,0,0,1-.659,1.4,2.952,2.952,0,0,1-1.076.888,3.316,3.316,0,0,1-1.468.312,2.836,2.836,0,0,1-.651-.071,2.466,2.466,0,0,1-.584-.219,3.493,3.493,0,0,1-.567-.378c-.187-.153-.387-.331-.6-.536v3.955a.212.212,0,0,1-.035.123.259.259,0,0,1-.114.088.8.8,0,0,1-.22.052,2.928,2.928,0,0,1-.36.018,2.854,2.854,0,0,1-.352-.018.872.872,0,0,1-.224-.052.238.238,0,0,1-.114-.088.234.234,0,0,1-.031-.123V64.388a.264.264,0,0,1,.027-.128.206.206,0,0,1,.105-.083.644.644,0,0,1,.2-.048,2.791,2.791,0,0,1,.3-.014,2.753,2.753,0,0,1,.3.014.638.638,0,0,1,.2.048.2.2,0,0,1,.141.211v1.063a8.205,8.205,0,0,1,.694-.641,4.174,4.174,0,0,1,.672-.453,3.141,3.141,0,0,1,.7-.272,2.955,2.955,0,0,1,.751-.093,3.01,3.01,0,0,1,1.468.334,2.779,2.779,0,0,1,.989.914,4.078,4.078,0,0,1,.558,1.35A7.3,7.3,0,0,1,47.09,68.22Zm-1.5.167a7.343,7.343,0,0,0-.093-1.173,3.41,3.41,0,0,0-.318-1.007,1.9,1.9,0,0,0-.606-.7,1.621,1.621,0,0,0-.946-.264,1.9,1.9,0,0,0-.558.084,2.279,2.279,0,0,0-.557.264,3.982,3.982,0,0,0-.592.474,7.221,7.221,0,0,0-.655.725v3.147A6.329,6.329,0,0,0,42.4,71.05a1.914,1.914,0,0,0,1.132.387,1.65,1.65,0,0,0,.942-.264,2,2,0,0,0,.637-.7,3.538,3.538,0,0,0,.358-.984A5.293,5.293,0,0,0,45.587,68.387Z"/><path d="M56.046,72.3a.224.224,0,0,1-.031.119.241.241,0,0,1-.11.083.774.774,0,0,1-.207.053,2.291,2.291,0,0,1-.312.017,2.465,2.465,0,0,1-.329-.017.7.7,0,0,1-.2-.053.207.207,0,0,1-.1-.083.243.243,0,0,1-.027-.119V71.252a4.927,4.927,0,0,1-1.336,1.09,2.871,2.871,0,0,1-1.336.343,3.016,3.016,0,0,1-1.331-.264,2.346,2.346,0,0,1-.875-.716,2.919,2.919,0,0,1-.479-1.055,6.376,6.376,0,0,1-.145-1.463v-4.8a.222.222,0,0,1,.031-.119.274.274,0,0,1,.119-.088.711.711,0,0,1,.228-.052c.094-.009.211-.014.352-.014s.258.005.351.014a.666.666,0,0,1,.224.052.309.309,0,0,1,.119.088.193.193,0,0,1,.035.119v4.6a4.924,4.924,0,0,0,.1,1.112,2.086,2.086,0,0,0,.308.712,1.428,1.428,0,0,0,.523.457,1.6,1.6,0,0,0,.738.163,1.856,1.856,0,0,0,1.086-.387,6.21,6.21,0,0,0,1.147-1.134V64.388a.221.221,0,0,1,.03-.119.274.274,0,0,1,.119-.088.711.711,0,0,1,.224-.052c.091-.009.21-.014.356-.014s.258.005.352.014a.622.622,0,0,1,.219.052.364.364,0,0,1,.119.088.184.184,0,0,1,.04.119Z"/><path d="M62.84,71.718a1.792,1.792,0,0,1-.036.4.448.448,0,0,1-.105.22.685.685,0,0,1-.211.132,1.708,1.708,0,0,1-.321.1c-.12.026-.247.048-.382.066a3.236,3.236,0,0,1-.4.026,3.055,3.055,0,0,1-1.055-.162,1.713,1.713,0,0,1-.721-.493,2.017,2.017,0,0,1-.408-.835,4.9,4.9,0,0,1-.128-1.191V65.363H57.962a.235.235,0,0,1-.211-.14.979.979,0,0,1-.079-.457,1.481,1.481,0,0,1,.022-.281.733.733,0,0,1,.057-.189.221.221,0,0,1,.092-.106.271.271,0,0,1,.127-.031h1.1V62.278a.217.217,0,0,1,.031-.114.244.244,0,0,1,.114-.092.772.772,0,0,1,.224-.057A2.854,2.854,0,0,1,59.79,62a2.939,2.939,0,0,1,.36.018.717.717,0,0,1,.22.057.279.279,0,0,1,.114.092.2.2,0,0,1,.035.114v1.881H62.55a.25.25,0,0,1,.123.031.258.258,0,0,1,.092.106.6.6,0,0,1,.057.189,1.838,1.838,0,0,1,.018.281.976.976,0,0,1-.08.457.235.235,0,0,1-.21.14H60.519v4.413a2.513,2.513,0,0,0,.242,1.234.914.914,0,0,0,.866.418,1.457,1.457,0,0,0,.36-.04c.106-.026.2-.054.281-.083s.153-.057.211-.084a.4.4,0,0,1,.158-.039.165.165,0,0,1,.084.022.141.141,0,0,1,.061.083,1,1,0,0,1,.04.167A1.614,1.614,0,0,1,62.84,71.718Z"/><path d="M73.791,70.145a2.511,2.511,0,0,1-.224,1.081,2.208,2.208,0,0,1-.638.8,2.9,2.9,0,0,1-.984.492,4.482,4.482,0,0,1-1.257.167,4.724,4.724,0,0,1-.8-.066,4.791,4.791,0,0,1-.686-.167,3.688,3.688,0,0,1-.514-.211,1.485,1.485,0,0,1-.307-.2.5.5,0,0,1-.141-.246,1.686,1.686,0,0,1-.044-.431,1.847,1.847,0,0,1,.018-.281.858.858,0,0,1,.044-.184.2.2,0,0,1,.074-.1.206.206,0,0,1,.11-.03.623.623,0,0,1,.286.118q.189.118.466.26a4.367,4.367,0,0,0,.654.259,2.912,2.912,0,0,0,.871.119,2.6,2.6,0,0,0,.668-.08,1.606,1.606,0,0,0,.518-.232,1.031,1.031,0,0,0,.338-.392,1.229,1.229,0,0,0,.119-.562.914.914,0,0,0-.171-.563,1.655,1.655,0,0,0-.453-.4,3.731,3.731,0,0,0-.633-.312q-.351-.137-.725-.286a7.291,7.291,0,0,1-.729-.338,2.81,2.81,0,0,1-.638-.461,2.114,2.114,0,0,1-.452-.651,2.181,2.181,0,0,1-.172-.905,2.269,2.269,0,0,1,.181-.892,2.074,2.074,0,0,1,.54-.747,2.71,2.71,0,0,1,.9-.514,3.738,3.738,0,0,1,1.261-.194,3.863,3.863,0,0,1,.633.053,4.272,4.272,0,0,1,.571.132,2.82,2.82,0,0,1,.435.171,1.907,1.907,0,0,1,.273.163.5.5,0,0,1,.123.123.4.4,0,0,1,.044.119c.009.044.017.1.026.162a1.78,1.78,0,0,1,.013.238,2.168,2.168,0,0,1-.013.259.64.64,0,0,1-.044.18.227.227,0,0,1-.074.1.165.165,0,0,1-.1.031.484.484,0,0,1-.229-.1,3.19,3.19,0,0,0-.386-.206,4.184,4.184,0,0,0-.558-.207,2.564,2.564,0,0,0-.734-.1,2.285,2.285,0,0,0-.651.084,1.261,1.261,0,0,0-.461.237,1.014,1.014,0,0,0-.273.365,1.138,1.138,0,0,0-.092.457.933.933,0,0,0,.176.576,1.666,1.666,0,0,0,.457.408,3.84,3.84,0,0,0,.642.317q.36.139.733.29c.249.1.5.211.739.334a2.764,2.764,0,0,1,.646.448,2.033,2.033,0,0,1,.452.633A2.06,2.06,0,0,1,73.791,70.145Z"/><path d="M77.482,61.716a.953.953,0,0,1-.193.694,1.039,1.039,0,0,1-.712.185,1.023,1.023,0,0,1-.7-.18.937.937,0,0,1-.189-.681.956.956,0,0,1,.194-.7,1.037,1.037,0,0,1,.711-.184,1.023,1.023,0,0,1,.7.18A.937.937,0,0,1,77.482,61.716ZM77.315,72.3a.2.2,0,0,1-.035.119.274.274,0,0,1-.114.083.8.8,0,0,1-.22.053,2.967,2.967,0,0,1-.36.017,2.879,2.879,0,0,1-.352-.017.858.858,0,0,1-.224-.053.235.235,0,0,1-.114-.083.215.215,0,0,1-.031-.119v-7.91a.206.206,0,0,1,.145-.2.858.858,0,0,1,.224-.053,2.854,2.854,0,0,1,.352-.018,2.939,2.939,0,0,1,.36.018.8.8,0,0,1,.22.053.251.251,0,0,1,.114.088.2.2,0,0,1,.035.114Z"/><path d="M86.605,64.748a.9.9,0,0,1-.083.444.248.248,0,0,1-.216.136H85.173a1.779,1.779,0,0,1,.43.7,2.581,2.581,0,0,1,.123.8,3.14,3.14,0,0,1-.219,1.213,2.426,2.426,0,0,1-.629.892,2.8,2.8,0,0,1-.971.559,3.845,3.845,0,0,1-1.248.193,3.255,3.255,0,0,1-.919-.128,1.913,1.913,0,0,1-.672-.32,1.365,1.365,0,0,0-.259.36,1.021,1.021,0,0,0-.1.466.606.606,0,0,0,.285.51,1.386,1.386,0,0,0,.761.219l2.065.088a4.262,4.262,0,0,1,1.081.163,2.677,2.677,0,0,1,.853.413,1.9,1.9,0,0,1,.562.659,1.953,1.953,0,0,1,.2.91,2.439,2.439,0,0,1-.228,1.037,2.392,2.392,0,0,1-.7.866,3.485,3.485,0,0,1-1.2.588,6.1,6.1,0,0,1-1.722.216,7.01,7.01,0,0,1-1.631-.163,3.514,3.514,0,0,1-1.1-.444,1.715,1.715,0,0,1-.624-.672,1.888,1.888,0,0,1-.193-.848,2.238,2.238,0,0,1,.07-.563,2,2,0,0,1,.216-.518,2.482,2.482,0,0,1,.36-.47,4.57,4.57,0,0,1,.5-.444,1.556,1.556,0,0,1-.637-.554,1.353,1.353,0,0,1-.206-.721,2.052,2.052,0,0,1,.219-.958,3.238,3.238,0,0,1,.545-.756,2.581,2.581,0,0,1-.43-.733,2.739,2.739,0,0,1-.158-.989,3.072,3.072,0,0,1,.228-1.213,2.557,2.557,0,0,1,.633-.905,2.759,2.759,0,0,1,.971-.567,3.724,3.724,0,0,1,1.235-.2,5.43,5.43,0,0,1,.672.039,4.83,4.83,0,0,1,.585.11h2.39a.239.239,0,0,1,.224.145A1.009,1.009,0,0,1,86.605,64.748ZM85.067,73.1a.891.891,0,0,0-.417-.787,2.119,2.119,0,0,0-1.13-.294l-2.048-.071a3.8,3.8,0,0,0-.461.418,2.35,2.35,0,0,0-.286.378,1.279,1.279,0,0,0-.145.356,1.655,1.655,0,0,0-.039.36.931.931,0,0,0,.58.866,3.637,3.637,0,0,0,1.617.294,4.063,4.063,0,0,0,1.1-.127,2.121,2.121,0,0,0,.716-.338,1.237,1.237,0,0,0,.391-.484A1.4,1.4,0,0,0,85.067,73.1Zm-.729-6.267a1.724,1.724,0,0,0-.444-1.261,1.687,1.687,0,0,0-1.261-.453,1.767,1.767,0,0,0-.734.141,1.444,1.444,0,0,0-.519.387,1.641,1.641,0,0,0-.308.567,2.231,2.231,0,0,0-.1.672,1.547,1.547,0,0,0,1.688,1.679,1.876,1.876,0,0,0,.747-.137,1.4,1.4,0,0,0,.523-.377,1.614,1.614,0,0,0,.308-.559A2.161,2.161,0,0,0,84.338,66.831Z"/><path d="M95.28,72.3a.2.2,0,0,1-.035.119.281.281,0,0,1-.114.083.8.8,0,0,1-.22.053,2.879,2.879,0,0,1-.352.017,2.967,2.967,0,0,1-.36-.017.8.8,0,0,1-.22-.053.268.268,0,0,1-.114-.083.2.2,0,0,1-.035-.119V67.666a4.52,4.52,0,0,0-.106-1.09,2.278,2.278,0,0,0-.307-.712,1.341,1.341,0,0,0-.523-.457,1.668,1.668,0,0,0-.743-.158,1.877,1.877,0,0,0-1.09.387,5.907,5.907,0,0,0-1.142,1.134V72.3a.2.2,0,0,1-.035.119.278.278,0,0,1-.115.083.786.786,0,0,1-.219.053,2.974,2.974,0,0,1-.361.017,2.861,2.861,0,0,1-.351-.017.848.848,0,0,1-.224-.053.243.243,0,0,1-.115-.083.224.224,0,0,1-.031-.119v-7.91a.2.2,0,0,1,.132-.207.589.589,0,0,1,.2-.052,3.733,3.733,0,0,1,.646,0,.514.514,0,0,1,.2.052.28.28,0,0,1,.1.088.213.213,0,0,1,.031.119v1.046A4.842,4.842,0,0,1,91.11,64.34a2.857,2.857,0,0,1,1.34-.348,2.986,2.986,0,0,1,1.331.268,2.4,2.4,0,0,1,.875.717,2.856,2.856,0,0,1,.479,1.05,6.231,6.231,0,0,1,.145,1.446Z"/><path d="M103.884,72.307a.184.184,0,0,1-.07.158.486.486,0,0,1-.193.079,1.818,1.818,0,0,1-.361.026,1.965,1.965,0,0,1-.364-.026.428.428,0,0,1-.2-.079.2.2,0,0,1-.062-.158v-.791a3.9,3.9,0,0,1-1.155.861,3.068,3.068,0,0,1-1.349.308A3.662,3.662,0,0,1,99,72.522a2.433,2.433,0,0,1-.861-.47,2.114,2.114,0,0,1-.554-.756,2.5,2.5,0,0,1-.2-1.019,2.356,2.356,0,0,1,.273-1.161,2.26,2.26,0,0,1,.782-.817,3.855,3.855,0,0,1,1.248-.488,7.776,7.776,0,0,1,1.661-.162h1.09v-.616a3.033,3.033,0,0,0-.1-.808,1.378,1.378,0,0,0-.312-.585,1.334,1.334,0,0,0-.558-.351,2.6,2.6,0,0,0-.843-.119,3.356,3.356,0,0,0-.963.128,5,5,0,0,0-.747.281q-.321.153-.536.281a.741.741,0,0,1-.321.127.212.212,0,0,1-.123-.035.291.291,0,0,1-.092-.105.516.516,0,0,1-.057-.18,1.811,1.811,0,0,1,.013-.589.5.5,0,0,1,.149-.242,1.949,1.949,0,0,1,.409-.268,4.432,4.432,0,0,1,.668-.281,6.1,6.1,0,0,1,.826-.211,4.908,4.908,0,0,1,.905-.084,4.75,4.75,0,0,1,1.451.194,2.347,2.347,0,0,1,.966.567,2.2,2.2,0,0,1,.537.927,4.5,4.5,0,0,1,.166,1.292Zm-1.441-3.613H101.2a4.628,4.628,0,0,0-1.037.1,2.153,2.153,0,0,0-.73.3,1.239,1.239,0,0,0-.426.475,1.424,1.424,0,0,0-.136.637,1.275,1.275,0,0,0,.391.98,1.543,1.543,0,0,0,1.094.365,2.038,2.038,0,0,0,1.059-.29,4.538,4.538,0,0,0,1.024-.888Z"/><path d="M108,72.3a.2.2,0,0,1-.035.119.278.278,0,0,1-.115.083.786.786,0,0,1-.219.053,2.974,2.974,0,0,1-.361.017,2.861,2.861,0,0,1-.351-.017.848.848,0,0,1-.224-.053.243.243,0,0,1-.115-.083.224.224,0,0,1-.03-.119V60.556a.244.244,0,0,1,.03-.123.23.23,0,0,1,.115-.088.848.848,0,0,1,.224-.053,2.861,2.861,0,0,1,.351-.017,2.974,2.974,0,0,1,.361.017.786.786,0,0,1,.219.053.261.261,0,0,1,.115.088.219.219,0,0,1,.035.123Z"/><path d="M35.514,168.719a8.81,8.81,0,0,1-.325,2.487,5.2,5.2,0,0,1-.971,1.885,4.242,4.242,0,0,1-1.622,1.2,5.753,5.753,0,0,1-2.276.417,5.85,5.85,0,0,1-2.219-.382,3.908,3.908,0,0,1-1.547-1.112,4.748,4.748,0,0,1-.91-1.81,9.378,9.378,0,0,1-.3-2.488,8.582,8.582,0,0,1,.326-2.443,5.081,5.081,0,0,1,.975-1.868,4.327,4.327,0,0,1,1.626-1.186A5.74,5.74,0,0,1,30.549,163a5.8,5.8,0,0,1,2.188.378,3.967,3.967,0,0,1,1.551,1.1,4.691,4.691,0,0,1,.923,1.793A8.989,8.989,0,0,1,35.514,168.719Zm-1.6.105a8.841,8.841,0,0,0-.172-1.8,4.108,4.108,0,0,0-.57-1.441,2.756,2.756,0,0,0-1.067-.954,3.574,3.574,0,0,0-1.65-.343,3.372,3.372,0,0,0-1.65.369,3.1,3.1,0,0,0-1.084.985,4.092,4.092,0,0,0-.6,1.437,8.05,8.05,0,0,0-.18,1.727,9.551,9.551,0,0,0,.167,1.846,4.108,4.108,0,0,0,.562,1.454,2.685,2.685,0,0,0,1.057.949,3.638,3.638,0,0,0,1.664.339,3.446,3.446,0,0,0,1.668-.369,3.011,3.011,0,0,0,1.088-1,4.222,4.222,0,0,0,.588-1.455A8.391,8.391,0,0,0,33.915,168.824Z"/><path d="M44.514,174.318a.22.22,0,0,1-.03.118.256.256,0,0,1-.11.084.777.777,0,0,1-.207.052,2.282,2.282,0,0,1-.312.018,2.431,2.431,0,0,1-.329-.018.716.716,0,0,1-.2-.052.224.224,0,0,1-.1-.084.251.251,0,0,1-.026-.118v-1.046a4.9,4.9,0,0,1-1.336,1.089,2.862,2.862,0,0,1-1.336.343,3.03,3.03,0,0,1-1.331-.263,2.341,2.341,0,0,1-.875-.717,2.89,2.89,0,0,1-.479-1.054,6.336,6.336,0,0,1-.145-1.464v-4.8a.212.212,0,0,1,.031-.118.263.263,0,0,1,.118-.088.722.722,0,0,1,.229-.053c.094-.009.211-.013.352-.013s.257,0,.351.013A.664.664,0,0,1,39,166.2a.307.307,0,0,1,.119.088.2.2,0,0,1,.035.118v4.606a4.93,4.93,0,0,0,.1,1.112,2.1,2.1,0,0,0,.308.712,1.429,1.429,0,0,0,.523.457,1.6,1.6,0,0,0,.738.162,1.853,1.853,0,0,0,1.085-.387,6.108,6.108,0,0,0,1.147-1.133v-5.529a.22.22,0,0,1,.031-.118.267.267,0,0,1,.119-.088.7.7,0,0,1,.224-.053c.091-.009.209-.013.356-.013s.258,0,.351.013a.626.626,0,0,1,.22.053.361.361,0,0,1,.119.088.182.182,0,0,1,.039.118Z"/><path d="M51.308,173.737a1.817,1.817,0,0,1-.035.405.444.444,0,0,1-.105.219.685.685,0,0,1-.211.132,1.708,1.708,0,0,1-.321.1c-.12.027-.248.049-.382.066a3.357,3.357,0,0,1-1.459-.136,1.7,1.7,0,0,1-.721-.492,2.024,2.024,0,0,1-.409-.835,4.912,4.912,0,0,1-.127-1.191v-4.623H46.43a.238.238,0,0,1-.211-.141.989.989,0,0,1-.079-.457,1.577,1.577,0,0,1,.022-.281.853.853,0,0,1,.057-.189.221.221,0,0,1,.093-.1.257.257,0,0,1,.127-.031h1.1V164.3a.217.217,0,0,1,.031-.114.251.251,0,0,1,.114-.093.772.772,0,0,1,.224-.057,3.1,3.1,0,0,1,.352-.017,3.187,3.187,0,0,1,.36.017.717.717,0,0,1,.22.057.3.3,0,0,1,.114.093.2.2,0,0,1,.035.114v1.881h2.03a.234.234,0,0,1,.123.031.256.256,0,0,1,.093.1.621.621,0,0,1,.057.189,2,2,0,0,1,.017.281.976.976,0,0,1-.079.457.237.237,0,0,1-.211.141h-2.03V171.8a2.515,2.515,0,0,0,.242,1.235.914.914,0,0,0,.865.417,1.518,1.518,0,0,0,.361-.039,2.746,2.746,0,0,0,.281-.084c.082-.029.152-.057.211-.083a.4.4,0,0,1,.158-.04.181.181,0,0,1,.084.022.147.147,0,0,1,.061.084.979.979,0,0,1,.04.167A1.735,1.735,0,0,1,51.308,173.737Z"/><path d="M60.5,170.239a7.145,7.145,0,0,1-.224,1.864,4.085,4.085,0,0,1-.66,1.4,2.959,2.959,0,0,1-1.076.887,3.316,3.316,0,0,1-1.468.312,2.829,2.829,0,0,1-.65-.07,2.477,2.477,0,0,1-.585-.22,3.367,3.367,0,0,1-.567-.378c-.187-.152-.387-.331-.6-.536v3.955a.212.212,0,0,1-.036.123.252.252,0,0,1-.114.088.8.8,0,0,1-.22.053,2.945,2.945,0,0,1-.36.017,2.879,2.879,0,0,1-.352-.017.868.868,0,0,1-.224-.053.232.232,0,0,1-.114-.088.244.244,0,0,1-.031-.123V166.407a.26.26,0,0,1,.027-.127.212.212,0,0,1,.105-.084.705.705,0,0,1,.2-.048,2.821,2.821,0,0,1,.3-.013,2.788,2.788,0,0,1,.3.013.7.7,0,0,1,.2.048.25.25,0,0,1,.11.084.23.23,0,0,1,.031.127v1.064a8.4,8.4,0,0,1,.694-.642,4.232,4.232,0,0,1,.672-.452,3.2,3.2,0,0,1,.7-.273,3.295,3.295,0,0,1,2.219.242,2.77,2.77,0,0,1,.989.914,4.072,4.072,0,0,1,.558,1.349A7.311,7.311,0,0,1,60.5,170.239Zm-1.5.167a7.238,7.238,0,0,0-.093-1.173,3.4,3.4,0,0,0-.318-1.006,1.88,1.88,0,0,0-.606-.7,1.621,1.621,0,0,0-.946-.264,1.929,1.929,0,0,0-.558.083,2.316,2.316,0,0,0-.557.264,3.93,3.93,0,0,0-.592.475,7.222,7.222,0,0,0-.654.725v3.146a6.229,6.229,0,0,0,1.14,1.116,1.914,1.914,0,0,0,1.132.387,1.657,1.657,0,0,0,.942-.263,2,2,0,0,0,.637-.7,3.538,3.538,0,0,0,.358-.984A5.279,5.279,0,0,0,59,170.406Z"/><path d="M69.458,174.318a.22.22,0,0,1-.031.118.25.25,0,0,1-.11.084.769.769,0,0,1-.206.052,2.282,2.282,0,0,1-.312.018,2.448,2.448,0,0,1-.33-.018.708.708,0,0,1-.2-.052.214.214,0,0,1-.1-.084.239.239,0,0,1-.027-.118v-1.046a4.9,4.9,0,0,1-1.336,1.089,2.858,2.858,0,0,1-1.335.343,3.032,3.032,0,0,1-1.332-.263,2.349,2.349,0,0,1-.875-.717,2.907,2.907,0,0,1-.479-1.054,6.391,6.391,0,0,1-.145-1.464v-4.8a.22.22,0,0,1,.031-.118.267.267,0,0,1,.119-.088.716.716,0,0,1,.228-.053c.094-.009.211-.013.352-.013s.258,0,.351.013a.676.676,0,0,1,.225.053.3.3,0,0,1,.118.088.192.192,0,0,1,.035.118v4.606a4.93,4.93,0,0,0,.1,1.112,2.1,2.1,0,0,0,.308.712,1.437,1.437,0,0,0,.523.457,1.6,1.6,0,0,0,.738.162,1.856,1.856,0,0,0,1.086-.387A6.169,6.169,0,0,0,68,171.936v-5.529a.212.212,0,0,1,.031-.118.263.263,0,0,1,.118-.088.709.709,0,0,1,.224-.053c.091-.009.21-.013.356-.013s.258,0,.352.013a.626.626,0,0,1,.22.053.356.356,0,0,1,.118.088.178.178,0,0,1,.04.118Z"/><path d="M76.252,173.737a1.879,1.879,0,0,1-.035.405.453.453,0,0,1-.106.219.685.685,0,0,1-.211.132,1.708,1.708,0,0,1-.321.1c-.12.027-.247.049-.382.066a3.357,3.357,0,0,1-1.459-.136,1.7,1.7,0,0,1-.721-.492,2.035,2.035,0,0,1-.408-.835,4.909,4.909,0,0,1-.128-1.191v-4.623H71.374a.237.237,0,0,1-.211-.141.976.976,0,0,1-.079-.457,1.489,1.489,0,0,1,.022-.281.758.758,0,0,1,.057-.189.214.214,0,0,1,.092-.1.261.261,0,0,1,.128-.031h1.1V164.3a.217.217,0,0,1,.031-.114.257.257,0,0,1,.114-.093.78.78,0,0,1,.224-.057,3.1,3.1,0,0,1,.352-.017,3.187,3.187,0,0,1,.36.017.717.717,0,0,1,.22.057.289.289,0,0,1,.114.093.2.2,0,0,1,.035.114v1.881h2.031a.234.234,0,0,1,.123.031.248.248,0,0,1,.092.1.621.621,0,0,1,.057.189,1.847,1.847,0,0,1,.018.281.989.989,0,0,1-.079.457.237.237,0,0,1-.211.141H73.931V171.8a2.515,2.515,0,0,0,.242,1.235.915.915,0,0,0,.866.417,1.5,1.5,0,0,0,.36-.039,2.672,2.672,0,0,0,.281-.084c.082-.029.153-.057.211-.083a.4.4,0,0,1,.159-.04.175.175,0,0,1,.083.022.153.153,0,0,1,.062.084,1.1,1.1,0,0,1,.039.167A1.6,1.6,0,0,1,76.252,173.737Z"/><path d="M87.2,172.164a2.5,2.5,0,0,1-.224,1.081,2.208,2.208,0,0,1-.637.8,2.875,2.875,0,0,1-.985.492,4.445,4.445,0,0,1-1.257.167,4.724,4.724,0,0,1-.8-.066,4.615,4.615,0,0,1-.685-.167,3.431,3.431,0,0,1-.515-.211,1.532,1.532,0,0,1-.307-.2.5.5,0,0,1-.141-.246,1.691,1.691,0,0,1-.044-.431,1.847,1.847,0,0,1,.018-.281.934.934,0,0,1,.044-.185.194.194,0,0,1,.074-.1.207.207,0,0,1,.11-.031.628.628,0,0,1,.286.119q.189.118.466.259a4.237,4.237,0,0,0,.655.259,2.878,2.878,0,0,0,.87.119,2.6,2.6,0,0,0,.668-.079,1.607,1.607,0,0,0,.518-.233,1.039,1.039,0,0,0,.339-.391,1.247,1.247,0,0,0,.118-.563.911.911,0,0,0-.171-.562,1.641,1.641,0,0,0-.453-.4,3.588,3.588,0,0,0-.633-.312q-.351-.137-.725-.286a7.521,7.521,0,0,1-.729-.338,2.777,2.777,0,0,1-.637-.462,2.084,2.084,0,0,1-.453-.65,2.185,2.185,0,0,1-.171-.905,2.276,2.276,0,0,1,.18-.893,2.074,2.074,0,0,1,.54-.747,2.738,2.738,0,0,1,.9-.514,4.071,4.071,0,0,1,1.894-.14,4.4,4.4,0,0,1,.571.131,2.771,2.771,0,0,1,.436.172,1.956,1.956,0,0,1,.272.162.467.467,0,0,1,.123.123.385.385,0,0,1,.044.119c.009.044.018.1.026.163a1.734,1.734,0,0,1,.014.237,2.137,2.137,0,0,1-.014.259.592.592,0,0,1-.044.18.237.237,0,0,1-.074.1.171.171,0,0,1-.1.03.484.484,0,0,1-.228-.1,3.139,3.139,0,0,0-.387-.207,4.225,4.225,0,0,0-.558-.206,2.529,2.529,0,0,0-.734-.1,2.323,2.323,0,0,0-.651.083,1.248,1.248,0,0,0-.461.238,1,1,0,0,0-.272.364,1.122,1.122,0,0,0-.093.457.929.929,0,0,0,.176.576,1.684,1.684,0,0,0,.457.409,3.878,3.878,0,0,0,.642.316l.734.29q.374.15.738.334a2.768,2.768,0,0,1,.646.449,2.017,2.017,0,0,1,.452.632A2.06,2.06,0,0,1,87.2,172.164Z"/><path d="M90.894,163.736a.955.955,0,0,1-.193.694,1.04,1.04,0,0,1-.712.184,1.023,1.023,0,0,1-.7-.18.937.937,0,0,1-.189-.681.953.953,0,0,1,.194-.694,1.039,1.039,0,0,1,.712-.185,1.022,1.022,0,0,1,.7.18A.939.939,0,0,1,90.894,163.736Zm-.167,10.582a.192.192,0,0,1-.035.118.278.278,0,0,1-.114.084.8.8,0,0,1-.22.052,2.939,2.939,0,0,1-.36.018,2.854,2.854,0,0,1-.352-.018.862.862,0,0,1-.224-.052.242.242,0,0,1-.114-.084.212.212,0,0,1-.031-.118v-7.911a.217.217,0,0,1,.031-.114.228.228,0,0,1,.114-.088.862.862,0,0,1,.224-.052,2.854,2.854,0,0,1,.352-.018,2.939,2.939,0,0,1,.36.018.8.8,0,0,1,.22.052.259.259,0,0,1,.114.088.2.2,0,0,1,.035.114Z"/><path d="M100.017,166.768a.9.9,0,0,1-.083.444.25.25,0,0,1-.216.136H98.585a1.779,1.779,0,0,1,.43.7,2.576,2.576,0,0,1,.123.8,3.143,3.143,0,0,1-.219,1.213,2.434,2.434,0,0,1-.629.892,2.811,2.811,0,0,1-.971.558,3.818,3.818,0,0,1-1.248.193,3.248,3.248,0,0,1-.918-.127,1.919,1.919,0,0,1-.673-.321,1.386,1.386,0,0,0-.259.361,1.03,1.03,0,0,0-.1.465.606.606,0,0,0,.285.51,1.386,1.386,0,0,0,.761.22l2.065.088a4.263,4.263,0,0,1,1.081.162,2.709,2.709,0,0,1,.853.413,1.9,1.9,0,0,1,.562.66,1.949,1.949,0,0,1,.2.909,2.435,2.435,0,0,1-.228,1.037,2.381,2.381,0,0,1-.7.866,3.5,3.5,0,0,1-1.2.589,6.1,6.1,0,0,1-1.722.215,7.07,7.07,0,0,1-1.631-.162,3.572,3.572,0,0,1-1.1-.444,1.724,1.724,0,0,1-.624-.673,1.882,1.882,0,0,1-.193-.848,2.231,2.231,0,0,1,.07-.562,2,2,0,0,1,.216-.519,2.482,2.482,0,0,1,.36-.47,4.806,4.806,0,0,1,.5-.444,1.546,1.546,0,0,1-.638-.554,1.347,1.347,0,0,1-.206-.72,2.035,2.035,0,0,1,.22-.958,3.181,3.181,0,0,1,.545-.756,2.566,2.566,0,0,1-.431-.734,2.731,2.731,0,0,1-.158-.989,3.075,3.075,0,0,1,.228-1.213,2.566,2.566,0,0,1,.633-.905,2.774,2.774,0,0,1,.971-.567,3.724,3.724,0,0,1,1.235-.2,5.422,5.422,0,0,1,.672.04,4.643,4.643,0,0,1,.585.11h2.39a.24.24,0,0,1,.225.145A1.026,1.026,0,0,1,100.017,166.768Zm-1.538,8.349a.889.889,0,0,0-.417-.786,2.119,2.119,0,0,0-1.13-.295l-2.048-.07a3.8,3.8,0,0,0-.461.417,2.35,2.35,0,0,0-.286.378,1.291,1.291,0,0,0-.145.356,1.67,1.67,0,0,0-.039.361.93.93,0,0,0,.58.865,3.621,3.621,0,0,0,1.617.3,4.054,4.054,0,0,0,1.1-.128,2.1,2.1,0,0,0,.716-.338,1.253,1.253,0,0,0,.392-.483A1.419,1.419,0,0,0,98.479,175.117Zm-.729-6.266a1.722,1.722,0,0,0-.444-1.261,1.685,1.685,0,0,0-1.261-.453,1.767,1.767,0,0,0-.734.141,1.43,1.43,0,0,0-.519.386,1.639,1.639,0,0,0-.307.567,2.205,2.205,0,0,0-.1.672,1.544,1.544,0,0,0,1.687,1.679,1.876,1.876,0,0,0,.747-.136,1.413,1.413,0,0,0,.523-.378,1.6,1.6,0,0,0,.308-.558A2.166,2.166,0,0,0,97.75,168.851Z"/><path d="M108.692,174.318a.2.2,0,0,1-.035.118.284.284,0,0,1-.114.084.8.8,0,0,1-.22.052,2.854,2.854,0,0,1-.352.018,2.939,2.939,0,0,1-.36-.018.8.8,0,0,1-.22-.052.292.292,0,0,1-.114-.084.2.2,0,0,1-.035-.118v-4.632a4.515,4.515,0,0,0-.106-1.09,2.235,2.235,0,0,0-.307-.712,1.333,1.333,0,0,0-.523-.457,1.654,1.654,0,0,0-.743-.158,1.882,1.882,0,0,0-1.09.386,5.907,5.907,0,0,0-1.142,1.134v5.529a.2.2,0,0,1-.035.118.289.289,0,0,1-.115.084.79.79,0,0,1-.219.052,2.945,2.945,0,0,1-.361.018,2.836,2.836,0,0,1-.351-.018.852.852,0,0,1-.224-.052.251.251,0,0,1-.115-.084.22.22,0,0,1-.03-.118v-7.911a.2.2,0,0,1,.131-.206.594.594,0,0,1,.2-.053,3.129,3.129,0,0,1,.325-.013,3.162,3.162,0,0,1,.321.013.507.507,0,0,1,.2.053.271.271,0,0,1,.1.088.212.212,0,0,1,.031.118v1.046a4.842,4.842,0,0,1,1.332-1.094,2.868,2.868,0,0,1,1.34-.347,2.98,2.98,0,0,1,1.332.268,2.4,2.4,0,0,1,.874.716,2.853,2.853,0,0,1,.479,1.051,6.228,6.228,0,0,1,.145,1.445Z"/><path d="M117.3,174.326a.187.187,0,0,1-.071.159.5.5,0,0,1-.193.079,1.894,1.894,0,0,1-.36.026,2.061,2.061,0,0,1-.365-.026.439.439,0,0,1-.2-.079.2.2,0,0,1-.061-.159v-.791a3.911,3.911,0,0,1-1.156.862,3.067,3.067,0,0,1-1.349.307,3.693,3.693,0,0,1-1.13-.162,2.435,2.435,0,0,1-.861-.471,2.119,2.119,0,0,1-.554-.755,2.5,2.5,0,0,1-.2-1.02,2.355,2.355,0,0,1,.273-1.16,2.26,2.26,0,0,1,.782-.817,3.833,3.833,0,0,1,1.248-.488,7.709,7.709,0,0,1,1.661-.163h1.09v-.615a3.085,3.085,0,0,0-.1-.809,1.4,1.4,0,0,0-.312-.584,1.346,1.346,0,0,0-.559-.352,2.6,2.6,0,0,0-.843-.118,3.358,3.358,0,0,0-.963.127,5.226,5.226,0,0,0-.747.281c-.214.1-.392.2-.536.282a.737.737,0,0,1-.321.127.219.219,0,0,1-.123-.035.3.3,0,0,1-.092-.106.561.561,0,0,1-.057-.18,1.5,1.5,0,0,1-.018-.242,1.516,1.516,0,0,1,.031-.347.5.5,0,0,1,.149-.241,1.872,1.872,0,0,1,.409-.268,4.43,4.43,0,0,1,.668-.282,6.1,6.1,0,0,1,.826-.211,5,5,0,0,1,.905-.083,4.752,4.752,0,0,1,1.451.193,2.347,2.347,0,0,1,.966.567,2.194,2.194,0,0,1,.537.927,4.506,4.506,0,0,1,.167,1.292Zm-1.442-3.612h-1.239a4.7,4.7,0,0,0-1.037.1,2.134,2.134,0,0,0-.73.3,1.239,1.239,0,0,0-.426.475,1.421,1.421,0,0,0-.136.637,1.275,1.275,0,0,0,.391.98,1.543,1.543,0,0,0,1.094.364,2.028,2.028,0,0,0,1.059-.29,4.556,4.556,0,0,0,1.024-.887Z"/><path d="M121.41,174.318a.2.2,0,0,1-.035.118.289.289,0,0,1-.115.084.79.79,0,0,1-.219.052,2.945,2.945,0,0,1-.361.018,2.847,2.847,0,0,1-.351-.018.852.852,0,0,1-.224-.052.251.251,0,0,1-.115-.084.22.22,0,0,1-.03-.118V162.575a.244.244,0,0,1,.03-.123.236.236,0,0,1,.115-.088.852.852,0,0,1,.224-.052,2.847,2.847,0,0,1,.351-.018,2.945,2.945,0,0,1,.361.018.79.79,0,0,1,.219.052.268.268,0,0,1,.115.088.219.219,0,0,1,.035.123Z"/><path d="M34.53,269.882a2.126,2.126,0,0,1-.018.294.833.833,0,0,1-.052.211.259.259,0,0,1-.088.119.2.2,0,0,1-.114.035.785.785,0,0,1-.352-.167,5.652,5.652,0,0,0-.659-.369,6.15,6.15,0,0,0-.989-.369,4.952,4.952,0,0,0-1.367-.167,3.992,3.992,0,0,0-1.687.343,3.64,3.64,0,0,0-1.266.949,4.249,4.249,0,0,0-.795,1.441,6.19,6.19,0,0,0,.026,3.744,4.1,4.1,0,0,0,.84,1.424,3.484,3.484,0,0,0,1.278.879,4.335,4.335,0,0,0,1.631.3,4.648,4.648,0,0,0,1.068-.127,4,4,0,0,0,1.006-.383v-3.313H30.355a.24.24,0,0,1-.224-.15,1.087,1.087,0,0,1-.075-.465,1.937,1.937,0,0,1,.018-.286.615.615,0,0,1,.057-.193.286.286,0,0,1,.092-.11.23.23,0,0,1,.132-.035h3.613a.551.551,0,0,1,.193.035.538.538,0,0,1,.176.1.473.473,0,0,1,.123.193.847.847,0,0,1,.044.282v4.333a.925.925,0,0,1-.079.395.692.692,0,0,1-.334.3,6.8,6.8,0,0,1-.66.277,7.637,7.637,0,0,1-.835.254,7.257,7.257,0,0,1-1.74.211,6.39,6.39,0,0,1-2.355-.408,4.812,4.812,0,0,1-1.754-1.165,5.1,5.1,0,0,1-1.094-1.81,7.543,7.543,0,0,1,.031-4.808,5.365,5.365,0,0,1,1.151-1.872,5.132,5.132,0,0,1,1.784-1.2,6.044,6.044,0,0,1,2.307-.426,6.24,6.24,0,0,1,1.222.114,7.829,7.829,0,0,1,1.015.268,4.13,4.13,0,0,1,.747.334,2.217,2.217,0,0,1,.418.3.612.612,0,0,1,.158.263A1.628,1.628,0,0,1,34.53,269.882Z"/><path d="M43.134,279.5a.183.183,0,0,1-.07.158.486.486,0,0,1-.193.08,1.9,1.9,0,0,1-.361.026,2.057,2.057,0,0,1-.364-.026.428.428,0,0,1-.2-.08.2.2,0,0,1-.062-.158v-.791a3.924,3.924,0,0,1-1.155.862,3.067,3.067,0,0,1-1.349.307,3.693,3.693,0,0,1-1.13-.162,2.451,2.451,0,0,1-.861-.471,2.114,2.114,0,0,1-.554-.756,2.493,2.493,0,0,1-.2-1.019,2.355,2.355,0,0,1,.273-1.16,2.263,2.263,0,0,1,.782-.818A3.855,3.855,0,0,1,38.942,275a7.709,7.709,0,0,1,1.661-.163h1.09v-.615a3.041,3.041,0,0,0-.1-.809,1.374,1.374,0,0,0-.312-.584,1.326,1.326,0,0,0-.558-.352,2.6,2.6,0,0,0-.843-.118,3.358,3.358,0,0,0-.963.127,5.226,5.226,0,0,0-.747.281c-.214.1-.393.2-.536.281a.746.746,0,0,1-.321.128.219.219,0,0,1-.123-.035.3.3,0,0,1-.092-.106.516.516,0,0,1-.057-.18,1.5,1.5,0,0,1-.018-.242,1.516,1.516,0,0,1,.031-.347.5.5,0,0,1,.149-.241,1.905,1.905,0,0,1,.409-.269,4.538,4.538,0,0,1,.668-.281,6.1,6.1,0,0,1,.826-.211,5,5,0,0,1,.905-.083,4.752,4.752,0,0,1,1.451.193,2.347,2.347,0,0,1,.966.567,2.2,2.2,0,0,1,.537.927,4.5,4.5,0,0,1,.166,1.292Zm-1.441-3.612H40.454a4.693,4.693,0,0,0-1.037.1,2.134,2.134,0,0,0-.73.3,1.243,1.243,0,0,0-.426.474,1.426,1.426,0,0,0-.136.638,1.276,1.276,0,0,0,.391.98,1.543,1.543,0,0,0,1.094.364,2.028,2.028,0,0,0,1.059-.29,4.556,4.556,0,0,0,1.024-.887Z"/><path d="M47.415,268.906a.956.956,0,0,1-.194.695,1.038,1.038,0,0,1-.712.184,1.022,1.022,0,0,1-.7-.18.937.937,0,0,1-.189-.681.953.953,0,0,1,.193-.694,1.039,1.039,0,0,1,.712-.185,1.023,1.023,0,0,1,.7.18A.937.937,0,0,1,47.415,268.906Zm-.167,10.582a.2.2,0,0,1-.035.119.289.289,0,0,1-.115.084.79.79,0,0,1-.219.052,2.945,2.945,0,0,1-.361.018,2.836,2.836,0,0,1-.351-.018.852.852,0,0,1-.224-.052.251.251,0,0,1-.115-.084.221.221,0,0,1-.03-.119v-7.91a.226.226,0,0,1,.03-.114.236.236,0,0,1,.115-.088.889.889,0,0,1,.224-.053,3.076,3.076,0,0,1,.351-.017,3.194,3.194,0,0,1,.361.017.823.823,0,0,1,.219.053.268.268,0,0,1,.115.088.2.2,0,0,1,.035.114Z"/><path d="M56.74,279.488a.2.2,0,0,1-.035.119.292.292,0,0,1-.114.084.8.8,0,0,1-.22.052,2.854,2.854,0,0,1-.352.018,2.939,2.939,0,0,1-.36-.018.8.8,0,0,1-.22-.052.278.278,0,0,1-.114-.084.193.193,0,0,1-.035-.119v-4.631a4.509,4.509,0,0,0-.106-1.09,2.258,2.258,0,0,0-.307-.712,1.333,1.333,0,0,0-.523-.457,1.654,1.654,0,0,0-.743-.158,1.88,1.88,0,0,0-1.09.386,5.907,5.907,0,0,0-1.142,1.134v5.528a.193.193,0,0,1-.036.119.278.278,0,0,1-.114.084.8.8,0,0,1-.22.052,2.916,2.916,0,0,1-.36.018,2.836,2.836,0,0,1-.351-.018.871.871,0,0,1-.225-.052.253.253,0,0,1-.114-.084.222.222,0,0,1-.031-.119v-7.91a.237.237,0,0,1,.027-.118.227.227,0,0,1,.105-.088.587.587,0,0,1,.2-.053,4.019,4.019,0,0,1,.646,0,.513.513,0,0,1,.2.053.262.262,0,0,1,.1.088.21.21,0,0,1,.031.118v1.046a4.842,4.842,0,0,1,1.332-1.094,2.868,2.868,0,0,1,1.34-.347,2.973,2.973,0,0,1,1.331.268,2.4,2.4,0,0,1,.875.716,2.856,2.856,0,0,1,.479,1.05,6.243,6.243,0,0,1,.145,1.446Z"/><g class="cls-6"><g class="cls-7"><g class="cls-8"><path d="M1327.707-123.256c-.62-1.749-1.2-3.57-1.783-5.248-.426,4.106-1.2,8.14-1.511,12.282-1.783-3.892-3.527-7.748-5.194-11.639-1.279,3.035-2.6,6.069-3.875,9.1-1.589-9.425-2.6-18.85-4.109-28.311q-1.123,16.386-2.751,32.666c-3.876-10.71-3.876-21.706-4.457-32.631-.853,12.389-1.861,24.777-3.372,37.094-3.876-20.528-.659-41.413-4.651-61.977-1.628,20.635-.659,41.377-1.821,62.048-1.977-11.96-2.868-23.955-4.845-35.879-1.744,8.568-2.984,17.172-3.876,25.847-1.279-16.494-2.325-32.988-4.495-49.446-1.085,16.887-1.24,33.773-1.9,50.66-2.17-15.78-1.124-32.131-6.317-47.411-1.551,14.1-1.434,28.311-1.938,42.484-7.364-20.563-3.256-42.127-5.349-63.084-.968,21.421,0,43.127-2.131,64.691-7.751-28.311,0-57.372-6.007-85.683-2.364,28.882.193,57.836-1.783,86.754-4.457-28.561-3.876-57.122-5.348-85.433-1.473,28.882.31,57.8-1.241,86.683-6.666-28.2-4.844-57.122-6.937-85.433-1.783,25.312.7,50.731-2.48,76.007-6.395-25.919-1.551-52.373-4.38-78.542-.93,28.061-1.744,56.122-3.217,84.148-3.875-28.561-3.875-56.908-5.232-85.4-1.511,30.917.194,61.835-1.007,92.823-8.023-35.986-2.83-72.58-5.388-108.853-3.294,34.631-2.054,69.3-3.216,103.962-.388-4.891-1.2-14.673-1.628-19.6-.93,2.785-1.821,5.534-2.674,8.319-.659-31.31,1.007-62.62-1.163-93.93-1.821,38.807.659,77.614-1.356,116.422-3.256-36.737-4.38-73.545-5.542-110.353-5.659,26.99,1.162,54.659-4.884,81.684-3.488-25.454-1.356-51.088-3.333-76.614-1.511,28.561.388,57.122-1.55,85.468-.852-19.457-1.163-39.021-6.86-58.086-.62,13.96-.736,27.919-1.124,41.878-2.6-18.886-4.922-37.843-5.7-56.836-.465,11.96-.659,23.955-1.085,35.915-1.24-3.213-3.062-6.569-3.876-9.746-.387,4.07-1.123,8.068-1.356,12.174-.543-3.57-1.744-7.426-2.015-11-.427,13.174-.7,26.347-1.512,39.521-.969-21.849-.5-43.663-.852-65.512-1.008,2.749-1.977,5.463-2.868,8.212l-1.744-14.674c-.892,14.852-1.822,29.668-3.372,44.52-.233-9.211-.233-18.386-.271-27.562-1.279.643-2.52,1.321-3.876,2-.271-2.249-.775-6.748-1.008-9-.736,6.176-1.472,12.353-2.131,18.529-2.4-10.211-3.527-20.6-4.845-30.917-1.279,9.817-2.17,19.671-3.023,29.56-1.085-9.532-1.938-19.028-3.875-28.561-1.318,11.5-2.21,23.063-2.907,34.63-.582-14.816-.814-29.632-1.395-44.483-.7,7.14-1.318,14-1.938,20.992-.233-3.57-1.124-7.354-1.085-10.925-.853,1.928-1.706,3.892-2.52,5.855-4.457-28.739-3.333-57.693-4.883-86.539-1.085,29.31,0,58.657-3.256,87.9-.581-13.174-1.007-26.383-1.782-39.557-.543,16.1-.582,32.131-1.861,48.3-2.557-17.279-2.17-34.7-3.139-52.017-1.783,32.131,1.357,64.512-3.527,96.608-.31-10.211-.348-20.457-.387-30.632-1.124,1.392-2.248,2.785-3.333,4.213-.387-2.035-1.2-6.069-1.589-8.1v37.986c-.814-1.714-2.519-5.106-3.333-6.819v16.708c-1.124-1.428-2.287-2.856-3.372-4.284-.232,1.785-.426,3.57-.581,5.426-.5-1.249-1.008-2.5-1.434-3.57-3.217,2.821-6.24,5.748-9.728,8.354a175.262,175.262,0,0,1-3.139-20.385c-2.868,9.389-4.225,18.957-6.24,28.561-.62-11.1-1.046-22.17-1.318-33.274a174.231,174.231,0,0,1-4.728,24.991c-2.441-7.783-4.379-15.637-6.162-23.491-.775,9.746-1.356,19.528-2.752,29.275-.542-8.069-1.046-16.1-1.589-24.17l-4.922-3.57c-.891,5.926-1.666,11.853-2.441,17.851-.427-6.891-.814-13.781-1.241-20.707-.581,4.927-1.783,14.816-2.364,19.743-2.131-12.317-2.248-24.777-4.34-37.13-.853,14.031-.969,28.062-1.667,42.092-9.921-19.243-3.992-39.985-6.666-59.871-.775,14.459-.814,28.883-1.511,43.342-.737-9.5-1.241-18.958-1.938-28.561-.465,11.924-.814,23.848-1.357,35.7-.542-10.711-1.279-21.421-1.744-32.131-1.395,6.069-2.6,12.138-3.875,18.243-.659-14.78-1.589-29.525-3.062-44.269-.5,13.28-1.008,26.6-2.481,39.842-3.139-22.706-.658-45.626-2.674-68.368-.814,18.565-.426,37.13-1.589,55.694-.7-10.282-.891-20.6-1.356-30.881-.93,7.14-1.977,14.28-2.984,21.42-3.14-27.775,0-55.658-2.21-83.469a305.247,305.247,0,0,0-3.1,41.985c-1.163-4.106-2.287-8.212-3.449-12.282-.737,8.676-1.434,17.315-2.132,25.991-1.473-12.353-2.287-24.705-3.139-37.094l-1.977,21.171c-.736-22.492-.31-44.983-.271-67.44h-1.783c-.465,43.556,1.279,87.111-.891,130.667-1.24-23.313-2.6-46.662-2.325-69.974,0-17.851.581-35.916-2.752-53.552-.93,12.245-1.628,24.491-3.217,36.736-.7-5.284-1.356-10.71-2.015-15.851-4.3,39.593.581,79.4-4.3,118.956-.93-11.567-1.395-23.134-1.9-34.7-.659,3.57-1.86,7.14-2.248,11-.5-8.212-.891-16.423-1.318-24.6-.426,23.17-5.077,46.126-6.859,69.224-.194-3.57-.543-7.14-.582-10.71h-4.457c-1.085,4.427-2.015,8.925-3.1,13.352-.853-12.281-1.279-24.634-3.411-36.844-.891,11.461-1.278,22.992-3.139,34.416-1.821-9-2.868-18.064-3.875-27.1-.5,8.247-1.008,16.494-1.589,24.777a118.858,118.858,0,0,1-5.271-14.5c-.814,4.177-2.171,8.211-2.868,12.424a182.683,182.683,0,0,1-3.876-31.381,317.027,317.027,0,0,1-2.984,37.272c-3.566-11.853-2.674-24.134-3.876-36.165a153.049,153.049,0,0,0-2.364,29.417c-1.86-3.213-3.565-6.39-5.387-9.568-.581,2.5-1.744,7.391-2.286,9.854-1.2-9.854-2.132-19.743-3.14-29.6-.852,10.282-1.55,20.564-2.713,30.81-1.55-9.033-2.945-18.065-4.263-27.1-2.209,11.424-3.41,22.92-4.922,34.38-.542-12.281-1.085-24.527-2.829-36.7-1.279,8.675-1.046,17.851-5.155,26.062q-.967-10.71-1.744-21.421c-1.124,7.39-2.17,14.816-3.488,22.206a224.27,224.27,0,0,1-3.294-25.883c-1.318,6.212-2.635,12.388-4.147,18.565-1.24-6.177-2.054-12.389-2.945-18.565-.5,7.819-1.008,15.6-1.551,23.42a202.4,202.4,0,0,1-4.96-34.594c-.814,8.961-1.4,17.85-2.6,26.883-1.434-4.392-2.713-8.747-4.186-13.067-1.085,3.963-2.4,7.926-3.371,11.924-1.124-6.855-2.21-13.745-3.333-20.635-.5,3.57-.931,7.14-1.4,10.96-2.015-4.106-4.069-8.247-5.929-12.353-4.69,8.569-3.139,17.851-4.108,26.991-1.163-4.427-2.287-8.854-3.488-13.246-.659,5.248-1.241,10.5-1.822,15.78a354.686,354.686,0,0,1-3.139-41.984c-1.008,9.818-1.783,19.671-3.294,29.489-.388-3.57-1.124-10.71-1.473-14.5-.892,2.714-1.706,5.462-2.481,8.211-.465-9-.969-17.85-1.627-26.918-1.977,13.1-2.21,26.347-2.83,39.521-.93-8.176-1.705-16.387-2.79-24.562-1.55,4-2.868,8.068-4.341,12.067a149.907,149.907,0,0,1-2.868-22.706h-2.4q-.58,13.209-1.24,26.526a323.159,323.159,0,0,0-3.294-38.165c-1.434,16.03-2.442,32.131-3.449,48.125-3.023-20.564-2.093-41.27-3.256-61.906a292.877,292.877,0,0,1-3.333,39.843c-4.108-17.672-2.558-35.7-5.31-53.552-.775,21.885-.193,43.734-1.433,65.619-.776-17.851-1.473-35.487-3.256-53.195a190.933,190.933,0,0,1-4.884,31.1c-.775-7.819-1.395-15.6-2.054-23.42-.542,11.531-.93,23.063-1.589,34.594-.736-10.282-1.046-20.6-1.705-30.881-.543,13.6-.853,27.2-1.55,40.806-1.24-30.738-2.907-61.477-2.481-92.252H779.23c0,27.062.93,54.123-.93,81.113-2.015-11.46-2.48-23.027-3.255-34.558-.737,7.14-1.4,14.03-2.093,21.063-4.961-12.888-3.876-26.418-4.573-39.664-.427,10.711-1.2,21.421-1.628,32.131-.7-7.14-1.395-13.994-2.016-20.956-.465,17.315-.581,34.594-1.433,51.909-.737-13.173-.931-26.419-3.1-39.557-1.008,11.96-1.318,23.92-2.015,35.7-.582-19.457-.582-38.986-4.69-58.265-6.472,14.816-4.224,30.561-5.425,45.876-.659-12.709-1.008-25.419-2.248-38.093l-2.093,4.927-3.217-1.821q-.233,13.175-.581,26.348c-1.047-7.819-1.938-15.673-3.178-23.492q-1.047,12.96-1.977,25.919c-.891-7.461-1.744-14.923-2.674-22.384-1.473,10.317-1.783,20.706-2.6,31.024-.542-7.783-.969-15.6-1.434-23.384-2.286,15.673-.7,32.559-11.2,46.84-1.861-4.963-3.295-10.032-5.271-14.959-.736,8.747-1.473,17.458-2.17,26.24a282.641,282.641,0,0,0-3.411-33.238c-.387,6.1-.736,12.175-1.046,18.315l-4.69-4.248q-.465,10.71-.969,21.635c-.659-12.353-.891-24.706-1.589-37.058-.581,7.818-1.007,15.637-1.511,23.455-.582-3.57-1.589-7.461-1.938-11.031-.543,4.891-1.046,9.818-1.55,14.709a123.834,123.834,0,0,1-5.232-34.559c-1.047,11.531-1.938,23.1-2.946,34.63-.736-3.284-1.434-6.569-2.093-9.818-.348,3.57-1.124,7.141-1.317,10.889-1.2-9.175-1.744-18.386-3.45-27.49-1.356,2.892-2.674,5.82-3.875,8.747-3.256-18.743-3.333-37.665-6.124-56.408q-1.045,10.389-2.054,20.814a397.748,397.748,0,0,1-2.209-53.909h-1.512a302.8,302.8,0,0,1-2.519,50.232c-1.046-10.318-1.356-20.707-2.093-31.025-.465,14-.62,28.026-1.278,42.021-3.062-24.313-1.977-48.7-3.876-73.045-2.752,15.6-2.132,31.381-3.139,47.054-.659-19.35-.543-38.771-1.357-58.121-1.705,18.1-2.79,36.236-3.565,54.337-1.706-29.275.193-58.586-1.551-87.825-.736,7.39-1.356,14.78-2.015,22.206-.581-9.889-.969-19.778-1.55-29.668-2.868,30.525-1.744,61.121-3.294,91.645-1.357-19.35-2.364-38.735-3.256-58.086q-.93,19.137-1.744,38.272c-.659-11.139-1.046-22.277-1.628-33.38-.852,10.71-1.434,21.42-3.062,32.131a133.01,133.01,0,0,1-4.379-22.242c-.5,28.561.388,56.908-.7,85.361-.814-4.926-1.589-9.853-2.326-14.744-.891,13.566-1.744,27.1-2.829,40.664-1.124-3.571-2.209-7.141-3.294-10.711-2.209,5.07-4.651,10.1-6.976,15.173-1.124,4.106-2.442,8.176-3.488,12.317l-3.372-7.926c-1.163,7.64-2.209,15.352-3.449,23.028-.5-9-.969-17.851-1.473-26.99-1.4,8.568-2.442,17.172-3.566,25.74-.542-6.89-1.008-13.781-1.511-20.671-1.4,5.641-2.636,11.353-3.876,17.03q-.465-12.853-.891-25.777c-1.241,6.141-2.248,12.282-3.527,18.422-.7-5.712-1.24-11.46-1.822-17.172-1.046,5.748-2.054,11.5-3.139,17.244l-2.325-19.815c-1.706,10.711-2.287,21.421-3.295,32.131-.348-16.1-.426-32.131-1.821-48.375-1.512,9.89-2.209,19.85-3.062,29.775-.775-11.531-1.085-23.134-2.713-34.63-.736,10.71-1.589,21.421-2.132,32.131-.62-14.923-.93-29.846-2.286-44.734-3.1,15.209-1.822,30.668-2.829,45.984a335.273,335.273,0,0,0-3.295-38.344c-.775,10.282-1.279,20.6-1.821,30.918-1.047-14.031-1.977-28.026-3.294-42.021-.621,7.355-1.124,14.745-1.706,22.135-1.317-7.14-2.441-14.6-3.565-21.92-.659,5.712-1.318,11.388-1.938,17.1-1.434-6.534-2.248-13.139-3.217-19.708-.465,10.282-.814,20.564-1.434,30.811-2.209-13.96-2.519-28.026-3.41-42.056-.465,14.066-.737,28.132-1.9,42.2a309.815,309.815,0,0,1-2.093-49.053h-1.4c0,12.6-.5,25.2-1.318,37.843a230.461,230.461,0,0,1-2.868-26.7h-.892c-.232,10.5-.542,21.028-1.007,31.56q-2.442-14.281-3.527-28.561c-.62,9.068-1.2,18.172-1.938,27.24-2.325-14.781-2.209-29.739-3.139-44.627-.581,11.96-.93,23.956-1.589,35.916-1.2-11.925-2.132-23.849-3.062-35.7-.852,9.033-2.093,18.1-3.372,27.133-.659-3.57-1.511-7.5-2.131-11.067-.892,9.818-1.473,19.671-2.791,29.489l-2.325-25.883c-.31,18.6.349,37.272-2.829,55.729-1.395-20.207-.737-40.485-2.054-60.692-1.279,24.348.775,48.8-2.791,73.081-2.325-27.24,0-54.516-2.209-81.756-.969,25.6-.581,51.231-3.565,76.757-1.318-28.882.736-57.8-1.551-86.646-1.279,26.811.582,53.766-3.371,80.506-.853-21.885-.194-43.806-1.473-65.655-2.093,20.6-2.364,41.271-3.527,61.906-1.24-25.99.194-52.016-1.589-78.007-1.318,28.561-1.7,57.122-3.488,85.433-1.085-24.348,0-48.732-1.589-73.08-2.17,15.637-2.558,31.381-3.527,47.054-.736-22.278,0-44.591-1.356-66.833a735.555,735.555,0,0,0-2.442,81.078h-1.782c-.272-26.633,1.627-53.552-1.938-79.9q-1.356,12.96-2.558,25.955c-.426-14.5-.581-28.954-1.744-43.413-5.581,32.132.426,64.548-3.023,96.715-1.163-25.99-1.744-52.017-3.449-78.007-1.008,23.527,0,47.054-1.551,70.581-1.085-20.6,0-41.342-3.371-61.834-.814,18.921-.659,37.879-1.628,56.836-4.845-33.738-.853-67.832-3.411-101.5-1.86,31.775.388,63.584-1.589,95.358-4.612-33.345-1.046-66.9-3.449-100.32-2.287,42.092.93,84.255-1.822,126.347-.93-53.552-1.589-107.39-3.333-161.049-3.023,46.626,3.023,93.466-3.139,139.949-1.821-26.419,0-52.873-1.86-79.257-1.008,21.85-.388,43.734-1.357,65.584-4.418-20.457-1.976-41.271-3.643-61.835-1.666,27.6,1.047,55.373-3.294,82.9-2.4-51.981,1.085-104.033-1.86-156.014-1.745,32.774.581,65.583-1.318,98.357-1.667,26.24,0,52.552-1.861,78.792-2.325-52.445.892-104.925-1.7-157.335-1.705,48.732-1.938,97.464-3.449,146.2-1.938-40.486.7-80.971-1.473-121.384-2.868,32.131-1.938,64.262-3.488,96.607-.969-21.421-.388-42.841-1.783-64.262-3.371,21.778-2.247,43.7-2.325,65.547-1.008-1.892-1.977-3.57-2.946-5.641-1.356,10.14-2.209,20.314-2.945,30.525-6.24-10.032-6.162-21.207-6.744-32.131-1.046,6.5-1.9,13.031-3.216,19.528-.7-4.034-1.551-8.175-2.171-12.209-1.2,9.46-2.209,18.921-3.294,28.561-1.4-8.961-2.248-17.851-2.752-26.99-.271,1.535-.775,4.6-1.007,6.14l-3.3-1.642c-1.124,7.14-2.557,14.28-4.185,21.421-1.938-16.53-4.845-32.953-7.248-49.447-1.976,14.031-2.286,28.383-7.751,41.985-1.434-6.6-2.674-13.174-4.069-19.743-2.132,8.569-3.488,17.244-5.077,25.884-1.744-13.924-2.054-27.954-2.713-41.914-.737,4.106-1.55,8.1-2.209,12.246-.427-16.851.232-33.809-3.217-50.517-.543,13.923-.581,27.847-.814,41.806-1.356-3.57-2.635-7.14-3.875-10.925-.465,7.141-.892,13.959-1.357,20.921-.5-2.178-1.55-6.533-2.054-8.711-1.318,2.856-2.558,5.712-3.876,8.6-.31-8.175-.775-16.387-1.085-24.562-.659,8.639-1.279,17.243-1.9,25.883-.542-11.1-.969-22.242-1.589-33.345-.7,5.748-1.279,11.46-1.9,17.208-.426-9-.775-17.851-1.162-27.026-1.2,9.39-2.093,18.779-3.295,28.169-1.356-7.712-2.674-15.423-4.147-23.1-.387,12.281-.659,24.6-1.24,36.879-.659-13.209-.969-26.419-1.511-39.592-.621,3.57-1.512,7.14-2.016,11-.969-7.783-1.9-15.6-3.1-23.42a204.57,204.57,0,0,1-5.581,38.343c-4.069-10.711-3.876-22.135-4.418-33.274-.582,3.356-1.706,10.068-2.248,13.424-1.124-29.668.775-59.407-1.473-89.075-1.55,28.882.349,57.8-1.356,86.683-.814-5.748-1.551-11.532-2.287-17.244-.5,19.993-.31,39.985-.232,59.978h-1.822c0-27.061.62-54.087-.5-81.113-1.356,15.244-2.519,30.524-3.875,45.769-1.473-18.565-2.326-37.129-3.411-55.694-.891,21.671-.62,43.341-.5,65.012h-1.628c0-14.673-.271-29.311-1.2-43.948-1.008,33.844-.194,67.832-2.868,101.534-.543-2.142-1.7-6.355-2.248-8.5-1.589,8.211-3.062,16.387-4.573,24.562-1.124-7.14-2.209-13.923-3.449-20.92q-1.938,9.21-3.6,18.421c-1.7-8.961-3.41-17.85-5.193-26.847-.62,7.355-1.24,14.709-1.977,22.1-1.666-7.14-2.868-13.995-4.418-20.992-.775,7.818-1.434,15.6-2.209,23.42-1.318-6.212-2.325-12.46-3.411-18.636-1.433,5.319-2.751,10.71-4.418,15.994-1.473-7.711-2.519-15.423-3.643-23.1-.853,8.961-1.589,17.851-2.79,26.919-.969-9.211-1.783-18.386-2.868-27.6-1.512,8.283-2.248,16.6-3.682,24.991-1.512-6.212-2.674-12.46-4.5-18.6-.775,3.571-2.364,11.282-3.139,15.066-1.473-9-2.4-17.85-3.178-27.061-1.357,11.924-2.442,23.848-3.682,35.7-2.868-15.53-1.938-31.238-4.457-46.8-.93,12.745-1.628,25.49-3.333,38.2-.93-7.6-1.821-15.173-2.829-22.742-.969,7.533-1.589,15.066-2.287,22.6-1.317-6.569-2.325-13.173-3.875-19.742-1.512,6.176-2.636,12.352-3.876,18.564-1.744-11.067-1.821-22.277-2.829-33.416-1.512,11.96-2.481,23.955-4.186,35.915-1.473-12.745-2.751-25.526-3.875-38.272-.892,8.212-1.861,16.459-3.062,24.706-1.55-5.248-2.868-10.711-3.876-15.816-1.356,6.5-3.217,12.96-4.883,19.457-.388-3.57-1.163-10.175-1.589-13.566-.969,5-1.9,9.96-2.829,14.959a256.621,256.621,0,0,1-3.876-42.092c-1.24,13.1-2.4,26.24-3.333,39.271-1.318-10.71-2.558-21.421-3.876-32.131-2.48,11.389-3.139,22.956-4.844,34.416a458.517,458.517,0,0,0-5-55.373c-.387,14.852-.659,29.7-1.7,44.556-3.062-13.5-2.287-27.312-3.372-40.914-.581,14.28-.659,28.775-1.124,43.2-2.054-12.316-3.449-24.7-5.387-37.022-1.473,9-2.48,17.851-3.449,27.062-.62-14.745-1.7-29.525-3.45-44.234-.62,19.314-.542,38.629-1.123,57.943a320.406,320.406,0,0,0-5.581-35.7c-2.093,13.1-2.481,26.312-3.256,39.485-.775-22.277-1.744-44.555-3.41-66.8-.814,21.421-.427,42.842-1.2,64.263-4.961-27.455,0-55.409-7.363-82.649-.388,17.244-.427,34.523-1.4,51.767-1.124-24.741-1.937-49.518-3.294-74.258-1.046,21.028-.62,42.056-1.55,63.084a655.5,655.5,0,0,1-5.31-66.833c-.7,17.279-.387,34.737-5.116,51.767-1.278-27.6.465-55.194-1.666-82.756-1.7,30.953.7,61.942-1.55,92.823-1.551-18.529-1.628-37.2-4.884-55.658-.813,16.173-.852,32.381-2.441,48.554-6.9-31.631-1.24-63.834-4.535-95.679C52.32-248.567,56-218.364,51.041-188.41c-.5-6.926-1.008-13.888-1.55-20.814-.543,4.927-1.086,9.818-1.59,14.709-.465-3.356-1.433-10.032-1.937-13.388-.62,4.07-1.279,8.1-1.822,12.21-.542-7.391-1.085-14.816-1.666-22.171-.5,15.637-.659,31.31-1.279,46.983-.969-13.6-1.861-27.2-3.643-40.771-.582,14.852-.7,29.668-1.047,44.484q-2.325-4.178-4.534-8.354c0,5.176,0,10.389-.194,15.6l-3.1-6.854c-.387,7.711-.736,15.422-1.2,23.17-.543-15.28-.775-30.561-1.666-45.805-1.163,22.349.736,44.805-2.868,67.047-1.086-1.821-3.256-5.5-4.38-7.14,0,2.392-.5,7.14-.659,9.5-1.162-7.39-2.17-14.744-3.527-22.1-.775,6.141-1.317,12.246-1.937,18.386-.931-4.855-1.861-9.675-2.752-14.53-.853,1.928-1.744,3.82-2.6,5.748-.891-9.747-1.473-19.529-3.023-29.24-.814,7.391-1.627,14.781-2.558,22.171-1.317-8.247-1.9-16.565-2.79-24.991-.31,11.532-.736,23.027-1.2,34.523l-1.86-25.848c-.62,5.32-1.2,10.711-1.821,16-.272-3.571-.62-7.141-.814-10.711-1.977,4.07-3.876,8.176-6.046,12.174-.5-13.673-.737-27.347-1.318-41.02-1.9,13.6-2.868,27.24-3.527,40.878a267.91,267.91,0,0,1-2.635-36.88l-2.635,6.855a275.634,275.634,0,0,0-2.868-31.846c-.969,14-1.124,27.99-1.589,41.985-1.4-10.71-2.636-21.242-3.876-31.846-.388,8.961-.853,17.851-1.318,26.919-.542-10.71-1.317-21.421-1.821-32.131-.62,11.139-1.163,22.242-1.861,33.381-.581-16.1-.658-32.131-1.55-48.268-.232,5.5-.387,11-.5,16.494l-3.682-2.142q-.426,10.71-.968,21.42c-.621-12.388-.892-24.741-1.589-37.129-.621,13.638-.931,27.24-1.667,40.842-.581-13.6-.814-27.168-1.589-40.771-.388,10.5-.775,20.993-.969,31.525h-1.24c-.31-10.5-.659-20.993-1.2-31.525-.466,11.568-1.124,23.063-1.628,34.6-.427-10.5-.814-20.992-.969-31.524h-1.24c-.31,10.5-.7,20.992-1.241,31.524-.581-11.532-.852-23.063-1.24-34.595a211.207,211.207,0,0,1-4.961,28.561c-1.007-12.816-1.589-25.6-2.17-38.414-.543,13.209-.969,26.383-1.666,39.593-.659-11.568-1.008-23.1-1.744-34.631-.582,11.532-.814,23.1-1.357,34.631-.581-3.214-1.124-6.391-1.666-9.6-.388,1.428-.737,2.856-1.086,4.32l-6.859.678c0,8.533-.272,17.065-.465,25.634-1.4-6.5-2.713-12.96-3.876-19.458-.5,6.891-1.047,13.817-1.55,20.707-.543-11.924-.737-23.848-1.279-35.7a473.089,473.089,0,0,0-3.294,54.623c-.814-9.14-1.627-18.243-2.635-27.312-1.24,7.819-2.015,15.673-2.984,23.528a423.9,423.9,0,0,0-3.178-51.946c-.543,17.851-.5,35.7-1.551,53.266-.814-19.814-.465-39.628-1.666-59.406-5.038,22.92-1.047,46.411-3.023,69.331-.853-5.319-1.667-10.71-2.48-16.029q-1.744,14.78-2.907,29.56c-.62-18.957-1.2-37.95-3.217-56.908-.736,7.426-1.4,14.816-2.093,22.242-1.007-26.811.543-53.552-1.472-80.435-.776,31.846-1.163,63.727-3.45,95.573-2.248-4.82-3.875-9.747-5.774-14.674.232,6.5.5,13.031.736,19.565l-5.232-1.857c-.737,4.284-1.434,8.569-2.209,12.817l-2.829-7.14c-1.279,5.248-2.287,10.5-3.179,15.78-.968-8.6-1.821-17.173-3.022-25.777-.466,4.927-1.357,14.745-1.822,19.672-.891-11.889-1.705-23.813-3.449-35.7-.582,9.817-1.008,19.635-1.589,29.489-.62-9.533-1.047-19.029-1.744-28.561-3.876,8.889-6.976,17.85-10.271,26.847C-162-130.539-163.2-132.4-164.4-134l-.7,5.248c-1.667-6.5-3.295-13-5.155-19.457-.814,4.142-1.55,8.212-2.287,12.353-.426-5.712-.736-11.46-1.085-17.172l-1.55,8.425c-1.628-4.5-3.178-9-4.883-13.459-.543,3.57-1.7,10.175-2.248,13.566-.5-3.57-1.434-10.175-1.9-13.566-1.279,6.533-2.132,13.1-3.139,19.671-1.008-5.319-2.016-10.71-3.14-15.887-.542,4.927-1.589,14.78-2.131,19.707-.427-8.211-.7-16.387-1.047-24.562-1.666,12.709-3.875,25.419-5.425,38.129-.931-8.6-1.706-17.208-3.1-25.777-.775,7.783-1.318,15.53-1.938,23.349-.969-9.925-1.705-19.814-3.139-29.668-.775,9.461-1.318,18.958-2.015,28.561-.582-12.781-1.008-25.6-2.481-38.379q-1.356,12.96-2.519,25.991a327.51,327.51,0,0,0-3.333-37.2c-.62,13.1-.891,26.2-1.395,39.272q-2.249-20.279-3.876-40.664c-.5,16.887-.62,33.773-1.473,50.624-2.906-19.707-2.286-39.557-3.565-59.371-.814,16.28-.62,32.6-.581,48.875H-231.8c0-16.744,0-33.452-1.085-49.982-1.007,20.564.465,41.271-3.333,61.728-.891-21.421-.271-42.842-1.744-64.262-.93,20.6-.271,41.27-1.511,61.905-3.372-26.347-1.783-52.837-3.372-79.256-1.047,26.419-1.085,52.873-3.643,79.221-.7-20.636,0-41.271-1.55-61.906-.776,15.887-.659,31.81-.621,47.7h-3.41c0-22.921.581-45.841-.969-68.761-.93,21.921,0,43.877-1.938,65.8A305.53,305.53,0,0,1-258-181.7c-.5,13.673-.93,27.347-2.674,40.949-2.364-24.991-1.279-49.982-1.279-74.973h-1.9c0,20.814.426,41.664-.736,62.513-4.264-24.241-1.589-48.732-3.411-73.045-1.008,20.243-.543,40.557-3.643,60.692-1.357-28.56.543-57.121-1.55-85.468-1.008,28.561-1.279,57.122-3.488,85.433-.7-20.243-.272-40.485-1.434-60.692-2.016,16.886-2.558,33.844-3.527,50.8-.62-17.851-.62-35.452-1.2-53.16q-2.169,19.708-3.875,39.272c-.736-20.85-.62-41.664-.465-62.477H-289c0,19.528,1.4,39.271-2.829,58.621-1.124-24.705.194-49.41-1.24-74.116-2.6,18.922-2.713,37.951-3.682,57.122-.853-21.885-.271-43.769-1.473-65.654-2.79,31.952-2.674,64.012-2.4,96h-1.86c-.775-29.846,2.6-59.871-2.6-89.61-1.744,31.739.62,63.477-1.706,95.18-.659-18.172-.194-36.416-2.984-54.516-1.9,25.562-.233,51.231-1.938,76.829-2.054-35.915.582-71.867-1.589-107.782-5.232,31.239-.659,62.8-3.488,94.144-.736-19.814,0-39.735-2.829-59.478-2.907,31.774.271,63.655-2.287,95.429-2.48-45.2,1.9-90.5-2.325-135.664a214.7,214.7,0,0,0-1.938,27.24c.465,41.306.233,82.612.349,123.883h-1.86c-.31-33.274,1.744-66.583-2.6-99.749-.775,19.385-1.085,38.843-3.411,58.193-.658-9.89-1.007-19.779-1.705-29.632-2.286,23.42,3.372,47.625-4.844,70.617-.659-9.5-1.124-19.029-1.628-28.561l-1.046,14.637c-1.008-1.928-2.016-3.82-3.062-5.748v11.889l-3.256-4.356c-.542,2.464-1.55,7.355-2.093,9.818-.891-3.57-1.666-7.426-2.48-11.032-1.55,4-3.1,7.962-4.689,11.96l-8.488-2.427c-2.325,3.57-4.767,7.14-7.4,10.924l-5.194-14.28-2.6-.429a84.218,84.218,0,0,0-14.767,13.781l-5.929.535a6.238,6.238,0,0,0,.387,1.393h7.209c.426,3.356,1.24,10.068,1.666,13.423a67.665,67.665,0,0,0,8.372-13.352c2.364,4.284,4.806,8.533,7.363,12.71l4.341-7.14c.93,4.355,1.822,8.746,2.791,13.1l2.79-5.605c.271,2.071.814,6.248,1.124,8.318.93-4.177,1.821-8.354,2.984-12.5,2.364-2.392,4.5-5.034,6.589-7.533,1.589,4.712,2.829,9.818,8.293,12.959.388,1.643,1.2,4.963,1.59,6.641l3.178-4.034c.232,7.711.465,15.422.775,23.1q.852-10.425,1.782-20.956c.5,4.891.969,9.782,1.473,14.673.582-3.32,1.783-10,2.364-13.352.349,12.138.272,24.276.349,36.415h1.512c0-14.638.232-29.275,1.007-43.913,3.139,31.417,1.085,62.977,4.225,94.394,2.906-20.671,1.046-41.484,2.558-62.191,1.279,22.277-.814,44.7,3.061,66.9,2.364-28.561-.232-57.122,2.016-85.683,2.015,32.131-1.124,64.583,2.17,96.822,4.806-31.31-.349-62.942,2.945-94.323,1.938,49.518-.852,99.071,1.4,148.589,6.511-47.305-.31-95,3.565-142.413,3.178,43.663-3.217,87.611,3.566,131.131,1.666-40.807-1.047-81.684,1.511-122.455,1.7,32.131-.465,63.941,1.395,95.893,1.473,24.17.233,48.411,1.977,72.581,2.17-57.372-1.2-114.815,1.7-172.187,1.589,28.561-.387,57.336,1.357,85.968,1.666,26.241,0,52.553,1.86,78.793,2.325-50.374-1.008-100.785,1.783-151.123,3.333,52.016,1.279,104.069,3.255,156.085,2.171-48.3-.659-96.607,1.473-144.875,6.24,38.2,0,76.793,3.876,115.136,1.9-43.341-.814-86.754,1.4-130.059,5.116,55.658.659,111.5,3.488,167.224,2.4-52.481-1.124-105,1.86-157.442,5.659,29.953,0,60.406,3.178,90.538,1.822-29.775-.5-59.549,1.783-89.253a110.487,110.487,0,0,1,2.519,29.2c0,24.991-.93,49.981.737,74.972,2.325-32.131-1.434-64.012,2.441-95.893,1.4,6.283,2.016,12.6,2.946,18.993.542-7.819,1.046-15.637,1.7-23.456,2.868,20.386,2.132,40.914,2.015,61.335h1.667c-.349-32.131,1.162-63.977,2.868-95.965.62,16.494.581,32.988,1.589,49.482a350.191,350.191,0,0,1,2.674-44.52c1.938,23.92.349,47.911,2.209,71.867,1.046-22.706,0-45.412,1.473-68.082a312.51,312.51,0,0,0,3.682,39.271c.5-16.03.542-32.131,1.317-48.089,1.512,14.78,2.636,29.632,3.14,44.448,1.123-9.783,2.17-19.565,3.875-29.347q.853,10.389,1.667,20.778c.93-11.067,1.55-22.134,3.371-33.166.621,11.032,1.008,22.1,1.706,33.166.659-9.889.969-19.778,1.627-29.632.621,7.355,1.086,14.745,1.706,22.135,1.085-9.389,2.131-18.779,2.984-28.168,1.2,6.5,2.325,13.031,3.6,19.528.582-7.14,1.085-14,1.667-20.956l1.511,9.639c1.124-5.712,2.171-11.389,3.372-17.1.775,12.817,1.2,25.6,2.015,38.415A344.111,344.111,0,0,0-212.113-85.2c.5,9.068.931,18.1,1.434,27.168.892-9.246,1.783-18.493,2.946-27.668,1.744,14.281,1.589,28.311,1.938,42.484,1.046-12.745,2.054-25.49,3.565-38.2q.814,12.888,1.589,25.848c1.124-7.14,2.054-13.924,3.449-20.85.659,11.068,1.086,22.171,1.667,33.238.853-9.889,1.705-19.778,3.062-29.632.852,9.461,1.589,18.958,2.441,28.561a190.6,190.6,0,0,0,2.985-29.632c.968,7.14,1.976,13.924,3.255,20.85.7-9.854,1.124-19.707,1.667-29.561,1.162,7.354,1.976,14.78,3.488,22.135.813-10.282,1.046-20.564,1.627-30.81a302.789,302.789,0,0,0,3.333,33.345c.969-12.353,1.124-24.741,1.706-37.094.969,15.673,2.092,31.346,3.6,46.983.581-11.96.853-23.92,1.511-35.7,1.744,14.03,2.752,28.061,3.488,42.091a405.643,405.643,0,0,1,2.713-44.412c.892,9,1.589,17.851,2.326,27.026a274.435,274.435,0,0,1,3.371-38.129c.427,9.818.931,19.636,1.279,29.418q1.28-13.175,2.868-26.312c1.008,5.855,1.667,11.746,2.481,17.636,1.162-3.57,2.286-7.14,3.488-10.71.426,4.855.814,9.746,1.24,14.637.581-2.142,1.783-6.39,2.325-8.5,2.248,6.5,4.38,13.031,6.589,19.564,1.473-9.818,2.442-19.672,3.217-29.489.5,5.283.93,10.71,1.4,15.922,1.008-7.782,1.86-15.565,3.1-23.312.737,6.961,1.512,13.923,2.21,20.92,1.356-8.568,2.48-17.172,3.526-25.74.853,19.35,2.365,38.7,4.419,58.014S-115.92-6.3-114.6,13.087a426.086,426.086,0,0,1,8.022-85.468c.7,4.105,1.279,8.1,1.977,12.245.542-6.533,1.124-13.1,1.744-19.636.659,15.673,1.511,31.31,3.255,46.912.659-16.887.737-33.774,1.4-50.66,5.735,24.991,6.278,50.267,7.014,75.508A242.341,242.341,0,0,1-86.659-52.5c.7,8.6,1.279,17.172,1.821,25.812.892-9.853,1.861-19.671,3.333-29.489.969,15.209,1.2,30.453,1.9,45.662,1.976-16.851,2.829-33.774,3.681-50.7.543,18.136.543,36.308,1.434,54.444.814-10.5,1.357-20.992,2.558-31.417,1.163,7.533,1.7,15.066,2.6,22.635,1.279-6.5,2.4-13.031,3.643-19.529.31,18.958.194,37.915,1.395,56.837,1.163-23.956,0-47.947,1.512-71.9a208.211,208.211,0,0,1,5.154,26.955c.5-2.035,1.55-6.034,2.054-8.069.349,3.57,1.047,10.925,1.357,14.566.659-11.531,1.317-23.063,2.519-34.558.891,6.533,1.666,13.066,2.48,19.635.465-4.926,1.4-14.744,1.9-19.635.5,10.282.814,20.564,1.318,30.846,1.2-15.281,3.062-30.489,5.31-45.7,1.744,11.067,2.713,22.206,4.457,33.273a141.306,141.306,0,0,0,5.464-31.952l3.372,15.6c.969-8.532,1.628-17.065,3.062-25.562.736,7.355,1.356,14.745,2.092,22.135.543-9.5.931-18.957,1.551-28.561.581,7.39,1.124,14.816,1.744,22.242,1.4-4.855,2.6-9.711,3.875-14.566,1.318,13.066,2.132,26.205,3.14,39.271.5-15.708.465-31.417,2.4-47.054.543,4.962,1.667,14.816,2.21,19.743A212.107,212.107,0,0,1,1.356-87.376C3.022-82.128,4.65-76.844,6.278-71.56,7.363-76.38,8.41-81.2,9.611-85.841c1.318,4.356,2.442,8.676,3.6,13.1,0-1.678.465-5,.582-6.641l4.767,3.57c1.046-3.82,2.092-7.676,3.216-11.46C23.447-77.451,24.028-67.6,25-57.744c.543-9.889,1.008-19.743,1.705-29.6.582,16.458.5,32.916,1.318,49.41,1.783-10.282,3.023-20.6,5-30.846C36.236-49.5,35.5-30,36.469-10.618A441.186,441.186,0,0,1,39.879-60.1C44.453-30.111,41.12.128,42.9,30.188c4.69-26.669,1.589-53.552,3.876-80.4,1.2,19.172,1.783,38.379,4.38,57.479,1.356-10.032,1.511-20.1,2.092-30.132.5,2.106,1.551,6.319,2.054,8.426.659-3.571,1.047-7.391,1.783-10.711C57.63-19.437,58.1-13.76,58.6-8.012c.7-9.532,1.356-19.029,2.247-28.561,2.248,18.136,1.861,36.379,2.636,54.587.659-13.174,1.085-26.383,1.666-39.557C66.505-8.8,68.016,3.983,70.458,16.622a571.1,571.1,0,0,1,5.154-75.366c.621,21.885,0,43.77,1.357,65.619,1.163-13.709-1.24-28.2,6.55-41.056.7,8.711,1.356,17.422,1.9,26.133,2.441-17.244,2.519-34.63,3.488-51.945.581,15.708.659,31.381,1.124,47.054.7-3.249,1.434-6.5,2.093-9.711.542,3.321,1.55,10,2.054,13.353.736-25.563-.272-51.16,1.162-76.687a480.944,480.944,0,0,0,5.039,55.694c1.046-14.28.968-28.846,1.472-43.234,1.008,11.46,1.783,22.956,3.876,34.345,1.744-17.672,2.442-35.38,3.41-53.052,2.171,16.886,2.52,33.88,3.566,50.8,1.473-9.853,2.325-19.778,3.411-29.632,2.131,16,3.139,32.132,4.883,48.126,1.008-24.991-.7-50.375,3.139-75.4.969,21.028.543,42.056,1.7,63.084.427-11.068.7-22.1.931-33.167l2.945,6.784c.465-5.606.853-11.246,1.357-16.851,1.278,6.89,2.325,13.78,3.449,20.706.659-9.425,1.318-18.85,2.48-28.239q1.2,12.995,2.326,25.954c2.209-13.138,3.875-26.311,5.154-39.521.543,15.637,1.163,31.31,3.1,46.876,1.356-14.78,2.48-29.6,3.565-44.412.892,11.959,1.434,23.991,3.333,35.7,1.085-14.281,2.054-28.883,3.411-43.306.736,13.531,1.008,27.1,3.139,40.592.93-8.211,1.86-16.422,3.1-24.6a121.542,121.542,0,0,1,3.875,17.208c.853-7.14,1.628-13.923,2.946-20.849,1.356,8.211,2.441,16.422,3.526,24.634,1.008-7.712,2.055-15.459,3.372-23.135.775,5.677,1.589,11.353,2.481,17.065,2.131-8.6,3.6-17.279,4.96-25.954.853,7.39,1.551,14.78,2.287,22.17,2.093-3.927,3.876-7.926,6.007-11.888.543,4.07,1.047,8,1.744,12.1,1.667-9.1,3.411-18.207,4.729-27.347.271,12.031.7,24.063,1.55,36.094a221.96,221.96,0,0,0,5.426-24.991c1.2,3.57,2.325,7.14,3.565,10.711,1.085-7.141,1.783-14.674,2.636-22.028,1.007,9.461,2.015,18.922,3.255,28.347.969-7.819,1.86-15.637,3.023-23.456,1.124,4.891,2.17,9.818,3.294,14.709,1.241-3.213,2.52-6.462,3.876-9.675,1.473,4.391,2.674,8.818,3.876,13.245,1.666-7.64,3.178-15.28,4.689-22.92.736,5.748,1.434,11.5,2.209,17.279a176.226,176.226,0,0,0,4.573-19.778c.7,7.14,1.434,14.637,2.442,21.956,1.473-4.427,2.713-8.854,3.876-13.281,1.162,5.284,2.247,10.711,3.875,15.816,1.357-6.105,2.171-12.246,3.217-18.351,1.744,12.639,3.876,25.241,6.278,37.844,1.822,19.278.892,38.628.892,57.978h1.628c0-14.637.271-29.275,1.124-43.912.659,13.995.891,28.061,1.821,42.056A415.809,415.809,0,0,1,269.9-59.029c1.744,18.065,2.791,36.165,3.294,54.3,1.241-8.961,2.287-17.85,3.876-26.847.736,17.279.388,34.63,3.333,51.838.853-25.633,1.667-51.195,3.256-76.793.813,18.957.658,37.914,1.472,56.872.5-10.711,1.279-21.421,1.744-32.131.388,4.962,1.241,14.816,1.667,19.742.659-3.248,1.318-6.5,2.015-9.746.814,8.426,1.667,16.78,2.791,25.205,2.092-7.926,2.751-15.994,3.875-23.955.62,4.07,1.008,8.032,1.628,12.174.465-7.39.853-14.781,1.279-22.135q1.046,12.924,2.131,25.848c.543-14.281.621-28.847,1.357-43.27.349,3.855.5,7.64.814,11.531l3.372-2.142A253.831,253.831,0,0,0,310.01-2.193c.969-13.638,1.434-27.311,2.635-40.949,2.054,10.71,2.093,21.42,3.062,32.131.5-18.565,1.162-37.165,3.217-55.658,1.4,6.069,2.441,12.174,3.643,18.279,0-2.392.232-7.141.348-9.533.582,1,1.783,3,2.4,3.963,2.248-5.069,4.457-10.175,6.666-15.244,3.876,16.351,2.675,33.023,3.643,49.553,1.551-7.354,2.52-14.78,3.876-22.135.465,7.783.853,15.566,1.4,23.385,2.636-20.243,2.015-40.664,6.356-60.692,2.481,9.032,3.876,18.207,5.581,27.311,3.333-9,5.5-18.172,8.061-27.276.892,13.21,1.551,26.455,3.256,39.629a381.184,381.184,0,0,0,7.208-54.445,290.833,290.833,0,0,1,3.6,31.667l3.876-.249a162.677,162.677,0,0,1,3.875-16.958c5.891,15.672,2.752,32.131,5.775,48.018,1.512,9.282,3.1,18.529,3.876,27.882.387-14.851.659-29.667,1.55-44.448.775,21.028,1.046,42.092,3.372,63.084,1.279-24.991-.388-50.374,1.782-75.508,3.333,15.959,2.016,32.131,3.217,48.268,1.589-9,2.442-18.065,3.682-27.1.62,24.991-.388,50.3,1.395,75.472,1.55-28.561-.387-57.121,1.357-85.433,2.635,32.132,2.054,64.263,3.643,96.572,1.938-42.484-.7-85.04,1.356-127.525,4.651,44.52.969,89.254,3.876,133.7,1.938-45.377-.892-90.86,1.473-136.236,1.666,32.131,2.015,64.262,3.488,96.607,1.627-24.991-1.241-50.481,3.023-75.508,2.829,42.056-.814,84.219,2.092,126.311,2.558-35.915-2.441-71.974,2.907-107.782,2.17,29.918.62,59.871,1.008,89.789h1.9c-.853-41.128.814-82.113,2.635-123.277,1.512,48.518.194,97.072.582,145.59h1.627c.931-40.664,1.551-81.363,2.83-122.027,1.821,34.666-.62,69.368,1.472,104.033,6.4-51.052-.387-102.426,3.566-153.515,2.054,49.125-.969,98.286,1.589,147.41,4.69-43.7.659-87.539,3.333-131.273,2.248,42.092-.93,84.219,1.783,126.311,2.907-12.067,2.325-24.348,2.519-36.522q-.35-40.272-.233-80.542h1.551a312.192,312.192,0,0,0,2.247,53.8c1.783-23.492.582-47.055,2.132-70.546,2.248,38.45-1.356,76.936,2.132,115.351,4.34-33.81,0-67.833,2.79-101.713.969,20.635.736,41.342,3.566,61.906.775-21.421.271-42.842,1.472-64.263,1.124,20.6,2.054,41.235,3.411,61.835,1.124-23.1.387-46.233,1.511-69.332,1.318,10.282,2.365,20.6,3.566,30.882.5-10.711.969-21.421,1.589-32.131,1.473,15.637,2.519,31.31,3.566,46.983.581-11.96.814-23.92,1.395-35.7.93,13.924,1.86,27.919,3.527,41.842.5-6.926.969-13.816,1.472-20.742l2.636,19.814c1.9-14.281,1.86-28.918,2.6-43.413a343.164,343.164,0,0,0,3.022,38.129c.737-7.783,1.163-15.566,1.667-23.348,1.046,5.676,2.093,11.388,3.255,17.1,1.4-2.784,2.752-5.569,4.147-8.318.7,8.533,1.279,17.1,2.364,25.669.272-3.142.853-9.354,1.163-12.46l3.217,1.464c.581-1.535,1.2-3.106,1.821-4.641.427,7.14.775,14.566,1.24,21.885,1.357-9.854,2.4-19.779,3.527-29.668.93,4.784,1.706,9.568,2.442,14.281L527.7-46.5c.93,6,1.395,12.031,2.132,18.065.891-3.32,1.782-6.641,2.713-9.961,1.123,3.57,1.821,7.14,3.022,11.1,0-6.1.194-12.21.31-18.279l2.868,5.784c1.241-8.1,2.054-16.28,3.1-24.384.62,6.141,1.124,12.21,1.821,18.35,1.589-7.711,2.364-15.494,3.333-23.241.427,8.6.892,17.244,1.434,25.848q1.745-20.992,3.14-42.021c1.085,6.141,2.015,12.281,3.178,18.422.93-5.355,1.9-10.71,2.829-16.066,1.473,8.6,1.9,17.316,2.79,25.991.427-9.032.814-18.065,1.279-27.062,1.628,9.818,2.829,19.672,3.876,29.525.465-9.853.62-19.707,1.124-29.525,1.395,8.961,2.635,17.851,3.875,26.991.388-12.746.659-25.455,1.279-38.2q2.249,15.387,3.876,30.846c.426-11.139.775-22.242,1.279-33.345,1.007,8.211,1.86,16.423,3.139,24.634.775-9.068,1.434-18.1,2.132-27.133,1.085,10.246,2.17,20.493,3.6,30.7.465-9.818.775-19.636,1.318-29.453,1.162,9.817,2.17,19.635,3.526,29.453.5-9,.969-17.85,1.512-26.954,1.24,9,2.209,17.85,3.372,27.026q.969-9.819,2.131-19.6c1.24,7.14,1.977,14.637,2.868,21.991.892-3.32,2.364-6.426,3.449-9.675,0,3.356.659,10.1.892,13.5,1.046-1.928,2.093-3.856,3.217-5.784,0,3.57-.31,10.318-.388,13.745l3.876-2.035c.193,3.57.426,6.819.7,10.246.93-5.462,1.744-10.96,2.791-16.422.775,5.355,1.2,10.71,1.627,16.137,1.047-1.429,2.132-2.821,3.217-4.213q-.62,40.056,2.6,80.078c.853-21.028.387-42.056,1.744-63.084,1.318,24.741,0,49.517,1.356,74.258,2.093-28.025,2.171-56.122,3.876-84.148,1.395,46.84,0,93.716.543,140.592h1.628c0-35.916,2.635-71.795,1.744-107.747h1.589c.465,37.344-1.163,74.759.93,112.1,1.085-36.736.581-73.509,3.411-110.245,1.472,39.842.232,79.685.581,119.563h1.821c0-20.814-.348-41.7.7-62.513.775,5.748,1.318,11.461,2.015,17.208.775-10.246,1.357-20.528,2.481-30.774,1.2,8.568,2.325,17.208,3.6,25.848q1.2-9.854,2.325-19.6c.659,16.636.62,33.345.543,49.981h1.628c-.233-27.882,1.124-55.729,2.751-83.576.659,17.315.7,34.666,1.551,52.017,4.922-30.882.814-61.978,3.41-92.824,1.628,31.6.388,63.192.7,94.751h1.783c-.543-37.379,1.046-74.722,2.713-112.1,1.589,30.131-.582,60.3,1.627,90.431.969-38.807.737-77.615,3.178-116.386.892,16.851.969,33.737,1.473,50.624,1.55-14.816,2.713-29.632,3.682-44.448.659,9.5,1.279,18.993,2.17,28.561a240.192,240.192,0,0,0,2.364-33.345l2.016,7.14c.852-2.784,1.744-5.569,2.6-8.318,1.163,9,1.822,17.851,2.752,27.026,1.279-9.854,2.287-19.743,3.411-29.6.5,8.175.775,16.386,1.279,24.6.968-8.569,1.744-17.173,3.1-25.741.31,2,.93,6,1.279,8.033q2.171-3.57,4.534-6.855c.388,9.425.7,18.886,1.163,28.311a254.824,254.824,0,0,0,7.131-38.236c.93,8.64,1.822,17.315,3.062,25.955,1.821-3.284,2.945-6.819,5-9.961a126.756,126.756,0,0,1,3.527,23.42c.465-3.355,1.357-10.067,1.822-13.423.387,5.319.62,10.71.969,15.958.659-1.928,1.317-3.891,1.976-5.783,1.279,3.57,2.6,7.14,3.876,10.71.232-5.641.349-11.317.581-16.958a52.281,52.281,0,0,0,8.72,17.315A107.954,107.954,0,0,0,745.4-55.066q1.28,9.639,2.946,19.207.852-10.389,1.666-20.707c.62,12.746,1.008,25.527,1.706,38.272,1.24-11.067,2.247-22.206,3.216-33.309.62,4.962,1.822,14.816,2.442,19.778,1.434-8.247,2.17-16.529,3.217-24.776,2.015,16.029,2.054,32.131,3.061,48.2.582-16.1.621-32.131,1.357-48.268.465,3.57.388,7.14.969,10.711l3.41-4.249c.349,38.272-1.395,76.615.969,114.851,2.287-43.913-2.4-88.039,4.186-131.845a240.948,240.948,0,0,1,1.666,28.561c-.465,47.483,0,95-.31,142.484h1.822c.388-55.944-1.046-111.888.659-167.8.62,10.71,1.356,21.421,1.976,32.131.582-11.567.969-23.1,1.783-34.63,1.4,28.561-.581,57.122,1.628,85.433.853-16.458.581-32.917.93-49.375.892,2.749,1.822,5.5,2.829,8.283,0-12.71.388-25.419.969-38.129.426,10.71,1.163,21.421,1.861,32.131,3.875-7.14,4.263-14.745,5.658-22.206.271,31.524,0,63.048,0,94.608H797.8c0-24.777,0-49.553-.233-74.33,0-14.28,0-28.561,4.883-42.52.659,24.241-.232,48.518.93,72.8,1.318-21.885,3.876-43.7,5.581-65.583a293.845,293.845,0,0,1,2.907,39.521c.7-10.71,1.628-21.421,2.713-32.131,1.279,9.925,1.86,19.85,2.6,29.775a324.342,324.342,0,0,1,4.612-39.486c1.046,12.317,1.55,24.67,3.875,36.915.93-15.637-.5-31.524,4.69-46.8.93,16.851.969,33.737,1.628,50.624.969-16.065,1.9-32.131,3.875-48.161.5,7.783.775,15.566,1.24,23.385.466-3.356,1.357-10.068,1.822-13.388.543,2.07,1.589,6.247,2.132,8.354.581-6.141,1.046-12.282,1.666-18.386,1.9,16.458,2.287,32.987,3.062,49.481a271.017,271.017,0,0,1,4.457-48.375c1.007,12.817,1.589,25.669,2.325,38.486,1.046-12.46,1.473-24.991,6.589-37.2.581,7.14,1.2,14.066,1.782,21.1.659-7.426,1.318-14.816,2.132-22.242,1.55,11.1,2.132,22.242,3.1,33.345.388-13.174.7-26.383,1.279-39.557.737,4.106,1.163,8.14,1.977,12.281.7-4.034,1.085-8.175,1.86-12.174.388,16.851.427,33.738,1.163,50.589,1.24-22.671,2.907-45.341,5.271-67.833q1.395,21.636,3.449,43.235a263.845,263.845,0,0,0,3.062-29.632c.5,2.142,1.473,6.354,1.938,8.461.62-3.213,1.2-6.462,1.782-9.675.62,4.1.853,8.1,1.512,12.245.775-3.57,1.008-7.461,2.015-11.031.349,9.032.62,18.064.969,27.061A93.565,93.565,0,0,1,898.1-80.129c2.675,9.354,2.093,18.958,2.675,28.561,1.395-9.1,1.434-18.529,5.7-27.24.969,1.821,2.906,5.5,3.875,7.355V-88.3c1.744,5.284,3.488,10.71,5.426,15.815.853-3.57,2.481-11.174,3.295-14.887,1.278,10.318,1.589,20.635,2.286,30.989.736-12.817.814-25.741,4.728-38.308.737,9.461,1.279,18.922,1.861,28.561,1.782-9.818,3.875-19.6,5.348-29.418q1.047,10.712,2.209,21.1a112.146,112.146,0,0,0,5.116-14.959c-.194,2.963-.349,5.891-.465,8.854l3.876-2.142c.271,2.249.775,6.783,1.046,9.032.543-6.105.736-12.245,1.163-18.35,1.046,4.177,1.821,8.354,2.829,12.567a107.36,107.36,0,0,0,5.154-13.567c-.232,6.319-.426,12.638-.5,18.993.813-1.178,1.627-2.32,2.4-3.57l3.023,3.57c0-5.962.194-11.888.388-17.85.271,1.892.775,5.64,1.046,7.5l3.527-1.857c.233,3.356.5,6.748.775,10.14.543-6.5,1.085-13.031,1.589-19.529q1.24,9.96,2.481,19.993a110.143,110.143,0,0,0,5.271-12.282,378.006,378.006,0,0,0,3.565,59.157c1.163-14.851,1.512-29.739,2.093-44.59a454.324,454.324,0,0,1,5.31,66.761c.62-15.03.736-30.1.736-45.127h1.666c0,26.955-.232,53.945,0,80.935l3.372-6.89c0,17.244,0,34.487.93,51.695,3.876-33.737,1.357-67.832,3.14-101.5,1.782,18.136,2.867,36.236,3.449,54.408.7-7.14,1.395-13.995,2.17-20.956.465,20.207,0,40.413,1.395,60.692,1.008-24.741,1.822-49.518,3.023-74.259.7,4.856,1.4,9.747,2.132,14.638q.581-19.1,1.511-38.2c3.566,31.1,2.21,62.3,2.326,93.5h1.86c.892-30.346-3.139-60.978,3.876-91.038Q1017.93-14.4,1018.9-.122c.892-13.21,1.667-26.419,3.527-39.557.659,20.635,0,41.27,1.473,61.906.93-21.885.271-43.77,1.666-65.619.659,10.282.931,20.6,1.512,30.917,1.2-8.961,2.48-17.851,4.147-26.847l3.41,4.141a263.143,263.143,0,0,1,2.907-36.558c1.318,28.811-.736,57.693,1.55,86.5,1.667-32.988-.542-66.047,1.318-99.071,1.008,9.5,1.783,18.993,3.1,28.561.892-4.962,1.822-9.889,2.752-14.816,1.434,8.6,1.938,17.244,2.907,25.884.465-7.141.891-13.924,1.395-20.85,1.4,10.71,2.442,21.421,3.643,32.131a308.3,308.3,0,0,1,2.985-48.161c.852,11.889,1.007,23.813,1.511,35.7,5.736-12.174,5.93-24.99,6.9-37.879.31,1.393.581,2.821.93,4.249,2.364.25,4.728.428,7.054.714V-70.7c2.17-6.212,4.379-12.424,7.092-18.529,1.473,4.463,2.674,8.961,3.876,13.5,0-2.034.426-6.1.542-8.139.93,1.927,1.86,3.82,2.829,5.712.31-2.071.969-6.248,1.318-8.354.349,3.213.775,6.426,1.163,9.675.426-1.714,1.24-5.177,1.666-6.891.659,1.678,1.977,5.034,2.674,6.712.272-5.212.62-10.46.969-15.673.62,4.891,1.279,9.818,1.938,14.745.5-4.07.659-8.211,1.279-12.246a184.5,184.5,0,0,1,7.248,40.736c0-10.711.968-21.421,1.085-32.132,1.124,16.887,3.1,33.774,5.5,50.625.5-11.175,1.047-22.313,2.016-33.452,3.41,20.956,1.472,42.163,2.6,63.227,1.085-11.1,2.17-22.242,3.566-33.31q1.7,12.853,3.216,25.741c1.086-9.068,2.016-18.065,3.876-27.062.93,19.172,0,38.451,4.186,57.444a230.671,230.671,0,0,0,3.643-44.948c.581,3.356,1.7,10.032,2.287,13.388.658-5.712,1.162-11.46,1.86-17.137.542,19.564.387,39.272.31,58.764h1.821c0-24.99-.465-49.981.543-74.972,1.589,15.209,3.876,30.417,5.426,45.626.194-21.885,3.333-43.627,5.271-65.44.542,15.1.775,30.239,1.976,45.34,1.008-1.321,2.055-2.606,3.1-3.927.581,1.749,1.2,3.57,1.86,5.284.233-9.818.62-19.6,1.008-29.382.5,10.71,1.318,21.42,1.9,32.131,2.4-17.851,2.48-35.451,3.255-53.195a349.534,349.534,0,0,0,3.643,39.628c3.217-18.493,1.9-37.165,3.14-55.729.465,9.889,1.123,19.743,1.627,29.632.272-10.711,1.279-21.421,1.706-32.131,1.434,25.169,0,50.374,1.627,75.543,3.643-24.062,2.326-48.3,2.4-72.437h1.667c0,22.563,0,45.233,4.418,67.582,1.046-19.386.736-38.807,3.256-58.157,4.3,20.671,1.007,41.663,4.418,62.406,3.682-28.561-.194-57.372,2.17-86.005.62,10.711,1.318,21.421,1.9,32.131.7-7.818,1.24-15.637,1.938-23.455.5,19.814,0,39.628,1.55,59.407,3.178-18.815,1.667-37.879,4.845-56.694,3.875,27.062,1.395,54.337,3.41,81.506,1.551-27.669,0-55.337,1.512-82.97.736,5.713,1.163,11.425,1.821,17.173.582-8.6,1.124-17.208,1.783-25.777,1.86,25.884-1.666,52.017,3.411,77.758,1.2-21.6-.349-43.306,4.34-64.727,2.055,19.957,1.047,39.986,2.287,59.943.853-17.851.7-35.38.969-53.088.93,2.713,1.86,5.426,2.868,8.175q.5-10.353,1.279-20.671c.775,27.633,1.008,55.266,3.256,82.863.775-28.882,0-57.872,5.348-86.575,1.008,27.632-.5,55.3,1.434,82.9,1.085-30.132,3.139-60.228,5.038-90.36,1.938,25.99,1.977,52.017,3.411,78.007,1.318-24.1-.582-48.268,2.092-72.331,6.744,19.993,2.326,40.878,4.458,61.228,3.449-21.849,1.356-43.912,4.689-65.762,2.364,21.85,2.713,43.734,3.6,65.655,1.551-21.421,1.938-42.842,4.729-64.262,1.55,21.135.581,42.341,2.829,63.477,3.875-22.635,2.751-45.555,4.224-68.3,1.124,21.814,2.054,43.663,3.411,65.476.93-22.242,1.511-44.484,3.371-66.725.466,15.03.814,30.06,2.6,45.055,2.209-13.781,2.519-27.7,5.736-41.378.736,13.174,1.046,26.347,1.666,39.557,1.357-11.46,3.023-22.92,5.232-34.345.814,8.961,1.667,17.851,2.791,26.919a226.553,226.553,0,0,1,5.115-34.452c1.162,10.711,1.86,21.421,3.875,31.882.427-10.211.582-20.421.969-30.6,1.822,6.5,3.876,12.924,5.62,19.421.969-8.068,2.054-16.137,3.1-24.241a192.812,192.812,0,0,0,5.271,33.059c.465-10.71.775-21.42,1.24-32.131.659,3.57,1.279,6.819,1.938,10.211Z"/></g></g></g><path d="M129.991,35.835a1.857,1.857,0,0,1,1.29-1.74l-.01-.029a1.61,1.61,0,0,1-1.03-1.46,1.82,1.82,0,0,1,2.009-1.729,1.678,1.678,0,0,1,1.889,1.6,1.649,1.649,0,0,1-1.069,1.519v.031a1.8,1.8,0,0,1,1.309,1.679,2,2,0,0,1-2.208,1.888C130.811,37.593,129.991,36.784,129.991,35.835Zm3.5-.04c0-.79-.549-1.17-1.429-1.42a1.412,1.412,0,0,0-1.169,1.34,1.2,1.2,0,0,0,1.3,1.239A1.175,1.175,0,0,0,133.489,35.8Zm-2.418-3.249c0,.65.49,1,1.239,1.2a1.281,1.281,0,0,0,.99-1.18,1.01,1.01,0,0,0-1.1-1.059A1.033,1.033,0,0,0,131.071,32.546Z"/><path d="M139.519,34.165c0,2.209-.82,3.428-2.259,3.428-1.269,0-2.128-1.189-2.148-3.337,0-2.18.939-3.379,2.258-3.379C138.739,30.877,139.519,32.1,139.519,34.165Zm-3.528.1c0,1.689.52,2.649,1.319,2.649.9,0,1.329-1.05,1.329-2.709,0-1.6-.409-2.648-1.319-2.648C136.551,31.557,135.991,32.5,135.991,34.265Z"/><path d="M129.321,100.455v.65h-2.469v-.65Z"/><path d="M129.991,101.835a1.857,1.857,0,0,1,1.29-1.74l-.01-.029a1.61,1.61,0,0,1-1.03-1.46,1.82,1.82,0,0,1,2.009-1.729,1.678,1.678,0,0,1,1.889,1.6A1.649,1.649,0,0,1,133.07,100v.031a1.8,1.8,0,0,1,1.309,1.679,2,2,0,0,1-2.208,1.888C130.811,103.593,129.991,102.784,129.991,101.835Zm3.5-.04c0-.79-.549-1.17-1.429-1.42a1.412,1.412,0,0,0-1.169,1.34,1.2,1.2,0,0,0,1.3,1.239A1.175,1.175,0,0,0,133.489,101.8Zm-2.418-3.249c0,.65.49,1,1.239,1.2a1.281,1.281,0,0,0,.99-1.18,1.01,1.01,0,0,0-1.1-1.059A1.033,1.033,0,0,0,131.071,98.546Z"/><path d="M139.519,100.165c0,2.209-.82,3.428-2.259,3.428-1.269,0-2.128-1.189-2.148-3.337,0-2.18.939-3.379,2.258-3.379C138.739,96.877,139.519,98.1,139.519,100.165Zm-3.528.1c0,1.689.519,2.649,1.319,2.649.9,0,1.329-1.05,1.329-2.709,0-1.6-.409-2.648-1.319-2.648C136.551,97.557,135.991,98.5,135.991,100.265Z"/><path d="M139.519,67.789c0,2.209-.82,3.428-2.259,3.428-1.27,0-2.129-1.189-2.149-3.337,0-2.18.94-3.379,2.259-3.379C138.739,64.5,139.519,65.72,139.519,67.789Zm-3.529.1c0,1.689.52,2.649,1.32,2.649.9,0,1.329-1.05,1.329-2.709,0-1.6-.41-2.648-1.319-2.648C136.55,65.181,135.99,66.12,135.99,67.889Z"/><path d="M141.835,19.644v5.847c0,.43.01.92.04,1.249h-.789l-.04-.839h-.02a1.789,1.789,0,0,1-1.649.949,2.2,2.2,0,0,1-2.069-2.458,2.314,2.314,0,0,1,2.169-2.6,1.618,1.618,0,0,1,1.459.74h.02V19.644Zm-.879,4.228a1.553,1.553,0,0,0-.04-.37,1.294,1.294,0,0,0-1.27-1.019c-.909,0-1.449.8-1.449,1.869,0,.979.48,1.789,1.43,1.789a1.323,1.323,0,0,0,1.289-1.05,1.526,1.526,0,0,0,.04-.379Z"/><path d="M143.328,20.094a8.411,8.411,0,0,1,1.589-.14,2.784,2.784,0,0,1,1.849.49,1.414,1.414,0,0,1,.559,1.189,1.6,1.6,0,0,1-1.139,1.479v.02a1.736,1.736,0,0,1,1.389,1.689,1.82,1.82,0,0,1-.569,1.35,3.389,3.389,0,0,1-2.329.629,10.141,10.141,0,0,1-1.349-.08Zm.869,2.759h.79c.919,0,1.459-.48,1.459-1.13,0-.789-.6-1.1-1.479-1.1a3.732,3.732,0,0,0-.77.06Zm0,3.228a4.649,4.649,0,0,0,.73.04c.9,0,1.729-.33,1.729-1.309,0-.92-.79-1.3-1.739-1.3h-.72Z"/><path d="M128.243,138.014a1.856,1.856,0,0,1,1.289-1.739l-.01-.03a1.61,1.61,0,0,1-1.029-1.459,1.82,1.82,0,0,1,2.009-1.729,1.678,1.678,0,0,1,1.889,1.6,1.649,1.649,0,0,1-1.069,1.519v.03a1.8,1.8,0,0,1,1.309,1.679,2,2,0,0,1-2.209,1.889C129.063,139.773,128.243,138.964,128.243,138.014Zm3.5-.04c0-.789-.549-1.169-1.429-1.419a1.411,1.411,0,0,0-1.169,1.339,1.2,1.2,0,0,0,1.3,1.239A1.175,1.175,0,0,0,131.741,137.974Zm-2.419-3.248c0,.65.49,1,1.24,1.2a1.279,1.279,0,0,0,.989-1.179,1.009,1.009,0,0,0-1.1-1.059A1.033,1.033,0,0,0,129.322,134.726Z"/><path d="M137.771,136.345c0,2.209-.82,3.428-2.259,3.428-1.27,0-2.129-1.189-2.149-3.338,0-2.179.939-3.378,2.259-3.378C136.991,133.057,137.771,134.276,137.771,136.345Zm-3.529.1c0,1.689.52,2.648,1.32,2.648.9,0,1.329-1.049,1.329-2.708,0-1.6-.41-2.649-1.319-2.649C134.8,133.736,134.242,134.676,134.242,136.445Z"/><path d="M127.572,202.635v.649H125.1v-.649Z"/><path d="M128.243,204.014a1.856,1.856,0,0,1,1.289-1.739l-.01-.03a1.61,1.61,0,0,1-1.029-1.459,1.82,1.82,0,0,1,2.009-1.729,1.678,1.678,0,0,1,1.889,1.6,1.649,1.649,0,0,1-1.069,1.519v.03a1.8,1.8,0,0,1,1.309,1.679,2,2,0,0,1-2.209,1.889C129.063,205.773,128.243,204.964,128.243,204.014Zm3.5-.04c0-.789-.549-1.169-1.429-1.419a1.411,1.411,0,0,0-1.169,1.339,1.2,1.2,0,0,0,1.3,1.239A1.175,1.175,0,0,0,131.741,203.974Zm-2.419-3.248c0,.65.49,1,1.24,1.2a1.279,1.279,0,0,0,.989-1.179,1.009,1.009,0,0,0-1.1-1.059A1.033,1.033,0,0,0,129.322,200.726Z"/><path d="M137.771,202.345c0,2.209-.82,3.428-2.259,3.428-1.27,0-2.129-1.189-2.149-3.338,0-2.179.939-3.378,2.259-3.378C136.991,199.057,137.771,200.276,137.771,202.345Zm-3.529.1c0,1.689.52,2.648,1.32,2.648.9,0,1.329-1.049,1.329-2.708,0-1.6-.41-2.649-1.319-2.649C134.8,199.736,134.242,200.676,134.242,202.445Z"/><path d="M137.77,169.969c0,2.209-.82,3.428-2.259,3.428-1.269,0-2.128-1.189-2.148-3.338,0-2.179.939-3.378,2.258-3.378C136.99,166.681,137.77,167.9,137.77,169.969Zm-3.528.1c0,1.689.52,2.648,1.319,2.648.9,0,1.329-1.049,1.329-2.708,0-1.6-.409-2.648-1.319-2.648C134.8,167.361,134.242,168.3,134.242,170.069Z"/><path d="M140.087,121.824v5.847c0,.43.01.919.04,1.249h-.79l-.04-.839h-.02a1.789,1.789,0,0,1-1.649.949,2.205,2.205,0,0,1-2.069-2.459,2.314,2.314,0,0,1,2.169-2.6,1.613,1.613,0,0,1,1.459.74h.02v-2.889Zm-.88,4.227a1.551,1.551,0,0,0-.04-.369,1.294,1.294,0,0,0-1.269-1.02c-.909,0-1.449.8-1.449,1.869,0,.98.479,1.789,1.429,1.789a1.32,1.32,0,0,0,1.289-1.049,1.529,1.529,0,0,0,.04-.38Z"/><path d="M141.579,122.274a8.427,8.427,0,0,1,1.589-.14,2.783,2.783,0,0,1,1.849.49,1.41,1.41,0,0,1,.56,1.189,1.6,1.6,0,0,1-1.139,1.479v.02A1.737,1.737,0,0,1,145.827,127a1.813,1.813,0,0,1-.57,1.349,3.382,3.382,0,0,1-2.329.63,10.165,10.165,0,0,1-1.349-.08Zm.869,2.758h.79c.92,0,1.459-.48,1.459-1.129,0-.79-.6-1.1-1.479-1.1a3.823,3.823,0,0,0-.77.06Zm0,3.228a4.649,4.649,0,0,0,.73.04c.9,0,1.729-.33,1.729-1.309,0-.92-.789-1.3-1.739-1.3h-.72Z"/><path d="M136.19,305.49c0,2.209-.82,3.429-2.259,3.429-1.269,0-2.129-1.19-2.149-3.338,0-2.179.94-3.379,2.259-3.379C135.41,302.2,136.19,303.422,136.19,305.49Zm-3.528.1c0,1.689.52,2.649,1.319,2.649.9,0,1.329-1.049,1.329-2.709,0-1.6-.409-2.648-1.319-2.648C133.221,302.882,132.662,303.821,132.662,305.59Z"/><path d="M133.781,237.132h-.02l-1.129.609-.17-.669,1.419-.76h.75v6.5h-.85Z"/></svg>