<svg id="Layer_1" data-name="Layer 1" xmlns="http://www.w3.org/2000/svg" width="745.979" height="211.333" viewBox="0 0 745.979 211.333"><defs><style>.cls-1{stroke:#000;stroke-miterlimit:10;stroke-width:0.25px;}.cls-2{fill:gray;}.cls-3{fill:#999;}</style></defs><path d="M150.753,106.557l-.813.006-.228,0c-.4,0-.75,0-1.218,0l-.67,0c-.322,0-.643,0-.951,0h-.9c-.308-.01-.509-.022-1.045-.04l-.884.018c-.455-.021-.656-.04-.964-.064-.107.021-.255.044-.415.068l-.643-.077-.63.032c-.093-.013-.214-.027-.281-.04-.683,0-1.339,0-2.089-.006-.174-.072-.255-.145-.456-.226a4.671,4.671,0,0,0-1.218.181c-.6-.1-.9-.205-.911-.3l-.911-.009a3.44,3.44,0,0,0-.991-.365,1.2,1.2,0,0,0-.549.357c-.482-.143-.911-.293-1.339-.456-.134.091-.3.181-.455.278-.188-.148-.456-.309-.63-.468-.214.122-.4.252-.643.384-.2-.244-.227-.475-.535-.751a.74.74,0,0,0-.175.219l-1.272-.206a4.176,4.176,0,0,1-.335.324c-.214-.243-.308-.475-.549-.738-.214.216-.321.455-.576.682a8.518,8.518,0,0,0-.549-.879,2.259,2.259,0,0,0-.335.589l-.428-.056a4.213,4.213,0,0,0-.415-.753c-.161.228-.389.451-.563.691a2.97,2.97,0,0,1-.335-.792l-.428-.083a3.31,3.31,0,0,1-.429.713,5.986,5.986,0,0,1-.428-.964,6.067,6.067,0,0,1-1.715.475,6.086,6.086,0,0,1-.75-1.318,12.351,12.351,0,0,1-.575,1.134c-.228-.418-.349-.823-.6-1.266-.2.342-.281.72-.469,1.082-.2-.148-.388-.3-.576-.447-.134.025-.254.053-.375.083l-2.37-.445a5.738,5.738,0,0,1-.161,1.063,15.293,15.293,0,0,1-1.339-1.094c-.174.286-.362.578-.536.876-.187-.6-.254-1.186-.442-1.8a3.585,3.585,0,0,0-1.138,2.541c-.281-.509-.563-1.03-.911-1.576a8.039,8.039,0,0,0-1.031,1.152,6.348,6.348,0,0,0-1.1-3.263,19.577,19.577,0,0,1-.536,3.143c-.281-1.275-.161-2.487-.576-3.843-1.741,1.041-.361,2.888-1.044,4.3-.3-.389-.576-.79-.858-1.2a11.593,11.593,0,0,0-1,1.993,16.119,16.119,0,0,0-1.112-4.4c-.254.509-.482,1.032-.723,1.567-.348-2.2.188-4.138-.509-6.543a37.893,37.893,0,0,1-1.192,7.514,20.553,20.553,0,0,1-2-1.6c.08.606.174,1.214.254,1.816l-1.808-.4c-.254.387-.5.783-.763,1.181l-.978-.822a9.133,9.133,0,0,0-1.1,1.577c-.335-.956-.629-1.927-1.045-2.94-.16.529-.468,1.6-.629,2.152a27.014,27.014,0,0,0-1.192-4.353c-.2,1.133-.348,2.29-.549,3.458-.214-1.19-.362-2.38-.6-3.608a23.264,23.264,0,0,0-3.549,2.906c-.428-.3-.844-.616-1.259-.908l-.241.731c-.576-1.039-1.138-2.111-1.781-3.23-.281.582-.536,1.169-.79,1.776-.148-.931-.255-1.866-.375-2.806l-.536,1.235c-.562-.861-1.1-1.74-1.687-2.653-.188.559-.59,1.6-.777,2.146-.174-.663-.5-1.907-.656-2.553-.442,1.048-.737,2.164-1.085,3.289-.348-1.05-.7-2.133-1.085-3.207-.188.883-.549,2.679-.737,3.589-.147-1.613-.241-3.217-.361-4.838-.576,2.332-1.34,4.708-1.875,7.21-.322-1.808-.59-3.635-1.072-5.534-.267,1.579-.455,3.187-.669,4.823-.335-2.182-.59-4.375-1.085-6.658-.268,2.015-.455,4.082-.7,6.185-.2-2.9-.348-5.824-.857-8.888q-.468,2.818-.87,5.76a62.724,62.724,0,0,0-1.152-9.178c-.214,3.072-.308,6.21-.482,9.337Q67.066,93.42,66.5,88.091c-.174,4.177-.215,8.422-.509,12.63-1.005-5.272-.791-10.351-1.232-15.7-.282,4.14-.215,8.454-.2,12.734l-1.139-.243c0-4.515,0-9.02-.375-13.674C62.7,89.29,63.209,95.1,61.9,100.457c-.309-6.065-.094-12-.6-18.27-.322,5.692-.094,11.65-.522,17.431-1.166-7.929-.617-15.433-1.166-23.469-.361,7.577-.375,15.4-1.259,23.06-.241-6.3,0-12.459-.535-19-.268,4.726-.228,9.631-.215,14.511l-1.178-.311c0-7.211.2-14.308-.335-21.877-.321,6.759,0,13.9-.67,20.656A101.749,101.749,0,0,1,54.37,80.249c-.174,4.411-.322,8.864-.924,13.194C52.629,84.708,53,76.436,53,67.994l-.656-.525c0,7.126.147,14.339-.255,21.308-1.473-9.14-.549-17.16-1.178-26.178-.349,6.874-.188,14.179-1.259,20.805-.469-10.635.187-20.477-.536-31.462-.348,10.124-.442,20.562-1.2,30.631-.242-7.719-.094-15.21-.5-23.148-.7,5.818-.884,12.179-1.219,18.506-.214-7.047-.214-13.877-.415-20.94q-.75,7.035-1.339,14.408c-.255-8.541-.214-16.858-.161-25.147l-.629-.72c0,7.919.482,16.334-.978,23.081-.388-10.552.067-20.331-.429-31.154-.9,6.851-.937,14.863-1.272,22.7-.295-9.626-.094-18.76-.509-28.667-.964,12.655-.924,26.718-.83,40.764l-.643-.4c-.268-13.411.9-25.452-.9-40.774-.6,13.579.214,28.662-.59,42.358-.227-8.407-.067-16.57-1.031-25.784-.656,11.254-.08,23.6-.67,35.191-.709-17.284.2-33.369-.549-51.061C33.45,44.6,35.031,61.213,34.053,75.529c-.254-9.72,0-19.133-.978-29.651-1,14.775.094,31.213-.79,46.528-.857-22.965.657-44.249-.8-68.431C30,47.77,31.326,74.6,30.933,99.916l-.643-.076c-.107-17.114.6-33.748-.9-52.049-.267,9.877-.375,19.984-1.178,29.737-.228-5.379-.348-10.728-.589-16.168-.788,12.084,1.148,25.813-1.648,37.507v23.2c.2-1.87.616-5.6.817-7.45.121,6.567.094,13.157.121,19.73l.522-.23c0-7.87.08-15.754.348-23.629,1.085,16.441.375,33.442,1.46,49.191,1-11.479.362-21.838.884-32.755.442,11.23-.281,23.193,1.058,33.468.817-14.966-.08-28.839.7-43.424.7,15.748-.388,32.54.75,47.635,1.661-16.621-.12-30.993,1.018-46.717.67,23.609-.294,48.328.482,71.357,2.25-25.019-.107-45.612,1.233-68.765,1.1,19.908-1.112,42.3,1.232,60.129.576-19.352-.362-37.406.522-56.575.434,25.393.29,50.893,1.165,75,.75-26.54-.415-51.045.589-77.16.439,23.962.388,48.194,1.112,71.176.8-22.78-.348-43.452.616-65.782,1.152,21.428.442,44.123,1.125,65.183.75-21.193-.228-40.411.509-61.112,2.156,14.32,0,31.971,1.339,46.162.657-18.248-.281-35.048.482-52.979,1.768,21.088.228,44.608,1.206,65.4.83-21.625-.389-41,.643-62.2,1.955,10.445,0,23.478,1.1,34.023.629-11.857-.174-22.554.616-34.212,2.089,11.584-.037,26.172,1.125,37.879.8-12.552-.5-23.21.844-35.66.482,2.035.7,4.185,1.017,6.278.188-2.87.362-5.714.59-8.56.991,6.6.736,13.823.7,20.907l.576-.481c-.12-10.9.4-22,.991-32.938.214,5.46.2,10.961.549,16.283a115.084,115.084,0,0,1,.924-14.913c.67,7.526.121,15.49.764,22.81.361-7.443,0-14.508.509-21.862a76.959,76.959,0,0,0,1.272,11.8c.174-4.995.187-9.933.455-14.864.523,4.37.911,8.707,1.085,13.055.388-3.058.75-6.057,1.339-9.068q.3,2.914.576,5.783c.322-3.256.536-6.441,1.165-9.656.215,3.015.349,6.035.59,9,.227-2.782.334-5.507.562-8.231.214,1.941.375,3.888.589,5.8.375-2.607.737-5.167,1.032-7.676.415,1.618.8,3.218,1.245,4.764.2-1.852.375-3.611.576-5.386l.522,2.308c.389-1.471.75-2.9,1.166-4.324.267,3.03.415,6.042.7,9a60.721,60.721,0,0,0,1.152-9.154c.174,2.054.321,4.088.495,6.108.308-2.152.616-4.271,1.018-6.351a58.691,58.691,0,0,1,.67,9.163c.361-2.855.71-5.656,1.232-8.42q.28,2.667.549,5.3c.388-1.56.71-3,1.192-4.477.228,2.18.375,4.36.576,6.5.294-2.03.589-4.029,1.058-6.016.294,1.761.549,3.51.844,5.243a22.631,22.631,0,0,0,1.031-5.709,33.861,33.861,0,0,0,1.125,3.536c.241-1.789.388-3.541.576-5.282a34.774,34.774,0,0,0,1.2,3.613c.281-1.77.362-3.492.562-5.206a21.8,21.8,0,0,0,1.152,5.277c.335-2.023.389-3.988.59-5.946.334,2.428.723,4.8,1.245,7.071.2-1.846.3-3.657.522-5.441a36.887,36.887,0,0,1,1.206,5.94,25.4,25.4,0,0,1,.937-6.43c.308,1.219.549,2.405.8,3.612a15.621,15.621,0,0,1,1.165-5.191c.147,1.273.321,2.532.442,3.778q.442-1.741.991-3.415c.348.71.576,1.416.857,2.107.4-.467.79-.921,1.2-1.365.148.552.282,1.1.429,1.648.2-.266.616-.785.8-1.036.776.64,1.513,1.25,2.276,1.82A17.7,17.7,0,0,0,98.1,107.8c.174.507.321,1.024.482,1.513a22.931,22.931,0,0,1,1.072-2.256c.254.634.522,1.254.763,1.866.469-.794.857-1.56,1.219-2.3.774,3.207,2.222,6.027,2.29,9.022a10.4,10.4,0,0,1,2.772-6.889c.241.257.442.5.683.753.188-.455.388-.906.6-1.347a7.743,7.743,0,0,0,1.125,2.8c.227-1.07.254-2.1.482-3.133a4.89,4.89,0,0,1,2.424,3.88,4.018,4.018,0,0,1,1.567-2.57,12.991,12.991,0,0,1,.629,1.138,7.3,7.3,0,0,1,1.152-1.528,15.922,15.922,0,0,1,.656,1.872,8.307,8.307,0,0,0,1.273-2.289,11.42,11.42,0,0,0,.5,2.044,7.4,7.4,0,0,1,.884-1.339,7.746,7.746,0,0,1,.9.649c.442-.3.831-.583,1.259-.856a3.213,3.213,0,0,0,.482,1.673c.4-.818,0-1.47.523-2.261a8.4,8.4,0,0,1,1.781.514c.174-.079.536-.232.71-.307.12.071.361.214.469.284a3.842,3.842,0,0,1,.87-.906c.308.114.576.225.857.33.161-.121.482-.354.657-.467.174.184.281.37.455.544a7.345,7.345,0,0,1,1.835-.974c.6.133.937.272,1.54.372a8.171,8.171,0,0,0,1.888-.542l1.165.095a8.1,8.1,0,0,1,1.058-.29c.255.053.469.1.724.149.187-.083.321-.161.535-.239.2.048.389.093.6.134.482-.053.9-.1,1.339-.14.456.052.737.1,1.085.146a1.628,1.628,0,0,1,.83-.232c.188.015.576.039.764.05.8-.051,1.806-.1,3-.131.576,0,1.138,0,1.7-.008.375-.01.736-.019,1.151-.027l1.246-.011.2,0,1.647-.017.813-.007Z"/><line class="cls-1" x1="138.328" y1="106.685" x2="571.061" y2="106.685"/><line class="cls-1" x1="271.053" y1="106.685" x2="703.787" y2="106.685"/><path class="cls-2" d="M543.859,106.585H541.6l-.67,0-.951,0h-.9l-1.045-.009-.884,0c-.455,0-.656-.008-.964-.013l-.415.014-.643-.016-.629.007-.282-.009h-2.089c-.174-.015-.254-.03-.455-.046-.657.007-.991.021-1.219.037a5.748,5.748,0,0,1-.911-.061l-.91,0c-.117-.02-.448-.044-.992-.075a3.456,3.456,0,0,0-.549.074c-.482-.03-.91-.061-1.339-.094-.134.018-.295.037-.455.057-.188-.03-.456-.064-.63-.1-.214.025-.4.052-.643.079a4.176,4.176,0,0,0-.535-.155.861.861,0,0,0-.174.045l-1.273-.042c-.1.022-.209.044-.335.066-.214-.05-.308-.1-.549-.151-.214.044-.321.093-.575.14-.2-.059-.282-.116-.55-.181a1.64,1.64,0,0,0-.334.121l-.429-.011a2.658,2.658,0,0,0-.415-.155c-.161.047-.389.093-.563.142a1.141,1.141,0,0,1-.334-.163l-.429-.017a2.574,2.574,0,0,1-.429.147,2.65,2.65,0,0,1-.428-.2c-.344.038-.917.07-1.714.1a4.114,4.114,0,0,1-.75-.272c-.188.076-.335.156-.576.234-.228-.086-.349-.169-.6-.261-.2.071-.281.149-.469.223-.2-.03-.388-.061-.576-.092-.134,0-.254.011-.375.017l-2.37-.091c0,.074-.094.145-.161.218-.482-.073-.937-.148-1.339-.225-.174.059-.362.119-.536.181-.187-.124-.254-.245-.442-.372-.743.152-1.123.33-1.138.524-.281-.1-.562-.213-.911-.325-.428.073-.7.155-1.031.237,0-.2-.364-.424-1.1-.672-.188.213-.174.437-.536.648-.281-.263-.16-.513-.576-.792-1.741.215-.361.595-1.044.886-.295-.08-.576-.162-.857-.246a6.426,6.426,0,0,0-1,.41,2.419,2.419,0,0,0-1.111-.905c-.255.105-.483.213-.724.323-.348-.453.188-.852-.509-1.347a3.129,3.129,0,0,1-1.191,1.547c-.777-.108-1.34-.215-2-.331.08.125.174.25.254.374l-1.808-.081c-.254.079-.5.161-.763.243l-.978-.17a9.312,9.312,0,0,0-1.1.325c-.335-.2-.629-.4-1.044-.605-.161.109-.469.33-.63.443a4.692,4.692,0,0,0-1.192-.9c-.2.234-.348.472-.549.713-.214-.245-.362-.491-.6-.743-1.339.173-2.41.378-3.549.6-.428-.061-.843-.127-1.259-.187l-.241.151c-.576-.214-1.138-.435-1.781-.666-.281.12-.536.241-.79.366a6.52,6.52,0,0,1-.375-.578l-.536.255c-.562-.178-1.1-.359-1.687-.547-.188.116-.59.33-.777.442-.174-.136-.5-.392-.656-.525a8.492,8.492,0,0,0-1.085.677c-.348-.216-.7-.439-1.085-.66-.187.181-.549.551-.736.739-.148-.332-.242-.663-.362-1-.576.481-1.339.97-1.875,1.485a7.82,7.82,0,0,0-1.072-1.14,9.557,9.557,0,0,0-.669.994,8.95,8.95,0,0,0-1.085-1.371c-.268.415-.455.84-.7,1.273a5.2,5.2,0,0,0-.857-1.83q-.469.581-.871,1.186a4.2,4.2,0,0,0-1.152-1.89c-.214.633-.308,1.279-.482,1.923a16.1,16.1,0,0,1-1.339-2.157,19.964,19.964,0,0,1-.509,2.6c-1-1.086-.79-2.132-1.232-3.233a7.832,7.832,0,0,0-.2,2.622l-1.139-.051a7.373,7.373,0,0,0-.375-2.815c-.348,1.123.161,2.32-1.151,3.422-.308-1.249-.094-2.47-.6-3.762-.321,1.173-.094,2.4-.522,3.59-1.165-1.633-.616-3.178-1.165-4.833-.362,1.56-.375,3.172-1.259,4.748-.241-1.3,0-2.565-.536-3.911a10.6,10.6,0,0,0-.214,2.988l-1.179-.064a12.953,12.953,0,0,0-.335-4.5c-.321,1.392,0,2.863-.669,4.253a5.36,5.36,0,0,1-1.045-2.664,6.741,6.741,0,0,1-.924,2.716c-.817-1.8-.442-3.5-.442-5.24l-.656-.108a16.039,16.039,0,0,1-.255,4.387c-1.473-1.881-.549-3.533-1.178-5.39-.349,1.416-.188,2.92-1.259,4.284-.469-2.19.187-4.216-.536-6.478a33.6,33.6,0,0,1-1.2,6.307c-.241-1.589-.094-3.132-.5-4.766a14.275,14.275,0,0,0-1.219,3.81c-.214-1.451-.214-2.857-.415-4.311a30.336,30.336,0,0,0-1.339,2.966,29.352,29.352,0,0,1-.161-5.177l-.629-.149c0,1.631.482,3.364-.978,4.753-.388-2.173.067-4.186-.428-6.415-.9,1.411-.938,3.06-1.273,4.673-.294-1.982-.093-3.862-.509-5.9-.964,2.6-.924,5.5-.83,8.393l-.643-.083c-.268-2.762.9-5.241-.9-8.395-.6,2.8.214,5.9-.589,8.721-.228-1.731-.067-3.412-1.032-5.309-.656,2.317-.08,4.86-.669,7.246-.71-3.559.2-6.871-.549-10.514-1.808,2.641-.228,6.061-1.206,9.009-.254-2,0-3.94-.977-6.105-1,3.042.093,6.426-.791,9.579-.857-4.728.657-9.11-.8-14.089-1.483,4.9-.156,10.423-.549,15.636l-.643-.016c-.107-3.524.6-6.948-.9-10.717a24.494,24.494,0,0,1-1.179,6.123c-.228-1.107-.348-2.209-.589-3.329-.788,2.488,1.148,5.315-1.648,7.723v4.777c.2-.385.617-1.152.817-1.533.121,1.352.094,2.708.121,4.062l.522-.048a29.841,29.841,0,0,1,.348-4.865c1.085,3.385.376,6.886,1.46,10.129,1-2.364.362-4.5.884-6.745.442,2.313-.281,4.776,1.058,6.891.817-3.081-.08-5.937.7-8.94.7,3.242-.389,6.7.75,9.807,1.66-3.422-.121-6.381,1.017-9.618.67,4.861-.294,9.95.483,14.692,2.25-5.152-.108-9.392,1.232-14.159,1.1,4.1-1.112,8.709,1.232,12.38.576-3.984-.362-7.7.522-11.648.434,5.228.291,10.478,1.165,15.441.75-5.464-.415-10.51.59-15.887.439,4.934.388,9.923,1.111,14.655.8-4.69-.348-8.947.616-13.544,1.152,4.412.442,9.084,1.125,13.421.75-4.364-.227-8.321.509-12.583,2.156,2.948,0,6.583,1.339,9.5.657-3.757-.281-7.216.483-10.908,1.767,4.342.227,9.185,1.205,13.465.83-4.452-.388-8.442.643-12.806,1.955,2.151,0,4.834,1.1,7.005.629-2.441-.174-4.644.616-7.044,2.089,2.385-.037,5.389,1.125,7.8.8-2.584-.5-4.779.844-7.342a6.794,6.794,0,0,1,1.018,1.293c.187-.591.361-1.177.589-1.763.991,1.358.737,2.846.7,4.3l.576-.1a22.481,22.481,0,0,1,.991-6.782,28.366,28.366,0,0,0,.549,3.353,5.618,5.618,0,0,1,.925-3.071c.669,1.55.12,3.189.763,4.7.362-1.533,0-2.988.509-4.5a4.7,4.7,0,0,0,1.272,2.431c.174-1.029.188-2.045.455-3.061a8.755,8.755,0,0,1,1.085,2.688,10.463,10.463,0,0,1,1.34-1.867q.294.6.575,1.191a6.588,6.588,0,0,1,1.166-1.988c.214.62.348,1.242.589,1.852.228-.573.335-1.134.562-1.7.215.4.375.8.59,1.2.375-.537.736-1.064,1.031-1.581.415.333.8.663,1.245.981.2-.381.375-.743.576-1.109l.523.476c.388-.3.75-.6,1.165-.891.268.624.415,1.244.7,1.853a4.07,4.07,0,0,0,1.152-1.885c.174.423.321.842.495,1.258a11.1,11.1,0,0,1,1.018-1.308,3.022,3.022,0,0,1,.67,1.887,10.682,10.682,0,0,1,1.232-1.734q.282.549.549,1.091a10.64,10.64,0,0,1,1.192-.921c.228.448.375.9.576,1.338a6.415,6.415,0,0,1,1.058-1.239c.3.363.549.723.844,1.079A2.147,2.147,0,0,0,472,107.657a7.729,7.729,0,0,0,1.125.728,11.971,11.971,0,0,0,.576-1.087,8.714,8.714,0,0,0,1.2.743,7.487,7.487,0,0,0,.563-1.071,2.66,2.66,0,0,0,1.152,1.086,5.419,5.419,0,0,0,.589-1.224,7.558,7.558,0,0,0,1.245,1.456c.2-.381.3-.753.523-1.121a4.088,4.088,0,0,1,1.2,1.223,1.955,1.955,0,0,1,.937-1.323c.308.251.549.5.8.743.081-.358.47-.719,1.165-1.069.147.263.322.522.442.778a10.161,10.161,0,0,1,.991-.7c.348.146.576.292.857.434.4-.1.79-.19,1.206-.281.147.114.281.227.428.339.2-.055.616-.161.8-.213.777.132,1.513.257,2.277.375a5.183,5.183,0,0,0,1.111-.63c.174.1.322.211.482.312a11.485,11.485,0,0,1,1.072-.465c.254.131.522.258.763.384.469-.163.857-.321,1.219-.473.774.66,2.222,1.241,2.29,1.858-.073-.454.855-.948,2.772-1.419.241.053.442.1.683.155.188-.093.389-.186.6-.277a2.682,2.682,0,0,0,1.125.577c.228-.22.254-.432.482-.645,1.982.258,2.17.533,2.424.8.047-.165.571-.346,1.567-.529.241.079.442.156.63.234a8.516,8.516,0,0,1,1.151-.315,4.412,4.412,0,0,1,.657.386,5.379,5.379,0,0,0,1.272-.472c.187.143.187.289.5.421a6.834,6.834,0,0,1,.884-.275c.4.043.59.091.9.133.442-.062.83-.12,1.259-.176.107.119.067.244.482.344.4-.168,0-.3.522-.465.8.033,1.394.068,1.781.106.174-.017.536-.048.71-.063l.469.058a6.4,6.4,0,0,1,.87-.186c.308.023.576.046.857.067.161-.025.483-.072.657-.1.174.038.281.076.455.112.415-.069,1.058-.137,1.835-.2.6.027.937.056,1.54.076,1.053-.048,1.686-.084,1.888-.111l1.166.019c.334-.021.562-.04,1.058-.059.254.01.468.021.723.03.187-.017.321-.033.535-.049l.6.028c.482-.011.9-.021,1.339-.029.456.01.737.021,1.085.03a6.475,6.475,0,0,1,.831-.048l.763.01c.8-.01,1.806-.019,3-.027h1.7l1.152-.006,1.245,0h.2l1.647,0,.813,0Z"/><path class="cls-3" d="M676.02,106.614h-4.777l-1.045,0h-.884l-.964,0-.415,0-.643-.005-.63,0-.281,0h-2.089l-.455-.013c-.657,0-.991.006-1.219.01q-.9-.009-.911-.016h-.91q-.176-.007-.992-.019c-.334.005-.388.012-.549.019l-1.339-.025-.455.015c-.188-.008-.456-.017-.63-.025l-.643.021c-.2-.014-.227-.026-.535-.041-.081,0-.134.007-.174.012l-1.273-.012-.335.018c-.214-.013-.308-.026-.549-.04-.214.012-.321.025-.576.037-.2-.016-.281-.031-.549-.048-.134.01-.267.021-.334.032l-.429,0c-.107-.013-.228-.027-.415-.041-.161.012-.389.025-.563.038a3.013,3.013,0,0,1-.335-.044l-.428,0c-.107.013-.241.026-.429.039-.2-.018-.294-.035-.428-.053-.344.01-.917.019-1.714.026-.349-.024-.55-.048-.75-.072-.188.02-.335.041-.576.062-.228-.023-.349-.045-.6-.069-.2.019-.281.039-.469.059l-.576-.024-.375,0-2.37-.024c0,.02-.094.038-.161.058-.482-.02-.937-.04-1.339-.06l-.536.048c-.187-.033-.254-.065-.442-.1a3.5,3.5,0,0,0-1.138.139c-.281-.027-.562-.056-.911-.086-.428.02-.7.041-1.031.063q0-.081-1.1-.178a1.9,1.9,0,0,1-.536.172c-.281-.07-.16-.136-.576-.211-1.741.057-.361.158-1.044.236-.295-.021-.576-.043-.857-.066-.4.035-.737.072-1,.109a4.245,4.245,0,0,0-1.111-.24c-.255.028-.483.056-.724.086-.348-.121.188-.227-.509-.358a2.9,2.9,0,0,1-1.192.411c-.776-.029-1.339-.057-2-.088.08.033.174.066.254.1l-1.808-.021-.763.064-.978-.045c-.442.028-.79.056-1.1.086-.335-.052-.629-.105-1.045-.16l-.629.117a9.559,9.559,0,0,0-1.192-.238c-.2.062-.348.126-.549.189-.214-.065-.362-.13-.6-.2-1.339.046-2.41.1-3.549.159l-1.259-.05-.241.04c-.576-.057-1.138-.115-1.781-.176-.281.032-.536.064-.79.1-.147-.051-.255-.1-.375-.154l-.536.068c-.562-.047-1.1-.095-1.687-.145-.188.03-.59.087-.777.117-.174-.036-.5-.1-.656-.139-.442.057-.737.118-1.085.179-.348-.057-.7-.116-1.085-.175-.187.048-.549.147-.737.2a4.181,4.181,0,0,1-.361-.264c-.576.127-1.339.257-1.875.394a10.5,10.5,0,0,0-1.072-.3c-.267.087-.455.175-.669.264a9.5,9.5,0,0,0-1.085-.364c-.268.11-.455.223-.7.338a2.2,2.2,0,0,0-.858-.486q-.468.155-.87.315a2.705,2.705,0,0,0-1.152-.5,5.281,5.281,0,0,0-.482.511,11.407,11.407,0,0,1-1.339-.573c-.174.229-.215.461-.509.691-1-.289-.79-.566-1.232-.859-.282.227-.215.462-.2.7l-1.139-.013a.749.749,0,0,0-.375-.747c-.348.3.161.616-1.151.908-.308-.331-.094-.656-.6-1-.321.312-.094.637-.522.953-1.166-.433-.616-.843-1.166-1.283-.361.414-.374.842-1.258,1.261-.241-.345,0-.681-.536-1.039a.87.87,0,0,0-.214.794l-1.179-.017c0-.394.2-.783-.335-1.2-.321.369,0,.76-.669,1.129-.629-.237-.978-.475-1.045-.708a1.69,1.69,0,0,1-.924.722c-.817-.478-.442-.93-.442-1.392l-.656-.028c0,.389.147.784-.255,1.165-1.473-.5-.549-.939-1.178-1.432-.349.376-.188.776-1.259,1.138-.469-.582.187-1.12-.536-1.72a4.221,4.221,0,0,1-1.2,1.674c-.241-.422-.094-.831-.5-1.265a3.317,3.317,0,0,0-1.219,1.012c-.214-.386-.214-.759-.415-1.145a12.445,12.445,0,0,0-1.339.787,2.154,2.154,0,0,1-.161-1.375l-.629-.039c0,.433.482.893-.978,1.262-.388-.577.067-1.112-.428-1.7-.9.374-.938.812-1.273,1.241-.294-.527-.093-1.026-.509-1.568a2.03,2.03,0,0,0-.83,2.229l-.643-.022c-.268-.733.9-1.392-.9-2.23-.6.743.214,1.568-.589,2.317-.228-.46-.067-.906-1.032-1.41-.656.615-.08,1.29-.669,1.924-.71-.945.2-1.825-.549-2.792-1.809.7-.228,1.609-1.206,2.392-.254-.531,0-1.046-.977-1.621-1,.808.093,1.707-.791,2.544-.857-1.256.657-2.419-.8-3.742-1.483,1.3-.156,2.768-.549,4.153l-.643,0c-.107-.936.6-1.846-.9-2.846a3.117,3.117,0,0,1-1.179,1.626c-.228-.3-.348-.587-.589-.884-.788.66,1.148,1.411-1.648,2.05v1.269c.2-.1.617-.306.817-.407a4.219,4.219,0,0,1,.121,1.079l.522-.013a2.362,2.362,0,0,1,.348-1.292c1.085.9.375,1.829,1.46,2.69,1.005-.628.362-1.194.884-1.791.442.614-.281,1.268,1.058,1.83.817-.819-.08-1.577.7-2.375.7.861-.389,1.78.75,2.6,1.66-.909-.121-1.695,1.017-2.554.67,1.29-.294,2.642.483,3.9,2.25-1.368-.108-2.494,1.232-3.76,1.1,1.089-1.112,2.313,1.232,3.288.576-1.058-.362-2.045.522-3.093.434,1.388.291,2.782,1.165,4.1.75-1.451-.415-2.791.59-4.219.438,1.31.388,2.635,1.111,3.892.8-1.245-.348-2.376.616-3.6,1.152,1.172.442,2.413,1.125,3.564.75-1.158-.227-2.209.509-3.341,2.156.783,0,1.748,1.339,2.524.657-1-.281-1.916.483-2.9,1.767,1.153.227,2.439,1.2,3.576.83-1.182-.388-2.242.643-3.4,1.955.571,0,1.284,1.1,1.86.629-.648-.174-1.233.616-1.87,2.089.633-.037,1.431,1.125,2.071.8-.687-.495-1.269.844-1.95a7.064,7.064,0,0,1,1.018.343,7.174,7.174,0,0,1,.589-.468c.991.361.736.756.7,1.143l.576-.026c-.12-.6.4-1.2.991-1.8.215.3.2.6.549.89-.019-.268.29-.542.924-.815.67.411.121.847.764,1.247.361-.407,0-.793.509-1.195a2.334,2.334,0,0,0,1.272.645c.174-.273.188-.543.455-.813a2.91,2.91,0,0,1,1.085.714,9.448,9.448,0,0,1,1.339-.5c.2.107.389.212.576.317a4.121,4.121,0,0,1,1.166-.528c.214.165.348.33.589.492.227-.153.335-.3.562-.45.215.106.375.212.59.317.375-.143.736-.283,1.031-.42.415.088.8.176,1.245.261.2-.1.375-.2.576-.3l.523.126c.388-.08.75-.159,1.165-.236.268.165.415.33.7.492a2.632,2.632,0,0,0,1.152-.5c.174.113.321.224.5.334.308-.117.617-.233,1.018-.347.6.167.549.334.67.5a9.394,9.394,0,0,1,1.232-.46q.282.146.549.289c.389-.085.71-.164,1.192-.244.228.119.375.238.576.355a7.552,7.552,0,0,1,1.058-.329c.295.1.549.192.844.287a2.359,2.359,0,0,0,1.031-.312c.335.068.683.131,1.125.193.241-.1.388-.194.576-.289.4.067.683.135,1.205.2a1.308,1.308,0,0,1,1.714,0,2.439,2.439,0,0,0,.59-.326,8.761,8.761,0,0,0,1.245.387c.2-.1.295-.2.522-.3a5.66,5.66,0,0,1,1.206.324c.031-.116.344-.235.937-.351.308.066.549.131.8.2a2.837,2.837,0,0,1,1.165-.284c.147.07.321.139.442.207q.442-.1.991-.187c.348.039.576.078.857.115.4-.025.79-.05,1.206-.074l.428.09.8-.057c.777.035,1.513.069,2.277.1.508-.058.843-.114,1.111-.167.174.027.322.056.482.082.348-.042.643-.083,1.072-.123.254.035.522.069.763.1.469-.043.857-.085,1.219-.126a12.712,12.712,0,0,1,2.29.494c-.073-.121.855-.252,2.772-.377.241.014.442.028.683.041.188-.025.389-.049.6-.074a7,7,0,0,0,1.125.154c.228-.059.254-.115.482-.172a9.306,9.306,0,0,1,2.424.213,8.234,8.234,0,0,1,1.567-.141c.241.021.442.042.63.062.308-.028.642-.056,1.151-.083.335.034.415.069.657.1.683-.046.977-.086,1.272-.125a2.816,2.816,0,0,0,.5.112c.282-.025.469-.049.884-.074.4.012.59.025.9.036.442-.017.83-.032,1.259-.047a1.022,1.022,0,0,0,.482.092c.4-.045,0-.081.522-.124.8.009,1.394.018,1.781.028l.71-.017.469.016c.227-.017.455-.033.87-.05l.857.018.657-.025c.174.01.281.02.455.03.415-.019,1.058-.037,1.835-.054.6.008.937.015,1.54.021,1.053-.013,1.686-.023,1.888-.03l1.166,0c.334,0,.562-.01,1.058-.016l.723.008.535-.013.6.008,1.339-.008,1.085.008c.174,0,.161-.008.831-.013l.763,0c.8,0,1.806,0,3-.007h6.759Z"/><path class="cls-3" d="M412.479,106.856l-.814,0h-1.446l-.67,0c-.321,0-.643,0-.951,0h-.9l-1.044-.019-.884.009c-.456-.01-.657-.019-.965-.031-.107.01-.254.021-.415.032l-.643-.036c-.214,0-.415.01-.629.015-.094-.006-.214-.013-.281-.019-.683,0-1.34,0-2.09,0-.174-.034-.254-.069-.455-.107a9.462,9.462,0,0,0-1.219.086,2.631,2.631,0,0,1-.91-.141l-.911,0a6.255,6.255,0,0,0-.991-.173,1.656,1.656,0,0,0-.549.169c-.482-.068-.911-.139-1.34-.217-.134.043-.294.087-.455.132-.187-.07-.455-.147-.629-.222-.215.058-.4.12-.643.183-.2-.117-.228-.226-.536-.358a.568.568,0,0,0-.174.105l-1.272-.1c-.1.052-.21.1-.335.155-.214-.116-.308-.227-.549-.351-.215.1-.322.216-.576.324a5.227,5.227,0,0,0-.549-.419,1.277,1.277,0,0,0-.335.281l-.429-.027a2.273,2.273,0,0,0-.415-.358c-.161.109-.388.215-.562.329a1.23,1.23,0,0,1-.335-.377l-.429-.04a1.966,1.966,0,0,1-.428.34,2.689,2.689,0,0,1-.429-.459,11.569,11.569,0,0,1-1.714.226,3.426,3.426,0,0,1-.75-.627,6.366,6.366,0,0,1-.576.539c-.228-.2-.348-.391-.6-.6-.2.163-.281.343-.468.515-.2-.071-.389-.141-.576-.213-.134.012-.255.025-.375.04l-2.371-.212a1.463,1.463,0,0,1-.161.506c-.482-.169-.937-.343-1.339-.521-.174.136-.361.275-.535.417-.188-.285-.255-.564-.442-.858-.744.35-1.124.761-1.139,1.209-.281-.242-.562-.49-.91-.75a7.1,7.1,0,0,0-1.031.549c0-.472-.365-.981-1.1-1.553a5.121,5.121,0,0,1-.535,1.5c-.282-.607-.161-1.184-.576-1.83-1.741.5-.362,1.375-1.045,2.048-.3-.184-.576-.375-.857-.568a5.712,5.712,0,0,0-1,.948,4.863,4.863,0,0,0-1.111-2.093c-.255.243-.482.492-.723.746-.348-1.046.187-1.969-.509-3.113a9.738,9.738,0,0,1-1.192,3.575c-.777-.248-1.339-.5-2-.764.081.289.174.578.255.865l-1.808-.189c-.255.184-.5.372-.764.562l-.977-.391a6.34,6.34,0,0,0-1.1.75c-.335-.455-.63-.917-1.045-1.4-.161.252-.469.763-.63,1.024a8.446,8.446,0,0,0-1.192-2.072c-.2.54-.348,1.09-.549,1.646-.214-.566-.361-1.133-.6-1.717a27.955,27.955,0,0,0-3.549,1.383c-.429-.14-.844-.293-1.259-.432l-.241.348c-.576-.5-1.139-1.005-1.782-1.537-.281.277-.535.556-.79.845-.147-.443-.254-.888-.375-1.335l-.535.587c-.563-.409-1.1-.828-1.688-1.262-.187.266-.589.76-.777,1.021-.174-.316-.5-.908-.656-1.215a12.382,12.382,0,0,0-1.085,1.565c-.348-.5-.7-1.015-1.085-1.526-.187.42-.549,1.275-.736,1.708-.147-.767-.241-1.531-.362-2.3-.576,1.11-1.339,2.241-1.875,3.432a20.282,20.282,0,0,0-1.071-2.634c-.268.752-.456,1.517-.67,2.3a27.293,27.293,0,0,0-1.085-3.169c-.267.959-.455,1.943-.7,2.943a21.713,21.713,0,0,0-.857-4.229q-.469,1.341-.871,2.741a15.394,15.394,0,0,0-1.151-4.368c-.215,1.462-.308,2.955-.483,4.444q-.775-2.45-1.339-4.986c-.174,1.988-.214,4.009-.509,6.011-1-2.509-.79-4.926-1.232-7.473a41.464,41.464,0,0,0-.2,6.061l-1.138-.116a38.272,38.272,0,0,0-.375-6.507c-.348,2.595.161,5.362-1.152,7.91-.308-2.887-.094-5.71-.6-8.7-.321,2.709-.093,5.544-.522,8.3-1.165-3.773-.616-7.345-1.165-11.169-.362,3.606-.375,7.331-1.259,10.974-.241-3,0-5.929-.536-9.04a56.255,56.255,0,0,0-.214,6.906l-1.179-.148a68.42,68.42,0,0,0-.334-10.411c-.322,3.216,0,6.616-.67,9.83a23.847,23.847,0,0,1-1.045-6.16,31.3,31.3,0,0,1-.924,6.279c-.817-4.156-.442-8.093-.442-12.111l-.656-.25a85.247,85.247,0,0,1-.254,10.141c-1.474-4.35-.55-8.167-1.179-12.459-.348,3.272-.188,6.749-1.259,9.9-.469-5.062.188-9.745-.536-14.973-.348,4.818-.442,9.785-1.205,14.577-.241-3.673-.094-7.238-.5-11.016a67.316,67.316,0,0,0-1.219,8.807c-.214-3.354-.214-6.6-.415-9.965q-.75,3.347-1.34,6.856c-.254-4.064-.214-8.022-.16-11.967l-.63-.343c0,3.769.482,7.774-.978,10.985-.388-5.022.067-9.676-.428-14.827-.9,3.261-.938,7.074-1.272,10.8-.295-4.581-.094-8.928-.509-13.643-.965,6.023-.924,12.716-.831,19.4l-.643-.192c-.267-6.382.9-12.113-.9-19.4-.6,6.463.215,13.641-.589,20.159-.228-4-.067-7.886-1.031-12.271-.657,5.356-.081,11.233-.67,16.748-.71-8.226.2-15.881-.549-24.3-1.808,6.1-.228,14.009-1.2,20.822-.255-4.626,0-9.105-.978-14.111-1,7.031.094,14.855-.79,22.143-.857-10.929.656-21.059-.8-32.567-1.482,11.324-.155,24.092-.549,36.141l-.643-.036c-.107-8.145.6-16.061-.9-24.771a124.789,124.789,0,0,1-1.179,14.152c-.227-2.56-.348-5.105-.589-7.694C288.563,91.1,290.5,97.63,287.7,103.2v11.043c.2-.89.616-2.664.817-3.546.12,3.125.093,6.262.12,9.39l.523-.11c0-3.745.08-7.5.348-11.245,1.085,7.824.375,15.915,1.46,23.411,1-5.463.361-10.394.884-15.589.441,5.345-.282,11.038,1.057,15.928.818-7.123-.08-13.725.7-20.666.7,7.5-.388,15.486.75,22.67,1.661-7.91-.121-14.75,1.018-22.233.669,11.236-.3,23,.482,33.959,2.25-11.906-.107-21.707,1.232-32.726,1.1,9.475-1.112,20.131,1.232,28.616.576-9.21-.361-17.8.522-26.924.434,12.085.291,24.22,1.166,35.69.75-12.63-.416-24.292.589-36.721.439,11.4.388,22.936,1.112,33.874.8-10.841-.349-20.679.616-31.306,1.151,10.2.442,21,1.125,31.021.75-10.086-.228-19.233.508-29.084,2.157,6.815,0,15.215,1.34,21.969.656-8.685-.281-16.68.482-25.213,1.768,10.036.228,21.229,1.2,31.123.831-10.291-.388-19.513.643-29.6,1.955,4.971,0,11.173,1.1,16.192.63-5.643-.174-10.734.616-16.282,2.089,5.513-.037,12.456,1.125,18.027.8-5.974-.5-11.046.844-16.971a20.646,20.646,0,0,1,1.018,2.988c.187-1.366.362-2.719.589-4.074.991,3.139.737,6.579.7,9.95l.576-.229a116.181,116.181,0,0,1,.991-15.675c.214,2.6.2,5.216.549,7.749a26.577,26.577,0,0,1,.924-7.1c.669,3.581.12,7.371.763,10.855.362-3.542,0-6.9.509-10.4a18.614,18.614,0,0,0,1.272,5.617c.175-2.377.188-4.727.456-7.074a39.067,39.067,0,0,1,1.085,6.213,34.315,34.315,0,0,1,1.339-4.315q.294,1.388.576,2.752a24.679,24.679,0,0,1,1.165-4.595c.214,1.435.348,2.872.589,4.281.228-1.324.335-2.621.563-3.917.214.924.375,1.85.589,2.761.375-1.24.737-2.459,1.031-3.653.415.77.8,1.531,1.246,2.267.2-.881.375-1.718.576-2.563l.522,1.1c.388-.7.75-1.381,1.165-2.058.268,1.443.415,2.876.7,4.283a14.917,14.917,0,0,0,1.151-4.357c.174.978.322,1.946.5,2.907.308-1.024.616-2.033,1.018-3.022a13.719,13.719,0,0,1,.669,4.361,35.427,35.427,0,0,1,1.232-4.008q.282,1.269.549,2.522a19.553,19.553,0,0,1,1.192-2.13c.228,1.037.375,2.075.576,3.093a18.345,18.345,0,0,1,1.058-2.863c.295.838.549,1.67.844,2.495a6.011,6.011,0,0,0,1.031-2.717,11.558,11.558,0,0,0,1.125,1.683c.241-.852.389-1.685.576-2.514a12.238,12.238,0,0,0,1.206,1.719c.281-.842.361-1.661.562-2.477a6.164,6.164,0,0,0,1.152,2.511,22.345,22.345,0,0,0,.589-2.829,21.358,21.358,0,0,0,1.246,3.365c.2-.879.294-1.741.522-2.59a10.108,10.108,0,0,1,1.2,2.827,6.435,6.435,0,0,1,.938-3.06c.308.58.549,1.144.8,1.719a4.493,4.493,0,0,1,1.165-2.47c.148.606.322,1.2.442,1.8a16.782,16.782,0,0,1,.991-1.626,12.885,12.885,0,0,1,.858,1c.4-.222.79-.438,1.2-.649.147.262.281.525.428.784.2-.127.617-.374.8-.493.777.3,1.513.595,2.277.866a6.574,6.574,0,0,0,1.111-1.455c.175.241.322.487.483.72a10.73,10.73,0,0,1,1.071-1.073c.254.3.522.6.763.887.469-.377.858-.742,1.219-1.094.774,1.527,2.222,2.869,2.29,4.294-.073-1.048.855-2.19,2.773-3.278.241.122.442.24.683.358q.281-.325.6-.641a3.159,3.159,0,0,0,1.125,1.333c.228-.509.255-1,.482-1.49,1.983.595,2.17,1.231,2.424,1.846.047-.382.572-.8,1.567-1.223a6.981,6.981,0,0,1,.63.541,5.522,5.522,0,0,1,1.152-.727,5.869,5.869,0,0,1,.656.891,4.493,4.493,0,0,0,1.272-1.089c.188.329.188.667.5.972a4.888,4.888,0,0,1,.884-.637c.4.1.589.211.9.309.442-.144.83-.277,1.259-.407.107.276.067.564.482.8.4-.389,0-.7.522-1.076a15.679,15.679,0,0,1,1.782.245c.174-.038.535-.111.709-.147.121.034.362.1.469.136a3.651,3.651,0,0,1,.871-.431c.308.053.576.106.857.156.16-.057.482-.168.656-.222.174.088.281.176.455.259a11.608,11.608,0,0,1,1.835-.464c.6.064.938.13,1.54.178a15.424,15.424,0,0,0,1.889-.259l1.165.046c.335-.049.562-.093,1.058-.138.254.025.469.049.723.071.188-.04.322-.077.536-.114.2.023.388.044.6.064.483-.025.9-.047,1.34-.067.455.025.736.05,1.085.07a2.972,2.972,0,0,1,.83-.111c.187.007.576.019.763.024.805-.024,1.807-.046,3-.063.576,0,1.139,0,1.7,0l1.152-.013,1.245,0,.2,0,1.648-.008.813,0Z"/><path class="cls-3" d="M283.02,106.557l-.814.006-.227,0c-.4,0-.75,0-1.219,0l-.67,0c-.321,0-.642,0-.95,0h-.9c-.308-.01-.509-.022-1.044-.04l-.884.018c-.456-.021-.657-.04-.965-.064-.107.021-.254.044-.415.068l-.643-.077-.629.032c-.094-.013-.214-.027-.281-.04-.683,0-1.34,0-2.09-.006-.174-.072-.254-.145-.455-.226a4.69,4.69,0,0,0-1.219.181c-.6-.1-.9-.205-.91-.3l-.911-.009a3.466,3.466,0,0,0-.991-.365,1.2,1.2,0,0,0-.549.357c-.482-.143-.911-.293-1.34-.456-.133.091-.294.181-.455.278-.187-.148-.455-.309-.629-.468-.215.122-.4.252-.643.384-.2-.244-.228-.475-.536-.751a.736.736,0,0,0-.174.219l-1.272-.206a4.176,4.176,0,0,1-.335.324c-.214-.243-.308-.475-.549-.738-.215.216-.322.455-.576.682a8.518,8.518,0,0,0-.549-.879,2.259,2.259,0,0,0-.335.589l-.429-.056a4.151,4.151,0,0,0-.415-.753c-.16.228-.388.451-.562.691a2.907,2.907,0,0,1-.335-.792l-.429-.083a3.344,3.344,0,0,1-.428.713,5.993,5.993,0,0,1-.429-.964,6.058,6.058,0,0,1-1.714.475,6.086,6.086,0,0,1-.75-1.318,12.625,12.625,0,0,1-.576,1.134c-.228-.418-.348-.823-.6-1.266-.2.342-.281.72-.468,1.082-.2-.148-.389-.3-.576-.447-.134.025-.255.053-.375.083l-2.371-.445a5.736,5.736,0,0,1-.16,1.063,15.311,15.311,0,0,1-1.34-1.094c-.174.286-.361.578-.535.876-.188-.6-.255-1.186-.442-1.8a3.581,3.581,0,0,0-1.138,2.541c-.282-.509-.563-1.03-.911-1.576a7.921,7.921,0,0,0-1.031,1.152,6.341,6.341,0,0,0-1.1-3.263,19.574,19.574,0,0,1-.535,3.143c-.282-1.275-.161-2.487-.576-3.843-1.741,1.041-.362,2.888-1.045,4.3-.294-.389-.576-.79-.857-1.2a11.451,11.451,0,0,0-1,1.993,16.192,16.192,0,0,0-1.112-4.4c-.254.509-.482,1.032-.723,1.567-.348-2.2.187-4.138-.509-6.543a37.893,37.893,0,0,1-1.192,7.514,20.569,20.569,0,0,1-2-1.6c.081.606.174,1.214.255,1.816l-1.808-.4c-.255.387-.5.783-.764,1.181l-.977-.822a9.133,9.133,0,0,0-1.1,1.577c-.335-.956-.63-1.927-1.045-2.94-.161.529-.469,1.6-.629,2.152a27.222,27.222,0,0,0-1.192-4.353c-.2,1.133-.349,2.29-.55,3.458-.214-1.19-.361-2.38-.6-3.608a23.264,23.264,0,0,0-3.549,2.906c-.429-.3-.844-.616-1.259-.908l-.241.731c-.576-1.039-1.139-2.111-1.782-3.23-.281.582-.535,1.169-.79,1.776-.147-.931-.254-1.866-.375-2.806l-.535,1.235c-.563-.861-1.1-1.74-1.688-2.653-.187.559-.589,1.6-.777,2.146-.174-.663-.5-1.907-.656-2.553-.442,1.048-.736,2.164-1.085,3.289-.348-1.05-.7-2.133-1.084-3.207-.188.883-.55,2.679-.737,3.589-.147-1.613-.241-3.217-.362-4.838-.576,2.332-1.339,4.708-1.875,7.21-.321-1.808-.589-3.635-1.071-5.534-.268,1.579-.455,3.187-.67,4.823-.335-2.182-.589-4.375-1.085-6.658-.267,2.015-.455,4.082-.7,6.185-.2-2.9-.348-5.824-.857-8.888q-.47,2.818-.871,5.76a62.718,62.718,0,0,0-1.151-9.178c-.215,3.072-.308,6.21-.483,9.337q-.775-5.147-1.339-10.475c-.174,4.177-.214,8.422-.509,12.63-1-5.272-.79-10.351-1.232-15.7-.281,4.14-.214,8.454-.2,12.734l-1.138-.243c0-4.515,0-9.02-.375-13.674-.348,5.454.161,11.268-1.152,16.621-.308-6.065-.094-12-.6-18.27-.321,5.692-.093,11.65-.522,17.431-1.165-7.929-.616-15.433-1.165-23.469-.362,7.577-.375,15.4-1.259,23.06-.241-6.3,0-12.459-.536-19-.268,4.726-.227,9.631-.214,14.511l-1.179-.311c0-7.211.2-14.308-.334-21.877-.322,6.759,0,13.9-.67,20.656a101.752,101.752,0,0,1-1.045-12.943c-.174,4.411-.321,8.864-.924,13.194-.817-8.735-.442-17.007-.442-25.449l-.656-.525c0,7.126.147,14.339-.254,21.308-1.474-9.14-.549-17.16-1.179-26.178-.348,6.874-.187,14.179-1.259,20.805-.469-10.635.188-20.477-.536-31.462-.348,10.124-.442,20.562-1.2,30.631-.241-7.719-.094-15.21-.5-23.148-.7,5.818-.884,12.179-1.219,18.506-.214-7.047-.214-13.877-.415-20.94q-.75,7.035-1.34,14.408c-.254-8.541-.214-16.858-.16-25.147l-.63-.72c0,7.919.482,16.334-.977,23.081-.389-10.552.067-20.331-.429-31.154-.9,6.851-.937,14.863-1.272,22.7-.295-9.626-.094-18.76-.509-28.667-.965,12.655-.924,26.718-.831,40.764l-.642-.4c-.268-13.411.9-25.452-.9-40.774-.6,13.579.215,28.662-.589,42.358-.228-8.407-.067-16.57-1.031-25.784-.657,11.254-.081,23.6-.67,35.191-.71-17.284.2-33.369-.549-51.061-1.808,12.822-.228,29.435-1.205,43.751-.255-9.72,0-19.133-.978-29.651-1,14.775.094,31.213-.79,46.528-.857-22.965.656-44.249-.8-68.431-1.482,23.8-.155,50.623-.549,75.941l-.643-.076c-.107-17.114.6-33.748-.9-52.049-.268,9.877-.375,19.984-1.179,29.737-.227-5.379-.348-10.728-.589-16.168-.787,12.084,1.149,25.813-1.647,37.507v23.2c.2-1.87.616-5.6.817-7.45.12,6.567.094,13.157.12,19.73l.523-.23c0-7.87.08-15.754.348-23.629,1.085,16.441.375,33.442,1.46,49.191,1-11.479.361-21.838.884-32.755.442,11.23-.282,23.193,1.058,33.468.817-14.966-.081-28.839.7-43.424.7,15.748-.388,32.54.75,47.635,1.661-16.621-.12-30.993,1.018-46.717.67,23.609-.3,48.328.482,71.357,2.25-25.019-.107-45.612,1.232-68.765,1.1,19.908-1.111,42.3,1.232,60.129.576-19.352-.361-37.406.523-56.575.434,25.393.29,50.893,1.165,75,.75-26.54-.415-51.045.589-77.16.439,23.962.388,48.194,1.112,71.176.8-22.78-.349-43.452.616-65.782,1.151,21.428.442,44.123,1.125,65.183.75-21.193-.228-40.411.509-61.112,2.156,14.32,0,31.971,1.339,46.162.656-18.248-.281-35.048.482-52.979,1.768,21.088.228,44.608,1.2,65.4.831-21.625-.388-41,.643-62.2,1.956,10.445,0,23.478,1.1,34.023.63-11.857-.174-22.554.616-34.212,2.089,11.584-.037,26.172,1.125,37.879.8-12.552-.5-23.21.844-35.66.482,2.035.7,4.185,1.018,6.278.188-2.87.362-5.714.589-8.56.991,6.6.737,13.823.7,20.907l.576-.481c-.121-10.9.4-22,.991-32.938.214,5.46.2,10.961.549,16.283a114.907,114.907,0,0,1,.924-14.913c.67,7.526.12,15.49.763,22.81.362-7.443,0-14.508.509-21.862a77.082,77.082,0,0,0,1.273,11.8c.174-4.995.187-9.933.455-14.864.522,4.37.911,8.707,1.085,13.055.388-3.058.75-6.057,1.339-9.068q.294,2.914.576,5.783c.321-3.256.536-6.441,1.165-9.656.214,3.015.348,6.035.589,9,.228-2.782.335-5.507.563-8.231.214,1.941.375,3.888.589,5.8.375-2.607.737-5.167,1.031-7.676.415,1.618.8,3.218,1.246,4.764.2-1.852.375-3.611.576-5.386l.522,2.308c.388-1.471.75-2.9,1.165-4.324.268,3.03.415,6.042.7,9a60.716,60.716,0,0,0,1.151-9.154c.174,2.054.322,4.088.5,6.108.308-2.152.616-4.271,1.018-6.351a58.689,58.689,0,0,1,.669,9.163c.362-2.855.71-5.656,1.232-8.42q.282,2.667.55,5.3c.388-1.56.709-3,1.192-4.477.227,2.18.375,4.36.575,6.5.3-2.03.59-4.029,1.058-6.016.3,1.761.55,3.51.844,5.243a22.543,22.543,0,0,0,1.031-5.709,33.861,33.861,0,0,0,1.125,3.536c.241-1.789.389-3.541.576-5.282a34.778,34.778,0,0,0,1.206,3.613c.281-1.77.361-3.492.562-5.206a21.749,21.749,0,0,0,1.152,5.277c.335-2.023.388-3.988.589-5.946.335,2.428.723,4.8,1.246,7.071.2-1.846.294-3.657.522-5.441a36.775,36.775,0,0,1,1.205,5.94,25.36,25.36,0,0,1,.938-6.43c.308,1.219.549,2.405.8,3.612a15.6,15.6,0,0,1,1.166-5.191c.147,1.273.321,2.532.441,3.778q.443-1.741.992-3.415c.348.71.575,1.416.857,2.107.4-.467.79-.921,1.2-1.365.147.552.281,1.1.429,1.648.2-.266.616-.785.8-1.036.777.64,1.514,1.25,2.277,1.82a17.607,17.607,0,0,0,1.111-3.057c.175.507.322,1.024.483,1.513a23.153,23.153,0,0,1,1.071-2.256c.255.634.522,1.254.763,1.866.469-.794.858-1.56,1.219-2.3.774,3.207,2.223,6.027,2.29,9.022a10.4,10.4,0,0,1,2.773-6.889c.241.257.442.5.683.753.187-.455.388-.906.6-1.347a7.779,7.779,0,0,0,1.125,2.8c.228-1.07.255-2.1.482-3.133a4.889,4.889,0,0,1,2.425,3.88,4.018,4.018,0,0,1,1.567-2.57c.241.384.441.762.629,1.138a7.3,7.3,0,0,1,1.152-1.528,15.922,15.922,0,0,1,.656,1.872,8.274,8.274,0,0,0,1.272-2.289,11.508,11.508,0,0,0,.5,2.044,7.4,7.4,0,0,1,.884-1.339,7.746,7.746,0,0,1,.9.649c.442-.3.83-.583,1.259-.856a3.2,3.2,0,0,0,.482,1.673c.4-.818,0-1.47.522-2.261a8.407,8.407,0,0,1,1.782.514c.174-.079.535-.232.709-.307.121.071.362.214.469.284a3.869,3.869,0,0,1,.871-.906c.308.114.576.225.857.33.161-.121.482-.354.656-.467.174.184.281.37.455.544a7.363,7.363,0,0,1,1.835-.974c.6.133.938.272,1.54.372a8.205,8.205,0,0,0,1.889-.542l1.165.095a8.055,8.055,0,0,1,1.058-.29c.254.053.469.1.723.149.188-.083.322-.161.536-.239.2.048.388.093.6.134.482-.053.9-.1,1.339-.14.455.052.736.1,1.085.146a1.623,1.623,0,0,1,.83-.232c.187.015.576.039.763.05.805-.051,1.807-.1,3-.131.576,0,1.139,0,1.7-.008.375-.01.737-.019,1.152-.027l1.245-.011.2,0,1.648-.017.813-.007Z"/></svg>