<svg id="Layer_1" data-name="Layer 1" xmlns="http://www.w3.org/2000/svg" width="739.73" height="183.74" viewBox="0 0 739.73 183.74"><defs><style>.cls-1,.cls-3{fill:none;}.cls-1,.cls-2{stroke:#000;stroke-miterlimit:10;}.cls-2{fill:#e5e5e5;}.cls-4{fill:#231f20;}</style></defs><rect class="cls-1" x="13.46" y="29.3" width="28.51" height="114.05"/><rect class="cls-1" x="41.98" y="29.3" width="28.51" height="114.05"/><rect class="cls-1" x="70.49" y="29.3" width="28.51" height="114.05"/><rect class="cls-1" x="99" y="29.3" width="28.51" height="114.05"/><rect class="cls-1" x="127.51" y="29.3" width="28.51" height="114.05"/><rect class="cls-1" x="156.02" y="29.3" width="28.51" height="114.05"/><rect class="cls-2" x="184.54" y="29.3" width="28.51" height="114.05"/><rect class="cls-2" x="213.05" y="29.3" width="28.51" height="114.05"/><rect class="cls-2" x="241.56" y="29.3" width="28.51" height="114.05"/><rect class="cls-2" x="270.07" y="29.3" width="28.51" height="114.05"/><path d="M27.58,86.35v-.41a3.639,3.639,0,0,1,1-2.74A3.466,3.466,0,0,0,29.63,81c0-.8-.5-1.34-1.5-1.36a2.826,2.826,0,0,0-1.6.49l-.38-1a4.169,4.169,0,0,1,2.27-.64,2.34,2.34,0,0,1,2.621,2.021,2.453,2.453,0,0,1,.019.309,4.26,4.26,0,0,1-1.36,2.75,3.111,3.111,0,0,0-.9,2.33v.41Zm-.35,2.22a.93.93,0,0,1,.857-1c.031,0,.062,0,.093,0a1,1,0,1,1-.949,1.049Z"/><path d="M56.09,86.35v-.41a3.63,3.63,0,0,1,1-2.74A3.483,3.483,0,0,0,58.15,81c0-.8-.51-1.34-1.51-1.36a2.826,2.826,0,0,0-1.6.49l-.38-1a4.2,4.2,0,0,1,2.27-.64,2.34,2.34,0,0,1,2.621,2.021,2.453,2.453,0,0,1,.019.309,4.26,4.26,0,0,1-1.36,2.75,3.111,3.111,0,0,0-.9,2.33v.41Zm-.35,2.22a.94.94,0,0,1,.878-1c.024,0,.048,0,.072,0a1,1,0,1,1-.949,1.049Z"/><path d="M84.6,86.35v-.41a3.63,3.63,0,0,1,1-2.74A3.483,3.483,0,0,0,86.66,81c0-.8-.51-1.34-1.51-1.36a2.777,2.777,0,0,0-1.59.49l-.38-1a4.128,4.128,0,0,1,2.26-.64,2.34,2.34,0,0,1,2.621,2.021,2.453,2.453,0,0,1,.019.309,4.26,4.26,0,0,1-1.36,2.75,3.111,3.111,0,0,0-.9,2.33v.41Zm-.35,2.22a.94.94,0,0,1,.876-1,.855.855,0,0,1,.124,0,1,1,0,1,1-1,1Z"/><path d="M112.13,86.35v-.41a3.63,3.63,0,0,1,1-2.74,3.483,3.483,0,0,0,1.06-2.2c0-.8-.51-1.34-1.51-1.36a2.826,2.826,0,0,0-1.6.49l-.37-1a4.128,4.128,0,0,1,2.26-.64,2.34,2.34,0,0,1,2.621,2.021,2.453,2.453,0,0,1,.019.309,4.26,4.26,0,0,1-1.36,2.75,3.111,3.111,0,0,0-.9,2.33v.41Zm-.35,2.22a.94.94,0,0,1,.876-1,.855.855,0,0,1,.124,0,1,1,0,1,1-1,1Z"/><path d="M169.15,86.35v-.41a3.667,3.667,0,0,1,1-2.74,3.427,3.427,0,0,0,1.06-2.2c0-.8-.5-1.34-1.5-1.36a2.809,2.809,0,0,0-1.6.49l-.38-1a4.128,4.128,0,0,1,2.26-.64,2.351,2.351,0,0,1,2.631,2.031,2.3,2.3,0,0,1,.019.3,4.314,4.314,0,0,1-1.36,2.75,3.168,3.168,0,0,0-.91,2.33v.41Zm-.34,2.22a.93.93,0,0,1,.857-1c.031,0,.062,0,.093,0a1,1,0,1,1-.949,1.049Z"/><path d="M140.64,86.35v-.41a3.667,3.667,0,0,1,1-2.74A3.483,3.483,0,0,0,142.7,81c0-.8-.51-1.34-1.5-1.36a2.809,2.809,0,0,0-1.6.49l-.38-1a4.125,4.125,0,0,1,2.26-.64,2.34,2.34,0,0,1,2.621,2.021,2.453,2.453,0,0,1,.019.309,4.26,4.26,0,0,1-1.36,2.75,3.149,3.149,0,0,0-.9,2.33v.41Zm-.35,2.22a.94.94,0,0,1,.876-1,.855.855,0,0,1,.124,0,1,1,0,1,1-1,1Z"/><path d="M197.67,86.35v-.41a3.639,3.639,0,0,1,1-2.74,3.46,3.46,0,0,0,1.1-2.17c0-.8-.5-1.34-1.5-1.36a2.826,2.826,0,0,0-1.6.49l-.38-1a4.169,4.169,0,0,1,2.27-.64,2.34,2.34,0,0,1,2.621,2.021,2.453,2.453,0,0,1,.019.309,4.26,4.26,0,0,1-1.36,2.75,3.168,3.168,0,0,0-.91,2.33v.41Zm-.35,2.22a.93.93,0,0,1,.854-1,.89.89,0,0,1,.146,0,1,1,0,1,1-1,1Z"/><path d="M226.18,86.35v-.41a3.63,3.63,0,0,1,1-2.74,3.483,3.483,0,0,0,1.06-2.2c0-.8-.51-1.34-1.51-1.36a2.826,2.826,0,0,0-1.6.49l-.38-1a4.2,4.2,0,0,1,2.27-.64,2.34,2.34,0,0,1,2.621,2.021,2.453,2.453,0,0,1,.019.309,4.26,4.26,0,0,1-1.36,2.75,3.111,3.111,0,0,0-.9,2.33v.41Zm-.35,2.22a.94.94,0,0,1,.878-1c.024,0,.048,0,.072,0a1,1,0,1,1-.949,1.049Z"/><path d="M254.69,86.35v-.41a3.63,3.63,0,0,1,1-2.74,3.483,3.483,0,0,0,1.06-2.2c0-.8-.51-1.34-1.51-1.36a2.826,2.826,0,0,0-1.6.49l-.37-1a4.128,4.128,0,0,1,2.26-.64,2.34,2.34,0,0,1,2.621,2.021,2.453,2.453,0,0,1,.019.309,4.26,4.26,0,0,1-1.36,2.75,3.111,3.111,0,0,0-.9,2.33v.41Zm-.35,2.22a.94.94,0,0,1,.878-1c.024,0,.048,0,.072,0a1,1,0,1,1-.949,1.049Z"/><path d="M283.2,86.35v-.41a3.671,3.671,0,0,1,1-2.74,3.483,3.483,0,0,0,1.06-2.2c0-.8-.51-1.34-1.5-1.36a2.809,2.809,0,0,0-1.6.49l-.38-1a4.128,4.128,0,0,1,2.26-.64,2.34,2.34,0,0,1,2.621,2.021,2.453,2.453,0,0,1,.019.309,4.26,4.26,0,0,1-1.36,2.75,3.149,3.149,0,0,0-.9,2.33v.41Zm-.35,2.22a.94.94,0,0,1,.878-1c.024,0,.048,0,.072,0a1,1,0,1,1-.949,1.049Z"/><rect class="cls-2" x="298.58" y="29.3" width="28.51" height="114.05"/><rect class="cls-2" x="325.51" y="29.3" width="28.51" height="114.05"/><path d="M311.71,86.35v-.41a3.667,3.667,0,0,1,1-2.74,3.427,3.427,0,0,0,1.06-2.2c0-.8-.5-1.34-1.5-1.36a2.809,2.809,0,0,0-1.6.49l-.38-1a4.125,4.125,0,0,1,2.26-.64,2.351,2.351,0,0,1,2.631,2.031,2.3,2.3,0,0,1,.019.3,4.314,4.314,0,0,1-1.36,2.75,3.168,3.168,0,0,0-.91,2.33v.41Zm-.34,2.22a.93.93,0,0,1,.857-1c.031,0,.062,0,.093,0a1,1,0,1,1-.949,1.049Z"/><path d="M338.64,86.35v-.41a3.671,3.671,0,0,1,1-2.74A3.483,3.483,0,0,0,340.7,81c0-.8-.51-1.34-1.5-1.36a2.809,2.809,0,0,0-1.6.49l-.38-1a4.128,4.128,0,0,1,2.26-.64,2.34,2.34,0,0,1,2.621,2.021,2.453,2.453,0,0,1,.019.309,4.26,4.26,0,0,1-1.36,2.75,3.149,3.149,0,0,0-.9,2.33v.41Zm-.35,2.22a.94.94,0,0,1,.878-1c.024,0,.048,0,.072,0a1,1,0,1,1-.949,1.049Z"/><rect class="cls-3" width="739.73" height="183.74"/><rect class="cls-3" x="346.9" y="70.63" width="42.77" height="27.57"/><polygon class="cls-4" points="346.9 89.88 374.68 89.88 374.68 98.21 389.66 84.42 374.68 70.64 374.68 78.96 346.9 78.96 346.9 89.88"/><line class="cls-1" x1="12.85" y1="170.97" x2="183.92" y2="170.97"/><line class="cls-1" x1="12.85" y1="156.72" x2="12.85" y2="170.97"/><line class="cls-1" x1="183.92" y1="156.72" x2="183.92" y2="170.97"/><line class="cls-1" x1="183.92" y1="170.97" x2="354.99" y2="170.97"/><line class="cls-1" x1="183.92" y1="156.72" x2="183.92" y2="170.97"/><line class="cls-1" x1="354.99" y1="156.72" x2="354.99" y2="170.97"/><rect class="cls-1" x="381.48" y="28.2" width="28.51" height="114.05"/><rect class="cls-1" x="409.99" y="28.2" width="28.51" height="114.05"/><rect class="cls-1" x="438.5" y="28.2" width="28.51" height="114.05"/><rect class="cls-1" x="467.02" y="28.2" width="28.51" height="114.05"/><rect class="cls-1" x="495.53" y="28.2" width="28.51" height="114.05"/><rect class="cls-1" x="524.04" y="28.2" width="28.51" height="114.05"/><rect class="cls-2" x="552.55" y="28.2" width="28.51" height="114.05"/><rect class="cls-2" x="581.06" y="28.2" width="28.51" height="114.05"/><rect class="cls-2" x="609.58" y="28.2" width="28.51" height="114.05"/><rect class="cls-2" x="638.09" y="28.2" width="28.51" height="114.05"/><rect class="cls-2" x="666.6" y="28.2" width="28.51" height="114.05"/><rect class="cls-2" x="693.53" y="28.2" width="28.51" height="114.05"/><line class="cls-1" x1="379.28" y1="170.97" x2="550.35" y2="170.97"/><line class="cls-1" x1="379.28" y1="156.72" x2="379.28" y2="170.97"/><line class="cls-1" x1="550.35" y1="156.72" x2="550.35" y2="170.97"/><line class="cls-1" x1="550.35" y1="170.97" x2="721.42" y2="170.97"/><line class="cls-1" x1="550.35" y1="156.72" x2="550.35" y2="170.97"/><line class="cls-1" x1="721.42" y1="156.72" x2="721.42" y2="170.97"/><path d="M395.62,79.62H397v9.51h4.56v1.16h-5.94Z"/><path d="M422.55,79.76a14.506,14.506,0,0,1,2.64-.22,4.39,4.39,0,0,1,3.09.87,2.641,2.641,0,0,1,.84,2,2.8,2.8,0,0,1-2,2.72h0a2.64,2.64,0,0,1,1.56,2.15,16.93,16.93,0,0,0,.83,2.93h-1.43a14.188,14.188,0,0,1-.71-2.55c-.32-1.47-.89-2-2.14-2.07h-1.3v4.62h-1.37Zm1.37,4.86h1.41c1.48,0,2.41-.81,2.41-2,0-1.37-1-2-2.45-2a5.394,5.394,0,0,0-1.37.13Z"/><path d="M451.06,79.62h1.38v9.51H457v1.16h-5.94Z"/><path d="M478,79.76a14.506,14.506,0,0,1,2.64-.22,4.39,4.39,0,0,1,3.09.87,2.641,2.641,0,0,1,.84,2,2.8,2.8,0,0,1-2,2.72h0a2.64,2.64,0,0,1,1.56,2.15,16.93,16.93,0,0,0,.83,2.93h-1.43a14.188,14.188,0,0,1-.71-2.55c-.32-1.47-.89-2-2.14-2.07h-1.3v4.62H478Zm1.37,4.86h1.41c1.48,0,2.41-.81,2.41-2,0-1.37-1-2-2.45-2a5.394,5.394,0,0,0-1.37.13Z"/><path d="M506.5,79.62h1.38v9.51h4.56v1.16H506.5Z"/><path d="M533.43,79.76a14.506,14.506,0,0,1,2.64-.22,4.39,4.39,0,0,1,3.09.87,2.638,2.638,0,0,1,.84,2,2.8,2.8,0,0,1-2,2.72h0a2.64,2.64,0,0,1,1.56,2.15,17.019,17.019,0,0,0,.83,2.93H539a14.188,14.188,0,0,1-.71-2.55c-.32-1.47-.89-2-2.14-2.07h-1.3v4.62h-1.37Zm1.37,4.86h1.41c1.48,0,2.41-.81,2.41-2,0-1.37-1-2-2.45-2a5.394,5.394,0,0,0-1.37.13Z"/><path d="M565.11,79.62h1.37v9.51H571v1.16h-5.93Z"/><path d="M592,79.76a14.506,14.506,0,0,1,2.64-.22,4.39,4.39,0,0,1,3.09.87,2.682,2.682,0,0,1,.84,2,2.8,2.8,0,0,1-2,2.72h0a2.63,2.63,0,0,1,1.57,2.15,17.314,17.314,0,0,0,.82,2.93h-1.42a14.188,14.188,0,0,1-.71-2.55c-.32-1.47-.89-2-2.14-2.07h-1.3v4.62H592Zm1.37,4.86h1.41c1.47,0,2.41-.81,2.41-2,0-1.37-1-2-2.46-2a5.272,5.272,0,0,0-1.36.13Z"/><path d="M620.55,79.62h1.37v9.51h4.56v1.16h-5.93Z"/><path d="M647.48,79.76a14.506,14.506,0,0,1,2.64-.22,4.39,4.39,0,0,1,3.09.87,2.682,2.682,0,0,1,.84,2,2.8,2.8,0,0,1-2,2.72h0a2.63,2.63,0,0,1,1.57,2.15,17.314,17.314,0,0,0,.82,2.93H653a14.188,14.188,0,0,1-.71-2.55c-.32-1.47-.89-2-2.14-2.07h-1.3v4.62h-1.37Zm1.37,4.86h1.41c1.47,0,2.41-.81,2.41-2,0-1.37-1-2-2.46-2a5.272,5.272,0,0,0-1.36.13Z"/><path d="M676,79.62h1.37v9.51h4.56v1.16H676Z"/><path d="M702.92,79.76a14.506,14.506,0,0,1,2.64-.22,4.39,4.39,0,0,1,3.09.87,2.682,2.682,0,0,1,.84,2,2.8,2.8,0,0,1-2,2.72h0A2.631,2.631,0,0,1,709,87.36a17.314,17.314,0,0,0,.82,2.93H708.4a14.188,14.188,0,0,1-.71-2.55c-.32-1.47-.89-2-2.14-2.07h-1.3v4.62h-1.37Zm1.37,4.86h1.41c1.47,0,2.41-.81,2.41-2,0-1.37-1-2-2.46-2a5.272,5.272,0,0,0-1.36.13Z"/><path d="M528.9,19.116l-.98,2.97h-1.261l3.207-9.441h1.471l3.221,9.441h-1.3l-1.008-2.97Zm3.1-.952-.925-2.718c-.21-.616-.351-1.176-.49-1.722h-.029c-.139.56-.293,1.134-.476,1.708l-.924,2.732Z"/><path d="M535.857,12.141h1.233v9.945h-1.233Z"/><path d="M539.161,12.141h1.232v9.945h-1.232Z"/><path d="M545.306,20.6a4.311,4.311,0,0,0,2.186.616c1.246,0,1.975-.658,1.975-1.61,0-.883-.5-1.387-1.78-1.877-1.54-.547-2.493-1.345-2.493-2.676,0-1.47,1.219-2.563,3.054-2.563a4.289,4.289,0,0,1,2.087.462l-.336,1a3.751,3.751,0,0,0-1.793-.448c-1.288,0-1.779.77-1.779,1.414,0,.883.575,1.317,1.877,1.821,1.6.617,2.41,1.387,2.41,2.773,0,1.457-1.079,2.718-3.306,2.718a4.885,4.885,0,0,1-2.41-.6Z"/><path d="M553.778,13.36v1.946h1.765v.939h-1.765V19.9c0,.84.237,1.316.924,1.316a2.756,2.756,0,0,0,.715-.084l.055.925a3.016,3.016,0,0,1-1.092.168,1.706,1.706,0,0,1-1.33-.518,2.508,2.508,0,0,1-.477-1.765v-3.7h-1.051v-.939h1.051V13.681Z"/><path d="M557.529,18.921a2.172,2.172,0,0,0,2.325,2.353,4.457,4.457,0,0,0,1.877-.35l.21.882a5.49,5.49,0,0,1-2.255.42,3.149,3.149,0,0,1-3.334-3.418c0-2.045,1.205-3.655,3.18-3.655,2.213,0,2.8,1.946,2.8,3.193a4.894,4.894,0,0,1-.042.575Zm3.614-.883a1.755,1.755,0,0,0-1.709-2,2.042,2.042,0,0,0-1.891,2Z"/><path d="M563.856,17.422c0-.8-.013-1.485-.055-2.116h1.078l.042,1.331h.056a2.033,2.033,0,0,1,1.877-1.484,1.335,1.335,0,0,1,.35.041v1.163a1.851,1.851,0,0,0-.42-.042,1.729,1.729,0,0,0-1.653,1.583,3.468,3.468,0,0,0-.056.574v3.614h-1.219Z"/><path d="M568.981,18.921a2.173,2.173,0,0,0,2.325,2.353,4.457,4.457,0,0,0,1.877-.35l.21.882a5.486,5.486,0,0,1-2.255.42,3.149,3.149,0,0,1-3.334-3.418c0-2.045,1.206-3.655,3.18-3.655,2.213,0,2.8,1.946,2.8,3.193a4.683,4.683,0,0,1-.042.575Zm3.614-.883a1.755,1.755,0,0,0-1.709-2,2.043,2.043,0,0,0-1.891,2Z"/><path d="M581.444,18.64a3.313,3.313,0,0,1-3.376,3.6,3.223,3.223,0,0,1-3.25-3.488,3.309,3.309,0,0,1,3.362-3.6A3.21,3.21,0,0,1,581.444,18.64Zm-5.379.07c0,1.485.855,2.606,2.059,2.606,1.177,0,2.059-1.107,2.059-2.634,0-1.148-.574-2.6-2.031-2.6S576.065,17.422,576.065,18.71Z"/><path d="M137.615,17.94c-.069-1.317-.153-2.9-.139-4.077h-.042c-.322,1.107-.715,2.284-1.191,3.586l-1.667,4.581h-.924l-1.527-4.5c-.448-1.331-.827-2.55-1.093-3.671H131c-.028,1.177-.1,2.76-.181,4.175l-.253,4.048h-1.163l.659-9.441h1.554l1.612,4.567c.391,1.162.714,2.2.952,3.179h.042c.238-.952.574-1.989,1-3.179l1.681-4.567h1.554l.588,9.441h-1.19Z"/><path d="M146.588,20.237c0,.7.015,1.317.057,1.849h-1.093l-.07-1.106h-.029a2.549,2.549,0,0,1-2.241,1.26c-1.064,0-2.339-.588-2.339-2.969V15.306h1.233V19.06c0,1.289.392,2.157,1.512,2.157a1.736,1.736,0,0,0,1.738-1.751v-4.16h1.232Z"/><path d="M148.629,12.141h1.233v9.945h-1.233Z"/><path d="M153.418,13.36v1.946h1.765v.939h-1.765V19.9c0,.84.238,1.316.924,1.316a2.75,2.75,0,0,0,.715-.084l.056.925a3.026,3.026,0,0,1-1.093.168,1.707,1.707,0,0,1-1.33-.518,2.508,2.508,0,0,1-.477-1.765v-3.7h-1.051v-.939h1.051V13.681Z"/><path d="M157.94,13.4a.764.764,0,0,1-1.528,0,.752.752,0,0,1,.771-.771A.732.732,0,0,1,157.94,13.4Zm-1.373,8.684v-6.78H157.8v6.78Z"/><path d="M164.676,21.834a4.543,4.543,0,0,1-1.947.392,3.221,3.221,0,0,1-3.376-3.46,3.444,3.444,0,0,1,3.641-3.6,4.1,4.1,0,0,1,1.709.351l-.28.952a2.858,2.858,0,0,0-1.429-.322A2.345,2.345,0,0,0,160.6,18.71a2.324,2.324,0,0,0,2.352,2.536,3.49,3.49,0,0,0,1.514-.337Z"/><path d="M166.115,12.141h1.232v4.23h.028a2.289,2.289,0,0,1,.883-.868,2.536,2.536,0,0,1,1.261-.35c.91,0,2.367.56,2.367,2.9v4.034h-1.233V18.192c0-1.093-.406-2.017-1.569-2.017a1.771,1.771,0,0,0-1.653,1.232,1.518,1.518,0,0,0-.084.589v4.09h-1.232Z"/><path d="M177.639,22.086l-.1-.854H177.5a2.526,2.526,0,0,1-2.073,1.008,1.931,1.931,0,0,1-2.073-1.947c0-1.639,1.457-2.535,4.076-2.521v-.14a1.4,1.4,0,0,0-1.541-1.569,3.382,3.382,0,0,0-1.765.5l-.28-.812a4.2,4.2,0,0,1,2.228-.6c2.073,0,2.577,1.414,2.577,2.773v2.535a9.553,9.553,0,0,0,.112,1.625Zm-.182-3.46c-1.344-.028-2.872.211-2.872,1.527a1.091,1.091,0,0,0,1.163,1.177,1.688,1.688,0,0,0,1.639-1.135,1.286,1.286,0,0,0,.07-.392Z"/><path d="M180.632,17.141c0-.7-.014-1.274-.056-1.835h1.093l.07,1.121h.028a2.492,2.492,0,0,1,2.241-1.274c.939,0,2.4.56,2.4,2.885v4.048H185.17V18.178c0-1.092-.405-2-1.568-2a1.752,1.752,0,0,0-1.654,1.261,1.8,1.8,0,0,0-.083.574v4.076h-1.233Z"/><path d="M188.4,17.141c0-.7-.014-1.274-.056-1.835h1.093l.069,1.121h.028a2.493,2.493,0,0,1,2.242-1.274c.938,0,2.4.56,2.4,2.885v4.048h-1.233V18.178c0-1.092-.407-2-1.569-2a1.752,1.752,0,0,0-1.653,1.261,1.771,1.771,0,0,0-.084.574v4.076H188.4Z"/><path d="M196.859,18.921a2.172,2.172,0,0,0,2.325,2.353,4.457,4.457,0,0,0,1.877-.35l.21.882a5.494,5.494,0,0,1-2.255.42,3.149,3.149,0,0,1-3.334-3.418c0-2.045,1.205-3.655,3.18-3.655,2.212,0,2.8,1.946,2.8,3.193a4.683,4.683,0,0,1-.042.575Zm3.614-.883a1.755,1.755,0,0,0-1.709-2,2.044,2.044,0,0,0-1.892,2Z"/><path d="M203.186,12.141h1.232v9.945h-1.232Z"/><path d="M210.831,13.4a.764.764,0,0,1-1.527,0,.751.751,0,0,1,.77-.771A.732.732,0,0,1,210.831,13.4Zm-1.373,8.684v-6.78h1.233v6.78Z"/><path d="M212.734,17.141c0-.7-.014-1.274-.056-1.835h1.093l.069,1.121h.028a2.494,2.494,0,0,1,2.242-1.274c.938,0,2.395.56,2.395,2.885v4.048h-1.233V18.178c0-1.092-.406-2-1.569-2a1.752,1.752,0,0,0-1.653,1.261,1.771,1.771,0,0,0-.084.574v4.076h-1.232Z"/><path d="M220.5,17.52c0-.869-.028-1.569-.056-2.214h1.107l.056,1.163h.028a2.666,2.666,0,0,1,2.409-1.316c1.639,0,2.872,1.386,2.872,3.445,0,2.437-1.485,3.642-3.082,3.642a2.376,2.376,0,0,1-2.087-1.065h-.028V24.86H220.5Zm1.219,1.807a2.784,2.784,0,0,0,.056.5,1.9,1.9,0,0,0,1.849,1.443c1.3,0,2.059-1.065,2.059-2.62,0-1.358-.714-2.521-2.017-2.521a1.966,1.966,0,0,0-1.863,1.527,2,2,0,0,0-.084.5Z"/><path d="M234.143,20.237c0,.7.014,1.317.056,1.849h-1.092l-.071-1.106h-.028a2.549,2.549,0,0,1-2.241,1.26c-1.065,0-2.339-.588-2.339-2.969V15.306h1.232V19.06c0,1.289.393,2.157,1.513,2.157A1.781,1.781,0,0,0,232.8,20.1a1.8,1.8,0,0,0,.112-.631v-4.16h1.233Z"/><path d="M237.669,13.36v1.946h1.765v.939h-1.765V19.9c0,.84.237,1.316.924,1.316a2.75,2.75,0,0,0,.715-.084l.056.925a3.026,3.026,0,0,1-1.093.168,1.707,1.707,0,0,1-1.33-.518,2.508,2.508,0,0,1-.477-1.765v-3.7h-1.051v-.939h1.051V13.681Z"/><path d="M438.811,164.219a4.311,4.311,0,0,0,2.186.617c1.246,0,1.974-.659,1.974-1.611,0-.883-.5-1.387-1.779-1.877-1.54-.547-2.493-1.345-2.493-2.675,0-1.471,1.219-2.564,3.054-2.564a4.292,4.292,0,0,1,2.087.462l-.336,1a3.763,3.763,0,0,0-1.793-.448c-1.288,0-1.779.77-1.779,1.414,0,.883.575,1.317,1.877,1.821,1.6.617,2.41,1.387,2.41,2.774,0,1.457-1.08,2.717-3.306,2.717a4.885,4.885,0,0,1-2.41-.6Z"/><path d="M449.635,165.7l-.1-.854H449.5a2.528,2.528,0,0,1-2.073,1.009,1.933,1.933,0,0,1-2.074-1.948c0-1.638,1.457-2.535,4.077-2.521v-.14a1.4,1.4,0,0,0-1.541-1.569,3.38,3.38,0,0,0-1.765.5l-.28-.812a4.2,4.2,0,0,1,2.227-.6c2.073,0,2.577,1.414,2.577,2.773v2.535a9.539,9.539,0,0,0,.113,1.625Zm-.182-3.46c-1.345-.028-2.872.211-2.872,1.527a1.091,1.091,0,0,0,1.163,1.177,1.689,1.689,0,0,0,1.639-1.135,1.286,1.286,0,0,0,.07-.392Z"/><path d="M452.629,160.759c0-.7-.014-1.274-.056-1.835h1.078l.057,1.093h.042a2.336,2.336,0,0,1,2.129-1.246,2,2,0,0,1,1.919,1.358h.028a2.791,2.791,0,0,1,.756-.882,2.313,2.313,0,0,1,1.5-.476c.9,0,2.227.588,2.227,2.941V165.7h-1.2v-3.838c0-1.3-.476-2.087-1.47-2.087a1.6,1.6,0,0,0-1.457,1.121,2.029,2.029,0,0,0-.1.616V165.7h-1.2v-4.062c0-1.078-.476-1.863-1.414-1.863a1.833,1.833,0,0,0-1.625,1.835v4.09h-1.2Z"/><path d="M464.305,161.138c0-.869-.028-1.569-.055-2.214h1.106l.056,1.163h.028a2.666,2.666,0,0,1,2.409-1.316c1.639,0,2.872,1.386,2.872,3.445,0,2.437-1.485,3.643-3.082,3.643a2.38,2.38,0,0,1-2.087-1.065h-.028v3.684h-1.219Zm1.219,1.807a2.774,2.774,0,0,0,.056.5,1.9,1.9,0,0,0,1.849,1.443c1.3,0,2.059-1.065,2.059-2.619,0-1.359-.714-2.522-2.017-2.522a1.967,1.967,0,0,0-1.863,1.527,2,2,0,0,0-.084.5Z"/><path d="M472.271,155.759H473.5V165.7h-1.233Z"/><path d="M476.261,162.539a2.173,2.173,0,0,0,2.326,2.353,4.46,4.46,0,0,0,1.877-.35l.21.882a5.494,5.494,0,0,1-2.255.42,3.149,3.149,0,0,1-3.334-3.418c0-2.044,1.205-3.655,3.179-3.655,2.213,0,2.8,1.946,2.8,3.193a4.683,4.683,0,0,1-.042.575Zm3.615-.883a1.756,1.756,0,0,0-1.709-2,2.044,2.044,0,0,0-1.892,2Z"/><path d="M491.216,161.054c0,3.1-1.149,4.805-3.166,4.805-1.779,0-2.984-1.667-3.012-4.679,0-3.054,1.317-4.735,3.166-4.735C490.123,156.445,491.216,158.154,491.216,161.054Zm-4.945.14c0,2.367.728,3.712,1.849,3.712,1.261,0,1.863-1.471,1.863-3.8,0-2.241-.574-3.712-1.849-3.712C487.055,157.4,486.271,158.715,486.271,161.194Z"/><path d="M609.881,164.028a4.311,4.311,0,0,0,2.186.617c1.246,0,1.974-.659,1.974-1.611,0-.882-.5-1.387-1.779-1.877-1.54-.546-2.493-1.345-2.493-2.675,0-1.471,1.219-2.564,3.054-2.564a4.271,4.271,0,0,1,2.086.463l-.336.994a3.755,3.755,0,0,0-1.792-.448c-1.289,0-1.779.77-1.779,1.414,0,.883.574,1.317,1.877,1.821,1.6.617,2.409,1.387,2.409,2.774,0,1.457-1.079,2.717-3.305,2.717a4.882,4.882,0,0,1-2.41-.6Z"/><path d="M620.7,165.513l-.1-.854h-.042a2.528,2.528,0,0,1-2.074,1.009,1.932,1.932,0,0,1-2.073-1.948c0-1.638,1.457-2.535,4.076-2.521v-.14a1.4,1.4,0,0,0-1.541-1.569,3.376,3.376,0,0,0-1.764.5l-.281-.812a4.213,4.213,0,0,1,2.228-.6c2.073,0,2.577,1.414,2.577,2.773v2.535a9.545,9.545,0,0,0,.112,1.625Zm-.181-3.46c-1.345-.027-2.872.211-2.872,1.527a1.091,1.091,0,0,0,1.163,1.177,1.687,1.687,0,0,0,1.638-1.135,1.288,1.288,0,0,0,.071-.392Z"/><path d="M623.7,160.569c0-.7-.013-1.275-.055-1.835h1.078l.057,1.092h.042a2.334,2.334,0,0,1,2.128-1.246,2,2,0,0,1,1.92,1.358h.028a2.791,2.791,0,0,1,.756-.882,2.315,2.315,0,0,1,1.5-.476c.9,0,2.228.588,2.228,2.941v3.992h-1.205v-3.838c0-1.3-.477-2.087-1.471-2.087a1.6,1.6,0,0,0-1.457,1.121,2.029,2.029,0,0,0-.1.616v4.188h-1.205v-4.062c0-1.078-.476-1.863-1.414-1.863a1.833,1.833,0,0,0-1.625,1.835v4.09H623.7Z"/><path d="M635.376,160.947c0-.869-.029-1.569-.056-2.213h1.107l.055,1.162h.028a2.666,2.666,0,0,1,2.41-1.316c1.638,0,2.872,1.386,2.872,3.446,0,2.437-1.486,3.642-3.082,3.642a2.378,2.378,0,0,1-2.087-1.065h-.029v3.684h-1.218Zm1.218,1.807a2.866,2.866,0,0,0,.056.5,1.9,1.9,0,0,0,1.85,1.443c1.3,0,2.058-1.065,2.058-2.619,0-1.359-.714-2.522-2.016-2.522a1.968,1.968,0,0,0-1.864,1.527,2,2,0,0,0-.084.5Z"/><path d="M643.342,155.568h1.232v9.945h-1.232Z"/><path d="M647.332,162.348a2.172,2.172,0,0,0,2.325,2.353,4.457,4.457,0,0,0,1.877-.35l.21.882a5.494,5.494,0,0,1-2.255.42,3.148,3.148,0,0,1-3.334-3.417c0-2.045,1.205-3.656,3.18-3.656,2.213,0,2.8,1.947,2.8,3.193a4.666,4.666,0,0,1-.042.575Zm3.614-.883a1.755,1.755,0,0,0-1.709-2,2.045,2.045,0,0,0-1.892,2Z"/><path d="M658.91,157.557h-.028l-1.582.854-.239-.938,1.99-1.065H660.1v9.105h-1.19Z"/><path d="M72.381,164.124a4.307,4.307,0,0,0,2.185.616c1.246,0,1.975-.658,1.975-1.61,0-.883-.5-1.387-1.78-1.877-1.54-.547-2.493-1.345-2.493-2.676,0-1.47,1.219-2.563,3.054-2.563a4.289,4.289,0,0,1,2.087.462l-.336,1a3.748,3.748,0,0,0-1.793-.448c-1.288,0-1.778.77-1.778,1.414,0,.882.574,1.317,1.877,1.821,1.6.617,2.409,1.387,2.409,2.773,0,1.457-1.079,2.718-3.306,2.718a4.885,4.885,0,0,1-2.41-.6Z"/><path d="M83.2,165.609l-.1-.854h-.042a2.526,2.526,0,0,1-2.073,1.008,1.931,1.931,0,0,1-2.073-1.947c0-1.639,1.457-2.535,4.076-2.521v-.141a1.4,1.4,0,0,0-1.541-1.568,3.382,3.382,0,0,0-1.765.5l-.28-.812a4.2,4.2,0,0,1,2.227-.6c2.074,0,2.578,1.415,2.578,2.774v2.535a9.553,9.553,0,0,0,.112,1.625Zm-.182-3.46c-1.345-.028-2.872.211-2.872,1.527a1.091,1.091,0,0,0,1.163,1.177,1.688,1.688,0,0,0,1.639-1.135,1.286,1.286,0,0,0,.07-.392Z"/><path d="M86.2,160.664c0-.7-.014-1.274-.056-1.835H87.22l.057,1.093h.042a2.337,2.337,0,0,1,2.129-1.247,2,2,0,0,1,1.919,1.359H91.4a2.78,2.78,0,0,1,.756-.882,2.31,2.31,0,0,1,1.5-.477c.9,0,2.228.589,2.228,2.942v3.992h-1.2v-3.838c0-1.3-.477-2.087-1.471-2.087a1.6,1.6,0,0,0-1.457,1.12,2.03,2.03,0,0,0-.1.617v4.188H90.442v-4.062c0-1.079-.475-1.863-1.414-1.863a1.837,1.837,0,0,0-1.625,1.835v4.09H86.2Z"/><path d="M97.875,161.043c0-.869-.029-1.569-.056-2.214h1.107l.055,1.163h.029a2.664,2.664,0,0,1,2.409-1.317c1.638,0,2.872,1.387,2.872,3.446,0,2.437-1.486,3.642-3.082,3.642a2.375,2.375,0,0,1-2.087-1.065h-.028v3.684H97.875Zm1.219,1.807a2.88,2.88,0,0,0,.055.5A1.9,1.9,0,0,0,101,164.8c1.3,0,2.058-1.065,2.058-2.62,0-1.358-.713-2.521-2.016-2.521a1.968,1.968,0,0,0-1.864,1.527,2,2,0,0,0-.083.5Z"/><path d="M105.841,155.664h1.232v9.945h-1.232Z"/><path d="M109.831,162.444a2.172,2.172,0,0,0,2.325,2.353,4.439,4.439,0,0,0,1.877-.351l.21.883a5.494,5.494,0,0,1-2.255.42,3.149,3.149,0,0,1-3.334-3.418c0-2.045,1.2-3.656,3.18-3.656,2.213,0,2.8,1.947,2.8,3.194a4.941,4.941,0,0,1-.041.575Zm3.614-.883a1.755,1.755,0,0,0-1.709-2,2.044,2.044,0,0,0-1.892,2Z"/><path d="M124.785,160.959c0,3.095-1.149,4.8-3.166,4.8-1.778,0-2.984-1.667-3.012-4.678,0-3.054,1.318-4.735,3.166-4.735C123.692,156.35,124.785,158.059,124.785,160.959Zm-4.944.14c0,2.367.727,3.712,1.848,3.712,1.261,0,1.863-1.471,1.863-3.8,0-2.241-.574-3.713-1.849-3.713C120.625,157.3,119.841,158.619,119.841,161.1Z"/><path d="M243.451,163.933a4.31,4.31,0,0,0,2.185.616c1.247,0,1.975-.658,1.975-1.61,0-.883-.5-1.387-1.779-1.877-1.54-.547-2.493-1.345-2.493-2.676,0-1.47,1.218-2.563,3.053-2.563a4.289,4.289,0,0,1,2.087.462l-.336,1a3.744,3.744,0,0,0-1.793-.448c-1.288,0-1.778.77-1.778,1.414,0,.883.574,1.317,1.877,1.821,1.6.617,2.409,1.387,2.409,2.773,0,1.458-1.079,2.718-3.306,2.718a4.885,4.885,0,0,1-2.41-.6Z"/><path d="M254.274,165.418l-.1-.854h-.042a2.528,2.528,0,0,1-2.074,1.008,1.931,1.931,0,0,1-2.073-1.947c0-1.639,1.457-2.535,4.076-2.521v-.14a1.4,1.4,0,0,0-1.541-1.569,3.376,3.376,0,0,0-1.764.5l-.281-.812a4.2,4.2,0,0,1,2.228-.6c2.073,0,2.577,1.414,2.577,2.773v2.535a9.545,9.545,0,0,0,.112,1.625Zm-.181-3.46c-1.345-.028-2.873.211-2.873,1.527a1.092,1.092,0,0,0,1.164,1.177,1.688,1.688,0,0,0,1.638-1.135,1.288,1.288,0,0,0,.071-.392Z"/><path d="M257.268,160.473c0-.7-.013-1.274-.055-1.835h1.078l.056,1.093h.042a2.336,2.336,0,0,1,2.129-1.246,2,2,0,0,1,1.919,1.358h.029a2.789,2.789,0,0,1,.755-.882,2.317,2.317,0,0,1,1.5-.476c.9,0,2.228.588,2.228,2.941v3.992h-1.2V161.58c0-1.3-.477-2.087-1.471-2.087a1.6,1.6,0,0,0-1.457,1.12,2.068,2.068,0,0,0-.1.617v4.188h-1.206v-4.062c0-1.078-.475-1.863-1.414-1.863a1.837,1.837,0,0,0-1.625,1.835v4.09h-1.205Z"/><path d="M268.945,160.852c0-.869-.028-1.569-.056-2.214H270l.056,1.163h.028a2.666,2.666,0,0,1,2.409-1.316c1.639,0,2.872,1.386,2.872,3.445,0,2.437-1.485,3.642-3.082,3.642a2.376,2.376,0,0,1-2.087-1.065h-.028v3.685h-1.219Zm1.219,1.807a2.88,2.88,0,0,0,.055.5,1.9,1.9,0,0,0,1.85,1.443c1.3,0,2.059-1.065,2.059-2.62,0-1.358-.714-2.521-2.017-2.521a1.966,1.966,0,0,0-1.863,1.527,2,2,0,0,0-.084.5Z"/><path d="M276.911,155.473h1.232v9.945h-1.232Z"/><path d="M280.9,162.253a2.172,2.172,0,0,0,2.325,2.353,4.457,4.457,0,0,0,1.877-.35l.21.882a5.49,5.49,0,0,1-2.255.42,3.149,3.149,0,0,1-3.334-3.418c0-2.045,1.2-3.655,3.18-3.655,2.213,0,2.8,1.946,2.8,3.193a4.894,4.894,0,0,1-.042.575Zm3.614-.883a1.755,1.755,0,0,0-1.709-2,2.042,2.042,0,0,0-1.891,2Z"/><path d="M292.479,157.462h-.028l-1.582.854-.238-.938,1.989-1.065h1.05v9.105h-1.191Z"/></svg>