<svg id="Layer_1" data-name="Layer 1" xmlns="http://www.w3.org/2000/svg" width="592.684" height="286.434" viewBox="0 0 592.684 286.434"><defs><style>.cls-1,.cls-2{fill:none;stroke-miterlimit:10;}.cls-1{stroke:#cbcbcb;}.cls-2{stroke:blue;}</style></defs><line class="cls-1" x1="61.374" y1="261.24" x2="61.374" y2="35.803"/><path d="M29.48,75.225h1.38v9.51h4.56V85.9H29.48Z"/><path d="M26,195.471a14.506,14.506,0,0,1,2.64-.22,4.39,4.39,0,0,1,3.09.87,2.641,2.641,0,0,1,.84,2,2.8,2.8,0,0,1-2,2.72h0a2.64,2.64,0,0,1,1.56,2.15,16.93,16.93,0,0,0,.83,2.93H31.53a14.188,14.188,0,0,1-.71-2.55c-.32-1.47-.89-2-2.14-2.07h-1.3v4.62H26.01Zm1.37,4.86h1.41c1.48,0,2.41-.81,2.41-2,0-1.37-1-2-2.45-2a5.394,5.394,0,0,0-1.37.13Z"/><line class="cls-1" x1="175.22" y1="200.331" x2="61.374" y2="200.331"/><line class="cls-1" x1="109.684" y1="82.909" x2="61.374" y2="82.909"/><path d="M556.144,78.553c-.16-.49-.31-1-.46-1.47-.11,1.15-.31,2.28-.39,3.44-.46-1.09-.91-2.17-1.34-3.26-.33.85-.67,1.7-1,2.55-.41-2.64-.67-5.28-1.06-7.93q-.289,4.59-.71,9.15c-1-3-1-6.08-1.15-9.14-.22,3.47-.48,6.94-.87,10.39-1-5.75-.17-11.6-1.2-17.36-.42,5.78-.17,11.59-.47,17.38-.51-3.35-.74-6.71-1.25-10.05-.45,2.4-.77,4.81-1,7.24-.33-4.62-.6-9.24-1.16-13.85-.28,4.73-.32,9.46-.49,14.19-.56-4.42-.29-9-1.63-13.28-.4,3.95-.37,7.93-.5,11.9-1.9-5.76-.84-11.8-1.38-17.67-.25,6,0,12.08-.55,18.12-2-7.93,0-16.07-1.55-24-.61,8.09.05,16.2-.46,24.3-1.15-8-1-16-1.38-23.93-.38,8.09.08,16.19-.32,24.28-1.72-7.9-1.25-16-1.79-23.93-.46,7.09.18,14.21-.64,21.29-1.65-7.26-.4-14.67-1.13-22-.24,7.86-.45,15.72-.83,23.57-1-8-1-15.94-1.35-23.92-.39,8.66.05,17.32-.26,26-2.07-10.08-.73-20.33-1.39-30.49-.85,9.7-.53,19.41-.83,29.12-.1-1.37-.31-4.11-.42-5.49-.24.78-.47,1.55-.69,2.33-.17-8.77.26-17.54-.3-26.31-.47,10.87.17,21.74-.35,32.61-.84-10.29-1.13-20.6-1.43-30.91-1.46,7.56.3,15.31-1.26,22.88-.9-7.13-.35-14.31-.86-21.46-.39,8,.1,16-.4,23.94-.22-5.45-.3-10.93-1.77-16.27-.16,3.91-.19,7.82-.29,11.73-.67-5.29-1.27-10.6-1.47-15.92-.12,3.35-.17,6.71-.28,10.06a28.233,28.233,0,0,1-1-2.73c-.1,1.14-.29,2.26-.35,3.41-.14-1-.45-2.08-.52-3.08-.11,3.69-.18,7.38-.39,11.07-.25-6.12-.13-12.23-.22-18.35-.26.77-.51,1.53-.74,2.3l-.45-4.11c-.23,4.16-.47,8.31-.87,12.47-.06-2.58-.06-5.15-.07-7.72-.33.18-.65.37-1,.56-.07-.63-.2-1.89-.26-2.52-.19,1.73-.38,3.46-.55,5.19-.62-2.86-.91-5.77-1.25-8.66-.33,2.75-.56,5.51-.78,8.28-.28-2.67-.5-5.33-1-8-.34,3.22-.57,6.46-.75,9.7-.15-4.15-.21-8.3-.36-12.46-.18,2-.34,3.92-.5,5.88-.06-1-.29-2.06-.28-3.06-.22.54-.44,1.09-.65,1.64-1.15-8.05-.86-16.16-1.26-24.24-.28,8.21,0,16.43-.84,24.62-.15-3.69-.26-7.39-.46-11.08-.14,4.51-.15,9-.48,13.53-.66-4.84-.56-9.72-.81-14.57-.46,9,.35,18.07-.91,27.06-.08-2.86-.09-5.73-.1-8.58-.29.39-.58.78-.86,1.18-.1-.57-.31-1.7-.41-2.27v10.64c-.21-.48-.65-1.43-.86-1.91v4.68c-.29-.4-.59-.8-.87-1.2-.06.5-.11,1-.15,1.52-.13-.35-.26-.7-.37-1-.83.79-1.61,1.61-2.51,2.34a53.333,53.333,0,0,1-.81-5.71c-.74,2.63-1.09,5.31-1.61,8-.16-3.11-.27-6.21-.34-9.32a52.529,52.529,0,0,1-1.22,7c-.63-2.18-1.13-4.38-1.59-6.58-.2,2.73-.35,5.47-.71,8.2-.14-2.26-.27-4.51-.41-6.77l-1.27-1c-.23,1.66-.43,3.32-.63,5-.11-1.93-.21-3.86-.32-5.8-.15,1.38-.46,4.15-.61,5.53-.55-3.45-.58-6.94-1.12-10.4-.22,3.93-.25,7.86-.43,11.79-2.56-5.39-1.03-11.2-1.72-16.77-.2,4.05-.21,8.09-.39,12.14-.19-2.66-.32-5.31-.5-8-.12,3.34-.21,6.68-.35,10-.14-3-.33-6-.45-9-.36,1.7-.67,3.4-1,5.11-.17-4.14-.41-8.27-.79-12.4-.13,3.72-.26,7.45-.64,11.16-.81-6.36-.17-12.78-.69-19.15-.21,5.2-.11,10.4-.41,15.6-.18-2.88-.23-5.77-.35-8.65-.24,2-.51,4-.77,6-.81-7.78,0-15.59-.57-23.38a92.69,92.69,0,0,0-.8,11.76c-.3-1.15-.59-2.3-.89-3.44-.19,2.43-.37,4.85-.55,7.28-.38-3.46-.59-6.92-.81-10.39l-.51,5.93c-.19-6.3-.08-12.6-.07-18.89h-.46c-.12,12.2.33,24.4-.23,36.6-.32-6.53-.67-13.07-.6-19.6,0-5,.15-10.06-.71-15-.24,3.43-.42,6.86-.83,10.29-.18-1.48-.35-3-.52-4.44-1.11,11.09.15,22.24-1.11,33.32-.24-3.24-.36-6.48-.49-9.72-.17,1-.48,2-.58,3.08-.13-2.3-.23-4.6-.34-6.89-.11,6.49-1.31,12.92-1.77,19.39-.05-1-.14-2-.15-3h-1.15c-.28,1.24-.52,2.5-.8,3.74-.22-3.44-.33-6.9-.88-10.32-.23,3.21-.33,6.44-.81,9.64-.47-2.52-.74-5.06-1-7.59-.13,2.31-.26,4.62-.41,6.94a35.426,35.426,0,0,1-1.36-4.06c-.21,1.17-.56,2.3-.74,3.48a55.478,55.478,0,0,1-1-8.79,96.21,96.21,0,0,1-.77,10.44c-.92-3.32-.69-6.76-1-10.13a46.591,46.591,0,0,0-.61,8.24c-.48-.9-.92-1.79-1.39-2.68-.15.7-.45,2.07-.59,2.76-.31-2.76-.55-5.53-.81-8.29-.22,2.88-.4,5.76-.7,8.63-.4-2.53-.76-5.06-1.1-7.59-.57,3.2-.88,6.42-1.27,9.63-.14-3.44-.28-6.87-.73-10.28-.33,2.43-.27,5-1.33,7.3q-.249-3-.45-6c-.29,2.07-.56,4.15-.9,6.22a68.171,68.171,0,0,1-.85-7.25c-.34,1.74-.68,3.47-1.07,5.2-.32-1.73-.53-3.47-.76-5.2-.13,2.19-.26,4.37-.4,6.56a61.283,61.283,0,0,1-1.28-9.69c-.21,2.51-.36,5-.67,7.53-.37-1.23-.7-2.45-1.08-3.66-.28,1.11-.62,2.22-.87,3.34-.29-1.92-.57-3.85-.86-5.78-.13,1-.24,2-.36,3.07-.519-1.15-1.049-2.31-1.53-3.46-1.209,2.4-.809,5-1.059,7.56-.3-1.24-.59-2.48-.9-3.71-.171,1.47-.321,2.94-.47,4.42a107.536,107.536,0,0,1-.81-11.76c-.261,2.75-.46,5.51-.85,8.26-.1-1-.291-3-.381-4.06-.23.76-.44,1.53-.64,2.3-.12-2.52-.25-5-.42-7.54-.51,3.67-.57,7.38-.73,11.07-.24-2.29-.44-4.59-.72-6.88-.4,1.12-.74,2.26-1.12,3.38a45.451,45.451,0,0,1-.74-6.36h-.62q-.15,3.7-.32,7.43a97.8,97.8,0,0,0-.85-10.69c-.37,4.49-.63,9-.89,13.48-.78-5.76-.54-11.56-.84-17.34a88.871,88.871,0,0,1-.86,11.16c-1.06-4.95-.66-10-1.37-15-.2,6.13-.05,12.25-.37,18.38-.2-5-.38-9.94-.84-14.9a57.636,57.636,0,0,1-1.26,8.71c-.2-2.19-.36-4.37-.53-6.56-.14,3.23-.24,6.46-.41,9.69-.19-2.88-.27-5.77-.44-8.65-.14,3.81-.22,7.62-.4,11.43-.32-8.61-.75-17.22-.64-25.84h-.45c0,7.58.24,15.16-.24,22.72-.52-3.21-.64-6.45-.84-9.68-.19,2-.36,3.93-.54,5.9-1.28-3.61-1-7.4-1.18-11.11-.11,3-.31,6-.42,9-.18-2-.36-3.92-.52-5.87-.12,4.85-.15,9.69-.37,14.54-.19-3.69-.24-7.4-.8-11.08-.26,3.35-.34,6.7-.52,10-.15-5.45-.15-10.92-1.21-16.32-1.67,4.15-1.09,8.56-1.4,12.85-.17-3.56-.26-7.12-.58-10.67l-.54,1.38-.83-.51q-.06,3.69-.15,7.38c-.27-2.19-.5-4.39-.82-6.58q-.27,3.63-.51,7.26c-.23-2.09-.45-4.18-.69-6.27-.38,2.89-.46,5.8-.67,8.69-.14-2.18-.25-4.37-.37-6.55-.59,4.39-.18,9.12-2.89,13.12-.48-1.39-.85-2.81-1.36-4.19-.19,2.45-.38,4.89-.56,7.35a85.423,85.423,0,0,0-.88-9.31c-.1,1.71-.19,3.41-.27,5.13l-1.21-1.19q-.12,3-.25,6.06c-.17-3.46-.23-6.92-.41-10.38-.15,2.19-.26,4.38-.39,6.57-.15-1-.41-2.09-.5-3.09-.14,1.37-.27,2.75-.4,4.12a37.437,37.437,0,0,1-1.35-9.68c-.27,3.23-.5,6.47-.76,9.7-.19-.92-.37-1.84-.54-2.75-.09,1-.29,2-.34,3.05-.31-2.57-.45-5.15-.89-7.7-.35.81-.69,1.63-1,2.45-.84-5.25-.86-10.55-1.58-15.8q-.27,2.91-.53,5.83a121.041,121.041,0,0,1-.57-15.1h-.39a91.891,91.891,0,0,1-.65,14.07c-.27-2.89-.35-5.8-.54-8.69-.12,3.92-.16,7.85-.33,11.77-.79-6.81-.51-13.64-1-20.46-.71,4.37-.55,8.79-.81,13.18-.17-5.42-.14-10.86-.35-16.28-.44,5.07-.72,10.15-.92,15.22-.44-8.2.05-16.41-.4-24.6-.19,2.07-.35,4.14-.52,6.22-.15-2.77-.25-5.54-.4-8.31-.74,8.55-.45,17.12-.85,25.67-.35-5.42-.61-10.85-.84-16.27q-.24,5.36-.45,10.72c-.17-3.12-.27-6.24-.42-9.35-.22,3-.37,6-.79,9a40.161,40.161,0,0,1-1.13-6.23c-.13,8,.1,15.94-.18,23.91-.21-1.38-.41-2.76-.6-4.13-.23,3.8-.45,7.59-.73,11.39-.29-1-.57-2-.85-3-.57,1.42-1.2,2.83-1.8,4.25-.29,1.15-.63,2.29-.9,3.45l-.87-2.22c-.3,2.14-.57,4.3-.89,6.45-.13-2.52-.25-5-.38-7.56-.36,2.4-.63,4.81-.92,7.21-.14-1.93-.26-3.86-.39-5.79-.36,1.58-.68,3.18-1,4.77q-.12-3.6-.23-7.22c-.32,1.72-.58,3.44-.91,5.16-.18-1.6-.32-3.21-.47-4.81-.27,1.61-.53,3.22-.81,4.83l-.6-5.55c-.44,3-.59,6-.85,9-.09-4.51-.11-9-.47-13.55-.39,2.77-.57,5.56-.79,8.34-.2-3.23-.28-6.48-.7-9.7-.19,3-.41,6-.55,9-.16-4.18-.24-8.36-.59-12.53-.8,4.26-.47,8.59-.73,12.88a101.551,101.551,0,0,0-.85-10.74c-.2,2.88-.33,5.77-.47,8.66-.27-3.93-.51-7.85-.85-11.77-.16,2.06-.29,4.13-.44,6.2-.34-2-.63-4.09-.92-6.14-.17,1.6-.34,3.19-.5,4.79-.37-1.83-.58-3.68-.83-5.52-.12,2.88-.21,5.76-.37,8.63-.57-3.91-.65-7.85-.88-11.78-.12,3.94-.19,7.88-.49,11.82a94.264,94.264,0,0,1-.54-13.74h-.36c0,3.53-.13,7.06-.34,10.6a70.227,70.227,0,0,1-.74-7.48h-.23c-.06,2.94-.14,5.89-.26,8.84q-.63-4-.91-8c-.16,2.54-.31,5.09-.5,7.63-.6-4.14-.57-8.33-.81-12.5-.15,3.35-.24,6.71-.41,10.06-.31-3.34-.55-6.68-.79-10-.22,2.53-.54,5.07-.87,7.6-.17-1-.39-2.1-.55-3.1-.23,2.75-.38,5.51-.72,8.26l-.6-7.25c-.08,5.21.09,10.44-.73,15.61-.36-5.66-.19-11.34-.53-17-.33,6.82.2,13.67-.72,20.47-.6-7.63,0-15.27-.57-22.9-.25,7.17-.15,14.35-.92,21.5-.34-8.09.19-16.19-.4-24.27-.33,7.51.15,15.06-.87,22.55-.22-6.13-.05-12.27-.38-18.39-.54,5.77-.61,11.56-.91,17.34-.32-7.28.05-14.57-.41-21.85-.34,8-.44,16-.9,23.93-.28-6.82,0-13.65-.41-20.47-.56,4.38-.66,8.79-.91,13.18-.19-6.24,0-12.49-.35-18.72a223.781,223.781,0,0,0-.63,22.71h-.46c-.07-7.46.42-15-.5-22.38q-.35,3.63-.66,7.27c-.11-4.06-.15-8.11-.45-12.16-1.44,9,.11,18.08-.78,27.09-.3-7.28-.45-14.57-.89-21.85-.26,6.59,0,13.18-.4,19.77-.28-5.77,0-11.58-.87-17.32-.21,5.3-.17,10.61-.42,15.92-1.25-9.45-.22-19-.88-28.43-.48,8.9.1,17.81-.41,26.71-1.19-9.34-.27-18.74-.89-28.1-.59,11.79.24,23.6-.47,35.39-.24-15-.41-30.08-.86-45.11-.78,13.06.78,26.18-.81,39.2-.47-7.4,0-14.81-.48-22.2-.26,6.12-.1,12.25-.35,18.37-1.14-5.73-.51-11.56-.94-17.32-.43,7.73.27,15.51-.85,23.22-.62-14.56.28-29.14-.48-43.7-.45,9.18.15,18.37-.34,27.55-.43,7.35,0,14.72-.48,22.07-.6-14.69.23-29.39-.44-44.07-.44,13.65-.5,27.3-.89,40.95-.5-11.34.18-22.68-.38-34-.74,9-.5,18-.9,27.06-.25-6-.1-12-.46-18-.87,6.1-.58,12.24-.6,18.36-.26-.53-.51-1-.76-1.58-.35,2.84-.57,5.69-.76,8.55-1.61-2.81-1.59-5.94-1.74-9-.27,1.82-.49,3.65-.83,5.47-.18-1.13-.4-2.29-.56-3.42-.31,2.65-.57,5.3-.85,8-.36-2.51-.58-5-.71-7.56-.07.43-.2,1.29-.26,1.72l-.85-.46c-.29,2-.66,4-1.08,6-.5-4.63-1.25-9.23-1.87-13.85-.51,3.93-.59,7.95-2,11.76-.37-1.85-.69-3.69-1.05-5.53-.55,2.4-.9,4.83-1.31,7.25-.45-3.9-.53-7.83-.7-11.74-.19,1.15-.4,2.27-.57,3.43-.11-4.72.06-9.47-.83-14.15-.14,3.9-.15,7.8-.21,11.71-.35-1-.68-2-1-3.06-.12,2-.23,3.91-.35,5.86-.13-.61-.4-1.83-.53-2.44-.34.8-.66,1.6-1,2.41-.08-2.29-.2-4.59-.28-6.88-.17,2.42-.33,4.83-.49,7.25-.14-3.11-.25-6.23-.41-9.34-.18,1.61-.33,3.21-.49,4.82-.11-2.52-.2-5-.3-7.57-.31,2.63-.54,5.26-.85,7.89-.35-2.16-.69-4.32-1.07-6.47-.1,3.44-.17,6.89-.32,10.33-.17-3.7-.25-7.4-.39-11.09-.16,1-.39,2-.52,3.08-.25-2.18-.49-4.37-.8-6.56a61.894,61.894,0,0,1-1.44,10.74c-1.05-3-1-6.2-1.14-9.32-.15.94-.44,2.82-.58,3.76-.29-8.31.2-16.64-.38-24.95-.4,8.09.09,16.19-.35,24.28-.21-1.61-.4-3.23-.59-4.83-.13,5.6-.08,11.2-.06,16.8h-.47c0-7.58.16-15.15-.13-22.72-.35,4.27-.65,8.55-1,12.82-.38-5.2-.6-10.4-.88-15.6-.23,6.07-.16,12.14-.13,18.21h-.42c0-4.11-.07-8.21-.31-12.31-.26,9.48-.05,19-.74,28.44-.14-.6-.44-1.78-.58-2.38-.41,2.3-.79,4.59-1.18,6.88-.29-2-.57-3.9-.89-5.86q-.5,2.58-.93,5.16c-.44-2.51-.88-5-1.34-7.52-.16,2.06-.32,4.12-.51,6.19-.43-2-.74-3.92-1.14-5.88-.2,2.19-.37,4.37-.57,6.56-.34-1.74-.6-3.49-.88-5.22-.37,1.49-.71,3-1.14,4.48-.38-2.16-.65-4.32-.94-6.47-.22,2.51-.41,5-.72,7.54-.25-2.58-.46-5.15-.74-7.73-.39,2.32-.58,4.65-.95,7-.39-1.74-.69-3.49-1.16-5.21-.2,1-.61,3.16-.81,4.22-.38-2.52-.62-5-.82-7.58-.35,3.34-.63,6.68-.95,10-.74-4.35-.5-8.75-1.15-13.11-.24,3.57-.42,7.14-.86,10.7-.24-2.13-.47-4.25-.73-6.37-.25,2.11-.41,4.22-.59,6.33-.34-1.84-.6-3.69-1-5.53-.39,1.73-.68,3.46-1,5.2-.45-3.1-.47-6.24-.73-9.36-.39,3.35-.64,6.71-1.08,10.06-.38-3.57-.71-7.15-1-10.72-.23,2.3-.48,4.61-.79,6.92-.4-1.47-.74-3-1-4.43-.35,1.82-.83,3.63-1.26,5.45-.1-1-.3-2.85-.41-3.8-.25,1.4-.49,2.79-.73,4.19a77.881,77.881,0,0,1-1-11.79c-.32,3.67-.62,7.35-.86,11-.34-3-.66-6-1-9-.64,3.19-.81,6.43-1.25,9.64a139.082,139.082,0,0,0-1.29-15.51c-.1,4.16-.17,8.32-.44,12.48-.79-3.78-.59-7.65-.87-11.46-.15,4-.17,8.06-.29,12.1-.53-3.45-.89-6.92-1.39-10.37-.38,2.52-.64,5-.89,7.58-.16-4.13-.44-8.27-.89-12.39-.16,5.41-.14,10.82-.29,16.23a96.844,96.844,0,0,0-1.44-10c-.54,3.67-.64,7.37-.84,11.06-.2-6.24-.45-12.48-.88-18.71-.21,6-.11,12-.31,18-1.28-7.69,0-15.52-1.9-23.15-.1,4.83-.11,9.67-.36,14.5-.29-6.93-.5-13.87-.85-20.8-.27,5.89-.16,11.78-.4,17.67-.78-6.22-1.18-12.47-1.37-18.72-.18,4.84-.1,9.73-1.32,14.5-.33-7.73.12-15.46-.43-23.18-.44,8.67.18,17.35-.4,26-.4-5.19-.42-10.42-1.26-15.59-.21,4.53-.22,9.07-.63,13.6-1.78-8.86-.32-17.88-1.17-26.8-.51,8.42.44,16.88-.84,25.27-.13-1.94-.26-3.89-.4-5.83-.14,1.38-.28,2.75-.41,4.12-.12-.94-.37-2.81-.5-3.75-.16,1.14-.33,2.27-.47,3.42-.14-2.07-.28-4.15-.43-6.21-.13,4.38-.17,8.77-.33,13.16-.25-3.81-.48-7.62-.94-11.42-.15,4.16-.18,8.31-.27,12.46q-.6-1.17-1.17-2.34c0,1.45,0,2.91-.05,4.37l-.8-1.92c-.1,2.16-.19,4.32-.31,6.49-.14-4.28-.2-8.56-.43-12.83-.3,6.26.19,12.55-.74,18.78-.28-.51-.84-1.54-1.13-2,0,.67-.13,2-.17,2.66-.3-2.07-.56-4.13-.91-6.19-.2,1.72-.34,3.43-.5,5.15-.24-1.36-.48-2.71-.71-4.07-.22.54-.45,1.07-.67,1.61-.23-2.73-.38-5.47-.78-8.19-.21,2.07-.42,4.14-.66,6.21-.34-2.31-.49-4.64-.72-7-.08,3.23-.19,6.45-.31,9.67l-.48-7.24c-.16,1.49-.31,3-.47,4.48-.07-1-.16-2-.21-3-.51,1.14-1,2.29-1.56,3.41-.13-3.83-.19-7.66-.34-11.49-.49,3.81-.74,7.63-.91,11.45a81.293,81.293,0,0,1-.68-10.33l-.68,1.92a83.476,83.476,0,0,0-.74-8.92c-.25,3.92-.29,7.84-.41,11.76-.36-3-.68-5.95-1-8.92-.1,2.51-.22,5-.34,7.54-.14-3-.34-6-.47-9-.16,3.12-.3,6.23-.48,9.35-.15-4.51-.17-9-.4-13.52-.06,1.54-.1,3.08-.13,4.62l-.95-.6q-.109,3-.25,6c-.16-3.47-.23-6.93-.41-10.4-.16,3.82-.24,7.63-.43,11.44-.15-3.81-.21-7.61-.41-11.42-.1,2.94-.2,5.88-.25,8.83h-.32c-.08-2.94-.17-5.88-.31-8.83-.12,3.24-.29,6.46-.42,9.69-.11-2.94-.21-5.88-.25-8.83h-.32c-.08,2.94-.18,5.88-.32,8.83-.15-3.23-.22-6.46-.32-9.69a63.8,63.8,0,0,1-1.28,8c-.26-3.59-.41-7.17-.56-10.76-.14,3.7-.25,7.39-.43,11.09-.17-3.24-.26-6.47-.45-9.7-.15,3.23-.21,6.47-.35,9.7-.15-.9-.29-1.79-.43-2.69-.1.4-.19.8-.28,1.21l-1.77.19c0,2.39-.07,4.78-.12,7.18-.36-1.82-.7-3.63-1-5.45-.13,1.93-.27,3.87-.4,5.8-.14-3.34-.19-6.68-.33-10a143.749,143.749,0,0,0-.85,15.3c-.21-2.56-.42-5.11-.68-7.65-.32,2.19-.52,4.39-.77,6.59a128.6,128.6,0,0,0-.82-14.55c-.14,5-.13,10-.4,14.92-.21-5.55-.12-11.1-.43-16.64-1.3,6.42-.27,13-.78,19.42-.22-1.49-.43-3-.64-4.49q-.45,4.14-.75,8.28c-.16-5.31-.31-10.63-.83-15.94-.19,2.08-.36,4.15-.54,6.23-.26-7.51.14-15-.38-22.53-.2,8.92-.3,17.85-.89,26.77-.58-1.35-1-2.73-1.49-4.11.06,1.82.13,3.65.19,5.48l-1.35-.52c-.19,1.2-.37,2.4-.57,3.59l-.73-2c-.33,1.47-.59,2.94-.82,4.42-.25-2.41-.47-4.81-.78-7.22-.12,1.38-.35,4.13-.47,5.51-.23-3.33-.44-6.67-.89-10-.15,2.75-.26,5.5-.41,8.26-.16-2.67-.27-5.33-.45-8-1,2.49-1.8,5-2.65,7.52-.32-.48-.63-1-.94-1.45l-.18,1.47c-.43-1.82-.85-3.64-1.33-5.45-.21,1.16-.4,2.3-.59,3.46-.11-1.6-.19-3.21-.28-4.81l-.4,2.36c-.42-1.26-.82-2.52-1.26-3.77-.14,1-.44,2.85-.58,3.8-.13-1-.37-2.85-.49-3.8-.33,1.83-.55,3.67-.81,5.51-.26-1.49-.52-3-.81-4.45-.14,1.38-.41,4.14-.55,5.52-.11-2.3-.18-4.59-.27-6.88-.43,3.56-1,7.12-1.4,10.68-.24-2.41-.44-4.82-.8-7.22-.2,2.18-.34,4.35-.5,6.54-.25-2.78-.44-5.55-.81-8.31-.2,2.65-.34,5.31-.52,8-.15-3.58-.26-7.17-.64-10.75q-.35,3.63-.65,7.28a99.027,99.027,0,0,0-.86-10.42c-.16,3.67-.23,7.34-.36,11q-.579-5.68-1-11.39c-.13,4.73-.16,9.46-.38,14.18-.75-5.52-.59-11.08-.92-16.63-.21,4.56-.16,9.13-.15,13.69h-.85c0-4.69,0-9.37-.28-14-.26,5.76.12,11.56-.86,17.29-.23-6-.07-12-.45-18-.24,5.77-.07,11.56-.39,17.34-.87-7.38-.46-14.8-.87-22.2-.27,7.4-.28,14.81-.94,22.19-.18-5.78,0-11.56-.4-17.34-.2,4.45-.17,8.91-.16,13.36h-.88c0-6.42.15-12.84-.25-19.26-.24,6.14,0,12.29-.5,18.43a93,93,0,0,1-.78-10.78c-.13,3.83-.24,7.66-.69,11.47-.61-7-.33-14-.33-21h-.49c0,5.83.11,11.67-.19,17.51-1.1-6.79-.41-13.65-.88-20.46-.26,5.67-.14,11.36-.94,17-.35-8,.14-16-.4-23.94-.26,8-.33,16-.9,23.93-.18-5.67-.07-11.34-.37-17-.52,4.73-.66,9.48-.91,14.23-.16-5-.16-9.93-.31-14.89q-.559,5.52-1,11c-.19-5.84-.16-11.67-.12-17.5h-.47c0,5.47.36,11-.73,16.42-.29-6.92.05-13.84-.32-20.76-.67,5.3-.7,10.63-.95,16-.22-6.13-.07-12.26-.38-18.39-.72,8.95-.69,17.93-.62,26.89h-.48c-.2-8.36.67-16.77-.67-25.1-.45,8.89.16,17.78-.44,26.66-.17-5.09-.05-10.2-.77-15.27-.49,7.16-.06,14.35-.5,21.52-.53-10.06.15-20.13-.41-30.19-1.35,8.75-.17,17.59-.9,26.37-.19-5.55,0-11.13-.73-16.66-.75,8.9.07,17.83-.59,26.73-.64-12.66.49-25.35-.6-38a65.527,65.527,0,0,0-.5,7.63c.12,11.57.06,23.14.09,34.7h-.48c-.08-9.32.45-18.65-.67-27.94-.2,5.43-.28,10.88-.88,16.3-.17-2.77-.26-5.54-.44-8.3-.59,6.56.87,13.34-1.25,19.78-.17-2.66-.29-5.33-.42-8l-.27,4.1c-.26-.54-.52-1.07-.79-1.61v3.33l-.84-1.22c-.14.69-.4,2.06-.54,2.75-.23-1-.43-2.08-.64-3.09-.4,1.12-.8,2.23-1.21,3.35l-2.19-.68c-.6,1-1.23,2-1.91,3.06l-1.34-4-.67-.12a22.629,22.629,0,0,0-3.81,3.86l-1.53.15a1.864,1.864,0,0,0,.1.39h1.86c.11.94.32,2.82.43,3.76a19.26,19.26,0,0,0,2.16-3.74c.61,1.2,1.24,2.39,1.9,3.56l1.12-2c.24,1.22.47,2.45.72,3.67l.72-1.57c.07.58.21,1.75.29,2.33.24-1.17.47-2.34.77-3.5.61-.67,1.16-1.41,1.7-2.11.41,1.32.73,2.75,2.14,3.63.1.46.31,1.39.41,1.86l.82-1.13c.06,2.16.12,4.32.2,6.47q.221-2.921.46-5.87c.13,1.37.25,2.74.38,4.11.15-.93.46-2.8.61-3.74.09,3.4.07,6.8.09,10.2h.39c0-4.1.06-8.2.26-12.3.81,8.8.28,17.64,1.09,26.44.75-5.79.27-11.62.66-17.42.33,6.24-.21,12.52.79,18.74.61-8-.06-16,.52-24,.52,9-.29,18.09.56,27.12,1.24-8.77-.09-17.63.76-26.42.5,13.87-.22,27.75.36,41.62,1.68-13.25-.08-26.61.92-39.89.82,12.23-.83,24.54.92,36.73.43-11.43-.27-22.88.39-34.3.44,9-.12,17.91.36,26.86.38,6.77.06,13.56.51,20.33.56-16.07-.31-32.16.44-48.23.41,8-.1,16.06.35,24.08.43,7.35,0,14.72.48,22.07.6-14.11-.26-28.23.46-42.33.86,14.57.33,29.15.84,43.72.56-13.53-.17-27.06.38-40.58,1.61,10.7,0,21.51,1,32.25.49-12.14-.21-24.3.36-36.43,1.32,15.59.17,31.23.9,46.84.62-14.7-.29-29.41.48-44.1,1.46,8.39,0,16.92.82,25.36.47-8.34-.13-16.68.46-25a33.522,33.522,0,0,1,.65,8.18c0,7-.24,14,.19,21,.6-9-.37-17.93.63-26.86.36,1.76.52,3.53.76,5.32.14-2.19.27-4.38.44-6.57.74,5.71.55,11.46.52,17.18h.43c-.09-9,.3-17.92.74-26.88.16,4.62.15,9.24.41,13.86a106.459,106.459,0,0,1,.69-12.47c.5,6.7.09,13.42.57,20.13.27-6.36,0-12.72.38-19.07a94.887,94.887,0,0,0,.95,11c.13-4.49.14-9,.34-13.47.39,4.14.68,8.3.81,12.45.29-2.74.56-5.48,1-8.22q.22,2.91.43,5.82c.24-3.1.4-6.2.87-9.29.16,3.09.26,6.19.44,9.29.17-2.77.25-5.54.42-8.3.16,2.06.28,4.13.44,6.2.28-2.63.55-5.26.77-7.89.31,1.82.6,3.65.93,5.47.15-2,.28-3.92.43-5.87l.39,2.7c.29-1.6.56-3.19.87-4.79.2,3.59.31,7.17.52,10.76a104.224,104.224,0,0,0,.86-10.75c.13,2.54.24,5.07.37,7.61.23-2.59.46-5.18.76-7.75.45,4,.41,7.93.5,11.9.27-3.57.53-7.14.92-10.7q.21,3.609.41,7.24c.29-2,.53-3.9.89-5.84.17,3.1.28,6.21.43,9.31.22-2.77.44-5.54.79-8.3.22,2.65.41,5.31.63,8a57.745,57.745,0,0,0,.77-8.3c.25,2,.51,3.9.84,5.84.18-2.76.29-5.52.43-8.28.3,2.06.51,4.14.9,6.2.21-2.88.27-5.76.42-8.63a92.183,92.183,0,0,0,.86,9.34c.25-3.46.29-6.93.44-10.39.25,4.39.54,8.78.93,13.16.15-3.35.22-6.7.39-10,.45,3.93.71,7.86.9,11.79a123.38,123.38,0,0,1,.7-12.44c.23,2.52.41,5,.6,7.57a83.366,83.366,0,0,1,.87-10.68c.11,2.75.24,5.5.33,8.24q.33-3.69.74-7.37c.26,1.64.43,3.29.64,4.94.3-1,.59-2,.9-3,.11,1.36.21,2.73.32,4.1.15-.6.46-1.79.6-2.38.58,1.82,1.13,3.65,1.7,5.48.38-2.75.63-5.51.83-8.26.13,1.48.24,3,.36,4.46.26-2.18.48-4.36.8-6.53.19,1.95.39,3.9.57,5.86.35-2.4.64-4.81.91-7.21.22,5.42.61,10.84,1.14,16.25s.23,10.87.57,16.3a129.4,129.4,0,0,1,2.07-23.94c.18,1.15.33,2.27.51,3.43.14-1.83.29-3.67.45-5.5.17,4.39.39,8.77.84,13.14.17-4.73.19-9.46.36-14.19,1.48,7,1.62,14.08,1.81,21.15a73.544,73.544,0,0,1,1.17-12.46c.18,2.41.33,4.81.47,7.23.23-2.76.48-5.51.86-8.26.25,4.26.31,8.53.49,12.79.51-4.72.73-9.46.95-14.2.14,5.08.14,10.17.37,15.25.21-2.94.35-5.88.66-8.8.3,2.11.44,4.22.67,6.34.33-1.82.62-3.65.94-5.47.08,5.31.05,10.62.36,15.92.3-6.71,0-13.43.39-20.14a62.674,62.674,0,0,1,1.33,7.55c.13-.57.4-1.69.53-2.26.09,1,.27,3.06.35,4.08.17-3.23.34-6.46.65-9.68.23,1.83.43,3.66.64,5.5.12-1.38.36-4.13.49-5.5.13,2.88.21,5.76.34,8.64.31-4.28.79-8.54,1.37-12.8.45,3.1.7,6.22,1.15,9.32a42.623,42.623,0,0,0,1.41-8.95l.87,4.37c.25-2.39.42-4.78.79-7.16.19,2.06.35,4.13.54,6.2.14-2.66.24-5.31.4-8,.15,2.07.29,4.15.45,6.23.36-1.36.67-2.72,1-4.08.34,3.66.55,7.34.81,11,.13-4.4.12-8.8.62-13.18.14,1.39.43,4.15.57,5.53a63.108,63.108,0,0,1,2.24-7.24c.43,1.47.85,2.95,1.27,4.43.28-1.35.55-2.7.86-4,.34,1.22.63,2.43.93,3.67,0-.47.12-1.4.15-1.86l1.23,1c.27-1.07.54-2.15.83-3.21.43,2.75.58,5.51.83,8.27.14-2.77.26-5.53.44-8.29.15,4.61.13,9.22.34,13.84.46-2.88.78-5.77,1.29-8.64.83,5.4.64,10.86.89,16.29a134.309,134.309,0,0,1,.88-13.86c1.18,8.4.32,16.87.78,25.29,1.21-7.47.41-15,1-22.52.31,5.37.46,10.75,1.13,16.1.35-2.81.39-5.63.54-8.44.13.59.4,1.77.53,2.36.17-1,.27-2.07.46-3,.14,1.6.26,3.19.39,4.8.18-2.67.35-5.33.58-8,.58,5.08.48,10.19.68,15.29.17-3.69.28-7.39.43-11.08.35,3.57.74,7.15,1.37,10.69a173.633,173.633,0,0,1,1.33-21.11c.16,6.13,0,12.26.35,18.38.3-3.84-.32-7.9,1.69-11.5.18,2.44.35,4.88.49,7.32.63-4.83.65-9.7.9-14.55.15,4.4.17,8.79.29,13.18.18-.91.37-1.82.54-2.72.14.93.4,2.8.53,3.74.19-7.16-.07-14.33.3-21.48a146,146,0,0,0,1.3,15.6c.27-4,.25-8.08.38-12.11.26,3.21.46,6.43,1,9.62.45-4.95.63-9.91.88-14.86.56,4.73.65,9.49.92,14.23.38-2.76.6-5.54.88-8.3.55,4.48.81,9,1.26,13.48.26-7-.18-14.11.81-21.12.25,5.89.14,11.78.44,17.67.11-3.1.18-6.19.24-9.29l.76,1.9c.12-1.57.22-3.15.35-4.72.33,1.93.6,3.86.89,5.8.17-2.64.34-5.28.64-7.91q.311,3.639.6,7.27c.57-3.68,1-7.37,1.33-11.07.14,4.38.3,8.77.8,13.13.35-4.14.64-8.29.92-12.44.23,3.35.37,6.72.86,10,.28-4,.53-8.09.88-12.13.19,3.79.26,7.59.81,11.37.24-2.3.48-4.6.8-6.89a36.3,36.3,0,0,1,1,4.82c.22-2,.42-3.9.76-5.84.35,2.3.63,4.6.91,6.9.26-2.16.53-4.33.87-6.48.2,1.59.41,3.18.64,4.78.55-2.41.93-4.84,1.28-7.27.22,2.07.4,4.14.59,6.21.54-1.1,1-2.22,1.55-3.33.14,1.14.27,2.24.45,3.39.43-2.55.88-5.1,1.22-7.66.07,3.37.18,6.74.4,10.11a66.726,66.726,0,0,0,1.4-7c.31,1,.6,2,.92,3,.28-2,.46-4.11.68-6.17.26,2.65.52,5.3.84,7.94.25-2.19.48-4.38.78-6.57.29,1.37.56,2.75.85,4.12.32-.9.65-1.81,1-2.71.38,1.23.69,2.47,1,3.71.43-2.14.82-4.28,1.21-6.42.19,1.61.37,3.22.57,4.84a52.93,52.93,0,0,0,1.18-5.54c.18,2,.37,4.1.63,6.15.38-1.24.7-2.48,1-3.72.3,1.48.58,3,1,4.43.35-1.71.56-3.43.83-5.14.45,3.54,1,7.07,1.62,10.6.47,5.4.23,10.82.23,16.24h.42c0-4.1.07-8.2.29-12.3.17,3.92.23,7.86.47,11.78a126.478,126.478,0,0,1,.7-14.55c.45,5.06.72,10.13.85,15.21.32-2.51.59-5,1-7.52.19,4.84.1,9.7.86,14.52.22-7.18.43-14.34.84-21.51.21,5.31.17,10.62.38,15.93.13-3,.33-6,.45-9,.1,1.39.32,4.15.43,5.53.17-.91.34-1.82.52-2.73.21,2.36.43,4.7.72,7.06a61.722,61.722,0,0,0,1-6.71c.16,1.14.26,2.25.42,3.41.12-2.07.22-4.14.33-6.2q.27,3.62.55,7.24c.14-4,.16-8.08.35-12.12.09,1.08.13,2.14.21,3.23l.87-.6a77.313,77.313,0,0,0,.57,10.18c.25-3.82.37-7.65.68-11.47.53,3,.54,6,.79,9,.13-5.2.3-10.41.83-15.59.36,1.7.63,3.41.94,5.12,0-.67.06-2,.09-2.67.15.28.46.84.62,1.11.58-1.42,1.15-2.85,1.72-4.27,1,4.58.69,9.25.94,13.88.4-2.06.65-4.14,1-6.2.12,2.18.22,4.36.36,6.55.68-5.67.52-11.39,1.64-17,.64,2.53,1,5.1,1.44,7.65.86-2.52,1.42-5.09,2.08-7.64.23,3.7.4,7.41.84,11.1a115.327,115.327,0,0,0,1.86-15.25,87.938,87.938,0,0,1,.93,8.87l1-.07c.28-1.59.56-3.18,1-4.75,1.52,4.39.71,9,1.49,13.45.39,2.6.8,5.19,1,7.81.1-4.16.17-8.31.4-12.45.2,5.89.27,11.79.87,17.67.33-7-.1-14.11.46-21.15.86,4.47.52,9,.83,13.52.41-2.52.63-5.06.95-7.59.16,7-.1,14.09.36,21.14.4-8-.1-16,.35-23.93.68,9,.53,18,.94,27.05.5-11.9-.18-23.82.35-35.72,1.2,12.47.25,25,1,37.45.5-12.71-.23-25.45.38-38.16.43,9,.52,18,.9,27.06.42-7-.32-14.14.78-21.15.73,11.78-.21,23.59.54,35.38.66-10.06-.63-20.16.75-30.19.56,8.38.16,16.77.26,25.15h.49c-.22-11.52.21-23,.68-34.53.39,13.59.05,27.19.15,40.78h.42c.24-11.39.4-22.79.73-34.18.47,9.71-.16,19.43.38,29.14,1.65-14.3-.1-28.69.92-43,.53,13.76-.25,27.53.41,41.29,1.21-12.24.17-24.52.86-36.77.58,11.79-.24,23.59.46,35.38.75-3.38.6-6.82.65-10.23q-.09-11.28-.06-22.56h.4a94.846,94.846,0,0,0,.58,15.07c.46-6.58.15-13.18.55-19.76.58,10.77-.35,21.55.55,32.31,1.12-9.47,0-19,.72-28.49.25,5.78.19,11.58.92,17.34.2-6,.07-12,.38-18,.29,5.77.53,11.55.88,17.32.29-6.47.1-12.95.39-19.42.34,2.88.61,5.77.92,8.65.13-3,.25-6,.41-9,.38,4.38.65,8.77.92,13.16.15-3.35.21-6.7.36-10,.24,3.9.48,7.82.91,11.72.13-1.94.25-3.87.38-5.81l.68,5.55c.49-4,.48-8.1.67-12.16a104.222,104.222,0,0,0,.78,10.68c.19-2.18.3-4.36.43-6.54.27,1.59.54,3.19.84,4.79.36-.78.71-1.56,1.07-2.33.18,2.39.33,4.79.61,7.19.07-.88.22-2.62.3-3.49l.83.41c.15-.43.31-.87.47-1.3.11,2,.2,4.08.32,6.13.35-2.76.62-5.54.91-8.31.24,1.34.44,2.68.63,4l.9-1.15c.24,1.68.36,3.37.55,5.06.23-.93.46-1.86.7-2.79.29,1,.47,2,.78,3.11,0-1.71.05-3.42.08-5.12l.74,1.62c.32-2.27.53-4.56.8-6.83.16,1.72.29,3.42.47,5.14.41-2.16.61-4.34.86-6.51.11,2.41.23,4.83.37,7.24q.45-5.88.81-11.77c.28,1.72.52,3.44.82,5.16.24-1.5.49-3,.73-4.5.38,2.41.49,4.85.72,7.28.11-2.53.21-5.06.33-7.58.42,2.75.73,5.51,1,8.27.12-2.76.16-5.52.29-8.27.36,2.51.68,5,1,7.56.1-3.57.17-7.13.33-10.7q.58,4.31,1,8.64c.11-3.12.2-6.23.33-9.34.26,2.3.48,4.6.81,6.9.2-2.54.37-5.07.55-7.6.28,2.87.56,5.74.93,8.6.12-2.75.2-5.5.34-8.25.3,2.75.56,5.5.91,8.25.13-2.52.25-5,.39-7.55.32,2.52.57,5,.87,7.57q.251-2.751.55-5.49c.32,2,.51,4.1.74,6.16.23-.93.61-1.8.89-2.71,0,.94.17,2.83.23,3.78.27-.54.54-1.08.83-1.62,0,1-.08,2.89-.1,3.85l1-.57c.05,1,.11,1.91.18,2.87.24-1.53.45-3.07.72-4.6.2,1.5.31,3,.42,4.52.27-.4.55-.79.83-1.18q-.159,11.22.67,22.43c.22-5.89.1-11.78.45-17.67.34,6.93,0,13.87.35,20.8.54-7.85.56-15.72,1-23.57.36,13.12,0,26.25.14,39.38h.42c0-10.06.68-20.11.45-30.18h.41c.12,10.46-.3,20.94.24,31.4.28-10.29.15-20.59.88-30.88.38,11.16.06,22.32.15,33.49h.47c0-5.83-.09-11.68.18-17.51.2,1.61.34,3.21.52,4.82.2-2.87.35-5.75.64-8.62.31,2.4.6,4.82.93,7.24q.31-2.76.6-5.49c.17,4.66.16,9.34.14,14h.42c-.06-7.81.29-15.61.71-23.41.17,4.85.18,9.71.4,14.57,1.27-8.65.21-17.36.88-26,.42,8.85.1,17.7.18,26.54h.46c-.14-10.47.27-20.93.7-31.4.41,8.44-.15,16.89.42,25.33.25-10.87.19-21.74.82-32.6.23,4.72.25,9.45.38,14.18.4-4.15.7-8.3.95-12.45.17,2.66.33,5.32.56,8a72.928,72.928,0,0,0,.61-9.34l.52,2c.22-.78.45-1.56.67-2.33.3,2.52.47,5,.71,7.57.33-2.76.59-5.53.88-8.29.13,2.29.2,4.59.33,6.89.25-2.4.45-4.81.8-7.21.08.56.24,1.68.33,2.25q.561-1,1.17-1.92c.1,2.64.18,5.29.3,7.93a76.618,76.618,0,0,0,1.84-10.71c.24,2.42.47,4.85.79,7.27.47-.92.76-1.91,1.29-2.79a38.277,38.277,0,0,1,.91,6.56c.12-.94.35-2.82.47-3.76.1,1.49.16,3,.25,4.47.17-.54.34-1.09.51-1.62.33,1,.67,2,1,3,.06-1.58.09-3.17.15-4.75a15.18,15.18,0,0,0,2.25,4.85,31.893,31.893,0,0,0,1.07-3.47q.33,2.7.76,5.38.221-2.91.43-5.8c.16,3.57.26,7.15.44,10.72.32-3.1.58-6.22.83-9.33.16,1.39.47,4.15.63,5.54.37-2.31.56-4.63.83-6.94.52,4.49.53,9,.79,13.5.15-4.51.16-9,.35-13.52.12,1,.1,2,.25,3l.88-1.19c.09,10.72-.36,21.46.25,32.17.59-12.3-.62-24.66,1.08-36.93a72.967,72.967,0,0,1,.43,8c-.12,13.3,0,26.61-.08,39.91h.47c.1-15.67-.27-31.34.17-47,.16,3,.35,6,.51,9,.15-3.24.25-6.47.46-9.7.36,8-.15,16,.42,23.93.22-4.61.15-9.22.24-13.83.23.77.47,1.54.73,2.32,0-3.56.1-7.12.25-10.68.11,3,.3,6,.48,9,1-2,1.1-4.13,1.46-6.22.07,8.83,0,17.66,0,26.5h.46c0-6.94,0-13.88-.06-20.82,0-4,0-8,1.26-11.91.17,6.79-.06,13.59.24,20.39.34-6.13,1-12.24,1.44-18.37a89.093,89.093,0,0,1,.75,11.07c.18-3,.42-6,.7-9,.33,2.78.48,5.56.67,8.34a98.42,98.42,0,0,1,1.19-11.06c.27,3.45.4,6.91,1,10.34.24-4.38-.13-8.83,1.21-13.11.24,4.72.25,9.45.42,14.18.25-4.5.49-9,1-13.49.13,2.18.2,4.36.32,6.55.12-.94.35-2.82.47-3.75.14.58.41,1.75.55,2.34.15-1.72.27-3.44.43-5.15.49,4.61.59,9.24.79,13.86a82.358,82.358,0,0,1,1.15-13.55c.26,3.59.41,7.19.6,10.78.27-3.49.38-7,1.7-10.42.15,2,.31,3.94.46,5.91.17-2.08.34-4.15.55-6.23.4,3.11.55,6.23.8,9.34.1-3.69.18-7.39.33-11.08.19,1.15.3,2.28.51,3.44.18-1.13.28-2.29.48-3.41.1,4.72.11,9.45.3,14.17.32-6.35.75-12.7,1.36-19q.36,6.06.89,12.11a79.885,79.885,0,0,0,.79-8.3c.13.6.38,1.78.5,2.37.16-.9.31-1.81.46-2.71.16,1.15.22,2.27.39,3.43.2-1,.26-2.09.52-3.09.09,2.53.16,5.06.25,7.58a28.1,28.1,0,0,1,1.46-6.6c.69,2.62.54,5.31.69,8,.36-2.55.37-5.19,1.47-7.63.25.51.75,1.54,1,2.06v-4.72c.45,1.48.9,3,1.4,4.43.22-1,.64-3.13.85-4.17.33,2.89.41,5.78.59,8.68.19-3.59.21-7.21,1.22-10.73.19,2.65.33,5.3.48,8,.46-2.75,1-5.49,1.38-8.24q.27,3,.57,5.91a33.216,33.216,0,0,0,1.32-4.19c-.05.83-.09,1.65-.12,2.48l1-.6c.07.63.2,1.9.27,2.53.14-1.71.19-3.43.3-5.14.27,1.17.47,2.34.73,3.52a31.615,31.615,0,0,0,1.33-3.8c-.06,1.77-.11,3.54-.13,5.32.21-.33.42-.65.62-1l.78,1c0-1.67.05-3.33.1-5,.07.53.2,1.58.27,2.1l.91-.52c.06.94.13,1.89.2,2.84.14-1.82.28-3.65.41-5.47q.321,2.79.64,5.6a32.259,32.259,0,0,0,1.36-3.44,115.018,115.018,0,0,0,.92,16.57c.3-4.16.39-8.33.54-12.49a137.825,137.825,0,0,1,1.37,18.7c.16-4.21.19-8.43.19-12.64h.43c0,7.55-.06,15.11,0,22.67l.87-1.93c0,4.83,0,9.66.24,14.48,1-9.45.35-19,.81-28.43.46,5.08.74,10.15.89,15.24.18-2,.36-3.92.56-5.87.12,5.66,0,11.32.36,17,.26-6.93.47-13.87.78-20.8.18,1.36.36,2.73.55,4.1q.15-5.35.39-10.7c.92,8.71.57,17.45.6,26.19h.48c.23-8.5-.81-17.08,1-25.5q.3,4,.55,8c.23-3.7.43-7.4.91-11.08.17,5.78,0,11.56.38,17.34.24-6.13.07-12.26.43-18.38.17,2.88.24,5.77.39,8.66.31-2.51.64-5,1.07-7.52l.88,1.16a80.084,80.084,0,0,1,.75-10.24c.34,8.07-.19,16.16.4,24.23.43-9.24-.14-18.5.34-27.75.26,2.66.46,5.32.8,8,.23-1.39.47-2.77.71-4.15.37,2.41.5,4.83.75,7.25.12-2,.23-3.9.36-5.84.36,3,.63,6,.94,9a93.733,93.733,0,0,1,.77-13.49c.22,3.33.26,6.67.39,10,1.48-3.41,1.53-7,1.78-10.61.081.39.151.79.24,1.19.61.07,1.22.12,1.82.2v2.26c.56-1.74,1.13-3.48,1.831-5.19.38,1.25.69,2.51,1,3.78,0-.57.109-1.71.14-2.28.24.54.479,1.07.729,1.6.081-.58.25-1.75.341-2.34.09.9.2,1.8.3,2.71.109-.48.32-1.45.43-1.93.169.47.51,1.41.69,1.88.07-1.46.159-2.93.25-4.39.159,1.37.33,2.75.5,4.13.13-1.14.169-2.3.33-3.43a55.74,55.74,0,0,1,1.87,11.41c0-3,.25-6,.28-9,.29,4.73.8,9.46,1.42,14.18.13-3.13.27-6.25.52-9.37.88,5.87.38,11.81.67,17.71.28-3.11.56-6.23.92-9.33q.44,3.6.83,7.21c.28-2.54.52-5.06,1-7.58.24,5.37,0,10.77,1.08,16.09a70.137,70.137,0,0,0,.94-12.59c.15.94.44,2.81.59,3.75.17-1.6.3-3.21.48-4.8.14,5.48.1,11,.08,16.46h.47c0-7-.12-14,.14-21,.41,4.26,1,8.52,1.4,12.78.05-6.13.86-12.22,1.36-18.33.14,4.23.2,8.47.51,12.7.26-.37.53-.73.8-1.1.15.49.31,1,.48,1.48.06-2.75.16-5.49.26-8.23.13,3,.34,6,.49,9,.62-5,.64-9.93.84-14.9a105.759,105.759,0,0,0,.94,11.1c.83-5.18.49-10.41.81-15.61.12,2.77.29,5.53.42,8.3.07-3,.33-6,.44-9,.37,7.05,0,14.11.42,21.16.94-6.74.6-13.53.62-20.29h.43c0,6.32,0,12.67,1.14,18.93.27-5.43.19-10.87.84-16.29,1.11,5.79.26,11.67,1.14,17.48.95-8-.05-16.07.56-24.09.16,3,.34,6,.49,9,.18-2.19.32-4.38.5-6.57.13,5.55,0,11.1.4,16.64.82-5.27.43-10.61,1.25-15.88,1,7.58.36,15.22.88,22.83.4-7.75,0-15.5.39-23.24.19,1.6.3,3.2.47,4.81.15-2.41.29-4.82.46-7.22.48,7.25-.43,14.57.88,21.78.31-6.05-.09-12.13,1.12-18.13.53,5.59.27,11.2.59,16.79.22-5,.18-9.91.25-14.87.24.76.48,1.52.74,2.29q.129-2.9.33-5.79c.2,7.74.26,15.48.84,23.21.2-8.09,0-16.21,1.38-24.25.26,7.74-.13,15.49.37,23.22.28-8.44.81-16.87,1.3-25.31.5,7.28.51,14.57.88,21.85.34-6.75-.15-13.52.54-20.26,1.74,5.6.6,11.45,1.15,17.15.89-6.12.35-12.3,1.21-18.42.61,6.12.7,12.25.93,18.39.4-6,.5-12,1.22-18,.4,5.92.15,11.86.73,17.78,1-6.34.71-12.76,1.09-19.13.29,6.11.53,12.23.88,18.34.24-6.23.39-12.46.87-18.69.12,4.21.21,8.42.67,12.62.57-3.86.65-7.76,1.48-11.59.19,3.69.27,7.38.43,11.08.35-3.21.78-6.42,1.35-9.62.21,2.51.43,5,.72,7.54a68.484,68.484,0,0,1,1.319-9.65c.3,3,.48,6,1,8.93.11-2.86.15-5.72.25-8.57.47,1.82,1,3.62,1.45,5.44.25-2.26.53-4.52.8-6.79a58.336,58.336,0,0,0,1.36,9.26c.12-3,.2-6,.32-9,.17,1,.33,1.91.5,2.86Z"/><path d="M560.29,193.789c-.282-1.567-.512-3.143-.654-4.73-.74,2.6-1.091,5.25-1.61,7.87-.16-3.06-.27-6.13-.34-9.19a51.057,51.057,0,0,1-1.22,6.9c-.63-2.15-1.13-4.32-1.59-6.49-.2,2.7-.35,5.4-.71,8.09-.141-2.23-.27-4.45-.41-6.68-.431-.33-.85-.68-1.27-1-.23,1.64-.431,3.28-.63,4.92-.11-1.91-.21-3.82-.321-5.72-.149,1.36-.46,4.09-.609,5.46-.55-3.41-.58-6.86-1.121-10.27-.219,3.88-.25,7.76-.429,11.64-2.65-5.22-1.12-11-1.811-16.44-.2,4-.209,8-.389,12-.19-2.62-.32-5.24-.5-7.86-.121,3.3-.21,6.6-.351,9.9-.139-3-.329-5.91-.449-8.87-.36,1.68-.67,3.36-1,5.05-.17-4.09-.41-8.16-.79-12.24-.13,3.68-.261,7.35-.64,11-.81-6.27-.17-12.6-.69-18.89-.211,5.13-.11,10.26-.41,15.39-.18-2.84-.23-5.69-.35-8.53-.24,2-.51,4-.77,5.93-.81-7.67,0-15.37-.57-23.06a90.02,90.02,0,0,0-.8,11.6c-.3-1.13-.59-2.27-.89-3.4-.19,2.4-.37,4.79-.55,7.19-.38-3.41-.591-6.83-.81-10.25l-.54,5.79c-.19-6.22-.08-12.43-.07-18.64h-.48c-.12,12,.33,24.08-.23,36.11-.32-6.44-.67-12.89-.6-19.34,0-4.94.15-9.92-.71-14.83-.24,3.38-.42,6.77-.83,10.15-.18-1.46-.35-2.92-.52-4.38-1.11,10.94.17,21.94-1.12,32.87-.24-3.2-.36-6.39-.49-9.59-.17,1-.48,2-.58,3-.13-2.27-.23-4.54-.34-6.8-.11,6.41-1.31,12.75-1.771,19.14,0-1-.139-2-.149-3l-1.06-.19c-.29,1.23-.53,2.47-.81,3.7-.22-3.4-.33-6.81-.88-10.19-.23,3.17-.33,6.36-.81,9.52-.47-2.49-.74-5-1-7.5-.13,2.29-.26,4.57-.41,6.86a34.81,34.81,0,0,1-1.36-4c-.21,1.15-.56,2.27-.74,3.43a53.756,53.756,0,0,1-1-8.67,93.872,93.872,0,0,1-.77,10.3c-.92-3.28-.68-6.67-1-10a45.077,45.077,0,0,0-.61,8.12c-.48-.88-.92-1.76-1.39-2.64-.15.69-.45,2-.59,2.73-.31-2.73-.55-5.46-.81-8.18-.22,2.83-.4,5.68-.7,8.51-.4-2.49-.76-5-1.1-7.49-.57,3.15-.88,6.33-1.27,9.5-.14-3.39-.28-6.77-.72-10.14-.34,2.4-.28,4.9-1.34,7.2-.17-2-.32-3.91-.45-5.87-.29,2.05-.56,4.1-.9,6.14a66.05,66.05,0,0,1-.85-7.15c-.34,1.71-.68,3.42-1.07,5.12-.32-1.7-.53-3.42-.76-5.12-.13,2.15-.26,4.31-.4,6.46a59.415,59.415,0,0,1-1.28-9.55c-.21,2.47-.36,4.95-.67,7.42-.37-1.21-.7-2.41-1.08-3.61-.28,1.1-.62,2.19-.87,3.3-.29-1.9-.57-3.8-.86-5.7-.13,1-.24,2-.36,3-.52-1.13-1.05-2.27-1.53-3.4-1.21,2.36-.81,5-1.06,7.45-.3-1.22-.59-2.44-.9-3.66-.17,1.45-.32,2.9-.47,4.36a104.645,104.645,0,0,1-.81-11.6c-.26,2.71-.46,5.44-.85,8.14-.1-1-.29-3-.38-4-.23.75-.44,1.5-.64,2.26-.12-2.48-.25-5-.42-7.44-.51,3.63-.57,7.28-.73,10.93-.24-2.27-.44-4.53-.72-6.79-.4,1.1-.74,2.23-1.12,3.34a44.478,44.478,0,0,1-.74-6.28h-.62q-.15,3.66-.32,7.33a93.644,93.644,0,0,0-.83-10.54c-.37,4.43-.63,8.86-.89,13.3-.78-5.68-.54-11.41-.84-17.11a86.711,86.711,0,0,1-.86,11c-1.06-4.88-.66-9.87-1.37-14.78-.2,6-.05,12.09-.37,18.14-.2-4.91-.38-9.81-.84-14.7a56.193,56.193,0,0,1-1.28,8.52c-.21-2.16-.36-4.31-.53-6.47-.14,3.19-.24,6.37-.41,9.56-.19-2.85-.28-5.7-.44-8.54-.14,3.76-.22,7.52-.4,11.28-.32-8.49-.75-17-.64-25.49h-.45c0,7.47.24,14.95-.24,22.42a95.606,95.606,0,0,1-.84-9.56c-.19,1.94-.36,3.88-.54,5.82-1.28-3.56-1-7.3-1.18-11-.11,3-.31,5.92-.42,8.88-.18-1.93-.36-3.86-.52-5.79-.12,4.78-.15,9.57-.37,14.35a108.3,108.3,0,0,0-.8-10.93c-.26,3.3-.34,6.6-.52,9.9-.15-5.38-.15-10.78-1.21-16.11-1.67,4.1-1.09,8.46-1.4,12.68-.17-3.51-.26-7-.58-10.52l-.54,1.36-.83-.51q-.06,3.651-.15,7.29c-.27-2.17-.5-4.34-.82-6.5q-.27,3.591-.51,7.17c-.23-2.06-.45-4.13-.69-6.19-.38,2.86-.46,5.72-.67,8.58-.14-2.15-.25-4.31-.37-6.47-.59,4.34-.18,9-2.89,12.95-.48-1.38-.85-2.77-1.36-4.14-.19,2.42-.38,4.83-.56,7.25a83.383,83.383,0,0,0-.88-9.17c-.1,1.68-.19,3.36-.27,5l-1.2-1.07q-.12,3-.25,6c-.17-3.41-.23-6.83-.41-10.24-.15,2.15-.26,4.31-.39,6.48-.15-1-.41-2.06-.5-3.05-.14,1.35-.27,2.71-.4,4.07a36.45,36.45,0,0,1-1.35-9.55c-.27,3.18-.5,6.38-.76,9.56-.19-.9-.37-1.81-.54-2.71-.09,1-.29,2-.34,3-.31-2.53-.45-5.08-.89-7.6-.35.81-.69,1.62-1,2.42-.84-5.17-.86-10.41-1.58-15.59q-.27,2.861-.53,5.75a117.32,117.32,0,0,1-.57-14.89h-.39a89.675,89.675,0,0,1-.65,13.89c-.27-2.85-.35-5.72-.54-8.57-.12,3.86-.16,7.74-.33,11.6-.79-6.71-.51-13.45-1-20.18-.71,4.31-.55,8.67-.81,13-.17-5.36-.141-10.72-.35-16.07-.44,5-.72,10-.92,15-.44-8.09.05-16.19-.4-24.28-.19,2-.35,4.09-.52,6.14-.15-2.73-.25-5.46-.4-8.19-.74,8.43-.45,16.88-.85,25.32-.35-5.35-.61-10.7-.84-16-.16,3.52-.31,7-.45,10.57-.171-3.07-.27-6.15-.421-9.22-.219,3-.369,5.94-.789,8.89a39,39,0,0,1-1.12-6.13c-.13,7.87.1,15.73-.18,23.59-.21-1.36-.411-2.72-.6-4.07-.23,3.75-.45,7.49-.73,11.24-.29-1-.561-1.95-.851-2.92-.569,1.41-1.2,2.8-1.8,4.2-.29,1.14-.63,2.26-.9,3.41l-.87-2.2c-.3,2.12-.57,4.25-.891,6.37-.129-2.49-.25-5-.379-7.46-.36,2.37-.631,4.74-.921,7.11-.139-1.9-.26-3.81-.389-5.71-.351,1.56-.68,3.13-1,4.71-.081-2.38-.16-4.75-.23-7.13-.32,1.7-.581,3.4-.911,5.09-.18-1.58-.32-3.16-.47-4.74-.27,1.59-.53,3.17-.809,4.76l-.6-5.48c-.441,3-.591,5.93-.851,8.9-.09-4.46-.109-8.92-.47-13.37-.39,2.73-.57,5.48-.79,8.23-.2-3.19-.28-6.39-.7-9.57-.189,3-.4,5.92-.55,8.88-.159-4.12-.24-8.24-.59-12.36-.8,4.21-.47,8.48-.73,12.72a99.046,99.046,0,0,0-.819-10.62c-.2,2.85-.33,5.7-.47,8.55-.27-3.88-.51-7.75-.85-11.61-.16,2-.29,4.07-.44,6.11-.34-2-.63-4-.92-6.06-.17,1.58-.34,3.15-.5,4.74-.37-1.81-.58-3.64-.83-5.45-.12,2.84-.21,5.68-.37,8.51-.57-3.86-.65-7.75-.88-11.62-.12,3.89-.19,7.77-.49,11.65a91.271,91.271,0,0,1-.54-13.54h-.36c0,3.48-.13,7-.34,10.46a65.449,65.449,0,0,1-.74-7.38h-.27c-.06,2.9-.14,5.81-.26,8.72q-.63-3.919-.91-7.86c-.16,2.51-.31,5-.5,7.53-.6-4.09-.57-8.22-.81-12.33-.15,3.3-.24,6.61-.41,9.92-.31-3.3-.55-6.59-.79-9.89-.22,2.5-.54,5-.87,7.5-.17-1-.38-2.07-.55-3.06-.22,2.72-.38,5.44-.72,8.15l-.6-7.15c-.08,5.14.09,10.3-.73,15.41-.36-5.59-.19-11.19-.53-16.78-.33,6.73.2,13.48-.72,20.19-.6-7.52,0-15.06-.57-22.59-.25,7.07-.15,14.16-.92,21.21-.34-8,.19-16-.4-23.95-.329,7.42.151,14.87-.869,22.26-.22-6.05-.06-12.11-.381-18.15-.539,5.69-.609,11.41-.909,17.11-.32-7.18.05-14.38-.41-21.56-.34,7.87-.441,15.75-.9,23.62-.281-6.74,0-13.47-.41-20.2-.56,4.32-.66,8.67-.91,13-.19-6.16,0-12.32-.35-18.47a217.634,217.634,0,0,0-.631,22.41h-.469c-.07-7.36.42-14.75-.5-22.09q-.351,3.581-.66,7.18c-.111-4-.15-8-.45-12-1.441,8.85.11,17.84-.78,26.73-.3-7.19-.45-14.37-.891-21.56-.26,6.5,0,13-.4,19.51-.28-5.7,0-11.43-.871-17.09-.21,5.23-.169,10.47-.419,15.71-1.25-9.32-.22-18.71-.88-28.06-.481,8.78.1,17.58-.411,26.36-1.189-9.22-.27-18.49-.89-27.73-.589,11.64.24,23.29-.469,34.92-.24-14.84-.411-29.68-.86-44.51-.781,12.89.78,25.84-.811,38.68-.47-7.3,0-14.61-.48-21.9-.26,6-.1,12.08-.349,18.12-1.141-5.66-.51-11.4-.941-17.09-.429,7.63.27,15.3-.85,22.91-.62-14.37.281-28.75-.48-43.11-.45,9,.151,18.12-.339,27.18-.431,7.25,0,14.52-.48,21.77-.6-14.49.23-29-.441-43.47-.44,13.46-.5,26.93-.89,40.39-.5-11.18.18-22.37-.38-33.55-.74,8.89-.5,17.8-.9,26.7-.25-5.93-.1-11.87-.46-17.8-.87,6-.57,12.07-.6,18.11-.26-.52-.51-1-.76-1.56-.349,2.81-.57,5.62-.76,8.44-1.61-2.77-1.589-5.86-1.74-8.85-.27,1.8-.49,3.6-.829,5.39-.181-1.11-.4-2.26-.561-3.36-.31,2.61-.57,5.22-.85,7.84-.359-2.48-.579-5-.71-7.46-.07.43-.2,1.27-.26,1.7l-.85-.45c-.289,2-.66,3.91-1.08,5.86-.5-4.56-1.25-9.11-1.87-13.66-.51,3.87-.589,7.84-2,11.6-.37-1.82-.69-3.64-1.049-5.46-.55,2.37-.9,4.77-1.311,7.16-.449-3.85-.53-7.72-.7-11.59-.191,1.13-.4,2.25-.571,3.39-.11-4.66.061-9.34-.83-14-.139,3.85-.15,7.69-.21,11.55-.35-1-.679-2-1-3-.119,1.93-.23,3.86-.35,5.78-.13-.6-.39-1.8-.529-2.4-.341.78-.661,1.58-1,2.38-.081-2.27-.2-4.53-.28-6.79-.171,2.38-.331,4.77-.49,7.15-.141-3.07-.25-6.14-.41-9.22-.181,1.59-.33,3.17-.49,4.76-.11-2.49-.2-5-.3-7.47-.31,2.59-.54,5.19-.851,7.79-.349-2.13-.689-4.26-1.07-6.39-.1,3.4-.17,6.8-.32,10.2-.17-3.65-.25-7.3-.39-11-.159,1-.39,2-.52,3-.25-2.15-.49-4.31-.8-6.47a60.187,60.187,0,0,1-1.441,10.59c-1-3-1-6.12-1.139-9.19-.151.93-.441,2.78-.581,3.71-.29-8.2.2-16.42-.38-24.62-.4,8,.09,16-.35,24-.209-1.59-.4-3.19-.59-4.77-.129,5.53-.079,11.05-.06,16.58h-.469c0-7.47.16-14.94-.131-22.4-.35,4.21-.65,8.42-1,12.64-.38-5.13-.6-10.26-.88-15.39-.23,6-.16,12-.13,18h-.42c0-4-.07-8.09-.309-12.14-.261,9.35-.051,18.72-.74,28.06-.141-.59-.441-1.76-.581-2.34-.409,2.26-.79,4.52-1.179,6.78-.291-1.93-.571-3.85-.891-5.78-.329,1.69-.64,3.39-.93,5.08q-.66-3.7-1.33-7.41c-.17,2-.329,4.06-.519,6.1-.43-1.92-.74-3.86-1.141-5.79-.189,2.15-.369,4.31-.569,6.46-.34-1.71-.6-3.43-.881-5.14-.369,1.47-.709,2.95-1.14,4.41-.38-2.12-.65-4.25-.94-6.38-.22,2.48-.409,5-.72,7.44-.25-2.54-.47-5.08-.74-7.62-.39,2.28-.579,4.58-.949,6.87-.391-1.72-.691-3.44-1.161-5.14-.2,1-.61,3.13-.809,4.17-.381-2.49-.621-5-.821-7.48-.35,3.29-.63,6.59-.949,9.89-.74-4.29-.5-8.64-1.151-12.94-.24,3.52-.42,7-.859,10.55-.24-2.09-.47-4.19-.73-6.28-.25,2.08-.411,4.16-.591,6.25-.34-1.82-.6-3.65-1-5.46-.39,1.71-.679,3.42-1,5.13-.45-3.06-.47-6.16-.73-9.23-.39,3.3-.64,6.62-1.08,9.92-.38-3.53-.71-7.05-1-10.58-.23,2.28-.48,4.56-.79,6.83-.4-1.45-.74-2.91-1-4.37-.35,1.8-.829,3.58-1.26,5.38-.1-.94-.3-2.81-.41-3.75-.25,1.38-.49,2.75-.73,4.14a76.034,76.034,0,0,1-1-11.64c-.32,3.62-.62,7.25-.86,10.88-.34-2.95-.66-5.91-1-8.86-.64,3.15-.809,6.35-1.25,9.52a133.292,133.292,0,0,0-1.249-15.25c-.1,4.11-.17,8.21-.44,12.31-.79-3.73-.59-7.54-.87-11.3-.15,4-.17,7.95-.29,11.93-.53-3.4-.89-6.82-1.39-10.22-.38,2.49-.64,5-.89,7.48-.16-4.08-.44-8.16-.89-12.23-.16,5.34-.14,10.68-.29,16a95.386,95.386,0,0,0-1.44-9.88c-.54,3.63-.64,7.28-.841,10.92-.2-6.16-.449-12.31-.879-18.46-.21,5.91-.111,11.84-.31,17.76-1.28-7.59,0-15.32-1.9-22.85-.1,4.77-.11,9.54-.36,14.31-.291-6.84-.5-13.68-.85-20.52-.27,5.81-.16,11.62-.4,17.44-.78-6.14-1.18-12.3-1.37-18.47-.18,4.78-.1,9.6-1.32,14.3-.33-7.62.12-15.25-.43-22.87-.44,8.55.18,17.12-.4,25.67-.4-5.13-.42-10.29-1.26-15.39-.21,4.47-.22,9-.63,13.42-1.78-8.75-.32-17.64-1.17-26.44-.51,8.3.44,16.66-.84,24.93l-.391-5.75c-.149,1.36-.289,2.71-.419,4.06-.12-.92-.37-2.77-.49-3.7-.17,1.13-.341,2.24-.48,3.38q-.21-3.071-.43-6.13c-.13,4.33-.171,8.66-.33,13-.25-3.75-.48-7.51-.94-11.26-.151,4.1-.18,8.19-.27,12.29q-.6-1.15-1.17-2.31c0,1.44,0,2.87-.05,4.31l-.8-1.89c-.1,2.13-.19,4.26-.31,6.4-.14-4.22-.2-8.44-.43-12.65-.3,6.17.19,12.38-.74,18.53-.28-.51-.84-1.52-1.13-2,0,.66-.13,2-.17,2.62-.3-2-.56-4.07-.91-6.1-.2,1.69-.34,3.39-.5,5.08-.24-1.34-.48-2.68-.71-4-.22.53-.451,1.06-.67,1.6-.23-2.7-.38-5.4-.781-8.09-.209,2-.419,4.09-.659,6.13-.341-2.28-.49-4.58-.72-6.87-.08,3.19-.19,6.36-.31,9.55l-.48-7.15c-.16,1.47-.31,2.94-.47,4.42-.07-1-.17-2-.21-3-.51,1.12-1,2.26-1.56,3.36-.13-3.78-.19-7.55-.341-11.33-.489,3.75-.739,7.52-.909,11.29a78.736,78.736,0,0,1-.68-10.19l-.68,1.9a81.283,81.283,0,0,0-.74-8.8c-.25,3.86-.29,7.73-.41,11.6-.36-2.94-.68-5.87-1-8.8-.1,2.47-.22,4.95-.34,7.44-.14-3-.34-5.91-.47-8.87-.16,3.07-.3,6.15-.48,9.22-.15-4.44-.17-8.89-.4-13.34-.06,1.53-.1,3-.13,4.56l-1-.59q-.111,3-.25,5.94c-.16-3.41-.23-6.83-.41-10.25-.16,3.77-.24,7.53-.43,11.29-.15-3.76-.22-7.52-.41-11.27-.1,2.9-.2,5.8-.25,8.71h-.32c-.08-2.9-.17-5.8-.31-8.71-.12,3.19-.29,6.37-.42,9.56-.11-2.9-.211-5.81-.25-8.71h-.32c-.08,2.91-.18,5.81-.32,8.72-.15-3.19-.22-6.37-.321-9.56a61.617,61.617,0,0,1-1.28,7.86c-.26-3.54-.409-7.08-.559-10.61-.14,3.64-.25,7.29-.431,10.93-.169-3.18-.26-6.38-.449-9.56-.15,3.18-.21,6.38-.35,9.57-.15-.89-.29-1.77-.431-2.66-.1.4-.189.8-.28,1.2l-1.769.18c0,2.36-.07,4.72-.12,7.09-.361-1.79-.7-3.59-1-5.38-.13,1.91-.27,3.82-.4,5.72-.14-3.29-.191-6.59-.33-9.88a139.745,139.745,0,0,0-.871,15c-.209-2.52-.419-5-.679-7.54-.321,2.16-.52,4.33-.77,6.5a125.341,125.341,0,0,0-.82-14.35c-.14,4.9-.13,9.81-.4,14.71-.21-5.47-.12-11-.43-16.42-1.3,6.34-.27,12.79-.78,19.17-.22-1.48-.43-3-.64-4.43q-.45,4.08-.75,8.17c-.16-5.25-.31-10.49-.83-15.73-.19,2.05-.36,4.09-.54,6.15-.26-7.41.14-14.83-.38-22.24-.2,8.81-.3,17.62-.89,26.42a42.676,42.676,0,0,1-1.49-4.06c.06,1.8.13,3.61.19,5.41l-1.35-.51c-.191,1.18-.37,2.36-.57,3.54l-.73-2c-.33,1.45-.59,2.9-.82,4.37-.25-2.38-.47-4.75-.78-7.12-.12,1.36-.35,4.07-.47,5.43-.23-3.29-.44-6.58-.89-9.85-.15,2.71-.26,5.42-.411,8.14-.159-2.63-.27-5.26-.449-7.89-1,2.46-1.811,4.94-2.65,7.42l-.94-1.43-.18,1.45c-.43-1.8-.85-3.59-1.33-5.37-.211,1.14-.4,2.26-.59,3.41-.111-1.58-.19-3.17-.28-4.75l-.4,2.33c-.42-1.24-.82-2.48-1.25-3.72-.15.94-.45,2.81-.59,3.75-.13-.94-.37-2.81-.49-3.75-.33,1.81-.55,3.62-.81,5.43-.26-1.46-.52-2.93-.81-4.39-.14,1.36-.41,4.09-.55,5.45-.11-2.26-.181-4.53-.27-6.79-.43,3.52-1,7-1.4,10.54-.24-2.38-.44-4.76-.8-7.12-.2,2.15-.34,4.29-.5,6.45-.25-2.74-.44-5.48-.81-8.2-.2,2.62-.34,5.24-.52,7.86-.15-3.54-.25-7.08-.641-10.61-.229,2.39-.449,4.79-.649,7.18a96.815,96.815,0,0,0-.851-10.19c-.159,3.62-.229,7.24-.359,10.86q-.581-5.61-1-11.24c-.141,4.67-.17,9.33-.391,14-.75-5.45-.589-10.94-.919-16.41-.21,4.5-.16,9-.15,13.51h-.85c0-4.62,0-9.24-.28-13.86-.26,5.68.12,11.41-.86,17.06-.23-5.91-.07-11.83-.45-17.74-.241,5.7-.07,11.4-.39,17.11-.87-7.29-.46-14.61-.87-21.91-.27,7.3-.28,14.61-.94,21.9-.18-5.7,0-11.41-.4-17.1-.2,4.39-.17,8.78-.16,13.17h-.88c0-6.33.149-12.67-.25-19-.24,6.06,0,12.13-.5,18.18a90,90,0,0,1-.78-10.63c-.13,3.77-.24,7.55-.68,11.32-.62-6.91-.34-13.83-.34-20.75h-.49c0,5.76.1,11.52-.19,17.28-1.1-6.7-.41-13.47-.88-20.19-.25,5.6-.14,11.21-.94,16.77-.35-7.87.14-15.75-.4-23.62-.26,7.87-.33,15.75-.9,23.62-.18-5.59-.07-11.19-.37-16.78-.52,4.67-.66,9.36-.91,14-.16-4.89-.16-9.79-.31-14.68q-.561,5.441-1,10.89c-.19-5.75-.16-11.51-.12-17.26h-.47c0,5.39.36,10.85-.73,16.2-.29-6.82,0-13.66-.32-20.48-.67,5.23-.7,10.48-1,15.73-.22-6-.07-12.09-.38-18.14-.72,8.83-.69,17.69-.62,26.53h-.47c-.21-8.25.66-16.55-.68-24.76-.45,8.77.16,17.54-.44,26.3-.17-5,0-10.07-.77-15.07-.49,7.07-.06,14.16-.5,21.23-.53-9.92.15-19.86-.41-29.78-1.35,8.64-.17,17.35-.9,26-.19-5.48,0-11-.73-16.44-.75,8.78.07,17.59-.59,26.37-.64-12.49.49-25-.6-37.49a63.2,63.2,0,0,0-.5,7.53c.12,11.42.06,22.83.09,34.24h-.48c-.08-9.19.45-18.4-.67-27.56-.21,5.36-.28,10.73-.88,16.08-.17-2.73-.26-5.47-.44-8.19-.59,6.48.87,13.17-1.25,19.52-.17-2.63-.29-5.26-.42-7.88l-.27,4c-.26-.53-.52-1.06-.79-1.59v3.29l-.84-1.21c-.14.68-.4,2-.54,2.72-.23-1-.43-2.06-.64-3-.4,1.1-.8,2.2-1.21,3.31l-2.04-.72c-.6,1-1.23,2-1.91,3l-1.34-4-.67-.12a22.309,22.309,0,0,0-3.85,3.79l-1.53.15a1.779,1.779,0,0,0,.1.38h1.86c.11.93.32,2.79.43,3.72a18.71,18.71,0,0,0,2.16-3.7c.61,1.19,1.24,2.36,1.9,3.52l1.12-1.94c.24,1.2.47,2.41.72,3.61l.72-1.54c.07.57.21,1.72.29,2.3.24-1.16.47-2.31.77-3.46.61-.66,1.16-1.39,1.7-2.08.41,1.3.73,2.72,2.14,3.58.1.46.31,1.37.41,1.83l.82-1.11c.06,2.13.12,4.26.2,6.39.15-1.93.3-3.87.46-5.79.13,1.35.25,2.7.38,4,.15-.92.46-2.77.61-3.69.09,3.35.07,6.7.09,10.06h.42c0-4,.06-8.1.26-12.15.81,8.69.28,17.41,1.09,26.1.75-5.72.27-11.47.66-17.2.33,6.16-.21,12.36.79,18.49.61-7.86-.06-15.75.52-23.62.52,8.91-.29,17.85.56,26.75,1.24-8.65-.09-17.39.76-26.06.5,13.68-.22,27.38.36,41.07,1.68-13.08-.08-26.26.92-39.37.82,12.07-.83,24.22.92,36.24.43-11.28-.27-22.57.39-33.84.44,8.83-.12,17.67.36,26.5.38,6.69.06,13.38.51,20.06.56-15.86-.31-31.73.44-47.58.41,7.91-.1,15.84.35,23.76.43,7.25,0,14.51.48,21.77.6-13.92-.26-27.85.46-41.76.86,14.37.33,28.75.84,43.13.56-13.35-.17-26.7.38-40,1.61,10.56,0,21.23,1,31.82.49-12-.21-24,.36-35.94,1.32,15.38.17,30.81.9,46.21.62-14.5-.29-29,.48-43.5,1.46,8.27,0,16.69.82,25,.47-8.22-.13-16.46.46-24.68a32.76,32.76,0,0,1,.65,8.08c0,6.9-.24,13.81.19,20.71.6-8.83-.37-17.69.63-26.51.36,1.74.52,3.49.76,5.25.14-2.16.27-4.32.44-6.47.74,5.62.55,11.3.52,17h.43c-.09-8.85.3-17.69.74-26.53.16,4.56.15,9.12.41,13.68a103.494,103.494,0,0,1,.74-12.33c.5,6.62.09,13.25.57,19.86.27-6.27,0-12.55.38-18.81a92.566,92.566,0,0,0,.95,10.89c.13-4.44.14-8.87.34-13.3.39,4.09.68,8.19.81,12.29.29-2.71.56-5.41,1-8.11.15,1.91.29,3.83.43,5.74.24-3.06.4-6.12.87-9.17.16,3,.26,6.11.44,9.17.17-2.73.25-5.47.42-8.19.16,2,.28,4.07.44,6.12.28-2.6.55-5.19.77-7.79.31,1.8.6,3.6.93,5.4.15-1.93.28-3.87.43-5.8l.39,2.68c.29-1.58.56-3.16.87-4.73.2,3.54.31,7.07.52,10.61a101.9,101.9,0,0,0,.86-10.6c.13,2.5.24,5,.37,7.5.23-2.55.46-5.1.76-7.65.45,3.91.41,7.83.5,11.75.27-3.52.52-7.05.92-10.56q.21,3.57.41,7.14c.29-1.92.53-3.84.89-5.76.17,3.06.28,6.13.43,9.19.22-2.73.44-5.47.79-8.2.22,2.63.41,5.25.63,7.88a56.77,56.77,0,0,0,.77-8.2c.25,1.93.51,3.85.84,5.77.18-2.72.29-5.45.43-8.17.29,2,.51,4.08.9,6.11.21-2.83.27-5.68.42-8.52a88.717,88.717,0,0,0,.86,9.22c.25-3.41.289-6.83.44-10.25.25,4.34.54,8.66.93,13,.149-3.31.22-6.61.39-9.91.45,3.86.71,7.74.9,11.62a119.97,119.97,0,0,1,.7-12.28c.23,2.49.409,5,.6,7.48a81.05,81.05,0,0,1,.87-10.54c.11,2.71.24,5.42.33,8.14q.33-3.649.74-7.28c.26,1.62.43,3.24.639,4.87.3-1,.591-2,.9-3,.11,1.34.21,2.69.32,4,.15-.59.46-1.76.6-2.35.58,1.79,1.13,3.6,1.7,5.4.38-2.71.63-5.42.83-8.15.13,1.47.24,2.93.36,4.41.26-2.15.48-4.3.8-6.44.19,1.92.39,3.85.57,5.78.36-2.37.64-4.74.91-7.12.22,5.35.61,10.7,1.14,16s.23,10.73.57,16.09a125.824,125.824,0,0,1,2.07-23.62c.18,1.13.33,2.24.51,3.38.14-1.81.29-3.61.45-5.42.17,4.32.39,8.65.84,13,.17-4.66.19-9.33.36-14,1.48,6.9,1.62,13.89,1.81,20.87a71.587,71.587,0,0,1,1.17-12.3c.18,2.38.33,4.75.47,7.13.23-2.72.48-5.43.86-8.14.25,4.2.31,8.41.49,12.62.51-4.66.73-9.34.95-14,.14,5,.14,10,.37,15,.21-2.89.35-5.79.66-8.68.3,2.08.45,4.17.67,6.26.33-1.8.619-3.6.94-5.4.08,5.24.05,10.47.36,15.71.3-6.63,0-13.25.39-19.87a61.3,61.3,0,0,1,1.33,7.44c.13-.55.4-1.67.53-2.23.09,1,.27,3,.35,4,.17-3.19.34-6.37.65-9.55.23,1.8.43,3.61.64,5.43.12-1.36.36-4.08.49-5.43.13,2.84.21,5.68.34,8.53.31-4.22.79-8.43,1.37-12.64.45,3.06.7,6.14,1.15,9.2a41.625,41.625,0,0,0,1.41-8.83l.87,4.31c.25-2.36.42-4.72.789-7.06.191,2,.351,4.07.541,6.11.14-2.62.24-5.23.4-7.85.15,2.05.29,4.09.45,6.15.359-1.34.67-2.69,1-4,.34,3.62.55,7.24.81,10.86.13-4.33.12-8.67.62-13,.14,1.36.429,4.09.57,5.45a61.3,61.3,0,0,1,2.24-7.15c.43,1.46.85,2.91,1.27,4.38.28-1.34.55-2.67.859-4,.341,1.2.631,2.4.931,3.62,0-.46.12-1.38.15-1.84l1.23,1c.27-1.05.54-2.12.83-3.17.43,2.71.579,5.44.829,8.16.141-2.72.26-5.46.441-8.18.15,4.55.13,9.11.339,13.66.46-2.84.781-5.7,1.291-8.53.829,5.33.64,10.72.89,16.08a130.334,130.334,0,0,1,.88-13.68c1.179,8.29.32,16.64.78,25,1.21-7.38.409-14.82,1-22.22.31,5.29.46,10.6,1.129,15.88.351-2.77.391-5.55.541-8.33.13.59.4,1.75.53,2.34.17-1,.27-2,.459-3,.141,1.58.261,3.15.391,4.74.18-2.63.349-5.26.579-7.89.581,5,.481,10.06.691,15.09.16-3.64.27-7.29.42-10.93.35,3.52.74,7.05,1.37,10.55a168.69,168.69,0,0,1,1.09-20.74c.16,6,0,12.09.35,18.13.3-3.78-.32-7.8,1.69-11.34.18,2.4.35,4.81.49,7.22.63-4.77.65-9.57.9-14.35.15,4.33.17,8.66.29,13,.18-.9.37-1.79.54-2.69.14.92.4,2.77.53,3.69.19-7.06-.07-14.13.3-21.19a142.079,142.079,0,0,0,1.3,15.39c.27-4,.25-8,.38-11.95.26,3.17.46,6.34,1,9.49.46-4.88.63-9.77.88-14.66.56,4.67.65,9.36.92,14.05.38-2.73.6-5.47.88-8.2.55,4.42.81,8.87,1.26,13.3.26-6.94-.18-13.91.81-20.83.25,5.81.14,11.62.44,17.43.11-3.06.18-6.11.24-9.17l.76,1.88c.12-1.55.22-3.11.35-4.66.33,1.9.6,3.81.89,5.72.17-2.6.34-5.2.64-7.8q.319,3.589.6,7.18c.57-3.64,1-7.28,1.33-10.93.14,4.32.3,8.65.8,13,.35-4.09.64-8.19.92-12.28.23,3.31.37,6.63.86,9.92.28-4,.53-8,.88-12,.19,3.74.26,7.49.81,11.21.24-2.26.48-4.53.81-6.79a37.712,37.712,0,0,1,1,4.75c.22-1.92.42-3.84.76-5.75.35,2.26.63,4.53.91,6.81.26-2.14.53-4.28.87-6.4.2,1.57.41,3.14.64,4.71.55-2.37.93-4.77,1.28-7.17.22,2,.4,4.08.59,6.13.54-1.09,1-2.19,1.55-3.28.14,1.12.27,2.2.45,3.33.44-2.51.88-5,1.22-7.55.07,3.33.18,6.65.4,10a66.463,66.463,0,0,0,1.4-6.89c.3,1,.6,2,.92,3,.28-2,.46-4.06.68-6.09.27,2.61.53,5.23.84,7.84.25-2.17.48-4.33.78-6.49.29,1.36.56,2.71.85,4.07q.48-1.35,1-2.67c.38,1.21.69,2.43,1,3.65.43-2.11.82-4.22,1.21-6.33.19,1.59.37,3.17.57,4.77a52.055,52.055,0,0,0,1.18-5.47c.18,2,.37,4.05.63,6.07.38-1.21.7-2.44,1-3.67.3,1.46.58,2.93,1,4.37.35-1.68.56-3.38.83-5.07.45,3.5,1,7,1.62,10.46.47,5.33.23,10.68.23,16h.42c0-4.05.07-8.1.29-12.14.17,3.87.23,7.75.47,11.63a122.95,122.95,0,0,1,.7-14.37c.45,5,.72,10,.85,15,.32-2.48.59-5,1-7.43.19,4.78.1,9.58.86,14.33.22-7.08.43-14.15.84-21.22.21,5.23.17,10.47.38,15.71.13-3,.33-5.9.45-8.86.11,1.36.32,4.09.43,5.45.17-.9.34-1.8.52-2.69.21,2.32.43,4.64.72,7a60.3,60.3,0,0,0,1-6.63c.16,1.13.26,2.23.42,3.37.12-2.05.22-4.09.33-6.12q.27,3.57.55,7.14c.14-4,.16-8,.35-11.95.09,1.06.13,2.11.2,3.18l.88-.59a74.771,74.771,0,0,0,.57,10c.25-3.77.37-7.55.68-11.31.53,3,.54,5.94.79,8.92.13-5.14.3-10.27.83-15.39.36,1.68.63,3.37.94,5.06,0-.66.07-2,.09-2.63.15.27.46.82.62,1.09.58-1.4,1.15-2.81,1.72-4.21,1,4.51.69,9.13.95,13.69.39-2,.64-4.08.94-6.12.12,2.15.22,4.31.36,6.46.68-5.59.52-11.23,1.64-16.78.64,2.49,1,5,1.44,7.54.86-2.48,1.42-5,2.08-7.54.23,3.65.4,7.32.84,11a112.82,112.82,0,0,0,1.86-15.05,86.145,86.145,0,0,1,1.08,8.74l1-.07a47.551,47.551,0,0,1,1-4.68c1.52,4.33.71,8.86,1.49,13.27.39,2.56.8,5.12,1,7.7.1-4.1.17-8.2.4-12.29.2,5.82.27,11.63.87,17.44.33-7-.1-13.92.46-20.87.86,4.41.52,8.9.83,13.34.41-2.49.63-5,.95-7.48.16,6.94-.1,13.9.36,20.85.4-7.87-.1-15.74.35-23.61.68,8.89.53,17.8.94,26.69.5-11.75-.18-23.5.35-35.24,1.2,12.3.25,24.64,1,36.95.5-12.55-.23-25.11.38-37.66.43,8.9.52,17.8.9,26.7.42-6.95-.32-14,.78-20.86.73,11.62-.21,23.27.55,34.9.65-9.92-.64-19.89.74-29.78.56,8.26.16,16.54.26,24.81h.47c-.22-11.36.21-22.72.68-34.07.39,13.41.05,26.83.15,40.23h.42c.24-11.23.4-22.47.73-33.71.47,9.58-.16,19.17.38,28.75,1.65-14.11-.1-28.31.92-42.45.53,13.58-.25,27.17.41,40.74,1.21-12.07.17-24.2.86-36.28.58,11.63-.24,23.28.46,34.91.75-3.33.6-6.73.65-10.09q-.09-11.13-.06-22.26h.44a92.225,92.225,0,0,0,.58,14.86c.46-6.49.15-13,.55-19.49.58,10.62-.35,21.26.55,31.88,1.12-9.35,0-18.75.72-28.11.25,5.7.19,11.42.92,17.11.2-5.93.07-11.87.38-17.8.29,5.7.53,11.4.88,17.09.29-6.38.1-12.77.39-19.15.34,2.84.61,5.68.92,8.53.13-2.95.25-5.9.41-8.85.38,4.32.65,8.65.92,13,.15-3.31.21-6.61.36-9.91.24,3.86.48,7.72.91,11.57.13-1.91.25-3.82.38-5.73l.68,5.48c.49-4,.48-8,.67-12a101.813,101.813,0,0,0,.77,10.6c.19-2.16.3-4.31.43-6.46.27,1.57.54,3.15.84,4.72.36-.76.71-1.53,1.07-2.29.18,2.35.33,4.72.61,7.09.07-.87.23-2.59.3-3.44l.83.41c.15-.44.31-.87.47-1.29.11,2,.2,4,.32,6.05.35-2.73.62-5.47.91-8.2.24,1.32.44,2.64.63,4l.9-1.13c.24,1.66.36,3.33.55,5,.23-.92.46-1.84.7-2.76.29,1,.47,2,.78,3.06,0-1.68.05-3.36.08-5,.25.53.49,1.06.74,1.6.32-2.25.53-4.5.8-6.75.16,1.7.289,3.38.47,5.08.41-2.13.61-4.29.86-6.43.11,2.38.23,4.77.37,7.15q.449-5.8.809-11.62c.28,1.7.52,3.4.821,5.09.24-1.48.49-3,.73-4.44.38,2.39.49,4.79.719,7.19.111-2.5.211-5,.331-7.48.419,2.71.73,5.43,1,8.16.12-2.72.159-5.44.29-8.16q.519,3.72,1,7.46c.1-3.52.17-7,.33-10.56q.579,4.26,1,8.52c.11-3.07.2-6.14.33-9.21.26,2.27.479,4.54.81,6.81.2-2.5.369-5,.55-7.5.28,2.83.559,5.66.93,8.49.119-2.72.2-5.43.34-8.14.309,2.71.559,5.42.91,8.13.129-2.48.25-5,.389-7.45.321,2.49.571,5,.871,7.48.169-1.81.35-3.62.549-5.42.32,2,.511,4,.74,6.08.231-.92.61-1.78.89-2.68.051.93.171,2.8.23,3.73.27-.53.541-1.06.831-1.59,0,.94-.081,2.84-.1,3.79l1-.56c.051.94.111,1.89.181,2.83.24-1.51.45-3,.719-4.53.2,1.48.31,3,.421,4.45.27-.39.55-.78.829-1.16q-.17,11.07.671,22.13c.219-5.81.1-11.63.449-17.43.341,6.83,0,13.68.351,20.52.54-7.75.56-15.51,1-23.26.359,13,0,25.9.139,38.86h.421c0-9.93.68-19.85.45-29.78h.45c.12,10.32-.3,20.66.24,31,.28-10.16.15-20.32.88-30.46.39,11,.06,22,.15,33h.47c0-5.76-.09-11.52.18-17.28.2,1.58.34,3.16.519,4.76.2-2.84.351-5.68.641-8.51.31,2.37.6,4.76.93,7.14.21-1.81.41-3.61.6-5.42.17,4.61.16,9.22.14,13.83h.42c-.06-7.7.29-15.4.71-23.1.17,4.79.18,9.58.4,14.37,1.27-8.52.21-17.12.88-25.67.42,8.72.1,17.46.18,26.18h.46c-.14-10.33.27-20.65.69-31,.42,8.33-.14,16.67.43,25,.25-10.72.19-21.45.82-32.17.23,4.66.25,9.33.38,14,.4-4.1.7-8.19.95-12.29.17,2.63.33,5.26.56,7.89a71.419,71.419,0,0,0,.61-9.22l.52,2c.22-.77.449-1.54.67-2.3.3,2.48.47,5,.71,7.47.33-2.73.59-5.46.89-8.19.12,2.27.19,4.54.32,6.81.25-2.38.45-4.75.8-7.12.08.56.24,1.66.33,2.22.37-.64.76-1.27,1.17-1.9.1,2.61.18,5.22.3,7.83a74.808,74.808,0,0,0,1.841-10.57c.24,2.39.47,4.79.79,7.17.47-.9.76-1.87,1.29-2.75a37.448,37.448,0,0,1,.91,6.47c.12-.93.35-2.78.47-3.71.1,1.47.16,2.94.25,4.41l.51-1.6c.33,1,.67,2,1,2.94.06-1.56.09-3.13.15-4.69a14.836,14.836,0,0,0,2.25,4.79,32.126,32.126,0,0,0,1.08-3.36c.219,1.77.469,3.53.76,5.3q.219-2.859.43-5.72c.16,3.52.26,7.05.44,10.58.32-3.07.579-6.14.829-9.21.161,1.37.471,4.1.631,5.46.369-2.27.56-4.57.83-6.84.519,4.43.529,8.88.789,13.32.151-4.45.161-8.89.351-13.34.12,1,.1,2,.25,3,.29-.39.59-.78.88-1.18.09,10.59-.36,21.17.25,31.75.59-12.14-.62-24.33,1.08-36.44a71,71,0,0,1,.429,7.85c-.119,13.13,0,26.25-.079,39.38h.47c.1-15.46-.27-30.92.17-46.38.16,3,.35,5.91.51,8.88.15-3.2.26-6.39.46-9.57.36,7.86-.15,15.74.42,23.61.22-4.55.15-9.1.24-13.65.23.76.47,1.52.73,2.29.05-3.51.1-7,.25-10.53.11,3,.3,5.93.48,8.9,1-2,1.1-4.08,1.46-6.13.07,8.71,0,17.42,0,26.14h.47c0-6.85,0-13.7-.06-20.54,0-3.93,0-7.93,1.26-11.76.17,6.71-.06,13.42.24,20.12.34-6.05,1-12.08,1.44-18.12a87.054,87.054,0,0,1,.75,10.93c.18-3,.42-5.95.7-8.91.33,2.73.48,5.48.67,8.23a95.547,95.547,0,0,1,1.19-10.92c.27,3.4.4,6.82,1,10.2.24-4.31-.13-8.71,1.21-12.93.24,4.66.25,9.32.42,14,.25-4.44.49-8.88,1-13.31.13,2.15.2,4.3.32,6.46.12-.93.35-2.78.47-3.7.14.57.41,1.73.55,2.31.15-1.7.27-3.39.43-5.08.49,4.55.59,9.11.79,13.67a79.864,79.864,0,0,1,1.1-13.53c.26,3.54.41,7.09.6,10.63.27-3.44.38-7,1.7-10.28.15,1.94.31,3.88.46,5.83.18-2.05.34-4.1.55-6.14.4,3.06.55,6.14.8,9.21.1-3.65.18-7.29.33-10.93.19,1.13.3,2.25.51,3.39.18-1.12.28-2.26.48-3.36.1,4.65.11,9.32.3,14,.32-6.27.75-12.53,1.36-18.78q.36,6,.89,12a78.043,78.043,0,0,0,.79-8.19c.13.59.38,1.76.51,2.34l.45-2.67c.16,1.13.22,2.23.39,3.38.2-1,.26-2.06.52-3,.09,2.5.16,5,.25,7.48a27.319,27.319,0,0,1,1.46-6.51c.69,2.58.54,5.23.69,7.86.36-2.53.37-5.13,1.47-7.54.25.51.74,1.53,1,2v-4.65c.45,1.45.9,2.92,1.4,4.37.22-1,.64-3.09.85-4.12.33,2.85.41,5.71.59,8.57.19-3.54.21-7.12,1.22-10.59.19,2.62.33,5.23.48,7.86.46-2.71,1-5.42,1.38-8.14.18,1.95.37,3.89.58,5.84a33.125,33.125,0,0,0,1.31-4.13c-.05.81-.09,1.62-.12,2.44l1-.59c.07.62.2,1.87.27,2.5.14-1.69.19-3.39.3-5.08.28,1.16.47,2.31.73,3.47a30.475,30.475,0,0,0,1.33-3.75c-.07,1.75-.11,3.5-.13,5.26l.62-1,.78.93c0-1.64,0-3.28.1-4.92.07.52.2,1.56.27,2.08l.91-.52c.06.93.13,1.87.2,2.81.14-1.8.28-3.61.41-5.4l.64,5.52a31.789,31.789,0,0,0,1.36-3.39,111.85,111.85,0,0,0,.92,16.35c.3-4.11.39-8.22.539-12.33a134.334,134.334,0,0,1,1.371,18.46c.16-4.16.19-8.32.19-12.48h.429c0,7.46-.059,14.91,0,22.37.22-.48.651-1.43.871-1.9,0,4.76,0,9.52.24,14.28,1-9.33.349-18.7.81-28.05.46,5,.74,10,.89,15,.179-1.94.36-3.87.56-5.79.119,5.58,0,11.17.359,16.75.26-6.84.47-13.69.78-20.53.181,1.35.361,2.7.551,4.06q.15-5.289.39-10.57c.92,8.6.569,17.23.6,25.84h.51c.23-8.38-.81-16.85,1-25.15q.3,3.921.55,7.85c.23-3.65.43-7.3.92-10.94.16,5.71,0,11.41.37,17.12.24-6.05.07-12.1.43-18.14.169,2.85.24,5.69.39,8.54.31-2.47.64-4.94,1.07-7.41l.88,1.14a77.41,77.41,0,0,1,.75-10.1c.34,8-.19,15.94.4,23.91.43-9.12-.13-18.26.34-27.38.26,2.62.46,5.25.8,7.87.23-1.37.47-2.74.71-4.1.37,2.38.5,4.77.75,7.16.12-1.93.23-3.85.36-5.76.36,2.93.63,5.88.94,8.82a90.992,90.992,0,0,1,.77-13.3c.22,3.28.26,6.57.39,9.86,1.48-3.36,1.53-7,1.78-10.47.08.39.15.78.24,1.18.61.07,1.22.12,1.82.2v2.23c.56-1.72,1.13-3.44,1.84-5.13.37,1.24.68,2.48,1,3.73,0-.56.11-1.68.14-2.24.24.52.48,1,.73,1.58.08-.58.25-1.74.34-2.31q.15,1.32.3,2.67l.164-.731Z"/><line class="cls-2" x1="61.652" y1="218.374" x2="175.22" y2="218.374"/><line class="cls-2" x1="174.691" y1="218.624" x2="174.691" y2="215.844"/><line class="cls-2" x1="62.146" y1="218.624" x2="62.146" y2="215.844"/><line class="cls-2" x1="62.083" y1="103.343" x2="109.923" y2="103.343"/><line class="cls-2" x1="109.7" y1="103.593" x2="109.7" y2="100.813"/><line class="cls-2" x1="62.291" y1="103.593" x2="62.291" y2="100.813"/><path d="M76.53,112.2a5.306,5.306,0,0,1-.252,1.72,3.128,3.128,0,0,1-.736,1.219,3.039,3.039,0,0,1-1.186.723,5.181,5.181,0,0,1-1.676.241H71.074a.418.418,0,0,1-.254-.091.375.375,0,0,1-.121-.319v-6.762a.375.375,0,0,1,.121-.32.417.417,0,0,1,.254-.09h1.717a4.761,4.761,0,0,1,1.664.255,3.032,3.032,0,0,1,1.14.732,3.118,3.118,0,0,1,.7,1.157A4.644,4.644,0,0,1,76.53,112.2Zm-1.061.041a4.149,4.149,0,0,0-.152-1.145,2.462,2.462,0,0,0-.478-.917,2.212,2.212,0,0,0-.823-.6,3.252,3.252,0,0,0-1.283-.216H71.707v5.9h1.037a3.6,3.6,0,0,0,1.225-.182,2.02,2.02,0,0,0,.832-.556,2.415,2.415,0,0,0,.5-.941A4.767,4.767,0,0,0,75.469,112.238Z"/><path d="M82.471,113.088a.4.4,0,0,1-.115.325.39.39,0,0,1-.262.1H78.621a3.3,3.3,0,0,0,.088.791,1.534,1.534,0,0,0,.3.6,1.326,1.326,0,0,0,.535.387,2.144,2.144,0,0,0,.808.135,3.3,3.3,0,0,0,.671-.062,4.107,4.107,0,0,0,.509-.137c.143-.051.261-.1.353-.138a.587.587,0,0,1,.209-.062.136.136,0,0,1,.074.021.133.133,0,0,1,.05.061.4.4,0,0,1,.026.115,1.491,1.491,0,0,1,.009.178,1.25,1.25,0,0,1-.006.132.831.831,0,0,1-.014.1.249.249,0,0,1-.03.079.319.319,0,0,1-.052.067.849.849,0,0,1-.191.106,2.643,2.643,0,0,1-.41.143,5.637,5.637,0,0,1-.583.126,4.272,4.272,0,0,1-.706.056,3.273,3.273,0,0,1-1.14-.182,2.108,2.108,0,0,1-.823-.539,2.321,2.321,0,0,1-.5-.9,4.194,4.194,0,0,1-.17-1.254,3.962,3.962,0,0,1,.176-1.222,2.584,2.584,0,0,1,.507-.92,2.216,2.216,0,0,1,.8-.58,2.617,2.617,0,0,1,1.049-.2,2.546,2.546,0,0,1,1.057.2,2,2,0,0,1,.718.536,2.158,2.158,0,0,1,.413.791,3.461,3.461,0,0,1,.132.97ZM81.5,112.8a1.757,1.757,0,0,0-.339-1.2,1.288,1.288,0,0,0-1.058-.434,1.4,1.4,0,0,0-.631.135,1.37,1.37,0,0,0-.454.357,1.634,1.634,0,0,0-.282.519,2.125,2.125,0,0,0-.113.618Z"/><path d="M84.908,115.953a.127.127,0,0,1-.023.079.186.186,0,0,1-.076.056.528.528,0,0,1-.147.035,1.944,1.944,0,0,1-.24.012,1.883,1.883,0,0,1-.234-.012.572.572,0,0,1-.15-.035.162.162,0,0,1-.076-.056.141.141,0,0,1-.02-.079v-7.828a.156.156,0,0,1,.02-.082.159.159,0,0,1,.076-.059.616.616,0,0,1,.15-.035,1.909,1.909,0,0,1,.234-.011,1.973,1.973,0,0,1,.24.011.566.566,0,0,1,.147.035.182.182,0,0,1,.076.059.141.141,0,0,1,.023.082Z"/><path d="M90.668,115.959a.123.123,0,0,1-.047.106.322.322,0,0,1-.129.052,1.19,1.19,0,0,1-.24.018,1.31,1.31,0,0,1-.243-.018.287.287,0,0,1-.132-.052.134.134,0,0,1-.041-.106v-.527a2.6,2.6,0,0,1-.77.574,2.042,2.042,0,0,1-.9.2,2.463,2.463,0,0,1-.753-.108,1.64,1.64,0,0,1-.574-.314,1.414,1.414,0,0,1-.369-.5,1.665,1.665,0,0,1-.132-.679,1.576,1.576,0,0,1,.182-.774,1.515,1.515,0,0,1,.521-.545,2.573,2.573,0,0,1,.832-.325,5.191,5.191,0,0,1,1.108-.108h.726v-.411a2.043,2.043,0,0,0-.064-.539.928.928,0,0,0-.208-.389.9.9,0,0,0-.372-.235,1.76,1.76,0,0,0-.563-.079,2.256,2.256,0,0,0-.641.085,3.346,3.346,0,0,0-.5.188c-.143.068-.262.131-.358.187a.49.49,0,0,1-.214.085.151.151,0,0,1-.082-.023.2.2,0,0,1-.061-.071.332.332,0,0,1-.038-.12,1,1,0,0,1-.012-.161,1.072,1.072,0,0,1,.02-.231.331.331,0,0,1,.1-.161,1.263,1.263,0,0,1,.273-.179,3.024,3.024,0,0,1,.445-.188,4.1,4.1,0,0,1,.551-.14,3.292,3.292,0,0,1,.6-.056,3.167,3.167,0,0,1,.967.129,1.56,1.56,0,0,1,.644.378,1.452,1.452,0,0,1,.358.618,3,3,0,0,1,.111.861Zm-.961-2.408h-.826a3.1,3.1,0,0,0-.691.067,1.442,1.442,0,0,0-.487.2.829.829,0,0,0-.284.317.959.959,0,0,0-.091.425.85.85,0,0,0,.261.653,1.03,1.03,0,0,0,.73.243,1.358,1.358,0,0,0,.706-.193,3.046,3.046,0,0,0,.682-.592Z"/><path d="M94.623,116.1l-.7,1.939a.266.266,0,0,1-.179.144,1.423,1.423,0,0,1-.436.05,1.61,1.61,0,0,1-.246-.015.349.349,0,0,1-.144-.05.126.126,0,0,1-.055-.094.281.281,0,0,1,.029-.14l.726-1.834a.3.3,0,0,1-.1-.076.314.314,0,0,1-.065-.112l-1.88-5.039a.567.567,0,0,1-.047-.193.14.14,0,0,1,.047-.112.3.3,0,0,1,.152-.055A2.083,2.083,0,0,1,92,110.5q.175,0,.276.009a.606.606,0,0,1,.158.032.168.168,0,0,1,.085.068.781.781,0,0,1,.055.12l1.506,4.23H94.1l1.453-4.254a.257.257,0,0,1,.085-.143.378.378,0,0,1,.149-.047,2.071,2.071,0,0,1,.287-.015,1.976,1.976,0,0,1,.27.015.317.317,0,0,1,.155.055.139.139,0,0,1,.05.112.6.6,0,0,1-.035.176Z"/><path d="M105.135,112.291a8.5,8.5,0,0,1-.138,1.594,3.658,3.658,0,0,1-.457,1.239,2.239,2.239,0,0,1-.835.8,2.978,2.978,0,0,1-2.475.029,1.977,1.977,0,0,1-.788-.75,3.491,3.491,0,0,1-.425-1.219,9.761,9.761,0,0,1-.126-1.661,8.426,8.426,0,0,1,.14-1.591,3.745,3.745,0,0,1,.458-1.242,2.207,2.207,0,0,1,.832-.8,2.973,2.973,0,0,1,2.475-.03,1.977,1.977,0,0,1,.788.75,3.519,3.519,0,0,1,.425,1.219A9.761,9.761,0,0,1,105.135,112.291Zm-1.031.07q0-.567-.041-1.019a6.3,6.3,0,0,0-.12-.8,2.632,2.632,0,0,0-.2-.595,1.427,1.427,0,0,0-.3-.41,1.085,1.085,0,0,0-.4-.234,1.627,1.627,0,0,0-.506-.073,1.31,1.31,0,0,0-.809.234,1.572,1.572,0,0,0-.489.644,3.4,3.4,0,0,0-.243.961,10.21,10.21,0,0,0-.065,1.184,10.015,10.015,0,0,0,.088,1.444,3.2,3.2,0,0,0,.278.97,1.258,1.258,0,0,0,.487.545,1.419,1.419,0,0,0,.717.17,1.461,1.461,0,0,0,.578-.106,1.209,1.209,0,0,0,.427-.3,1.655,1.655,0,0,0,.3-.472,3.321,3.321,0,0,0,.188-.609,5.139,5.139,0,0,0,.1-.724C104.1,112.913,104.1,112.643,104.1,112.361Z"/><path d="M77.537,227.152a5.314,5.314,0,0,1-.252,1.72,3.123,3.123,0,0,1-.735,1.218,3.03,3.03,0,0,1-1.186.724,5.21,5.21,0,0,1-1.676.24H72.082a.413.413,0,0,1-.255-.091.376.376,0,0,1-.12-.319v-6.762a.377.377,0,0,1,.12-.319.419.419,0,0,1,.255-.091H73.8a4.761,4.761,0,0,1,1.664.255,3.034,3.034,0,0,1,1.14.733,3.131,3.131,0,0,1,.7,1.157A4.645,4.645,0,0,1,77.537,227.152Zm-1.06.041a4.123,4.123,0,0,0-.153-1.146,2.453,2.453,0,0,0-.477-.917,2.21,2.21,0,0,0-.823-.6,3.235,3.235,0,0,0-1.284-.217H72.715v5.9h1.037a3.6,3.6,0,0,0,1.225-.182,2.022,2.022,0,0,0,.832-.557,2.437,2.437,0,0,0,.5-.94A4.767,4.767,0,0,0,76.477,227.193Z"/><path d="M83.479,228.043a.4.4,0,0,1-.115.325.4.4,0,0,1-.262.1H79.629a3.245,3.245,0,0,0,.088.791,1.531,1.531,0,0,0,.3.6,1.32,1.32,0,0,0,.535.387,2.141,2.141,0,0,0,.808.134,3.308,3.308,0,0,0,.671-.061,3.865,3.865,0,0,0,.508-.138c.144-.051.262-.1.354-.137a.587.587,0,0,1,.209-.062.136.136,0,0,1,.074.021.128.128,0,0,1,.05.061.419.419,0,0,1,.026.114,1.509,1.509,0,0,1,.009.179,1.25,1.25,0,0,1-.006.132c0,.037-.009.07-.014.1a.255.255,0,0,1-.03.08.347.347,0,0,1-.052.067.862.862,0,0,1-.191.1,2.741,2.741,0,0,1-.41.144,5.637,5.637,0,0,1-.583.126,4.272,4.272,0,0,1-.706.056,3.269,3.269,0,0,1-1.14-.182,2.119,2.119,0,0,1-.823-.539,2.293,2.293,0,0,1-.5-.9,4.183,4.183,0,0,1-.17-1.253,3.953,3.953,0,0,1,.176-1.222,2.584,2.584,0,0,1,.507-.92,2.208,2.208,0,0,1,.8-.58,2.615,2.615,0,0,1,1.048-.2,2.535,2.535,0,0,1,1.058.2,2,2,0,0,1,.718.536,2.165,2.165,0,0,1,.413.791,3.461,3.461,0,0,1,.132.97Zm-.973-.288a1.759,1.759,0,0,0-.339-1.195,1.291,1.291,0,0,0-1.058-.433,1.4,1.4,0,0,0-.631.134,1.36,1.36,0,0,0-.454.358,1.651,1.651,0,0,0-.283.518,2.17,2.17,0,0,0-.112.618Z"/><path d="M85.916,230.908a.136.136,0,0,1-.023.079.2.2,0,0,1-.076.056.576.576,0,0,1-.147.035,1.973,1.973,0,0,1-.24.011,1.909,1.909,0,0,1-.234-.011.616.616,0,0,1-.15-.035.169.169,0,0,1-.076-.056.143.143,0,0,1-.021-.079V223.08a.14.14,0,0,1,.1-.141.572.572,0,0,1,.15-.035,1.883,1.883,0,0,1,.234-.012,1.944,1.944,0,0,1,.24.012.537.537,0,0,1,.147.035.174.174,0,0,1,.076.059.146.146,0,0,1,.023.082Z"/><path d="M91.676,230.914a.123.123,0,0,1-.047.105.322.322,0,0,1-.129.053,1.212,1.212,0,0,1-.24.017,1.309,1.309,0,0,1-.243-.017.282.282,0,0,1-.132-.053.131.131,0,0,1-.041-.105v-.528a2.6,2.6,0,0,1-.771.575,2.052,2.052,0,0,1-.9.2,2.462,2.462,0,0,1-.753-.109,1.638,1.638,0,0,1-.574-.313,1.414,1.414,0,0,1-.369-.5,1.667,1.667,0,0,1-.132-.68,1.559,1.559,0,0,1,.182-.773,1.5,1.5,0,0,1,.521-.545,2.551,2.551,0,0,1,.832-.325,5.117,5.117,0,0,1,1.108-.109h.726v-.41a2.038,2.038,0,0,0-.064-.539.938.938,0,0,0-.208-.39.9.9,0,0,0-.372-.234,1.732,1.732,0,0,0-.563-.079,2.233,2.233,0,0,0-.642.085,3.437,3.437,0,0,0-.5.187c-.142.069-.261.131-.357.188a.5.5,0,0,1-.214.085.144.144,0,0,1-.082-.024.193.193,0,0,1-.061-.07.352.352,0,0,1-.039-.12,1.142,1.142,0,0,1-.011-.161,1.082,1.082,0,0,1,.02-.232.34.34,0,0,1,.1-.161,1.289,1.289,0,0,1,.272-.179,3.088,3.088,0,0,1,.446-.187,3.97,3.97,0,0,1,.55-.141,3.31,3.31,0,0,1,.6-.055,3.167,3.167,0,0,1,.967.129,1.567,1.567,0,0,1,.644.378,1.473,1.473,0,0,1,.358.618,3,3,0,0,1,.111.861Zm-.961-2.409h-.826a3.116,3.116,0,0,0-.692.068,1.425,1.425,0,0,0-.486.2.826.826,0,0,0-.284.316.948.948,0,0,0-.091.425.852.852,0,0,0,.261.654,1.029,1.029,0,0,0,.729.243,1.354,1.354,0,0,0,.706-.194,3.046,3.046,0,0,0,.683-.591Z"/><path d="M95.631,231.054l-.7,1.94a.265.265,0,0,1-.179.143,1.423,1.423,0,0,1-.436.05,1.61,1.61,0,0,1-.246-.015.336.336,0,0,1-.144-.049.129.129,0,0,1-.056-.094.3.3,0,0,1,.03-.141l.726-1.834a.286.286,0,0,1-.1-.076.289.289,0,0,1-.065-.111l-1.881-5.039a.6.6,0,0,1-.047-.194.14.14,0,0,1,.047-.111.3.3,0,0,1,.153-.056,2.3,2.3,0,0,1,.281-.014c.117,0,.209,0,.275.009a.54.54,0,0,1,.159.032.16.16,0,0,1,.084.067.688.688,0,0,1,.056.12l1.506,4.231h.018l1.453-4.254a.259.259,0,0,1,.085-.144.4.4,0,0,1,.149-.047,2.279,2.279,0,0,1,.287-.014,2.19,2.19,0,0,1,.27.014.317.317,0,0,1,.155.056.136.136,0,0,1,.05.111.59.59,0,0,1-.035.176Z"/><path d="M105.908,230.656a.828.828,0,0,1-.017.187.4.4,0,0,1-.047.123.19.19,0,0,1-.067.068.176.176,0,0,1-.08.02h-3.96a.158.158,0,0,1-.077-.02.217.217,0,0,1-.067-.068.371.371,0,0,1-.05-.123.828.828,0,0,1-.017-.187.81.81,0,0,1,.017-.182.555.555,0,0,1,.044-.126.213.213,0,0,1,.065-.076.14.14,0,0,1,.085-.026h1.582V224.48l-1.465.873a.629.629,0,0,1-.179.07.12.12,0,0,1-.108-.026.212.212,0,0,1-.056-.126,1.369,1.369,0,0,1-.015-.223,1.344,1.344,0,0,1,.009-.169.6.6,0,0,1,.026-.118.274.274,0,0,1,.05-.082.488.488,0,0,1,.085-.07l1.746-1.119a.181.181,0,0,1,.059-.029.871.871,0,0,1,.088-.024.689.689,0,0,1,.123-.015c.047,0,.105,0,.176,0a1.92,1.92,0,0,1,.234.011.7.7,0,0,1,.147.032.134.134,0,0,1,.07.053.137.137,0,0,1,.017.068v6.662H105.7a.154.154,0,0,1,.088.026.2.2,0,0,1,.068.076.478.478,0,0,1,.041.126A.969.969,0,0,1,105.908,230.656Z"/></svg>