<svg id="Layer_1" data-name="Layer 1" xmlns="http://www.w3.org/2000/svg" width="623.998" height="264.371" viewBox="0 0 623.998 264.371"><defs><style>.cls-1,.cls-2,.cls-3{fill:none;}.cls-1{stroke:#e1e1e1;}.cls-1,.cls-2,.cls-3,.cls-5{stroke-miterlimit:10;}.cls-2{stroke:#b3b3b3;stroke-width:3px;}.cls-3{stroke:red;}.cls-3,.cls-5{stroke-width:2px;}.cls-4{fill:#202020;}.cls-5{fill:#fbb03b;stroke:#000;}</style></defs><polyline class="cls-1" points="30.041 233.991 30.041 32.735 587.332 32.735 587.332 233.991"/><line class="cls-1" x1="30.041" y1="233.991" x2="587.332" y2="233.991"/><line class="cls-1" x1="30.041" y1="215.695" x2="587.332" y2="215.695"/><line class="cls-1" x1="30.041" y1="197.399" x2="587.332" y2="197.399"/><line class="cls-1" x1="30.041" y1="179.103" x2="587.332" y2="179.103"/><line class="cls-1" x1="30.041" y1="160.807" x2="587.332" y2="160.807"/><line class="cls-1" x1="30.041" y1="142.511" x2="587.332" y2="142.511"/><line class="cls-1" x1="30.041" y1="124.215" x2="587.332" y2="124.215"/><line class="cls-1" x1="30.041" y1="105.919" x2="587.332" y2="105.919"/><line class="cls-1" x1="30.041" y1="87.623" x2="587.332" y2="87.623"/><line class="cls-1" x1="30.041" y1="69.327" x2="587.332" y2="69.327"/><line class="cls-1" x1="30.041" y1="51.031" x2="587.332" y2="51.031"/><line class="cls-1" x1="569.355" y1="32.735" x2="569.355" y2="233.991"/><line class="cls-1" x1="551.378" y1="32.735" x2="551.378" y2="233.991"/><line class="cls-1" x1="533.401" y1="32.735" x2="533.401" y2="233.991"/><line class="cls-1" x1="515.424" y1="32.735" x2="515.424" y2="233.991"/><line class="cls-1" x1="497.447" y1="32.735" x2="497.447" y2="233.991"/><line class="cls-1" x1="479.47" y1="32.735" x2="479.47" y2="233.991"/><line class="cls-2" x1="461.492" y1="32.735" x2="461.492" y2="233.991"/><line class="cls-1" x1="443.515" y1="32.735" x2="443.515" y2="233.991"/><line class="cls-1" x1="425.538" y1="32.735" x2="425.538" y2="233.991"/><line class="cls-1" x1="407.561" y1="32.735" x2="407.561" y2="233.991"/><line class="cls-1" x1="389.584" y1="32.735" x2="389.584" y2="233.991"/><line class="cls-1" x1="371.607" y1="32.735" x2="371.607" y2="233.991"/><line class="cls-1" x1="353.63" y1="32.735" x2="353.63" y2="233.991"/><line class="cls-1" x1="335.653" y1="32.735" x2="335.653" y2="233.991"/><line class="cls-1" x1="317.675" y1="32.735" x2="317.675" y2="233.991"/><line class="cls-1" x1="299.698" y1="32.735" x2="299.698" y2="233.991"/><line class="cls-1" x1="281.721" y1="32.735" x2="281.721" y2="233.991"/><line class="cls-1" x1="263.744" y1="32.735" x2="263.744" y2="233.991"/><line class="cls-1" x1="245.767" y1="32.735" x2="245.767" y2="233.991"/><line class="cls-1" x1="227.79" y1="32.735" x2="227.79" y2="233.991"/><line class="cls-1" x1="209.813" y1="32.735" x2="209.813" y2="233.991"/><line class="cls-1" x1="191.835" y1="32.735" x2="191.835" y2="233.991"/><line class="cls-1" x1="173.858" y1="32.735" x2="173.858" y2="233.991"/><line class="cls-1" x1="155.881" y1="32.735" x2="155.881" y2="233.991"/><line class="cls-1" x1="137.904" y1="32.735" x2="137.904" y2="233.991"/><line class="cls-1" x1="119.927" y1="32.735" x2="119.927" y2="233.991"/><line class="cls-2" x1="101.95" y1="32.735" x2="101.95" y2="233.991"/><line class="cls-1" x1="83.973" y1="32.735" x2="83.973" y2="233.991"/><line class="cls-1" x1="65.996" y1="32.735" x2="65.996" y2="233.991"/><line class="cls-1" x1="48.018" y1="32.735" x2="48.018" y2="233.991"/><path d="M575.067,248.385a5.176,5.176,0,0,1-.273,1.784,3.025,3.025,0,0,1-.782,1.21,3.138,3.138,0,0,1-1.239.688,6.053,6.053,0,0,1-1.738.22h-1.81a.479.479,0,0,1-.325-.114.469.469,0,0,1-.132-.372v-6.61a.468.468,0,0,1,.132-.372.479.479,0,0,1,.325-.114h1.945a5.448,5.448,0,0,1,1.72.237,3.114,3.114,0,0,1,1.189.7,3.015,3.015,0,0,1,.736,1.152A4.59,4.59,0,0,1,575.067,248.385Zm-1.594.052a3.809,3.809,0,0,0-.126-1,2.138,2.138,0,0,0-.4-.8,1.876,1.876,0,0,0-.715-.531,2.9,2.9,0,0,0-1.146-.19H570.3v5.156h.8a3.035,3.035,0,0,0,1.066-.164,1.782,1.782,0,0,0,.724-.5,2.133,2.133,0,0,0,.433-.823A4.108,4.108,0,0,0,573.473,248.437Z"/><path d="M577.832,245.092a.827.827,0,0,1-.181.615,1.438,1.438,0,0,1-1.345.006.8.8,0,0,1-.173-.592.846.846,0,0,1,.179-.618,1.415,1.415,0,0,1,1.345-.006A.8.8,0,0,1,577.832,245.092Zm-.111,7a.16.16,0,0,1-.035.1.254.254,0,0,1-.12.073.98.98,0,0,1-.226.044,4.268,4.268,0,0,1-.715,0,.97.97,0,0,1-.225-.044.244.244,0,0,1-.12-.073.155.155,0,0,1-.036-.1v-5.215a.16.16,0,0,1,.036-.1.279.279,0,0,1,.12-.076,1.044,1.044,0,0,1,.225-.05,3.768,3.768,0,0,1,.715,0,1.054,1.054,0,0,1,.226.05.292.292,0,0,1,.12.076.164.164,0,0,1,.035.1Z"/><path d="M582.871,250.611a1.747,1.747,0,0,1-.167.785,1.563,1.563,0,0,1-.471.569,2.131,2.131,0,0,1-.721.342,3.36,3.36,0,0,1-.9.115,3.473,3.473,0,0,1-.56-.044,3.431,3.431,0,0,1-.477-.112,2.383,2.383,0,0,1-.352-.137.865.865,0,0,1-.205-.132.416.416,0,0,1-.1-.193,1.645,1.645,0,0,1-.035-.39,2.474,2.474,0,0,1,.012-.273.691.691,0,0,1,.035-.164.155.155,0,0,1,.059-.082.176.176,0,0,1,.088-.02.437.437,0,0,1,.19.073c.084.049.188.1.313.161a3.31,3.31,0,0,0,.437.164,1.922,1.922,0,0,0,.565.076,1.369,1.369,0,0,0,.355-.041.88.88,0,0,0,.269-.117.492.492,0,0,0,.173-.193.6.6,0,0,0,.059-.27.443.443,0,0,0-.109-.3.953.953,0,0,0-.287-.22,3.281,3.281,0,0,0-.4-.176c-.15-.055-.3-.115-.463-.182a4.225,4.225,0,0,1-.463-.228,1.77,1.77,0,0,1-.4-.316,1.438,1.438,0,0,1-.287-.452,1.66,1.66,0,0,1-.109-.632,1.6,1.6,0,0,1,.147-.689,1.493,1.493,0,0,1,.422-.536,1.98,1.98,0,0,1,.671-.346,2.976,2.976,0,0,1,.887-.123,3.239,3.239,0,0,1,.478.035,3.649,3.649,0,0,1,.419.088,1.984,1.984,0,0,1,.316.114,1.058,1.058,0,0,1,.185.106.3.3,0,0,1,.079.088.36.36,0,0,1,.035.1q.012.062.021.153c0,.06.008.135.008.225,0,.106,0,.192-.008.258a.662.662,0,0,1-.03.158.136.136,0,0,1-.055.079.159.159,0,0,1-.082.021.4.4,0,0,1-.164-.062,3.032,3.032,0,0,0-.279-.132,3.457,3.457,0,0,0-.386-.131,1.866,1.866,0,0,0-.5-.062,1.308,1.308,0,0,0-.346.041.656.656,0,0,0-.24.117.492.492,0,0,0-.141.179.527.527,0,0,0-.047.22.436.436,0,0,0,.111.3,1.025,1.025,0,0,0,.293.217,3.372,3.372,0,0,0,.413.176c.155.055.311.114.469.179a4.186,4.186,0,0,1,.469.225,1.78,1.78,0,0,1,.413.317,1.456,1.456,0,0,1,.293.448A1.572,1.572,0,0,1,582.871,250.611Z"/><path d="M586.938,251.572a1.886,1.886,0,0,1-.032.4.436.436,0,0,1-.085.193.483.483,0,0,1-.156.1,1.515,1.515,0,0,1-.24.076,2.659,2.659,0,0,1-.3.05,3.186,3.186,0,0,1-.325.017,2.346,2.346,0,0,1-.762-.111,1.274,1.274,0,0,1-.533-.343,1.429,1.429,0,0,1-.31-.583,3.048,3.048,0,0,1-.1-.832v-2.678h-.627a.187.187,0,0,1-.17-.137,1.292,1.292,0,0,1-.058-.46,2.354,2.354,0,0,1,.014-.288.719.719,0,0,1,.044-.184.223.223,0,0,1,.073-.1.188.188,0,0,1,.1-.029h.621V245.5a.189.189,0,0,1,.032-.106.252.252,0,0,1,.117-.079.969.969,0,0,1,.229-.047c.1-.009.214-.014.354-.014s.265,0,.361.014a.909.909,0,0,1,.225.047.273.273,0,0,1,.118.079.177.177,0,0,1,.035.106v1.166H586.7a.186.186,0,0,1,.1.029.216.216,0,0,1,.073.1.679.679,0,0,1,.044.184,2.331,2.331,0,0,1,.015.288,1.287,1.287,0,0,1-.059.46.187.187,0,0,1-.17.137h-1.142v2.455a1.234,1.234,0,0,0,.134.642.522.522,0,0,0,.481.214.973.973,0,0,0,.211-.021,1.2,1.2,0,0,0,.167-.047c.049-.017.09-.033.123-.046a.234.234,0,0,1,.091-.021.12.12,0,0,1,.067.021.135.135,0,0,1,.05.082,1.247,1.247,0,0,1,.032.167A1.97,1.97,0,0,1,586.938,251.572Z"/><path d="M592.34,252.105a.155.155,0,0,1-.058.129.414.414,0,0,1-.185.068,2.613,2.613,0,0,1-.372.02,2.651,2.651,0,0,1-.384-.02.335.335,0,0,1-.17-.068.169.169,0,0,1-.05-.129v-.416a2.362,2.362,0,0,1-.735.539,2.134,2.134,0,0,1-.917.194,2.548,2.548,0,0,1-.765-.109,1.712,1.712,0,0,1-.6-.322,1.455,1.455,0,0,1-.4-.53,1.818,1.818,0,0,1-.14-.739,1.669,1.669,0,0,1,.178-.793,1.452,1.452,0,0,1,.534-.557,2.634,2.634,0,0,1,.881-.325,6.251,6.251,0,0,1,1.225-.106h.51v-.316a1.673,1.673,0,0,0-.05-.431.715.715,0,0,0-.164-.307.677.677,0,0,0-.3-.182,1.624,1.624,0,0,0-.471-.059,2.462,2.462,0,0,0-.66.082,3.863,3.863,0,0,0-.512.182c-.149.066-.273.127-.372.182a.556.556,0,0,1-.243.082.178.178,0,0,1-.115-.041.313.313,0,0,1-.082-.118.836.836,0,0,1-.05-.187,1.677,1.677,0,0,1-.017-.246,1.14,1.14,0,0,1,.029-.287.453.453,0,0,1,.111-.191,1.112,1.112,0,0,1,.288-.187,3.284,3.284,0,0,1,.48-.191,4.533,4.533,0,0,1,.6-.143,4.4,4.4,0,0,1,1.722.064,1.771,1.771,0,0,1,.718.369,1.43,1.43,0,0,1,.41.642,3,3,0,0,1,.129.932Zm-1.447-2.238h-.563a3.03,3.03,0,0,0-.609.053,1.167,1.167,0,0,0-.41.158.646.646,0,0,0-.232.255.779.779,0,0,0-.073.343.658.658,0,0,0,.208.515.832.832,0,0,0,.577.188,1.088,1.088,0,0,0,.572-.158,2.412,2.412,0,0,0,.53-.463Z"/><path d="M598.8,252.088a.16.16,0,0,1-.035.1.253.253,0,0,1-.117.073.937.937,0,0,1-.226.044,3.5,3.5,0,0,1-.354.015,3.584,3.584,0,0,1-.361-.015.928.928,0,0,1-.225-.044.252.252,0,0,1-.118-.073.16.16,0,0,1-.035-.1v-2.983a2.517,2.517,0,0,0-.055-.6,1.172,1.172,0,0,0-.161-.372.728.728,0,0,0-.273-.241.856.856,0,0,0-.39-.085.981.981,0,0,0-.568.2,3.084,3.084,0,0,0-.6.6v3.475a.154.154,0,0,1-.035.1.244.244,0,0,1-.12.073.981.981,0,0,1-.225.044,4.268,4.268,0,0,1-.715,0,.98.98,0,0,1-.226-.044.244.244,0,0,1-.12-.073.16.16,0,0,1-.035-.1v-5.227a.182.182,0,0,1,.029-.1.217.217,0,0,1,.106-.074.87.87,0,0,1,.2-.044,2.772,2.772,0,0,1,.3-.014,2.908,2.908,0,0,1,.31.014.741.741,0,0,1,.191.044.209.209,0,0,1,.1.074.175.175,0,0,1,.03.1v.6a3.312,3.312,0,0,1,.881-.7,1.986,1.986,0,0,1,.935-.235,2.07,2.07,0,0,1,.9.176,1.564,1.564,0,0,1,.592.477,1.929,1.929,0,0,1,.325.707,4.075,4.075,0,0,1,.1.972Z"/><path d="M604.205,251.256c0,.1,0,.186-.008.255a1.425,1.425,0,0,1-.024.172.546.546,0,0,1-.035.115.436.436,0,0,1-.091.111,1.274,1.274,0,0,1-.24.164,2.319,2.319,0,0,1-.387.173,3.08,3.08,0,0,1-.471.123,2.921,2.921,0,0,1-.525.047,2.844,2.844,0,0,1-1.069-.188,2,2,0,0,1-.782-.553,2.434,2.434,0,0,1-.478-.894,4.7,4.7,0,0,1,.035-2.563,2.6,2.6,0,0,1,.548-.947,2.182,2.182,0,0,1,.832-.556,2.962,2.962,0,0,1,1.055-.182,2.671,2.671,0,0,1,.882.152,2.243,2.243,0,0,1,.351.159,1.043,1.043,0,0,1,.22.152.647.647,0,0,1,.091.108.4.4,0,0,1,.041.115,1.691,1.691,0,0,1,.023.172q.009.1.009.249a1.354,1.354,0,0,1-.059.478c-.039.092-.09.138-.152.138a.366.366,0,0,1-.211-.082c-.074-.055-.162-.116-.264-.182a1.979,1.979,0,0,0-.363-.182,1.4,1.4,0,0,0-.5-.082,1,1,0,0,0-.879.443,2.288,2.288,0,0,0-.3,1.3,3.245,3.245,0,0,0,.076.744,1.6,1.6,0,0,0,.225.539.958.958,0,0,0,.375.325,1.207,1.207,0,0,0,.525.108,1.377,1.377,0,0,0,.524-.09,2.088,2.088,0,0,0,.384-.2c.109-.074.2-.141.275-.2a.333.333,0,0,1,.188-.091.132.132,0,0,1,.088.03.2.2,0,0,1,.055.108,1.306,1.306,0,0,1,.033.2C604.2,251.021,604.205,251.127,604.205,251.256Z"/><path d="M610.1,249.322a.57.57,0,0,1-.12.4.434.434,0,0,1-.331.128h-3.182a2.166,2.166,0,0,0,.079.607,1.161,1.161,0,0,0,.252.463,1.1,1.1,0,0,0,.445.29,1.923,1.923,0,0,0,.654.1,3.678,3.678,0,0,0,.679-.055,4.4,4.4,0,0,0,.507-.123c.143-.045.261-.086.355-.123a.664.664,0,0,1,.228-.056.169.169,0,0,1,.088.021.149.149,0,0,1,.059.073.514.514,0,0,1,.032.149q.009.1.009.243c0,.086,0,.16-.006.22a1.333,1.333,0,0,1-.018.155.349.349,0,0,1-.035.109.42.42,0,0,1-.061.085.74.74,0,0,1-.208.111,3.314,3.314,0,0,1-.434.138,5.888,5.888,0,0,1-.6.117,5.053,5.053,0,0,1-.727.05,3.855,3.855,0,0,1-1.222-.176,2.184,2.184,0,0,1-.876-.533,2.222,2.222,0,0,1-.524-.9,4.242,4.242,0,0,1-.173-1.277,4.062,4.062,0,0,1,.182-1.257,2.641,2.641,0,0,1,.527-.949,2.274,2.274,0,0,1,.841-.595,3.238,3.238,0,0,1,2.238-.011,2,2,0,0,1,.765.536,2.152,2.152,0,0,1,.439.811,3.532,3.532,0,0,1,.141,1.02Zm-1.43-.422a1.51,1.51,0,0,0-.249-.975.962.962,0,0,0-.823-.355,1.056,1.056,0,0,0-.489.106,1,1,0,0,0-.346.284,1.3,1.3,0,0,0-.211.422,2.1,2.1,0,0,0-.085.518Z"/><path d="M19.079,18.93a.488.488,0,0,1-.076.162.287.287,0,0,1-.152.093,1.152,1.152,0,0,1-.287.041c-.121.006-.28.009-.475.009-.156,0-.29,0-.4,0s-.206-.007-.284-.014a.93.93,0,0,1-.191-.036.439.439,0,0,1-.123-.058.255.255,0,0,1-.076-.085.717.717,0,0,1-.05-.126l-2.256-6.721a1.8,1.8,0,0,1-.085-.334.2.2,0,0,1,.059-.184.454.454,0,0,1,.249-.077c.117-.009.281-.014.492-.014.18,0,.32,0,.422.012a.878.878,0,0,1,.234.041.2.2,0,0,1,.115.087.921.921,0,0,1,.061.147L18.1,17.718h.006l1.81-5.819a.606.606,0,0,1,.059-.161.235.235,0,0,1,.12-.1.817.817,0,0,1,.243-.046c.106-.008.25-.012.434-.012a4.051,4.051,0,0,1,.419.017.306.306,0,0,1,.2.085.23.23,0,0,1,.035.191,2.221,2.221,0,0,1-.091.328Z"/><path d="M27.042,16.335a3.976,3.976,0,0,1-.176,1.219,2.562,2.562,0,0,1-.533.949,2.382,2.382,0,0,1-.9.615,3.355,3.355,0,0,1-1.26.217,3.449,3.449,0,0,1-1.213-.194,2.165,2.165,0,0,1-.855-.562,2.3,2.3,0,0,1-.5-.908,4.213,4.213,0,0,1-.164-1.231,3.962,3.962,0,0,1,.178-1.221,2.576,2.576,0,0,1,.537-.95,2.4,2.4,0,0,1,.893-.612,3.351,3.351,0,0,1,1.257-.217,3.518,3.518,0,0,1,1.219.191,2.13,2.13,0,0,1,.852.559,2.323,2.323,0,0,1,.5.908A4.236,4.236,0,0,1,27.042,16.335Zm-1.517.058a3.845,3.845,0,0,0-.062-.712,1.67,1.67,0,0,0-.208-.565,1.037,1.037,0,0,0-.389-.375,1.255,1.255,0,0,0-.613-.135,1.294,1.294,0,0,0-.574.12,1.03,1.03,0,0,0-.4.352,1.674,1.674,0,0,0-.238.557,3.177,3.177,0,0,0-.079.741,3.664,3.664,0,0,0,.065.712,1.75,1.75,0,0,0,.208.565.987.987,0,0,0,.389.372,1.28,1.28,0,0,0,.61.132,1.311,1.311,0,0,0,.58-.12,1.03,1.03,0,0,0,.4-.349,1.6,1.6,0,0,0,.235-.553A3.314,3.314,0,0,0,25.525,16.393Z"/><path d="M29.685,19a.16.16,0,0,1-.035.1.263.263,0,0,1-.12.074,1.1,1.1,0,0,1-.226.044c-.094.009-.213.014-.357.014s-.264,0-.358-.014a1.075,1.075,0,0,1-.225-.044.262.262,0,0,1-.121-.074.16.16,0,0,1-.035-.1V11.3a.177.177,0,0,1,.035-.106.273.273,0,0,1,.121-.079,1.03,1.03,0,0,1,.225-.05,3.768,3.768,0,0,1,.715,0,1.054,1.054,0,0,1,.226.05.275.275,0,0,1,.12.079.177.177,0,0,1,.035.106Z"/><path d="M36.113,19a.175.175,0,0,1-.03.1.208.208,0,0,1-.1.074.837.837,0,0,1-.194.044,2.752,2.752,0,0,1-.3.014,2.91,2.91,0,0,1-.314-.014.775.775,0,0,1-.19-.044.217.217,0,0,1-.1-.074.182.182,0,0,1-.029-.1v-.6a3.3,3.3,0,0,1-.882.7,1.971,1.971,0,0,1-.929.235,2.086,2.086,0,0,1-.905-.176,1.567,1.567,0,0,1-.592-.48,1.939,1.939,0,0,1-.322-.707,4.312,4.312,0,0,1-.1-1v-3.2a.17.17,0,0,1,.032-.1.24.24,0,0,1,.118-.074,1.029,1.029,0,0,1,.228-.043,4.232,4.232,0,0,1,.712,0,1.044,1.044,0,0,1,.226.043.263.263,0,0,1,.12.074.16.16,0,0,1,.035.1v2.953a2.823,2.823,0,0,0,.053.627,1.089,1.089,0,0,0,.161.372.741.741,0,0,0,.275.241.858.858,0,0,0,.39.085.968.968,0,0,0,.565-.2,3.369,3.369,0,0,0,.607-.6V13.774a.163.163,0,0,1,.032-.1A.236.236,0,0,1,34.8,13.6a1.044,1.044,0,0,1,.226-.043,4.268,4.268,0,0,1,.715,0,.978.978,0,0,1,.222.043.251.251,0,0,1,.117.074.155.155,0,0,1,.036.1Z"/><path d="M45.909,19a.154.154,0,0,1-.035.1.251.251,0,0,1-.117.074,1.039,1.039,0,0,1-.223.044c-.093.009-.212.014-.357.014s-.269,0-.363-.014a1.1,1.1,0,0,1-.226-.044.236.236,0,0,1-.117-.074.17.17,0,0,1-.032-.1V15.9a2.151,2.151,0,0,0-.05-.48,1.121,1.121,0,0,0-.152-.372.733.733,0,0,0-.258-.241.774.774,0,0,0-.372-.085.879.879,0,0,0-.533.206,3.5,3.5,0,0,0-.586.6V19a.155.155,0,0,1-.036.1.252.252,0,0,1-.12.074,1.089,1.089,0,0,1-.225.044c-.094.009-.211.014-.352.014s-.264,0-.357-.014a1.1,1.1,0,0,1-.226-.044.258.258,0,0,1-.12-.074.16.16,0,0,1-.035-.1V15.9a2.151,2.151,0,0,0-.05-.48,1.163,1.163,0,0,0-.149-.372.7.7,0,0,0-.258-.241.779.779,0,0,0-.369-.085.886.886,0,0,0-.539.206,3.355,3.355,0,0,0-.58.6V19a.155.155,0,0,1-.036.1.252.252,0,0,1-.12.074,1.089,1.089,0,0,1-.225.044c-.094.009-.213.014-.358.014s-.263,0-.357-.014a1.1,1.1,0,0,1-.226-.044.263.263,0,0,1-.12-.074A.16.16,0,0,1,37.6,19V13.774a.182.182,0,0,1,.029-.1.217.217,0,0,1,.106-.074.835.835,0,0,1,.2-.043,2.512,2.512,0,0,1,.3-.015,2.635,2.635,0,0,1,.31.015.706.706,0,0,1,.191.043.209.209,0,0,1,.1.074.175.175,0,0,1,.03.1v.6a3.439,3.439,0,0,1,.864-.7,1.848,1.848,0,0,1,.9-.235,2.3,2.3,0,0,1,.581.068,1.651,1.651,0,0,1,.459.193,1.453,1.453,0,0,1,.349.3,1.73,1.73,0,0,1,.246.392,4.415,4.415,0,0,1,.46-.433,2.746,2.746,0,0,1,.445-.3,2.045,2.045,0,0,1,.44-.17,1.821,1.821,0,0,1,.448-.056,1.981,1.981,0,0,1,.879.176,1.53,1.53,0,0,1,.577.478,1.917,1.917,0,0,1,.314.706,3.8,3.8,0,0,1,.093.855Z"/><path d="M52.185,16.235a.57.57,0,0,1-.12.4.431.431,0,0,1-.331.129H48.552a2.164,2.164,0,0,0,.079.606,1.161,1.161,0,0,0,.252.463,1.1,1.1,0,0,0,.445.29,1.922,1.922,0,0,0,.654.1,3.671,3.671,0,0,0,.679-.056,4.4,4.4,0,0,0,.507-.123c.143-.045.261-.086.355-.123a.659.659,0,0,1,.228-.056.169.169,0,0,1,.088.021.149.149,0,0,1,.059.073.514.514,0,0,1,.032.149q.009.1.009.243c0,.086,0,.16-.006.22a1.333,1.333,0,0,1-.018.155.341.341,0,0,1-.035.109.42.42,0,0,1-.061.085.74.74,0,0,1-.208.111,3.314,3.314,0,0,1-.434.138,5.888,5.888,0,0,1-.6.117,5.053,5.053,0,0,1-.727.05,3.855,3.855,0,0,1-1.222-.176,2.184,2.184,0,0,1-.876-.533,2.215,2.215,0,0,1-.524-.9,4.242,4.242,0,0,1-.173-1.277,4.062,4.062,0,0,1,.182-1.257,2.641,2.641,0,0,1,.527-.949,2.266,2.266,0,0,1,.841-.6,3.238,3.238,0,0,1,2.238-.011,2.016,2.016,0,0,1,.765.536,2.166,2.166,0,0,1,.439.811A3.532,3.532,0,0,1,52.185,16Zm-1.43-.422a1.51,1.51,0,0,0-.249-.975.962.962,0,0,0-.823-.355,1.056,1.056,0,0,0-.489.106,1,1,0,0,0-.346.284,1.3,1.3,0,0,0-.211.422,2.1,2.1,0,0,0-.085.518Z"/><line class="cls-3" x1="30.041" y1="32.735" x2="587.332" y2="32.735"/><line x1="30.041" y1="234.894" x2="30.041" y2="23.371"/><polygon class="cls-4" points="31.231 234.894 31.231 29.065 33.33 29.065 30.041 23.371 26.753 29.065 28.851 29.065 28.851 234.894 31.231 234.894"/><line x1="30.041" y1="234.894" x2="597.998" y2="234.894"/><polygon class="cls-4" points="30.041 236.084 592.305 236.084 592.305 238.183 597.999 234.894 592.305 231.606 592.305 233.704 30.041 233.704 30.041 236.084"/><circle class="cls-5" cx="101.95" cy="32.645" r="12.509"/><path d="M101.673,36.3a.183.183,0,0,1-.032.1.229.229,0,0,1-.117.076,1.076,1.076,0,0,1-.226.047,2.908,2.908,0,0,1-.357.018,2.854,2.854,0,0,1-.352-.018,1.016,1.016,0,0,1-.223-.047.248.248,0,0,1-.117-.076.172.172,0,0,1-.035-.1v-6.17H100.2l-2.2,6.164a.278.278,0,0,1-.076.126.379.379,0,0,1-.144.079.989.989,0,0,1-.231.038c-.094.006-.207.009-.34.009a3.276,3.276,0,0,1-.34-.015,1,1,0,0,1-.231-.047A.424.424,0,0,1,96.5,36.4a.227.227,0,0,1-.07-.111l-2.121-6.164H94.3V36.3a.183.183,0,0,1-.032.1.231.231,0,0,1-.12.076,1.135,1.135,0,0,1-.226.047,3.47,3.47,0,0,1-.706,0,1.051,1.051,0,0,1-.225-.047.228.228,0,0,1-.118-.076.183.183,0,0,1-.032-.1V29.539A.62.62,0,0,1,93,29.082a.569.569,0,0,1,.422-.158h1.008a2.073,2.073,0,0,1,.463.044.9.9,0,0,1,.334.146.812.812,0,0,1,.234.27,1.858,1.858,0,0,1,.164.413l1.641,4.517h.023l1.7-4.506a2.317,2.317,0,0,1,.167-.416.958.958,0,0,1,.211-.275.692.692,0,0,1,.284-.149,1.446,1.446,0,0,1,.381-.044h1.037a.79.79,0,0,1,.272.041.461.461,0,0,1,.188.12.518.518,0,0,1,.111.193.834.834,0,0,1,.038.261Z"/><path d="M104.825,29.31a.83.83,0,0,1-.181.616,1.434,1.434,0,0,1-1.345.005.8.8,0,0,1-.173-.591.846.846,0,0,1,.179-.618,1.415,1.415,0,0,1,1.345-.006A.8.8,0,0,1,104.825,29.31Zm-.111,7a.16.16,0,0,1-.035.1.252.252,0,0,1-.12.073,1.037,1.037,0,0,1-.226.044,4.268,4.268,0,0,1-.715,0,1.038,1.038,0,0,1-.225-.044.252.252,0,0,1-.12-.073.155.155,0,0,1-.035-.1V31.092a.157.157,0,0,1,.035-.1.27.27,0,0,1,.12-.076,1,1,0,0,1,.225-.05,3.768,3.768,0,0,1,.715,0,1,1,0,0,1,.226.05.27.27,0,0,1,.12.076.162.162,0,0,1,.035.1Z"/><path d="M111.177,36.306a.16.16,0,0,1-.035.1.262.262,0,0,1-.117.073.989.989,0,0,1-.226.044,3.5,3.5,0,0,1-.354.015,3.584,3.584,0,0,1-.361-.015.979.979,0,0,1-.225-.044.26.26,0,0,1-.118-.073.16.16,0,0,1-.035-.1V33.324a2.532,2.532,0,0,0-.055-.6,1.193,1.193,0,0,0-.161-.372.734.734,0,0,0-.273-.24.843.843,0,0,0-.39-.085.974.974,0,0,0-.568.2,3.084,3.084,0,0,0-.6.6v3.474a.155.155,0,0,1-.035.1.252.252,0,0,1-.12.073,1.026,1.026,0,0,1-.225.044,4.268,4.268,0,0,1-.715,0,1.037,1.037,0,0,1-.226-.044.252.252,0,0,1-.12-.073.16.16,0,0,1-.035-.1V31.08a.188.188,0,0,1,.029-.1.223.223,0,0,1,.106-.073.87.87,0,0,1,.2-.044,2.539,2.539,0,0,1,.3-.014,2.665,2.665,0,0,1,.31.014.741.741,0,0,1,.191.044.214.214,0,0,1,.1.073.181.181,0,0,1,.03.1v.6a3.352,3.352,0,0,1,.881-.7,2,2,0,0,1,.935-.234,2.07,2.07,0,0,1,.9.176,1.564,1.564,0,0,1,.592.477,1.925,1.925,0,0,1,.325.706,4.089,4.089,0,0,1,.1.973Z"/><circle class="cls-5" cx="459.707" cy="33.353" r="12.509"/><path d="M458.461,35.995a.183.183,0,0,1-.032.105.226.226,0,0,1-.117.077,1.153,1.153,0,0,1-.226.046,2.908,2.908,0,0,1-.357.018,2.854,2.854,0,0,1-.352-.018,1.061,1.061,0,0,1-.222-.046.248.248,0,0,1-.118-.077.172.172,0,0,1-.035-.105v-6.17h-.011l-2.2,6.164a.278.278,0,0,1-.076.126.368.368,0,0,1-.143.079.957.957,0,0,1-.232.038c-.094.006-.207.009-.34.009a3.276,3.276,0,0,1-.34-.015,1.009,1.009,0,0,1-.231-.046.435.435,0,0,1-.144-.08.227.227,0,0,1-.07-.111L451.1,29.825h-.012v6.17a.176.176,0,0,1-.032.105.223.223,0,0,1-.12.077,1.22,1.22,0,0,1-.226.046,2.821,2.821,0,0,1-.354.018,2.854,2.854,0,0,1-.352-.018,1.141,1.141,0,0,1-.225-.046.222.222,0,0,1-.117-.077.177.177,0,0,1-.033-.105V29.239a.622.622,0,0,1,.158-.457.574.574,0,0,1,.422-.158h1.008a2.073,2.073,0,0,1,.463.044.9.9,0,0,1,.334.146.822.822,0,0,1,.234.27,1.858,1.858,0,0,1,.164.413l1.641,4.517h.024l1.7-4.505a2.361,2.361,0,0,1,.167-.416.964.964,0,0,1,.211-.276.7.7,0,0,1,.284-.149,1.446,1.446,0,0,1,.381-.044h1.037a.815.815,0,0,1,.272.041.461.461,0,0,1,.188.12.518.518,0,0,1,.111.193.81.81,0,0,1,.038.261Z"/><path d="M464.479,36.024a.156.156,0,0,1-.059.129.4.4,0,0,1-.184.068,2.613,2.613,0,0,1-.372.02,2.651,2.651,0,0,1-.384-.02.335.335,0,0,1-.17-.068.169.169,0,0,1-.05-.129v-.416a2.374,2.374,0,0,1-.735.539,2.137,2.137,0,0,1-.917.194,2.539,2.539,0,0,1-.765-.109,1.7,1.7,0,0,1-.6-.322,1.455,1.455,0,0,1-.4-.53,1.8,1.8,0,0,1-.141-.739,1.676,1.676,0,0,1,.179-.794,1.454,1.454,0,0,1,.533-.556,2.648,2.648,0,0,1,.882-.325,6.251,6.251,0,0,1,1.225-.106h.51v-.316a1.673,1.673,0,0,0-.05-.431.725.725,0,0,0-.164-.308.681.681,0,0,0-.305-.181,1.626,1.626,0,0,0-.472-.059,2.449,2.449,0,0,0-.659.082,3.932,3.932,0,0,0-.513.182c-.148.066-.272.127-.372.182a.548.548,0,0,1-.243.082.175.175,0,0,1-.114-.041.3.3,0,0,1-.082-.118.785.785,0,0,1-.05-.187,1.549,1.549,0,0,1-.017-.246,1.1,1.1,0,0,1,.029-.287.433.433,0,0,1,.111-.191,1.121,1.121,0,0,1,.287-.187,3.345,3.345,0,0,1,.481-.191,4.517,4.517,0,0,1,.6-.143,4.408,4.408,0,0,1,1.723.064,1.777,1.777,0,0,1,.718.369,1.439,1.439,0,0,1,.41.642,3,3,0,0,1,.129.932Zm-1.447-2.238h-.563a3.03,3.03,0,0,0-.609.053,1.167,1.167,0,0,0-.41.158.646.646,0,0,0-.232.255.766.766,0,0,0-.073.343.658.658,0,0,0,.208.515.83.83,0,0,0,.577.188,1.076,1.076,0,0,0,.571-.159,2.36,2.36,0,0,0,.531-.462Z"/><path d="M470.379,35.9a.372.372,0,0,1,.044.164.129.129,0,0,1-.085.106.723.723,0,0,1-.252.055c-.113.01-.263.015-.451.015s-.317,0-.425-.009a1.168,1.168,0,0,1-.252-.035.356.356,0,0,1-.134-.064.251.251,0,0,1-.068-.1l-.967-1.857-.966,1.857a.28.28,0,0,1-.065.1.32.32,0,0,1-.126.064,1.031,1.031,0,0,1-.237.035q-.153.009-.4.009c-.171,0-.308-.005-.41-.015a.559.559,0,0,1-.222-.055.13.13,0,0,1-.074-.106.343.343,0,0,1,.05-.164l1.447-2.572-1.336-2.414a.459.459,0,0,1-.055-.179.118.118,0,0,1,.073-.114.712.712,0,0,1,.243-.059c.112-.011.263-.017.454-.017.172,0,.31,0,.413.009a1.683,1.683,0,0,1,.244.026.259.259,0,0,1,.128.056.324.324,0,0,1,.071.1l.931,1.746.926-1.746a.232.232,0,0,1,.053-.082.26.26,0,0,1,.111-.058,1.033,1.033,0,0,1,.208-.036c.088-.007.208-.011.361-.011.171,0,.309,0,.413.011a.534.534,0,0,1,.222.053.123.123,0,0,1,.065.114.469.469,0,0,1-.068.191l-1.3,2.373Z"/></svg>