<svg id="Layer_1" data-name="Layer 1" xmlns="http://www.w3.org/2000/svg" width="310" height="271" viewBox="0 0 310 271"><defs><style>.cls-1{fill:#f9f9f9;}.cls-2{fill:none;}.cls-2,.cls-3{stroke:#000;stroke-miterlimit:10;}.cls-3,.cls-4{fill:#fff;}</style></defs><rect class="cls-1" width="310" height="271"/><path d="M269.53,139.722h-4.29l-6.719,6.225V125.093l6.745,6.225h4.264Z"/><circle class="cls-2" cx="155" cy="135.52" r="87.224"/><circle class="cls-3" cx="155" cy="135.5" r="87.224"/><path d="M40.47,131.318h4.29l6.719-6.225v20.854l-6.745-6.225H40.47Z"/><path d="M160.815,20.97v4.29l6.224,6.719H146.186l6.225-6.745V20.97Z"/><path d="M94.071,38.347l2.461,3.514,8.953,1.934L88.4,55.756l1.231-9.095-2.446-3.493Z"/><path d="M215.929,232.653l-2.461-3.514-8.953-1.934L221.6,215.244l-1.231,9.095,2.446,3.493Z"/><path d="M225.455,45.018l-2.461,3.514,1.245,9.074L207.157,45.645l8.968-1.955,2.446-3.493Z"/><path d="M84.545,225.982l2.461-3.514-1.245-9.074,17.082,11.961-8.968,1.955L91.429,230.8Z"/><path d="M159.4,13.167c0,.093,0,.173-.008.239a1.115,1.115,0,0,1-.026.17.5.5,0,0,1-.045.121.6.6,0,0,1-.091.116,1.125,1.125,0,0,1-.239.166,2.69,2.69,0,0,1-.435.2,3.849,3.849,0,0,1-.587.156,3.9,3.9,0,0,1-.714.061,3.769,3.769,0,0,1-1.355-.231,2.665,2.665,0,0,1-1.027-.692,3.079,3.079,0,0,1-.649-1.148,5.141,5.141,0,0,1-.226-1.6,5.072,5.072,0,0,1,.248-1.654,3.483,3.483,0,0,1,.694-1.214,2.924,2.924,0,0,1,1.07-.745,3.619,3.619,0,0,1,1.375-.254,3.4,3.4,0,0,1,.587.051,3.55,3.55,0,0,1,.522.133,2.7,2.7,0,0,1,.432.189,1.277,1.277,0,0,1,.268.184.68.68,0,0,1,.105.127.514.514,0,0,1,.045.13,1.776,1.776,0,0,1,.025.185c.006.073.009.16.009.266s0,.209-.012.288a.759.759,0,0,1-.039.192.271.271,0,0,1-.068.107.14.14,0,0,1-.09.034.392.392,0,0,1-.215-.1,3.465,3.465,0,0,0-.336-.22,2.758,2.758,0,0,0-.491-.22,2.107,2.107,0,0,0-.68-.1,1.61,1.61,0,0,0-1.358.686,2.389,2.389,0,0,0-.363.8,4.109,4.109,0,0,0-.125,1.055,4.176,4.176,0,0,0,.132,1.116,2.18,2.18,0,0,0,.378.776,1.54,1.54,0,0,0,.593.454,1.954,1.954,0,0,0,.782.149,2.269,2.269,0,0,0,.684-.092,2.978,2.978,0,0,0,.493-.206c.138-.076.251-.144.339-.2a.417.417,0,0,1,.206-.091.175.175,0,0,1,.091.022.169.169,0,0,1,.055.091.843.843,0,0,1,.035.188C159.4,12.923,159.4,13.031,159.4,13.167Z"/><path d="M91.619,25.283a2.285,2.285,0,0,1-.015.286.613.613,0,0,1-.044.183.286.286,0,0,1-.071.1.137.137,0,0,1-.091.034H89.011v1.964h2.241a.15.15,0,0,1,.091.029.232.232,0,0,1,.07.095.653.653,0,0,1,.045.181,2.847,2.847,0,0,1,0,.564.722.722,0,0,1-.045.187.265.265,0,0,1-.07.1.145.145,0,0,1-.091.031H89.011v2.721a.169.169,0,0,1-.034.107.244.244,0,0,1-.122.076,1.037,1.037,0,0,1-.228.049,4.058,4.058,0,0,1-.72,0,1,1,0,0,1-.228-.049.255.255,0,0,1-.121-.076.16.16,0,0,1-.037-.107V25.142a.454.454,0,0,1,.126-.358.466.466,0,0,1,.314-.11H91.4a.139.139,0,0,1,.091.031.254.254,0,0,1,.071.1A.658.658,0,0,1,91.6,25,2.337,2.337,0,0,1,91.619,25.283Z"/><path d="M96.841,31.358a2.516,2.516,0,0,1-.014.285.888.888,0,0,1-.043.192.249.249,0,0,1-.07.11.158.158,0,0,1-.1.034H93.268a.466.466,0,0,1-.314-.11.452.452,0,0,1-.127-.359V24.877a.159.159,0,0,1,.037-.1.256.256,0,0,1,.121-.074,1.168,1.168,0,0,1,.229-.045,3.82,3.82,0,0,1,.72,0,1.15,1.15,0,0,1,.225.045.255.255,0,0,1,.122.074.153.153,0,0,1,.036.1v5.877h2.3a.162.162,0,0,1,.1.031.221.221,0,0,1,.07.1.788.788,0,0,1,.043.186A2.535,2.535,0,0,1,96.841,31.358Z"/><path d="M221.8,25.318a2.268,2.268,0,0,1-.015.285.617.617,0,0,1-.045.184.28.28,0,0,1-.07.1.135.135,0,0,1-.091.035h-2.388v1.964h2.242a.15.15,0,0,1,.09.028.245.245,0,0,1,.071.1.67.67,0,0,1,.045.181,3.065,3.065,0,0,1,0,.564.777.777,0,0,1-.045.187.273.273,0,0,1-.071.1.141.141,0,0,1-.09.031h-2.242V31.8a.165.165,0,0,1-.034.107.243.243,0,0,1-.121.076,1.057,1.057,0,0,1-.228.048,3.82,3.82,0,0,1-.72,0,1.016,1.016,0,0,1-.229-.048.274.274,0,0,1-.121-.076.167.167,0,0,1-.037-.107V25.177a.448.448,0,0,1,.127-.358.461.461,0,0,1,.314-.11h3.437a.146.146,0,0,1,.091.03.26.26,0,0,1,.07.1.655.655,0,0,1,.045.189A2.354,2.354,0,0,1,221.8,25.318Z"/><path d="M228.427,31.821a.209.209,0,0,1-.023.1.172.172,0,0,1-.107.07,1.069,1.069,0,0,1-.248.04c-.11.008-.258.011-.446.011-.158,0-.285,0-.378-.011a.894.894,0,0,1-.223-.042.247.247,0,0,1-.116-.079.447.447,0,0,1-.056-.116l-.655-1.631q-.119-.277-.232-.492a1.562,1.562,0,0,0-.251-.358.935.935,0,0,0-.319-.218,1.1,1.1,0,0,0-.418-.073h-.463V31.81a.159.159,0,0,1-.036.1.257.257,0,0,1-.122.073,1.131,1.131,0,0,1-.226.045,2.952,2.952,0,0,1-.361.017,2.986,2.986,0,0,1-.358-.017,1.168,1.168,0,0,1-.229-.045.237.237,0,0,1-.118-.073.169.169,0,0,1-.034-.1V25.177a.448.448,0,0,1,.127-.358.459.459,0,0,1,.313-.11h1.891c.192,0,.35,0,.474.011s.238.017.339.028a3.088,3.088,0,0,1,.793.215,1.884,1.884,0,0,1,.6.4,1.662,1.662,0,0,1,.375.581,2.119,2.119,0,0,1,.13.771,2.273,2.273,0,0,1-.093.669,1.715,1.715,0,0,1-.274.539,1.8,1.8,0,0,1-.446.412,2.418,2.418,0,0,1-.6.282,1.681,1.681,0,0,1,.307.192,1.6,1.6,0,0,1,.272.274,2.662,2.662,0,0,1,.239.366,4.758,4.758,0,0,1,.221.466l.615,1.44a3.292,3.292,0,0,1,.112.313A.568.568,0,0,1,228.427,31.821Zm-1.913-4.956a1.081,1.081,0,0,0-.164-.609.893.893,0,0,0-.537-.351,1.982,1.982,0,0,0-.256-.045,3.691,3.691,0,0,0-.4-.017h-.666v2.072h.757a1.8,1.8,0,0,0,.553-.076,1.108,1.108,0,0,0,.4-.215.874.874,0,0,0,.238-.33A1.13,1.13,0,0,0,226.514,26.865Z"/><path d="M87.588,245.94a2.169,2.169,0,0,1-.107.705,1.858,1.858,0,0,1-.748.977,2.652,2.652,0,0,1-.579.288,3.526,3.526,0,0,1-.675.166,5.365,5.365,0,0,1-.8.054H82.739a.464.464,0,0,1-.313-.11.452.452,0,0,1-.127-.359v-6.367a.452.452,0,0,1,.127-.359.464.464,0,0,1,.313-.11h1.835a4.923,4.923,0,0,1,1.137.113,2.232,2.232,0,0,1,.785.342,1.5,1.5,0,0,1,.488.579,1.854,1.854,0,0,1,.169.824,1.791,1.791,0,0,1-.067.5,1.442,1.442,0,0,1-.517.765,1.616,1.616,0,0,1-.431.237,1.954,1.954,0,0,1,.573.2,1.615,1.615,0,0,1,.457.364,1.716,1.716,0,0,1,.308.522A1.9,1.9,0,0,1,87.588,245.94Zm-1.919-3.077a1.113,1.113,0,0,0-.067-.4.731.731,0,0,0-.2-.291.934.934,0,0,0-.341-.177,1.953,1.953,0,0,0-.551-.063h-.751v1.9h.83a1.418,1.418,0,0,0,.514-.076.9.9,0,0,0,.319-.209.83.83,0,0,0,.188-.311A1.11,1.11,0,0,0,85.669,242.863Zm.378,3.127a1.166,1.166,0,0,0-.084-.454.885.885,0,0,0-.249-.336,1.158,1.158,0,0,0-.417-.209,2.49,2.49,0,0,0-.661-.073h-.881V247h1.073a1.777,1.777,0,0,0,.522-.065,1.061,1.061,0,0,0,.367-.192.883.883,0,0,0,.243-.315A1.024,1.024,0,0,0,86.047,245.99Z"/><path d="M92.793,247.509a2.5,2.5,0,0,1-.014.285.832.832,0,0,1-.043.192.243.243,0,0,1-.07.11.153.153,0,0,1-.1.034H89.22a.466.466,0,0,1-.314-.11.452.452,0,0,1-.127-.359v-6.633a.159.159,0,0,1,.037-.1.254.254,0,0,1,.122-.073,1.131,1.131,0,0,1,.228-.046,4.058,4.058,0,0,1,.72,0,1.141,1.141,0,0,1,.225.046.254.254,0,0,1,.122.073.154.154,0,0,1,.037.1v5.877h2.3a.169.169,0,0,1,.1.031.225.225,0,0,1,.07.1.731.731,0,0,1,.043.186A2.5,2.5,0,0,1,92.793,247.509Z"/><path d="M217.768,245.974a2.192,2.192,0,0,1-.107.705,1.871,1.871,0,0,1-.748.977,2.63,2.63,0,0,1-.579.288,3.622,3.622,0,0,1-.675.167,5.388,5.388,0,0,1-.8.053h-1.941a.461.461,0,0,1-.314-.11.453.453,0,0,1-.126-.359v-6.367a.455.455,0,0,1,.126-.359.465.465,0,0,1,.314-.109h1.835a4.928,4.928,0,0,1,1.137.112,2.25,2.25,0,0,1,.785.342,1.5,1.5,0,0,1,.488.579,1.871,1.871,0,0,1,.169.824,1.791,1.791,0,0,1-.067.5,1.5,1.5,0,0,1-.2.427,1.48,1.48,0,0,1-.319.338,1.607,1.607,0,0,1-.432.237,1.961,1.961,0,0,1,.574.2,1.647,1.647,0,0,1,.457.364,1.693,1.693,0,0,1,.307.522A1.9,1.9,0,0,1,217.768,245.974Zm-1.919-3.077a1.1,1.1,0,0,0-.068-.395.719.719,0,0,0-.2-.29.925.925,0,0,0-.342-.178,1.94,1.94,0,0,0-.55-.063h-.751v1.9h.83a1.416,1.416,0,0,0,.513-.076.89.89,0,0,0,.32-.209.834.834,0,0,0,.188-.31A1.12,1.12,0,0,0,215.849,242.9Zm.378,3.128a1.187,1.187,0,0,0-.084-.455.874.874,0,0,0-.249-.335,1.127,1.127,0,0,0-.417-.209,2.447,2.447,0,0,0-.662-.074h-.88v2.077h1.073a1.8,1.8,0,0,0,.521-.064,1.044,1.044,0,0,0,.367-.192.887.887,0,0,0,.244-.316A1.038,1.038,0,0,0,216.227,246.025Z"/><path d="M224.378,247.972a.209.209,0,0,1-.023.1.172.172,0,0,1-.107.07,1.069,1.069,0,0,1-.248.04c-.109.007-.258.011-.446.011-.158,0-.284,0-.378-.011a.894.894,0,0,1-.223-.042.247.247,0,0,1-.116-.079.447.447,0,0,1-.056-.116l-.655-1.631q-.119-.278-.231-.492a1.626,1.626,0,0,0-.251-.358.935.935,0,0,0-.32-.218,1.1,1.1,0,0,0-.418-.073h-.463v2.783a.155.155,0,0,1-.036.1.257.257,0,0,1-.122.073,1.135,1.135,0,0,1-.225.045,3.82,3.82,0,0,1-.72,0,1.168,1.168,0,0,1-.229-.045.242.242,0,0,1-.118-.073.171.171,0,0,1-.034-.1v-6.633a.452.452,0,0,1,.127-.359.463.463,0,0,1,.313-.109h1.891c.192,0,.351,0,.475.011s.237.017.339.028a3.133,3.133,0,0,1,.792.214,1.917,1.917,0,0,1,.6.4,1.676,1.676,0,0,1,.375.582,2.117,2.117,0,0,1,.13.77,2.263,2.263,0,0,1-.093.669,1.693,1.693,0,0,1-.274.539,1.8,1.8,0,0,1-.445.413,2.461,2.461,0,0,1-.6.282,1.668,1.668,0,0,1,.308.192,1.637,1.637,0,0,1,.271.274,2.662,2.662,0,0,1,.239.366,4.539,4.539,0,0,1,.221.466l.615,1.44c.057.143.094.247.113.313A.6.6,0,0,1,224.378,247.972Zm-1.913-4.956a1.087,1.087,0,0,0-.164-.61.9.9,0,0,0-.536-.35,2,2,0,0,0-.257-.045,3.691,3.691,0,0,0-.4-.017h-.666v2.072h.757a1.8,1.8,0,0,0,.553-.076,1.108,1.108,0,0,0,.4-.215.874.874,0,0,0,.238-.33A1.13,1.13,0,0,0,222.465,243.016Z"/><path d="M29.006,136.028a2.246,2.246,0,0,1-.215,1.011,2.107,2.107,0,0,1-.581.725,2.521,2.521,0,0,1-.858.437,3.65,3.65,0,0,1-1.05.147,3.777,3.777,0,0,1-.7-.062,3.9,3.9,0,0,1-.574-.15,2.49,2.49,0,0,1-.414-.183,1.2,1.2,0,0,1-.24-.169.419.419,0,0,1-.1-.212,1.9,1.9,0,0,1-.032-.4c0-.117,0-.214.012-.293a.854.854,0,0,1,.036-.192.217.217,0,0,1,.069-.1.164.164,0,0,1,.1-.031.468.468,0,0,1,.223.093,3.976,3.976,0,0,0,.37.206,3.334,3.334,0,0,0,.539.206,2.553,2.553,0,0,0,.726.094,1.689,1.689,0,0,0,.485-.065,1.1,1.1,0,0,0,.364-.184.782.782,0,0,0,.229-.293.95.95,0,0,0,.079-.39.683.683,0,0,0-.136-.426,1.353,1.353,0,0,0-.352-.316,3.623,3.623,0,0,0-.5-.26c-.184-.081-.375-.167-.57-.257a5.145,5.145,0,0,1-.57-.308,2.247,2.247,0,0,1-.494-.412,1.944,1.944,0,0,1-.353-.567,2.054,2.054,0,0,1-.136-.785,2.079,2.079,0,0,1,.2-.923,1.9,1.9,0,0,1,.524-.66,2.242,2.242,0,0,1,.779-.392,3.4,3.4,0,0,1,.952-.13,3.533,3.533,0,0,1,1,.147,2.7,2.7,0,0,1,.4.152.919.919,0,0,1,.231.141.413.413,0,0,1,.077.1.452.452,0,0,1,.034.1,1.077,1.077,0,0,1,.019.164q.006.1.006.246c0,.109,0,.2-.008.277a1.084,1.084,0,0,1-.028.186.22.22,0,0,1-.057.107.141.141,0,0,1-.1.034.471.471,0,0,1-.2-.079c-.089-.053-.2-.11-.333-.172a3.171,3.171,0,0,0-.457-.17,2.01,2.01,0,0,0-.57-.076,1.371,1.371,0,0,0-.423.059.887.887,0,0,0-.3.164.668.668,0,0,0-.18.251.835.835,0,0,0-.059.311.679.679,0,0,0,.133.42,1.267,1.267,0,0,0,.355.317,3.891,3.891,0,0,0,.5.259c.189.081.38.167.577.257a5.6,5.6,0,0,1,.575.308,2.329,2.329,0,0,1,.5.412,1.931,1.931,0,0,1,.355.564A1.969,1.969,0,0,1,29.006,136.028Z"/><path d="M34.154,137.6a2.794,2.794,0,0,1-.013.285.92.92,0,0,1-.043.192.248.248,0,0,1-.071.111.155.155,0,0,1-.1.033H30.581a.463.463,0,0,1-.313-.109.452.452,0,0,1-.127-.359v-6.633a.156.156,0,0,1,.037-.1.253.253,0,0,1,.121-.073,1.156,1.156,0,0,1,.228-.045,3.82,3.82,0,0,1,.72,0,1.162,1.162,0,0,1,.226.045.273.273,0,0,1,.122.073.161.161,0,0,1,.036.1v5.876h2.3a.16.16,0,0,1,.1.032.217.217,0,0,1,.071.1.842.842,0,0,1,.043.186A2.823,2.823,0,0,1,34.154,137.6Z"/><path d="M279.57,136.028a2.246,2.246,0,0,1-.215,1.011,2.084,2.084,0,0,1-.581.725,2.521,2.521,0,0,1-.858.437,3.645,3.645,0,0,1-1.05.147,3.784,3.784,0,0,1-.7-.062,3.882,3.882,0,0,1-.573-.15,2.453,2.453,0,0,1-.414-.183,1.145,1.145,0,0,1-.24-.169.428.428,0,0,1-.1-.212,1.986,1.986,0,0,1-.031-.4c0-.117,0-.214.012-.293a.755.755,0,0,1,.036-.192.216.216,0,0,1,.068-.1.167.167,0,0,1,.1-.031.466.466,0,0,1,.222.093,3.976,3.976,0,0,0,.37.206,3.408,3.408,0,0,0,.539.206,2.558,2.558,0,0,0,.726.094,1.679,1.679,0,0,0,.485-.065,1.118,1.118,0,0,0,.365-.184.789.789,0,0,0,.228-.293.934.934,0,0,0,.079-.39.688.688,0,0,0-.135-.426,1.342,1.342,0,0,0-.353-.316,3.609,3.609,0,0,0-.494-.26q-.278-.121-.57-.257a5.158,5.158,0,0,1-.571-.308,2.294,2.294,0,0,1-.494-.412,1.941,1.941,0,0,1-.352-.567,2.054,2.054,0,0,1-.136-.785,2.078,2.078,0,0,1,.2-.923,1.9,1.9,0,0,1,.525-.66,2.224,2.224,0,0,1,.779-.392,3.388,3.388,0,0,1,.951-.13,3.533,3.533,0,0,1,1,.147,2.727,2.727,0,0,1,.4.152.93.93,0,0,1,.232.141.442.442,0,0,1,.077.1.456.456,0,0,1,.033.1.953.953,0,0,1,.02.164c0,.066,0,.148,0,.246s0,.2-.007.277a1.073,1.073,0,0,1-.029.186.22.22,0,0,1-.056.107.145.145,0,0,1-.1.034.468.468,0,0,1-.2-.079c-.09-.053-.2-.11-.333-.172a3.216,3.216,0,0,0-.457-.17,2.012,2.012,0,0,0-.571-.076,1.365,1.365,0,0,0-.422.059.878.878,0,0,0-.3.164.671.671,0,0,0-.181.251.834.834,0,0,0-.058.311.685.685,0,0,0,.132.42,1.272,1.272,0,0,0,.356.317,3.766,3.766,0,0,0,.5.259q.282.121.576.257a5.5,5.5,0,0,1,.575.308,2.282,2.282,0,0,1,.5.412,1.913,1.913,0,0,1,.356.564A1.988,1.988,0,0,1,279.57,136.028Z"/><path d="M286.124,138.027a.219.219,0,0,1-.022.1.178.178,0,0,1-.108.07,1.017,1.017,0,0,1-.248.04c-.109.008-.258.011-.446.011-.157,0-.284,0-.378-.011a.85.85,0,0,1-.223-.042.245.245,0,0,1-.116-.079.464.464,0,0,1-.056-.116l-.655-1.631c-.079-.185-.156-.348-.231-.491a1.61,1.61,0,0,0-.251-.359.949.949,0,0,0-.32-.218,1.119,1.119,0,0,0-.418-.073h-.463v2.783a.154.154,0,0,1-.036.1.249.249,0,0,1-.122.073,1.184,1.184,0,0,1-.225.046,4.058,4.058,0,0,1-.72,0,1.236,1.236,0,0,1-.229-.046.235.235,0,0,1-.118-.073.169.169,0,0,1-.034-.1v-6.633a.448.448,0,0,1,.127-.358.459.459,0,0,1,.314-.11h1.89c.193,0,.351,0,.475.011s.237.017.339.028a3.1,3.1,0,0,1,.793.215,1.89,1.89,0,0,1,.6.4,1.672,1.672,0,0,1,.375.581,2.119,2.119,0,0,1,.13.771,2.273,2.273,0,0,1-.093.669,1.715,1.715,0,0,1-.274.539,1.812,1.812,0,0,1-.445.412,2.425,2.425,0,0,1-.605.282,1.724,1.724,0,0,1,.308.192,1.676,1.676,0,0,1,.271.274,2.615,2.615,0,0,1,.239.367,4.42,4.42,0,0,1,.221.465l.615,1.44c.057.143.094.247.113.313A.6.6,0,0,1,286.124,138.027Zm-1.913-4.957a1.081,1.081,0,0,0-.164-.609.885.885,0,0,0-.536-.35,1.806,1.806,0,0,0-.257-.046,3.739,3.739,0,0,0-.4-.016h-.666v2.071h.757a1.8,1.8,0,0,0,.553-.076,1.106,1.106,0,0,0,.4-.215.882.882,0,0,0,.237-.33A1.112,1.112,0,0,0,284.211,133.07Z"/><circle cx="155" cy="135.52" r="5.54"/><path d="M103.544,101.4a2.446,2.446,0,0,1-.014.28.691.691,0,0,1-.043.186.238.238,0,0,1-.07.1.146.146,0,0,1-.093.035H101.5v5.887a.16.16,0,0,1-.037.1.246.246,0,0,1-.121.073,1.236,1.236,0,0,1-.229.046,4.013,4.013,0,0,1-.716,0,1.2,1.2,0,0,1-.229-.046.249.249,0,0,1-.122-.073.159.159,0,0,1-.036-.1V102H98.176a.138.138,0,0,1-.1-.035.254.254,0,0,1-.068-.1.735.735,0,0,1-.042-.186,2.216,2.216,0,0,1-.015-.28,2.325,2.325,0,0,1,.015-.287.722.722,0,0,1,.042-.189.233.233,0,0,1,.068-.1.146.146,0,0,1,.1-.031h5.148a.153.153,0,0,1,.093.031.219.219,0,0,1,.07.1.679.679,0,0,1,.043.189A2.567,2.567,0,0,1,103.544,101.4Z"/><path d="M108.506,101.4a2.268,2.268,0,0,1-.015.285.617.617,0,0,1-.045.184.28.28,0,0,1-.07.1.135.135,0,0,1-.091.035H105.9v1.964h2.242a.15.15,0,0,1,.09.028.245.245,0,0,1,.071.1.67.67,0,0,1,.045.181,3.065,3.065,0,0,1,0,.564.777.777,0,0,1-.045.187.273.273,0,0,1-.071.1.141.141,0,0,1-.09.031H105.9v2.721a.163.163,0,0,1-.034.107.243.243,0,0,1-.121.076,1.113,1.113,0,0,1-.228.049,4.058,4.058,0,0,1-.72,0,1.067,1.067,0,0,1-.229-.049.274.274,0,0,1-.121-.076.166.166,0,0,1-.037-.107v-6.622a.449.449,0,0,1,.127-.358.461.461,0,0,1,.314-.11h3.437a.141.141,0,0,1,.091.031.253.253,0,0,1,.07.1.639.639,0,0,1,.045.189A2.325,2.325,0,0,1,108.506,101.4Z"/><path d="M113.728,107.47a2.535,2.535,0,0,1-.014.286.925.925,0,0,1-.043.191.256.256,0,0,1-.07.111.16.16,0,0,1-.1.033h-3.348a.463.463,0,0,1-.313-.109.452.452,0,0,1-.127-.359V100.99a.162.162,0,0,1,.037-.1.253.253,0,0,1,.121-.073,1.168,1.168,0,0,1,.229-.045,3.81,3.81,0,0,1,.719,0,1.162,1.162,0,0,1,.226.045.262.262,0,0,1,.122.073.161.161,0,0,1,.036.1v5.876h2.3a.165.165,0,0,1,.1.032.223.223,0,0,1,.07.1.842.842,0,0,1,.043.186A2.529,2.529,0,0,1,113.728,107.47Z"/><path d="M200.916,100.945a2.237,2.237,0,0,1-.014.28.691.691,0,0,1-.043.186.226.226,0,0,1-.07.105.145.145,0,0,1-.092.034h-1.83v5.888a.154.154,0,0,1-.037.1.241.241,0,0,1-.121.073,1.09,1.09,0,0,1-.229.046,4.013,4.013,0,0,1-.716,0,1.09,1.09,0,0,1-.229-.046.25.25,0,0,1-.121-.073.154.154,0,0,1-.037-.1V101.55h-1.828a.142.142,0,0,1-.1-.034.239.239,0,0,1-.068-.105.731.731,0,0,1-.043-.186,2.237,2.237,0,0,1-.014-.28,2.359,2.359,0,0,1,.014-.287.737.737,0,0,1,.043-.189.222.222,0,0,1,.068-.1.146.146,0,0,1,.1-.031H200.7a.148.148,0,0,1,.092.031.21.21,0,0,1,.07.1.7.7,0,0,1,.043.189A2.359,2.359,0,0,1,200.916,100.945Z"/><path d="M205.879,100.945a2.263,2.263,0,0,1-.016.286.555.555,0,0,1-.045.183.262.262,0,0,1-.07.1.136.136,0,0,1-.09.034H203.27v1.964h2.242a.156.156,0,0,1,.09.029.232.232,0,0,1,.07.095.653.653,0,0,1,.045.181,3.065,3.065,0,0,1,0,.564.722.722,0,0,1-.045.187.265.265,0,0,1-.07.1.145.145,0,0,1-.09.031H203.27v2.721a.162.162,0,0,1-.034.107.248.248,0,0,1-.121.077,1.057,1.057,0,0,1-.228.048,4.069,4.069,0,0,1-.721,0,.993.993,0,0,1-.228-.048.279.279,0,0,1-.122-.077.169.169,0,0,1-.037-.107V100.8a.454.454,0,0,1,.127-.358.469.469,0,0,1,.315-.11h3.437a.139.139,0,0,1,.09.031.241.241,0,0,1,.07.1.6.6,0,0,1,.045.189A2.315,2.315,0,0,1,205.879,100.945Z"/><path d="M212.506,107.449a.208.208,0,0,1-.024.1.169.169,0,0,1-.107.071,1.017,1.017,0,0,1-.248.039c-.109.008-.258.011-.445.011-.159,0-.286,0-.379-.011a.811.811,0,0,1-.223-.042.231.231,0,0,1-.115-.079.433.433,0,0,1-.057-.116l-.654-1.631c-.08-.184-.156-.348-.233-.491a1.537,1.537,0,0,0-.25-.359.923.923,0,0,0-.32-.217,1.1,1.1,0,0,0-.418-.074h-.463v2.784a.157.157,0,0,1-.035.1.258.258,0,0,1-.123.073,1.048,1.048,0,0,1-.224.046,3.247,3.247,0,0,1-.362.016,3.287,3.287,0,0,1-.359-.016,1.09,1.09,0,0,1-.229-.046.227.227,0,0,1-.117-.073.163.163,0,0,1-.035-.1V100.8a.454.454,0,0,1,.127-.358.466.466,0,0,1,.314-.11h1.891c.191,0,.35,0,.475.011s.236.017.337.029a3.038,3.038,0,0,1,.793.214,1.894,1.894,0,0,1,.6.4,1.71,1.71,0,0,1,.375.581,2.145,2.145,0,0,1,.129.771,2.3,2.3,0,0,1-.092.669,1.706,1.706,0,0,1-.275.539,1.764,1.764,0,0,1-.446.412,2.36,2.36,0,0,1-.6.282,1.716,1.716,0,0,1,.307.192,1.676,1.676,0,0,1,.271.274,2.841,2.841,0,0,1,.24.367,5,5,0,0,1,.221.466l.615,1.439a3.286,3.286,0,0,1,.112.314A.6.6,0,0,1,212.506,107.449Zm-1.914-4.957a1.086,1.086,0,0,0-.164-.609.89.89,0,0,0-.535-.35,2.275,2.275,0,0,0-.258-.046,3.739,3.739,0,0,0-.4-.016h-.666v2.072h.758a1.8,1.8,0,0,0,.553-.077,1.1,1.1,0,0,0,.394-.214.892.892,0,0,0,.239-.33A1.132,1.132,0,0,0,210.592,102.492Z"/><path d="M102.35,162.455a2.613,2.613,0,0,1-.015.3.881.881,0,0,1-.046.2.259.259,0,0,1-.077.113.156.156,0,0,1-.1.037h-1.984V169.5a.176.176,0,0,1-.04.111.276.276,0,0,1-.132.079,1.212,1.212,0,0,1-.248.049,3.981,3.981,0,0,1-.777,0,1.2,1.2,0,0,1-.248-.049.276.276,0,0,1-.132-.079.165.165,0,0,1-.04-.111V163.11H96.525a.151.151,0,0,1-.1-.037.283.283,0,0,1-.073-.113.787.787,0,0,1-.046-.2,2.388,2.388,0,0,1-.016-.3,2.5,2.5,0,0,1,.016-.312.8.8,0,0,1,.046-.206.264.264,0,0,1,.073-.11.164.164,0,0,1,.1-.033h5.586a.169.169,0,0,1,.1.033.242.242,0,0,1,.077.11.9.9,0,0,1,.046.206A2.733,2.733,0,0,1,102.35,162.455Z"/><path d="M109.026,167.342a2.388,2.388,0,0,1-.116.766,2.056,2.056,0,0,1-.321.607,2.138,2.138,0,0,1-.49.453,2.9,2.9,0,0,1-.628.312,3.872,3.872,0,0,1-.733.181,5.993,5.993,0,0,1-.866.058h-2.106a.5.5,0,0,1-.341-.12.487.487,0,0,1-.138-.388V162.3a.488.488,0,0,1,.138-.389.5.5,0,0,1,.341-.119h1.99a5.31,5.31,0,0,1,1.234.122,2.44,2.44,0,0,1,.851.37,1.649,1.649,0,0,1,.53.628,2.041,2.041,0,0,1,.184.894,1.947,1.947,0,0,1-.074.543,1.627,1.627,0,0,1-.214.462,1.583,1.583,0,0,1-.346.367,1.755,1.755,0,0,1-.469.258,2.1,2.1,0,0,1,.622.214,1.762,1.762,0,0,1,.5.4,1.854,1.854,0,0,1,.334.566A2.072,2.072,0,0,1,109.026,167.342Zm-2.082-3.337a1.176,1.176,0,0,0-.074-.429.775.775,0,0,0-.22-.316.988.988,0,0,0-.371-.192,2.121,2.121,0,0,0-.6-.068h-.816v2.058h.9a1.538,1.538,0,0,0,.557-.083.972.972,0,0,0,.346-.226.913.913,0,0,0,.206-.337A1.224,1.224,0,0,0,106.944,164.005Zm.41,3.393a1.283,1.283,0,0,0-.091-.494.952.952,0,0,0-.27-.364,1.242,1.242,0,0,0-.453-.226,2.621,2.621,0,0,0-.717-.08h-.956v2.254h1.164a1.925,1.925,0,0,0,.567-.071,1.152,1.152,0,0,0,.4-.208.966.966,0,0,0,.264-.343A1.124,1.124,0,0,0,107.354,167.4Z"/><path d="M114.674,169.045a2.656,2.656,0,0,1-.016.31.966.966,0,0,1-.046.208.259.259,0,0,1-.077.119.161.161,0,0,1-.106.037H110.8a.5.5,0,0,1-.341-.12.487.487,0,0,1-.138-.388v-7.2a.176.176,0,0,1,.04-.111.286.286,0,0,1,.132-.079,1.317,1.317,0,0,1,.248-.049,4.256,4.256,0,0,1,.782,0,1.3,1.3,0,0,1,.244.049.286.286,0,0,1,.132.079.176.176,0,0,1,.04.111v6.376h2.493a.17.17,0,0,1,.106.034.237.237,0,0,1,.077.11.831.831,0,0,1,.046.2A2.638,2.638,0,0,1,114.674,169.045Z"/><path d="M200.33,163.061a2.446,2.446,0,0,1-.014.28.691.691,0,0,1-.043.186.248.248,0,0,1-.07.105.148.148,0,0,1-.093.034h-1.829v5.887a.155.155,0,0,1-.037.1.246.246,0,0,1-.121.073,1.24,1.24,0,0,1-.228.046,4.024,4.024,0,0,1-.717,0,1.2,1.2,0,0,1-.229-.046.259.259,0,0,1-.122-.073.159.159,0,0,1-.036-.1v-5.887h-1.829a.144.144,0,0,1-.1-.034.265.265,0,0,1-.068-.105.735.735,0,0,1-.042-.186,2.216,2.216,0,0,1-.015-.28,2.325,2.325,0,0,1,.015-.287.732.732,0,0,1,.042-.189.233.233,0,0,1,.068-.1.148.148,0,0,1,.1-.031h5.148a.151.151,0,0,1,.093.031.219.219,0,0,1,.07.1.688.688,0,0,1,.043.189A2.567,2.567,0,0,1,200.33,163.061Z"/><path d="M206.482,167.566a2.2,2.2,0,0,1-.106.706,1.864,1.864,0,0,1-.748.976,2.63,2.63,0,0,1-.579.288,3.622,3.622,0,0,1-.675.167,5.379,5.379,0,0,1-.8.054h-1.941a.466.466,0,0,1-.314-.11.452.452,0,0,1-.127-.359V162.92a.449.449,0,0,1,.127-.358.461.461,0,0,1,.314-.11h1.835a4.853,4.853,0,0,1,1.136.113,2.246,2.246,0,0,1,.786.341,1.517,1.517,0,0,1,.488.579,1.871,1.871,0,0,1,.169.824,1.8,1.8,0,0,1-.068.5,1.481,1.481,0,0,1-.2.426,1.46,1.46,0,0,1-.319.338,1.6,1.6,0,0,1-.432.238,1.915,1.915,0,0,1,.573.2,1.637,1.637,0,0,1,.458.364,1.706,1.706,0,0,1,.307.523A1.893,1.893,0,0,1,206.482,167.566Zm-1.919-3.077a1.1,1.1,0,0,0-.067-.4.726.726,0,0,0-.2-.29.955.955,0,0,0-.342-.178,1.99,1.99,0,0,0-.551-.062h-.751v1.9h.83a1.416,1.416,0,0,0,.514-.077.877.877,0,0,0,.32-.209.839.839,0,0,0,.188-.31A1.119,1.119,0,0,0,204.563,164.489Zm.378,3.128a1.159,1.159,0,0,0-.084-.454.851.851,0,0,0-.249-.336,1.134,1.134,0,0,0-.417-.209,2.444,2.444,0,0,0-.661-.073h-.881v2.077h1.074a1.8,1.8,0,0,0,.521-.065,1.044,1.044,0,0,0,.367-.192.873.873,0,0,0,.243-.316A1.022,1.022,0,0,0,204.941,167.617Z"/><path d="M213.094,169.565a.208.208,0,0,1-.023.1.172.172,0,0,1-.107.07,1.017,1.017,0,0,1-.248.04c-.11.008-.258.011-.446.011-.158,0-.285,0-.378-.011a.85.85,0,0,1-.223-.042.24.24,0,0,1-.116-.079.432.432,0,0,1-.056-.116l-.655-1.631c-.079-.185-.156-.348-.232-.491a1.569,1.569,0,0,0-.251-.359.935.935,0,0,0-.319-.218,1.122,1.122,0,0,0-.418-.073h-.463v2.783a.159.159,0,0,1-.036.1.249.249,0,0,1-.122.073,1.2,1.2,0,0,1-.226.046,3.2,3.2,0,0,1-.361.016,3.242,3.242,0,0,1-.358-.016,1.236,1.236,0,0,1-.229-.046.23.23,0,0,1-.118-.073.169.169,0,0,1-.034-.1V162.92a.449.449,0,0,1,.127-.358.459.459,0,0,1,.313-.11h1.891c.192,0,.35,0,.474.011s.238.017.339.028a3.088,3.088,0,0,1,.793.215,1.884,1.884,0,0,1,.6.4,1.672,1.672,0,0,1,.375.581,2.119,2.119,0,0,1,.13.771,2.268,2.268,0,0,1-.093.669,1.7,1.7,0,0,1-.274.539,1.8,1.8,0,0,1-.446.412,2.383,2.383,0,0,1-.6.282,1.681,1.681,0,0,1,.307.192,1.641,1.641,0,0,1,.272.274,2.615,2.615,0,0,1,.239.367,4.735,4.735,0,0,1,.221.465l.615,1.44a3.292,3.292,0,0,1,.112.313A.567.567,0,0,1,213.094,169.565Zm-1.913-4.957a1.081,1.081,0,0,0-.164-.609.888.888,0,0,0-.537-.35,1.973,1.973,0,0,0-.256-.046,3.739,3.739,0,0,0-.4-.016h-.666v2.071h.757a1.8,1.8,0,0,0,.553-.076,1.093,1.093,0,0,0,.4-.215.874.874,0,0,0,.238-.33A1.13,1.13,0,0,0,211.181,164.608Z"/><rect x="97.657" y="77.746" width="15.656" height="21.286"/><ellipse class="cls-1" cx="105.485" cy="88.389" rx="4.878" ry="5.987"/><path class="cls-4" d="M105.484,89.573a1.185,1.185,0,1,1,1.185-1.185A1.185,1.185,0,0,1,105.484,89.573Z"/><path d="M105.485,87.7a.685.685,0,1,1-.685.685.685.685,0,0,1,.685-.685m0-1a1.685,1.685,0,1,0,1.684,1.685,1.684,1.684,0,0,0-1.684-1.685Z"/><rect x="196.202" y="77.746" width="15.656" height="21.286"/><ellipse class="cls-1" cx="204.03" cy="88.389" rx="4.878" ry="5.987"/><path class="cls-4" d="M204.03,89.573a1.185,1.185,0,1,1,1.185-1.184A1.185,1.185,0,0,1,204.03,89.573Z"/><path d="M204.03,87.7a.685.685,0,1,1-.685.685.685.685,0,0,1,.685-.685m0-1a1.685,1.685,0,1,0,1.684,1.685A1.685,1.685,0,0,0,204.03,86.7Z"/><rect x="97.657" y="171.158" width="15.656" height="21.286"/><ellipse class="cls-1" cx="105.485" cy="181.801" rx="4.878" ry="5.987"/><path class="cls-4" d="M105.485,182.986a1.185,1.185,0,1,1,1.184-1.184A1.185,1.185,0,0,1,105.485,182.986Z"/><path d="M105.485,181.117a.685.685,0,1,1-.685.684.685.685,0,0,1,.685-.684m0-1a1.685,1.685,0,1,0,1.684,1.684,1.684,1.684,0,0,0-1.684-1.684Z"/><rect x="196.202" y="171.158" width="15.656" height="21.286"/><ellipse class="cls-1" cx="204.03" cy="181.801" rx="4.878" ry="5.987"/><path class="cls-4" d="M204.03,182.986a1.185,1.185,0,1,1,1.184-1.184A1.185,1.185,0,0,1,204.03,182.986Z"/><path d="M204.03,181.117a.685.685,0,1,1-.685.684.685.685,0,0,1,.685-.684m0-1a1.685,1.685,0,1,0,1.684,1.684,1.685,1.685,0,0,0-1.684-1.684Z"/><rect x="273.094" y="12.282" width="15.656" height="21.286"/><ellipse class="cls-1" cx="280.922" cy="22.925" rx="4.878" ry="5.987"/><path class="cls-4" d="M280.922,24.109a1.185,1.185,0,1,1,1.184-1.184A1.185,1.185,0,0,1,280.922,24.109Z"/><path d="M280.922,22.24a.685.685,0,1,1-.685.685.685.685,0,0,1,.685-.685m0-1a1.685,1.685,0,1,0,1.684,1.685,1.686,1.686,0,0,0-1.684-1.685Z"/><path d="M277.322,43.744a2.532,2.532,0,0,1-.013.285.888.888,0,0,1-.043.192.229.229,0,0,1-.071.11.145.145,0,0,1-.1.034H273.75a.464.464,0,0,1-.314-.11.455.455,0,0,1-.127-.359V37.263a.159.159,0,0,1,.037-.1.25.25,0,0,1,.121-.073,1.079,1.079,0,0,1,.228-.046,3.282,3.282,0,0,1,.36-.016,3.24,3.24,0,0,1,.361.016,1.073,1.073,0,0,1,.225.046.268.268,0,0,1,.123.073.163.163,0,0,1,.035.1V43.14h2.3a.16.16,0,0,1,.1.031.212.212,0,0,1,.071.1.765.765,0,0,1,.043.186A2.532,2.532,0,0,1,277.322,43.744Z"/><path d="M282.3,37.67a2.246,2.246,0,0,1-.016.285.555.555,0,0,1-.045.183.262.262,0,0,1-.07.1.136.136,0,0,1-.09.034h-2.388v1.964h2.242a.156.156,0,0,1,.09.029.239.239,0,0,1,.07.095.653.653,0,0,1,.045.181,3.076,3.076,0,0,1,0,.565.724.724,0,0,1-.045.186.269.269,0,0,1-.07.105.15.15,0,0,1-.09.03h-2.242v2.722a.161.161,0,0,1-.034.106.248.248,0,0,1-.121.077,1.057,1.057,0,0,1-.228.048,3.831,3.831,0,0,1-.721,0,1.016,1.016,0,0,1-.229-.048.281.281,0,0,1-.121-.077.168.168,0,0,1-.037-.106V37.528a.454.454,0,0,1,.127-.358.469.469,0,0,1,.315-.11h3.437a.139.139,0,0,1,.09.031.241.241,0,0,1,.07.1.6.6,0,0,1,.045.189A2.321,2.321,0,0,1,282.3,37.67Z"/><path d="M287.834,43.783a2.094,2.094,0,0,1-.014.274.635.635,0,0,1-.043.178.21.21,0,0,1-.07.1.15.15,0,0,1-.094.031h-3.668a.466.466,0,0,1-.314-.11.455.455,0,0,1-.127-.359V37.528a.454.454,0,0,1,.127-.358.466.466,0,0,1,.314-.11h3.647a.145.145,0,0,1,.09.029.214.214,0,0,1,.068.1.737.737,0,0,1,.041.181,2.1,2.1,0,0,1,.016.279,2,2,0,0,1-.016.268.68.68,0,0,1-.041.178.243.243,0,0,1-.068.1.141.141,0,0,1-.09.031h-2.608v1.784h2.207a.146.146,0,0,1,.092.031.207.207,0,0,1,.071.1.641.641,0,0,1,.042.175,2.6,2.6,0,0,1,0,.539.625.625,0,0,1-.042.172.188.188,0,0,1-.071.093.157.157,0,0,1-.092.029h-2.207V43.2h2.629a.156.156,0,0,1,.094.031.21.21,0,0,1,.07.1.636.636,0,0,1,.043.177A2.115,2.115,0,0,1,287.834,43.783Z"/></svg>