<svg id="Layer_1" data-name="Layer 1" xmlns="http://www.w3.org/2000/svg" width="655.823" height="274.53" viewBox="0 0 655.823 274.53"><defs><style>.cls-1,.cls-3{fill:none;stroke-miterlimit:10;}.cls-1{stroke:#000;stroke-width:2px;}.cls-2{fill:#202020;}.cls-3{stroke:gray;stroke-width:3px;stroke-dasharray:14 4;}.cls-4{fill:#797979;}</style></defs><rect class="cls-1" x="351.73" y="28.271" width="89.964" height="41.577" rx="12"/><rect class="cls-1" x="511.586" y="118.861" width="89.964" height="41.577" rx="12"/><rect class="cls-1" x="351.73" y="118.861" width="89.964" height="41.577" rx="12"/><rect class="cls-1" x="511.586" y="209.451" width="89.964" height="41.577" rx="12"/><rect class="cls-1" x="351.73" y="209.451" width="89.964" height="41.577" rx="12"/><rect class="cls-1" x="191.873" y="73.566" width="89.964" height="41.577" rx="12"/><rect class="cls-1" x="191.873" y="164.156" width="89.964" height="41.577" rx="12"/><rect class="cls-1" x="32.016" y="118.861" width="89.964" height="41.577" rx="12"/><line x1="351.167" y1="49.059" x2="282.875" y2="94.355"/><polygon class="cls-2" points="350.509 48.068 286.962 90.216 285.802 88.467 282.875 94.355 289.437 93.948 288.277 92.199 351.824 50.051 350.509 48.068"/><line x1="191.31" y1="183.086" x2="123.083" y2="140.472"/><polygon class="cls-2" points="191.94 182.076 128.543 142.479 129.654 140.699 123.083 140.472 126.17 146.278 127.282 144.498 190.68 184.095 191.94 182.076"/><line x1="191.31" y1="92.496" x2="123" y2="138.806"/><polygon class="cls-2" points="190.642 91.511 127.045 134.626 125.867 132.889 123 138.806 129.558 138.333 128.38 136.596 191.978 93.481 190.642 91.511"/><line x1="511.586" y1="139.611" x2="441.694" y2="139.688"/><polygon class="cls-2" points="511.585 138.421 447.386 138.492 447.384 136.393 441.694 139.688 447.391 142.971 447.389 140.872 511.588 140.801 511.585 138.421"/><line x1="511.586" y1="230.24" x2="441.694" y2="230.317"/><polygon class="cls-2" points="511.585 229.05 447.386 229.121 447.384 227.022 441.694 230.317 447.391 233.599 447.389 231.501 511.588 231.43 511.585 229.05"/><line x1="350.657" y1="228.255" x2="282.43" y2="185.641"/><polygon class="cls-2" points="351.287 227.246 287.89 187.648 289.001 185.868 282.43 185.641 285.517 191.447 286.629 189.667 350.027 229.264 351.287 227.246"/><line x1="350.657" y1="137.665" x2="282.347" y2="183.975"/><polygon class="cls-2" points="349.989 136.68 286.392 179.795 285.214 178.058 282.347 183.975 288.905 183.502 287.727 181.765 351.325 138.65 349.989 136.68"/><path d="M66.132,139.612c-.07-1.316-.153-2.9-.14-4.076H65.95c-.322,1.107-.715,2.283-1.19,3.586L63.093,143.7h-.925l-1.526-4.5c-.449-1.331-.828-2.549-1.093-3.67h-.028c-.029,1.177-.1,2.76-.182,4.174l-.253,4.049H57.924l.658-9.441h1.555l1.611,4.566c.392,1.163.714,2.2.952,3.18h.042c.238-.953.574-1.989,1-3.18l1.681-4.566h1.555l.588,9.441H66.37Z"/><path d="M73.228,143.759l-.1-.855h-.042a2.528,2.528,0,0,1-2.073,1.009,1.932,1.932,0,0,1-2.074-1.947c0-1.639,1.457-2.535,4.077-2.522v-.14a1.4,1.4,0,0,0-1.541-1.569,3.38,3.38,0,0,0-1.765.5l-.28-.813a4.209,4.209,0,0,1,2.227-.6c2.073,0,2.577,1.415,2.577,2.774v2.535a9.554,9.554,0,0,0,.113,1.625Zm-.182-3.46c-1.345-.028-2.872.21-2.872,1.527A1.09,1.09,0,0,0,71.337,143a1.688,1.688,0,0,0,1.639-1.134,1.292,1.292,0,0,0,.07-.393Z"/><path d="M76.054,142.5a3.229,3.229,0,0,0,1.625.49c.9,0,1.316-.448,1.316-1.008,0-.589-.349-.911-1.261-1.247-1.218-.434-1.793-1.107-1.793-1.919a2.092,2.092,0,0,1,2.34-1.989,3.389,3.389,0,0,1,1.667.42l-.308.9a2.654,2.654,0,0,0-1.387-.392c-.729,0-1.135.421-1.135.925,0,.56.406.812,1.289,1.149,1.177.448,1.779,1.036,1.779,2.045,0,1.19-.924,2.031-2.536,2.031a3.86,3.86,0,0,1-1.905-.463Z"/><path d="M83.251,135.032v1.947h1.765v.938H83.251v3.657c0,.84.237,1.316.924,1.316a2.756,2.756,0,0,0,.715-.084l.055.925a3.038,3.038,0,0,1-1.092.168,1.705,1.705,0,0,1-1.331-.519,2.51,2.51,0,0,1-.476-1.764v-3.7H81v-.938h1.051v-1.625Z"/><path d="M87,140.593a2.172,2.172,0,0,0,2.325,2.353,4.457,4.457,0,0,0,1.877-.35l.21.882a5.474,5.474,0,0,1-2.255.421,3.149,3.149,0,0,1-3.334-3.418c0-2.045,1.2-3.656,3.18-3.656,2.213,0,2.8,1.947,2.8,3.193a4.858,4.858,0,0,1-.042.575Zm3.614-.883a1.755,1.755,0,0,0-1.709-2,2.043,2.043,0,0,0-1.891,2Z"/><path d="M93.329,139.094c0-.8-.014-1.485-.056-2.115h1.079l.042,1.331h.056a2.033,2.033,0,0,1,1.877-1.485,1.338,1.338,0,0,1,.35.042v1.163a1.8,1.8,0,0,0-.42-.042A1.728,1.728,0,0,0,94.6,139.57a3.48,3.48,0,0,0-.056.575v3.614H93.329Z"/><path d="M226.323,94.037h-3.67v3.4h4.09v1.023h-5.308V89.023h5.1v1.022h-3.88v2.984h3.67Z"/><path d="M232.469,98.464V92.622h-2.844v5.842h-1.219V92.622h-.952v-.938h.952V91.46a3.2,3.2,0,0,1,.757-2.311,2.316,2.316,0,0,1,1.709-.631,2.154,2.154,0,0,1,.966.239l-.252.91a1.8,1.8,0,0,0-.729-.168c-.965,0-1.232.827-1.232,1.891v.294h2.844v-.322a3.2,3.2,0,0,1,.8-2.367,2.347,2.347,0,0,1,1.639-.631,2.792,2.792,0,0,1,1.05.2l-.153.953a1.921,1.921,0,0,0-.8-.154c-1.036,0-1.316.924-1.316,1.961v.364h1.638v.938H233.7v5.842Z"/><path d="M236.947,95.3a2.172,2.172,0,0,0,2.325,2.353,4.453,4.453,0,0,0,1.877-.35l.21.882a5.466,5.466,0,0,1-2.255.421,3.148,3.148,0,0,1-3.333-3.418c0-2.045,1.205-3.656,3.179-3.656,2.213,0,2.8,1.947,2.8,3.194a4.647,4.647,0,0,1-.042.574Zm3.615-.883a1.756,1.756,0,0,0-1.709-2,2.044,2.044,0,0,0-1.892,2Z"/><path d="M248.107,98.212a4.543,4.543,0,0,1-1.947.392,3.221,3.221,0,0,1-3.376-3.46,3.445,3.445,0,0,1,3.642-3.6,4.124,4.124,0,0,1,1.709.35l-.281.953a2.85,2.85,0,0,0-1.428-.323,2.556,2.556,0,0,0-.042,5.1,3.5,3.5,0,0,0,1.513-.336Z"/><path d="M251.214,89.737v1.947h1.765v.938h-1.765v3.657c0,.84.237,1.316.924,1.316a2.756,2.756,0,0,0,.715-.084l.055.925a3.018,3.018,0,0,1-1.093.168,1.7,1.7,0,0,1-1.33-.519,2.509,2.509,0,0,1-.476-1.764v-3.7h-1.051v-.938h1.051V90.059Z"/><path d="M222.919,187.569a4.31,4.31,0,0,0,2.185.616c1.247,0,1.975-.658,1.975-1.61,0-.883-.5-1.387-1.779-1.877-1.54-.547-2.493-1.345-2.493-2.676,0-1.47,1.218-2.563,3.053-2.563a4.289,4.289,0,0,1,2.087.462l-.336,1a3.744,3.744,0,0,0-1.793-.448c-1.288,0-1.778.77-1.778,1.414,0,.883.574,1.317,1.877,1.821,1.6.617,2.409,1.387,2.409,2.774,0,1.456-1.079,2.717-3.305,2.717a4.886,4.886,0,0,1-2.411-.6Z"/><path d="M230.718,185.889a2.172,2.172,0,0,0,2.325,2.353,4.439,4.439,0,0,0,1.877-.351l.21.883a5.494,5.494,0,0,1-2.255.42,3.148,3.148,0,0,1-3.334-3.418c0-2.045,1.205-3.656,3.18-3.656,2.213,0,2.8,1.947,2.8,3.194a4.683,4.683,0,0,1-.042.575Zm3.614-.883a1.755,1.755,0,0,0-1.709-2,2.044,2.044,0,0,0-1.892,2Z"/><path d="M237.045,184.109c0-.7-.014-1.274-.056-1.835h1.093l.069,1.121h.029a2.493,2.493,0,0,1,2.241-1.275c.938,0,2.4.561,2.4,2.886v4.048h-1.233v-3.908c0-1.092-.406-2-1.568-2a1.752,1.752,0,0,0-1.654,1.261,1.8,1.8,0,0,0-.084.574v4.076h-1.232Z"/><path d="M250.67,179.109V187.3c0,.6.014,1.289.056,1.751h-1.107l-.056-1.177h-.028a2.507,2.507,0,0,1-2.311,1.331c-1.639,0-2.9-1.386-2.9-3.446-.013-2.255,1.387-3.642,3.04-3.642a2.268,2.268,0,0,1,2.045,1.037h.029v-4.048Zm-1.232,5.925a2.176,2.176,0,0,0-.057-.518,1.813,1.813,0,0,0-1.778-1.429c-1.276,0-2.032,1.12-2.032,2.619,0,1.373.672,2.508,2,2.508a1.854,1.854,0,0,0,1.807-1.471,2.142,2.142,0,0,0,.057-.533Z"/><path d="M526.184,143.759l-2.4-9.441h1.289l1.12,4.776c.281,1.177.532,2.354.7,3.264h.029c.154-.939.448-2.059.77-3.278l1.261-4.762h1.274l1.149,4.79c.266,1.121.518,2.241.659,3.236h.027c.2-1.037.463-2.087.757-3.264l1.246-4.762h1.247l-2.675,9.441h-1.275l-1.19-4.917a28.392,28.392,0,0,1-.616-3.082h-.029a29.5,29.5,0,0,1-.728,3.082l-1.345,4.917Z"/><path d="M539.736,143.759l-.1-.855H539.6a2.527,2.527,0,0,1-2.074,1.009,1.932,1.932,0,0,1-2.073-1.947c0-1.639,1.457-2.535,4.076-2.522v-.14a1.4,1.4,0,0,0-1.541-1.569,3.377,3.377,0,0,0-1.764.5l-.281-.813a4.213,4.213,0,0,1,2.228-.6c2.073,0,2.577,1.415,2.577,2.774v2.535a9.56,9.56,0,0,0,.112,1.625Zm-.181-3.46c-1.345-.028-2.872.21-2.872,1.527A1.09,1.09,0,0,0,537.846,143a1.686,1.686,0,0,0,1.638-1.134,1.294,1.294,0,0,0,.071-.393Z"/><path d="M543.1,136.979l1.33,3.81a17.724,17.724,0,0,1,.547,1.737h.042c.154-.56.349-1.121.574-1.737l1.316-3.81h1.289l-2.661,6.78h-1.177l-2.578-6.78Z"/><path d="M549.9,140.593a2.173,2.173,0,0,0,2.326,2.353,4.46,4.46,0,0,0,1.877-.35l.21.882a5.474,5.474,0,0,1-2.255.421,3.149,3.149,0,0,1-3.334-3.418c0-2.045,1.205-3.656,3.179-3.656,2.213,0,2.8,1.947,2.8,3.193a4.65,4.65,0,0,1-.042.575Zm3.615-.883a1.756,1.756,0,0,0-1.709-2,2.045,2.045,0,0,0-1.892,2Z"/><path d="M559.476,139.515v.91h-3.46v-.91Z"/><path d="M562.4,135.032v1.947h1.765v.938H562.4v3.657c0,.84.238,1.316.924,1.316a2.75,2.75,0,0,0,.715-.084l.056.925A3.048,3.048,0,0,1,563,143.9a1.7,1.7,0,0,1-1.33-.519,2.505,2.505,0,0,1-.477-1.764v-3.7h-1.05v-.938h1.05v-1.625Z"/><path d="M569.3,143.759l-.1-.855h-.042a2.526,2.526,0,0,1-2.073,1.009,1.932,1.932,0,0,1-2.073-1.947c0-1.639,1.457-2.535,4.076-2.522v-.14a1.4,1.4,0,0,0-1.541-1.569,3.383,3.383,0,0,0-1.765.5l-.28-.813a4.209,4.209,0,0,1,2.227-.6c2.074,0,2.577,1.415,2.577,2.774v2.535a9.554,9.554,0,0,0,.113,1.625Zm-.182-3.46c-1.345-.028-2.872.21-2.872,1.527A1.09,1.09,0,0,0,567.413,143a1.688,1.688,0,0,0,1.639-1.134,1.292,1.292,0,0,0,.07-.393Z"/><path d="M572.242,143.759c.028-.463.056-1.149.056-1.751v-8.2h1.219v4.259h.028a2.524,2.524,0,0,1,2.31-1.247c1.682,0,2.873,1.4,2.859,3.46,0,2.423-1.527,3.628-3.04,3.628a2.416,2.416,0,0,1-2.27-1.275h-.042l-.055,1.121Zm1.275-2.718a2.408,2.408,0,0,0,.055.449,1.9,1.9,0,0,0,1.85,1.442c1.288,0,2.058-1.05,2.058-2.6,0-1.359-.7-2.521-2.016-2.521a1.964,1.964,0,0,0-1.877,1.512,2.429,2.429,0,0,0-.07.5Z"/><path d="M580.264,133.813H581.5v9.946h-1.232Z"/><path d="M584.254,140.593a2.172,2.172,0,0,0,2.325,2.353,4.457,4.457,0,0,0,1.877-.35l.21.882a5.474,5.474,0,0,1-2.255.421,3.149,3.149,0,0,1-3.334-3.418c0-2.045,1.205-3.656,3.18-3.656,2.213,0,2.8,1.947,2.8,3.193a4.858,4.858,0,0,1-.042.575Zm3.614-.883a1.755,1.755,0,0,0-1.709-2,2.043,2.043,0,0,0-1.891,2Z"/><path d="M526.184,234.349l-2.4-9.441h1.289l1.12,4.776c.281,1.177.532,2.354.7,3.264h.029c.154-.938.448-2.059.77-3.278l1.261-4.762h1.274l1.149,4.791c.266,1.12.518,2.241.659,3.235h.027c.2-1.036.463-2.087.757-3.264l1.246-4.762h1.247l-2.675,9.441h-1.275l-1.19-4.917a28.392,28.392,0,0,1-.616-3.082h-.029a29.445,29.445,0,0,1-.728,3.082l-1.345,4.917Z"/><path d="M539.736,234.349l-.1-.854H539.6a2.526,2.526,0,0,1-2.074,1.008,1.931,1.931,0,0,1-2.073-1.947c0-1.639,1.457-2.535,4.076-2.521v-.141a1.4,1.4,0,0,0-1.541-1.568,3.376,3.376,0,0,0-1.764.5l-.281-.813a4.213,4.213,0,0,1,2.228-.6c2.073,0,2.577,1.415,2.577,2.774v2.535a9.553,9.553,0,0,0,.112,1.625Zm-.181-3.46c-1.345-.028-2.872.21-2.872,1.527a1.091,1.091,0,0,0,1.163,1.177,1.687,1.687,0,0,0,1.638-1.135,1.288,1.288,0,0,0,.071-.392Z"/><path d="M543.1,227.569l1.33,3.81a17.655,17.655,0,0,1,.547,1.738h.042c.154-.561.349-1.122.574-1.738l1.316-3.81h1.289l-2.661,6.78h-1.177l-2.578-6.78Z"/><path d="M549.9,231.183a2.173,2.173,0,0,0,2.326,2.354,4.442,4.442,0,0,0,1.877-.351l.21.883a5.494,5.494,0,0,1-2.255.42,3.148,3.148,0,0,1-3.334-3.418c0-2.045,1.205-3.656,3.179-3.656,2.213,0,2.8,1.947,2.8,3.194a4.647,4.647,0,0,1-.042.574Zm3.615-.882a1.756,1.756,0,0,0-1.709-2,2.044,2.044,0,0,0-1.892,2Z"/><path d="M559.476,230.105v.91h-3.46v-.91Z"/><path d="M562.4,225.622v1.947h1.765v.939H562.4v3.656c0,.84.238,1.316.924,1.316a2.75,2.75,0,0,0,.715-.084l.056.925a3.026,3.026,0,0,1-1.093.168,1.707,1.707,0,0,1-1.33-.518,2.508,2.508,0,0,1-.477-1.765v-3.7h-1.05v-.939h1.05v-1.624Z"/><path d="M569.3,234.349l-.1-.854h-.042a2.526,2.526,0,0,1-2.073,1.008,1.931,1.931,0,0,1-2.073-1.947c0-1.639,1.457-2.535,4.076-2.521v-.141a1.4,1.4,0,0,0-1.541-1.568,3.382,3.382,0,0,0-1.765.5l-.28-.813a4.209,4.209,0,0,1,2.227-.6c2.074,0,2.577,1.415,2.577,2.774v2.535a9.546,9.546,0,0,0,.113,1.625Zm-.182-3.46c-1.345-.028-2.872.21-2.872,1.527a1.091,1.091,0,0,0,1.163,1.177,1.689,1.689,0,0,0,1.639-1.135,1.286,1.286,0,0,0,.07-.392Z"/><path d="M572.242,234.349c.028-.462.056-1.148.056-1.751V224.4h1.219v4.258h.028a2.526,2.526,0,0,1,2.31-1.247c1.682,0,2.873,1.4,2.859,3.46,0,2.423-1.527,3.628-3.04,3.628a2.416,2.416,0,0,1-2.27-1.275h-.042l-.055,1.121Zm1.275-2.717a2.387,2.387,0,0,0,.055.448,1.9,1.9,0,0,0,1.85,1.442c1.288,0,2.058-1.05,2.058-2.6,0-1.359-.7-2.521-2.016-2.521a1.964,1.964,0,0,0-1.877,1.513,2.428,2.428,0,0,0-.07.5Z"/><path d="M580.264,224.4H581.5v9.945h-1.232Z"/><path d="M584.254,231.183a2.173,2.173,0,0,0,2.325,2.354,4.439,4.439,0,0,0,1.877-.351l.21.883a5.494,5.494,0,0,1-2.255.42,3.148,3.148,0,0,1-3.334-3.418c0-2.045,1.205-3.656,3.18-3.656,2.213,0,2.8,1.947,2.8,3.194a4.855,4.855,0,0,1-.042.574Zm3.614-.882a1.755,1.755,0,0,0-1.709-2,2.042,2.042,0,0,0-1.891,2Z"/><path d="M378.1,43.853a12.7,12.7,0,0,1,2.339-.2,3.86,3.86,0,0,1,2.732.771,2.354,2.354,0,0,1,.742,1.793,2.478,2.478,0,0,1-1.779,2.409v.042a2.354,2.354,0,0,1,1.387,1.905,15.039,15.039,0,0,0,.728,2.591h-1.261a12.218,12.218,0,0,1-.63-2.255c-.28-1.3-.785-1.793-1.891-1.835h-1.149v4.09H378.1Zm1.218,4.3h1.247c1.3,0,2.129-.715,2.129-1.793,0-1.219-.882-1.751-2.171-1.765a5.028,5.028,0,0,0-1.205.112Z"/><path d="M386.332,50a2.172,2.172,0,0,0,2.325,2.353,4.457,4.457,0,0,0,1.877-.35l.21.882a5.49,5.49,0,0,1-2.255.42,3.148,3.148,0,0,1-3.334-3.417c0-2.045,1.205-3.656,3.18-3.656,2.213,0,2.8,1.947,2.8,3.193A4.876,4.876,0,0,1,391.1,50Zm3.614-.883a1.755,1.755,0,0,0-1.709-2,2.043,2.043,0,0,0-1.891,2Z"/><path d="M394.145,44.442v1.947h1.764v.938h-1.764v3.656c0,.841.237,1.317.923,1.317a2.743,2.743,0,0,0,.715-.084l.056.925a3.044,3.044,0,0,1-1.093.167,1.707,1.707,0,0,1-1.33-.518,2.506,2.506,0,0,1-.477-1.765v-3.7h-1.05v-.938h1.05V44.764Z"/><path d="M402.966,51.319c0,.7.014,1.317.056,1.849H401.93l-.071-1.106h-.028a2.549,2.549,0,0,1-2.241,1.261c-1.065,0-2.339-.589-2.339-2.97V46.389h1.232v3.754c0,1.289.393,2.157,1.513,2.157a1.782,1.782,0,0,0,1.625-1.121,1.8,1.8,0,0,0,.112-.63v-4.16h1.233Z"/><path d="M405.007,48.5c0-.8-.014-1.485-.056-2.115h1.078l.042,1.331h.057a2.033,2.033,0,0,1,1.877-1.485,1.284,1.284,0,0,1,.349.042v1.162a1.835,1.835,0,0,0-.419-.042,1.73,1.73,0,0,0-1.654,1.583,3.587,3.587,0,0,0-.055.575v3.613h-1.219Z"/><path d="M409.642,48.224c0-.7-.014-1.275-.056-1.835h1.093l.069,1.12h.028a2.493,2.493,0,0,1,2.242-1.274c.938,0,2.4.56,2.4,2.885v4.048H414.18V49.26c0-1.092-.407-2-1.569-2a1.752,1.752,0,0,0-1.653,1.261,1.771,1.771,0,0,0-.084.574v4.076h-1.232Z"/><path d="M381.564,134.318h5.084v1.022h-3.865v3.138h3.572v1.008h-3.572v4.273h-1.219Z"/><path d="M391.465,143.759l-.1-.855h-.043a2.522,2.522,0,0,1-2.072,1.009,1.932,1.932,0,0,1-2.074-1.947c0-1.639,1.457-2.535,4.076-2.522v-.14a1.4,1.4,0,0,0-1.541-1.569,3.382,3.382,0,0,0-1.764.5l-.281-.813a4.213,4.213,0,0,1,2.228-.6c2.073,0,2.577,1.415,2.577,2.774v2.535a9.554,9.554,0,0,0,.113,1.625Zm-.182-3.46c-1.345-.028-2.873.21-2.873,1.527A1.091,1.091,0,0,0,389.574,143a1.689,1.689,0,0,0,1.639-1.134,1.323,1.323,0,0,0,.07-.393Z"/><path d="M400.312,133.813v8.2c0,.6.014,1.288.057,1.751h-1.107l-.055-1.177h-.029a2.508,2.508,0,0,1-2.311,1.331c-1.638,0-2.9-1.387-2.9-3.446-.014-2.255,1.387-3.642,3.041-3.642a2.268,2.268,0,0,1,2.045,1.037h.027v-4.049Zm-1.232,5.926a2.129,2.129,0,0,0-.057-.519,1.811,1.811,0,0,0-1.777-1.429c-1.275,0-2.031,1.121-2.031,2.62,0,1.373.672,2.507,2,2.507a1.85,1.85,0,0,0,1.806-1.47,2.106,2.106,0,0,0,.057-.533Z"/><path d="M403.041,140.593a2.171,2.171,0,0,0,2.324,2.353,4.453,4.453,0,0,0,1.877-.35l.211.882a5.475,5.475,0,0,1-2.256.421,3.149,3.149,0,0,1-3.334-3.418c0-2.045,1.2-3.656,3.18-3.656,2.213,0,2.8,1.947,2.8,3.193a4.812,4.812,0,0,1-.043.575Zm3.613-.883a1.755,1.755,0,0,0-1.709-2,2.042,2.042,0,0,0-1.89,2Z"/><path d="M409.367,139.094c0-.8-.013-1.485-.055-2.115h1.079l.041,1.331h.056a2.035,2.035,0,0,1,1.877-1.485,1.322,1.322,0,0,1,.35.042v1.163a1.79,1.79,0,0,0-.42-.042,1.729,1.729,0,0,0-1.652,1.582,3.474,3.474,0,0,0-.057.575v3.614h-1.219Z"/><path d="M381.564,224.908h5.085v1.023h-3.866v3.137h3.572v1.009h-3.572v4.272h-1.219Z"/><path d="M391.465,234.349l-.1-.854h-.042a2.524,2.524,0,0,1-2.073,1.008,1.931,1.931,0,0,1-2.073-1.947c0-1.639,1.457-2.535,4.076-2.521v-.141a1.4,1.4,0,0,0-1.541-1.568,3.382,3.382,0,0,0-1.765.5l-.28-.813a4.209,4.209,0,0,1,2.227-.6c2.074,0,2.578,1.415,2.578,2.774v2.535a9.553,9.553,0,0,0,.112,1.625Zm-.182-3.46c-1.345-.028-2.872.21-2.872,1.527a1.091,1.091,0,0,0,1.163,1.177,1.688,1.688,0,0,0,1.639-1.135,1.286,1.286,0,0,0,.07-.392Z"/><path d="M400.313,224.4V232.6c0,.6.014,1.289.056,1.751h-1.106l-.056-1.177h-.028a2.507,2.507,0,0,1-2.312,1.331c-1.638,0-2.9-1.386-2.9-3.446-.014-2.255,1.386-3.642,3.04-3.642a2.269,2.269,0,0,1,2.045,1.037h.028V224.4Zm-1.232,5.925a2.19,2.19,0,0,0-.057-.519,1.811,1.811,0,0,0-1.778-1.428c-1.275,0-2.031,1.12-2.031,2.619,0,1.373.672,2.508,2,2.508a1.852,1.852,0,0,0,1.806-1.471,2.142,2.142,0,0,0,.057-.533Z"/><path d="M403.041,231.183a2.173,2.173,0,0,0,2.325,2.354,4.439,4.439,0,0,0,1.877-.351l.21.883a5.49,5.49,0,0,1-2.255.42,3.148,3.148,0,0,1-3.334-3.418c0-2.045,1.205-3.656,3.18-3.656,2.213,0,2.8,1.947,2.8,3.194a4.855,4.855,0,0,1-.042.574Zm3.614-.882a1.755,1.755,0,0,0-1.709-2,2.042,2.042,0,0,0-1.891,2Z"/><path d="M409.368,229.684c0-.8-.014-1.484-.056-2.115h1.079l.042,1.331h.056a2.034,2.034,0,0,1,1.877-1.485,1.333,1.333,0,0,1,.35.042v1.163a1.851,1.851,0,0,0-.42-.042,1.729,1.729,0,0,0-1.653,1.583,3.468,3.468,0,0,0-.056.574v3.614h-1.219Z"/><path class="cls-3" d="M382.833,87.028C348.613,126,268.859,124.194,236.855,163.306"/><line x1="385.167" y1="84.417" x2="396.712" y2="71.707"/><polygon class="cls-4" points="386.435 85.569 392.003 79.439 392.468 78.928 394.705 80.96 396.712 71.707 387.694 74.591 389.931 76.623 389.466 77.135 383.898 83.264 386.435 85.569"/></svg>