<svg id="Layer_1" data-name="Layer 1" xmlns="http://www.w3.org/2000/svg" width="623.998" height="264.371" viewBox="0 0 623.998 264.371"><defs><style>.cls-1,.cls-2,.cls-3{fill:none;}.cls-1{stroke:#e1e1e1;}.cls-1,.cls-2,.cls-3,.cls-5{stroke-miterlimit:10;}.cls-2{stroke:#b3b3b3;stroke-width:3px;}.cls-3{stroke:red;}.cls-3,.cls-5{stroke-width:2px;}.cls-4{fill:#202020;}.cls-5{fill:#fbb03b;stroke:#000;}</style></defs><polyline class="cls-1" points="30.041 233.991 30.041 32.735 587.332 32.735 587.332 233.991"/><line class="cls-1" x1="30.041" y1="233.991" x2="587.332" y2="233.991"/><line class="cls-1" x1="30.041" y1="215.695" x2="587.332" y2="215.695"/><line class="cls-1" x1="30.041" y1="197.399" x2="587.332" y2="197.399"/><line class="cls-1" x1="30.041" y1="179.103" x2="587.332" y2="179.103"/><line class="cls-1" x1="30.041" y1="160.807" x2="587.332" y2="160.807"/><line class="cls-1" x1="30.041" y1="142.511" x2="587.332" y2="142.511"/><line class="cls-1" x1="30.041" y1="124.215" x2="587.332" y2="124.215"/><line class="cls-1" x1="30.041" y1="105.919" x2="587.332" y2="105.919"/><line class="cls-1" x1="30.041" y1="87.623" x2="587.332" y2="87.623"/><line class="cls-1" x1="30.041" y1="69.327" x2="587.332" y2="69.327"/><line class="cls-1" x1="30.041" y1="51.031" x2="587.332" y2="51.031"/><line class="cls-1" x1="569.355" y1="32.735" x2="569.355" y2="233.991"/><line class="cls-1" x1="551.378" y1="32.735" x2="551.378" y2="233.991"/><line class="cls-1" x1="533.401" y1="32.735" x2="533.401" y2="233.991"/><line class="cls-1" x1="515.424" y1="32.735" x2="515.424" y2="233.991"/><line class="cls-1" x1="497.447" y1="32.735" x2="497.447" y2="233.991"/><line class="cls-1" x1="479.47" y1="32.735" x2="479.47" y2="233.991"/><line class="cls-1" x1="461.492" y1="32.735" x2="461.492" y2="233.991"/><line class="cls-1" x1="443.515" y1="32.735" x2="443.515" y2="233.991"/><line class="cls-1" x1="425.538" y1="32.735" x2="425.538" y2="233.991"/><line class="cls-1" x1="407.561" y1="32.735" x2="407.561" y2="233.991"/><line class="cls-1" x1="389.584" y1="32.735" x2="389.584" y2="233.991"/><line class="cls-1" x1="371.607" y1="32.735" x2="371.607" y2="233.991"/><line class="cls-1" x1="353.63" y1="32.735" x2="353.63" y2="233.991"/><line class="cls-1" x1="335.653" y1="32.735" x2="335.653" y2="233.991"/><line class="cls-2" x1="317.675" y1="32.735" x2="317.675" y2="233.991"/><line class="cls-1" x1="299.698" y1="32.735" x2="299.698" y2="233.991"/><line class="cls-1" x1="281.721" y1="32.735" x2="281.721" y2="233.991"/><line class="cls-1" x1="263.744" y1="32.735" x2="263.744" y2="233.991"/><line class="cls-1" x1="245.767" y1="32.735" x2="245.767" y2="233.991"/><line class="cls-1" x1="227.79" y1="32.735" x2="227.79" y2="233.991"/><line class="cls-1" x1="209.813" y1="32.735" x2="209.813" y2="233.991"/><line class="cls-1" x1="191.835" y1="32.735" x2="191.835" y2="233.991"/><line class="cls-1" x1="173.858" y1="32.735" x2="173.858" y2="233.991"/><line class="cls-1" x1="155.881" y1="32.735" x2="155.881" y2="233.991"/><line class="cls-1" x1="137.904" y1="32.735" x2="137.904" y2="233.991"/><line class="cls-1" x1="119.927" y1="32.735" x2="119.927" y2="233.991"/><line class="cls-2" x1="101.95" y1="32.735" x2="101.95" y2="233.991"/><line class="cls-1" x1="83.973" y1="32.735" x2="83.973" y2="233.991"/><line class="cls-1" x1="65.996" y1="32.735" x2="65.996" y2="233.991"/><line class="cls-1" x1="48.018" y1="32.735" x2="48.018" y2="233.991"/><path d="M575.067,248.385a5.176,5.176,0,0,1-.273,1.784,3.025,3.025,0,0,1-.782,1.21,3.138,3.138,0,0,1-1.239.688,6.053,6.053,0,0,1-1.738.22h-1.81a.479.479,0,0,1-.325-.114.468.468,0,0,1-.132-.372v-6.61a.47.47,0,0,1,.132-.372.479.479,0,0,1,.325-.114h1.945a5.448,5.448,0,0,1,1.72.237,3.115,3.115,0,0,1,1.189.7,3,3,0,0,1,.736,1.151A4.59,4.59,0,0,1,575.067,248.385Zm-1.594.053a3.8,3.8,0,0,0-.126-1,2.135,2.135,0,0,0-.4-.8,1.874,1.874,0,0,0-.715-.53,2.9,2.9,0,0,0-1.146-.191H570.3v5.156h.8a3.012,3.012,0,0,0,1.066-.164,1.782,1.782,0,0,0,.724-.5,2.126,2.126,0,0,0,.433-.823A4.105,4.105,0,0,0,573.473,248.438Z"/><path d="M577.832,245.092a.826.826,0,0,1-.181.615,1.438,1.438,0,0,1-1.345.006.8.8,0,0,1-.173-.592.846.846,0,0,1,.179-.618,1.415,1.415,0,0,1,1.345-.006A.806.806,0,0,1,577.832,245.092Zm-.111,7a.16.16,0,0,1-.035.1.263.263,0,0,1-.12.074,1.1,1.1,0,0,1-.226.044c-.094.009-.213.014-.357.014s-.264,0-.358-.014a1.089,1.089,0,0,1-.225-.044.252.252,0,0,1-.12-.074.155.155,0,0,1-.036-.1v-5.215a.155.155,0,0,1,.036-.1.27.27,0,0,1,.12-.077.993.993,0,0,1,.225-.049,3.559,3.559,0,0,1,.715,0,1,1,0,0,1,.226.049.283.283,0,0,1,.12.077.16.16,0,0,1,.035.1Z"/><path d="M582.871,250.611a1.755,1.755,0,0,1-.167.786,1.559,1.559,0,0,1-.471.568,2.133,2.133,0,0,1-.721.343,3.4,3.4,0,0,1-.9.114,3.473,3.473,0,0,1-.56-.044,3.3,3.3,0,0,1-.477-.111,2.491,2.491,0,0,1-.352-.138.865.865,0,0,1-.205-.132.411.411,0,0,1-.1-.193,1.645,1.645,0,0,1-.035-.39,2.442,2.442,0,0,1,.012-.272.679.679,0,0,1,.035-.164.151.151,0,0,1,.059-.082.166.166,0,0,1,.088-.021.437.437,0,0,1,.19.073c.084.049.188.1.313.161a3.175,3.175,0,0,0,.437.164,1.921,1.921,0,0,0,.565.077,1.414,1.414,0,0,0,.355-.041.906.906,0,0,0,.269-.118.485.485,0,0,0,.173-.193.6.6,0,0,0,.059-.269.443.443,0,0,0-.109-.3.969.969,0,0,0-.287-.22,3.44,3.44,0,0,0-.4-.176c-.15-.054-.3-.115-.463-.181a4.421,4.421,0,0,1-.463-.229,1.77,1.77,0,0,1-.4-.316,1.444,1.444,0,0,1-.287-.451,1.669,1.669,0,0,1-.109-.633,1.6,1.6,0,0,1,.147-.689,1.5,1.5,0,0,1,.422-.536,2,2,0,0,1,.671-.346,2.976,2.976,0,0,1,.887-.123,3.107,3.107,0,0,1,.478.036,3.456,3.456,0,0,1,.419.087,2.081,2.081,0,0,1,.316.115,1.068,1.068,0,0,1,.185.105.3.3,0,0,1,.079.088.367.367,0,0,1,.035.106c.008.041.015.091.021.152s.008.136.008.225c0,.106,0,.192-.008.258a.652.652,0,0,1-.03.158.139.139,0,0,1-.055.08.169.169,0,0,1-.082.02.392.392,0,0,1-.164-.061,3.032,3.032,0,0,0-.279-.132,3.255,3.255,0,0,0-.386-.132,1.866,1.866,0,0,0-.5-.062,1.308,1.308,0,0,0-.346.041.657.657,0,0,0-.24.118.481.481,0,0,0-.141.178.53.53,0,0,0-.047.22.439.439,0,0,0,.111.3,1.023,1.023,0,0,0,.293.216,3.224,3.224,0,0,0,.413.176q.232.082.469.179a4.2,4.2,0,0,1,.469.226,1.776,1.776,0,0,1,.413.316,1.456,1.456,0,0,1,.293.448A1.572,1.572,0,0,1,582.871,250.611Z"/><path d="M586.938,251.572a1.886,1.886,0,0,1-.032.4.431.431,0,0,1-.085.193.467.467,0,0,1-.156.1,1.515,1.515,0,0,1-.24.076,2.659,2.659,0,0,1-.3.05,3.186,3.186,0,0,1-.325.017,2.346,2.346,0,0,1-.762-.111,1.264,1.264,0,0,1-.533-.343,1.423,1.423,0,0,1-.31-.583,3.043,3.043,0,0,1-.1-.832v-2.678h-.627a.186.186,0,0,1-.17-.137,1.288,1.288,0,0,1-.058-.46,2.337,2.337,0,0,1,.014-.287.728.728,0,0,1,.044-.185.223.223,0,0,1,.073-.1.188.188,0,0,1,.1-.029h.621V245.5a.183.183,0,0,1,.032-.105.238.238,0,0,1,.117-.079.878.878,0,0,1,.229-.047,3.5,3.5,0,0,1,.354-.015,3.584,3.584,0,0,1,.361.015.826.826,0,0,1,.225.047.257.257,0,0,1,.118.079.172.172,0,0,1,.035.105v1.166H586.7a.186.186,0,0,1,.1.029.216.216,0,0,1,.073.1.688.688,0,0,1,.044.185,2.314,2.314,0,0,1,.015.287,1.283,1.283,0,0,1-.059.46.186.186,0,0,1-.17.137h-1.142v2.456a1.227,1.227,0,0,0,.134.641.522.522,0,0,0,.481.214,1.043,1.043,0,0,0,.211-.02,1.562,1.562,0,0,0,.167-.047l.123-.047a.234.234,0,0,1,.091-.021.12.12,0,0,1,.067.021.135.135,0,0,1,.05.082,1.247,1.247,0,0,1,.032.167A1.97,1.97,0,0,1,586.938,251.572Z"/><path d="M592.34,252.106a.155.155,0,0,1-.058.128.4.4,0,0,1-.185.068,2.613,2.613,0,0,1-.372.02,2.651,2.651,0,0,1-.384-.02.326.326,0,0,1-.17-.068.168.168,0,0,1-.05-.128v-.416a2.378,2.378,0,0,1-.735.539,2.148,2.148,0,0,1-.917.193,2.581,2.581,0,0,1-.765-.108,1.731,1.731,0,0,1-.6-.323,1.447,1.447,0,0,1-.4-.53,1.816,1.816,0,0,1-.14-.738,1.67,1.67,0,0,1,.178-.794,1.459,1.459,0,0,1,.534-.557,2.655,2.655,0,0,1,.881-.325,6.329,6.329,0,0,1,1.225-.106h.51v-.316a1.673,1.673,0,0,0-.05-.431.715.715,0,0,0-.164-.307.677.677,0,0,0-.3-.182,1.627,1.627,0,0,0-.471-.058,2.423,2.423,0,0,0-.66.082,3.73,3.73,0,0,0-.512.181c-.149.067-.273.127-.372.182a.543.543,0,0,1-.243.082.178.178,0,0,1-.115-.041.309.309,0,0,1-.082-.117.861.861,0,0,1-.05-.188,1.677,1.677,0,0,1-.017-.246,1.14,1.14,0,0,1,.029-.287.45.45,0,0,1,.111-.19,1.085,1.085,0,0,1,.288-.188,3.288,3.288,0,0,1,.48-.19,4.378,4.378,0,0,1,.6-.144,4.383,4.383,0,0,1,1.722.065,1.771,1.771,0,0,1,.718.369,1.432,1.432,0,0,1,.41.641,3,3,0,0,1,.129.932Zm-1.447-2.239h-.563a3.03,3.03,0,0,0-.609.053,1.167,1.167,0,0,0-.41.158.646.646,0,0,0-.232.255.782.782,0,0,0-.073.343.656.656,0,0,0,.208.515.832.832,0,0,0,.577.188,1.088,1.088,0,0,0,.572-.158,2.412,2.412,0,0,0,.53-.463Z"/><path d="M598.8,252.088a.16.16,0,0,1-.035.1.263.263,0,0,1-.117.074,1.047,1.047,0,0,1-.226.044c-.1.009-.214.014-.354.014s-.265,0-.361-.014a1.036,1.036,0,0,1-.225-.044.261.261,0,0,1-.118-.074.16.16,0,0,1-.035-.1v-2.982a2.526,2.526,0,0,0-.055-.6,1.172,1.172,0,0,0-.161-.372.717.717,0,0,0-.273-.24.843.843,0,0,0-.39-.085.974.974,0,0,0-.568.2,3.075,3.075,0,0,0-.6.6v3.475a.154.154,0,0,1-.035.1.252.252,0,0,1-.12.074,1.1,1.1,0,0,1-.225.044c-.094.009-.213.014-.358.014s-.264,0-.357-.014a1.1,1.1,0,0,1-.226-.044.252.252,0,0,1-.12-.074.16.16,0,0,1-.035-.1v-5.227a.182.182,0,0,1,.029-.1.216.216,0,0,1,.106-.073.773.773,0,0,1,.2-.044,2.512,2.512,0,0,1,.3-.015,2.635,2.635,0,0,1,.31.015.666.666,0,0,1,.191.044.207.207,0,0,1,.1.073.175.175,0,0,1,.03.1v.6a3.312,3.312,0,0,1,.881-.7,2,2,0,0,1,.935-.235,2.07,2.07,0,0,1,.9.176,1.566,1.566,0,0,1,.592.478,1.917,1.917,0,0,1,.325.706,4.08,4.08,0,0,1,.1.972Z"/><path d="M604.205,251.256c0,.1,0,.186-.008.255a1.475,1.475,0,0,1-.024.173.517.517,0,0,1-.035.114.436.436,0,0,1-.091.111,1.274,1.274,0,0,1-.24.164,2.319,2.319,0,0,1-.387.173,3.08,3.08,0,0,1-.471.123,2.921,2.921,0,0,1-.525.047,2.844,2.844,0,0,1-1.069-.187,2,2,0,0,1-.782-.554,2.426,2.426,0,0,1-.478-.894,4.7,4.7,0,0,1,.035-2.563,2.6,2.6,0,0,1,.548-.946,2.184,2.184,0,0,1,.832-.557,2.962,2.962,0,0,1,1.055-.182,2.606,2.606,0,0,1,.46.041,2.737,2.737,0,0,1,.422.112,2.154,2.154,0,0,1,.351.158,1.043,1.043,0,0,1,.22.152.609.609,0,0,1,.091.109.385.385,0,0,1,.041.114,1.715,1.715,0,0,1,.023.173q.009.1.009.249a1.351,1.351,0,0,1-.059.477c-.039.092-.09.138-.152.138a.359.359,0,0,1-.211-.082c-.074-.055-.162-.115-.264-.182a1.918,1.918,0,0,0-.363-.181,1.383,1.383,0,0,0-.5-.082,1,1,0,0,0-.879.442,2.288,2.288,0,0,0-.3,1.3,3.245,3.245,0,0,0,.076.744,1.6,1.6,0,0,0,.225.539.95.95,0,0,0,.375.325,1.207,1.207,0,0,0,.525.109,1.376,1.376,0,0,0,.524-.091,2.15,2.15,0,0,0,.384-.2c.109-.075.2-.142.275-.2a.33.33,0,0,1,.188-.09.132.132,0,0,1,.088.029.2.2,0,0,1,.055.108,1.3,1.3,0,0,1,.033.2C604.2,251.022,604.205,251.127,604.205,251.256Z"/><path d="M610.1,249.322a.57.57,0,0,1-.12.4.431.431,0,0,1-.331.129h-3.182a2.164,2.164,0,0,0,.079.606,1.161,1.161,0,0,0,.252.463,1.1,1.1,0,0,0,.445.29,1.922,1.922,0,0,0,.654.1,3.671,3.671,0,0,0,.679-.056,4.4,4.4,0,0,0,.507-.123c.143-.045.261-.086.355-.123a.664.664,0,0,1,.228-.056.169.169,0,0,1,.088.021.149.149,0,0,1,.059.073.514.514,0,0,1,.032.149c.006.065.009.146.009.244s0,.159-.006.219a1.353,1.353,0,0,1-.018.156.334.334,0,0,1-.035.108.394.394,0,0,1-.061.085.74.74,0,0,1-.208.111,3.314,3.314,0,0,1-.434.138,5.888,5.888,0,0,1-.6.117,5.053,5.053,0,0,1-.727.05,3.855,3.855,0,0,1-1.222-.176,2.184,2.184,0,0,1-.876-.533,2.218,2.218,0,0,1-.524-.9,4.249,4.249,0,0,1-.173-1.278,4.062,4.062,0,0,1,.182-1.257,2.641,2.641,0,0,1,.527-.949,2.274,2.274,0,0,1,.841-.595,3.238,3.238,0,0,1,2.238-.011,2.016,2.016,0,0,1,.765.536,2.152,2.152,0,0,1,.439.811,3.532,3.532,0,0,1,.141,1.02Zm-1.43-.422a1.51,1.51,0,0,0-.249-.975.964.964,0,0,0-.823-.355,1.068,1.068,0,0,0-.489.106,1,1,0,0,0-.346.284,1.3,1.3,0,0,0-.211.422,2.1,2.1,0,0,0-.085.518Z"/><path d="M19.079,18.931a.492.492,0,0,1-.076.161.3.3,0,0,1-.152.094,1.254,1.254,0,0,1-.287.041c-.121,0-.28.008-.475.008-.156,0-.29,0-.4,0s-.206-.006-.284-.014a1.013,1.013,0,0,1-.191-.035.44.44,0,0,1-.123-.059.246.246,0,0,1-.076-.085.717.717,0,0,1-.05-.126l-2.256-6.721a1.8,1.8,0,0,1-.085-.334.2.2,0,0,1,.059-.184.446.446,0,0,1,.249-.076q.176-.015.492-.015c.18,0,.32,0,.422.012a.921.921,0,0,1,.234.041.2.2,0,0,1,.115.088.906.906,0,0,1,.061.146L18.1,17.718h.006l1.81-5.819a.606.606,0,0,1,.059-.161.228.228,0,0,1,.12-.1.813.813,0,0,1,.243-.047c.106-.008.25-.012.434-.012a3.74,3.74,0,0,1,.419.018.3.3,0,0,1,.2.085.227.227,0,0,1,.035.19,2.221,2.221,0,0,1-.091.328Z"/><path d="M27.042,16.335a3.971,3.971,0,0,1-.176,1.219,2.562,2.562,0,0,1-.533.949,2.359,2.359,0,0,1-.9.615,3.355,3.355,0,0,1-1.26.217,3.45,3.45,0,0,1-1.213-.193,2.177,2.177,0,0,1-.855-.563,2.3,2.3,0,0,1-.5-.908,4.208,4.208,0,0,1-.164-1.231,3.962,3.962,0,0,1,.178-1.221,2.572,2.572,0,0,1,.537-.949,2.394,2.394,0,0,1,.893-.613,3.351,3.351,0,0,1,1.257-.217,3.518,3.518,0,0,1,1.219.191,2.13,2.13,0,0,1,.852.559,2.327,2.327,0,0,1,.5.909A4.224,4.224,0,0,1,27.042,16.335Zm-1.517.059a3.829,3.829,0,0,0-.062-.712,1.667,1.667,0,0,0-.208-.566,1.037,1.037,0,0,0-.389-.375,1.255,1.255,0,0,0-.613-.134,1.294,1.294,0,0,0-.574.12,1.027,1.027,0,0,0-.4.351,1.674,1.674,0,0,0-.238.557,3.189,3.189,0,0,0-.079.741,3.664,3.664,0,0,0,.065.712,1.75,1.75,0,0,0,.208.565.973.973,0,0,0,.389.372,1.28,1.28,0,0,0,.61.132,1.311,1.311,0,0,0,.58-.12,1.036,1.036,0,0,0,.4-.348,1.607,1.607,0,0,0,.235-.554A3.311,3.311,0,0,0,25.525,16.394Z"/><path d="M29.685,19a.164.164,0,0,1-.035.1.271.271,0,0,1-.12.073,1.1,1.1,0,0,1-.226.044,4.572,4.572,0,0,1-.715,0,1.075,1.075,0,0,1-.225-.044.269.269,0,0,1-.121-.073.164.164,0,0,1-.035-.1V11.3a.177.177,0,0,1,.035-.106.273.273,0,0,1,.121-.079.98.98,0,0,1,.225-.049,3.559,3.559,0,0,1,.715,0,1,1,0,0,1,.226.049.275.275,0,0,1,.12.079.177.177,0,0,1,.035.106Z"/><path d="M36.113,19a.181.181,0,0,1-.03.1.214.214,0,0,1-.1.073.837.837,0,0,1-.194.044,2.521,2.521,0,0,1-.3.014,2.671,2.671,0,0,1-.314-.014.775.775,0,0,1-.19-.044.223.223,0,0,1-.1-.073.188.188,0,0,1-.029-.1v-.6a3.34,3.34,0,0,1-.882.7,1.982,1.982,0,0,1-.929.234,2.086,2.086,0,0,1-.905-.176,1.567,1.567,0,0,1-.592-.48,1.934,1.934,0,0,1-.322-.706,4.324,4.324,0,0,1-.1-1v-3.2a.17.17,0,0,1,.032-.1.239.239,0,0,1,.118-.073,1.021,1.021,0,0,1,.228-.044,4.232,4.232,0,0,1,.712,0,1.037,1.037,0,0,1,.226.044.262.262,0,0,1,.12.073.16.16,0,0,1,.035.1v2.954a2.836,2.836,0,0,0,.053.627,1.106,1.106,0,0,0,.161.372.748.748,0,0,0,.275.24.858.858,0,0,0,.39.085.968.968,0,0,0,.565-.2,3.369,3.369,0,0,0,.607-.6V13.774a.163.163,0,0,1,.032-.1A.236.236,0,0,1,34.8,13.6a1.037,1.037,0,0,1,.226-.044,4.268,4.268,0,0,1,.715,0,.971.971,0,0,1,.222.044.251.251,0,0,1,.117.073.155.155,0,0,1,.036.1Z"/><path d="M45.909,19a.159.159,0,0,1-.035.1.259.259,0,0,1-.117.073,1.039,1.039,0,0,1-.223.044,3.5,3.5,0,0,1-.357.014,3.6,3.6,0,0,1-.363-.014,1.1,1.1,0,0,1-.226-.044.243.243,0,0,1-.117-.073.175.175,0,0,1-.032-.1V15.9a2.157,2.157,0,0,0-.05-.48,1.121,1.121,0,0,0-.152-.372.721.721,0,0,0-.258-.24.763.763,0,0,0-.372-.085.877.877,0,0,0-.533.205,3.542,3.542,0,0,0-.586.6V19a.16.16,0,0,1-.036.1.26.26,0,0,1-.12.073,1.089,1.089,0,0,1-.225.044,3.456,3.456,0,0,1-.352.014,3.511,3.511,0,0,1-.357-.014,1.1,1.1,0,0,1-.226-.044.265.265,0,0,1-.12-.073.164.164,0,0,1-.035-.1V15.9a2.157,2.157,0,0,0-.05-.48,1.163,1.163,0,0,0-.149-.372.69.69,0,0,0-.258-.24.767.767,0,0,0-.369-.085.884.884,0,0,0-.539.205,3.39,3.39,0,0,0-.58.6V19a.16.16,0,0,1-.036.1.26.26,0,0,1-.12.073,1.089,1.089,0,0,1-.225.044,4.572,4.572,0,0,1-.715,0,1.1,1.1,0,0,1-.226-.044.271.271,0,0,1-.12-.073A.164.164,0,0,1,37.6,19V13.774a.182.182,0,0,1,.029-.1.216.216,0,0,1,.106-.073.83.83,0,0,1,.2-.044,2.512,2.512,0,0,1,.3-.015,2.635,2.635,0,0,1,.31.015.7.7,0,0,1,.191.044.207.207,0,0,1,.1.073.175.175,0,0,1,.03.1v.6a3.439,3.439,0,0,1,.864-.7,1.859,1.859,0,0,1,.9-.235,2.3,2.3,0,0,1,.581.068,1.651,1.651,0,0,1,.459.193,1.453,1.453,0,0,1,.349.3,1.715,1.715,0,0,1,.246.393,4.431,4.431,0,0,1,.46-.434,2.746,2.746,0,0,1,.445-.3,2.045,2.045,0,0,1,.44-.17,1.821,1.821,0,0,1,.448-.056,1.981,1.981,0,0,1,.879.176,1.539,1.539,0,0,1,.577.478,1.917,1.917,0,0,1,.314.706,3.8,3.8,0,0,1,.093.855Z"/><path d="M52.185,16.235a.57.57,0,0,1-.12.4.431.431,0,0,1-.331.129H48.552a2.159,2.159,0,0,0,.079.606,1.161,1.161,0,0,0,.252.463,1.1,1.1,0,0,0,.445.29,1.9,1.9,0,0,0,.654.1,3.671,3.671,0,0,0,.679-.056,4.4,4.4,0,0,0,.507-.123c.143-.045.261-.086.355-.123a.659.659,0,0,1,.228-.056.169.169,0,0,1,.088.021.149.149,0,0,1,.059.073.514.514,0,0,1,.032.149c.006.065.009.146.009.244s0,.159-.006.219a1.353,1.353,0,0,1-.018.156.334.334,0,0,1-.035.108.394.394,0,0,1-.061.085.74.74,0,0,1-.208.111,3.314,3.314,0,0,1-.434.138,5.888,5.888,0,0,1-.6.117,5.053,5.053,0,0,1-.727.05,3.855,3.855,0,0,1-1.222-.176,2.184,2.184,0,0,1-.876-.533,2.218,2.218,0,0,1-.524-.9,4.249,4.249,0,0,1-.173-1.278,4.06,4.06,0,0,1,.182-1.256,2.638,2.638,0,0,1,.527-.95,2.264,2.264,0,0,1,.841-.594,2.887,2.887,0,0,1,1.116-.206,2.917,2.917,0,0,1,1.122.194,2.016,2.016,0,0,1,.765.536,2.163,2.163,0,0,1,.439.812A3.52,3.52,0,0,1,52.185,16Zm-1.43-.421a1.511,1.511,0,0,0-.249-.976.964.964,0,0,0-.823-.355,1.068,1.068,0,0,0-.489.106,1,1,0,0,0-.346.284,1.3,1.3,0,0,0-.211.422,2.1,2.1,0,0,0-.085.519Z"/><line class="cls-3" x1="30.041" y1="32.735" x2="101.95" y2="32.735"/><line x1="30.041" y1="234.894" x2="30.041" y2="23.371"/><polygon class="cls-4" points="31.231 234.894 31.231 29.065 33.33 29.065 30.041 23.371 26.753 29.065 28.851 29.065 28.851 234.894 31.231 234.894"/><line x1="30.041" y1="234.894" x2="597.998" y2="234.894"/><polygon class="cls-4" points="30.041 236.084 592.305 236.084 592.305 238.183 597.999 234.894 592.305 231.606 592.305 233.704 30.041 233.704 30.041 236.084"/><line class="cls-3" x1="321.492" y1="232.084" x2="587.332" y2="233.991"/><path class="cls-3" d="M317.675,233.908c-35.984,2.041-70.583-14.851-104.374-46.689"/><path class="cls-3" d="M99.931,31.684C113.615,76.425,138.755,151.3,213.582,187.355"/><circle class="cls-5" cx="317.675" cy="234.894" r="12.509"/><path d="M316.43,237.537a.184.184,0,0,1-.033.1.229.229,0,0,1-.117.076,1.132,1.132,0,0,1-.225.047,2.908,2.908,0,0,1-.357.018,2.854,2.854,0,0,1-.352-.018,1.078,1.078,0,0,1-.223-.047.248.248,0,0,1-.117-.076.172.172,0,0,1-.035-.1v-6.17h-.012l-2.2,6.164a.287.287,0,0,1-.076.126.383.383,0,0,1-.145.079.98.98,0,0,1-.23.038c-.094.006-.207.009-.34.009a3.276,3.276,0,0,1-.34-.015,1,1,0,0,1-.232-.047.418.418,0,0,1-.143-.079.227.227,0,0,1-.07-.111l-2.121-6.164h-.012v6.17a.184.184,0,0,1-.033.1.227.227,0,0,1-.119.076,1.224,1.224,0,0,1-.227.047,2.815,2.815,0,0,1-.353.018,2.854,2.854,0,0,1-.352-.018,1.156,1.156,0,0,1-.227-.047.229.229,0,0,1-.117-.076.182.182,0,0,1-.031-.1v-6.756a.62.62,0,0,1,.158-.457.569.569,0,0,1,.422-.158h1.008a2.073,2.073,0,0,1,.463.044.9.9,0,0,1,.334.146.812.812,0,0,1,.234.27,1.908,1.908,0,0,1,.164.413l1.641,4.517h.023l1.7-4.506a2.32,2.32,0,0,1,.166-.416.956.956,0,0,1,.21-.275.706.706,0,0,1,.286-.149,1.443,1.443,0,0,1,.38-.044h1.038a.785.785,0,0,1,.271.041.461.461,0,0,1,.188.12.523.523,0,0,1,.111.193.833.833,0,0,1,.039.261Z"/><path d="M322.448,237.566a.156.156,0,0,1-.059.129.4.4,0,0,1-.186.067,2.428,2.428,0,0,1-.371.021,2.489,2.489,0,0,1-.384-.021.323.323,0,0,1-.17-.067.165.165,0,0,1-.049-.129v-.416a2.386,2.386,0,0,1-.737.539,2.129,2.129,0,0,1-.916.193,2.576,2.576,0,0,1-.765-.108,1.725,1.725,0,0,1-.6-.322,1.454,1.454,0,0,1-.394-.531,1.8,1.8,0,0,1-.141-.738,1.673,1.673,0,0,1,.178-.794,1.454,1.454,0,0,1,.533-.556,2.659,2.659,0,0,1,.883-.326,6.327,6.327,0,0,1,1.225-.105H321v-.316a1.668,1.668,0,0,0-.05-.431.721.721,0,0,0-.165-.308.672.672,0,0,0-.3-.181,1.619,1.619,0,0,0-.471-.059,2.418,2.418,0,0,0-.66.082,3.774,3.774,0,0,0-.512.182c-.148.066-.273.127-.373.181a.536.536,0,0,1-.242.082.173.173,0,0,1-.115-.041.291.291,0,0,1-.082-.117.8.8,0,0,1-.049-.187,1.561,1.561,0,0,1-.018-.246,1.1,1.1,0,0,1,.03-.288.436.436,0,0,1,.111-.19,1.1,1.1,0,0,1,.287-.188,3.5,3.5,0,0,1,.48-.19,4.366,4.366,0,0,1,.6-.143,3.89,3.89,0,0,1,.672-.056,4.005,4.005,0,0,1,1.051.12,1.771,1.771,0,0,1,.718.369,1.432,1.432,0,0,1,.411.642,2.99,2.99,0,0,1,.129.931ZM321,235.328h-.562a3.048,3.048,0,0,0-.61.052,1.174,1.174,0,0,0-.41.159.654.654,0,0,0-.232.255.761.761,0,0,0-.072.342.658.658,0,0,0,.207.516.832.832,0,0,0,.578.187,1.072,1.072,0,0,0,.57-.158,2.345,2.345,0,0,0,.531-.463Z"/><path d="M328.348,237.443a.366.366,0,0,1,.043.164.126.126,0,0,1-.084.1.725.725,0,0,1-.252.056c-.113.01-.264.015-.451.015s-.319,0-.426-.009a1.235,1.235,0,0,1-.252-.035.369.369,0,0,1-.135-.065.246.246,0,0,1-.066-.1l-.967-1.858-.967,1.858a.253.253,0,0,1-.064.1.326.326,0,0,1-.127.065,1.079,1.079,0,0,1-.236.035q-.153.009-.4.009c-.172,0-.308,0-.41-.015a.563.563,0,0,1-.223-.056.128.128,0,0,1-.074-.1.343.343,0,0,1,.051-.164l1.447-2.572-1.336-2.414a.468.468,0,0,1-.056-.179.119.119,0,0,1,.074-.114.682.682,0,0,1,.242-.059,4.486,4.486,0,0,1,.455-.018c.172,0,.309,0,.412.009a1.79,1.79,0,0,1,.244.027.258.258,0,0,1,.129.055.343.343,0,0,1,.071.1l.931,1.746.926-1.746a.223.223,0,0,1,.053-.082.261.261,0,0,1,.111-.059,1.109,1.109,0,0,1,.207-.035c.088-.008.209-.012.361-.012.172,0,.309,0,.412.012a.535.535,0,0,1,.223.053.121.121,0,0,1,.065.114.469.469,0,0,1-.067.191l-1.3,2.373Z"/><circle class="cls-5" cx="101.95" cy="32.645" r="12.509"/><path d="M101.673,36.3a.183.183,0,0,1-.032.1.23.23,0,0,1-.117.077,1.153,1.153,0,0,1-.226.046,2.908,2.908,0,0,1-.357.018,2.854,2.854,0,0,1-.352-.018,1.087,1.087,0,0,1-.223-.046.249.249,0,0,1-.117-.077.172.172,0,0,1-.035-.1v-6.17H100.2l-2.2,6.164a.278.278,0,0,1-.076.126.366.366,0,0,1-.144.079.939.939,0,0,1-.231.038c-.094.006-.207.009-.34.009a3.276,3.276,0,0,1-.34-.015,1.009,1.009,0,0,1-.231-.046.425.425,0,0,1-.144-.08.227.227,0,0,1-.07-.111l-2.121-6.164H94.3V36.3a.183.183,0,0,1-.032.1.231.231,0,0,1-.12.077,1.22,1.22,0,0,1-.226.046,3.47,3.47,0,0,1-.706,0,1.126,1.126,0,0,1-.225-.046.229.229,0,0,1-.118-.077.183.183,0,0,1-.032-.1V29.539A.622.622,0,0,1,93,29.082a.573.573,0,0,1,.422-.158h1.008a2.133,2.133,0,0,1,.463.044.9.9,0,0,1,.334.146.833.833,0,0,1,.234.27,1.858,1.858,0,0,1,.164.413l1.641,4.518h.023l1.7-4.506a2.287,2.287,0,0,1,.167-.416.964.964,0,0,1,.211-.276.692.692,0,0,1,.284-.149,1.489,1.489,0,0,1,.381-.044h1.037a.815.815,0,0,1,.272.041.461.461,0,0,1,.188.12.518.518,0,0,1,.111.193.838.838,0,0,1,.038.261Z"/><path d="M104.825,29.311a.827.827,0,0,1-.181.615,1.438,1.438,0,0,1-1.345.006.8.8,0,0,1-.173-.592.846.846,0,0,1,.179-.618,1.415,1.415,0,0,1,1.345-.006A.8.8,0,0,1,104.825,29.311Zm-.111,7a.16.16,0,0,1-.035.1.244.244,0,0,1-.12.073.98.98,0,0,1-.226.044,4.268,4.268,0,0,1-.715,0,.981.981,0,0,1-.225-.044.244.244,0,0,1-.12-.073.154.154,0,0,1-.035-.1V31.092a.159.159,0,0,1,.035-.1.279.279,0,0,1,.12-.076,1.058,1.058,0,0,1,.225-.05,3.768,3.768,0,0,1,.715,0,1.054,1.054,0,0,1,.226.05.279.279,0,0,1,.12.076.164.164,0,0,1,.035.1Z"/><path d="M111.177,36.307a.16.16,0,0,1-.035.1.253.253,0,0,1-.117.073.937.937,0,0,1-.226.044,3.5,3.5,0,0,1-.354.015,3.584,3.584,0,0,1-.361-.015.928.928,0,0,1-.225-.044.252.252,0,0,1-.118-.073.16.16,0,0,1-.035-.1V33.324a2.517,2.517,0,0,0-.055-.6,1.172,1.172,0,0,0-.161-.372.728.728,0,0,0-.273-.241.856.856,0,0,0-.39-.085.981.981,0,0,0-.568.2,3.084,3.084,0,0,0-.6.6v3.475a.154.154,0,0,1-.035.1.244.244,0,0,1-.12.073.97.97,0,0,1-.225.044,4.268,4.268,0,0,1-.715,0,.98.98,0,0,1-.226-.044.244.244,0,0,1-.12-.073.16.16,0,0,1-.035-.1V31.08a.182.182,0,0,1,.029-.1.217.217,0,0,1,.106-.074.87.87,0,0,1,.2-.044,2.772,2.772,0,0,1,.3-.014,2.908,2.908,0,0,1,.31.014.741.741,0,0,1,.191.044.209.209,0,0,1,.1.074.175.175,0,0,1,.03.1v.6a3.312,3.312,0,0,1,.881-.7,1.986,1.986,0,0,1,.935-.235,2.07,2.07,0,0,1,.9.176,1.564,1.564,0,0,1,.592.477,1.929,1.929,0,0,1,.325.707,4.075,4.075,0,0,1,.1.972Z"/></svg>