<svg id="Layer_1" data-name="Layer 1" xmlns="http://www.w3.org/2000/svg" xmlns:xlink="http://www.w3.org/1999/xlink" width="580.889" height="421.111" viewBox="0 0 580.889 421.111"><defs><style>.cls-1,.cls-2,.cls-3,.cls-4{fill:none;}.cls-2{stroke:#cbcbcb;}.cls-2,.cls-3,.cls-4{stroke-miterlimit:10;}.cls-3{stroke:#000;}.cls-4{stroke:#ccc;}.cls-5{clip-path:url(#clip-path);}.cls-6{clip-path:url(#clip-path-2);}.cls-7{clip-path:url(#clip-path-3);}</style><clipPath id="clip-path"><rect class="cls-1" x="112.115" y="316.807" width="428.727" height="67.617"/></clipPath><clipPath id="clip-path-2"><rect class="cls-1" x="-124.201" y="323.391" width="648.007" height="59.211"/></clipPath><clipPath id="clip-path-3"><rect class="cls-1" x="-1169.498" y="325.515" width="1747.919" height="52.948"/></clipPath></defs><line class="cls-2" x1="527.016" y1="56.632" x2="110.745" y2="56.632"/><path class="cls-3" d="M110.98,83.156c7.614,0,7.435-50.938,15.049-50.942s7.8,50.929,15.414,50.925S148.877,32.2,156.49,32.2s7.795,50.929,15.41,50.925,7.438-50.938,15.056-50.942,7.794,50.929,15.409,50.925,7.438-50.937,15.056-50.941,7.8,50.929,15.412,50.925,7.438-50.938,15.056-50.942,7.8,50.929,15.414,50.925,7.44-50.937,15.059-50.941,7.8,50.929,15.415,50.925,7.439-50.938,15.059-50.942,7.8,50.929,15.421,50.925S331.7,32.1,339.317,32.1s7.792,50.929,15.4,50.925,7.44-50.938,15.059-50.942,7.794,50.929,15.409,50.925,7.439-50.937,15.057-50.941S408.048,83,415.67,82.991s7.442-50.938,15.064-50.942,7.8,50.929,15.423,50.925,7.444-50.937,15.068-50.941,7.8,50.929,15.419,50.924,7.447-50.937,15.074-50.941,7.811,50.929,15.443,50.925,12.223-52.478,19.854-52.482"/><line class="cls-2" x1="110.376" y1="83.156" x2="110.376" y2="30.208"/><line class="cls-4" x1="109.978" y1="30.208" x2="112.949" y2="30.208"/><line class="cls-4" x1="109.978" y1="83.156" x2="112.949" y2="83.156"/><path d="M106.467,28.608h-.013l-.719.388-.108-.426.9-.484h.477v4.136h-.541Z"/><path d="M104.773,82.829v.413H103.2v-.413Z"/><path d="M106.467,81.142h-.013l-.719.388-.108-.426.9-.483h.477v4.135h-.541Z"/><path d="M36.312,59.082a3.3,3.3,0,0,1-.295,1.424,3.062,3.062,0,0,1-.818,1.059,3.55,3.55,0,0,1-1.23.655,5.134,5.134,0,0,1-1.525.219,5.485,5.485,0,0,1-1.059-.1,5.833,5.833,0,0,1-.87-.238,4.105,4.105,0,0,1-.642-.29,1.683,1.683,0,0,1-.36-.254.653.653,0,0,1-.15-.269,1.584,1.584,0,0,1-.048-.435,2.358,2.358,0,0,1,.018-.32.774.774,0,0,1,.053-.207.223.223,0,0,1,.088-.11.244.244,0,0,1,.123-.031.712.712,0,0,1,.346.15,5.571,5.571,0,0,0,.577.325,5.688,5.688,0,0,0,.847.33,3.906,3.906,0,0,0,1.148.153,2.912,2.912,0,0,0,.9-.131,2.118,2.118,0,0,0,.7-.374,1.613,1.613,0,0,0,.453-.593,1.923,1.923,0,0,0,.158-.8,1.5,1.5,0,0,0-.219-.826,2.22,2.22,0,0,0-.58-.6,5.14,5.14,0,0,0-.823-.475l-.944-.439a10.275,10.275,0,0,1-.94-.5,3.989,3.989,0,0,1-.818-.641,3.016,3.016,0,0,1-.585-.866,2.887,2.887,0,0,1-.223-1.191,2.992,2.992,0,0,1,.258-1.27,2.627,2.627,0,0,1,.721-.936,3.223,3.223,0,0,1,1.1-.576,4.618,4.618,0,0,1,1.376-.2,4.46,4.46,0,0,1,.76.066,5.228,5.228,0,0,1,.72.176,3.975,3.975,0,0,1,.6.246,1.513,1.513,0,0,1,.346.22.7.7,0,0,1,.111.132.526.526,0,0,1,.044.123,1.4,1.4,0,0,1,.026.18c.006.07.009.161.009.272a2.6,2.6,0,0,1-.014.282,1.051,1.051,0,0,1-.039.206.247.247,0,0,1-.075.123.163.163,0,0,1-.109.04.71.71,0,0,1-.3-.123c-.138-.082-.306-.175-.5-.277a4.422,4.422,0,0,0-.708-.281A3.072,3.072,0,0,0,33,51.989a2.421,2.421,0,0,0-.826.128,1.688,1.688,0,0,0-.58.338,1.34,1.34,0,0,0-.343.5,1.663,1.663,0,0,0-.114.615,1.488,1.488,0,0,0,.219.818,2.262,2.262,0,0,0,.584.606,5.261,5.261,0,0,0,.832.484q.465.219.949.443t.949.493a3.922,3.922,0,0,1,.83.632,2.891,2.891,0,0,1,.589.862A2.838,2.838,0,0,1,36.312,59.082Z"/><path d="M39.924,51.471a.953.953,0,0,1-.194.694,1.036,1.036,0,0,1-.711.185,1.021,1.021,0,0,1-.7-.181.937.937,0,0,1-.188-.681.953.953,0,0,1,.193-.694,1.039,1.039,0,0,1,.712-.185,1.014,1.014,0,0,1,.7.181A.936.936,0,0,1,39.924,51.471Zm-.167,10.582a.2.2,0,0,1-.035.118.279.279,0,0,1-.115.084.823.823,0,0,1-.219.053,3.194,3.194,0,0,1-.361.017,3.089,3.089,0,0,1-.351-.017.909.909,0,0,1-.225-.053.241.241,0,0,1-.114-.084.209.209,0,0,1-.03-.118v-7.91a.22.22,0,0,1,.03-.115.233.233,0,0,1,.114-.088.871.871,0,0,1,.225-.052,2.847,2.847,0,0,1,.351-.018,2.945,2.945,0,0,1,.361.018.79.79,0,0,1,.219.052.268.268,0,0,1,.115.088.207.207,0,0,1,.035.115Z"/><path d="M49.249,62.053a.2.2,0,0,1-.035.118.282.282,0,0,1-.114.084.832.832,0,0,1-.22.053,3.1,3.1,0,0,1-.352.017,3.187,3.187,0,0,1-.36-.017.832.832,0,0,1-.22-.053.276.276,0,0,1-.114-.084.2.2,0,0,1-.035-.118V57.421a4.515,4.515,0,0,0-.106-1.09,2.245,2.245,0,0,0-.307-.712,1.344,1.344,0,0,0-.524-.457A1.663,1.663,0,0,0,46.12,55a1.877,1.877,0,0,0-1.09.387,5.87,5.87,0,0,0-1.142,1.133v5.529a.2.2,0,0,1-.035.118.279.279,0,0,1-.115.084.823.823,0,0,1-.219.053,3.194,3.194,0,0,1-.361.017,3.076,3.076,0,0,1-.351-.017.909.909,0,0,1-.225-.053.236.236,0,0,1-.114-.084.209.209,0,0,1-.03-.118v-7.91a.241.241,0,0,1,.026-.119.233.233,0,0,1,.105-.088.611.611,0,0,1,.2-.053,4.019,4.019,0,0,1,.646,0,.531.531,0,0,1,.2.053.279.279,0,0,1,.1.088.222.222,0,0,1,.031.119v1.045a4.872,4.872,0,0,1,1.331-1.094,2.875,2.875,0,0,1,1.341-.347,2.973,2.973,0,0,1,1.331.268,2.415,2.415,0,0,1,.875.716,2.853,2.853,0,0,1,.479,1.051,6.286,6.286,0,0,1,.145,1.446Z"/><path d="M58.645,57.755a.608.608,0,0,1-.173.488.6.6,0,0,1-.393.145H52.87A4.89,4.89,0,0,0,53,59.574a2.275,2.275,0,0,0,.442.905,1.989,1.989,0,0,0,.8.581,3.212,3.212,0,0,0,1.21.2,4.908,4.908,0,0,0,1.006-.093,5.907,5.907,0,0,0,.765-.206c.214-.076.391-.145.529-.207a.876.876,0,0,1,.314-.092.2.2,0,0,1,.111.031.2.2,0,0,1,.074.092.674.674,0,0,1,.04.171,2.255,2.255,0,0,1,.014.269,1.854,1.854,0,0,1-.009.2c-.006.056-.014.106-.023.15a.348.348,0,0,1-.044.118.462.462,0,0,1-.079.1,1.27,1.27,0,0,1-.285.159,4.143,4.143,0,0,1-.615.215,8.769,8.769,0,0,1-.875.189,6.352,6.352,0,0,1-1.059.083,4.9,4.9,0,0,1-1.71-.272,3.169,3.169,0,0,1-1.234-.809,3.453,3.453,0,0,1-.756-1.344,6.266,6.266,0,0,1-.255-1.881,5.921,5.921,0,0,1,.264-1.833,3.886,3.886,0,0,1,.76-1.38,3.318,3.318,0,0,1,1.2-.87,3.937,3.937,0,0,1,1.573-.3,3.807,3.807,0,0,1,1.586.3,2.99,2.99,0,0,1,1.077.8,3.242,3.242,0,0,1,.619,1.187,5.187,5.187,0,0,1,.2,1.454Zm-1.459-.431a2.649,2.649,0,0,0-.509-1.793,1.938,1.938,0,0,0-1.587-.65,2.089,2.089,0,0,0-.946.2,2.053,2.053,0,0,0-.682.536,2.446,2.446,0,0,0-.424.778,3.26,3.26,0,0,0-.168.927Z"/><line class="cls-2" x1="528.375" y1="131.238" x2="112.104" y2="131.238"/><line class="cls-2" x1="111.735" y1="157.763" x2="111.735" y2="104.814"/><line class="cls-4" x1="111.337" y1="104.814" x2="114.307" y2="104.814"/><line class="cls-4" x1="111.337" y1="157.763" x2="114.307" y2="157.763"/><path d="M107.825,103.214h-.013l-.718.389-.109-.427.9-.483h.477v4.136h-.541Z"/><path d="M106.131,157.436v.413H104.56v-.413Z"/><path d="M107.825,155.749h-.013l-.718.388-.109-.426.9-.483h.477v4.135h-.541Z"/><path d="M37.331,125.279a2.025,2.025,0,0,1-.018.29.583.583,0,0,1-.057.2.269.269,0,0,1-.1.11.244.244,0,0,1-.128.035h-3.2v9.861a.219.219,0,0,1-.035.123.238.238,0,0,1-.123.084,1.415,1.415,0,0,1-.233.053,3,3,0,0,1-.725,0,1.419,1.419,0,0,1-.238-.053.238.238,0,0,1-.123-.084.219.219,0,0,1-.035-.123v-9.861h-3.2a.24.24,0,0,1-.127-.035.25.25,0,0,1-.093-.11.849.849,0,0,1-.057-.2,1.731,1.731,0,0,1-.022-.29,1.818,1.818,0,0,1,.022-.294.942.942,0,0,1,.057-.207.252.252,0,0,1,.093-.114.24.24,0,0,1,.127-.035h7.91a.244.244,0,0,1,.128.035.27.27,0,0,1,.1.114.641.641,0,0,1,.057.207A2.126,2.126,0,0,1,37.331,125.279Z"/><path d="M42.314,128.391c0,.129,0,.237-.008.325a.826.826,0,0,1-.035.206.32.32,0,0,1-.066.115.151.151,0,0,1-.11.039.5.5,0,0,1-.172-.039c-.067-.027-.143-.053-.228-.079s-.18-.052-.286-.075a1.545,1.545,0,0,0-.343-.035,1.1,1.1,0,0,0-.43.088,1.651,1.651,0,0,0-.444.29,3.574,3.574,0,0,0-.488.536q-.255.333-.562.817v5.2a.193.193,0,0,1-.036.119.268.268,0,0,1-.114.083.8.8,0,0,1-.22.053,2.916,2.916,0,0,1-.36.018,2.825,2.825,0,0,1-.351-.018.867.867,0,0,1-.225-.053.245.245,0,0,1-.114-.083.222.222,0,0,1-.031-.119v-7.91a.243.243,0,0,1,.027-.119.231.231,0,0,1,.1-.087.587.587,0,0,1,.2-.053,4.019,4.019,0,0,1,.646,0,.513.513,0,0,1,.2.053.269.269,0,0,1,.1.087.215.215,0,0,1,.031.119v1.151a6.173,6.173,0,0,1,.611-.773,3.342,3.342,0,0,1,.54-.47,1.688,1.688,0,0,1,.506-.238,2.016,2.016,0,0,1,.5-.065c.076,0,.163,0,.259.013a2.542,2.542,0,0,1,.3.048,2.865,2.865,0,0,1,.285.079.6.6,0,0,1,.18.088.237.237,0,0,1,.071.084.514.514,0,0,1,.03.1,1.094,1.094,0,0,1,.018.18C42.313,128.149,42.314,128.256,42.314,128.391Z"/><path d="M45.584,125.2a.958.958,0,0,1-.193.695,1.041,1.041,0,0,1-.712.184,1.023,1.023,0,0,1-.7-.18.937.937,0,0,1-.189-.681.956.956,0,0,1,.193-.7,1.041,1.041,0,0,1,.712-.184,1.023,1.023,0,0,1,.7.18A.937.937,0,0,1,45.584,125.2Zm-.167,10.582a.2.2,0,0,1-.035.119.281.281,0,0,1-.114.083.8.8,0,0,1-.22.053,2.939,2.939,0,0,1-.36.018,2.854,2.854,0,0,1-.352-.018.848.848,0,0,1-.224-.053A.235.235,0,0,1,44,135.9a.213.213,0,0,1-.031-.119v-7.91a.217.217,0,0,1,.031-.114.223.223,0,0,1,.114-.088.848.848,0,0,1,.224-.053,2.879,2.879,0,0,1,.352-.017,2.967,2.967,0,0,1,.36.017.8.8,0,0,1,.22.053.263.263,0,0,1,.114.088.2.2,0,0,1,.035.114Z"/><path d="M54.057,135.791a.185.185,0,0,1-.071.158.486.486,0,0,1-.193.079,1.8,1.8,0,0,1-.36.027,1.956,1.956,0,0,1-.365-.027.428.428,0,0,1-.2-.079.2.2,0,0,1-.061-.158V135a3.907,3.907,0,0,1-1.156.861,3.068,3.068,0,0,1-1.349.308,3.662,3.662,0,0,1-1.13-.163,2.433,2.433,0,0,1-.861-.47,2.114,2.114,0,0,1-.554-.756,2.5,2.5,0,0,1-.2-1.019,2.352,2.352,0,0,1,.272-1.16,2.263,2.263,0,0,1,.782-.818,3.855,3.855,0,0,1,1.248-.488,7.776,7.776,0,0,1,1.661-.162h1.09v-.615a3.079,3.079,0,0,0-.1-.809,1.406,1.406,0,0,0-.312-.585,1.344,1.344,0,0,0-.559-.351,2.6,2.6,0,0,0-.843-.119,3.356,3.356,0,0,0-.963.128,5.109,5.109,0,0,0-.747.281c-.214.1-.392.2-.536.281a.737.737,0,0,1-.321.128.219.219,0,0,1-.123-.035.3.3,0,0,1-.092-.106.561.561,0,0,1-.057-.18,1.5,1.5,0,0,1-.018-.242,1.516,1.516,0,0,1,.031-.347.506.506,0,0,1,.149-.242,1.976,1.976,0,0,1,.409-.268,4.538,4.538,0,0,1,.668-.281,6.1,6.1,0,0,1,.826-.211,4.91,4.91,0,0,1,.906-.083,4.75,4.75,0,0,1,1.45.193,2.357,2.357,0,0,1,.967.567,2.2,2.2,0,0,1,.536.927,4.5,4.5,0,0,1,.167,1.292Zm-1.442-3.612H51.376a4.639,4.639,0,0,0-1.037.1,2.134,2.134,0,0,0-.73.3,1.236,1.236,0,0,0-.426.474,1.424,1.424,0,0,0-.136.637,1.273,1.273,0,0,0,.391.98,1.539,1.539,0,0,0,1.094.365,2.038,2.038,0,0,0,1.059-.29,4.516,4.516,0,0,0,1.024-.888Z"/><path d="M63.531,135.782a.193.193,0,0,1-.035.119.268.268,0,0,1-.114.083.8.8,0,0,1-.22.053,2.847,2.847,0,0,1-.351.018,2.945,2.945,0,0,1-.361-.018.8.8,0,0,1-.22-.053.281.281,0,0,1-.114-.083.2.2,0,0,1-.035-.119V131.15a4.564,4.564,0,0,0-.105-1.089,2.259,2.259,0,0,0-.308-.712,1.325,1.325,0,0,0-.523-.457,1.652,1.652,0,0,0-.743-.159,1.877,1.877,0,0,0-1.09.387,5.907,5.907,0,0,0-1.142,1.134v5.528a.2.2,0,0,1-.035.119.281.281,0,0,1-.114.083.8.8,0,0,1-.22.053,2.945,2.945,0,0,1-.361.018,2.847,2.847,0,0,1-.351-.018.848.848,0,0,1-.224-.053.243.243,0,0,1-.115-.083.221.221,0,0,1-.03-.119v-7.91a.255.255,0,0,1,.026-.119.235.235,0,0,1,.106-.087.581.581,0,0,1,.2-.053,3.129,3.129,0,0,1,.325-.013,3.162,3.162,0,0,1,.321.013.5.5,0,0,1,.2.053.281.281,0,0,1,.1.087.224.224,0,0,1,.03.119v1.046a4.856,4.856,0,0,1,1.332-1.094,2.856,2.856,0,0,1,1.34-.347,2.977,2.977,0,0,1,1.332.268,2.383,2.383,0,0,1,.874.716,2.84,2.84,0,0,1,.479,1.05,6.243,6.243,0,0,1,.145,1.446Z"/><path d="M72.786,128.232a.9.9,0,0,1-.083.444.248.248,0,0,1-.216.136H71.354a1.779,1.779,0,0,1,.43.7,2.583,2.583,0,0,1,.123.8,3.143,3.143,0,0,1-.219,1.213,2.443,2.443,0,0,1-.629.892,2.811,2.811,0,0,1-.971.558,3.818,3.818,0,0,1-1.248.193,3.255,3.255,0,0,1-.919-.127,1.913,1.913,0,0,1-.672-.321,1.365,1.365,0,0,0-.259.36,1.021,1.021,0,0,0-.1.466.606.606,0,0,0,.285.51,1.377,1.377,0,0,0,.761.219l2.065.088a4.262,4.262,0,0,1,1.081.163,2.7,2.7,0,0,1,.853.413,1.913,1.913,0,0,1,.562.659,1.953,1.953,0,0,1,.2.91,2.439,2.439,0,0,1-.228,1.037,2.4,2.4,0,0,1-.7.866,3.5,3.5,0,0,1-1.2.589,6.135,6.135,0,0,1-1.722.215,7.01,7.01,0,0,1-1.631-.163,3.538,3.538,0,0,1-1.1-.443,1.724,1.724,0,0,1-.624-.673,1.885,1.885,0,0,1-.193-.848,2.244,2.244,0,0,1,.07-.563,2.035,2.035,0,0,1,.215-.518,2.53,2.53,0,0,1,.361-.47,4.57,4.57,0,0,1,.5-.444,1.556,1.556,0,0,1-.637-.554,1.35,1.35,0,0,1-.206-.721,2.052,2.052,0,0,1,.219-.958,3.211,3.211,0,0,1,.545-.755,2.6,2.6,0,0,1-.43-.734,2.734,2.734,0,0,1-.159-.989A3.072,3.072,0,0,1,66,129.164a2.566,2.566,0,0,1,.633-.905,2.774,2.774,0,0,1,.971-.567,3.724,3.724,0,0,1,1.235-.2,5.235,5.235,0,0,1,.672.04,4.643,4.643,0,0,1,.585.11h2.39a.238.238,0,0,1,.224.145A1,1,0,0,1,72.786,128.232Zm-1.538,8.35a.891.891,0,0,0-.417-.787,2.128,2.128,0,0,0-1.13-.294l-2.048-.07a3.714,3.714,0,0,0-.461.417,2.35,2.35,0,0,0-.286.378,1.279,1.279,0,0,0-.145.356,1.655,1.655,0,0,0-.039.36.931.931,0,0,0,.58.866,3.632,3.632,0,0,0,1.617.3,4.059,4.059,0,0,0,1.1-.128,2.121,2.121,0,0,0,.716-.338,1.237,1.237,0,0,0,.391-.484A1.415,1.415,0,0,0,71.248,136.582Zm-.729-6.267a1.724,1.724,0,0,0-.444-1.261,1.687,1.687,0,0,0-1.262-.452,1.766,1.766,0,0,0-.733.14,1.444,1.444,0,0,0-.519.387,1.641,1.641,0,0,0-.308.567,2.236,2.236,0,0,0-.1.672,1.546,1.546,0,0,0,1.688,1.679,1.894,1.894,0,0,0,.747-.136,1.413,1.413,0,0,0,.523-.378,1.583,1.583,0,0,0,.307-.558A2.138,2.138,0,0,0,70.519,130.315Z"/><path d="M76.1,135.782a.193.193,0,0,1-.036.119.268.268,0,0,1-.114.083.8.8,0,0,1-.22.053,2.916,2.916,0,0,1-.36.018,2.825,2.825,0,0,1-.351-.018.867.867,0,0,1-.225-.053.245.245,0,0,1-.114-.083.222.222,0,0,1-.031-.119V124.04a.244.244,0,0,1,.031-.123.238.238,0,0,1,.114-.088.909.909,0,0,1,.225-.053,3.064,3.064,0,0,1,.351-.017,3.162,3.162,0,0,1,.36.017.832.832,0,0,1,.22.053.259.259,0,0,1,.114.088.212.212,0,0,1,.036.123Z"/><path d="M85.53,131.484a.606.606,0,0,1-.172.488.592.592,0,0,1-.393.145H79.756a4.9,4.9,0,0,0,.132,1.187,2.3,2.3,0,0,0,.442.905,1.987,1.987,0,0,0,.8.58,3.2,3.2,0,0,0,1.21.2,4.984,4.984,0,0,0,1.006-.092,5.878,5.878,0,0,0,.764-.207q.322-.114.53-.206a.86.86,0,0,1,.314-.092.2.2,0,0,1,.11.03.2.2,0,0,1,.075.093.634.634,0,0,1,.04.171,2.261,2.261,0,0,1,.013.268c0,.076,0,.142-.008.2s-.014.1-.022.149a.4.4,0,0,1-.044.119.493.493,0,0,1-.08.1,1.283,1.283,0,0,1-.285.158,4.143,4.143,0,0,1-.615.215,8.24,8.24,0,0,1-.875.189,6.349,6.349,0,0,1-1.059.084A4.891,4.891,0,0,1,80.5,135.9a3.163,3.163,0,0,1-1.235-.808,3.464,3.464,0,0,1-.756-1.345,6.266,6.266,0,0,1-.255-1.881,5.919,5.919,0,0,1,.264-1.832,3.871,3.871,0,0,1,.76-1.38,3.318,3.318,0,0,1,1.2-.87,3.933,3.933,0,0,1,1.573-.3,3.8,3.8,0,0,1,1.586.3,3,3,0,0,1,1.077.805,3.231,3.231,0,0,1,.62,1.186,5.226,5.226,0,0,1,.2,1.455Zm-1.459-.43a2.642,2.642,0,0,0-.508-1.793,1.936,1.936,0,0,0-1.587-.651,2.113,2.113,0,0,0-.947.2,2.051,2.051,0,0,0-.681.537,2.461,2.461,0,0,0-.424.777,3.26,3.26,0,0,0-.168.928Z"/><polygon points="125.111 159.162 111.717 105.067 112.49 104.876 125.111 155.85 138.116 103.315 151.124 155.85 164.129 103.315 177.137 155.85 190.143 103.315 203.151 155.85 216.158 103.315 229.164 155.85 242.172 103.316 255.181 155.85 268.188 103.315 281.196 155.85 294.203 103.315 307.211 155.85 320.219 103.316 333.229 155.85 346.237 103.316 359.245 155.85 372.251 103.315 385.258 155.85 398.266 103.316 411.276 155.85 424.284 103.316 437.293 155.85 450.303 103.316 463.314 155.85 476.322 103.316 489.333 155.851 502.346 103.316 515.36 155.851 527.989 104.876 528.761 105.067 515.36 159.161 502.346 106.627 489.333 159.161 476.322 106.627 463.314 159.162 450.303 106.627 437.293 159.162 424.284 106.627 411.276 159.162 398.266 106.627 385.258 159.162 372.251 106.627 359.245 159.162 346.237 106.627 333.229 159.162 320.219 106.627 307.211 159.162 294.203 106.627 281.196 159.162 268.188 106.627 255.181 159.162 242.172 106.627 229.164 159.162 216.158 106.627 203.151 159.162 190.143 106.627 177.137 159.162 164.129 106.627 151.124 159.162 138.116 106.627 125.111 159.162"/><line class="cls-2" x1="528.375" y1="201.67" x2="112.104" y2="201.67"/><line class="cls-2" x1="111.735" y1="228.194" x2="111.735" y2="175.245"/><line class="cls-4" x1="111.337" y1="175.245" x2="114.307" y2="175.245"/><line class="cls-4" x1="111.337" y1="228.194" x2="114.307" y2="228.194"/><path d="M107.825,173.645h-.013l-.718.389-.109-.427.9-.483h.477v4.136h-.541Z"/><path d="M106.131,227.867v.413H104.56v-.413Z"/><path d="M107.825,226.18h-.013l-.718.388-.109-.426.9-.483h.477v4.135h-.541Z"/><path d="M36.311,203.3a3.3,3.3,0,0,1-.294,1.424,3.062,3.062,0,0,1-.818,1.059,3.534,3.534,0,0,1-1.23.655,5.1,5.1,0,0,1-1.525.22,5.4,5.4,0,0,1-1.059-.1,5.719,5.719,0,0,1-.87-.237,4.3,4.3,0,0,1-.642-.29,1.716,1.716,0,0,1-.36-.255.649.649,0,0,1-.15-.268,1.594,1.594,0,0,1-.048-.435,2.364,2.364,0,0,1,.018-.321.777.777,0,0,1,.052-.207.232.232,0,0,1,.088-.109.234.234,0,0,1,.123-.031.72.72,0,0,1,.347.149,5.466,5.466,0,0,0,.576.325,5.6,5.6,0,0,0,.848.33,3.869,3.869,0,0,0,1.147.154,2.918,2.918,0,0,0,.9-.132,2.1,2.1,0,0,0,.7-.374,1.616,1.616,0,0,0,.453-.593,1.936,1.936,0,0,0,.158-.8,1.5,1.5,0,0,0-.22-.826,2.219,2.219,0,0,0-.58-.6,5.011,5.011,0,0,0-.822-.474l-.944-.44a10.283,10.283,0,0,1-.941-.5,3.994,3.994,0,0,1-.817-.642,3,3,0,0,1-.585-.866,2.887,2.887,0,0,1-.224-1.191,3,3,0,0,1,.259-1.27,2.627,2.627,0,0,1,.721-.936,3.2,3.2,0,0,1,1.1-.575,4.612,4.612,0,0,1,1.375-.2,4.471,4.471,0,0,1,.761.066,5.229,5.229,0,0,1,.72.175,4.02,4.02,0,0,1,.6.247,1.533,1.533,0,0,1,.347.219.653.653,0,0,1,.11.132.449.449,0,0,1,.044.123,1.235,1.235,0,0,1,.027.18c.006.071.008.161.008.273a2.616,2.616,0,0,1-.013.281,1.161,1.161,0,0,1-.039.207.264.264,0,0,1-.075.123.17.17,0,0,1-.11.039.712.712,0,0,1-.3-.123q-.207-.123-.5-.277a4.557,4.557,0,0,0-.708-.281A3.077,3.077,0,0,0,33,196.2a2.428,2.428,0,0,0-.827.127,1.714,1.714,0,0,0-.58.338,1.349,1.349,0,0,0-.342.5,1.653,1.653,0,0,0-.115.616,1.485,1.485,0,0,0,.22.817,2.219,2.219,0,0,0,.584.606,5.25,5.25,0,0,0,.831.484l.949.444q.484.224.949.492a3.966,3.966,0,0,1,.831.633,2.874,2.874,0,0,1,.589.861A2.838,2.838,0,0,1,36.311,203.3Z"/><path d="M44.265,206.275a.184.184,0,0,1-.07.158.491.491,0,0,1-.194.079,1.8,1.8,0,0,1-.36.027,1.964,1.964,0,0,1-.365-.027.428.428,0,0,1-.2-.079.2.2,0,0,1-.062-.158v-.791a3.907,3.907,0,0,1-1.156.861,3.061,3.061,0,0,1-1.349.308,3.656,3.656,0,0,1-1.129-.163,2.447,2.447,0,0,1-.862-.47,2.111,2.111,0,0,1-.553-.756,2.5,2.5,0,0,1-.2-1.019,2.369,2.369,0,0,1,.272-1.161,2.271,2.271,0,0,1,.783-.817,3.855,3.855,0,0,1,1.248-.488,7.776,7.776,0,0,1,1.661-.162h1.09V201a3.033,3.033,0,0,0-.1-.808,1.378,1.378,0,0,0-.312-.585,1.347,1.347,0,0,0-.558-.351,2.607,2.607,0,0,0-.844-.119,3.354,3.354,0,0,0-.962.128,5.109,5.109,0,0,0-.747.281q-.321.153-.536.281a.746.746,0,0,1-.321.128.212.212,0,0,1-.123-.036.3.3,0,0,1-.093-.1.561.561,0,0,1-.057-.18,1.631,1.631,0,0,1-.017-.242,1.516,1.516,0,0,1,.031-.347.5.5,0,0,1,.149-.242,1.922,1.922,0,0,1,.409-.268,4.538,4.538,0,0,1,.668-.281,6.1,6.1,0,0,1,.826-.211,4.9,4.9,0,0,1,.905-.084,4.743,4.743,0,0,1,1.45.194,2.344,2.344,0,0,1,.967.567,2.192,2.192,0,0,1,.536.927,4.5,4.5,0,0,1,.167,1.292Zm-1.441-3.612h-1.24a4.639,4.639,0,0,0-1.037.1,2.139,2.139,0,0,0-.729.3,1.238,1.238,0,0,0-.426.475,1.424,1.424,0,0,0-.137.637,1.278,1.278,0,0,0,.391.98,1.546,1.546,0,0,0,1.095.365,2.038,2.038,0,0,0,1.059-.29,4.559,4.559,0,0,0,1.024-.888Z"/><path d="M57.871,198.338a.773.773,0,0,1-.018.15,2.053,2.053,0,0,1-.061.22l-2.33,7.514a.362.362,0,0,1-.083.158.38.38,0,0,1-.158.1,1.126,1.126,0,0,1-.277.048c-.117.009-.264.014-.44.014s-.334-.006-.457-.018a1.422,1.422,0,0,1-.294-.053.346.346,0,0,1-.163-.1.413.413,0,0,1-.079-.15l-1.661-5.739-.017-.079-.018.079-1.538,5.739a.374.374,0,0,1-.084.158.378.378,0,0,1-.171.1,1.341,1.341,0,0,1-.294.048c-.121.009-.269.014-.444.014a4.409,4.409,0,0,1-.444-.018,1.4,1.4,0,0,1-.281-.053.341.341,0,0,1-.163-.1.4.4,0,0,1-.079-.15l-2.312-7.514a2.053,2.053,0,0,1-.061-.22.773.773,0,0,1-.018-.15.214.214,0,0,1,.035-.127.248.248,0,0,1,.119-.079.8.8,0,0,1,.224-.04c.094-.006.208-.009.343-.009.164,0,.3,0,.4.014a.825.825,0,0,1,.229.044.213.213,0,0,1,.114.088.638.638,0,0,1,.062.136l1.907,6.521.018.079.017-.079,1.749-6.521a.39.39,0,0,1,.057-.136.243.243,0,0,1,.119-.088.782.782,0,0,1,.215-.044c.091-.009.21-.014.356-.014s.257,0,.347.014a.79.79,0,0,1,.216.044.231.231,0,0,1,.114.083.4.4,0,0,1,.053.123l1.889,6.539.018.079.009-.079,1.881-6.521a.356.356,0,0,1,.057-.136.237.237,0,0,1,.123-.088.866.866,0,0,1,.228-.044c.1-.009.222-.014.374-.014s.253,0,.338.009a.584.584,0,0,1,.2.044.274.274,0,0,1,.106.079A.219.219,0,0,1,57.871,198.338Z"/><polygon points="135.493 229.85 111.717 175.498 112.49 175.307 135.493 226.538 138.116 173.746 161.506 226.538 164.129 173.746 187.519 226.538 190.143 173.746 213.532 226.538 216.158 173.746 239.546 226.538 242.172 173.747 265.563 226.538 268.188 173.746 291.578 226.538 294.203 173.746 317.593 226.538 320.219 173.747 343.611 226.538 346.237 173.747 369.627 226.538 372.251 173.746 395.64 226.538 398.266 173.747 421.658 226.538 424.284 173.747 447.675 226.538 450.303 173.747 473.696 226.538 476.322 173.747 499.715 226.538 502.346 173.747 525.742 226.538 527.989 175.307 528.761 175.498 525.742 229.849 502.346 177.058 499.715 229.849 476.322 177.058 473.696 229.849 450.303 177.058 447.675 229.849 424.284 177.058 421.658 229.849 398.266 177.058 395.64 229.85 372.251 177.059 369.627 229.85 346.237 177.058 343.611 229.849 320.219 177.058 317.593 229.849 294.203 177.059 291.578 229.85 268.188 177.059 265.563 229.849 242.172 177.059 239.546 229.85 216.158 177.059 213.532 229.85 190.143 177.059 187.519 229.85 164.129 177.059 161.506 229.85 138.116 177.059 135.493 229.85"/><line class="cls-2" x1="528.375" y1="273.796" x2="112.104" y2="273.796"/><line class="cls-2" x1="111.735" y1="300.32" x2="111.735" y2="247.372"/><line class="cls-4" x1="111.337" y1="247.372" x2="114.307" y2="247.372"/><line class="cls-4" x1="111.337" y1="300.32" x2="114.307" y2="300.32"/><path d="M107.825,245.772h-.013l-.718.388-.109-.426.9-.484h.477v4.136h-.541Z"/><path d="M106.131,299.993v.414H104.56v-.414Z"/><path d="M107.825,298.307h-.013l-.718.388-.109-.426.9-.484h.477v4.136h-.541Z"/><path d="M36.311,274.909a3.3,3.3,0,0,1-.294,1.424,3.062,3.062,0,0,1-.818,1.059,3.55,3.55,0,0,1-1.23.655,5.134,5.134,0,0,1-1.525.22,5.482,5.482,0,0,1-1.059-.1,5.961,5.961,0,0,1-.87-.237,4.3,4.3,0,0,1-.642-.29,1.716,1.716,0,0,1-.36-.255.655.655,0,0,1-.15-.268,1.594,1.594,0,0,1-.048-.435,2.364,2.364,0,0,1,.018-.321.777.777,0,0,1,.052-.207.235.235,0,0,1,.088-.11.244.244,0,0,1,.123-.03.71.71,0,0,1,.347.149,5.466,5.466,0,0,0,.576.325,5.7,5.7,0,0,0,.848.33,3.9,3.9,0,0,0,1.147.154,2.918,2.918,0,0,0,.9-.132,2.118,2.118,0,0,0,.7-.374,1.624,1.624,0,0,0,.453-.593,1.936,1.936,0,0,0,.158-.8,1.5,1.5,0,0,0-.22-.826,2.205,2.205,0,0,0-.58-.6,5.086,5.086,0,0,0-.822-.475l-.944-.439a10.292,10.292,0,0,1-.941-.5,3.956,3.956,0,0,1-.817-.641,3,3,0,0,1-.585-.866,2.887,2.887,0,0,1-.224-1.191,2.992,2.992,0,0,1,.259-1.27,2.627,2.627,0,0,1,.721-.936,3.223,3.223,0,0,1,1.1-.576,4.744,4.744,0,0,1,2.136-.132,5.228,5.228,0,0,1,.72.176,4.022,4.022,0,0,1,.6.246,1.527,1.527,0,0,1,.347.22.653.653,0,0,1,.11.132.449.449,0,0,1,.044.123,1.235,1.235,0,0,1,.027.18c.006.07.008.161.008.273a2.616,2.616,0,0,1-.013.281,1.131,1.131,0,0,1-.039.206.254.254,0,0,1-.075.123.166.166,0,0,1-.11.04.712.712,0,0,1-.3-.123q-.207-.123-.5-.277a4.557,4.557,0,0,0-.708-.281,3.076,3.076,0,0,0-.918-.128,2.427,2.427,0,0,0-.827.128,1.714,1.714,0,0,0-.58.338,1.349,1.349,0,0,0-.342.5,1.651,1.651,0,0,0-.115.615,1.488,1.488,0,0,0,.22.818,2.247,2.247,0,0,0,.584.606,5.25,5.25,0,0,0,.831.484q.467.219.949.443t.949.493a3.928,3.928,0,0,1,.831.632,2.891,2.891,0,0,1,.589.862A2.838,2.838,0,0,1,36.311,274.909Z"/><path d="M45.083,281.018a.206.206,0,0,1-.04.123.3.3,0,0,1-.119.088.79.79,0,0,1-.219.052,3.49,3.49,0,0,1-.708,0,.927.927,0,0,1-.224-.052.235.235,0,0,1-.119-.088.249.249,0,0,1-.03-.123v-4.052a7.283,7.283,0,0,1-.686.611,3.767,3.767,0,0,1-.642.4,2.723,2.723,0,0,1-.637.22,3.284,3.284,0,0,1-.663.066,2.964,2.964,0,0,1-1.468-.339,2.815,2.815,0,0,1-.989-.914,4.024,4.024,0,0,1-.558-1.353,7.435,7.435,0,0,1-.176-1.64,7.111,7.111,0,0,1,.22-1.841,4.05,4.05,0,0,1,.655-1.4,2.947,2.947,0,0,1,1.072-.892,3.307,3.307,0,0,1,1.472-.312,2.777,2.777,0,0,1,.659.075,2.6,2.6,0,0,1,.611.237,3.758,3.758,0,0,1,.615.422q.312.26.682.62v-.958a.209.209,0,0,1,.035-.128.268.268,0,0,1,.114-.083.671.671,0,0,1,.2-.049c.082-.008.185-.013.308-.013s.217,0,.3.013a.614.614,0,0,1,.2.049.245.245,0,0,1,.106.083.24.24,0,0,1,.031.128Zm-1.459-8.7a5.692,5.692,0,0,0-1.139-1.111,1.977,1.977,0,0,0-1.147-.383,1.627,1.627,0,0,0-.94.264,2.022,2.022,0,0,0-.628.694,3.294,3.294,0,0,0-.352.976,5.6,5.6,0,0,0-.11,1.107,7.435,7.435,0,0,0,.092,1.178,3.352,3.352,0,0,0,.321,1.011,1.957,1.957,0,0,0,.607.707,1.6,1.6,0,0,0,.949.268,1.955,1.955,0,0,0,.558-.079,2.077,2.077,0,0,0,.549-.263,4.179,4.179,0,0,0,.589-.479,7.369,7.369,0,0,0,.651-.726Z"/><path d="M54.54,277.88a.224.224,0,0,1-.031.119.241.241,0,0,1-.11.083.814.814,0,0,1-.207.053,2.476,2.476,0,0,1-.312.017,2.647,2.647,0,0,1-.329-.017.729.729,0,0,1-.2-.053.207.207,0,0,1-.1-.083.243.243,0,0,1-.027-.119v-1.046a4.927,4.927,0,0,1-1.336,1.09,2.874,2.874,0,0,1-1.336.343A3.016,3.016,0,0,1,49.218,278a2.348,2.348,0,0,1-.875-.716,2.919,2.919,0,0,1-.479-1.055,6.376,6.376,0,0,1-.145-1.463v-4.8a.213.213,0,0,1,.031-.119.274.274,0,0,1,.119-.088.736.736,0,0,1,.228-.053c.094-.008.211-.013.352-.013s.258,0,.351.013a.688.688,0,0,1,.224.053.309.309,0,0,1,.119.088.193.193,0,0,1,.035.119v4.6a4.924,4.924,0,0,0,.1,1.112,2.086,2.086,0,0,0,.308.712,1.428,1.428,0,0,0,.523.457,1.6,1.6,0,0,0,.738.163,1.858,1.858,0,0,0,1.086-.387,6.21,6.21,0,0,0,1.147-1.134V269.97a.221.221,0,0,1,.03-.119.274.274,0,0,1,.119-.088.737.737,0,0,1,.224-.053c.091-.008.21-.013.356-.013s.258,0,.352.013a.643.643,0,0,1,.219.053.364.364,0,0,1,.119.088.184.184,0,0,1,.04.119Z"/><path d="M63.179,277.889a.184.184,0,0,1-.07.158.5.5,0,0,1-.193.079,1.832,1.832,0,0,1-.361.026,1.977,1.977,0,0,1-.365-.026.44.44,0,0,1-.2-.079.2.2,0,0,1-.062-.158V277.1a3.907,3.907,0,0,1-1.156.861,3.061,3.061,0,0,1-1.349.308A3.686,3.686,0,0,1,58.3,278.1a2.433,2.433,0,0,1-.861-.47,2.1,2.1,0,0,1-.554-.756,2.5,2.5,0,0,1-.2-1.02,2.355,2.355,0,0,1,.273-1.16,2.26,2.26,0,0,1,.782-.817,3.833,3.833,0,0,1,1.248-.488,7.773,7.773,0,0,1,1.661-.163h1.09v-.615a3.033,3.033,0,0,0-.1-.808,1.372,1.372,0,0,0-.312-.585,1.334,1.334,0,0,0-.558-.351,2.58,2.58,0,0,0-.844-.119,3.355,3.355,0,0,0-.962.127,5.105,5.105,0,0,0-.747.282q-.321.153-.536.281a.741.741,0,0,1-.321.127.212.212,0,0,1-.123-.035.291.291,0,0,1-.092-.105.537.537,0,0,1-.058-.18,1.641,1.641,0,0,1-.017-.242,1.51,1.51,0,0,1,.031-.347.5.5,0,0,1,.149-.242,1.883,1.883,0,0,1,.409-.268,4.432,4.432,0,0,1,.668-.281,5.954,5.954,0,0,1,.826-.211,4.9,4.9,0,0,1,.9-.084,4.743,4.743,0,0,1,1.45.194,2.332,2.332,0,0,1,.967.566,2.2,2.2,0,0,1,.536.928,4.467,4.467,0,0,1,.167,1.292Zm-1.441-3.613H60.5a4.7,4.7,0,0,0-1.038.1,2.139,2.139,0,0,0-.729.3,1.231,1.231,0,0,0-.426.475,1.421,1.421,0,0,0-.137.637,1.275,1.275,0,0,0,.392.98,1.541,1.541,0,0,0,1.094.365,2.038,2.038,0,0,0,1.059-.29,4.585,4.585,0,0,0,1.024-.888Z"/><path d="M70.465,270.488c0,.129,0,.238-.008.325a.793.793,0,0,1-.036.207.281.281,0,0,1-.066.114.145.145,0,0,1-.109.04.481.481,0,0,1-.172-.04c-.067-.026-.143-.052-.228-.079s-.18-.051-.286-.075a1.606,1.606,0,0,0-.343-.035,1.117,1.117,0,0,0-.43.088,1.676,1.676,0,0,0-.444.29,3.676,3.676,0,0,0-.488.536q-.255.334-.563.818v5.2a.2.2,0,0,1-.035.119.268.268,0,0,1-.114.083.832.832,0,0,1-.22.053,3.174,3.174,0,0,1-.36.017,3.1,3.1,0,0,1-.352-.017.912.912,0,0,1-.224-.053.245.245,0,0,1-.114-.083.224.224,0,0,1-.031-.119v-7.91a.241.241,0,0,1,.027-.119.233.233,0,0,1,.105-.088.611.611,0,0,1,.2-.053c.082-.008.191-.013.325-.013s.236,0,.321.013a.531.531,0,0,1,.2.053.28.28,0,0,1,.1.088.213.213,0,0,1,.031.119v1.151a6.173,6.173,0,0,1,.611-.773,3.353,3.353,0,0,1,.54-.471,1.684,1.684,0,0,1,.506-.237,1.972,1.972,0,0,1,.5-.066c.076,0,.163,0,.259.013a2.322,2.322,0,0,1,.3.049,2.576,2.576,0,0,1,.286.079.574.574,0,0,1,.18.088.256.256,0,0,1,.071.083.536.536,0,0,1,.03.1,1.094,1.094,0,0,1,.018.18C70.464,270.247,70.465,270.354,70.465,270.488Z"/><path d="M78.63,273.582a.606.606,0,0,1-.172.488.6.6,0,0,1-.393.145H72.856a4.89,4.89,0,0,0,.132,1.186,2.3,2.3,0,0,0,.442.906,1.987,1.987,0,0,0,.8.58,3.216,3.216,0,0,0,1.21.2A4.984,4.984,0,0,0,76.45,277a6,6,0,0,0,.764-.207q.323-.114.53-.207a.881.881,0,0,1,.314-.092.2.2,0,0,1,.11.031.187.187,0,0,1,.075.092.633.633,0,0,1,.04.172,2.25,2.25,0,0,1,.013.268c0,.076,0,.142-.008.2s-.014.106-.022.15a.412.412,0,0,1-.044.119.555.555,0,0,1-.079.1,1.327,1.327,0,0,1-.286.158,4.143,4.143,0,0,1-.615.215,8.769,8.769,0,0,1-.875.189,6.349,6.349,0,0,1-1.059.084,4.891,4.891,0,0,1-1.709-.273,3.174,3.174,0,0,1-1.235-.808,3.464,3.464,0,0,1-.756-1.345,6.266,6.266,0,0,1-.255-1.881,5.921,5.921,0,0,1,.264-1.833,3.858,3.858,0,0,1,.76-1.379,3.333,3.333,0,0,1,1.2-.871,3.933,3.933,0,0,1,1.573-.3,3.8,3.8,0,0,1,1.586.3,2.99,2.99,0,0,1,1.077.8,3.244,3.244,0,0,1,.62,1.187,5.224,5.224,0,0,1,.2,1.454Zm-1.459-.431a2.64,2.64,0,0,0-.508-1.793,1.938,1.938,0,0,0-1.587-.65,2.1,2.1,0,0,0-.947.2,2.062,2.062,0,0,0-.681.536,2.466,2.466,0,0,0-.424.778,3.26,3.26,0,0,0-.168.927Z"/><line class="cls-3" x1="135.206" y1="300.32" x2="158.931" y2="300.32"/><line class="cls-3" x1="111.735" y1="247.372" x2="135.46" y2="247.372"/><line class="cls-3" x1="135.463" y1="247.066" x2="135.463" y2="300.32"/><line class="cls-3" x1="158.522" y1="247.322" x2="158.522" y2="300.27"/><line class="cls-3" x1="181.992" y1="300.626" x2="205.718" y2="300.626"/><line class="cls-3" x1="158.522" y1="247.678" x2="182.247" y2="247.678"/><line class="cls-3" x1="182.25" y1="247.372" x2="182.25" y2="300.626"/><line class="cls-3" x1="205.308" y1="247.628" x2="205.308" y2="300.576"/><line class="cls-3" x1="228.779" y1="300.932" x2="252.505" y2="300.932"/><line class="cls-3" x1="205.308" y1="247.984" x2="229.034" y2="247.984"/><line class="cls-3" x1="229.037" y1="247.678" x2="229.037" y2="300.932"/><line class="cls-3" x1="252.095" y1="247.934" x2="252.095" y2="300.883"/><line class="cls-3" x1="275.566" y1="301.239" x2="299.291" y2="301.239"/><line class="cls-3" x1="252.095" y1="248.29" x2="275.821" y2="248.29"/><line class="cls-3" x1="275.824" y1="247.984" x2="275.824" y2="301.239"/><line class="cls-3" x1="298.882" y1="248.24" x2="298.882" y2="301.189"/><line class="cls-3" x1="322.762" y1="301.342" x2="346.488" y2="301.342"/><line class="cls-3" x1="299.291" y1="248.393" x2="323.017" y2="248.393"/><line class="cls-3" x1="323.02" y1="248.087" x2="323.02" y2="301.342"/><line class="cls-3" x1="346.078" y1="248.344" x2="346.078" y2="301.292"/><line class="cls-3" x1="369.549" y1="301.239" x2="393.274" y2="301.239"/><line class="cls-3" x1="346.078" y1="248.29" x2="369.804" y2="248.29"/><line class="cls-3" x1="369.807" y1="247.984" x2="369.807" y2="301.239"/><line class="cls-3" x1="392.865" y1="248.24" x2="392.865" y2="301.189"/><line class="cls-3" x1="416.336" y1="301.239" x2="440.061" y2="301.239"/><line class="cls-3" x1="392.865" y1="248.29" x2="416.59" y2="248.29"/><line class="cls-3" x1="416.593" y1="247.984" x2="416.593" y2="301.239"/><line class="cls-3" x1="439.652" y1="248.24" x2="439.652" y2="301.189"/><line class="cls-3" x1="463.122" y1="301.239" x2="486.848" y2="301.239"/><line class="cls-3" x1="439.652" y1="248.29" x2="463.377" y2="248.29"/><line class="cls-3" x1="463.38" y1="247.984" x2="463.38" y2="301.239"/><line class="cls-3" x1="486.438" y1="248.24" x2="486.438" y2="301.189"/><line class="cls-3" x1="509.909" y1="301.445" x2="528.375" y2="301.445"/><line class="cls-3" x1="486.438" y1="248.497" x2="510.164" y2="248.497"/><line class="cls-3" x1="510.167" y1="248.19" x2="510.167" y2="301.445"/><line class="cls-2" x1="527.18" y1="350.566" x2="110.908" y2="350.566"/><line class="cls-2" x1="110.54" y1="377.09" x2="110.54" y2="324.142"/><line class="cls-4" x1="110.142" y1="324.142" x2="113.112" y2="324.142"/><line class="cls-4" x1="110.142" y1="377.09" x2="113.112" y2="377.09"/><path d="M106.63,322.542h-.013l-.719.388-.108-.426.9-.484h.477v4.136h-.541Z"/><path d="M104.936,376.763v.413h-1.572v-.413Z"/><path d="M106.63,375.076h-.013l-.719.388-.108-.426.9-.483h.477v4.135h-.541Z"/><path d="M38.8,354.923a.679.679,0,0,1-.059.3.582.582,0,0,1-.368.316.808.808,0,0,1-.236.035h-.5a1.591,1.591,0,0,1-.414-.048.922.922,0,0,1-.336-.176,1.79,1.79,0,0,1-.318-.347,4.6,4.6,0,0,1-.338-.563l-3.469-6.468c-.182-.334-.364-.684-.549-1.051s-.356-.722-.514-1.067h-.018q.018.632.027,1.292t.008,1.309v6.864a.214.214,0,0,1-.037.119.237.237,0,0,1-.125.088,1.424,1.424,0,0,1-.232.053,3.064,3.064,0,0,1-.733,0,1.3,1.3,0,0,1-.227-.053.239.239,0,0,1-.12-.088.214.214,0,0,1-.037-.119V344.824a.587.587,0,0,1,.2-.5.714.714,0,0,1,.435-.149h.745a1.818,1.818,0,0,1,.439.044.9.9,0,0,1,.318.145,1.241,1.241,0,0,1,.272.281,3.67,3.67,0,0,1,.276.453l2.667,4.992q.248.458.476.892t.442.857q.211.421.42.83t.412.822h.009q-.018-.695-.022-1.446t0-1.445v-6.17a.2.2,0,0,1,.037-.115.3.3,0,0,1,.125-.092.844.844,0,0,1,.232-.057,3.143,3.143,0,0,1,.375-.018,2.988,2.988,0,0,1,.353.018.79.79,0,0,1,.232.057.312.312,0,0,1,.12.092.2.2,0,0,1,.037.115Z"/><path d="M49.011,351.284a5.921,5.921,0,0,1-.255,1.78,3.93,3.93,0,0,1-.76,1.4,3.443,3.443,0,0,1-1.266.918,4.389,4.389,0,0,1-1.762.33,4.567,4.567,0,0,1-1.7-.29,3.111,3.111,0,0,1-1.209-.844,3.586,3.586,0,0,1-.721-1.345,6.244,6.244,0,0,1-.237-1.793,6.018,6.018,0,0,1,.251-1.779,3.882,3.882,0,0,1,.755-1.4,3.4,3.4,0,0,1,1.262-.914,4.435,4.435,0,0,1,1.766-.326,4.548,4.548,0,0,1,1.7.291,3.1,3.1,0,0,1,1.208.843,3.63,3.63,0,0,1,.726,1.345A6.1,6.1,0,0,1,49.011,351.284Zm-1.5.1a5.963,5.963,0,0,0-.119-1.213,2.989,2.989,0,0,0-.4-1,1.959,1.959,0,0,0-.745-.681,2.469,2.469,0,0,0-1.171-.251,2.505,2.505,0,0,0-1.113.229,2.043,2.043,0,0,0-.767.646,2.9,2.9,0,0,0-.448.989,5.051,5.051,0,0,0-.146,1.248,5.928,5.928,0,0,0,.12,1.221,2.886,2.886,0,0,0,.4,1,2.008,2.008,0,0,0,.749.677,2.472,2.472,0,0,0,1.171.25,2.51,2.51,0,0,0,1.108-.228,2.055,2.055,0,0,0,.772-.642,2.792,2.792,0,0,0,.443-.984A5.194,5.194,0,0,0,47.508,351.381Z"/><path d="M52.764,344.745a.953.953,0,0,1-.193.694,1.039,1.039,0,0,1-.712.185,1.023,1.023,0,0,1-.7-.18.937.937,0,0,1-.189-.681.956.956,0,0,1,.194-.695,1.037,1.037,0,0,1,.711-.184,1.023,1.023,0,0,1,.7.18A.937.937,0,0,1,52.764,344.745ZM52.6,355.327a.2.2,0,0,1-.035.119.274.274,0,0,1-.114.083.8.8,0,0,1-.22.053,2.939,2.939,0,0,1-.36.018,2.854,2.854,0,0,1-.352-.018.858.858,0,0,1-.224-.053.235.235,0,0,1-.114-.083.213.213,0,0,1-.031-.119v-7.91a.217.217,0,0,1,.031-.114.223.223,0,0,1,.114-.088.858.858,0,0,1,.224-.053,2.879,2.879,0,0,1,.352-.017,2.967,2.967,0,0,1,.36.017.8.8,0,0,1,.22.053.257.257,0,0,1,.114.088.2.2,0,0,1,.035.114Z"/><path d="M60.244,353.174a2.511,2.511,0,0,1-.224,1.081,2.208,2.208,0,0,1-.638.8,2.878,2.878,0,0,1-.984.492,4.482,4.482,0,0,1-1.257.167,4.724,4.724,0,0,1-.8-.066,4.791,4.791,0,0,1-.686-.167,3.57,3.57,0,0,1-.514-.211,1.485,1.485,0,0,1-.307-.2.5.5,0,0,1-.141-.246,1.686,1.686,0,0,1-.044-.431,1.847,1.847,0,0,1,.018-.281.873.873,0,0,1,.044-.184.19.19,0,0,1,.074-.1.2.2,0,0,1,.11-.031.623.623,0,0,1,.286.118c.126.08.281.166.466.26a4.222,4.222,0,0,0,.654.259,2.91,2.91,0,0,0,.87.119,2.638,2.638,0,0,0,.668-.079,1.625,1.625,0,0,0,.519-.233,1.044,1.044,0,0,0,.338-.391,1.25,1.25,0,0,0,.119-.563.909.909,0,0,0-.171-.562,1.642,1.642,0,0,0-.453-.4,3.731,3.731,0,0,0-.633-.312q-.351-.137-.725-.285a7.529,7.529,0,0,1-.729-.339,2.81,2.81,0,0,1-.638-.461,2.114,2.114,0,0,1-.452-.651,2.181,2.181,0,0,1-.172-.905,2.255,2.255,0,0,1,.181-.892,2.074,2.074,0,0,1,.54-.747,2.71,2.71,0,0,1,.9-.514,3.738,3.738,0,0,1,1.261-.194,3.863,3.863,0,0,1,.633.053,4.272,4.272,0,0,1,.571.132,2.82,2.82,0,0,1,.435.171,1.966,1.966,0,0,1,.273.163.5.5,0,0,1,.123.123.4.4,0,0,1,.044.119c.009.044.017.1.026.162a1.78,1.78,0,0,1,.013.238,2.168,2.168,0,0,1-.013.259.64.64,0,0,1-.044.18.227.227,0,0,1-.074.1.165.165,0,0,1-.1.031.484.484,0,0,1-.229-.1A3.19,3.19,0,0,0,59,348.45a4.327,4.327,0,0,0-.558-.207,2.564,2.564,0,0,0-.734-.1,2.285,2.285,0,0,0-.651.084,1.261,1.261,0,0,0-.461.237,1.014,1.014,0,0,0-.273.365,1.138,1.138,0,0,0-.092.457.931.931,0,0,0,.176.576,1.666,1.666,0,0,0,.457.408,3.79,3.79,0,0,0,.641.317c.241.094.485.19.734.29s.495.211.739.334a2.764,2.764,0,0,1,.646.448,2.033,2.033,0,0,1,.452.633A2.06,2.06,0,0,1,60.244,353.174Z"/><path d="M69.068,351.029a.609.609,0,0,1-.172.488.592.592,0,0,1-.393.145h-5.21a4.847,4.847,0,0,0,.133,1.187,2.275,2.275,0,0,0,.442.905,1.984,1.984,0,0,0,.8.58,3.2,3.2,0,0,0,1.21.2,4.994,4.994,0,0,0,1.007-.092,6.089,6.089,0,0,0,.764-.207c.215-.076.391-.145.53-.206a.861.861,0,0,1,.314-.093.207.207,0,0,1,.11.031.2.2,0,0,1,.075.093.674.674,0,0,1,.04.171,2.484,2.484,0,0,1,.013.268,1.888,1.888,0,0,1-.009.2c-.006.055-.013.1-.022.149a.376.376,0,0,1-.044.119.487.487,0,0,1-.079.1,1.274,1.274,0,0,1-.286.158,4.143,4.143,0,0,1-.615.215,8.217,8.217,0,0,1-.874.189,6.349,6.349,0,0,1-1.059.084,4.893,4.893,0,0,1-1.71-.273,3.17,3.17,0,0,1-1.235-.808,3.464,3.464,0,0,1-.756-1.345,6.268,6.268,0,0,1-.254-1.881,5.92,5.92,0,0,1,.263-1.832,3.886,3.886,0,0,1,.76-1.38,3.327,3.327,0,0,1,1.2-.87,3.937,3.937,0,0,1,1.573-.3,3.812,3.812,0,0,1,1.587.3,3.017,3.017,0,0,1,1.076.8,3.229,3.229,0,0,1,.62,1.187,5.189,5.189,0,0,1,.2,1.455Zm-1.459-.43a2.647,2.647,0,0,0-.508-1.793,1.938,1.938,0,0,0-1.588-.651,2.108,2.108,0,0,0-.946.2,2.051,2.051,0,0,0-.681.537,2.452,2.452,0,0,0-.425.777,3.26,3.26,0,0,0-.168.928Z"/><g class="cls-5"><g class="cls-6"><g class="cls-7"><path d="M564.293,335.375c-.62-1.749-1.2-3.57-1.783-5.248-.426,4.106-1.2,8.14-1.511,12.281-1.783-3.891-3.527-7.747-5.194-11.638-1.279,3.034-2.6,6.069-3.875,9.1-1.589-9.425-2.6-18.85-4.108-28.311q-1.125,16.388-2.752,32.667c-3.876-10.71-3.876-21.706-4.457-32.631-.853,12.388-1.86,24.777-3.372,37.094-3.876-20.529-.659-41.414-4.651-61.978-1.627,20.636-.659,41.378-1.821,62.049-1.977-11.96-2.868-23.955-4.845-35.88-1.744,8.569-2.984,17.173-3.875,25.848-1.279-16.494-2.326-32.988-4.5-49.446-1.085,16.887-1.24,33.773-1.9,50.66-2.17-15.78-1.124-32.131-6.317-47.411-1.551,14.1-1.434,28.311-1.938,42.484-7.364-20.564-3.256-42.127-5.348-63.084-.969,21.421,0,43.127-2.132,64.691-7.751-28.311,0-57.372-6.007-85.683-2.364,28.882.194,57.836-1.783,86.754-4.457-28.561-3.876-57.122-5.348-85.433-1.473,28.882.31,57.8-1.241,86.682-6.665-28.2-4.844-57.122-6.937-85.433-1.783,25.312.7,50.732-2.48,76.008-6.395-25.919-1.551-52.374-4.38-78.543-.93,28.062-1.744,56.123-3.217,84.148-3.875-28.561-3.875-56.908-5.231-85.4-1.512,30.917.193,61.834-1.008,92.823-8.023-35.987-2.829-72.581-5.387-108.853-3.295,34.63-2.055,69.3-3.217,103.962-.388-4.891-1.2-14.673-1.628-19.6-.93,2.785-1.821,5.534-2.674,8.318-.659-31.31,1.008-62.619-1.163-93.929-1.821,38.807.659,77.614-1.356,116.421-3.256-36.736-4.38-73.544-5.542-110.352-5.659,26.99,1.162,54.658-4.883,81.684-3.489-25.455-1.357-51.088-3.333-76.615-1.512,28.561.387,57.122-1.551,85.469-.852-19.457-1.162-39.021-6.86-58.086-.62,13.959-.736,27.919-1.124,41.878-2.6-18.886-4.922-37.844-5.7-56.837-.465,11.96-.658,23.956-1.085,35.916-1.24-3.213-3.061-6.569-3.875-9.747-.388,4.07-1.124,8.069-1.357,12.174-.542-3.57-1.744-7.425-2.015-11-.426,13.174-.7,26.348-1.512,39.522-.969-21.849-.5-43.663-.852-65.512-1.008,2.749-1.977,5.462-2.868,8.211l-1.744-14.673c-.891,14.852-1.821,29.668-3.372,44.519-.232-9.21-.232-18.386-.271-27.561-1.279.643-2.519,1.321-3.876,2-.271-2.249-.775-6.747-1.007-9-.737,6.176-1.473,12.352-2.132,18.529-2.4-10.211-3.527-20.6-4.844-30.918-1.279,9.818-2.171,19.672-3.024,29.561-1.085-9.532-1.937-19.029-3.875-28.561-1.318,11.5-2.209,23.063-2.907,34.63-.581-14.816-.814-29.632-1.395-44.484-.7,7.141-1.318,14-1.938,20.993-.232-3.57-1.124-7.355-1.085-10.925-.853,1.928-1.705,3.892-2.519,5.855-4.457-28.739-3.333-57.693-4.884-86.54-1.085,29.311,0,58.658-3.255,87.9-.582-13.174-1.008-26.383-1.783-39.557-.543,16.1-.582,32.131-1.86,48.3-2.558-17.28-2.171-34.7-3.14-52.017-1.783,32.131,1.357,64.512-3.526,96.607-.31-10.21-.349-20.456-.388-30.631-1.124,1.392-2.248,2.784-3.333,4.213-.387-2.035-1.2-6.07-1.589-8.1V313.7c-.814-1.713-2.519-5.105-3.333-6.818v16.708c-1.123-1.428-2.286-2.856-3.371-4.284-.233,1.785-.427,3.57-.582,5.426-.5-1.249-1.008-2.5-1.434-3.57-3.217,2.82-6.239,5.748-9.728,8.354a175.328,175.328,0,0,1-3.139-20.385c-2.868,9.389-4.224,18.957-6.24,28.561-.62-11.1-1.046-22.171-1.317-33.274a174.533,174.533,0,0,1-4.728,24.991c-2.442-7.783-4.38-15.637-6.163-23.491-.775,9.746-1.356,19.528-2.752,29.275-.542-8.069-1.046-16.1-1.588-24.17l-4.923-3.57c-.891,5.926-1.666,11.853-2.441,17.85-.427-6.89-.814-13.78-1.24-20.706-.582,4.926-1.783,14.816-2.365,19.742-2.131-12.317-2.247-24.776-4.34-37.129-.853,14.031-.969,28.061-1.667,42.092-9.921-19.243-3.991-39.985-6.666-59.871-.775,14.459-.813,28.882-1.511,43.341-.737-9.5-1.24-18.957-1.938-28.561-.465,11.924-.814,23.849-1.356,35.7-.543-10.71-1.279-21.42-1.745-32.131-1.4,6.07-2.6,12.139-3.875,18.244-.659-14.781-1.589-29.525-3.062-44.27-.5,13.281-1.008,26.6-2.48,39.843-3.14-22.706-.659-45.626-2.675-68.368-.813,18.565-.426,37.129-1.589,55.694-.7-10.282-.891-20.6-1.356-30.882-.93,7.141-1.977,14.281-2.984,21.421-3.139-27.776,0-55.658-2.209-83.469a305.245,305.245,0,0,0-3.1,41.984c-1.162-4.1-2.286-8.211-3.449-12.281-.737,8.675-1.434,17.315-2.132,25.99-1.472-12.352-2.286-24.705-3.139-37.093l-1.976,21.171c-.737-22.492-.31-44.984-.272-67.44h-1.782c-.465,43.556,1.279,87.111-.892,130.667-1.24-23.313-2.6-46.662-2.325-69.975,0-17.85.581-35.915-2.752-53.552-.93,12.246-1.628,24.491-3.217,36.737-.7-5.284-1.356-10.71-2.015-15.851-4.3,39.592.581,79.4-4.3,118.956-.93-11.567-1.4-23.134-1.9-34.7-.659,3.571-1.86,7.141-2.248,11-.5-8.211-.891-16.422-1.317-24.6-.427,23.17-5.077,46.126-6.86,69.225-.194-3.57-.543-7.14-.581-10.71h-4.457c-1.086,4.427-2.016,8.925-3.1,13.352-.852-12.281-1.279-24.634-3.41-36.844-.892,11.46-1.279,22.992-3.14,34.416-1.821-9-2.868-18.065-3.875-27.1-.5,8.247-1.008,16.494-1.589,24.777a118.858,118.858,0,0,1-5.271-14.5c-.814,4.177-2.17,8.211-2.868,12.424a182.7,182.7,0,0,1-3.876-31.381,317.044,317.044,0,0,1-2.984,37.272c-3.565-11.853-2.674-24.134-3.875-36.166A152.985,152.985,0,0,0,166.7,331.2c-1.861-3.213-3.566-6.39-5.388-9.568-.581,2.5-1.744,7.39-2.286,9.854-1.2-9.854-2.132-19.743-3.139-29.6-.853,10.282-1.551,20.564-2.713,30.811-1.551-9.033-2.946-18.065-4.264-27.1-2.209,11.425-3.41,22.921-4.922,34.381-.542-12.282-1.085-24.527-2.829-36.7-1.279,8.675-1.046,17.85-5.154,26.062q-.969-10.711-1.744-21.421c-1.124,7.39-2.171,14.816-3.488,22.206a224.272,224.272,0,0,1-3.3-25.883c-1.317,6.212-2.635,12.388-4.147,18.564-1.24-6.176-2.054-12.388-2.945-18.564-.5,7.818-1.008,15.6-1.55,23.42a202.311,202.311,0,0,1-4.961-34.595c-.814,8.961-1.4,17.851-2.6,26.883-1.434-4.391-2.713-8.747-4.185-13.066-1.086,3.962-2.4,7.925-3.372,11.924-1.124-6.855-2.209-13.745-3.333-20.636-.5,3.571-.93,7.141-1.395,10.961-2.016-4.106-4.07-8.247-5.93-12.353-4.689,8.568-3.139,17.851-4.108,26.99-1.163-4.427-2.287-8.854-3.488-13.245-.659,5.248-1.24,10.5-1.822,15.78A354.915,354.915,0,0,1,80.5,284.322c-1.008,9.818-1.783,19.672-3.294,29.49-.388-3.571-1.124-10.711-1.473-14.5-.891,2.713-1.7,5.462-2.48,8.211-.466-9-.969-17.85-1.628-26.919-1.977,13.1-2.209,26.348-2.83,39.522-.93-8.176-1.705-16.387-2.79-24.563-1.55,4-2.868,8.069-4.341,12.067A149.891,149.891,0,0,1,58.8,284.929H56.4q-.582,13.211-1.241,26.526a322.93,322.93,0,0,0-3.294-38.164c-1.434,16.03-2.442,32.131-3.449,48.125-3.023-20.564-2.093-41.271-3.256-61.906a292.744,292.744,0,0,1-3.333,39.843c-4.108-17.673-2.558-35.7-5.309-53.552-.776,21.885-.194,43.734-1.434,65.619-.775-17.851-1.473-35.487-3.256-53.195a190.948,190.948,0,0,1-4.883,31.1c-.776-7.819-1.4-15.6-2.055-23.42-.542,11.531-.93,23.063-1.589,34.594-.736-10.282-1.046-20.6-1.7-30.882-.542,13.6-.852,27.2-1.55,40.807-1.24-30.739-2.907-61.478-2.48-92.252H15.816c0,27.062.931,54.123-.93,81.113-2.015-11.46-2.48-23.027-3.255-34.559-.737,7.141-1.395,14.031-2.093,21.064C4.577,272.9,5.662,259.367,4.965,246.122c-.426,10.71-1.2,21.421-1.628,32.131-.7-7.14-1.4-14-2.015-20.956C.857,274.612.74,291.891-.112,309.206c-.737-13.174-.93-26.419-3.1-39.557-1.007,11.96-1.317,23.92-2.015,35.7-.581-19.457-.581-38.985-4.689-58.264-6.473,14.816-4.225,30.56-5.426,45.876-.659-12.71-1.008-25.419-2.248-38.093l-2.093,4.927-3.217-1.821q-.233,13.173-.581,26.347c-1.046-7.818-1.938-15.672-3.178-23.491q-1.047,12.96-1.977,25.919c-.891-7.462-1.744-14.923-2.674-22.385-1.473,10.318-1.783,20.707-2.6,31.025-.542-7.783-.968-15.6-1.433-23.385-2.287,15.673-.7,32.56-11.2,46.84-1.86-4.962-3.294-10.032-5.271-14.958-.736,8.746-1.473,17.457-2.17,26.24a282.641,282.641,0,0,0-3.411-33.238c-.387,6.105-.736,12.174-1.046,18.315l-4.69-4.249q-.465,10.712-.968,21.635c-.659-12.352-.892-24.7-1.589-37.058-.582,7.819-1.008,15.638-1.512,23.456-.581-3.57-1.589-7.461-1.938-11.031-.542,4.891-1.046,9.817-1.55,14.708a123.827,123.827,0,0,1-5.232-34.558c-1.047,11.531-1.938,23.1-2.946,34.63-.736-3.285-1.434-6.569-2.092-9.818-.349,3.57-1.124,7.14-1.318,10.889-1.2-9.175-1.744-18.386-3.45-27.49-1.356,2.892-2.674,5.819-3.875,8.747-3.256-18.743-3.333-37.665-6.124-56.408q-1.046,10.389-2.054,20.814a397.754,397.754,0,0,1-2.209-53.909H-101.5a302.8,302.8,0,0,1-2.519,50.231c-1.047-10.317-1.357-20.706-2.093-31.024-.465,14-.62,28.025-1.279,42.02-3.062-24.312-1.977-48.7-3.876-73.044-2.751,15.6-2.131,31.381-3.139,47.054-.659-19.35-.543-38.772-1.357-58.122-1.7,18.1-2.79,36.237-3.565,54.338-1.705-29.275.194-58.586-1.55-87.825-.737,7.39-1.357,14.78-2.016,22.206-.581-9.889-.969-19.779-1.55-29.668-2.868,30.525-1.744,61.121-3.294,91.645-1.357-19.35-2.364-38.736-3.256-58.086q-.93,19.136-1.744,38.272c-.659-11.139-1.046-22.278-1.628-33.381-.852,10.711-1.434,21.421-3.061,32.131a132.921,132.921,0,0,1-4.38-22.241c-.5,28.56.388,56.907-.7,85.361-.814-4.927-1.589-9.853-2.326-14.744-.891,13.566-1.744,27.1-2.829,40.663-1.124-3.57-2.209-7.14-3.294-10.71-2.209,5.069-4.651,10.1-6.976,15.173-1.124,4.106-2.442,8.175-3.488,12.317l-3.372-7.926c-1.163,7.64-2.209,15.352-3.449,23.027-.5-9-.969-17.85-1.473-26.99-1.4,8.569-2.442,17.173-3.566,25.741-.542-6.891-1.007-13.781-1.511-20.671-1.4,5.641-2.636,11.353-3.876,17.029q-.465-12.852-.891-25.776c-1.24,6.141-2.248,12.281-3.527,18.422-.7-5.712-1.24-11.46-1.822-17.172-1.046,5.747-2.054,11.5-3.139,17.243l-2.325-19.814c-1.7,10.71-2.287,21.421-3.294,32.131-.349-16.1-.427-32.131-1.822-48.375-1.512,9.889-2.209,19.85-3.062,29.775-.775-11.532-1.085-23.135-2.713-34.63-.736,10.71-1.589,21.42-2.131,32.131-.62-14.923-.93-29.846-2.287-44.734-3.1,15.209-1.821,30.667-2.829,45.983a335.5,335.5,0,0,0-3.294-38.343c-.776,10.282-1.279,20.6-1.822,30.917-1.046-14.03-1.977-28.025-3.294-42.02-.62,7.355-1.124,14.745-1.706,22.135-1.317-7.14-2.441-14.6-3.565-21.921-.659,5.713-1.318,11.389-1.938,17.1-1.434-6.533-2.248-13.138-3.217-19.707-.465,10.282-.814,20.564-1.434,30.81-2.209-13.959-2.519-28.025-3.41-42.056-.465,14.067-.737,28.133-1.9,42.2a309.815,309.815,0,0,1-2.093-49.053h-1.4c0,12.6-.5,25.2-1.318,37.843a230.479,230.479,0,0,1-2.868-26.705h-.891c-.233,10.5-.543,21.028-1.008,31.56q-2.442-14.28-3.527-28.561c-.62,9.068-1.2,18.172-1.938,27.24-2.325-14.78-2.209-29.739-3.139-44.626-.581,11.96-.93,23.955-1.589,35.915-1.2-11.924-2.131-23.848-3.062-35.7-.852,9.032-2.093,18.1-3.371,27.133-.659-3.57-1.512-7.5-2.132-11.067-.891,9.817-1.473,19.671-2.79,29.489l-2.326-25.884c-.31,18.6.349,37.272-2.829,55.73-1.4-20.207-.736-40.485-2.054-60.692-1.279,24.348.775,48.8-2.791,73.08-2.325-27.24,0-54.515-2.209-81.755-.969,25.6-.581,51.231-3.565,76.757-1.318-28.882.736-57.8-1.551-86.647-1.278,26.812.582,53.766-3.371,80.507-.853-21.885-.194-43.806-1.473-65.655-2.093,20.6-2.364,41.271-3.527,61.906-1.24-25.991.194-52.017-1.589-78.007-1.318,28.561-1.705,57.122-3.488,85.433-1.085-24.348,0-48.732-1.589-73.081-2.17,15.637-2.558,31.382-3.527,47.055-.736-22.278,0-44.591-1.356-66.833a735.544,735.544,0,0,0-2.442,81.077h-1.782c-.271-26.633,1.628-53.551-1.938-79.9q-1.356,12.96-2.558,25.955c-.426-14.5-.581-28.954-1.744-43.413-5.581,32.131.426,64.548-3.023,96.715-1.163-25.991-1.744-52.017-3.449-78.007-1.008,23.527,0,47.054-1.55,70.581-1.086-20.6,0-41.342-3.372-61.835-.814,18.922-.659,37.879-1.628,56.837-4.845-33.738-.853-67.833-3.411-101.5-1.86,31.774.388,63.584-1.589,95.358-4.612-33.345-1.046-66.9-3.449-100.32-2.287,42.091.93,84.255-1.822,126.346-.93-53.552-1.589-107.389-3.332-161.048-3.023,46.626,3.022,93.466-3.14,139.949-1.821-26.419,0-52.874-1.86-79.257-1.008,21.849-.388,43.734-1.357,65.583-4.418-20.457-1.976-41.27-3.643-61.834-1.666,27.6,1.047,55.372-3.294,82.9-2.4-51.981,1.085-104.033-1.86-156.014-1.744,32.773.581,65.583-1.318,98.357-1.666,26.24,0,52.552-1.86,78.792-2.326-52.445.891-104.926-1.706-157.335-1.7,48.732-1.937,97.464-3.449,146.2-1.938-40.485.7-80.97-1.473-121.384-2.868,32.131-1.937,64.262-3.488,96.608-.969-21.421-.387-42.842-1.782-64.263-3.372,21.778-2.248,43.7-2.326,65.548-1.008-1.892-1.976-3.57-2.945-5.641-1.357,10.139-2.209,20.314-2.946,30.525-6.24-10.032-6.162-21.207-6.743-32.131-1.047,6.5-1.9,13.031-3.217,19.528-.7-4.034-1.55-8.175-2.17-12.21-1.2,9.461-2.21,18.922-3.3,28.561a271.1,271.1,0,0,1-2.751-26.99c-.272,1.535-.776,4.606-1.008,6.141l-3.294-1.642c-1.124,7.14-2.558,14.28-4.186,21.42-1.938-16.529-4.844-32.952-7.247-49.446-1.977,14.031-2.287,28.383-7.752,41.985-1.434-6.605-2.674-13.174-4.069-19.743-2.131,8.568-3.488,17.244-5.077,25.883-1.744-13.923-2.054-27.954-2.713-41.913-.736,4.106-1.55,8.1-2.209,12.246-.426-16.851.232-33.809-3.217-50.518-.542,13.924-.581,27.847-.814,41.807-1.356-3.571-2.635-7.141-3.875-10.925-.465,7.14-.892,13.959-1.357,20.921-.5-2.178-1.55-6.533-2.054-8.711-1.317,2.856-2.558,5.712-3.875,8.6-.31-8.176-.776-16.387-1.086-24.563-.658,8.64-1.278,17.244-1.9,25.884-.542-11.1-.968-22.242-1.589-33.345-.7,5.748-1.278,11.46-1.9,17.208-.426-9-.775-17.851-1.162-27.026-1.2,9.389-2.093,18.779-3.3,28.168-1.356-7.711-2.674-15.423-4.146-23.1-.388,12.281-.659,24.6-1.241,36.879-.659-13.21-.969-26.419-1.511-39.593-.62,3.57-1.512,7.14-2.016,11-.968-7.783-1.9-15.6-3.1-23.42a204.476,204.476,0,0,1-5.581,38.343c-4.069-10.71-3.875-22.134-4.418-33.273-.581,3.356-1.7,10.068-2.248,13.423-1.124-29.667.775-59.406-1.473-89.074-1.55,28.882.349,57.8-1.356,86.682-.814-5.747-1.55-11.531-2.287-17.243-.5,19.992-.31,39.985-.232,59.978h-1.822c0-27.062.62-54.088-.5-81.113-1.356,15.244-2.519,30.524-3.875,45.769-1.473-18.565-2.326-37.13-3.411-55.694-.891,21.67-.62,43.341-.5,65.012h-1.627c0-14.674-.272-29.311-1.2-43.949-1.008,33.845-.194,67.833-2.868,101.535-.542-2.142-1.7-6.355-2.248-8.5-1.589,8.211-3.061,16.387-4.573,24.562-1.124-7.14-2.209-13.923-3.449-20.921q-1.938,9.212-3.6,18.422c-1.706-8.961-3.411-17.851-5.194-26.847-.62,7.354-1.24,14.709-1.976,22.1-1.667-7.14-2.868-14-4.419-20.992-.775,7.818-1.434,15.6-2.209,23.42-1.317-6.212-2.325-12.46-3.41-18.636-1.434,5.319-2.752,10.71-4.419,15.994-1.472-7.712-2.519-15.423-3.643-23.1-.852,8.961-1.589,17.851-2.79,26.919-.969-9.211-1.783-18.386-2.868-27.6-1.512,8.282-2.248,16.6-3.682,24.99-1.511-6.212-2.674-12.459-4.5-18.6-.775,3.57-2.364,11.282-3.139,15.066-1.473-9-2.4-17.851-3.178-27.061-1.356,11.924-2.442,23.848-3.682,35.7-2.868-15.53-1.938-31.239-4.457-46.805-.93,12.746-1.628,25.491-3.333,38.2-.93-7.605-1.821-15.173-2.829-22.742-.969,7.533-1.589,15.066-2.287,22.6-1.317-6.569-2.325-13.174-3.875-19.743-1.512,6.177-2.636,12.353-3.876,18.565-1.744-11.068-1.821-22.278-2.829-33.417-1.512,11.96-2.48,23.956-4.186,35.916-1.472-12.745-2.751-25.526-3.875-38.272-.892,8.211-1.861,16.458-3.062,24.7-1.55-5.248-2.868-10.71-3.876-15.815-1.356,6.5-3.216,12.959-4.883,19.457-.387-3.57-1.163-10.175-1.589-13.567-.969,5-1.9,9.961-2.829,14.959A256.609,256.609,0,0,1-619.9,291.82c-1.24,13.1-2.4,26.24-3.333,39.271-1.317-10.71-2.558-21.421-3.875-32.131-2.481,11.388-3.14,22.956-4.845,34.416a458.7,458.7,0,0,0-5-55.373c-.388,14.852-.659,29.7-1.706,44.555-3.061-13.5-2.286-27.311-3.371-40.913-.582,14.28-.659,28.775-1.124,43.2-2.055-12.317-3.45-24.705-5.388-37.022-1.472,9-2.48,17.851-3.449,27.061-.62-14.744-1.705-29.524-3.449-44.233-.62,19.314-.543,38.628-1.124,57.943a320.37,320.37,0,0,0-5.581-35.7c-2.093,13.1-2.481,26.311-3.256,39.485-.775-22.277-1.744-44.555-3.41-66.8-.814,21.421-.426,42.842-1.2,64.262-4.96-27.454,0-55.408-7.363-82.648-.388,17.244-.427,34.523-1.395,51.767-1.124-24.741-1.938-49.518-3.3-74.259-1.046,21.028-.62,42.056-1.55,63.084a655.455,655.455,0,0,1-5.31-66.832c-.7,17.279-.387,34.737-5.115,51.766-1.279-27.6.465-55.194-1.667-82.755-1.705,30.953.7,61.942-1.55,92.823-1.55-18.529-1.628-37.2-4.883-55.658-.814,16.173-.853,32.381-2.442,48.554-6.9-31.632-1.24-63.834-4.535-95.68-1.976,30.061,1.706,60.264-3.255,90.217-.5-6.926-1.008-13.887-1.55-20.814-.543,4.927-1.085,9.818-1.589,14.709-.465-3.356-1.434-10.032-1.938-13.388-.62,4.07-1.279,8.1-1.822,12.21-.542-7.39-1.085-14.816-1.666-22.17-.5,15.637-.659,31.31-1.279,46.983-.969-13.6-1.86-27.2-3.643-40.771-.581,14.851-.7,29.667-1.047,44.483q-2.325-4.176-4.534-8.354c0,5.177,0,10.389-.194,15.6l-3.1-6.855c-.388,7.712-.737,15.423-1.2,23.17-.542-15.28-.775-30.56-1.666-45.8-1.163,22.349.736,44.805-2.868,67.047-1.085-1.821-3.256-5.5-4.38-7.141,0,2.392-.5,7.141-.659,9.5-1.162-7.39-2.17-14.745-3.526-22.1-.775,6.14-1.318,12.245-1.938,18.386-.93-4.855-1.86-9.675-2.752-14.53-.853,1.927-1.744,3.82-2.6,5.747-.891-9.746-1.472-19.528-3.023-29.239-.813,7.39-1.627,14.78-2.557,22.171-1.318-8.247-1.9-16.566-2.791-24.991-.31,11.531-.736,23.027-1.2,34.523l-1.861-25.848c-.62,5.32-1.2,10.71-1.821,15.994-.271-3.57-.62-7.14-.814-10.71-1.977,4.07-3.876,8.175-6.046,12.174-.5-13.674-.736-27.347-1.318-41.021-1.9,13.6-2.868,27.24-3.527,40.878a267.884,267.884,0,0,1-2.635-36.879l-2.635,6.854a275.616,275.616,0,0,0-2.868-31.845c-.969,14-1.124,27.99-1.589,41.985-1.395-10.711-2.636-21.243-3.876-31.846-.387,8.961-.853,17.851-1.318,26.919-.542-10.71-1.317-21.421-1.821-32.131-.62,11.139-1.163,22.242-1.86,33.38-.582-16.1-.659-32.131-1.551-48.268-.232,5.5-.387,11-.5,16.494l-3.682-2.142q-.427,10.71-.969,21.421c-.62-12.388-.892-24.741-1.589-37.129-.62,13.638-.93,27.24-1.667,40.842-.581-13.6-.814-27.169-1.589-40.771-.387,10.5-.775,20.992-.969,31.524h-1.24c-.31-10.5-.659-20.992-1.2-31.524-.465,11.567-1.124,23.063-1.628,34.6-.426-10.5-.814-20.993-.969-31.525h-1.24c-.31,10.5-.7,20.993-1.24,31.525-.582-11.532-.853-23.063-1.241-34.595a211.361,211.361,0,0,1-4.96,28.561c-1.008-12.817-1.589-25.6-2.171-38.414-.542,13.209-.969,26.383-1.666,39.592-.659-11.567-1.008-23.1-1.744-34.63-.582,11.532-.814,23.1-1.357,34.63-.581-3.213-1.124-6.39-1.666-9.6-.388,1.428-.737,2.856-1.085,4.319l-6.86.679c0,8.532-.272,17.065-.465,25.633-1.395-6.5-2.713-12.959-3.876-19.457-.5,6.89-1.046,13.816-1.55,20.707-.543-11.924-.736-23.849-1.279-35.7a473.075,473.075,0,0,0-3.294,54.623c-.813-9.14-1.627-18.244-2.635-27.312-1.24,7.819-2.015,15.673-2.984,23.527a423.9,423.9,0,0,0-3.178-51.945c-.543,17.851-.5,35.7-1.55,53.266-.814-19.814-.465-39.628-1.667-59.407-5.038,22.92-1.046,46.412-3.023,69.332-.852-5.319-1.666-10.71-2.48-16.03q-1.745,14.781-2.907,29.561c-.62-18.957-1.2-37.951-3.217-56.908-.736,7.426-1.4,14.816-2.093,22.242-1.007-26.812.543-53.552-1.472-80.435-.775,31.846-1.163,63.727-3.45,95.572-2.247-4.819-3.875-9.746-5.774-14.673.232,6.5.5,13.031.736,19.564l-5.232-1.856c-.736,4.284-1.434,8.568-2.209,12.817l-2.829-7.141c-1.279,5.248-2.287,10.5-3.178,15.78-.969-8.6-1.822-17.172-3.023-25.776-.465,4.927-1.357,14.745-1.822,19.671-.891-11.888-1.705-23.812-3.449-35.7-.581,9.818-1.008,19.636-1.589,29.489-.62-9.532-1.047-19.028-1.744-28.561-3.876,8.89-6.976,17.851-10.271,26.848-1.24-1.714-2.441-3.57-3.643-5.177l-.7,5.248c-1.667-6.5-3.294-13-5.155-19.457-.814,4.141-1.55,8.211-2.286,12.353-.427-5.713-.737-11.46-1.086-17.173l-1.55,8.426c-1.627-4.5-3.178-9-4.883-13.46-.543,3.571-1.7,10.175-2.248,13.567-.5-3.57-1.434-10.175-1.9-13.567-1.279,6.534-2.132,13.1-3.139,19.672-1.008-5.32-2.015-10.711-3.139-15.887-.543,4.927-1.589,14.78-2.132,19.707-.426-8.211-.7-16.387-1.046-24.563-1.667,12.71-3.876,25.42-5.426,38.129-.93-8.6-1.706-17.208-3.1-25.776-.775,7.783-1.317,15.53-1.938,23.349-.968-9.925-1.705-19.815-3.139-29.668-.775,9.461-1.317,18.957-2.015,28.561-.581-12.781-1.008-25.6-2.481-38.379q-1.356,12.96-2.519,25.991a327.51,327.51,0,0,0-3.333-37.2c-.62,13.1-.891,26.205-1.395,39.271q-2.247-20.279-3.876-40.663c-.5,16.886-.62,33.773-1.472,50.624-2.907-19.707-2.287-39.557-3.566-59.371-.814,16.279-.62,32.595-.581,48.875h-3.294c0-16.744,0-33.452-1.086-49.982-1.007,20.564.465,41.271-3.333,61.727-.891-21.42-.271-42.841-1.744-64.262-.93,20.6-.271,41.271-1.511,61.906-3.372-26.347-1.783-52.838-3.372-79.257-1.046,26.419-1.085,52.874-3.643,79.221-.7-20.635,0-41.27-1.55-61.9-.775,15.887-.659,31.809-.62,47.7h-3.411c0-22.92.581-45.84-.969-68.76-.93,21.92,0,43.877-1.938,65.8a305.531,305.531,0,0,1-3.023-38.486c-.5,13.674-.93,27.347-2.674,40.95-2.364-24.991-1.279-49.982-1.279-74.973h-1.9c0,20.814.427,41.663-.736,62.513-4.263-24.241-1.589-48.732-3.411-73.045-1.007,20.243-.542,40.557-3.643,60.692-1.356-28.561.543-57.122-1.55-85.469-1.008,28.561-1.279,57.122-3.488,85.433-.7-20.242-.271-40.485-1.434-60.692-2.015,16.887-2.558,33.845-3.527,50.8-.62-17.85-.62-35.451-1.2-53.159q-2.17,19.707-3.876,39.271c-.736-20.849-.62-41.663-.465-62.477h-1.822c0,19.529,1.4,39.272-2.829,58.622-1.124-24.705.194-49.411-1.24-74.116-2.6,18.922-2.713,37.95-3.682,57.122-.852-21.885-.271-43.77-1.472-65.655-2.791,31.953-2.675,64.013-2.4,96h-1.861c-.775-29.846,2.6-59.871-2.6-89.61-1.744,31.738.62,63.477-1.706,95.179-.658-18.172-.193-36.415-2.984-54.515-1.9,25.562-.232,51.231-1.938,76.829-2.054-35.916.582-71.867-1.589-107.782-5.232,31.238-.658,62.8-3.488,94.144-.736-19.814,0-39.736-2.829-59.478-2.907,31.774.271,63.655-2.286,95.429-2.481-45.2,1.9-90.5-2.326-135.665a214.709,214.709,0,0,0-1.938,27.24c.465,41.307.233,82.613.349,123.884h-1.86c-.31-33.274,1.744-66.583-2.6-99.75-.775,19.386-1.085,38.843-3.41,58.193-.659-9.889-1.008-19.778-1.706-29.632-2.286,23.42,3.372,47.626-4.844,70.617-.659-9.5-1.124-19.028-1.628-28.561l-1.046,14.638c-1.008-1.928-2.016-3.82-3.062-5.748v11.888l-3.256-4.355c-.542,2.463-1.55,7.354-2.092,9.818-.892-3.57-1.667-7.426-2.481-11.032-1.55,4-3.1,7.961-4.689,11.96l-8.488-2.428c-2.325,3.57-4.767,7.141-7.4,10.925l-5.194-14.281-2.6-.428a84.176,84.176,0,0,0-14.766,13.781l-5.93.535a6.2,6.2,0,0,0,.388,1.392h7.208c.427,3.356,1.24,10.068,1.667,13.424a67.765,67.765,0,0,0,8.371-13.352c2.364,4.284,4.806,8.532,7.364,12.71l4.34-7.141c.931,4.356,1.822,8.747,2.791,13.1l2.79-5.605c.272,2.07.814,6.247,1.124,8.318.93-4.177,1.822-8.354,2.984-12.5,2.364-2.391,4.5-5.033,6.589-7.532,1.589,4.712,2.829,9.817,8.294,12.959.387,1.642,1.2,4.963,1.589,6.64l3.178-4.034c.232,7.712.465,15.423.775,23.1q.852-10.425,1.783-20.957c.5,4.891.969,9.782,1.472,14.674.582-3.321,1.783-10,2.365-13.353.348,12.139.271,24.277.348,36.416h1.512c0-14.638.232-29.275,1.007-43.913,3.14,31.417,1.086,62.977,4.225,94.394,2.907-20.671,1.046-41.485,2.558-62.191,1.279,22.277-.814,44.7,3.061,66.9,2.365-28.561-.232-57.122,2.016-85.683,2.015,32.131-1.124,64.583,2.17,96.821,4.806-31.31-.349-62.941,2.946-94.322,1.937,49.517-.853,99.071,1.395,148.588,6.511-47.3-.31-95,3.565-142.412,3.178,43.663-3.216,87.611,3.566,131.131,1.666-40.807-1.046-81.685,1.511-122.456,1.706,32.132-.465,63.941,1.4,95.894,1.472,24.17.232,48.411,1.976,72.58,2.171-57.371-1.2-114.815,1.7-172.186,1.589,28.56-.387,57.336,1.357,85.968,1.666,26.24,0,52.552,1.86,78.793,2.326-50.375-1.007-100.785,1.783-151.124,3.333,52.017,1.279,104.069,3.256,156.086,2.17-48.3-.659-96.607,1.472-144.875,6.24,38.2,0,76.793,3.876,115.136,1.9-43.341-.814-86.754,1.395-130.06,5.116,55.659.659,111.495,3.488,167.225,2.4-52.481-1.124-105,1.86-157.442,5.659,29.953,0,60.406,3.178,90.538,1.822-29.775-.5-59.55,1.783-89.253a110.483,110.483,0,0,1,2.519,29.2c0,24.991-.93,49.982.737,74.973,2.325-32.131-1.434-64.012,2.441-95.893,1.4,6.283,2.016,12.6,2.946,18.993.542-7.819,1.046-15.638,1.705-23.456,2.868,20.385,2.132,40.913,2.015,61.335h1.667c-.349-32.132,1.163-63.977,2.868-95.965.62,16.494.581,32.988,1.589,49.482a350.179,350.179,0,0,1,2.674-44.52c1.938,23.92.349,47.911,2.209,71.867,1.047-22.706,0-45.412,1.473-68.083a312.712,312.712,0,0,0,3.682,39.272c.5-16.03.542-32.131,1.318-48.09,1.511,14.781,2.635,29.632,3.139,44.448,1.124-9.782,2.17-19.564,3.875-29.346q.854,10.389,1.667,20.778c.93-11.067,1.55-22.135,3.372-33.166.62,11.031,1.007,22.1,1.705,33.166.659-9.889.969-19.778,1.628-29.632.62,7.354,1.085,14.745,1.7,22.135,1.085-9.39,2.132-18.779,2.984-28.169,1.2,6.5,2.326,13.031,3.6,19.529.582-7.14,1.086-14,1.667-20.957l1.511,9.64c1.124-5.712,2.171-11.389,3.372-17.1.775,12.817,1.2,25.6,2.016,38.414a344.549,344.549,0,0,0,3.333-38.378c.5,9.068.93,18.1,1.434,27.168.891-9.246,1.782-18.493,2.945-27.668,1.744,14.28,1.589,28.311,1.938,42.484,1.046-12.745,2.054-25.49,3.565-38.2q.814,12.888,1.589,25.848c1.124-7.141,2.054-13.924,3.45-20.85.658,11.067,1.085,22.171,1.666,33.238.853-9.889,1.7-19.779,3.062-29.632.852,9.461,1.589,18.957,2.441,28.561a190.627,190.627,0,0,0,2.985-29.632c.969,7.14,1.976,13.923,3.255,20.849.7-9.853,1.124-19.707,1.667-29.56,1.162,7.354,1.976,14.78,3.488,22.134.814-10.281,1.046-20.563,1.627-30.81a302.767,302.767,0,0,0,3.334,33.345c.968-12.352,1.123-24.741,1.705-37.093.969,15.673,2.093,31.345,3.6,46.983.581-11.96.853-23.92,1.512-35.7,1.744,14.031,2.751,28.061,3.488,42.092a405.132,405.132,0,0,1,2.713-44.412c.891,9,1.589,17.85,2.325,27.026a274.256,274.256,0,0,1,3.372-38.129c.426,9.817.93,19.635,1.279,29.417q1.278-13.173,2.868-26.311c1.007,5.855,1.666,11.745,2.48,17.636,1.163-3.57,2.287-7.14,3.488-10.71.426,4.855.814,9.746,1.24,14.637.582-2.142,1.783-6.39,2.326-8.5,2.248,6.5,4.379,13.031,6.588,19.565,1.473-9.818,2.442-19.672,3.217-29.49.5,5.284.93,10.711,1.395,15.923,1.008-7.783,1.86-15.566,3.1-23.313.736,6.962,1.511,13.924,2.209,20.921,1.356-8.568,2.48-17.172,3.527-25.74.852,19.35,2.364,38.7,4.418,58.014s.891,38.807,2.209,58.193a426.1,426.1,0,0,1,8.022-85.469c.7,4.106,1.279,8.1,1.977,12.246.543-6.534,1.124-13.1,1.744-19.636.659,15.673,1.512,31.31,3.256,46.911.658-16.886.736-33.773,1.4-50.66,5.736,24.991,6.278,50.268,7.015,75.509a242.253,242.253,0,0,1,4.534-44.484c.7,8.6,1.279,17.172,1.822,25.812.891-9.854,1.86-19.672,3.333-29.489.969,15.208,1.2,30.453,1.9,45.661,1.976-16.851,2.829-33.773,3.682-50.7.542,18.136.542,36.308,1.433,54.444.814-10.5,1.357-20.992,2.558-31.417,1.163,7.533,1.706,15.066,2.6,22.635,1.279-6.5,2.4-13.031,3.643-19.529.31,18.957.194,37.915,1.395,56.836,1.163-23.955,0-47.946,1.512-71.9a208.179,208.179,0,0,1,5.154,26.955c.5-2.035,1.551-6.034,2.055-8.069.348,3.57,1.046,10.925,1.356,14.566.659-11.531,1.318-23.063,2.519-34.559.891,6.534,1.667,13.067,2.481,19.636.465-4.927,1.395-14.745,1.9-19.636.5,10.282.813,20.564,1.317,30.846,1.2-15.28,3.062-30.489,5.31-45.7,1.744,11.067,2.713,22.206,4.457,33.273a141.306,141.306,0,0,0,5.464-31.952l3.372,15.6c.969-8.533,1.628-17.065,3.062-25.562.736,7.354,1.356,14.745,2.093,22.135.542-9.5.93-18.958,1.55-28.561.581,7.39,1.124,14.816,1.744,22.242,1.395-4.856,2.6-9.711,3.876-14.566,1.317,13.066,2.131,26.2,3.139,39.271.5-15.709.465-31.417,2.4-47.054.542,4.962,1.666,14.816,2.209,19.742a212.093,212.093,0,0,1,8.681-25.847c1.667,5.248,3.294,10.532,4.922,15.815,1.085-4.819,2.132-9.639,3.333-14.28,1.318,4.355,2.442,8.675,3.605,13.1,0-1.678.465-5,.581-6.64l4.767,3.57c1.046-3.82,2.093-7.676,3.217-11.46,1.666,9.818,2.247,19.671,3.216,29.525.543-9.89,1.008-19.743,1.706-29.6.581,16.459.5,32.917,1.317,49.411,1.783-10.282,3.023-20.6,5-30.846,3.217,19.279,2.48,38.772,3.449,58.157a441.22,441.22,0,0,1,3.411-49.482c4.573,29.989,1.24,60.228,3.023,90.289,4.689-26.669,1.589-53.552,3.875-80.4,1.2,19.171,1.783,38.378,4.38,57.479,1.356-10.032,1.511-20.1,2.093-30.132.5,2.106,1.55,6.319,2.054,8.425.659-3.57,1.046-7.39,1.782-10.71.543,5.712,1.008,11.389,1.512,17.137.7-9.533,1.356-19.029,2.248-28.561,2.248,18.136,1.86,36.379,2.635,54.587.659-13.174,1.085-26.383,1.667-39.557,1.356,12.745,2.867,25.526,5.309,38.164a570.916,570.916,0,0,1,5.155-75.365c.62,21.885,0,43.77,1.356,65.619,1.163-13.709-1.24-28.2,6.55-41.056.7,8.711,1.356,17.422,1.9,26.133,2.442-17.244,2.519-34.63,3.488-51.945.581,15.708.659,31.381,1.124,47.054.7-3.249,1.434-6.5,2.093-9.711.542,3.32,1.55,10,2.054,13.352.736-25.562-.271-51.16,1.163-76.686a480.962,480.962,0,0,0,5.038,55.694c1.046-14.281.969-28.847,1.473-43.234,1.007,11.46,1.782,22.956,3.875,34.344,1.744-17.672,2.442-35.38,3.411-53.052,2.17,16.887,2.519,33.881,3.565,50.8,1.473-9.853,2.326-19.778,3.411-29.632,2.131,15.994,3.139,32.131,4.883,48.125,1.008-24.99-.7-50.374,3.139-75.4.969,21.028.543,42.056,1.706,63.084.426-11.067.7-22.1.93-33.166L-633.7,397c.465-5.605.853-11.246,1.357-16.851,1.279,6.891,2.325,13.781,3.449,20.707.659-9.425,1.318-18.85,2.481-28.24q1.2,13,2.325,25.955c2.209-13.138,3.876-26.312,5.154-39.521.543,15.637,1.163,31.31,3.1,46.876,1.356-14.781,2.48-29.6,3.566-44.413.891,11.96,1.434,23.991,3.333,35.7,1.085-14.28,2.054-28.882,3.41-43.305.736,13.531,1.008,27.1,3.139,40.592.93-8.211,1.861-16.422,3.1-24.6a121.48,121.48,0,0,1,3.875,17.208c.853-7.14,1.628-13.923,2.946-20.849,1.356,8.211,2.442,16.422,3.527,24.633,1.007-7.711,2.054-15.458,3.371-23.134.776,5.676,1.589,11.353,2.481,17.065,2.131-8.6,3.6-17.279,4.961-25.955.852,7.391,1.55,14.781,2.286,22.171,2.093-3.927,3.876-7.926,6.007-11.889.543,4.07,1.047,8,1.745,12.1,1.666-9.1,3.41-18.208,4.728-27.347.271,12.031.7,24.062,1.55,36.094a222.056,222.056,0,0,0,5.426-24.991c1.2,3.57,2.325,7.14,3.565,10.71,1.086-7.14,1.783-14.673,2.636-22.027,1.008,9.46,2.015,18.921,3.255,28.346.969-7.818,1.861-15.637,3.023-23.455,1.124,4.891,2.171,9.818,3.295,14.709,1.24-3.213,2.519-6.462,3.875-9.675,1.473,4.391,2.674,8.818,3.876,13.245,1.666-7.64,3.178-15.28,4.689-22.92.737,5.747,1.434,11.5,2.209,17.279a176.417,176.417,0,0,0,4.574-19.779c.7,7.141,1.434,14.638,2.441,21.957,1.473-4.427,2.713-8.854,3.876-13.281,1.162,5.284,2.248,10.71,3.875,15.816,1.357-6.105,2.171-12.246,3.217-18.351,1.744,12.638,3.876,25.241,6.279,37.843,1.821,19.279.891,38.629.891,57.979h1.628c0-14.637.271-29.275,1.124-43.912.659,14,.891,28.061,1.821,42.056a415.834,415.834,0,0,1,2.713-51.946c1.744,18.065,2.791,36.166,3.3,54.3,1.24-8.961,2.286-17.851,3.875-26.847.737,17.279.388,34.63,3.333,51.838.853-25.634,1.667-51.2,3.256-76.794.814,18.958.659,37.915,1.473,56.873.5-10.711,1.278-21.421,1.744-32.132.387,4.963,1.24,14.816,1.666,19.743.659-3.249,1.318-6.5,2.015-9.746.814,8.425,1.667,16.779,2.791,25.2,2.093-7.926,2.751-15.994,3.875-23.956.621,4.07,1.008,8.033,1.628,12.174.465-7.39.853-14.78,1.279-22.134q1.047,12.924,2.132,25.847c.542-14.28.62-28.846,1.356-43.27.349,3.856.5,7.641.814,11.532l3.372-2.142a253.84,253.84,0,0,0,2.209,36.344c.969-13.638,1.434-27.312,2.635-40.95,2.054,10.711,2.093,21.421,3.062,32.132.5-18.565,1.163-37.165,3.217-55.659,1.395,6.07,2.441,12.174,3.643,18.279,0-2.392.232-7.14.349-9.532.581,1,1.782,3,2.4,3.963,2.248-5.07,4.457-10.175,6.667-15.244,3.875,16.351,2.674,33.023,3.643,49.553,1.55-7.355,2.519-14.78,3.875-22.135.465,7.783.853,15.566,1.395,23.384,2.636-20.242,2.016-40.663,6.356-60.692,2.481,9.033,3.876,18.208,5.581,27.312,3.333-9,5.5-18.172,8.062-27.276.891,13.209,1.55,26.455,3.255,39.628a381.172,381.172,0,0,0,7.209-54.444,290.555,290.555,0,0,1,3.6,31.667l3.876-.25a162.485,162.485,0,0,1,3.876-16.958c5.891,15.673,2.751,32.131,5.774,48.018,1.512,9.283,3.1,18.529,3.876,27.883.387-14.852.659-29.668,1.55-44.448.775,21.028,1.046,42.092,3.372,63.084,1.279-24.991-.388-50.374,1.783-75.508,3.333,15.958,2.015,32.131,3.216,48.268,1.589-9,2.442-18.065,3.682-27.1.62,24.991-.387,50.3,1.4,75.472,1.551-28.561-.387-57.122,1.357-85.433,2.635,32.131,2.054,64.262,3.643,96.572,1.938-42.485-.7-85.04,1.356-127.525,4.651,44.52.969,89.253,3.876,133.7,1.938-45.376-.891-90.859,1.473-136.236,1.666,32.131,2.015,64.263,3.488,96.608,1.628-24.991-1.24-50.482,3.023-75.508,2.829,42.056-.814,84.219,2.093,126.311,2.558-35.916-2.442-71.974,2.906-107.782,2.171,29.917.62,59.871,1.008,89.788h1.9c-.852-41.128.814-82.113,2.636-123.276,1.511,48.518.193,97.072.581,145.59h1.628c.93-40.664,1.55-81.364,2.829-122.027,1.821,34.666-.62,69.367,1.473,104.033,6.394-51.053-.388-102.427,3.565-153.515,2.054,49.125-.969,98.285,1.589,147.41,4.69-43.7.659-87.539,3.333-131.273,2.248,42.092-.93,84.219,1.783,126.311,2.907-12.067,2.325-24.349,2.519-36.523q-.348-40.27-.232-80.542h1.55a312.084,312.084,0,0,0,2.248,53.8c1.782-23.491.581-47.054,2.131-70.545,2.248,38.45-1.356,76.936,2.132,115.35,4.34-33.809,0-67.832,2.79-101.713.969,20.636.737,41.342,3.566,61.906.775-21.42.271-42.841,1.473-64.262,1.124,20.6,2.054,41.235,3.41,61.835,1.124-23.1.388-46.233,1.512-69.332,1.317,10.282,2.364,20.6,3.565,30.881.5-10.71.969-21.42,1.589-32.131,1.473,15.638,2.519,31.31,3.566,46.983.581-11.96.814-23.92,1.395-35.7.93,13.923,1.86,27.918,3.527,41.842.5-6.926.969-13.817,1.473-20.743l2.635,19.815c1.9-14.281,1.86-28.918,2.6-43.413a342.944,342.944,0,0,0,3.023,38.129c.736-7.783,1.162-15.566,1.666-23.349,1.046,5.677,2.093,11.389,3.256,17.1,1.4-2.785,2.751-5.569,4.147-8.318.7,8.532,1.278,17.1,2.364,25.669.271-3.142.852-9.354,1.162-12.46l3.217,1.464c.581-1.535,1.2-3.106,1.821-4.641.427,7.14.776,14.566,1.241,21.885,1.356-9.854,2.4-19.779,3.527-29.668.93,4.784,1.7,9.568,2.441,14.28l3.488-4.105c.93,6,1.4,12.031,2.132,18.065.891-3.321,1.782-6.641,2.713-9.961,1.124,3.57,1.821,7.14,3.023,11.1,0-6.1.193-12.21.31-18.279l2.868,5.784c1.24-8.105,2.054-16.28,3.1-24.384.62,6.14,1.124,12.209,1.822,18.35,1.589-7.711,2.364-15.494,3.333-23.241.426,8.6.891,17.243,1.434,25.847q1.743-20.992,3.139-42.02c1.085,6.14,2.015,12.281,3.178,18.422.93-5.355,1.9-10.711,2.829-16.066,1.473,8.6,1.9,17.315,2.79,25.991.427-9.033.814-18.065,1.279-27.062,1.628,9.818,2.83,19.671,3.876,29.525.465-9.854.62-19.707,1.124-29.525,1.395,8.961,2.635,17.851,3.876,26.99.387-12.745.658-25.455,1.278-38.2q2.249,15.387,3.876,30.846c.426-11.139.775-22.242,1.279-33.345,1.008,8.211,1.86,16.422,3.139,24.634.775-9.068,1.434-18.1,2.132-27.133,1.085,10.246,2.17,20.492,3.6,30.7.465-9.818.775-19.636,1.318-29.454,1.162,9.818,2.17,19.636,3.527,29.454.5-9,.968-17.851,1.511-26.955,1.24,9,2.209,17.851,3.372,27.026q.969-9.818,2.131-19.6c1.241,7.14,1.977,14.638,2.868,21.992.892-3.32,2.364-6.426,3.45-9.675,0,3.356.659,10.1.891,13.5,1.046-1.928,2.093-3.856,3.217-5.783,0,3.57-.31,10.317-.388,13.745l3.876-2.035c.194,3.57.426,6.819.7,10.246.931-5.462,1.744-10.96,2.791-16.423.775,5.355,1.2,10.711,1.628,16.137,1.046-1.428,2.131-2.82,3.216-4.213q-.619,40.058,2.6,80.078c.853-21.028.388-42.056,1.744-63.084,1.318,24.741,0,49.518,1.357,74.259,2.093-28.026,2.17-56.123,3.875-84.148,1.4,46.84,0,93.716.543,140.591h1.628c0-35.915,2.635-71.8,1.744-107.746h1.589c.465,37.344-1.163,74.758.93,112.1,1.085-36.737.581-73.509,3.411-110.245,1.472,39.842.232,79.685.581,119.563h1.822c0-20.814-.349-41.7.7-62.513.775,5.748,1.318,11.46,2.015,17.208.776-10.246,1.357-20.528,2.481-30.774,1.2,8.568,2.325,17.208,3.6,25.847q1.2-9.854,2.326-19.6c.658,16.637.62,33.345.542,49.982h1.628c-.233-27.883,1.124-55.729,2.752-83.576.659,17.315.7,34.665,1.55,52.016,4.922-30.881.814-61.977,3.41-92.823,1.628,31.6.388,63.191.7,94.751h1.783c-.543-37.379,1.046-74.723,2.713-112.1,1.589,30.132-.582,60.3,1.628,90.431.968-38.807.736-77.614,3.178-116.385.891,16.851.968,33.737,1.472,50.624,1.551-14.816,2.713-29.632,3.682-44.448.659,9.5,1.279,18.993,2.171,28.561a240.5,240.5,0,0,0,2.364-33.345l2.015,7.14c.853-2.785,1.744-5.569,2.6-8.318,1.162,9,1.821,17.85,2.751,27.026,1.279-9.854,2.287-19.743,3.411-29.6.5,8.176.775,16.387,1.279,24.6.969-8.568,1.744-17.172,3.1-25.74.31,2,.93,6,1.279,8.033q2.171-3.571,4.535-6.855c.387,9.425.7,18.886,1.162,28.311A254.6,254.6,0,0,0-51.7,368.72c.93,8.64,1.822,17.315,3.062,25.955,1.822-3.285,2.946-6.819,5-9.961a126.826,126.826,0,0,1,3.526,23.42c.466-3.356,1.357-10.068,1.822-13.424.388,5.32.62,10.711.969,15.959.659-1.928,1.318-3.891,1.977-5.784,1.278,3.57,2.6,7.141,3.875,10.711.233-5.641.349-11.318.581-16.958a52.293,52.293,0,0,0,8.721,17.315,108.1,108.1,0,0,0,4.147-12.389q1.278,9.64,2.945,19.208.852-10.389,1.667-20.707c.62,12.745,1.007,25.526,1.705,38.272,1.24-11.068,2.248-22.207,3.217-33.31.62,4.963,1.821,14.816,2.441,19.779,1.434-8.247,2.17-16.53,3.217-24.777,2.015,16.03,2.054,32.131,3.062,48.2.581-16.1.62-32.131,1.356-48.268.465,3.57.388,7.14.969,10.71l3.411-4.248c.348,38.271-1.4,76.615.968,114.851,2.287-43.913-2.4-88.04,4.186-131.845a241.161,241.161,0,0,1,1.667,28.561c-.465,47.483,0,95-.31,142.483h1.821c.388-55.943-1.046-111.887.659-167.795.62,10.71,1.357,21.42,1.977,32.131.581-11.567.969-23.1,1.782-34.63,1.4,28.561-.581,57.122,1.628,85.433.853-16.459.582-32.917.93-49.375.892,2.749,1.822,5.5,2.83,8.283,0-12.71.387-25.42.968-38.129.427,10.71,1.163,21.42,1.861,32.131,3.875-7.14,4.263-14.745,5.658-22.206.271,31.524,0,63.048,0,94.608h1.783c0-24.777,0-49.553-.233-74.33,0-14.281,0-28.561,4.884-42.52.658,24.241-.233,48.518.93,72.795,1.317-21.885,3.875-43.7,5.581-65.584A294.035,294.035,0,0,1,48.449,432.8c.7-10.711,1.628-21.421,2.713-32.131,1.279,9.924,1.861,19.849,2.6,29.774a324.349,324.349,0,0,1,4.612-39.485c1.046,12.317,1.55,24.669,3.876,36.915.93-15.637-.5-31.524,4.689-46.8.93,16.851.969,33.737,1.628,50.624.969-16.066,1.9-32.131,3.875-48.161.5,7.783.776,15.566,1.241,23.384.465-3.356,1.356-10.068,1.821-13.388.543,2.071,1.589,6.248,2.132,8.354.581-6.14,1.046-12.281,1.666-18.386,1.9,16.458,2.287,32.988,3.062,49.482a271.1,271.1,0,0,1,4.457-48.375c1.008,12.817,1.589,25.669,2.325,38.486,1.047-12.46,1.473-24.991,6.589-37.2.581,7.14,1.2,14.066,1.783,21.1.659-7.426,1.317-14.816,2.131-22.242,1.55,11.1,2.132,22.242,3.1,33.345.387-13.174.7-26.384,1.279-39.557.736,4.1,1.162,8.14,1.976,12.281.7-4.034,1.085-8.176,1.86-12.174.388,16.851.427,33.737,1.163,50.588,1.24-22.67,2.907-45.34,5.271-67.832q1.395,21.635,3.449,43.234A263.8,263.8,0,0,0,120.807,375c.5,2.142,1.473,6.355,1.938,8.461.62-3.213,1.2-6.461,1.783-9.675.62,4.106.852,8.105,1.511,12.246.775-3.57,1.008-7.462,2.015-11.032.349,9.033.62,18.065.969,27.062a93.513,93.513,0,0,1,5.659-23.563c2.674,9.354,2.093,18.957,2.674,28.561,1.4-9.1,1.434-18.529,5.7-27.24.969,1.821,2.907,5.5,3.876,7.354V370.326c1.744,5.284,3.488,10.711,5.425,15.816.853-3.57,2.481-11.174,3.295-14.887,1.279,10.317,1.589,20.635,2.286,30.988.737-12.816.814-25.74,4.729-38.307.736,9.461,1.278,18.922,1.86,28.561,1.783-9.818,3.876-19.6,5.348-29.418q1.047,10.71,2.209,21.1A112.244,112.244,0,0,0,177.2,369.22c-.193,2.963-.349,5.89-.465,8.854l3.876-2.142c.271,2.249.775,6.783,1.046,9.032.543-6.105.737-12.246,1.163-18.35,1.046,4.177,1.821,8.354,2.829,12.566a107.5,107.5,0,0,0,5.155-13.566c-.233,6.319-.427,12.638-.5,18.993.814-1.178,1.628-2.321,2.4-3.57l3.023,3.57c0-5.962.193-11.889.387-17.851.271,1.892.775,5.641,1.047,7.5l3.526-1.857c.233,3.356.5,6.748.775,10.139.543-6.5,1.086-13.031,1.59-19.528q1.239,9.96,2.48,19.992a110.128,110.128,0,0,0,5.271-12.281,378.135,378.135,0,0,0,3.565,59.157c1.163-14.852,1.512-29.739,2.093-44.591a454.338,454.338,0,0,1,5.31,66.762c.62-15.031.736-30.1.736-45.127h1.667c0,26.955-.233,53.945,0,80.935l3.371-6.891c0,17.244,0,34.488.931,51.7,3.875-33.738,1.356-67.832,3.139-101.5,1.783,18.137,2.868,36.237,3.449,54.409.7-7.14,1.4-14,2.17-20.957.465,20.207,0,40.414,1.4,60.692,1.007-24.741,1.821-49.517,3.023-74.258.7,4.855,1.4,9.746,2.131,14.637q.582-19.1,1.512-38.2c3.565,31.1,2.209,62.3,2.325,93.5h1.86c.892-30.346-3.139-60.977,3.876-91.038q1.162,14.282,2.132,28.561c.891-13.209,1.666-26.419,3.526-39.557.659,20.636,0,41.271,1.473,61.906.93-21.885.271-43.769,1.667-65.619.659,10.282.93,20.6,1.511,30.918,1.2-8.961,2.481-17.851,4.147-26.848l3.411,4.142a263.3,263.3,0,0,1,2.906-36.558c1.318,28.811-.736,57.693,1.551,86.5,1.666-32.988-.543-66.047,1.317-99.071,1.008,9.5,1.783,18.993,3.1,28.561.891-4.963,1.821-9.889,2.751-14.816,1.434,8.6,1.938,17.244,2.907,25.883.465-7.14.892-13.923,1.4-20.849,1.4,10.71,2.442,21.42,3.643,32.131a308.411,308.411,0,0,1,2.985-48.161c.852,11.888,1.007,23.813,1.511,35.7,5.736-12.174,5.93-24.991,6.9-37.879.31,1.392.581,2.821.93,4.249,2.364.249,4.728.428,7.054.714v8.068c2.17-6.212,4.379-12.424,7.092-18.529,1.473,4.463,2.674,8.961,3.876,13.495,0-2.035.426-6.1.542-8.14.931,1.928,1.861,3.82,2.83,5.712.31-2.07.968-6.247,1.317-8.354.349,3.214.776,6.427,1.163,9.675.426-1.713,1.24-5.176,1.666-6.89.659,1.678,1.977,5.034,2.675,6.712.271-5.212.62-10.461.969-15.673.62,4.891,1.279,9.818,1.937,14.745.5-4.07.659-8.212,1.279-12.246a184.5,184.5,0,0,1,7.248,40.735c0-10.71.969-21.42,1.085-32.131,1.124,16.887,3.1,33.774,5.5,50.624.5-11.174,1.047-22.313,2.016-33.452,3.41,20.957,1.473,42.164,2.6,63.227,1.086-11.1,2.171-22.242,3.566-33.309q1.706,12.852,3.217,25.741c1.085-9.068,2.015-18.065,3.875-27.062.93,19.172,0,38.45,4.186,57.443a230.584,230.584,0,0,0,3.643-44.947c.582,3.355,1.7,10.032,2.287,13.387.659-5.712,1.162-11.46,1.86-17.136.543,19.564.387,39.271.31,58.764h1.822c0-24.991-.465-49.982.542-74.972,1.589,15.208,3.876,30.417,5.426,45.626.194-21.885,3.333-43.627,5.271-65.441.543,15.1.775,30.239,1.977,45.341,1.007-1.321,2.054-2.606,3.1-3.927.581,1.749,1.2,3.57,1.86,5.284.233-9.818.62-19.6,1.008-29.383.5,10.711,1.318,21.421,1.9,32.132,2.4-17.851,2.48-35.452,3.256-53.195a349.075,349.075,0,0,0,3.643,39.628c3.216-18.493,1.9-37.165,3.139-55.73.465,9.89,1.124,19.743,1.628,29.632.271-10.71,1.279-21.42,1.705-32.131,1.434,25.17,0,50.375,1.628,75.544,3.643-24.062,2.325-48.3,2.4-72.438h1.667c0,22.564,0,45.234,4.418,67.583,1.047-19.386.736-38.807,3.256-58.157,4.3,20.671,1.007,41.663,4.418,62.405,3.682-28.561-.194-57.372,2.17-86,.62,10.71,1.318,21.421,1.9,32.131.7-7.818,1.241-15.637,1.938-23.456.5,19.815,0,39.629,1.55,59.407,3.179-18.814,1.667-37.879,4.845-56.693,3.876,27.061,1.395,54.337,3.411,81.506,1.55-27.669,0-55.337,1.511-82.97.736,5.712,1.163,11.424,1.822,17.172.581-8.6,1.123-17.208,1.782-25.776,1.861,25.883-1.666,52.017,3.411,77.757,1.2-21.6-.349-43.305,4.341-64.726,2.054,19.957,1.046,39.985,2.286,59.942.853-17.85.7-35.38.969-53.087.93,2.713,1.86,5.426,2.868,8.175q.5-10.353,1.279-20.671c.775,27.633,1.008,55.266,3.256,82.863.775-28.883,0-57.872,5.348-86.576,1.008,27.633-.5,55.3,1.434,82.9,1.085-30.131,3.139-60.228,5.038-90.359,1.938,25.99,1.977,52.016,3.411,78.007,1.318-24.1-.582-48.268,2.093-72.331,6.743,19.993,2.325,40.878,4.457,61.228,3.449-21.849,1.356-43.913,4.689-65.762,2.364,21.849,2.713,43.734,3.605,65.655,1.55-21.421,1.937-42.842,4.728-64.263,1.55,21.136.581,42.342,2.829,63.477,3.875-22.634,2.752-45.555,4.224-68.3,1.124,21.813,2.055,43.662,3.411,65.476.93-22.242,1.511-44.484,3.372-66.726.465,15.03.814,30.061,2.6,45.055,2.209-13.78,2.52-27.7,5.736-41.378.736,13.174,1.047,26.348,1.667,39.557,1.356-11.46,3.023-22.92,5.232-34.344.814,8.961,1.666,17.85,2.79,26.919a226.678,226.678,0,0,1,5.115-34.452c1.163,10.711,1.86,21.421,3.876,31.881.426-10.21.581-20.421.969-30.6,1.821,6.5,3.875,12.924,5.619,19.422.969-8.069,2.054-16.137,3.1-24.241A192.728,192.728,0,0,0,560.921,387c.465-10.71.776-21.421,1.241-32.131.658,3.57,1.279,6.819,1.937,10.211Z"/></g></g></g></svg>