{
  "asset": {
    "generator": "UnityGLTF",
    "version": "2.0"
  },
  "extensionsUsed": [
    "KHR_texture_transform"
  ],
  "scene": 0,
  "scenes": [
    {
      "nodes": [
        0
      ],
      "name": "AmmunationBox2 (4)"
    }
  ],
  "accessors": [
    {
      "bufferView": 0,
      "componentType": 5126,
      "count": 10895,
      "type": "VEC3",
      "max": [
        0.1987125426530838,
        0.31134229898452759,
        1.2580453157424927
      ],
      "min": [
        -0.19871215522289276,
        -0.31134214997291565,
        5.9604644775390625E-08
      ]
    },
    {
      "bufferView": 1,
      "componentType": 5126,
      "count": 10895,
      "type": "VEC3",
      "max": [
        1.0,
        1.0,
        1.0
      ],
      "min": [
        -1.0,
        -1.0,
        -1.0
      ]
    },
    {
      "bufferView": 2,
      "componentType": 5126,
      "count": 10895,
      "type": "VEC4",
      "max": [
        1.0,
        1.0,
        1.0,
        1.0
      ],
      "min": [
        -1.0,
        -1.0,
        -1.0,
        -1.0
      ]
    },
    {
      "bufferView": 3,
      "componentType": 5126,
      "count": 10895,
      "type": "VEC2",
      "max": [
        0.9990234375,
        0.9990234375
      ],
      "min": [
        0.000499725341796875,
        0.005588531494140625
      ]
    },
    {
      "bufferView": 4,
      "componentType": 5126,
      "count": 10895,
      "type": "VEC2",
      "max": [
        0.9990234375,
        0.9990234375
      ],
      "min": [
        0.000499725341796875,
        0.004009246826171875
      ]
    },
    {
      "bufferView": 5,
      "componentType": 5126,
      "count": 10895,
      "type": "VEC4",
      "max": [
        1.0,
        0.0,
        0.0,
        1.0
      ],
      "min": [
        1.0,
        0.0,
        0.0,
        1.0
      ]
    },
    {
      "bufferView": 6,
      "componentType": 5123,
      "count": 49650,
      "type": "SCALAR",
      "max": [
        10894.0
      ],
      "min": [
        0.0
      ]
    }
  ],
  "buffers": [
    {
      "uri": "AmmunationBox2 (4).bin",
      "byteLength": 883740
    }
  ],
  "bufferViews": [
    {
      "buffer": 0,
      "byteLength": 130740,
      "byteStride": 12,
      "target": 34962
    },
    {
      "buffer": 0,
      "byteOffset": 130740,
      "byteLength": 130740,
      "byteStride": 12,
      "target": 34962
    },
    {
      "buffer": 0,
      "byteOffset": 261480,
      "byteLength": 174320,
      "target": 34962
    },
    {
      "buffer": 0,
      "byteOffset": 435800,
      "byteLength": 87160,
      "target": 34962
    },
    {
      "buffer": 0,
      "byteOffset": 522960,
      "byteLength": 87160,
      "target": 34962
    },
    {
      "buffer": 0,
      "byteOffset": 610120,
      "byteLength": 174320,
      "target": 34962
    },
    {
      "buffer": 0,
      "byteOffset": 784440,
      "byteLength": 99300,
      "target": 34963
    }
  ],
  "images": [
    {
      "uri": "T_AmmunitionBoxes_Normal.jpg",
      "name": "T_AmmunitionBoxes_Normal"
    },
    {
      "uri": "T_AmmunitionBoxes_Occlusion.jpg",
      "name": "T_AmmunitionBoxes_Occlusion"
    },
    {
      "uri": "T_AmmunitionBoxes_BaseColor.jpg",
      "name": "T_AmmunitionBoxes_BaseColor"
    },
    {
      "uri": "T_AmmunitionBoxes_Metallic.jpg",
      "name": "T_AmmunitionBoxes_Metallic"
    }
  ],
  "materials": [
    {
      "pbrMetallicRoughness": {
        "baseColorFactor": [
          0.215860471,
          0.215860471,
          0.215860471,
          1.0
        ],
        "baseColorTexture": {
          "index": 2,
          "extensions": {
            "KHR_texture_transform": {
              "texCoord": 0
            }
          }
        },
        "metallicRoughnessTexture": {
          "index": 3,
          "extensions": {
            "KHR_texture_transform": {
              "texCoord": 0
            }
          }
        }
      },
      "normalTexture": {
        "index": 0,
        "extensions": {
          "KHR_texture_transform": {
            "texCoord": 0
          }
        }
      },
      "occlusionTexture": {
        "index": 1,
        "extensions": {
          "KHR_texture_transform": {
            "texCoord": 0
          }
        }
      },
      "name": "MI_AmmunitionBox"
    }
  ],
  "meshes": [
    {
      "primitives": [
        {
          "attributes": {
            "POSITION": 0,
            "NORMAL": 1,
            "TANGENT": 2,
            "TEXCOORD_0": 3,
            "TEXCOORD_1": 4,
            "COLOR_0": 5
          },
          "indices": 6,
          "material": 0
        }
      ],
      "name": "AmmunationBox2 (4)"
    }
  ],
  "nodes": [
    {
      "mesh": 0,
      "rotation": [
        -0.7071068,
        0.0,
        0.0,
        0.7071067
      ],
      "scale": [
        1.6364,
        1.6364,
        1.6364
      ],
      "translation": [
        -6.60303545,
        -2.62482929,
        -3.66338778
      ],
      "name": "AmmunationBox2 (4)"
    }
  ],
  "samplers": [
    {
      "minFilter": 9987
    }
  ],
  "textures": [
    {
      "sampler": 0,
      "source": 0,
      "name": "T_AmmunitionBoxes_Normal"
    },
    {
      "sampler": 0,
      "source": 1,
      "name": "T_AmmunitionBoxes_Occlusion"
    },
    {
      "sampler": 0,
      "source": 2,
      "name": "T_AmmunitionBoxes_BaseColor"
    },
    {
      "sampler": 0,
      "source": 3,
      "name": "T_AmmunitionBoxes_Metallic"
    }
  ]
}