{
	"asset":{
		"generator":"Khronos glTF Blender I/O v4.1.63",
		"version":"2.0"
	},
	"extensionsUsed":[
		"KHR_materials_specular"
	],
	"scene":0,
	"scenes":[
		{
			"name":"Scene",
			"nodes":[
				0
			]
		}
	],
	"nodes":[
		{
			"mesh":0,
			"name":"enemy_creature",
			"rotation":[
				0.7071068286895752,
				0,
				0,
				0.7071068286895752
			],
			"scale":[
				0.009999999776482582,
				0.009999999776482582,
				0.009999999776482582
			]
		}
	],
	"materials":[
		{
			"doubleSided":true,
			"emissiveFactor":[
				1,
				1,
				1
			],
			"emissiveTexture":{
				"index":0
			},
			"extensions":{
				"KHR_materials_specular":{
					"specularColorFactor":[
						2.0,
						2.0,
						2.0
					]
				}
			},
			"name":"m_creature",
			"normalTexture":{
				"index":1
			},
			"pbrMetallicRoughness":{
				"baseColorTexture":{
					"index":2
				},
				"metallicFactor":0,
				"roughnessFactor":0.5
			}
		}
	],
	"meshes":[
		{
			"name":"Mesh",
			"primitives":[
				{
					"attributes":{
						"POSITION":0,
						"NORMAL":1,
						"TEXCOORD_0":2
					},
					"indices":3,
					"material":0
				}
			]
		}
	],
	"textures":[
		{
			"sampler":0,
			"source":0
		},
		{
			"sampler":0,
			"source":1
		},
		{
			"sampler":0,
			"source":2
		}
	],
	"images":[
		{
			"mimeType":"image/png",
			"name":"enemigo_low_m_creature_enemy_Emissive",
			"uri":"enemigo_low_m_creature_enemy_Emissive.png"
		},
		{
			"mimeType":"image/png",
			"name":"enemigo_low_m_creature_enemy_Normal",
			"uri":"enemigo_low_m_creature_enemy_Normal.png"
		},
		{
			"mimeType":"image/png",
			"name":"enemigo_low_m_creature_enemy_BaseColor",
			"uri":"enemigo_low_m_creature_enemy_BaseColor.png"
		}
	],
	"accessors":[
		{
			"bufferView":0,
			"componentType":5126,
			"count":3166,
			"max":[
				260.599853515625,
				76.54336547851562,
				-31.355453491210938
			],
			"min":[
				-260.5978088378906,
				-40.88027572631836,
				-259.978515625
			],
			"type":"VEC3"
		},
		{
			"bufferView":1,
			"componentType":5126,
			"count":3166,
			"type":"VEC3"
		},
		{
			"bufferView":2,
			"componentType":5126,
			"count":3166,
			"type":"VEC2"
		},
		{
			"bufferView":3,
			"componentType":5123,
			"count":13788,
			"type":"SCALAR"
		}
	],
	"bufferViews":[
		{
			"buffer":0,
			"byteLength":37992,
			"byteOffset":0,
			"target":34962
		},
		{
			"buffer":0,
			"byteLength":37992,
			"byteOffset":37992,
			"target":34962
		},
		{
			"buffer":0,
			"byteLength":25328,
			"byteOffset":75984,
			"target":34962
		},
		{
			"buffer":0,
			"byteLength":27576,
			"byteOffset":101312,
			"target":34963
		}
	],
	"samplers":[
		{
			"magFilter":9729,
			"minFilter":9987
		}
	],
	"buffers":[
		{
			"byteLength":128888,
			"uri":"AN_CratureMelee.bin"
		}
	]
}
