{
  "asset": {
    "generator": "UnityGLTF",
    "version": "2.0"
  },
  "extensionsUsed": [
    "KHR_texture_transform"
  ],
  "scene": 0,
  "scenes": [
    {
      "nodes": [
        0
      ],
      "name": "Big_Door"
    }
  ],
  "accessors": [
    {
      "bufferView": 0,
      "componentType": 5126,
      "count": 5204,
      "type": "VEC3",
      "max": [
        2.7044899463653564,
        1.02914559841156,
        4.5031933784484863
      ],
      "min": [
        -2.6962199211120605,
        -1.0224813222885132,
        -0.034485433250665665
      ]
    },
    {
      "bufferView": 1,
      "componentType": 5126,
      "count": 5204,
      "type": "VEC3",
      "max": [
        1.0,
        1.0,
        1.0
      ],
      "min": [
        -1.0,
        -1.0,
        -1.0
      ]
    },
    {
      "bufferView": 2,
      "componentType": 5126,
      "count": 5204,
      "type": "VEC4",
      "max": [
        1.0,
        1.0,
        1.0,
        1.0
      ],
      "min": [
        -1.0,
        -0.9999992847442627,
        -1.0,
        -1.0
      ]
    },
    {
      "bufferView": 3,
      "componentType": 5126,
      "count": 5204,
      "type": "VEC2",
      "max": [
        0.990234375,
        0.99853515625
      ],
      "min": [
        0.00099945068359375,
        0.00099945068359375
      ]
    },
    {
      "bufferView": 4,
      "componentType": 5126,
      "count": 5204,
      "type": "VEC2",
      "max": [
        0.9921875,
        0.9873046875
      ],
      "min": [
        0.00806427001953125,
        0.00806427001953125
      ]
    },
    {
      "bufferView": 5,
      "componentType": 5123,
      "count": 24447,
      "type": "SCALAR",
      "max": [
        5203.0
      ],
      "min": [
        32.0
      ]
    }
  ],
  "buffers": [
    {
      "uri": "Big_Door.bin",
      "byteLength": 340320
    }
  ],
  "bufferViews": [
    {
      "buffer": 0,
      "byteLength": 62448,
      "byteStride": 12,
      "target": 34962
    },
    {
      "buffer": 0,
      "byteOffset": 62448,
      "byteLength": 62448,
      "byteStride": 12,
      "target": 34962
    },
    {
      "buffer": 0,
      "byteOffset": 124896,
      "byteLength": 83264,
      "target": 34962
    },
    {
      "buffer": 0,
      "byteOffset": 208160,
      "byteLength": 41632,
      "target": 34962
    },
    {
      "buffer": 0,
      "byteOffset": 249792,
      "byteLength": 41632,
      "target": 34962
    },
    {
      "buffer": 0,
      "byteOffset": 291424,
      "byteLength": 48896,
      "target": 34963
    }
  ],
  "images": [
    {
      "uri": "T_BigDoorBody_Normal.jpg",
      "name": "T_BigDoorBody_Normal"
    },
    {
      "uri": "T_BigDoorBody_Occlusion.jpg",
      "name": "T_BigDoorBody_Occlusion"
    },
    {
      "uri": "T_BigDoorBody_BaseColor.jpg",
      "name": "T_BigDoorBody_BaseColor"
    },
    {
      "uri": "T_BigDoorBody_Metallic.jpg",
      "name": "T_BigDoorBody_Metallic"
    }
  ],
  "materials": [
    {
      "pbrMetallicRoughness": {
        "baseColorFactor": [
          0.215860471,
          0.215860471,
          0.215860471,
          1.0
        ],
        "baseColorTexture": {
          "index": 2,
          "extensions": {
            "KHR_texture_transform": {
              "texCoord": 0
            }
          }
        },
        "metallicRoughnessTexture": {
          "index": 3,
          "extensions": {
            "KHR_texture_transform": {
              "texCoord": 0
            }
          }
        }
      },
      "normalTexture": {
        "index": 0,
        "extensions": {
          "KHR_texture_transform": {
            "texCoord": 0
          }
        }
      },
      "occlusionTexture": {
        "index": 1,
        "extensions": {
          "KHR_texture_transform": {
            "texCoord": 0
          }
        }
      },
      "name": "MI_BigDoor_Body"
    }
  ],
  "meshes": [
    {
      "primitives": [
        {
          "attributes": {
            "POSITION": 0,
            "NORMAL": 1,
            "TANGENT": 2,
            "TEXCOORD_0": 3,
            "TEXCOORD_1": 4
          },
          "indices": 5,
          "material": 0
        }
      ],
      "name": "BigDoorBody1"
    }
  ],
  "nodes": [
    {
      "children": [
        1,
        2,
        3,
        9
      ],
      "name": "Big_Door"
    },
    {
      "mesh": 0,
      "rotation": [
        -2.98023224E-08,
        -0.7071068,
        -0.7071068,
        -8.940697E-08
      ],
      "scale": [
        0.648069859,
        0.49811,
        0.8062903
      ],
      "translation": [
        0.0599985123,
        0.22,
        -0.5100002
      ],
      "name": "BigDoorBody1"
    },
    {
      "mesh": 0,
      "rotation": [
        0.7071068,
        0.0,
        0.0,
        -0.7071068
      ],
      "scale": [
        0.648070455,
        0.49811,
        0.8062904
      ],
      "translation": [
        0.0513715744,
        0.20018,
        0.609999657
      ],
      "name": "BigDoorBody2"
    },
    {
      "children": [
        4,
        5,
        6,
        7,
        8
      ],
      "rotation": [
        0.0,
        -1.0,
        0.0,
        0.0
      ],
      "translation": [
        -0.279999733,
        0.53,
        -4.60999966
      ],
      "name": "BigDoor_Black_Wrapper"
    },
    {
      "rotation": [
        1.11022312E-17,
        0.0,
        0.0,
        1.0
      ],
      "scale": [
        0.02,
        1.2231003,
        1.62711763
      ],
      "translation": [
        1.436,
        -0.357,
        -5.464
      ],
      "name": "Black_Left_Wrapper"
    },
    {
      "rotation": [
        1.11022312E-17,
        0.0,
        0.0,
        1.0
      ],
      "scale": [
        0.02,
        1.2231003,
        1.62711763
      ],
      "translation": [
        -2.057,
        -0.357,
        -5.464
      ],
      "name": "Black_Right_Wrapper"
    },
    {
      "rotation": [
        1.11022312E-17,
        0.0,
        0.0,
        1.0
      ],
      "scale": [
        1.23258281,
        0.007,
        1.685368
      ],
      "translation": [
        1.436,
        3.301061,
        -5.48963833
      ],
      "name": "Grey_Upper_Wrapper"
    },
    {
      "rotation": [
        1.11022312E-17,
        0.0,
        0.0,
        1.0
      ],
      "scale": [
        1.23252213,
        0.01,
        1.62716067
      ],
      "translation": [
        1.4356,
        -0.385,
        -5.464
      ],
      "name": "Black_Bottom_Wrapper"
    },
    {
      "rotation": [
        1.11022312E-17,
        0.0,
        0.0,
        1.0
      ],
      "scale": [
        1.207011,
        0.01,
        1.58764768
      ],
      "translation": [
        1.4055,
        2.524,
        -5.4421
      ],
      "name": "Black_Upper_Wrapper"
    },
    {
      "children": [
        10,
        11,
        12,
        13,
        14,
        15
      ],
      "scale": [
        2.6,
        4.1,
        3.3
      ],
      "translation": [
        0.049,
        0.06,
        0.019
      ],
      "name": "Internal_Doors"
    },
    {
      "scale": [
        1.00000048,
        1.0,
        1.00000048
      ],
      "translation": [
        0.0,
        0.0,
        0.33
      ],
      "name": "LeftClosedLocation"
    },
    {
      "scale": [
        1.00000048,
        1.0,
        1.00000048
      ],
      "translation": [
        0.0,
        0.0,
        0.33
      ],
      "name": "RightClosedLocation"
    },
    {
      "translation": [
        -0.325,
        0.0,
        0.33
      ],
      "name": "LeftOpenLocation"
    },
    {
      "scale": [
        1.00000048,
        1.0,
        1.00000048
      ],
      "translation": [
        0.415,
        0.0,
        0.33
      ],
      "name": "RightOpenLocation"
    },
    {
      "translation": [
        -0.400000066,
        0.7,
        0.0
      ],
      "name": "AudioSource_Door"
    },
    {
      "translation": [
        -0.400000066,
        0.7,
        0.0
      ],
      "name": "AudioSource_ClosedDoor"
    }
  ],
  "samplers": [
    {
      "minFilter": 9987
    }
  ],
  "textures": [
    {
      "sampler": 0,
      "source": 0,
      "name": "T_BigDoorBody_Normal"
    },
    {
      "sampler": 0,
      "source": 1,
      "name": "T_BigDoorBody_Occlusion"
    },
    {
      "sampler": 0,
      "source": 2,
      "name": "T_BigDoorBody_BaseColor"
    },
    {
      "sampler": 0,
      "source": 3,
      "name": "T_BigDoorBody_Metallic"
    }
  ]
}