{
  "asset": {
    "generator": "UnityGLTF",
    "version": "2.0"
  },
  "extensionsUsed": [
    "KHR_texture_transform"
  ],
  "scene": 0,
  "scenes": [
    {
      "nodes": [
        0
      ],
      "name": "Console_8_LOD0"
    }
  ],
  "accessors": [
    {
      "bufferView": 0,
      "componentType": 5126,
      "count": 5797,
      "type": "VEC3",
      "max": [
        0.57499080896377563,
        1.0999945402145386,
        1.4249999523162842
      ],
      "min": [
        -0.48995053768157959,
        -1.1000064611434937,
        1.2246465217129228E-17
      ]
    },
    {
      "bufferView": 1,
      "componentType": 5126,
      "count": 5797,
      "type": "VEC3",
      "max": [
        1.0,
        1.0,
        1.0
      ],
      "min": [
        -1.0,
        -1.0,
        -1.0
      ]
    },
    {
      "bufferView": 2,
      "componentType": 5126,
      "count": 5797,
      "type": "VEC4",
      "max": [
        1.0,
        1.0,
        1.0,
        1.0
      ],
      "min": [
        -1.0,
        -1.0,
        -1.0,
        -1.0
      ]
    },
    {
      "bufferView": 3,
      "componentType": 5126,
      "count": 5797,
      "type": "VEC2",
      "max": [
        35.0,
        1.0
      ],
      "min": [
        -35.0,
        -74.75
      ]
    },
    {
      "bufferView": 4,
      "componentType": 5126,
      "count": 5797,
      "type": "VEC2",
      "max": [
        0.99755859375,
        0.99755859375
      ],
      "min": [
        0.0019989013671875,
        0.0019989013671875
      ]
    },
    {
      "bufferView": 5,
      "componentType": 5123,
      "count": 2994,
      "type": "SCALAR",
      "max": [
        909.0
      ],
      "min": [
        0.0
      ]
    },
    {
      "bufferView": 6,
      "componentType": 5123,
      "count": 42,
      "type": "SCALAR",
      "max": [
        925.0
      ],
      "min": [
        910.0
      ]
    },
    {
      "bufferView": 7,
      "componentType": 5123,
      "count": 8760,
      "type": "SCALAR",
      "max": [
        5744.0
      ],
      "min": [
        926.0
      ]
    },
    {
      "bufferView": 8,
      "componentType": 5123,
      "count": 24,
      "type": "SCALAR",
      "max": [
        5760.0
      ],
      "min": [
        5745.0
      ]
    },
    {
      "bufferView": 9,
      "componentType": 5123,
      "count": 6,
      "type": "SCALAR",
      "max": [
        5764.0
      ],
      "min": [
        5761.0
      ]
    },
    {
      "bufferView": 10,
      "componentType": 5123,
      "count": 12,
      "type": "SCALAR",
      "max": [
        5772.0
      ],
      "min": [
        5765.0
      ]
    },
    {
      "bufferView": 11,
      "componentType": 5123,
      "count": 18,
      "type": "SCALAR",
      "max": [
        5780.0
      ],
      "min": [
        5773.0
      ]
    },
    {
      "bufferView": 12,
      "componentType": 5123,
      "count": 48,
      "type": "SCALAR",
      "max": [
        5796.0
      ],
      "min": [
        5781.0
      ]
    }
  ],
  "buffers": [
    {
      "uri": "Console_8_LOD0.bin",
      "byteLength": 348440
    }
  ],
  "bufferViews": [
    {
      "buffer": 0,
      "byteLength": 69564,
      "byteStride": 12,
      "target": 34962
    },
    {
      "buffer": 0,
      "byteOffset": 69564,
      "byteLength": 69564,
      "byteStride": 12,
      "target": 34962
    },
    {
      "buffer": 0,
      "byteOffset": 139128,
      "byteLength": 92752,
      "target": 34962
    },
    {
      "buffer": 0,
      "byteOffset": 231880,
      "byteLength": 46376,
      "target": 34962
    },
    {
      "buffer": 0,
      "byteOffset": 278256,
      "byteLength": 46376,
      "target": 34962
    },
    {
      "buffer": 0,
      "byteOffset": 324632,
      "byteLength": 5988,
      "target": 34963
    },
    {
      "buffer": 0,
      "byteOffset": 330620,
      "byteLength": 84,
      "target": 34963
    },
    {
      "buffer": 0,
      "byteOffset": 330704,
      "byteLength": 17520,
      "target": 34963
    },
    {
      "buffer": 0,
      "byteOffset": 348224,
      "byteLength": 48,
      "target": 34963
    },
    {
      "buffer": 0,
      "byteOffset": 348272,
      "byteLength": 12,
      "target": 34963
    },
    {
      "buffer": 0,
      "byteOffset": 348284,
      "byteLength": 24,
      "target": 34963
    },
    {
      "buffer": 0,
      "byteOffset": 348308,
      "byteLength": 36,
      "target": 34963
    },
    {
      "buffer": 0,
      "byteOffset": 348344,
      "byteLength": 96,
      "target": 34963
    }
  ],
  "images": [
    {
      "uri": "T_AllScreeniesA.png",
      "name": "T_AllScreeniesA"
    },
    {
      "uri": "T_hal300%C2%B2.jpg",
      "name": "T_hal300²"
    },
    {
      "uri": "T_Atlas_normal.jpg",
      "name": "T_Atlas_normal"
    },
    {
      "uri": "T_Atlas_albedo.jpg",
      "name": "T_Atlas_albedo"
    }
  ],
  "materials": [
    {
      "pbrMetallicRoughness": {
        "baseColorFactor": [
          0.0,
          0.897457361,
          1.0,
          1.0
        ],
        "baseColorTexture": {
          "index": 0,
          "extensions": {
            "KHR_texture_transform": {
              "texCoord": 0
            }
          }
        },
        "metallicFactor": 0.0,
        "roughnessFactor": 0.0
      },
      "name": "Screen"
    },
    {
      "pbrMetallicRoughness": {
        "baseColorTexture": {
          "index": 1,
          "extensions": {
            "KHR_texture_transform": {
              "texCoord": 0
            }
          }
        },
        "metallicFactor": 0.0
      },
      "name": "Hal300"
    },
    {
      "pbrMetallicRoughness": {
        "baseColorFactor": [
          0.318546683,
          0.318546683,
          0.318546683,
          1.0
        ],
        "baseColorTexture": {
          "index": 3,
          "extensions": {
            "KHR_texture_transform": {
              "texCoord": 0
            }
          }
        },
        "roughnessFactor": 0.68399998545646667
      },
      "normalTexture": {
        "index": 2,
        "extensions": {
          "KHR_texture_transform": {
            "texCoord": 0
          }
        }
      },
      "name": "ConsolePanel"
    },
    {
      "pbrMetallicRoughness": {
        "baseColorFactor": [
          0.9000636,
          0.00677290326,
          0.0,
          1.0
        ],
        "metallicFactor": 0.0,
        "roughnessFactor": 0.5
      },
      "emissiveFactor": [
        0.803773463,
        0.101609059,
        0.112411626
      ],
      "name": "Red_Light"
    },
    {
      "pbrMetallicRoughness": {
        "baseColorFactor": [
          0.0,
          1.0,
          0.0,
          1.0
        ],
        "metallicFactor": 0.0,
        "roughnessFactor": 0.5
      },
      "emissiveFactor": [
        0.124528266,
        0.124528266,
        0.124528266
      ],
      "name": "Greeen_Light"
    },
    {
      "pbrMetallicRoughness": {
        "baseColorFactor": [
          0.215860471,
          0.215860471,
          0.215860471,
          1.0
        ],
        "metallicFactor": 0.0,
        "roughnessFactor": 0.55278640985488892
      },
      "name": "WorldGridMaterial"
    }
  ],
  "meshes": [
    {
      "primitives": [
        {
          "attributes": {
            "POSITION": 0,
            "NORMAL": 1,
            "TANGENT": 2,
            "TEXCOORD_0": 3,
            "TEXCOORD_1": 4
          },
          "indices": 5,
          "material": 0
        },
        {
          "attributes": {
            "POSITION": 0,
            "NORMAL": 1,
            "TANGENT": 2,
            "TEXCOORD_0": 3,
            "TEXCOORD_1": 4
          },
          "indices": 6,
          "material": 1
        },
        {
          "attributes": {
            "POSITION": 0,
            "NORMAL": 1,
            "TANGENT": 2,
            "TEXCOORD_0": 3,
            "TEXCOORD_1": 4
          },
          "indices": 7,
          "material": 2
        },
        {
          "attributes": {
            "POSITION": 0,
            "NORMAL": 1,
            "TANGENT": 2,
            "TEXCOORD_0": 3,
            "TEXCOORD_1": 4
          },
          "indices": 8,
          "material": 3
        },
        {
          "attributes": {
            "POSITION": 0,
            "NORMAL": 1,
            "TANGENT": 2,
            "TEXCOORD_0": 3,
            "TEXCOORD_1": 4
          },
          "indices": 9,
          "material": 0
        },
        {
          "attributes": {
            "POSITION": 0,
            "NORMAL": 1,
            "TANGENT": 2,
            "TEXCOORD_0": 3,
            "TEXCOORD_1": 4
          },
          "indices": 10,
          "material": 4
        },
        {
          "attributes": {
            "POSITION": 0,
            "NORMAL": 1,
            "TANGENT": 2,
            "TEXCOORD_0": 3,
            "TEXCOORD_1": 4
          },
          "indices": 11,
          "material": 0
        },
        {
          "attributes": {
            "POSITION": 0,
            "NORMAL": 1,
            "TANGENT": 2,
            "TEXCOORD_0": 3,
            "TEXCOORD_1": 4
          },
          "indices": 12,
          "material": 5
        }
      ],
      "name": "Console_8_LOD0"
    }
  ],
  "nodes": [
    {
      "mesh": 0,
      "name": "Console_8_LOD0"
    }
  ],
  "samplers": [
    {
      "minFilter": 9987
    }
  ],
  "textures": [
    {
      "sampler": 0,
      "source": 0,
      "name": "T_AllScreeniesA"
    },
    {
      "sampler": 0,
      "source": 1,
      "name": "T_hal300²"
    },
    {
      "sampler": 0,
      "source": 2,
      "name": "T_Atlas_normal"
    },
    {
      "sampler": 0,
      "source": 3,
      "name": "T_Atlas_albedo"
    }
  ]
}