{
  "asset": {
    "generator": "UnityGLTF",
    "version": "2.0"
  },
  "extensionsUsed": [
    "KHR_texture_transform"
  ],
  "scene": 0,
  "scenes": [
    {
      "nodes": [
        0
      ],
      "name": "Container (9)"
    }
  ],
  "accessors": [
    {
      "bufferView": 0,
      "componentType": 5126,
      "count": 23313,
      "type": "VEC3",
      "max": [
        0.0082393623888492584,
        0.0082393642514944077,
        0.00023936291108839214
      ],
      "min": [
        -0.0082393642514944077,
        -0.0082393651828169823,
        -0.016239361837506294
      ]
    },
    {
      "bufferView": 1,
      "componentType": 5126,
      "count": 23313,
      "type": "VEC3",
      "max": [
        1.0,
        1.0,
        1.0
      ],
      "min": [
        -1.0,
        -1.0,
        -1.0
      ]
    },
    {
      "bufferView": 2,
      "componentType": 5126,
      "count": 23313,
      "type": "VEC4",
      "max": [
        1.0,
        1.0,
        1.0,
        1.0
      ],
      "min": [
        -1.0,
        -1.0,
        -1.0,
        -1.0
      ]
    },
    {
      "bufferView": 3,
      "componentType": 5126,
      "count": 23313,
      "type": "VEC2",
      "max": [
        1.0,
        1.0
      ],
      "min": [
        0.0,
        0.0
      ]
    },
    {
      "bufferView": 4,
      "componentType": 5123,
      "count": 40164,
      "type": "SCALAR",
      "max": [
        23312.0
      ],
      "min": [
        0.0
      ]
    }
  ],
  "buffers": [
    {
      "uri": "Container (9).bin",
      "byteLength": 1199352
    }
  ],
  "bufferViews": [
    {
      "buffer": 0,
      "byteLength": 279756,
      "byteStride": 12,
      "target": 34962
    },
    {
      "buffer": 0,
      "byteOffset": 279756,
      "byteLength": 279756,
      "byteStride": 12,
      "target": 34962
    },
    {
      "buffer": 0,
      "byteOffset": 559512,
      "byteLength": 373008,
      "target": 34962
    },
    {
      "buffer": 0,
      "byteOffset": 932520,
      "byteLength": 186504,
      "target": 34962
    },
    {
      "buffer": 0,
      "byteOffset": 1119024,
      "byteLength": 80328,
      "target": 34963
    }
  ],
  "images": [
    {
      "uri": "Container_DefaultMaterial_Normal.jpg",
      "name": "Container_DefaultMaterial_Normal"
    },
    {
      "uri": "Container_DefaultMaterial_BaseColor.jpg",
      "name": "Container_DefaultMaterial_BaseColor"
    },
    {
      "uri": "Container_DefaultMaterial_Metallic.jpg",
      "name": "Container_DefaultMaterial_Metallic"
    }
  ],
  "materials": [
    {
      "pbrMetallicRoughness": {
        "baseColorTexture": {
          "index": 1,
          "extensions": {
            "KHR_texture_transform": {
              "texCoord": 0
            }
          }
        },
        "metallicRoughnessTexture": {
          "index": 2,
          "extensions": {
            "KHR_texture_transform": {
              "texCoord": 0
            }
          }
        }
      },
      "normalTexture": {
        "index": 0,
        "extensions": {
          "KHR_texture_transform": {
            "texCoord": 0
          }
        }
      },
      "name": "m_container"
    }
  ],
  "meshes": [
    {
      "primitives": [
        {
          "attributes": {
            "POSITION": 0,
            "NORMAL": 1,
            "TANGENT": 2,
            "TEXCOORD_0": 3
          },
          "indices": 4,
          "material": 0
        }
      ],
      "name": "Container (9)"
    }
  ],
  "nodes": [
    {
      "mesh": 0,
      "rotation": [
        2.18556941E-08,
        0.0,
        0.0,
        1.0
      ],
      "scale": [
        80.555,
        80.555,
        80.555
      ],
      "translation": [
        3.71696424,
        -0.605081558,
        2.15177441
      ],
      "name": "Container (9)"
    }
  ],
  "samplers": [
    {
      "minFilter": 9987
    }
  ],
  "textures": [
    {
      "sampler": 0,
      "source": 0,
      "name": "Container_DefaultMaterial_Normal"
    },
    {
      "sampler": 0,
      "source": 1,
      "name": "Container_DefaultMaterial_BaseColor"
    },
    {
      "sampler": 0,
      "source": 2,
      "name": "Container_DefaultMaterial_Metallic"
    }
  ]
}