{
  "asset": {
    "generator": "UnityGLTF",
    "version": "2.0"
  },
  "extensionsUsed": [
    "KHR_texture_transform"
  ],
  "scene": 0,
  "scenes": [
    {
      "nodes": [
        0
      ],
      "name": "CryoTube_LOD0 (12)"
    }
  ],
  "accessors": [
    {
      "bufferView": 0,
      "componentType": 5126,
      "count": 5539,
      "type": "VEC3",
      "max": [
        1.5147783756256104,
        2.9905083179473877,
        2.3817393779754639
      ],
      "min": [
        -1.5147778987884521,
        -2.2992684841156006,
        4.76837147544984E-09
      ]
    },
    {
      "bufferView": 1,
      "componentType": 5126,
      "count": 5539,
      "type": "VEC3",
      "max": [
        1.0,
        1.0,
        1.0
      ],
      "min": [
        -1.0,
        -1.0,
        -1.0
      ]
    },
    {
      "bufferView": 2,
      "componentType": 5126,
      "count": 5539,
      "type": "VEC4",
      "max": [
        1.0,
        1.0,
        1.0,
        1.0
      ],
      "min": [
        -1.0,
        -1.0,
        -0.999974250793457,
        -1.0
      ]
    },
    {
      "bufferView": 3,
      "componentType": 5126,
      "count": 5539,
      "type": "VEC2",
      "max": [
        0.498779296875,
        0.84765625
      ],
      "min": [
        0.00930023193359375,
        0.00054693222045898438
      ]
    },
    {
      "bufferView": 4,
      "componentType": 5126,
      "count": 5539,
      "type": "VEC2",
      "max": [
        0.9951171875,
        0.9951171875
      ],
      "min": [
        0.0055999755859375,
        0.0021877288818359375
      ]
    },
    {
      "bufferView": 5,
      "componentType": 5123,
      "count": 13620,
      "type": "SCALAR",
      "max": [
        5538.0
      ],
      "min": [
        0.0
      ]
    }
  ],
  "buffers": [
    {
      "uri": "CryoTube_LOD0 (12).bin",
      "byteLength": 337424
    }
  ],
  "bufferViews": [
    {
      "buffer": 0,
      "byteLength": 66468,
      "byteStride": 12,
      "target": 34962
    },
    {
      "buffer": 0,
      "byteOffset": 66468,
      "byteLength": 66468,
      "byteStride": 12,
      "target": 34962
    },
    {
      "buffer": 0,
      "byteOffset": 132936,
      "byteLength": 88624,
      "target": 34962
    },
    {
      "buffer": 0,
      "byteOffset": 221560,
      "byteLength": 44312,
      "target": 34962
    },
    {
      "buffer": 0,
      "byteOffset": 265872,
      "byteLength": 44312,
      "target": 34962
    },
    {
      "buffer": 0,
      "byteOffset": 310184,
      "byteLength": 27240,
      "target": 34963
    }
  ],
  "images": [
    {
      "uri": "T_Atlas_normal.jpg",
      "name": "T_Atlas_normal"
    },
    {
      "uri": "T_Atlas_albedo.jpg",
      "name": "T_Atlas_albedo"
    }
  ],
  "materials": [
    {
      "pbrMetallicRoughness": {
        "baseColorTexture": {
          "index": 1,
          "extensions": {
            "KHR_texture_transform": {
              "texCoord": 0
            }
          }
        },
        "metallicFactor": 0.515999972820282,
        "roughnessFactor": 0.40399998426437378
      },
      "normalTexture": {
        "index": 0,
        "extensions": {
          "KHR_texture_transform": {
            "texCoord": 0
          }
        }
      },
      "name": "Criotube"
    }
  ],
  "meshes": [
    {
      "primitives": [
        {
          "attributes": {
            "POSITION": 0,
            "NORMAL": 1,
            "TANGENT": 2,
            "TEXCOORD_0": 3,
            "TEXCOORD_1": 4
          },
          "indices": 5,
          "material": 0
        }
      ],
      "name": "CryoTube_LOD0 (12)"
    }
  ],
  "nodes": [
    {
      "mesh": 0,
      "rotation": [
        0.7071068,
        0.0,
        0.0,
        0.7071068
      ],
      "scale": [
        0.65,
        0.65,
        0.65
      ],
      "translation": [
        -2.51,
        3.20704031,
        8.51598549
      ],
      "name": "CryoTube_LOD0 (12)"
    }
  ],
  "samplers": [
    {
      "minFilter": 9987
    }
  ],
  "textures": [
    {
      "sampler": 0,
      "source": 0,
      "name": "T_Atlas_normal"
    },
    {
      "sampler": 0,
      "source": 1,
      "name": "T_Atlas_albedo"
    }
  ]
}