{
  "asset": {
    "generator": "UnityGLTF",
    "version": "2.0"
  },
  "extensionsUsed": [
    "KHR_texture_transform"
  ],
  "scene": 0,
  "scenes": [
    {
      "nodes": [
        0
      ],
      "name": "default"
    }
  ],
  "accessors": [
    {
      "bufferView": 0,
      "componentType": 5126,
      "count": 77249,
      "type": "VEC3",
      "max": [
        0.47588199377059937,
        1.278082013130188,
        0.37447699904441833
      ],
      "min": [
        -0.47588399052619934,
        -0.023527000099420547,
        -0.43725600838661194
      ]
    },
    {
      "bufferView": 1,
      "componentType": 5126,
      "count": 77249,
      "type": "VEC3",
      "max": [
        1.0,
        1.0,
        1.0
      ],
      "min": [
        -1.0,
        -1.0,
        -1.0
      ]
    },
    {
      "bufferView": 2,
      "componentType": 5126,
      "count": 77249,
      "type": "VEC4",
      "max": [
        1.0,
        1.0,
        1.0,
        1.0
      ],
      "min": [
        -1.0,
        -1.0,
        -1.0,
        1.0
      ]
    },
    {
      "bufferView": 3,
      "componentType": 5126,
      "count": 77249,
      "type": "VEC2",
      "max": [
        0.99975502490997314,
        0.99805498123168945
      ],
      "min": [
        0.00055100000463426113,
        0.0011699795722961426
      ]
    },
    {
      "bufferView": 4,
      "componentType": 5125,
      "count": 368205,
      "type": "SCALAR",
      "max": [
        77248.0
      ],
      "min": [
        0.0
      ]
    }
  ],
  "buffers": [
    {
      "uri": "default.bin",
      "byteLength": 5180772
    }
  ],
  "bufferViews": [
    {
      "buffer": 0,
      "byteLength": 926988,
      "byteStride": 12,
      "target": 34962
    },
    {
      "buffer": 0,
      "byteOffset": 926988,
      "byteLength": 926988,
      "byteStride": 12,
      "target": 34962
    },
    {
      "buffer": 0,
      "byteOffset": 1853976,
      "byteLength": 1235984,
      "target": 34962
    },
    {
      "buffer": 0,
      "byteOffset": 3089960,
      "byteLength": 617992,
      "target": 34962
    },
    {
      "buffer": 0,
      "byteOffset": 3707952,
      "byteLength": 1472820,
      "target": 34963
    }
  ],
  "images": [
    {
      "uri": "Default_OBJ.002_Normal_OpenGL.jpg",
      "name": "Default_OBJ.002_Normal_OpenGL"
    },
    {
      "uri": "Default_OBJ.002_Roughness.jpg",
      "name": "Default_OBJ.002_Roughness"
    },
    {
      "uri": "Default_OBJ.002_Base_Color.jpg",
      "name": "Default_OBJ.002_Base_Color"
    },
    {
      "uri": "Default_OBJ.002_Metallic.jpg",
      "name": "Default_OBJ.002_Metallic"
    }
  ],
  "materials": [
    {
      "pbrMetallicRoughness": {
        "baseColorFactor": [
          0.393621355,
          0.393621355,
          0.393621355,
          1.0
        ],
        "baseColorTexture": {
          "index": 2,
          "extensions": {
            "KHR_texture_transform": {
              "texCoord": 0
            }
          }
        },
        "metallicRoughnessTexture": {
          "index": 3,
          "extensions": {
            "KHR_texture_transform": {
              "texCoord": 0
            }
          }
        }
      },
      "normalTexture": {
        "index": 0,
        "extensions": {
          "KHR_texture_transform": {
            "texCoord": 0
          }
        }
      },
      "occlusionTexture": {
        "strength": 0.36500000953674316,
        "index": 1,
        "extensions": {
          "KHR_texture_transform": {
            "texCoord": 0
          }
        }
      },
      "name": "Default_OBJ.002_Base_Color"
    }
  ],
  "meshes": [
    {
      "primitives": [
        {
          "attributes": {
            "POSITION": 0,
            "NORMAL": 1,
            "TANGENT": 2,
            "TEXCOORD_0": 3
          },
          "indices": 4,
          "material": 0
        }
      ],
      "name": "default"
    }
  ],
  "nodes": [
    {
      "mesh": 0,
      "name": "default"
    }
  ],
  "samplers": [
    {
      "minFilter": 9987
    }
  ],
  "textures": [
    {
      "sampler": 0,
      "source": 0,
      "name": "Default_OBJ.002_Normal_OpenGL"
    },
    {
      "sampler": 0,
      "source": 1,
      "name": "Default_OBJ.002_Roughness"
    },
    {
      "sampler": 0,
      "source": 2,
      "name": "Default_OBJ.002_Base_Color"
    },
    {
      "sampler": 0,
      "source": 3,
      "name": "Default_OBJ.002_Metallic"
    }
  ]
}