{
	"asset":{
		"generator":"Khronos glTF Blender I/O v4.0.44",
		"version":"2.0"
	},
	"scene":0,
	"scenes":[
		{
			"name":"Scene",
			"nodes":[
				1
			]
		}
	],
	"nodes":[
		{
			"mesh":0,
			"name":"BigDoorBody1",
			"rotation":[
				0,
				0.7071068286895752,
				0.7071068286895752,
				8.940696005765858e-08
			],
			"scale":[
				0.6480700373649597,
				0.4981100559234619,
				0.8062904477119446
			],
			"translation":[
				0.059998512268066406,
				0.2199999988079071,
				-0.5100002288818359
			]
		},
		{
			"children":[
				0
			],
			"name":"Door_Closed"
		}
	],
	"materials":[
		{
			"name":"MI_BigDoor_Body",
			"normalTexture":{
				"index":0
			},
			"occlusionTexture":{
				"index":1
			},
			"pbrMetallicRoughness":{
				"baseColorFactor":[
					0.21586047112941742,
					0.21586047112941742,
					0.21586047112941742,
					1
				],
				"baseColorTexture":{
					"index":2
				},
				"metallicRoughnessTexture":{
					"index":1
				}
			}
		},
		{
			"name":"MI_BigDoor_Door",
			"normalTexture":{
				"index":3
			},
			"occlusionTexture":{
				"index":4
			},
			"pbrMetallicRoughness":{
				"baseColorFactor":[
					0.21586047112941742,
					0.21586047112941742,
					0.21586047112941742,
					1
				],
				"baseColorTexture":{
					"index":5
				},
				"metallicRoughnessTexture":{
					"index":4
				}
			}
		}
	],
	"meshes":[
		{
			"name":"BigDoorBody1",
			"primitives":[
				{
					"attributes":{
						"POSITION":0,
						"NORMAL":1,
						"TEXCOORD_0":2,
						"TEXCOORD_1":3
					},
					"indices":4,
					"material":0
				},
				{
					"attributes":{
						"POSITION":5,
						"NORMAL":6,
						"TEXCOORD_0":7,
						"TEXCOORD_1":8
					},
					"indices":9,
					"material":1
				}
			]
		}
	],
	"textures":[
		{
			"sampler":0,
			"source":0
		},
		{
			"sampler":0,
			"source":1
		},
		{
			"sampler":0,
			"source":2
		},
		{
			"sampler":0,
			"source":3
		},
		{
			"sampler":0,
			"source":4
		},
		{
			"sampler":0,
			"source":5
		}
	],
	"images":[
		{
			"mimeType":"image/jpeg",
			"name":"T_BigDoorBody_Normal",
			"uri":"T_BigDoorBody_Normal.jpg"
		},
		{
			"mimeType":"image/png",
			"name":"T_BigDoorBody_Occlusion-T_BigDoorBody_Metallic",
			"uri":"T_BigDoorBody_Occlusion-T_BigDoorBody_Metallic.png"
		},
		{
			"mimeType":"image/jpeg",
			"name":"T_BigDoorBody_BaseColor",
			"uri":"T_BigDoorBody_BaseColor.jpg"
		},
		{
			"mimeType":"image/jpeg",
			"name":"T_BigDoor_Normal",
			"uri":"T_BigDoor_Normal.jpg"
		},
		{
			"mimeType":"image/png",
			"name":"T_BigDoor_Occlusion-T_BigDoor_Metallic",
			"uri":"T_BigDoor_Occlusion-T_BigDoor_Metallic.png"
		},
		{
			"mimeType":"image/jpeg",
			"name":"T_BigDoor_BaseColor",
			"uri":"T_BigDoor_BaseColor.jpg"
		}
	],
	"accessors":[
		{
			"bufferView":0,
			"componentType":5126,
			"count":10895,
			"max":[
				2.7095327377319336,
				3.2709801197052,
				4.503193378448486
			],
			"min":[
				-2.6962194442749023,
				-1.0224813222885132,
				-0.059067271649837494
			],
			"type":"VEC3"
		},
		{
			"bufferView":1,
			"componentType":5126,
			"count":10895,
			"type":"VEC3"
		},
		{
			"bufferView":2,
			"componentType":5126,
			"count":10895,
			"type":"VEC2"
		},
		{
			"bufferView":3,
			"componentType":5126,
			"count":10895,
			"type":"VEC2"
		},
		{
			"bufferView":4,
			"componentType":5123,
			"count":48894,
			"type":"SCALAR"
		},
		{
			"bufferView":5,
			"componentType":5126,
			"count":8105,
			"max":[
				2.123915910720825,
				1.4693249464035034,
				2.9300358295440674
			],
			"min":[
				-2.154747486114502,
				0.7772643566131592,
				-0.19867092370986938
			],
			"type":"VEC3"
		},
		{
			"bufferView":6,
			"componentType":5126,
			"count":8105,
			"type":"VEC3"
		},
		{
			"bufferView":7,
			"componentType":5126,
			"count":8105,
			"type":"VEC2"
		},
		{
			"bufferView":8,
			"componentType":5126,
			"count":8105,
			"type":"VEC2"
		},
		{
			"bufferView":9,
			"componentType":5123,
			"count":30330,
			"type":"SCALAR"
		}
	],
	"bufferViews":[
		{
			"buffer":0,
			"byteLength":130740,
			"byteOffset":0,
			"target":34962
		},
		{
			"buffer":0,
			"byteLength":130740,
			"byteOffset":130740,
			"target":34962
		},
		{
			"buffer":0,
			"byteLength":87160,
			"byteOffset":261480,
			"target":34962
		},
		{
			"buffer":0,
			"byteLength":87160,
			"byteOffset":348640,
			"target":34962
		},
		{
			"buffer":0,
			"byteLength":97788,
			"byteOffset":435800,
			"target":34963
		},
		{
			"buffer":0,
			"byteLength":97260,
			"byteOffset":533588,
			"target":34962
		},
		{
			"buffer":0,
			"byteLength":97260,
			"byteOffset":630848,
			"target":34962
		},
		{
			"buffer":0,
			"byteLength":64840,
			"byteOffset":728108,
			"target":34962
		},
		{
			"buffer":0,
			"byteLength":64840,
			"byteOffset":792948,
			"target":34962
		},
		{
			"buffer":0,
			"byteLength":60660,
			"byteOffset":857788,
			"target":34963
		}
	],
	"samplers":[
		{
			"magFilter":9729,
			"minFilter":9987
		}
	],
	"buffers":[
		{
			"byteLength":918448,
			"uri":"Doors_Closed.bin"
		}
	]
}
