{
  "asset": {
    "generator": "UnityGLTF",
    "version": "2.0"
  },
  "extensionsUsed": [
    "KHR_texture_transform"
  ],
  "scene": 0,
  "scenes": [
    {
      "nodes": [
        0
      ],
      "name": "Fuel container (5)"
    }
  ],
  "accessors": [
    {
      "bufferView": 0,
      "componentType": 5126,
      "count": 3232,
      "type": "VEC3",
      "max": [
        0.009023585356771946,
        0.0090236058458685875,
        0.0099994521588087082
      ],
      "min": [
        -0.009023585356771946,
        -0.009023585356771946,
        -0.0099999988451600075
      ]
    },
    {
      "bufferView": 1,
      "componentType": 5126,
      "count": 3232,
      "type": "VEC3",
      "max": [
        0.99999880790710449,
        0.99999880790710449,
        0.99996006488800049
      ],
      "min": [
        -0.99999880790710449,
        -0.99999880790710449,
        -0.999975323677063
      ]
    },
    {
      "bufferView": 2,
      "componentType": 5126,
      "count": 3232,
      "type": "VEC4",
      "max": [
        0.68825167417526245,
        0.966737687587738,
        0.99999547004699707,
        1.0
      ],
      "min": [
        -0.98473143577575684,
        -0.76703530550003052,
        -0.9993821382522583,
        1.0
      ]
    },
    {
      "bufferView": 3,
      "componentType": 5126,
      "count": 3232,
      "type": "VEC2",
      "max": [
        0.67014163732528687,
        0.99621349573135376
      ],
      "min": [
        0.0037864926271140575,
        0.0037865638732910156
      ]
    },
    {
      "bufferView": 4,
      "componentType": 5123,
      "count": 18588,
      "type": "SCALAR",
      "max": [
        3231.0
      ],
      "min": [
        0.0
      ]
    }
  ],
  "buffers": [
    {
      "uri": "Fuel container (5).bin",
      "byteLength": 192312
    }
  ],
  "bufferViews": [
    {
      "buffer": 0,
      "byteLength": 38784,
      "byteStride": 12,
      "target": 34962
    },
    {
      "buffer": 0,
      "byteOffset": 38784,
      "byteLength": 38784,
      "byteStride": 12,
      "target": 34962
    },
    {
      "buffer": 0,
      "byteOffset": 77568,
      "byteLength": 51712,
      "target": 34962
    },
    {
      "buffer": 0,
      "byteOffset": 129280,
      "byteLength": 25856,
      "target": 34962
    },
    {
      "buffer": 0,
      "byteOffset": 155136,
      "byteLength": 37176,
      "target": 34963
    }
  ],
  "images": [
    {
      "uri": "Fuel%20container_Low_DefaultMaterial_Normal.jpg",
      "name": "Fuel container_Low_DefaultMaterial_Normal"
    },
    {
      "uri": "Fuel%20container_Low_DefaultMaterial_BaseColor.jpg",
      "name": "Fuel container_Low_DefaultMaterial_BaseColor"
    },
    {
      "uri": "Fuel%20container_Low_DefaultMaterial_Roughness.jpg",
      "name": "Fuel container_Low_DefaultMaterial_Roughness"
    }
  ],
  "materials": [
    {
      "pbrMetallicRoughness": {
        "baseColorTexture": {
          "index": 1,
          "extensions": {
            "KHR_texture_transform": {
              "texCoord": 0
            }
          }
        },
        "metallicRoughnessTexture": {
          "index": 2,
          "extensions": {
            "KHR_texture_transform": {
              "texCoord": 0
            }
          }
        }
      },
      "normalTexture": {
        "index": 0,
        "extensions": {
          "KHR_texture_transform": {
            "texCoord": 0
          }
        }
      },
      "name": "m_fuel container"
    }
  ],
  "meshes": [
    {
      "primitives": [
        {
          "attributes": {
            "POSITION": 0,
            "NORMAL": 1,
            "TANGENT": 2,
            "TEXCOORD_0": 3
          },
          "indices": 4,
          "material": 0
        }
      ],
      "name": "Fuel container (5)"
    }
  ],
  "nodes": [
    {
      "mesh": 0,
      "rotation": [
        -0.008867329,
        0.707051158,
        0.7070512,
        0.008867235
      ],
      "scale": [
        35.48437,
        35.48437,
        56.035
      ],
      "translation": [
        2.4869647,
        -2.09508157,
        -3.86822557
      ],
      "name": "Fuel container (5)"
    }
  ],
  "samplers": [
    {
      "minFilter": 9987
    }
  ],
  "textures": [
    {
      "sampler": 0,
      "source": 0,
      "name": "Fuel container_Low_DefaultMaterial_Normal"
    },
    {
      "sampler": 0,
      "source": 1,
      "name": "Fuel container_Low_DefaultMaterial_BaseColor"
    },
    {
      "sampler": 0,
      "source": 2,
      "name": "Fuel container_Low_DefaultMaterial_Roughness"
    }
  ]
}