{
  "asset": {
    "generator": "UnityGLTF",
    "version": "2.0"
  },
  "extensionsUsed": [
    "KHR_texture_transform"
  ],
  "scene": 0,
  "scenes": [
    {
      "nodes": [
        0
      ],
      "name": "Generator"
    }
  ],
  "accessors": [
    {
      "bufferView": 0,
      "componentType": 5126,
      "count": 1188,
      "type": "VEC3",
      "max": [
        0.015585321001708508,
        0.023416833952069283,
        0.014385370537638664
      ],
      "min": [
        -0.015585321001708508,
        -0.012449449859559536,
        -0.014385370537638664
      ]
    },
    {
      "bufferView": 1,
      "componentType": 5126,
      "count": 1188,
      "type": "VEC3",
      "max": [
        0.99341374635696411,
        0.85598301887512207,
        1.0
      ],
      "min": [
        -0.94405770301818848,
        -1.0,
        -1.0
      ]
    },
    {
      "bufferView": 2,
      "componentType": 5126,
      "count": 1188,
      "type": "VEC4",
      "max": [
        1.0,
        1.0,
        0.99341374635696411,
        1.0
      ],
      "min": [
        -1.0,
        -1.0,
        -1.0,
        1.0
      ]
    },
    {
      "bufferView": 3,
      "componentType": 5126,
      "count": 1188,
      "type": "VEC2",
      "max": [
        0.99999988079071045,
        1.0
      ],
      "min": [
        0.0,
        0.0011120438575744629
      ]
    },
    {
      "bufferView": 4,
      "componentType": 5123,
      "count": 2988,
      "type": "SCALAR",
      "max": [
        1187.0
      ],
      "min": [
        0.0
      ]
    }
  ],
  "buffers": [
    {
      "uri": "Generator.bin",
      "byteLength": 63000
    }
  ],
  "bufferViews": [
    {
      "buffer": 0,
      "byteLength": 14256,
      "byteStride": 12,
      "target": 34962
    },
    {
      "buffer": 0,
      "byteOffset": 14256,
      "byteLength": 14256,
      "byteStride": 12,
      "target": 34962
    },
    {
      "buffer": 0,
      "byteOffset": 28512,
      "byteLength": 19008,
      "target": 34962
    },
    {
      "buffer": 0,
      "byteOffset": 47520,
      "byteLength": 9504,
      "target": 34962
    },
    {
      "buffer": 0,
      "byteOffset": 57024,
      "byteLength": 5976,
      "target": 34963
    }
  ],
  "images": [
    {
      "uri": "Generator_low_DefaultMaterial_Normal.jpg",
      "name": "Generator_low_DefaultMaterial_Normal"
    },
    {
      "uri": "Generator_low_DefaultMaterial_AlbedoTransparency.jpg",
      "name": "Generator_low_DefaultMaterial_AlbedoTransparency"
    },
    {
      "uri": "Generator_low_DefaultMaterial_MetallicSmoothness.jpg",
      "name": "Generator_low_DefaultMaterial_MetallicSmoothness"
    }
  ],
  "materials": [
    {
      "pbrMetallicRoughness": {
        "baseColorTexture": {
          "index": 1,
          "extensions": {
            "KHR_texture_transform": {
              "texCoord": 0
            }
          }
        },
        "metallicRoughnessTexture": {
          "index": 2,
          "extensions": {
            "KHR_texture_transform": {
              "texCoord": 0
            }
          }
        }
      },
      "normalTexture": {
        "index": 0,
        "extensions": {
          "KHR_texture_transform": {
            "texCoord": 0
          }
        }
      },
      "name": "New Material"
    }
  ],
  "meshes": [
    {
      "primitives": [
        {
          "attributes": {
            "POSITION": 0,
            "NORMAL": 1,
            "TANGENT": 2,
            "TEXCOORD_0": 3
          },
          "indices": 4,
          "material": 0
        }
      ],
      "name": "Generator"
    }
  ],
  "nodes": [
    {
      "mesh": 0,
      "rotation": [
        2.18556941E-08,
        0.0,
        0.0,
        1.0
      ],
      "scale": [
        132.765,
        132.765,
        221.275009
      ],
      "translation": [
        -6.57,
        1.7,
        11.5
      ],
      "name": "Generator"
    }
  ],
  "samplers": [
    {
      "minFilter": 9987
    }
  ],
  "textures": [
    {
      "sampler": 0,
      "source": 0,
      "name": "Generator_low_DefaultMaterial_Normal"
    },
    {
      "sampler": 0,
      "source": 1,
      "name": "Generator_low_DefaultMaterial_AlbedoTransparency"
    },
    {
      "sampler": 0,
      "source": 2,
      "name": "Generator_low_DefaultMaterial_MetallicSmoothness"
    }
  ]
}