{
  "asset": {
    "generator": "UnityGLTF",
    "version": "2.0"
  },
  "extensionsUsed": [
    "KHR_texture_transform"
  ],
  "scene": 0,
  "scenes": [
    {
      "nodes": [
        0
      ],
      "name": "HolographicTable"
    }
  ],
  "accessors": [
    {
      "bufferView": 0,
      "componentType": 5126,
      "count": 762,
      "type": "VEC3",
      "max": [
        0.89160770177841187,
        1.7200003862380981,
        0.94237899780273438
      ],
      "min": [
        -0.89160770177841187,
        -1.7449079751968384,
        4.9409864004701376E-05
      ]
    },
    {
      "bufferView": 1,
      "componentType": 5126,
      "count": 762,
      "type": "VEC3",
      "max": [
        1.0,
        1.0,
        1.0
      ],
      "min": [
        -1.0,
        -1.0,
        -1.0
      ]
    },
    {
      "bufferView": 2,
      "componentType": 5126,
      "count": 762,
      "type": "VEC4",
      "max": [
        1.0,
        1.0,
        1.0,
        1.0
      ],
      "min": [
        -1.0,
        -1.0,
        -1.0,
        -1.0
      ]
    },
    {
      "bufferView": 3,
      "componentType": 5126,
      "count": 762,
      "type": "VEC2",
      "max": [
        1.0,
        0.99951171875
      ],
      "min": [
        0.0019989013671875,
        4.1723251342773438E-05
      ]
    },
    {
      "bufferView": 4,
      "componentType": 5126,
      "count": 762,
      "type": "VEC2",
      "max": [
        0.99755859375,
        0.99755859375
      ],
      "min": [
        0.0019989013671875,
        0.00060129165649414063
      ]
    },
    {
      "bufferView": 5,
      "componentType": 5123,
      "count": 1824,
      "type": "SCALAR",
      "max": [
        732.0
      ],
      "min": [
        0.0
      ]
    },
    {
      "bufferView": 6,
      "componentType": 5123,
      "count": 90,
      "type": "SCALAR",
      "max": [
        761.0
      ],
      "min": [
        733.0
      ]
    },
    {
      "bufferView": 7,
      "componentType": 5126,
      "count": 28,
      "type": "VEC3",
      "max": [
        0.7590256929397583,
        1.5778102874755859,
        0.92698782682418823
      ],
      "min": [
        -0.7590256929397583,
        -1.5778102874755859,
        0.92698782682418823
      ]
    },
    {
      "bufferView": 8,
      "componentType": 5126,
      "count": 28,
      "type": "VEC3",
      "max": [
        0.0,
        0.0,
        1.0
      ],
      "min": [
        0.0,
        0.0,
        1.0
      ]
    },
    {
      "bufferView": 9,
      "componentType": 5126,
      "count": 28,
      "type": "VEC4",
      "max": [
        1.0,
        0.99992537498474121,
        0.0,
        1.0
      ],
      "min": [
        -1.0,
        -0.99992537498474121,
        0.0,
        1.0
      ]
    },
    {
      "bufferView": 10,
      "componentType": 5126,
      "count": 28,
      "type": "VEC2",
      "max": [
        0.5078125,
        0.87841796875
      ],
      "min": [
        0.49853515625,
        0.018707275390625
      ]
    },
    {
      "bufferView": 11,
      "componentType": 5126,
      "count": 28,
      "type": "VEC2",
      "max": [
        0.98974609375,
        0.98974609375
      ],
      "min": [
        0.0099945068359375,
        0.5185546875
      ]
    },
    {
      "bufferView": 12,
      "componentType": 5121,
      "count": 54,
      "type": "SCALAR",
      "max": [
        27.0
      ],
      "min": [
        0.0
      ]
    }
  ],
  "buffers": [
    {
      "uri": "HolographicTable.bin",
      "byteLength": 48124
    }
  ],
  "bufferViews": [
    {
      "buffer": 0,
      "byteLength": 9144,
      "byteStride": 12,
      "target": 34962
    },
    {
      "buffer": 0,
      "byteOffset": 9144,
      "byteLength": 9144,
      "byteStride": 12,
      "target": 34962
    },
    {
      "buffer": 0,
      "byteOffset": 18288,
      "byteLength": 12192,
      "target": 34962
    },
    {
      "buffer": 0,
      "byteOffset": 30480,
      "byteLength": 6096,
      "target": 34962
    },
    {
      "buffer": 0,
      "byteOffset": 36576,
      "byteLength": 6096,
      "target": 34962
    },
    {
      "buffer": 0,
      "byteOffset": 42672,
      "byteLength": 3648,
      "target": 34963
    },
    {
      "buffer": 0,
      "byteOffset": 46320,
      "byteLength": 180,
      "target": 34963
    },
    {
      "buffer": 0,
      "byteOffset": 46500,
      "byteLength": 336,
      "byteStride": 12,
      "target": 34962
    },
    {
      "buffer": 0,
      "byteOffset": 46836,
      "byteLength": 336,
      "byteStride": 12,
      "target": 34962
    },
    {
      "buffer": 0,
      "byteOffset": 47172,
      "byteLength": 448,
      "target": 34962
    },
    {
      "buffer": 0,
      "byteOffset": 47620,
      "byteLength": 224,
      "target": 34962
    },
    {
      "buffer": 0,
      "byteOffset": 47844,
      "byteLength": 224,
      "target": 34962
    },
    {
      "buffer": 0,
      "byteOffset": 48068,
      "byteLength": 56,
      "target": 34963
    }
  ],
  "images": [
    {
      "uri": "T_Atlas_normal.jpg",
      "name": "T_Atlas_normal"
    },
    {
      "uri": "T_Atlas_albedo.jpg",
      "name": "T_Atlas_albedo"
    },
    {
      "uri": "T_AllScreeniesA.png",
      "name": "T_AllScreeniesA"
    }
  ],
  "materials": [
    {
      "pbrMetallicRoughness": {
        "baseColorFactor": [
          0.318546683,
          0.318546683,
          0.318546683,
          1.0
        ],
        "baseColorTexture": {
          "index": 1,
          "extensions": {
            "KHR_texture_transform": {
              "texCoord": 0
            }
          }
        },
        "roughnessFactor": 0.68399998545646667
      },
      "normalTexture": {
        "index": 0,
        "extensions": {
          "KHR_texture_transform": {
            "texCoord": 0
          }
        }
      },
      "name": "ConsolePanel"
    },
    {
      "pbrMetallicRoughness": {
        "baseColorFactor": [
          0.6999999,
          0.8,
          0.8999998,
          0.678899
        ],
        "metallicFactor": 0.0,
        "roughnessFactor": 0.55278640985488892
      },
      "alphaMode": "BLEND",
      "name": "M_Glass_Inst"
    },
    {
      "pbrMetallicRoughness": {
        "baseColorFactor": [
          0.0,
          0.897457361,
          1.0,
          1.0
        ],
        "baseColorTexture": {
          "index": 2,
          "extensions": {
            "KHR_texture_transform": {
              "texCoord": 0
            }
          }
        },
        "metallicFactor": 0.0,
        "roughnessFactor": 0.0
      },
      "name": "Screen"
    }
  ],
  "meshes": [
    {
      "primitives": [
        {
          "attributes": {
            "POSITION": 0,
            "NORMAL": 1,
            "TANGENT": 2,
            "TEXCOORD_0": 3,
            "TEXCOORD_1": 4
          },
          "indices": 5,
          "material": 0
        },
        {
          "attributes": {
            "POSITION": 0,
            "NORMAL": 1,
            "TANGENT": 2,
            "TEXCOORD_0": 3,
            "TEXCOORD_1": 4
          },
          "indices": 6,
          "material": 1
        }
      ],
      "name": "HolographicTable"
    },
    {
      "primitives": [
        {
          "attributes": {
            "POSITION": 7,
            "NORMAL": 8,
            "TANGENT": 9,
            "TEXCOORD_0": 10,
            "TEXCOORD_1": 11
          },
          "indices": 12,
          "material": 2
        }
      ],
      "name": "Screen"
    }
  ],
  "nodes": [
    {
      "children": [
        1
      ],
      "mesh": 0,
      "rotation": [
        -0.7071068,
        0.0,
        0.0,
        0.7071068
      ],
      "scale": [
        2.0,
        1.0,
        1.0
      ],
      "translation": [
        8.976697,
        7.99,
        3.09
      ],
      "name": "HolographicTable"
    },
    {
      "mesh": 1,
      "translation": [
        0.0,
        3.7252903E-09,
        0.02
      ],
      "name": "Screen"
    }
  ],
  "samplers": [
    {
      "minFilter": 9987
    }
  ],
  "textures": [
    {
      "sampler": 0,
      "source": 0,
      "name": "T_Atlas_normal"
    },
    {
      "sampler": 0,
      "source": 1,
      "name": "T_Atlas_albedo"
    },
    {
      "sampler": 0,
      "source": 2,
      "name": "T_AllScreeniesA"
    }
  ]
}