{
	"asset":{
		"generator":"Khronos glTF Blender I/O v4.1.63",
		"version":"2.0"
	},
	"scene":0,
	"scenes":[
		{
			"name":"Level 1",
			"nodes":[
				0,
				1,
				2,
				3,
				4,
				5,
				6,
				7,
				8
			]
		}
	],
	"nodes":[
		{
			"mesh":0,
			"name":"OB_canteen",
			"rotation":[
				0,
				-1,
				0,
				1.6292068494294654e-07
			],
			"translation":[
				11.6201171875,
				-0.5534195303916931,
				-11.940471649169922
			]
		},
		{
			"mesh":1,
			"name":"OB_control",
			"translation":[
				-43.67584228515625,
				-0.37997397780418396,
				-7.342472076416016
			]
		},
		{
			"mesh":2,
			"name":"OB_corridor1",
			"translation":[
				44.058746337890625,
				-2.86102294921875e-06,
				-0.2806549072265625
			]
		},
		{
			"mesh":3,
			"name":"OB_corridor2",
			"rotation":[
				0,
				-1,
				0,
				1.6292068494294654e-07
			],
			"translation":[
				-19.628677368164062,
				0.042520467191934586,
				1.22900390625
			]
		},
		{
			"mesh":4,
			"name":"OB_entrance",
			"rotation":[
				0,
				-1,
				0,
				1.6292068494294654e-07
			],
			"translation":[
				59.97362518310547,
				0.0037016868591308594,
				-0.5323715209960938
			]
		},
		{
			"mesh":5,
			"name":"OB_labs",
			"rotation":[
				0,
				-1,
				0,
				7.549787994776125e-08
			],
			"translation":[
				-92.28005981445312,
				-1.2210566997528076,
				-4.0706939697265625
			]
		},
		{
			"mesh":6,
			"name":"OB_patio1",
			"translation":[
				2.5063323974609375,
				0,
				18.719398498535156
			]
		},
		{
			"mesh":7,
			"name":"OB_patio2",
			"translation":[
				9.52728271484375,
				-4.858521938323975,
				-32.954864501953125
			]
		},
		{
			"mesh":8,
			"name":"OB_security",
			"rotation":[
				0,
				-1,
				0,
				1.6292068494294654e-07
			],
			"translation":[
				81.97096252441406,
				0.003706693649291992,
				-4.7633514404296875
			]
		}
	],
	"materials":[
		{
			"doubleSided":true,
			"emissiveFactor":[
				1,
				1,
				1
			],
			"emissiveTexture":{
				"index":0
			},
			"name":"M_Canteen_1.5",
			"normalTexture":{
				"index":1
			},
			"occlusionTexture":{
				"index":2
			},
			"pbrMetallicRoughness":{
				"baseColorTexture":{
					"index":3
				},
				"metallicRoughnessTexture":{
					"index":2
				},
				"roughnessFactor":0.9363639950752258
			}
		},
		{
			"doubleSided":true,
			"emissiveTexture":{
				"index":4
			},
			"name":"M_Labs/Control_1.5",
			"normalTexture":{
				"index":5
			},
			"occlusionTexture":{
				"index":6
			},
			"pbrMetallicRoughness":{
				"baseColorTexture":{
					"index":7
				},
				"metallicRoughnessTexture":{
					"index":6
				},
				"roughnessFactor":0.9363639950752258
			}
		},
		{
			"doubleSided":true,
			"emissiveFactor":[
				1,
				1,
				1
			],
			"emissiveTexture":{
				"index":8
			},
			"name":"M_Corridor/Patio_1.5",
			"normalTexture":{
				"index":9
			},
			"occlusionTexture":{
				"index":10
			},
			"pbrMetallicRoughness":{
				"baseColorTexture":{
					"index":11
				},
				"metallicRoughnessTexture":{
					"index":10
				},
				"roughnessFactor":0.9363639950752258
			}
		},
		{
			"doubleSided":true,
			"emissiveFactor":[
				1,
				1,
				1
			],
			"emissiveTexture":{
				"index":12
			},
			"name":"Entrance/Security_1.5",
			"normalTexture":{
				"index":13
			},
			"occlusionTexture":{
				"index":14
			},
			"pbrMetallicRoughness":{
				"baseColorTexture":{
					"index":15
				},
				"metallicRoughnessTexture":{
					"index":14
				},
				"roughnessFactor":0.9363639950752258
			}
		},
		{
			"doubleSided":true,
			"emissiveFactor":[
				1,
				1,
				1
			],
			"emissiveTexture":{
				"index":16
			},
			"name":"Control",
			"normalTexture":{
				"index":17
			},
			"occlusionTexture":{
				"index":18
			},
			"pbrMetallicRoughness":{
				"baseColorTexture":{
					"index":19
				},
				"metallicRoughnessTexture":{
					"index":18
				},
				"roughnessFactor":0.9363639950752258
			}
		}
	],
	"meshes":[
		{
			"name":"Plane.047",
			"primitives":[
				{
					"attributes":{
						"POSITION":0,
						"NORMAL":1,
						"TEXCOORD_0":2,
						"TANGENT":3
					},
					"indices":4,
					"material":0
				}
			]
		},
		{
			"name":"Plane.048",
			"primitives":[
				{
					"attributes":{
						"POSITION":5,
						"NORMAL":6,
						"TEXCOORD_0":7,
						"TANGENT":8
					},
					"indices":9,
					"material":1
				}
			]
		},
		{
			"name":"Plane.051",
			"primitives":[
				{
					"attributes":{
						"POSITION":10,
						"NORMAL":11,
						"TEXCOORD_0":12,
						"TANGENT":13
					},
					"indices":14,
					"material":2
				}
			]
		},
		{
			"name":"Plane.049",
			"primitives":[
				{
					"attributes":{
						"POSITION":15,
						"NORMAL":16,
						"TEXCOORD_0":17,
						"TANGENT":18
					},
					"indices":19,
					"material":2
				}
			]
		},
		{
			"name":"Plane.054",
			"primitives":[
				{
					"attributes":{
						"POSITION":20,
						"NORMAL":21,
						"TEXCOORD_0":22,
						"TANGENT":23
					},
					"indices":24,
					"material":3
				}
			]
		},
		{
			"name":"Plane.052",
			"primitives":[
				{
					"attributes":{
						"POSITION":25,
						"NORMAL":26,
						"TEXCOORD_0":27,
						"TANGENT":28
					},
					"indices":29,
					"material":4
				}
			]
		},
		{
			"name":"Plane.050",
			"primitives":[
				{
					"attributes":{
						"POSITION":30,
						"NORMAL":31,
						"TEXCOORD_0":32,
						"TANGENT":33
					},
					"indices":34,
					"material":2
				}
			]
		},
		{
			"name":"Plane.056",
			"primitives":[
				{
					"attributes":{
						"POSITION":35,
						"NORMAL":36,
						"TEXCOORD_0":37,
						"TANGENT":38
					},
					"indices":39,
					"material":2
				}
			]
		},
		{
			"name":"Plane.055",
			"primitives":[
				{
					"attributes":{
						"POSITION":40,
						"NORMAL":41,
						"TEXCOORD_0":42,
						"TANGENT":43
					},
					"indices":44,
					"material":3
				}
			]
		}
	],
	"textures":[
		{
			"sampler":0,
			"source":0
		},
		{
			"sampler":0,
			"source":1
		},
		{
			"sampler":0,
			"source":2
		},
		{
			"sampler":0,
			"source":3
		},
		{
			"sampler":0,
			"source":4
		},
		{
			"sampler":0,
			"source":5
		},
		{
			"sampler":0,
			"source":6
		},
		{
			"sampler":0,
			"source":7
		},
		{
			"sampler":0,
			"source":8
		},
		{
			"sampler":0,
			"source":9
		},
		{
			"sampler":0,
			"source":10
		},
		{
			"sampler":0,
			"source":11
		},
		{
			"sampler":0,
			"source":12
		},
		{
			"sampler":0,
			"source":13
		},
		{
			"sampler":0,
			"source":14
		},
		{
			"sampler":0,
			"source":15
		},
		{
			"sampler":0,
			"source":16
		},
		{
			"sampler":0,
			"source":17
		},
		{
			"sampler":0,
			"source":18
		},
		{
			"sampler":0,
			"source":19
		}
	],
	"images":[
		{
			"mimeType":"image/png",
			"name":"Floors_Canteen_Emissive",
			"uri":"Floors_Canteen_Emissive.png"
		},
		{
			"mimeType":"image/png",
			"name":"Floors_Canteen_Normal",
			"uri":"Floors_Canteen_Normal.png"
		},
		{
			"mimeType":"image/png",
			"name":"Floors_Canteen_OcclusionRoughnessMetallic",
			"uri":"Floors_Canteen_OcclusionRoughnessMetallic.png"
		},
		{
			"mimeType":"image/png",
			"name":"Floors_Canteen_BaseColor",
			"uri":"Floors_Canteen_BaseColor.png"
		},
		{
			"mimeType":"image/png",
			"name":"Floors_Labs_Control_Emissive",
			"uri":"Floors_Labs_Control_Emissive.png"
		},
		{
			"mimeType":"image/png",
			"name":"Floors_Labs_Control_Normal",
			"uri":"Floors_Labs_Control_Normal.png"
		},
		{
			"mimeType":"image/png",
			"name":"Floors_Labs_Control_OcclusionRoughnessMetallic",
			"uri":"Floors_Labs_Control_OcclusionRoughnessMetallic.png"
		},
		{
			"mimeType":"image/png",
			"name":"Floors_Labs_Control_BaseColor",
			"uri":"Floors_Labs_Control_BaseColor.png"
		},
		{
			"mimeType":"image/png",
			"name":"Floors_Corridor_Patio_Emissive",
			"uri":"Floors_Corridor_Patio_Emissive.png"
		},
		{
			"mimeType":"image/png",
			"name":"Floors_Corridor_Patio_Normal",
			"uri":"Floors_Corridor_Patio_Normal.png"
		},
		{
			"mimeType":"image/png",
			"name":"Floors_Corridor_Patio_OcclusionRoughnessMetallic",
			"uri":"Floors_Corridor_Patio_OcclusionRoughnessMetallic.png"
		},
		{
			"mimeType":"image/png",
			"name":"Floors_Corridor_Patio_BaseColor",
			"uri":"Floors_Corridor_Patio_BaseColor.png"
		},
		{
			"mimeType":"image/png",
			"name":"Floors_Entrance_Security_Emissive",
			"uri":"Floors_Entrance_Security_Emissive.png"
		},
		{
			"mimeType":"image/png",
			"name":"Floors_Entrance_Security_Normal",
			"uri":"Floors_Entrance_Security_Normal.png"
		},
		{
			"mimeType":"image/png",
			"name":"Floors_Entrance_Security_OcclusionRoughnessMetallic",
			"uri":"Floors_Entrance_Security_OcclusionRoughnessMetallic.png"
		},
		{
			"mimeType":"image/png",
			"name":"Floors_Entrance_Security_BaseColor",
			"uri":"Floors_Entrance_Security_BaseColor.png"
		},
		{
			"mimeType":"image/png",
			"name":"FloorsLevel1_Labs_Control_Emissive",
			"uri":"FloorsLevel1_Labs_Control_Emissive.png"
		},
		{
			"mimeType":"image/png",
			"name":"FloorsLevel1_Control_Normal",
			"uri":"FloorsLevel1_Control_Normal.png"
		},
		{
			"mimeType":"image/png",
			"name":"FloorsLevel1_Labs_Control_OcclusionRoughnessMetallic",
			"uri":"FloorsLevel1_Labs_Control_OcclusionRoughnessMetallic.png"
		},
		{
			"mimeType":"image/png",
			"name":"FloorsLevel1_Labs_Control_BaseColor",
			"uri":"FloorsLevel1_Labs_Control_BaseColor.png"
		}
	],
	"accessors":[
		{
			"bufferView":0,
			"componentType":5126,
			"count":96,
			"max":[
				28.964357376098633,
				0.5571231245994568,
				26.103351593017578
			],
			"min":[
				-27.933591842651367,
				-3.78840970993042,
				-26.519214630126953
			],
			"type":"VEC3"
		},
		{
			"bufferView":1,
			"componentType":5126,
			"count":96,
			"type":"VEC3"
		},
		{
			"bufferView":2,
			"componentType":5126,
			"count":96,
			"type":"VEC2"
		},
		{
			"bufferView":3,
			"componentType":5126,
			"count":96,
			"type":"VEC4"
		},
		{
			"bufferView":4,
			"componentType":5123,
			"count":342,
			"type":"SCALAR"
		},
		{
			"bufferView":5,
			"componentType":5126,
			"count":56,
			"max":[
				18.408536911010742,
				0.395051509141922,
				23.100975036621094
			],
			"min":[
				-18.386659622192383,
				-3.9504806995391846,
				-21.55047607421875
			],
			"type":"VEC3"
		},
		{
			"bufferView":6,
			"componentType":5126,
			"count":56,
			"type":"VEC3"
		},
		{
			"bufferView":7,
			"componentType":5126,
			"count":56,
			"type":"VEC2"
		},
		{
			"bufferView":8,
			"componentType":5126,
			"count":56,
			"type":"VEC4"
		},
		{
			"bufferView":9,
			"componentType":5123,
			"count":180,
			"type":"SCALAR"
		},
		{
			"bufferView":10,
			"componentType":5126,
			"count":12,
			"max":[
				4.505062103271484,
				2.5370836738147773e-06,
				15.826142311096191
			],
			"min":[
				-4.505054473876953,
				-2.5784056560951285e-06,
				-15.572508811950684
			],
			"type":"VEC3"
		},
		{
			"bufferView":11,
			"componentType":5126,
			"count":12,
			"type":"VEC3"
		},
		{
			"bufferView":12,
			"componentType":5126,
			"count":12,
			"type":"VEC2"
		},
		{
			"bufferView":13,
			"componentType":5126,
			"count":12,
			"type":"VEC4"
		},
		{
			"bufferView":14,
			"componentType":5123,
			"count":30,
			"type":"SCALAR"
		},
		{
			"bufferView":15,
			"componentType":5126,
			"count":20,
			"max":[
				5.61898946762085,
				2.3809823233023053e-06,
				30.03707504272461
			],
			"min":[
				-5.236692905426025,
				-4.8936599341686815e-06,
				-14.614364624023438
			],
			"type":"VEC3"
		},
		{
			"bufferView":16,
			"componentType":5126,
			"count":20,
			"type":"VEC3"
		},
		{
			"bufferView":17,
			"componentType":5126,
			"count":20,
			"type":"VEC2"
		},
		{
			"bufferView":18,
			"componentType":5126,
			"count":20,
			"type":"VEC4"
		},
		{
			"bufferView":19,
			"componentType":5123,
			"count":63,
			"type":"SCALAR"
		},
		{
			"bufferView":20,
			"componentType":5126,
			"count":84,
			"max":[
				11.398202896118164,
				2.482558329575113e-06,
				28.611125946044922
			],
			"min":[
				-29.311750411987305,
				-4.661343155021314e-06,
				-15.237838745117188
			],
			"type":"VEC3"
		},
		{
			"bufferView":21,
			"componentType":5126,
			"count":84,
			"type":"VEC3"
		},
		{
			"bufferView":22,
			"componentType":5126,
			"count":84,
			"type":"VEC2"
		},
		{
			"bufferView":23,
			"componentType":5126,
			"count":84,
			"type":"VEC4"
		},
		{
			"bufferView":24,
			"componentType":5123,
			"count":396,
			"type":"SCALAR"
		},
		{
			"bufferView":25,
			"componentType":5126,
			"count":179,
			"max":[
				41.081974029541016,
				1.2210605144500732,
				24.940216064453125
			],
			"min":[
				-30.28513526916504,
				-3.124474048614502,
				-19.71125030517578
			],
			"type":"VEC3"
		},
		{
			"bufferView":26,
			"componentType":5126,
			"count":179,
			"type":"VEC3"
		},
		{
			"bufferView":27,
			"componentType":5126,
			"count":179,
			"type":"VEC2"
		},
		{
			"bufferView":28,
			"componentType":5126,
			"count":179,
			"type":"VEC4"
		},
		{
			"bufferView":29,
			"componentType":5123,
			"count":534,
			"type":"SCALAR"
		},
		{
			"bufferView":30,
			"componentType":5126,
			"count":67,
			"max":[
				19.88148307800293,
				1.7634577034186805e-06,
				6.426115989685059
			],
			"min":[
				-16.92613410949707,
				-1.0200010538101196,
				-10.824028968811035
			],
			"type":"VEC3"
		},
		{
			"bufferView":31,
			"componentType":5126,
			"count":67,
			"type":"VEC3"
		},
		{
			"bufferView":32,
			"componentType":5126,
			"count":67,
			"type":"VEC2"
		},
		{
			"bufferView":33,
			"componentType":5126,
			"count":67,
			"type":"VEC4"
		},
		{
			"bufferView":34,
			"componentType":5123,
			"count":240,
			"type":"SCALAR"
		},
		{
			"bufferView":35,
			"componentType":5126,
			"count":6,
			"max":[
				9.282864570617676,
				5.711438006983371e-07,
				3.50566029548645
			],
			"min":[
				-11.69690227508545,
				-5.711438006983371e-07,
				-3.505657911300659
			],
			"type":"VEC3"
		},
		{
			"bufferView":36,
			"componentType":5126,
			"count":6,
			"type":"VEC3"
		},
		{
			"bufferView":37,
			"componentType":5126,
			"count":6,
			"type":"VEC2"
		},
		{
			"bufferView":38,
			"componentType":5126,
			"count":6,
			"type":"VEC4"
		},
		{
			"bufferView":39,
			"componentType":5123,
			"count":12,
			"type":"SCALAR"
		},
		{
			"bufferView":40,
			"componentType":5126,
			"count":20,
			"max":[
				7.590384483337402,
				1.9434864952927455e-06,
				24.802154541015625
			],
			"min":[
				-7.590386390686035,
				-4.0407835513178725e-06,
				-11.92903995513916
			],
			"type":"VEC3"
		},
		{
			"bufferView":41,
			"componentType":5126,
			"count":20,
			"type":"VEC3"
		},
		{
			"bufferView":42,
			"componentType":5126,
			"count":20,
			"type":"VEC2"
		},
		{
			"bufferView":43,
			"componentType":5126,
			"count":20,
			"type":"VEC4"
		},
		{
			"bufferView":44,
			"componentType":5123,
			"count":72,
			"type":"SCALAR"
		}
	],
	"bufferViews":[
		{
			"buffer":0,
			"byteLength":1152,
			"byteOffset":0,
			"target":34962
		},
		{
			"buffer":0,
			"byteLength":1152,
			"byteOffset":1152,
			"target":34962
		},
		{
			"buffer":0,
			"byteLength":768,
			"byteOffset":2304,
			"target":34962
		},
		{
			"buffer":0,
			"byteLength":1536,
			"byteOffset":3072,
			"target":34962
		},
		{
			"buffer":0,
			"byteLength":684,
			"byteOffset":4608,
			"target":34963
		},
		{
			"buffer":0,
			"byteLength":672,
			"byteOffset":5292,
			"target":34962
		},
		{
			"buffer":0,
			"byteLength":672,
			"byteOffset":5964,
			"target":34962
		},
		{
			"buffer":0,
			"byteLength":448,
			"byteOffset":6636,
			"target":34962
		},
		{
			"buffer":0,
			"byteLength":896,
			"byteOffset":7084,
			"target":34962
		},
		{
			"buffer":0,
			"byteLength":360,
			"byteOffset":7980,
			"target":34963
		},
		{
			"buffer":0,
			"byteLength":144,
			"byteOffset":8340,
			"target":34962
		},
		{
			"buffer":0,
			"byteLength":144,
			"byteOffset":8484,
			"target":34962
		},
		{
			"buffer":0,
			"byteLength":96,
			"byteOffset":8628,
			"target":34962
		},
		{
			"buffer":0,
			"byteLength":192,
			"byteOffset":8724,
			"target":34962
		},
		{
			"buffer":0,
			"byteLength":60,
			"byteOffset":8916,
			"target":34963
		},
		{
			"buffer":0,
			"byteLength":240,
			"byteOffset":8976,
			"target":34962
		},
		{
			"buffer":0,
			"byteLength":240,
			"byteOffset":9216,
			"target":34962
		},
		{
			"buffer":0,
			"byteLength":160,
			"byteOffset":9456,
			"target":34962
		},
		{
			"buffer":0,
			"byteLength":320,
			"byteOffset":9616,
			"target":34962
		},
		{
			"buffer":0,
			"byteLength":126,
			"byteOffset":9936,
			"target":34963
		},
		{
			"buffer":0,
			"byteLength":1008,
			"byteOffset":10064,
			"target":34962
		},
		{
			"buffer":0,
			"byteLength":1008,
			"byteOffset":11072,
			"target":34962
		},
		{
			"buffer":0,
			"byteLength":672,
			"byteOffset":12080,
			"target":34962
		},
		{
			"buffer":0,
			"byteLength":1344,
			"byteOffset":12752,
			"target":34962
		},
		{
			"buffer":0,
			"byteLength":792,
			"byteOffset":14096,
			"target":34963
		},
		{
			"buffer":0,
			"byteLength":2148,
			"byteOffset":14888,
			"target":34962
		},
		{
			"buffer":0,
			"byteLength":2148,
			"byteOffset":17036,
			"target":34962
		},
		{
			"buffer":0,
			"byteLength":1432,
			"byteOffset":19184,
			"target":34962
		},
		{
			"buffer":0,
			"byteLength":2864,
			"byteOffset":20616,
			"target":34962
		},
		{
			"buffer":0,
			"byteLength":1068,
			"byteOffset":23480,
			"target":34963
		},
		{
			"buffer":0,
			"byteLength":804,
			"byteOffset":24548,
			"target":34962
		},
		{
			"buffer":0,
			"byteLength":804,
			"byteOffset":25352,
			"target":34962
		},
		{
			"buffer":0,
			"byteLength":536,
			"byteOffset":26156,
			"target":34962
		},
		{
			"buffer":0,
			"byteLength":1072,
			"byteOffset":26692,
			"target":34962
		},
		{
			"buffer":0,
			"byteLength":480,
			"byteOffset":27764,
			"target":34963
		},
		{
			"buffer":0,
			"byteLength":72,
			"byteOffset":28244,
			"target":34962
		},
		{
			"buffer":0,
			"byteLength":72,
			"byteOffset":28316,
			"target":34962
		},
		{
			"buffer":0,
			"byteLength":48,
			"byteOffset":28388,
			"target":34962
		},
		{
			"buffer":0,
			"byteLength":96,
			"byteOffset":28436,
			"target":34962
		},
		{
			"buffer":0,
			"byteLength":24,
			"byteOffset":28532,
			"target":34963
		},
		{
			"buffer":0,
			"byteLength":240,
			"byteOffset":28556,
			"target":34962
		},
		{
			"buffer":0,
			"byteLength":240,
			"byteOffset":28796,
			"target":34962
		},
		{
			"buffer":0,
			"byteLength":160,
			"byteOffset":29036,
			"target":34962
		},
		{
			"buffer":0,
			"byteLength":320,
			"byteOffset":29196,
			"target":34962
		},
		{
			"buffer":0,
			"byteLength":144,
			"byteOffset":29516,
			"target":34963
		}
	],
	"samplers":[
		{
			"magFilter":9729,
			"minFilter":9987
		}
	],
	"buffers":[
		{
			"byteLength":29660,
			"uri":"Level_1_Floor.bin"
		}
	]
}
