{
	"asset":{
		"generator":"Khronos glTF Blender I/O v4.0.44",
		"version":"2.0"
	},
	"extensionsUsed":[
		"KHR_materials_specular",
		"KHR_materials_ior"
	],
	"scene":0,
	"scenes":[
		{
			"name":"Joined",
			"nodes":[
				0
			]
		}
	],
	"nodes":[
		{
			"mesh":0,
			"name":"Char_Low"
		}
	],
	"materials":[
		{
			"doubleSided":true,
			"emissiveFactor":[
				1,
				1,
				1
			],
			"emissiveTexture":{
				"index":0
			},
			"extensions":{
				"KHR_materials_specular":{
					"specularColorFactor":[
						2.0,
						2.0,
						2.0
					]
				},
				"KHR_materials_ior":{
					"ior":1.4500000476837158
				}
			},
			"name":"MainCharacter.001",
			"normalTexture":{
				"index":1
			},
			"pbrMetallicRoughness":{
				"baseColorTexture":{
					"index":2
				},
				"metallicRoughnessTexture":{
					"index":3
				}
			}
		}
	],
	"meshes":[
		{
			"name":"Mesh.128",
			"primitives":[
				{
					"attributes":{
						"POSITION":0,
						"NORMAL":1,
						"TEXCOORD_0":2,
						"TEXCOORD_1":3
					},
					"indices":4,
					"material":0
				}
			]
		}
	],
	"textures":[
		{
			"sampler":0,
			"source":0
		},
		{
			"sampler":0,
			"source":1
		},
		{
			"sampler":0,
			"source":2
		},
		{
			"sampler":0,
			"source":3
		}
	],
	"images":[
		{
			"mimeType":"image/png",
			"name":"T_MainCharacter_Emissive",
			"uri":"T_MainCharacter_Emissive.png"
		},
		{
			"mimeType":"image/png",
			"name":"MClow_MainCharacter_Normal",
			"uri":"MClow_MainCharacter_Normal.png"
		},
		{
			"mimeType":"image/png",
			"name":"T_MainCharacter_BaseColour",
			"uri":"T_MainCharacter_BaseColour.png"
		},
		{
			"mimeType":"image/png",
			"name":"T_MainCharacter_Metallic-T_MainCharacter_Roughness",
			"uri":"T_MainCharacter_Metallic-T_MainCharacter_Roughness.png"
		}
	],
	"accessors":[
		{
			"bufferView":0,
			"componentType":5126,
			"count":23202,
			"max":[
				0.4221334159374237,
				1.8779652118682861,
				0.20933781564235687
			],
			"min":[
				-0.4326390326023102,
				0.003853818168863654,
				-0.1748245656490326
			],
			"type":"VEC3"
		},
		{
			"bufferView":1,
			"componentType":5126,
			"count":23202,
			"type":"VEC3"
		},
		{
			"bufferView":2,
			"componentType":5126,
			"count":23202,
			"type":"VEC2"
		},
		{
			"bufferView":3,
			"componentType":5126,
			"count":23202,
			"type":"VEC2"
		},
		{
			"bufferView":4,
			"componentType":5123,
			"count":97083,
			"type":"SCALAR"
		}
	],
	"bufferViews":[
		{
			"buffer":0,
			"byteLength":278424,
			"byteOffset":0,
			"target":34962
		},
		{
			"buffer":0,
			"byteLength":278424,
			"byteOffset":278424,
			"target":34962
		},
		{
			"buffer":0,
			"byteLength":185616,
			"byteOffset":556848,
			"target":34962
		},
		{
			"buffer":0,
			"byteLength":185616,
			"byteOffset":742464,
			"target":34962
		},
		{
			"buffer":0,
			"byteLength":194166,
			"byteOffset":928080,
			"target":34963
		}
	],
	"samplers":[
		{
			"magFilter":9729,
			"minFilter":9987
		}
	],
	"buffers":[
		{
			"byteLength":1122248,
			"uri":"MainCharacterUVs.bin"
		}
	]
}
