{
	"asset":{
		"generator":"Khronos glTF Blender I/O v4.1.63",
		"version":"2.0"
	},
	"scene":0,
	"scenes":[
		{
			"name":"Scene",
			"nodes":[
				3
			]
		}
	],
	"nodes":[
		{
			"name":"Bone"
		},
		{
			"name":"Bone.001",
			"translation":[
				1.9537498950958252,
				0,
				0
			]
		},
		{
			"mesh":0,
			"name":"OB_Animated_Fan",
			"skin":0
		},
		{
			"children":[
				2,
				0,
				1
			],
			"name":"Armature",
			"translation":[
				0.013330280780792236,
				2.5310263633728027,
				0.41402143239974976
			]
		}
	],
	"animations":[
		{
			"channels":[
				{
					"sampler":0,
					"target":{
						"node":0,
						"path":"translation"
					}
				},
				{
					"sampler":1,
					"target":{
						"node":0,
						"path":"rotation"
					}
				},
				{
					"sampler":2,
					"target":{
						"node":0,
						"path":"scale"
					}
				},
				{
					"sampler":3,
					"target":{
						"node":1,
						"path":"translation"
					}
				},
				{
					"sampler":4,
					"target":{
						"node":1,
						"path":"rotation"
					}
				},
				{
					"sampler":5,
					"target":{
						"node":1,
						"path":"scale"
					}
				}
			],
			"name":"ArmatureAction",
			"samplers":[
				{
					"input":8,
					"interpolation":"STEP",
					"output":9
				},
				{
					"input":10,
					"interpolation":"LINEAR",
					"output":11
				},
				{
					"input":8,
					"interpolation":"STEP",
					"output":12
				},
				{
					"input":8,
					"interpolation":"STEP",
					"output":13
				},
				{
					"input":8,
					"interpolation":"STEP",
					"output":14
				},
				{
					"input":8,
					"interpolation":"STEP",
					"output":15
				}
			]
		},
		{
			"channels":[
				{
					"sampler":0,
					"target":{
						"node":0,
						"path":"translation"
					}
				},
				{
					"sampler":1,
					"target":{
						"node":0,
						"path":"rotation"
					}
				},
				{
					"sampler":2,
					"target":{
						"node":0,
						"path":"scale"
					}
				},
				{
					"sampler":3,
					"target":{
						"node":1,
						"path":"translation"
					}
				},
				{
					"sampler":4,
					"target":{
						"node":1,
						"path":"rotation"
					}
				},
				{
					"sampler":5,
					"target":{
						"node":1,
						"path":"scale"
					}
				}
			],
			"name":"Armature|Take 001|BaseLayer",
			"samplers":[
				{
					"input":16,
					"interpolation":"STEP",
					"output":17
				},
				{
					"input":16,
					"interpolation":"STEP",
					"output":18
				},
				{
					"input":16,
					"interpolation":"STEP",
					"output":19
				},
				{
					"input":16,
					"interpolation":"STEP",
					"output":20
				},
				{
					"input":16,
					"interpolation":"STEP",
					"output":21
				},
				{
					"input":16,
					"interpolation":"STEP",
					"output":22
				}
			]
		},
		{
			"channels":[
				{
					"sampler":0,
					"target":{
						"node":0,
						"path":"translation"
					}
				},
				{
					"sampler":1,
					"target":{
						"node":0,
						"path":"rotation"
					}
				},
				{
					"sampler":2,
					"target":{
						"node":0,
						"path":"scale"
					}
				},
				{
					"sampler":3,
					"target":{
						"node":1,
						"path":"translation"
					}
				},
				{
					"sampler":4,
					"target":{
						"node":1,
						"path":"rotation"
					}
				},
				{
					"sampler":5,
					"target":{
						"node":1,
						"path":"scale"
					}
				}
			],
			"name":"Armature|Take 001|BaseLayer.001",
			"samplers":[
				{
					"input":16,
					"interpolation":"STEP",
					"output":23
				},
				{
					"input":16,
					"interpolation":"STEP",
					"output":24
				},
				{
					"input":16,
					"interpolation":"STEP",
					"output":25
				},
				{
					"input":16,
					"interpolation":"STEP",
					"output":26
				},
				{
					"input":16,
					"interpolation":"STEP",
					"output":27
				},
				{
					"input":16,
					"interpolation":"STEP",
					"output":28
				}
			]
		}
	],
	"materials":[
		{
			"doubleSided":true,
			"emissiveFactor":[
				1,
				1,
				1
			],
			"emissiveTexture":{
				"index":0
			},
			"name":"M_Industrial_Fan",
			"normalTexture":{
				"index":1
			},
			"occlusionTexture":{
				"index":2
			},
			"pbrMetallicRoughness":{
				"baseColorTexture":{
					"index":3
				},
				"metallicRoughnessTexture":{
					"index":2
				}
			}
		}
	],
	"meshes":[
		{
			"name":"Mesh.023",
			"primitives":[
				{
					"attributes":{
						"POSITION":0,
						"NORMAL":1,
						"TEXCOORD_0":2,
						"TANGENT":3,
						"JOINTS_0":4,
						"WEIGHTS_0":5
					},
					"indices":6,
					"material":0
				}
			]
		}
	],
	"textures":[
		{
			"sampler":0,
			"source":0
		},
		{
			"sampler":0,
			"source":1
		},
		{
			"sampler":0,
			"source":2
		},
		{
			"sampler":0,
			"source":3
		}
	],
	"images":[
		{
			"mimeType":"image/png",
			"name":"T_Industrial_Fan_Emissive.png",
			"uri":"T_Industrial_Fan_Emissive_png.png"
		},
		{
			"mimeType":"image/png",
			"name":"T_Industrial_Fan_Normal.png",
			"uri":"T_Industrial_Fan_Normal_png.png"
		},
		{
			"mimeType":"image/png",
			"name":"T_Industrial_Fan_OcclusionRoughnessMetallic.png",
			"uri":"T_Industrial_Fan_OcclusionRoughnessMetallic_png.png"
		},
		{
			"mimeType":"image/png",
			"name":"T_Industrial_Fan_BaseColor.png",
			"uri":"T_Industrial_Fan_BaseColor_png.png"
		}
	],
	"skins":[
		{
			"inverseBindMatrices":7,
			"joints":[
				0,
				1
			],
			"name":"Armature"
		}
	],
	"accessors":[
		{
			"bufferView":0,
			"componentType":5126,
			"count":947,
			"max":[
				2.392108201980591,
				4.883416652679443,
				0.9188159108161926
			],
			"min":[
				-2.39210844039917,
				0.09919924288988113,
				-0.008613260462880135
			],
			"type":"VEC3"
		},
		{
			"bufferView":1,
			"componentType":5126,
			"count":947,
			"type":"VEC3"
		},
		{
			"bufferView":2,
			"componentType":5126,
			"count":947,
			"type":"VEC2"
		},
		{
			"bufferView":3,
			"componentType":5126,
			"count":947,
			"type":"VEC4"
		},
		{
			"bufferView":4,
			"componentType":5121,
			"count":947,
			"type":"VEC4"
		},
		{
			"bufferView":5,
			"componentType":5126,
			"count":947,
			"type":"VEC4"
		},
		{
			"bufferView":6,
			"componentType":5123,
			"count":1794,
			"type":"SCALAR"
		},
		{
			"bufferView":7,
			"componentType":5126,
			"count":2,
			"type":"MAT4"
		},
		{
			"bufferView":8,
			"componentType":5126,
			"count":2,
			"max":[
				3.3333333333333335
			],
			"min":[
				0
			],
			"type":"SCALAR"
		},
		{
			"bufferView":9,
			"componentType":5126,
			"count":2,
			"type":"VEC3"
		},
		{
			"bufferView":10,
			"componentType":5126,
			"count":81,
			"max":[
				3.3333333333333335
			],
			"min":[
				0
			],
			"type":"SCALAR"
		},
		{
			"bufferView":11,
			"componentType":5126,
			"count":81,
			"type":"VEC4"
		},
		{
			"bufferView":12,
			"componentType":5126,
			"count":2,
			"type":"VEC3"
		},
		{
			"bufferView":13,
			"componentType":5126,
			"count":2,
			"type":"VEC3"
		},
		{
			"bufferView":14,
			"componentType":5126,
			"count":2,
			"type":"VEC4"
		},
		{
			"bufferView":15,
			"componentType":5126,
			"count":2,
			"type":"VEC3"
		},
		{
			"bufferView":16,
			"componentType":5126,
			"count":2,
			"max":[
				16.708333333333332
			],
			"min":[
				0.041666666666666664
			],
			"type":"SCALAR"
		},
		{
			"bufferView":17,
			"componentType":5126,
			"count":2,
			"type":"VEC3"
		},
		{
			"bufferView":18,
			"componentType":5126,
			"count":2,
			"type":"VEC4"
		},
		{
			"bufferView":19,
			"componentType":5126,
			"count":2,
			"type":"VEC3"
		},
		{
			"bufferView":20,
			"componentType":5126,
			"count":2,
			"type":"VEC3"
		},
		{
			"bufferView":21,
			"componentType":5126,
			"count":2,
			"type":"VEC4"
		},
		{
			"bufferView":22,
			"componentType":5126,
			"count":2,
			"type":"VEC3"
		},
		{
			"bufferView":23,
			"componentType":5126,
			"count":2,
			"type":"VEC3"
		},
		{
			"bufferView":24,
			"componentType":5126,
			"count":2,
			"type":"VEC4"
		},
		{
			"bufferView":25,
			"componentType":5126,
			"count":2,
			"type":"VEC3"
		},
		{
			"bufferView":26,
			"componentType":5126,
			"count":2,
			"type":"VEC3"
		},
		{
			"bufferView":27,
			"componentType":5126,
			"count":2,
			"type":"VEC4"
		},
		{
			"bufferView":28,
			"componentType":5126,
			"count":2,
			"type":"VEC3"
		}
	],
	"bufferViews":[
		{
			"buffer":0,
			"byteLength":11364,
			"byteOffset":0,
			"target":34962
		},
		{
			"buffer":0,
			"byteLength":11364,
			"byteOffset":11364,
			"target":34962
		},
		{
			"buffer":0,
			"byteLength":7576,
			"byteOffset":22728,
			"target":34962
		},
		{
			"buffer":0,
			"byteLength":15152,
			"byteOffset":30304,
			"target":34962
		},
		{
			"buffer":0,
			"byteLength":3788,
			"byteOffset":45456,
			"target":34962
		},
		{
			"buffer":0,
			"byteLength":15152,
			"byteOffset":49244,
			"target":34962
		},
		{
			"buffer":0,
			"byteLength":3588,
			"byteOffset":64396,
			"target":34963
		},
		{
			"buffer":0,
			"byteLength":128,
			"byteOffset":67984
		},
		{
			"buffer":0,
			"byteLength":8,
			"byteOffset":68112
		},
		{
			"buffer":0,
			"byteLength":24,
			"byteOffset":68120
		},
		{
			"buffer":0,
			"byteLength":324,
			"byteOffset":68144
		},
		{
			"buffer":0,
			"byteLength":1296,
			"byteOffset":68468
		},
		{
			"buffer":0,
			"byteLength":24,
			"byteOffset":69764
		},
		{
			"buffer":0,
			"byteLength":24,
			"byteOffset":69788
		},
		{
			"buffer":0,
			"byteLength":32,
			"byteOffset":69812
		},
		{
			"buffer":0,
			"byteLength":24,
			"byteOffset":69844
		},
		{
			"buffer":0,
			"byteLength":8,
			"byteOffset":69868
		},
		{
			"buffer":0,
			"byteLength":24,
			"byteOffset":69876
		},
		{
			"buffer":0,
			"byteLength":32,
			"byteOffset":69900
		},
		{
			"buffer":0,
			"byteLength":24,
			"byteOffset":69932
		},
		{
			"buffer":0,
			"byteLength":24,
			"byteOffset":69956
		},
		{
			"buffer":0,
			"byteLength":32,
			"byteOffset":69980
		},
		{
			"buffer":0,
			"byteLength":24,
			"byteOffset":70012
		},
		{
			"buffer":0,
			"byteLength":24,
			"byteOffset":70036
		},
		{
			"buffer":0,
			"byteLength":32,
			"byteOffset":70060
		},
		{
			"buffer":0,
			"byteLength":24,
			"byteOffset":70092
		},
		{
			"buffer":0,
			"byteLength":24,
			"byteOffset":70116
		},
		{
			"buffer":0,
			"byteLength":32,
			"byteOffset":70140
		},
		{
			"buffer":0,
			"byteLength":24,
			"byteOffset":70172
		}
	],
	"samplers":[
		{
			"magFilter":9729,
			"minFilter":9987
		}
	],
	"buffers":[
		{
			"byteLength":70196,
			"uri":"OB_Animated_Fan.bin"
		}
	]
}
