{
    "asset" : {
        "generator" : "Khronos glTF Blender I/O v3.2.40",
        "version" : "2.0"
    },
    "scene" : 0,
    "scenes" : [
        {
            "name" : "Scene",
            "nodes" : [
                5
            ]
        }
    ],
    "nodes" : [
        {
            "name" : "circle_1_skn",
            "rotation" : [
                7.105427357601002e-15,
                0,
                0,
                1
            ],
            "translation" : [
                0,
                29.253768920898438,
                4.547473508864641e-13
            ]
        },
        {
            "name" : "circle_2_skn",
            "rotation" : [
                7.105427357601002e-15,
                0,
                0,
                1
            ],
            "translation" : [
                0,
                83.64675903320312,
                1.8189894035458565e-12
            ]
        },
        {
            "name" : "shield_skn",
            "rotation" : [
                7.105427357601002e-15,
                0,
                0,
                1
            ],
            "translation" : [
                0,
                349.0302429199219,
                7.275957614183426e-12
            ]
        },
        {
            "children" : [
                0,
                1,
                2
            ],
            "name" : "root",
            "rotation" : [
                -0.7071068286895752,
                0,
                0,
                0.7071068286895752
            ]
        },
        {
            "mesh" : 0,
            "name" : "OB_collecteable_shield.001",
            "skin" : 0
        },
        {
            "children" : [
                4,
                3
            ],
            "name" : "Armature",
            "rotation" : [
                0.7071068286895752,
                0,
                0,
                0.7071067094802856
            ],
            "scale" : [
                0.009999999776482582,
                0.009999999776482582,
                0.009999999776482582
            ]
        }
    ],
    "animations" : [
        {
            "channels" : [
                {
                    "sampler" : 0,
                    "target" : {
                        "node" : 3,
                        "path" : "translation"
                    }
                },
                {
                    "sampler" : 1,
                    "target" : {
                        "node" : 3,
                        "path" : "rotation"
                    }
                },
                {
                    "sampler" : 2,
                    "target" : {
                        "node" : 3,
                        "path" : "scale"
                    }
                },
                {
                    "sampler" : 3,
                    "target" : {
                        "node" : 0,
                        "path" : "translation"
                    }
                },
                {
                    "sampler" : 4,
                    "target" : {
                        "node" : 0,
                        "path" : "rotation"
                    }
                },
                {
                    "sampler" : 5,
                    "target" : {
                        "node" : 0,
                        "path" : "scale"
                    }
                },
                {
                    "sampler" : 6,
                    "target" : {
                        "node" : 1,
                        "path" : "translation"
                    }
                },
                {
                    "sampler" : 7,
                    "target" : {
                        "node" : 1,
                        "path" : "rotation"
                    }
                },
                {
                    "sampler" : 8,
                    "target" : {
                        "node" : 1,
                        "path" : "scale"
                    }
                },
                {
                    "sampler" : 9,
                    "target" : {
                        "node" : 2,
                        "path" : "translation"
                    }
                },
                {
                    "sampler" : 10,
                    "target" : {
                        "node" : 2,
                        "path" : "rotation"
                    }
                },
                {
                    "sampler" : 11,
                    "target" : {
                        "node" : 2,
                        "path" : "scale"
                    }
                }
            ],
            "name" : "Armature|Take 001|BaseLayer",
            "samplers" : [
                {
                    "input" : 8,
                    "interpolation" : "LINEAR",
                    "output" : 9
                },
                {
                    "input" : 8,
                    "interpolation" : "LINEAR",
                    "output" : 10
                },
                {
                    "input" : 8,
                    "interpolation" : "LINEAR",
                    "output" : 11
                },
                {
                    "input" : 8,
                    "interpolation" : "LINEAR",
                    "output" : 12
                },
                {
                    "input" : 8,
                    "interpolation" : "LINEAR",
                    "output" : 13
                },
                {
                    "input" : 8,
                    "interpolation" : "LINEAR",
                    "output" : 14
                },
                {
                    "input" : 8,
                    "interpolation" : "LINEAR",
                    "output" : 15
                },
                {
                    "input" : 8,
                    "interpolation" : "LINEAR",
                    "output" : 16
                },
                {
                    "input" : 8,
                    "interpolation" : "LINEAR",
                    "output" : 17
                },
                {
                    "input" : 8,
                    "interpolation" : "LINEAR",
                    "output" : 18
                },
                {
                    "input" : 8,
                    "interpolation" : "LINEAR",
                    "output" : 19
                },
                {
                    "input" : 8,
                    "interpolation" : "LINEAR",
                    "output" : 20
                }
            ]
        },
        {
            "channels" : [
                {
                    "sampler" : 0,
                    "target" : {
                        "node" : 4,
                        "path" : "translation"
                    }
                },
                {
                    "sampler" : 1,
                    "target" : {
                        "node" : 4,
                        "path" : "rotation"
                    }
                },
                {
                    "sampler" : 2,
                    "target" : {
                        "node" : 4,
                        "path" : "scale"
                    }
                }
            ],
            "name" : "OB_collecteable_shield.001",
            "samplers" : [
                {
                    "input" : 8,
                    "interpolation" : "LINEAR",
                    "output" : 21
                },
                {
                    "input" : 8,
                    "interpolation" : "LINEAR",
                    "output" : 22
                },
                {
                    "input" : 8,
                    "interpolation" : "LINEAR",
                    "output" : 23
                }
            ]
        }
    ],
    "materials" : [
        {
            "doubleSided" : true,
            "emissiveFactor" : [
                1,
                1,
                1
            ],
            "emissiveTexture" : {
                "index" : 0
            },
            "name" : "UV",
            "normalTexture" : {
                "index" : 1
            },
            "pbrMetallicRoughness" : {
                "baseColorTexture" : {
                    "index" : 2
                },
                "metallicRoughnessTexture" : {
                    "index" : 3
                }
            }
        }
    ],
    "meshes" : [
        {
            "name" : "Mesh",
            "primitives" : [
                {
                    "attributes" : {
                        "POSITION" : 0,
                        "NORMAL" : 1,
                        "TANGENT" : 2,
                        "TEXCOORD_0" : 3,
                        "JOINTS_0" : 4,
                        "WEIGHTS_0" : 5
                    },
                    "indices" : 6,
                    "material" : 0
                }
            ]
        }
    ],
    "textures" : [
        {
            "sampler" : 0,
            "source" : 0
        },
        {
            "sampler" : 0,
            "source" : 1
        },
        {
            "sampler" : 0,
            "source" : 2
        },
        {
            "sampler" : 0,
            "source" : 3
        }
    ],
    "images" : [
        {
            "mimeType" : "image/png",
            "name" : "OB_shield_particle_UV_Emissive",
            "uri" : "OB_shield_particle_UV_Emissive.png"
        },
        {
            "mimeType" : "image/png",
            "name" : "OB_shield_particle_UV_Normal",
            "uri" : "OB_shield_particle_UV_Normal.png"
        },
        {
            "mimeType" : "image/png",
            "name" : "OB_shield_particle_UV_BaseColor",
            "uri" : "OB_shield_particle_UV_BaseColor.png"
        },
        {
            "mimeType" : "image/png",
            "name" : "OB_shield_particle_UV_OcclusionRoughnessMetallic",
            "uri" : "OB_shield_particle_UV_OcclusionRoughnessMetallic.png"
        }
    ],
    "skins" : [
        {
            "inverseBindMatrices" : 7,
            "joints" : [
                3,
                0,
                1,
                2
            ],
            "name" : "Armature"
        }
    ],
    "accessors" : [
        {
            "bufferView" : 0,
            "componentType" : 5126,
            "count" : 658,
            "max" : [
                2.2298598289489746,
                5.525122165679932,
                2.2298595905303955
            ],
            "min" : [
                -2.2298598289489746,
                -0.08261445164680481,
                -2.2298598289489746
            ],
            "type" : "VEC3"
        },
        {
            "bufferView" : 1,
            "componentType" : 5126,
            "count" : 658,
            "type" : "VEC3"
        },
        {
            "bufferView" : 2,
            "componentType" : 5126,
            "count" : 658,
            "type" : "VEC4"
        },
        {
            "bufferView" : 3,
            "componentType" : 5126,
            "count" : 658,
            "type" : "VEC2"
        },
        {
            "bufferView" : 4,
            "componentType" : 5121,
            "count" : 658,
            "type" : "VEC4"
        },
        {
            "bufferView" : 5,
            "componentType" : 5126,
            "count" : 658,
            "type" : "VEC4"
        },
        {
            "bufferView" : 6,
            "componentType" : 5123,
            "count" : 1428,
            "type" : "SCALAR"
        },
        {
            "bufferView" : 7,
            "componentType" : 5126,
            "count" : 4,
            "type" : "MAT4"
        },
        {
            "bufferView" : 8,
            "componentType" : 5126,
            "count" : 401,
            "max" : [
                13.366666666666667
            ],
            "min" : [
                0.03333333333333333
            ],
            "type" : "SCALAR"
        },
        {
            "bufferView" : 9,
            "componentType" : 5126,
            "count" : 401,
            "type" : "VEC3"
        },
        {
            "bufferView" : 10,
            "componentType" : 5126,
            "count" : 401,
            "type" : "VEC4"
        },
        {
            "bufferView" : 11,
            "componentType" : 5126,
            "count" : 401,
            "type" : "VEC3"
        },
        {
            "bufferView" : 12,
            "componentType" : 5126,
            "count" : 401,
            "type" : "VEC3"
        },
        {
            "bufferView" : 13,
            "componentType" : 5126,
            "count" : 401,
            "type" : "VEC4"
        },
        {
            "bufferView" : 14,
            "componentType" : 5126,
            "count" : 401,
            "type" : "VEC3"
        },
        {
            "bufferView" : 15,
            "componentType" : 5126,
            "count" : 401,
            "type" : "VEC3"
        },
        {
            "bufferView" : 16,
            "componentType" : 5126,
            "count" : 401,
            "type" : "VEC4"
        },
        {
            "bufferView" : 17,
            "componentType" : 5126,
            "count" : 401,
            "type" : "VEC3"
        },
        {
            "bufferView" : 18,
            "componentType" : 5126,
            "count" : 401,
            "type" : "VEC3"
        },
        {
            "bufferView" : 19,
            "componentType" : 5126,
            "count" : 401,
            "type" : "VEC4"
        },
        {
            "bufferView" : 20,
            "componentType" : 5126,
            "count" : 401,
            "type" : "VEC3"
        },
        {
            "bufferView" : 21,
            "componentType" : 5126,
            "count" : 401,
            "type" : "VEC3"
        },
        {
            "bufferView" : 22,
            "componentType" : 5126,
            "count" : 401,
            "type" : "VEC4"
        },
        {
            "bufferView" : 23,
            "componentType" : 5126,
            "count" : 401,
            "type" : "VEC3"
        }
    ],
    "bufferViews" : [
        {
            "buffer" : 0,
            "byteLength" : 7896,
            "byteOffset" : 0
        },
        {
            "buffer" : 0,
            "byteLength" : 7896,
            "byteOffset" : 7896
        },
        {
            "buffer" : 0,
            "byteLength" : 10528,
            "byteOffset" : 15792
        },
        {
            "buffer" : 0,
            "byteLength" : 5264,
            "byteOffset" : 26320
        },
        {
            "buffer" : 0,
            "byteLength" : 2632,
            "byteOffset" : 31584
        },
        {
            "buffer" : 0,
            "byteLength" : 10528,
            "byteOffset" : 34216
        },
        {
            "buffer" : 0,
            "byteLength" : 2856,
            "byteOffset" : 44744
        },
        {
            "buffer" : 0,
            "byteLength" : 256,
            "byteOffset" : 47600
        },
        {
            "buffer" : 0,
            "byteLength" : 1604,
            "byteOffset" : 47856
        },
        {
            "buffer" : 0,
            "byteLength" : 4812,
            "byteOffset" : 49460
        },
        {
            "buffer" : 0,
            "byteLength" : 6416,
            "byteOffset" : 54272
        },
        {
            "buffer" : 0,
            "byteLength" : 4812,
            "byteOffset" : 60688
        },
        {
            "buffer" : 0,
            "byteLength" : 4812,
            "byteOffset" : 65500
        },
        {
            "buffer" : 0,
            "byteLength" : 6416,
            "byteOffset" : 70312
        },
        {
            "buffer" : 0,
            "byteLength" : 4812,
            "byteOffset" : 76728
        },
        {
            "buffer" : 0,
            "byteLength" : 4812,
            "byteOffset" : 81540
        },
        {
            "buffer" : 0,
            "byteLength" : 6416,
            "byteOffset" : 86352
        },
        {
            "buffer" : 0,
            "byteLength" : 4812,
            "byteOffset" : 92768
        },
        {
            "buffer" : 0,
            "byteLength" : 4812,
            "byteOffset" : 97580
        },
        {
            "buffer" : 0,
            "byteLength" : 6416,
            "byteOffset" : 102392
        },
        {
            "buffer" : 0,
            "byteLength" : 4812,
            "byteOffset" : 108808
        },
        {
            "buffer" : 0,
            "byteLength" : 4812,
            "byteOffset" : 113620
        },
        {
            "buffer" : 0,
            "byteLength" : 6416,
            "byteOffset" : 118432
        },
        {
            "buffer" : 0,
            "byteLength" : 4812,
            "byteOffset" : 124848
        }
    ],
    "samplers" : [
        {
            "magFilter" : 9729,
            "minFilter" : 9987
        }
    ],
    "buffers" : [
        {
            "byteLength" : 129660,
            "uri" : "OB_collecteable_shield.bin"
        }
    ]
}
