{
	"asset":{
		"generator":"Khronos glTF Blender I/O v4.1.63",
		"version":"2.0"
	},
	"scene":0,
	"scenes":[
		{
			"name":"Scene",
			"nodes":[
				0
			]
		}
	],
	"nodes":[
		{
			"mesh":0,
			"name":"OB_cocoon",
			"scale":[
				1.1574389934539795,
				1.0881842374801636,
				1.1293834447860718
			],
			"translation":[
				0,
				-0.3628583252429962,
				0
			]
		}
	],
	"materials":[
		{
			"doubleSided":true,
			"emissiveFactor":[
				1,
				1,
				1
			],
			"emissiveTexture":{
				"index":0
			},
			"name":"T_cocoon",
			"normalTexture":{
				"index":1
			},
			"occlusionTexture":{
				"index":2
			},
			"pbrMetallicRoughness":{
				"baseColorTexture":{
					"index":3
				},
				"metallicRoughnessTexture":{
					"index":2
				}
			}
		}
	],
	"meshes":[
		{
			"name":"Icosphere",
			"primitives":[
				{
					"attributes":{
						"POSITION":0,
						"NORMAL":1,
						"TEXCOORD_0":2,
						"TANGENT":3
					},
					"indices":4,
					"material":0
				}
			]
		}
	],
	"textures":[
		{
			"sampler":0,
			"source":0
		},
		{
			"sampler":0,
			"source":1
		},
		{
			"sampler":0,
			"source":2
		},
		{
			"sampler":0,
			"source":3
		}
	],
	"images":[
		{
			"mimeType":"image/png",
			"name":"OB_cocoon_DefaultMaterial_Emissive",
			"uri":"OB_cocoon_DefaultMaterial_Emissive.png"
		},
		{
			"mimeType":"image/png",
			"name":"OB_cocoon_DefaultMaterial_Normal",
			"uri":"OB_cocoon_DefaultMaterial_Normal.png"
		},
		{
			"mimeType":"image/png",
			"name":"OB_cocoon_DefaultMaterial_OcclusionRoughnessMetallic",
			"uri":"OB_cocoon_DefaultMaterial_OcclusionRoughnessMetallic.png"
		},
		{
			"mimeType":"image/png",
			"name":"OB_cocoon_DefaultMaterial_BaseColor",
			"uri":"OB_cocoon_DefaultMaterial_BaseColor.png"
		}
	],
	"accessors":[
		{
			"bufferView":0,
			"componentType":5126,
			"count":5073,
			"max":[
				3.5775654315948486,
				3.9114489555358887,
				3.549388885498047
			],
			"min":[
				-3.582615852355957,
				-2.8434207439422607,
				-3.656853199005127
			],
			"type":"VEC3"
		},
		{
			"bufferView":1,
			"componentType":5126,
			"count":5073,
			"type":"VEC3"
		},
		{
			"bufferView":2,
			"componentType":5126,
			"count":5073,
			"type":"VEC2"
		},
		{
			"bufferView":3,
			"componentType":5126,
			"count":5073,
			"type":"VEC4"
		},
		{
			"bufferView":4,
			"componentType":5123,
			"count":7443,
			"type":"SCALAR"
		}
	],
	"bufferViews":[
		{
			"buffer":0,
			"byteLength":60876,
			"byteOffset":0,
			"target":34962
		},
		{
			"buffer":0,
			"byteLength":60876,
			"byteOffset":60876,
			"target":34962
		},
		{
			"buffer":0,
			"byteLength":40584,
			"byteOffset":121752,
			"target":34962
		},
		{
			"buffer":0,
			"byteLength":81168,
			"byteOffset":162336,
			"target":34962
		},
		{
			"buffer":0,
			"byteLength":14886,
			"byteOffset":243504,
			"target":34963
		}
	],
	"samplers":[
		{
			"magFilter":9729,
			"minFilter":9987
		}
	],
	"buffers":[
		{
			"byteLength":258392,
			"uri":"OB_cocoon.bin"
		}
	]
}
