{
	"asset":{
		"generator":"Khronos glTF Blender I/O v4.1.63",
		"version":"2.0"
	},
	"scene":0,
	"scenes":[
		{
			"name":"Scene",
			"nodes":[
				5
			]
		}
	],
	"nodes":[
		{
			"name":"InnerPannels",
			"rotation":[
				-2.5121478909004595e-15,
				2.994713653207373e-22,
				-0.7071067094802856,
				0.7071068286895752
			],
			"scale":[
				0.9999999403953552,
				0.9999999403953552,
				1
			],
			"translation":[
				465.85784912109375,
				6.103515625e-05,
				-9.094947017729282e-13
			]
		},
		{
			"name":"OuterPannels",
			"rotation":[
				-2.5121478909004595e-15,
				2.994713653207373e-22,
				-0.7071067094802856,
				0.7071068286895752
			],
			"scale":[
				0.9999999403953552,
				0.9999999403953552,
				1
			],
			"translation":[
				591.7649536132812,
				6.103515625e-05,
				-1.8189894035458565e-12
			]
		},
		{
			"name":"Cristal",
			"rotation":[
				-0.1545148640871048,
				-0.154514878988266,
				-0.6900182366371155,
				0.6900182962417603
			],
			"scale":[
				0.9999998807907104,
				0.9999999403953552,
				0.9999999403953552
			],
			"translation":[
				341.2568359375,
				3.0517578125e-05,
				-1.4210854715202004e-14
			]
		},
		{
			"children":[
				0,
				1,
				2
			],
			"name":"root",
			"rotation":[
				-0.5,
				0.5,
				0.5,
				0.5
			],
			"scale":[
				0.9999998807907104,
				0.9999998807907104,
				1
			],
			"translation":[
				0,
				0,
				339.4150085449219
			]
		},
		{
			"mesh":0,
			"name":"OB_cocoon",
			"skin":0
		},
		{
			"children":[
				4,
				3
			],
			"name":"Armature",
			"rotation":[
				0.7071068286895752,
				0,
				0,
				0.7071068286895752
			],
			"scale":[
				0.009999999776482582,
				0.009999999776482582,
				0.009999999776482582
			]
		}
	],
	"animations":[
		{
			"channels":[
				{
					"sampler":0,
					"target":{
						"node":3,
						"path":"translation"
					}
				},
				{
					"sampler":1,
					"target":{
						"node":3,
						"path":"rotation"
					}
				},
				{
					"sampler":2,
					"target":{
						"node":3,
						"path":"scale"
					}
				},
				{
					"sampler":3,
					"target":{
						"node":0,
						"path":"translation"
					}
				},
				{
					"sampler":4,
					"target":{
						"node":0,
						"path":"rotation"
					}
				},
				{
					"sampler":5,
					"target":{
						"node":0,
						"path":"scale"
					}
				},
				{
					"sampler":6,
					"target":{
						"node":1,
						"path":"translation"
					}
				},
				{
					"sampler":7,
					"target":{
						"node":1,
						"path":"rotation"
					}
				},
				{
					"sampler":8,
					"target":{
						"node":1,
						"path":"scale"
					}
				},
				{
					"sampler":9,
					"target":{
						"node":2,
						"path":"translation"
					}
				},
				{
					"sampler":10,
					"target":{
						"node":2,
						"path":"rotation"
					}
				},
				{
					"sampler":11,
					"target":{
						"node":2,
						"path":"scale"
					}
				}
			],
			"name":"Armature|Take 001|BaseLayer",
			"samplers":[
				{
					"input":8,
					"interpolation":"STEP",
					"output":9
				},
				{
					"input":8,
					"interpolation":"STEP",
					"output":10
				},
				{
					"input":8,
					"interpolation":"STEP",
					"output":11
				},
				{
					"input":8,
					"interpolation":"STEP",
					"output":12
				},
				{
					"input":13,
					"interpolation":"LINEAR",
					"output":14
				},
				{
					"input":13,
					"interpolation":"LINEAR",
					"output":15
				},
				{
					"input":8,
					"interpolation":"STEP",
					"output":16
				},
				{
					"input":13,
					"interpolation":"LINEAR",
					"output":17
				},
				{
					"input":13,
					"interpolation":"LINEAR",
					"output":18
				},
				{
					"input":13,
					"interpolation":"LINEAR",
					"output":19
				},
				{
					"input":13,
					"interpolation":"LINEAR",
					"output":20
				},
				{
					"input":8,
					"interpolation":"STEP",
					"output":21
				}
			]
		}
	],
	"materials":[
		{
			"doubleSided":true,
			"emissiveFactor":[
				1,
				1,
				1
			],
			"emissiveTexture":{
				"index":0
			},
			"name":"T_cocoon",
			"normalTexture":{
				"index":1
			},
			"occlusionTexture":{
				"index":2
			},
			"pbrMetallicRoughness":{
				"baseColorTexture":{
					"index":3
				},
				"metallicRoughnessTexture":{
					"index":2
				}
			}
		}
	],
	"meshes":[
		{
			"name":"Mesh",
			"primitives":[
				{
					"attributes":{
						"POSITION":0,
						"NORMAL":1,
						"TEXCOORD_0":2,
						"TANGENT":3,
						"JOINTS_0":4,
						"WEIGHTS_0":5
					},
					"indices":6,
					"material":0
				}
			]
		}
	],
	"textures":[
		{
			"sampler":0,
			"source":0
		},
		{
			"sampler":0,
			"source":1
		},
		{
			"sampler":0,
			"source":2
		},
		{
			"sampler":0,
			"source":3
		}
	],
	"images":[
		{
			"mimeType":"image/png",
			"name":"T_Cocoon__Emissive",
			"uri":"T_Cocoon__Emissive.png"
		},
		{
			"mimeType":"image/png",
			"name":"T_Cocoon__Normal",
			"uri":"T_Cocoon__Normal.png"
		},
		{
			"mimeType":"image/png",
			"name":"T_Cocoon__OcclussionRoughnessMetallic",
			"uri":"T_Cocoon__OcclussionRoughnessMetallic.png"
		},
		{
			"mimeType":"image/png",
			"name":"T_Cocoon__BaseColor",
			"uri":"T_Cocoon__BaseColor.png"
		}
	],
	"skins":[
		{
			"inverseBindMatrices":7,
			"joints":[
				3,
				0,
				1,
				2
			],
			"name":"Armature"
		}
	],
	"accessors":[
		{
			"bufferView":0,
			"componentType":5126,
			"count":4933,
			"max":[
				4.14081335067749,
				3.8935186862945557,
				4.0086212158203125
			],
			"min":[
				-4.1466593742370605,
				-3.4570236206054688,
				-4.1299896240234375
			],
			"type":"VEC3"
		},
		{
			"bufferView":1,
			"componentType":5126,
			"count":4933,
			"type":"VEC3"
		},
		{
			"bufferView":2,
			"componentType":5126,
			"count":4933,
			"type":"VEC2"
		},
		{
			"bufferView":3,
			"componentType":5126,
			"count":4933,
			"type":"VEC4"
		},
		{
			"bufferView":4,
			"componentType":5121,
			"count":4933,
			"type":"VEC4"
		},
		{
			"bufferView":5,
			"componentType":5126,
			"count":4933,
			"type":"VEC4"
		},
		{
			"bufferView":6,
			"componentType":5123,
			"count":7443,
			"type":"SCALAR"
		},
		{
			"bufferView":7,
			"componentType":5126,
			"count":4,
			"type":"MAT4"
		},
		{
			"bufferView":8,
			"componentType":5126,
			"count":2,
			"max":[
				16.683333333333334
			],
			"min":[
				0.016666666666666666
			],
			"type":"SCALAR"
		},
		{
			"bufferView":9,
			"componentType":5126,
			"count":2,
			"type":"VEC3"
		},
		{
			"bufferView":10,
			"componentType":5126,
			"count":2,
			"type":"VEC4"
		},
		{
			"bufferView":11,
			"componentType":5126,
			"count":2,
			"type":"VEC3"
		},
		{
			"bufferView":12,
			"componentType":5126,
			"count":2,
			"type":"VEC3"
		},
		{
			"bufferView":13,
			"componentType":5126,
			"count":1001,
			"max":[
				16.683333333333334
			],
			"min":[
				0.016666666666666666
			],
			"type":"SCALAR"
		},
		{
			"bufferView":14,
			"componentType":5126,
			"count":1001,
			"type":"VEC4"
		},
		{
			"bufferView":15,
			"componentType":5126,
			"count":1001,
			"type":"VEC3"
		},
		{
			"bufferView":16,
			"componentType":5126,
			"count":2,
			"type":"VEC3"
		},
		{
			"bufferView":17,
			"componentType":5126,
			"count":1001,
			"type":"VEC4"
		},
		{
			"bufferView":18,
			"componentType":5126,
			"count":1001,
			"type":"VEC3"
		},
		{
			"bufferView":19,
			"componentType":5126,
			"count":1001,
			"type":"VEC3"
		},
		{
			"bufferView":20,
			"componentType":5126,
			"count":1001,
			"type":"VEC4"
		},
		{
			"bufferView":21,
			"componentType":5126,
			"count":2,
			"type":"VEC3"
		}
	],
	"bufferViews":[
		{
			"buffer":0,
			"byteLength":59196,
			"byteOffset":0,
			"target":34962
		},
		{
			"buffer":0,
			"byteLength":59196,
			"byteOffset":59196,
			"target":34962
		},
		{
			"buffer":0,
			"byteLength":39464,
			"byteOffset":118392,
			"target":34962
		},
		{
			"buffer":0,
			"byteLength":78928,
			"byteOffset":157856,
			"target":34962
		},
		{
			"buffer":0,
			"byteLength":19732,
			"byteOffset":236784,
			"target":34962
		},
		{
			"buffer":0,
			"byteLength":78928,
			"byteOffset":256516,
			"target":34962
		},
		{
			"buffer":0,
			"byteLength":14886,
			"byteOffset":335444,
			"target":34963
		},
		{
			"buffer":0,
			"byteLength":256,
			"byteOffset":350332
		},
		{
			"buffer":0,
			"byteLength":8,
			"byteOffset":350588
		},
		{
			"buffer":0,
			"byteLength":24,
			"byteOffset":350596
		},
		{
			"buffer":0,
			"byteLength":32,
			"byteOffset":350620
		},
		{
			"buffer":0,
			"byteLength":24,
			"byteOffset":350652
		},
		{
			"buffer":0,
			"byteLength":24,
			"byteOffset":350676
		},
		{
			"buffer":0,
			"byteLength":4004,
			"byteOffset":350700
		},
		{
			"buffer":0,
			"byteLength":16016,
			"byteOffset":354704
		},
		{
			"buffer":0,
			"byteLength":12012,
			"byteOffset":370720
		},
		{
			"buffer":0,
			"byteLength":24,
			"byteOffset":382732
		},
		{
			"buffer":0,
			"byteLength":16016,
			"byteOffset":382756
		},
		{
			"buffer":0,
			"byteLength":12012,
			"byteOffset":398772
		},
		{
			"buffer":0,
			"byteLength":12012,
			"byteOffset":410784
		},
		{
			"buffer":0,
			"byteLength":16016,
			"byteOffset":422796
		},
		{
			"buffer":0,
			"byteLength":24,
			"byteOffset":438812
		}
	],
	"samplers":[
		{
			"magFilter":9729,
			"minFilter":9987
		}
	],
	"buffers":[
		{
			"byteLength":438836,
			"uri":"OB_cocoon.bin"
		}
	]
}
