{
	"asset":{
		"generator":"Khronos glTF Blender I/O v4.1.63",
		"version":"2.0"
	},
	"scene":0,
	"scenes":[
		{
			"name":"Scene",
			"nodes":[
				0
			]
		}
	],
	"nodes":[
		{
			"mesh":0,
			"name":"OB_Drone"
		}
	],
	"materials":[
		{
			"doubleSided":true,
			"emissiveFactor":[
				1,
				1,
				1
			],
			"emissiveTexture":{
				"index":0
			},
			"name":"M_Drone",
			"normalTexture":{
				"index":1
			},
			"occlusionTexture":{
				"index":2
			},
			"pbrMetallicRoughness":{
				"baseColorTexture":{
					"index":3
				},
				"metallicRoughnessTexture":{
					"index":2
				}
			}
		}
	],
	"meshes":[
		{
			"name":"Plane.017",
			"primitives":[
				{
					"attributes":{
						"POSITION":0,
						"NORMAL":1,
						"TEXCOORD_0":2,
						"TANGENT":3
					},
					"indices":4,
					"material":0
				}
			]
		}
	],
	"textures":[
		{
			"sampler":0,
			"source":0
		},
		{
			"sampler":0,
			"source":1
		},
		{
			"sampler":0,
			"source":2
		},
		{
			"sampler":0,
			"source":3
		}
	],
	"images":[
		{
			"mimeType":"image/png",
			"name":"Drone_Emissive",
			"uri":"Drone_Emissive.png"
		},
		{
			"mimeType":"image/png",
			"name":"Drone_Normal",
			"uri":"Drone_Normal.png"
		},
		{
			"mimeType":"image/png",
			"name":"Drone_OcclusionRoughnessMetallic",
			"uri":"Drone_OcclusionRoughnessMetallic.png"
		},
		{
			"mimeType":"image/png",
			"name":"Drone_BaseColor",
			"uri":"Drone_BaseColor.png"
		}
	],
	"accessors":[
		{
			"bufferView":0,
			"componentType":5126,
			"count":780,
			"max":[
				3.8268377780914307,
				0.5806345343589783,
				3.6452417373657227
			],
			"min":[
				-3.4300410747528076,
				-0.5422123670578003,
				-3.648256778717041
			],
			"type":"VEC3"
		},
		{
			"bufferView":1,
			"componentType":5126,
			"count":780,
			"type":"VEC3"
		},
		{
			"bufferView":2,
			"componentType":5126,
			"count":780,
			"type":"VEC2"
		},
		{
			"bufferView":3,
			"componentType":5126,
			"count":780,
			"type":"VEC4"
		},
		{
			"bufferView":4,
			"componentType":5123,
			"count":1746,
			"type":"SCALAR"
		}
	],
	"bufferViews":[
		{
			"buffer":0,
			"byteLength":9360,
			"byteOffset":0,
			"target":34962
		},
		{
			"buffer":0,
			"byteLength":9360,
			"byteOffset":9360,
			"target":34962
		},
		{
			"buffer":0,
			"byteLength":6240,
			"byteOffset":18720,
			"target":34962
		},
		{
			"buffer":0,
			"byteLength":12480,
			"byteOffset":24960,
			"target":34962
		},
		{
			"buffer":0,
			"byteLength":3492,
			"byteOffset":37440,
			"target":34963
		}
	],
	"samplers":[
		{
			"magFilter":9729,
			"minFilter":9987
		}
	],
	"buffers":[
		{
			"byteLength":40932,
			"uri":"OB_Drone.bin"
		}
	]
}
