{
	"asset":{
		"generator":"Khronos glTF Blender I/O v4.1.63",
		"version":"2.0"
	},
	"scene":0,
	"scenes":[
		{
			"name":"Scene",
			"nodes":[
				0
			]
		}
	],
	"nodes":[
		{
			"mesh":0,
			"name":"OB_Enemy_ranged_mini",
			"scale":[
				0.2680247724056244,
				0.04946816712617874,
				0.2680247724056244
			],
			"translation":[
				-1.2303820848464966,
				5.2403459548950195,
				0.45560216903686523
			]
		}
	],
	"materials":[
		{
			"doubleSided":true,
			"emissiveFactor":[
				1,
				1,
				1
			],
			"emissiveTexture":{
				"index":0
			},
			"name":"T_Robot Range",
			"normalTexture":{
				"index":1
			},
			"pbrMetallicRoughness":{
				"baseColorTexture":{
					"index":2
				},
				"metallicRoughnessTexture":{
					"index":3
				}
			}
		}
	],
	"meshes":[
		{
			"name":"Cylinder.017",
			"primitives":[
				{
					"attributes":{
						"POSITION":0,
						"NORMAL":1,
						"TEXCOORD_0":2
					},
					"indices":3,
					"material":0
				}
			]
		}
	],
	"textures":[
		{
			"sampler":0,
			"source":0
		},
		{
			"sampler":0,
			"source":1
		},
		{
			"sampler":0,
			"source":2
		},
		{
			"sampler":0,
			"source":3
		}
	],
	"images":[
		{
			"mimeType":"image/png",
			"name":"OB_Robot_Range__Material_Emissive",
			"uri":"OB_Robot_Range__Material_Emissive.png"
		},
		{
			"mimeType":"image/png",
			"name":"OB_Robot_Range__Material_Normal",
			"uri":"OB_Robot_Range__Material_Normal.png"
		},
		{
			"mimeType":"image/png",
			"name":"OB_Robot_Range__Material_BaseColor",
			"uri":"OB_Robot_Range__Material_BaseColor.png"
		},
		{
			"mimeType":"image/png",
			"name":"OB_Robot_Range__Material_OcclusionRoughnessMetallic",
			"uri":"OB_Robot_Range__Material_OcclusionRoughnessMetallic.png"
		}
	],
	"accessors":[
		{
			"bufferView":0,
			"componentType":5126,
			"count":6514,
			"max":[
				12.404593467712402,
				42.51579284667969,
				4.925281524658203
			],
			"min":[
				-2.801421642303467,
				-50.61936950683594,
				-8.095548629760742
			],
			"type":"VEC3"
		},
		{
			"bufferView":1,
			"componentType":5126,
			"count":6514,
			"type":"VEC3"
		},
		{
			"bufferView":2,
			"componentType":5126,
			"count":6514,
			"type":"VEC2"
		},
		{
			"bufferView":3,
			"componentType":5123,
			"count":11988,
			"type":"SCALAR"
		}
	],
	"bufferViews":[
		{
			"buffer":0,
			"byteLength":78168,
			"byteOffset":0,
			"target":34962
		},
		{
			"buffer":0,
			"byteLength":78168,
			"byteOffset":78168,
			"target":34962
		},
		{
			"buffer":0,
			"byteLength":52112,
			"byteOffset":156336,
			"target":34962
		},
		{
			"buffer":0,
			"byteLength":23976,
			"byteOffset":208448,
			"target":34963
		}
	],
	"samplers":[
		{
			"magFilter":9729,
			"minFilter":9987
		}
	],
	"buffers":[
		{
			"byteLength":232424,
			"uri":"OB_Enemy_Ranged_Mini.bin"
		}
	]
}
