{
	"asset":{
		"generator":"Khronos glTF Blender I/O v4.1.63",
		"version":"2.0"
	},
	"scene":0,
	"scenes":[
		{
			"name":"Scene",
			"nodes":[
				5
			]
		}
	],
	"nodes":[
		{
			"name":"Leftdoor",
			"translation":[
				-14.646199226379395,
				28.68558120727539,
				-0.6269524097442627
			]
		},
		{
			"name":"Rightdoor",
			"translation":[
				16.95378875732422,
				28.68558120727539,
				-0.6269524097442627
			]
		},
		{
			"children":[
				0,
				1
			],
			"name":"Root",
			"rotation":[
				-0.7071067690849304,
				0,
				0,
				0.7071067690849304
			]
		},
		{
			"mesh":0,
			"name":"OB_ball_spawner",
			"skin":0
		},
		{
			"mesh":1,
			"name":"OB_ball_spawner_doors",
			"skin":1
		},
		{
			"children":[
				3,
				4,
				2
			],
			"name":"Armature",
			"rotation":[
				0.7071068286895752,
				0,
				0,
				0.7071068286895752
			],
			"scale":[
				0.009999999776482582,
				0.009999999776482582,
				0.009999999776482582
			]
		}
	],
	"animations":[
		{
			"channels":[
				{
					"sampler":0,
					"target":{
						"node":2,
						"path":"translation"
					}
				},
				{
					"sampler":1,
					"target":{
						"node":2,
						"path":"rotation"
					}
				},
				{
					"sampler":2,
					"target":{
						"node":2,
						"path":"scale"
					}
				},
				{
					"sampler":3,
					"target":{
						"node":0,
						"path":"translation"
					}
				},
				{
					"sampler":4,
					"target":{
						"node":0,
						"path":"rotation"
					}
				},
				{
					"sampler":5,
					"target":{
						"node":0,
						"path":"scale"
					}
				},
				{
					"sampler":6,
					"target":{
						"node":1,
						"path":"translation"
					}
				},
				{
					"sampler":7,
					"target":{
						"node":1,
						"path":"rotation"
					}
				},
				{
					"sampler":8,
					"target":{
						"node":1,
						"path":"scale"
					}
				}
			],
			"name":"Armature|Take 001|BaseLayer",
			"samplers":[
				{
					"input":15,
					"interpolation":"STEP",
					"output":16
				},
				{
					"input":15,
					"interpolation":"STEP",
					"output":17
				},
				{
					"input":15,
					"interpolation":"STEP",
					"output":18
				},
				{
					"input":19,
					"interpolation":"LINEAR",
					"output":20
				},
				{
					"input":15,
					"interpolation":"STEP",
					"output":21
				},
				{
					"input":15,
					"interpolation":"STEP",
					"output":22
				},
				{
					"input":19,
					"interpolation":"LINEAR",
					"output":23
				},
				{
					"input":15,
					"interpolation":"STEP",
					"output":24
				},
				{
					"input":15,
					"interpolation":"STEP",
					"output":25
				}
			]
		}
	],
	"materials":[
		{
			"doubleSided":true,
			"emissiveFactor":[
				1,
				1,
				1
			],
			"emissiveTexture":{
				"index":0
			},
			"name":"M_ball_spawner",
			"normalTexture":{
				"index":1
			},
			"pbrMetallicRoughness":{
				"baseColorTexture":{
					"index":2
				},
				"metallicRoughnessTexture":{
					"index":3
				}
			}
		}
	],
	"meshes":[
		{
			"name":"Mesh",
			"primitives":[
				{
					"attributes":{
						"POSITION":0,
						"NORMAL":1,
						"TEXCOORD_0":2,
						"TANGENT":3,
						"JOINTS_0":4,
						"WEIGHTS_0":5
					},
					"indices":6,
					"material":0
				}
			]
		},
		{
			"name":"Mesh.001",
			"primitives":[
				{
					"attributes":{
						"POSITION":8,
						"NORMAL":9,
						"TEXCOORD_0":10,
						"TANGENT":11,
						"JOINTS_0":12,
						"WEIGHTS_0":13
					},
					"indices":14,
					"material":0
				}
			]
		}
	],
	"textures":[
		{
			"sampler":0,
			"source":0
		},
		{
			"sampler":0,
			"source":1
		},
		{
			"sampler":0,
			"source":2
		},
		{
			"sampler":0,
			"source":3
		}
	],
	"images":[
		{
			"mimeType":"image/png",
			"name":"OB_ball_spawner_low_DefaultMaterial_Emissive",
			"uri":"OB_ball_spawner_low_DefaultMaterial_Emissive.png"
		},
		{
			"mimeType":"image/png",
			"name":"OB_ball_spawner_low_DefaultMaterial_Normal",
			"uri":"OB_ball_spawner_low_DefaultMaterial_Normal.png"
		},
		{
			"mimeType":"image/png",
			"name":"OB_ball_spawner_low_DefaultMaterial_BaseColor",
			"uri":"OB_ball_spawner_low_DefaultMaterial_BaseColor.png"
		},
		{
			"mimeType":"image/png",
			"name":"OB_ball_spawner_low_DefaultMaterial_OcclusionRoughnessMetallic",
			"uri":"OB_ball_spawner_low_DefaultMaterial_OcclusionRoughnessMetallic.png"
		}
	],
	"skins":[
		{
			"inverseBindMatrices":7,
			"joints":[
				2,
				0,
				1
			],
			"name":"Armature"
		},
		{
			"inverseBindMatrices":7,
			"joints":[
				2,
				0,
				1
			],
			"name":"Armature"
		}
	],
	"accessors":[
		{
			"bufferView":0,
			"componentType":5126,
			"count":923,
			"max":[
				0.9295810461044312,
				0.325257807970047,
				0.9148048162460327
			],
			"min":[
				-0.9181763529777527,
				-0.0734405443072319,
				-0.914337158203125
			],
			"type":"VEC3"
		},
		{
			"bufferView":1,
			"componentType":5126,
			"count":923,
			"type":"VEC3"
		},
		{
			"bufferView":2,
			"componentType":5126,
			"count":923,
			"type":"VEC2"
		},
		{
			"bufferView":3,
			"componentType":5126,
			"count":923,
			"type":"VEC4"
		},
		{
			"bufferView":4,
			"componentType":5121,
			"count":923,
			"type":"VEC4"
		},
		{
			"bufferView":5,
			"componentType":5126,
			"count":923,
			"type":"VEC4"
		},
		{
			"bufferView":6,
			"componentType":5123,
			"count":1746,
			"type":"SCALAR"
		},
		{
			"bufferView":7,
			"componentType":5126,
			"count":3,
			"type":"MAT4"
		},
		{
			"bufferView":8,
			"componentType":5126,
			"count":20,
			"max":[
				0.3334183990955353,
				0.28131887316703796,
				0.3244100511074066
			],
			"min":[
				-0.33393698930740356,
				0.27826666831970215,
				-0.32409152388572693
			],
			"type":"VEC3"
		},
		{
			"bufferView":9,
			"componentType":5126,
			"count":20,
			"type":"VEC3"
		},
		{
			"bufferView":10,
			"componentType":5126,
			"count":20,
			"type":"VEC2"
		},
		{
			"bufferView":11,
			"componentType":5126,
			"count":20,
			"type":"VEC4"
		},
		{
			"bufferView":12,
			"componentType":5121,
			"count":20,
			"type":"VEC4"
		},
		{
			"bufferView":13,
			"componentType":5126,
			"count":20,
			"type":"VEC4"
		},
		{
			"bufferView":14,
			"componentType":5123,
			"count":36,
			"type":"SCALAR"
		},
		{
			"bufferView":15,
			"componentType":5126,
			"count":2,
			"max":[
				2.033333333333333
			],
			"min":[
				0.03333333333333333
			],
			"type":"SCALAR"
		},
		{
			"bufferView":16,
			"componentType":5126,
			"count":2,
			"type":"VEC3"
		},
		{
			"bufferView":17,
			"componentType":5126,
			"count":2,
			"type":"VEC4"
		},
		{
			"bufferView":18,
			"componentType":5126,
			"count":2,
			"type":"VEC3"
		},
		{
			"bufferView":19,
			"componentType":5126,
			"count":61,
			"max":[
				2.033333333333333
			],
			"min":[
				0.03333333333333333
			],
			"type":"SCALAR"
		},
		{
			"bufferView":20,
			"componentType":5126,
			"count":61,
			"type":"VEC3"
		},
		{
			"bufferView":21,
			"componentType":5126,
			"count":2,
			"type":"VEC4"
		},
		{
			"bufferView":22,
			"componentType":5126,
			"count":2,
			"type":"VEC3"
		},
		{
			"bufferView":23,
			"componentType":5126,
			"count":61,
			"type":"VEC3"
		},
		{
			"bufferView":24,
			"componentType":5126,
			"count":2,
			"type":"VEC4"
		},
		{
			"bufferView":25,
			"componentType":5126,
			"count":2,
			"type":"VEC3"
		}
	],
	"bufferViews":[
		{
			"buffer":0,
			"byteLength":11076,
			"byteOffset":0,
			"target":34962
		},
		{
			"buffer":0,
			"byteLength":11076,
			"byteOffset":11076,
			"target":34962
		},
		{
			"buffer":0,
			"byteLength":7384,
			"byteOffset":22152,
			"target":34962
		},
		{
			"buffer":0,
			"byteLength":14768,
			"byteOffset":29536,
			"target":34962
		},
		{
			"buffer":0,
			"byteLength":3692,
			"byteOffset":44304,
			"target":34962
		},
		{
			"buffer":0,
			"byteLength":14768,
			"byteOffset":47996,
			"target":34962
		},
		{
			"buffer":0,
			"byteLength":3492,
			"byteOffset":62764,
			"target":34963
		},
		{
			"buffer":0,
			"byteLength":192,
			"byteOffset":66256
		},
		{
			"buffer":0,
			"byteLength":240,
			"byteOffset":66448,
			"target":34962
		},
		{
			"buffer":0,
			"byteLength":240,
			"byteOffset":66688,
			"target":34962
		},
		{
			"buffer":0,
			"byteLength":160,
			"byteOffset":66928,
			"target":34962
		},
		{
			"buffer":0,
			"byteLength":320,
			"byteOffset":67088,
			"target":34962
		},
		{
			"buffer":0,
			"byteLength":80,
			"byteOffset":67408,
			"target":34962
		},
		{
			"buffer":0,
			"byteLength":320,
			"byteOffset":67488,
			"target":34962
		},
		{
			"buffer":0,
			"byteLength":72,
			"byteOffset":67808,
			"target":34963
		},
		{
			"buffer":0,
			"byteLength":8,
			"byteOffset":67880
		},
		{
			"buffer":0,
			"byteLength":24,
			"byteOffset":67888
		},
		{
			"buffer":0,
			"byteLength":32,
			"byteOffset":67912
		},
		{
			"buffer":0,
			"byteLength":24,
			"byteOffset":67944
		},
		{
			"buffer":0,
			"byteLength":244,
			"byteOffset":67968
		},
		{
			"buffer":0,
			"byteLength":732,
			"byteOffset":68212
		},
		{
			"buffer":0,
			"byteLength":32,
			"byteOffset":68944
		},
		{
			"buffer":0,
			"byteLength":24,
			"byteOffset":68976
		},
		{
			"buffer":0,
			"byteLength":732,
			"byteOffset":69000
		},
		{
			"buffer":0,
			"byteLength":32,
			"byteOffset":69732
		},
		{
			"buffer":0,
			"byteLength":24,
			"byteOffset":69764
		}
	],
	"samplers":[
		{
			"magFilter":9729,
			"minFilter":9987
		}
	],
	"buffers":[
		{
			"byteLength":69788,
			"uri":"OB_explosive_enemy_spawner.bin"
		}
	]
}
