{
	"asset":{
		"generator":"Khronos glTF Blender I/O v4.1.63",
		"version":"2.0"
	},
	"scene":0,
	"scenes":[
		{
			"name":"Scene",
			"nodes":[
				0
			]
		}
	],
	"nodes":[
		{
			"mesh":0,
			"name":"OB_explosive_barrell",
			"translation":[
				0.22186996042728424,
				0.2768791913986206,
				0.24420814216136932
			]
		}
	],
	"materials":[
		{
			"doubleSided":true,
			"emissiveFactor":[
				1,
				1,
				1
			],
			"emissiveTexture":{
				"index":0
			},
			"name":"M_Explosive_Barrell",
			"normalTexture":{
				"index":1
			},
			"occlusionTexture":{
				"index":2
			},
			"pbrMetallicRoughness":{
				"baseColorTexture":{
					"index":3
				},
				"metallicRoughnessTexture":{
					"index":2
				}
			}
		}
	],
	"meshes":[
		{
			"name":"RetopoFlow",
			"primitives":[
				{
					"attributes":{
						"POSITION":0,
						"NORMAL":1,
						"TEXCOORD_0":2,
						"TANGENT":3
					},
					"indices":4,
					"material":0
				}
			]
		}
	],
	"textures":[
		{
			"sampler":0,
			"source":0
		},
		{
			"sampler":0,
			"source":1
		},
		{
			"sampler":0,
			"source":2
		},
		{
			"sampler":0,
			"source":3
		}
	],
	"images":[
		{
			"mimeType":"image/png",
			"name":"T_explosive_Barrell_Emissive",
			"uri":"T_explosive_Barrell_Emissive.png"
		},
		{
			"mimeType":"image/png",
			"name":"T_explosive_Barrell_Normal",
			"uri":"T_explosive_Barrell_Normal.png"
		},
		{
			"mimeType":"image/png",
			"name":"T_explosive_Barrell_OcclusionRoughnessMetallic",
			"uri":"T_explosive_Barrell_OcclusionRoughnessMetallic.png"
		},
		{
			"mimeType":"image/png",
			"name":"T_explosive_Barrell_BaseColor",
			"uri":"T_explosive_Barrell_BaseColor.png"
		}
	],
	"accessors":[
		{
			"bufferView":0,
			"componentType":5126,
			"count":1177,
			"max":[
				0.9177165031433105,
				1.1880065202713013,
				0.8878796696662903
			],
			"min":[
				-1.0754220485687256,
				-1.4023131132125854,
				-1.0977602005004883
			],
			"type":"VEC3"
		},
		{
			"bufferView":1,
			"componentType":5126,
			"count":1177,
			"type":"VEC3"
		},
		{
			"bufferView":2,
			"componentType":5126,
			"count":1177,
			"type":"VEC2"
		},
		{
			"bufferView":3,
			"componentType":5126,
			"count":1177,
			"type":"VEC4"
		},
		{
			"bufferView":4,
			"componentType":5123,
			"count":3375,
			"type":"SCALAR"
		}
	],
	"bufferViews":[
		{
			"buffer":0,
			"byteLength":14124,
			"byteOffset":0,
			"target":34962
		},
		{
			"buffer":0,
			"byteLength":14124,
			"byteOffset":14124,
			"target":34962
		},
		{
			"buffer":0,
			"byteLength":9416,
			"byteOffset":28248,
			"target":34962
		},
		{
			"buffer":0,
			"byteLength":18832,
			"byteOffset":37664,
			"target":34962
		},
		{
			"buffer":0,
			"byteLength":6750,
			"byteOffset":56496,
			"target":34963
		}
	],
	"samplers":[
		{
			"magFilter":9729,
			"minFilter":9987
		}
	],
	"buffers":[
		{
			"byteLength":63248,
			"uri":"OB_explosive_Barrell.bin"
		}
	]
}
