{
	"asset":{
		"generator":"Khronos glTF Blender I/O v4.1.63",
		"version":"2.0"
	},
	"extensionsUsed":[
		"KHR_materials_specular"
	],
	"scene":0,
	"scenes":[
		{
			"name":"Scene",
			"nodes":[
				4
			]
		}
	],
	"nodes":[
		{
			"name":"Left",
			"rotation":[
				0.008878999389708042,
				0.7070510387420654,
				-0.008878999389708042,
				0.7070509791374207
			],
			"scale":[
				0.9999999403953552,
				1,
				1.0000001192092896
			],
			"translation":[
				99.18643951416016,
				-1.309898018836975,
				-4.335576704761479e-06
			]
		},
		{
			"name":"Right",
			"rotation":[
				0.008879000321030617,
				0.7070510387420654,
				-0.008879001252353191,
				0.7070509791374207
			],
			"scale":[
				0.9999999403953552,
				0.9999998807907104,
				1
			],
			"translation":[
				-99.37812805175781,
				2.6196975708007812,
				4.343955424701562e-06
			]
		},
		{
			"children":[
				0,
				1
			],
			"name":"root",
			"rotation":[
				-0.5062389969825745,
				-0.49368220567703247,
				0.5062389969825745,
				0.4936821460723877
			],
			"scale":[
				0.9999998807907104,
				0.9999997019767761,
				0.9999998807907104
			]
		},
		{
			"mesh":0,
			"name":"OB_BB_Puerta",
			"skin":0
		},
		{
			"children":[
				3,
				2
			],
			"name":"Armature",
			"rotation":[
				0.7071068286895752,
				0,
				0,
				0.7071068286895752
			],
			"scale":[
				0.009999999776482582,
				0.009999999776482582,
				0.009999999776482582
			]
		}
	],
	"animations":[
		{
			"channels":[
				{
					"sampler":0,
					"target":{
						"node":2,
						"path":"translation"
					}
				},
				{
					"sampler":1,
					"target":{
						"node":2,
						"path":"rotation"
					}
				},
				{
					"sampler":2,
					"target":{
						"node":2,
						"path":"scale"
					}
				},
				{
					"sampler":3,
					"target":{
						"node":0,
						"path":"translation"
					}
				},
				{
					"sampler":4,
					"target":{
						"node":0,
						"path":"rotation"
					}
				},
				{
					"sampler":5,
					"target":{
						"node":0,
						"path":"scale"
					}
				},
				{
					"sampler":6,
					"target":{
						"node":1,
						"path":"translation"
					}
				},
				{
					"sampler":7,
					"target":{
						"node":1,
						"path":"rotation"
					}
				},
				{
					"sampler":8,
					"target":{
						"node":1,
						"path":"scale"
					}
				}
			],
			"name":"Armature|Take 001|BaseLayer",
			"samplers":[
				{
					"input":8,
					"interpolation":"STEP",
					"output":9
				},
				{
					"input":8,
					"interpolation":"STEP",
					"output":10
				},
				{
					"input":8,
					"interpolation":"STEP",
					"output":11
				},
				{
					"input":8,
					"interpolation":"STEP",
					"output":12
				},
				{
					"input":13,
					"interpolation":"LINEAR",
					"output":14
				},
				{
					"input":8,
					"interpolation":"STEP",
					"output":15
				},
				{
					"input":8,
					"interpolation":"STEP",
					"output":16
				},
				{
					"input":13,
					"interpolation":"LINEAR",
					"output":17
				},
				{
					"input":8,
					"interpolation":"LINEAR",
					"output":18
				}
			]
		}
	],
	"materials":[
		{
			"alphaMode":"BLEND",
			"doubleSided":true,
			"emissiveFactor":[
				1,
				1,
				1
			],
			"emissiveTexture":{
				"index":0
			},
			"extensions":{
				"KHR_materials_specular":{
					"specularColorFactor":[
						2.0,
						2.0,
						2.0
					]
				}
			},
			"name":"M_Barandillas_Boss1",
			"normalTexture":{
				"index":1
			},
			"pbrMetallicRoughness":{
				"baseColorTexture":{
					"index":2
				},
				"metallicFactor":0,
				"roughnessFactor":0.5
			}
		}
	],
	"meshes":[
		{
			"name":"Mesh",
			"primitives":[
				{
					"attributes":{
						"POSITION":0,
						"NORMAL":1,
						"TEXCOORD_0":2,
						"TANGENT":3,
						"JOINTS_0":4,
						"WEIGHTS_0":5
					},
					"indices":6,
					"material":0
				}
			]
		}
	],
	"textures":[
		{
			"sampler":0,
			"source":0
		},
		{
			"sampler":0,
			"source":1
		},
		{
			"sampler":0,
			"source":2
		}
	],
	"images":[
		{
			"mimeType":"image/png",
			"name":"OB_Barandillas_Boss_M_Barandillas_Boss_Emissive",
			"uri":"OB_Barandillas_Boss_M_Barandillas_Boss_Emissive.png"
		},
		{
			"mimeType":"image/png",
			"name":"OB_Barandillas_Boss_M_Barandillas_Boss_Normal",
			"uri":"OB_Barandillas_Boss_M_Barandillas_Boss_Normal.png"
		},
		{
			"mimeType":"image/png",
			"name":"OB_Barandillas_Boss_M_Barandillas_Boss_BaseColor",
			"uri":"OB_Barandillas_Boss_M_Barandillas_Boss_BaseColor.png"
		}
	],
	"skins":[
		{
			"inverseBindMatrices":7,
			"joints":[
				2,
				0,
				1
			],
			"name":"Armature"
		}
	],
	"accessors":[
		{
			"bufferView":0,
			"componentType":5126,
			"count":5233,
			"max":[
				0.110321044921875,
				0.4861794412136078,
				1.1710662841796875
			],
			"min":[
				-0.111358642578125,
				-0.6232324838638306,
				-1.1710052490234375
			],
			"type":"VEC3"
		},
		{
			"bufferView":1,
			"componentType":5126,
			"count":5233,
			"type":"VEC3"
		},
		{
			"bufferView":2,
			"componentType":5126,
			"count":5233,
			"type":"VEC2"
		},
		{
			"bufferView":3,
			"componentType":5126,
			"count":5233,
			"type":"VEC4"
		},
		{
			"bufferView":4,
			"componentType":5121,
			"count":5233,
			"type":"VEC4"
		},
		{
			"bufferView":5,
			"componentType":5126,
			"count":5233,
			"type":"VEC4"
		},
		{
			"bufferView":6,
			"componentType":5123,
			"count":5784,
			"type":"SCALAR"
		},
		{
			"bufferView":7,
			"componentType":5126,
			"count":3,
			"type":"MAT4"
		},
		{
			"bufferView":8,
			"componentType":5126,
			"count":2,
			"max":[
				0.5333333333333333
			],
			"min":[
				0.03333333333333333
			],
			"type":"SCALAR"
		},
		{
			"bufferView":9,
			"componentType":5126,
			"count":2,
			"type":"VEC3"
		},
		{
			"bufferView":10,
			"componentType":5126,
			"count":2,
			"type":"VEC4"
		},
		{
			"bufferView":11,
			"componentType":5126,
			"count":2,
			"type":"VEC3"
		},
		{
			"bufferView":12,
			"componentType":5126,
			"count":2,
			"type":"VEC3"
		},
		{
			"bufferView":13,
			"componentType":5126,
			"count":16,
			"max":[
				0.5333333333333333
			],
			"min":[
				0.03333333333333333
			],
			"type":"SCALAR"
		},
		{
			"bufferView":14,
			"componentType":5126,
			"count":16,
			"type":"VEC4"
		},
		{
			"bufferView":15,
			"componentType":5126,
			"count":2,
			"type":"VEC3"
		},
		{
			"bufferView":16,
			"componentType":5126,
			"count":2,
			"type":"VEC3"
		},
		{
			"bufferView":17,
			"componentType":5126,
			"count":16,
			"type":"VEC4"
		},
		{
			"bufferView":18,
			"componentType":5126,
			"count":2,
			"type":"VEC3"
		}
	],
	"bufferViews":[
		{
			"buffer":0,
			"byteLength":62796,
			"byteOffset":0,
			"target":34962
		},
		{
			"buffer":0,
			"byteLength":62796,
			"byteOffset":62796,
			"target":34962
		},
		{
			"buffer":0,
			"byteLength":41864,
			"byteOffset":125592,
			"target":34962
		},
		{
			"buffer":0,
			"byteLength":83728,
			"byteOffset":167456,
			"target":34962
		},
		{
			"buffer":0,
			"byteLength":20932,
			"byteOffset":251184,
			"target":34962
		},
		{
			"buffer":0,
			"byteLength":83728,
			"byteOffset":272116,
			"target":34962
		},
		{
			"buffer":0,
			"byteLength":11568,
			"byteOffset":355844,
			"target":34963
		},
		{
			"buffer":0,
			"byteLength":192,
			"byteOffset":367412
		},
		{
			"buffer":0,
			"byteLength":8,
			"byteOffset":367604
		},
		{
			"buffer":0,
			"byteLength":24,
			"byteOffset":367612
		},
		{
			"buffer":0,
			"byteLength":32,
			"byteOffset":367636
		},
		{
			"buffer":0,
			"byteLength":24,
			"byteOffset":367668
		},
		{
			"buffer":0,
			"byteLength":24,
			"byteOffset":367692
		},
		{
			"buffer":0,
			"byteLength":64,
			"byteOffset":367716
		},
		{
			"buffer":0,
			"byteLength":256,
			"byteOffset":367780
		},
		{
			"buffer":0,
			"byteLength":24,
			"byteOffset":368036
		},
		{
			"buffer":0,
			"byteLength":24,
			"byteOffset":368060
		},
		{
			"buffer":0,
			"byteLength":256,
			"byteOffset":368084
		},
		{
			"buffer":0,
			"byteLength":24,
			"byteOffset":368340
		}
	],
	"samplers":[
		{
			"magFilter":9729,
			"minFilter":9987
		}
	],
	"buffers":[
		{
			"byteLength":368364,
			"uri":"OB_elevator_door_animation.bin"
		}
	]
}
