{
	"asset":{
		"generator":"Khronos glTF Blender I/O v4.1.63",
		"version":"2.0"
	},
	"scene":0,
	"scenes":[
		{
			"name":"Scene",
			"nodes":[
				5
			]
		}
	],
	"nodes":[
		{
			"name":"UpperPart",
			"translation":[
				2.5706655979156494,
				210.64471435546875,
				-1.1916604042053223
			]
		},
		{
			"name":"LowerPart",
			"translation":[
				2.5706655979156494,
				93.3357925415039,
				-1.1916604042053223
			]
		},
		{
			"children":[
				0,
				1
			],
			"name":"Root",
			"rotation":[
				-0.7071067690849304,
				0,
				0,
				0.7071067690849304
			]
		},
		{
			"mesh":0,
			"name":"OB_exploding_ball_lower_part",
			"skin":0
		},
		{
			"mesh":1,
			"name":"OB_exploding_ball_upper_part",
			"skin":0
		},
		{
			"children":[
				3,
				4,
				2
			],
			"name":"Armature",
			"rotation":[
				0.7071068286895752,
				0,
				0,
				0.7071068286895752
			],
			"scale":[
				0.009999999776482582,
				0.009999999776482582,
				0.009999999776482582
			]
		}
	],
	"animations":[
		{
			"channels":[
				{
					"sampler":0,
					"target":{
						"node":2,
						"path":"translation"
					}
				},
				{
					"sampler":1,
					"target":{
						"node":2,
						"path":"rotation"
					}
				},
				{
					"sampler":2,
					"target":{
						"node":2,
						"path":"scale"
					}
				},
				{
					"sampler":3,
					"target":{
						"node":0,
						"path":"translation"
					}
				},
				{
					"sampler":4,
					"target":{
						"node":0,
						"path":"rotation"
					}
				},
				{
					"sampler":5,
					"target":{
						"node":0,
						"path":"scale"
					}
				},
				{
					"sampler":6,
					"target":{
						"node":1,
						"path":"translation"
					}
				},
				{
					"sampler":7,
					"target":{
						"node":1,
						"path":"rotation"
					}
				},
				{
					"sampler":8,
					"target":{
						"node":1,
						"path":"scale"
					}
				}
			],
			"name":"Armature|Take 001|BaseLayer",
			"samplers":[
				{
					"input":15,
					"interpolation":"STEP",
					"output":16
				},
				{
					"input":15,
					"interpolation":"STEP",
					"output":17
				},
				{
					"input":15,
					"interpolation":"STEP",
					"output":18
				},
				{
					"input":19,
					"interpolation":"LINEAR",
					"output":20
				},
				{
					"input":19,
					"interpolation":"LINEAR",
					"output":21
				},
				{
					"input":15,
					"interpolation":"LINEAR",
					"output":22
				},
				{
					"input":19,
					"interpolation":"LINEAR",
					"output":23
				},
				{
					"input":19,
					"interpolation":"LINEAR",
					"output":24
				},
				{
					"input":15,
					"interpolation":"STEP",
					"output":25
				}
			]
		}
	],
	"materials":[
		{
			"doubleSided":true,
			"emissiveFactor":[
				1,
				1,
				1
			],
			"emissiveTexture":{
				"index":0
			},
			"name":"standardSurface1",
			"normalTexture":{
				"index":1
			},
			"occlusionTexture":{
				"index":2
			},
			"pbrMetallicRoughness":{
				"baseColorTexture":{
					"index":3
				},
				"metallicRoughnessTexture":{
					"index":2
				}
			}
		}
	],
	"meshes":[
		{
			"name":"Mesh",
			"primitives":[
				{
					"attributes":{
						"POSITION":0,
						"NORMAL":1,
						"TEXCOORD_0":2,
						"TANGENT":3,
						"JOINTS_0":4,
						"WEIGHTS_0":5
					},
					"indices":6,
					"material":0
				}
			]
		},
		{
			"name":"Mesh.001",
			"primitives":[
				{
					"attributes":{
						"POSITION":8,
						"NORMAL":9,
						"TEXCOORD_0":10,
						"TANGENT":11,
						"JOINTS_0":12,
						"WEIGHTS_0":13
					},
					"indices":14,
					"material":0
				}
			]
		}
	],
	"textures":[
		{
			"sampler":0,
			"source":0
		},
		{
			"sampler":0,
			"source":1
		},
		{
			"sampler":0,
			"source":2
		},
		{
			"sampler":0,
			"source":3
		}
	],
	"images":[
		{
			"mimeType":"image/png",
			"name":"OB_exploding_ball_DefaultMaterial_Emissive",
			"uri":"OB_exploding_ball_DefaultMaterial_Emissive.png"
		},
		{
			"mimeType":"image/png",
			"name":"OB_exploding_ball_DefaultMaterial_Normal",
			"uri":"OB_exploding_ball_DefaultMaterial_Normal.png"
		},
		{
			"mimeType":"image/png",
			"name":"OB_exploding_ball_DefaultMaterial_OcclusionRoughnessMetallic",
			"uri":"OB_exploding_ball_DefaultMaterial_OcclusionRoughnessMetallic.png"
		},
		{
			"mimeType":"image/png",
			"name":"OB_exploding_ball_DefaultMaterial_BaseColor",
			"uri":"OB_exploding_ball_DefaultMaterial_BaseColor.png"
		}
	],
	"skins":[
		{
			"inverseBindMatrices":7,
			"joints":[
				2,
				0,
				1
			],
			"name":"Armature"
		},
		{
			"inverseBindMatrices":7,
			"joints":[
				2,
				0,
				1
			],
			"name":"Armature"
		}
	],
	"accessors":[
		{
			"bufferView":0,
			"componentType":5126,
			"count":2329,
			"max":[
				1.0149695873260498,
				1.819570779800415,
				1.011519432067871
			],
			"min":[
				-1.0149699449539185,
				0.6680193543434143,
				-1.0161209106445312
			],
			"type":"VEC3"
		},
		{
			"bufferView":1,
			"componentType":5126,
			"count":2329,
			"type":"VEC3"
		},
		{
			"bufferView":2,
			"componentType":5126,
			"count":2329,
			"type":"VEC2"
		},
		{
			"bufferView":3,
			"componentType":5126,
			"count":2329,
			"type":"VEC4"
		},
		{
			"bufferView":4,
			"componentType":5121,
			"count":2329,
			"type":"VEC4"
		},
		{
			"bufferView":5,
			"componentType":5126,
			"count":2329,
			"type":"VEC4"
		},
		{
			"bufferView":6,
			"componentType":5123,
			"count":6429,
			"type":"SCALAR"
		},
		{
			"bufferView":7,
			"componentType":5126,
			"count":3,
			"type":"MAT4"
		},
		{
			"bufferView":8,
			"componentType":5126,
			"count":3148,
			"max":[
				1.056493878364563,
				2.577439785003662,
				1.0115195512771606
			],
			"min":[
				-1.0149701833724976,
				1.4258882999420166,
				-1.0161207914352417
			],
			"type":"VEC3"
		},
		{
			"bufferView":9,
			"componentType":5126,
			"count":3148,
			"type":"VEC3"
		},
		{
			"bufferView":10,
			"componentType":5126,
			"count":3148,
			"type":"VEC2"
		},
		{
			"bufferView":11,
			"componentType":5126,
			"count":3148,
			"type":"VEC4"
		},
		{
			"bufferView":12,
			"componentType":5121,
			"count":3148,
			"type":"VEC4"
		},
		{
			"bufferView":13,
			"componentType":5126,
			"count":3148,
			"type":"VEC4"
		},
		{
			"bufferView":14,
			"componentType":5123,
			"count":8829,
			"type":"SCALAR"
		},
		{
			"bufferView":15,
			"componentType":5126,
			"count":2,
			"max":[
				13.033333333333333
			],
			"min":[
				0.03333333333333333
			],
			"type":"SCALAR"
		},
		{
			"bufferView":16,
			"componentType":5126,
			"count":2,
			"type":"VEC3"
		},
		{
			"bufferView":17,
			"componentType":5126,
			"count":2,
			"type":"VEC4"
		},
		{
			"bufferView":18,
			"componentType":5126,
			"count":2,
			"type":"VEC3"
		},
		{
			"bufferView":19,
			"componentType":5126,
			"count":391,
			"max":[
				13.033333333333333
			],
			"min":[
				0.03333333333333333
			],
			"type":"SCALAR"
		},
		{
			"bufferView":20,
			"componentType":5126,
			"count":391,
			"type":"VEC3"
		},
		{
			"bufferView":21,
			"componentType":5126,
			"count":391,
			"type":"VEC4"
		},
		{
			"bufferView":22,
			"componentType":5126,
			"count":2,
			"type":"VEC3"
		},
		{
			"bufferView":23,
			"componentType":5126,
			"count":391,
			"type":"VEC3"
		},
		{
			"bufferView":24,
			"componentType":5126,
			"count":391,
			"type":"VEC4"
		},
		{
			"bufferView":25,
			"componentType":5126,
			"count":2,
			"type":"VEC3"
		}
	],
	"bufferViews":[
		{
			"buffer":0,
			"byteLength":27948,
			"byteOffset":0,
			"target":34962
		},
		{
			"buffer":0,
			"byteLength":27948,
			"byteOffset":27948,
			"target":34962
		},
		{
			"buffer":0,
			"byteLength":18632,
			"byteOffset":55896,
			"target":34962
		},
		{
			"buffer":0,
			"byteLength":37264,
			"byteOffset":74528,
			"target":34962
		},
		{
			"buffer":0,
			"byteLength":9316,
			"byteOffset":111792,
			"target":34962
		},
		{
			"buffer":0,
			"byteLength":37264,
			"byteOffset":121108,
			"target":34962
		},
		{
			"buffer":0,
			"byteLength":12858,
			"byteOffset":158372,
			"target":34963
		},
		{
			"buffer":0,
			"byteLength":192,
			"byteOffset":171232
		},
		{
			"buffer":0,
			"byteLength":37776,
			"byteOffset":171424,
			"target":34962
		},
		{
			"buffer":0,
			"byteLength":37776,
			"byteOffset":209200,
			"target":34962
		},
		{
			"buffer":0,
			"byteLength":25184,
			"byteOffset":246976,
			"target":34962
		},
		{
			"buffer":0,
			"byteLength":50368,
			"byteOffset":272160,
			"target":34962
		},
		{
			"buffer":0,
			"byteLength":12592,
			"byteOffset":322528,
			"target":34962
		},
		{
			"buffer":0,
			"byteLength":50368,
			"byteOffset":335120,
			"target":34962
		},
		{
			"buffer":0,
			"byteLength":17658,
			"byteOffset":385488,
			"target":34963
		},
		{
			"buffer":0,
			"byteLength":8,
			"byteOffset":403148
		},
		{
			"buffer":0,
			"byteLength":24,
			"byteOffset":403156
		},
		{
			"buffer":0,
			"byteLength":32,
			"byteOffset":403180
		},
		{
			"buffer":0,
			"byteLength":24,
			"byteOffset":403212
		},
		{
			"buffer":0,
			"byteLength":1564,
			"byteOffset":403236
		},
		{
			"buffer":0,
			"byteLength":4692,
			"byteOffset":404800
		},
		{
			"buffer":0,
			"byteLength":6256,
			"byteOffset":409492
		},
		{
			"buffer":0,
			"byteLength":24,
			"byteOffset":415748
		},
		{
			"buffer":0,
			"byteLength":4692,
			"byteOffset":415772
		},
		{
			"buffer":0,
			"byteLength":6256,
			"byteOffset":420464
		},
		{
			"buffer":0,
			"byteLength":24,
			"byteOffset":426720
		}
	],
	"samplers":[
		{
			"magFilter":9729,
			"minFilter":9987
		}
	],
	"buffers":[
		{
			"byteLength":426744,
			"uri":"OB_enemy_explosive_ball_lvl_1.bin"
		}
	]
}
