{
	"asset":{
		"generator":"Khronos glTF Blender I/O v4.1.63",
		"version":"2.0"
	},
	"scene":0,
	"scenes":[
		{
			"name":"Scene",
			"nodes":[
				0
			]
		}
	],
	"nodes":[
		{
			"mesh":0,
			"name":"OB_explosive_barrell",
			"scale":[
				0.49275127053260803,
				0.49275127053260803,
				0.49275127053260803
			],
			"translation":[
				-0.010041117668151855,
				1.6231112480163574,
				0.04312974214553833
			]
		}
	],
	"materials":[
		{
			"doubleSided":true,
			"emissiveFactor":[
				1,
				1,
				1
			],
			"emissiveTexture":{
				"index":0
			},
			"name":"M_Explosive_Barrell",
			"normalTexture":{
				"index":1
			},
			"occlusionTexture":{
				"index":2
			},
			"pbrMetallicRoughness":{
				"baseColorTexture":{
					"index":3
				},
				"metallicRoughnessTexture":{
					"index":2
				}
			}
		}
	],
	"meshes":[
		{
			"name":"Cube.001",
			"primitives":[
				{
					"attributes":{
						"POSITION":0,
						"NORMAL":1,
						"TEXCOORD_0":2,
						"TANGENT":3
					},
					"indices":4,
					"material":0
				}
			]
		}
	],
	"textures":[
		{
			"sampler":0,
			"source":0
		},
		{
			"sampler":0,
			"source":1
		},
		{
			"sampler":0,
			"source":2
		},
		{
			"sampler":0,
			"source":3
		}
	],
	"images":[
		{
			"mimeType":"image/png",
			"name":"T_Explosive_Barrell_Emissive",
			"uri":"T_Explosive_Barrell_Emissive.png"
		},
		{
			"mimeType":"image/png",
			"name":"T_Explosive_Barrell_Normal",
			"uri":"T_Explosive_Barrell_Normal.png"
		},
		{
			"mimeType":"image/png",
			"name":"T_Explosive_Barrell_OcclusionRoughnessMetallic",
			"uri":"T_Explosive_Barrell_OcclusionRoughnessMetallic.png"
		},
		{
			"mimeType":"image/png",
			"name":"T_Explosive_Barrell_BaseColor",
			"uri":"T_Explosive_Barrell_BaseColor.png"
		}
	],
	"accessors":[
		{
			"bufferView":0,
			"componentType":5126,
			"count":1755,
			"max":[
				1.9951159954071045,
				0.8779728412628174,
				1.7882556915283203
			],
			"min":[
				-2.118506669998169,
				-5.5779571533203125,
				-2.178363561630249
			],
			"type":"VEC3"
		},
		{
			"bufferView":1,
			"componentType":5126,
			"count":1755,
			"type":"VEC3"
		},
		{
			"bufferView":2,
			"componentType":5126,
			"count":1755,
			"type":"VEC2"
		},
		{
			"bufferView":3,
			"componentType":5126,
			"count":1755,
			"type":"VEC4"
		},
		{
			"bufferView":4,
			"componentType":5123,
			"count":6279,
			"type":"SCALAR"
		}
	],
	"bufferViews":[
		{
			"buffer":0,
			"byteLength":21060,
			"byteOffset":0,
			"target":34962
		},
		{
			"buffer":0,
			"byteLength":21060,
			"byteOffset":21060,
			"target":34962
		},
		{
			"buffer":0,
			"byteLength":14040,
			"byteOffset":42120,
			"target":34962
		},
		{
			"buffer":0,
			"byteLength":28080,
			"byteOffset":56160,
			"target":34962
		},
		{
			"buffer":0,
			"byteLength":12558,
			"byteOffset":84240,
			"target":34963
		}
	],
	"samplers":[
		{
			"magFilter":9729,
			"minFilter":9987
		}
	],
	"buffers":[
		{
			"byteLength":96800,
			"uri":"OB_explosive_Barrell.bin"
		}
	]
}
