{
	"asset":{
		"generator":"Khronos glTF Blender I/O v4.1.63",
		"version":"2.0"
	},
	"scene":0,
	"scenes":[
		{
			"name":"Scene",
			"nodes":[
				0
			]
		}
	],
	"nodes":[
		{
			"mesh":0,
			"name":"OB_Grouped_Stalagmites",
			"rotation":[
				0.7071068286895752,
				0,
				0,
				0.7071068286895752
			],
			"scale":[
				0.009999999776482582,
				0.009999999776482582,
				0.009999999776482582
			]
		}
	],
	"materials":[
		{
			"doubleSided":true,
			"name":"T_grouped_stalagmites",
			"normalTexture":{
				"index":0
			},
			"pbrMetallicRoughness":{
				"baseColorTexture":{
					"index":1
				},
				"metallicRoughnessTexture":{
					"index":2
				}
			}
		}
	],
	"meshes":[
		{
			"name":"Mesh",
			"primitives":[
				{
					"attributes":{
						"POSITION":0,
						"NORMAL":1,
						"TEXCOORD_0":2,
						"TANGENT":3
					},
					"indices":4,
					"material":0
				}
			]
		}
	],
	"textures":[
		{
			"sampler":0,
			"source":0
		},
		{
			"sampler":0,
			"source":1
		},
		{
			"sampler":0,
			"source":2
		}
	],
	"images":[
		{
			"mimeType":"image/png",
			"name":"T_Grouped_Stalagmites_Normal",
			"uri":"T_Grouped_Stalagmites_Normal.png"
		},
		{
			"mimeType":"image/png",
			"name":"T_Grouped_Stalagmites_BaseColor",
			"uri":"T_Grouped_Stalagmites_BaseColor.png"
		},
		{
			"mimeType":"image/png",
			"name":"T_Grouped_Stalagmites_OcclusionRoughnessMetallic",
			"uri":"T_Grouped_Stalagmites_OcclusionRoughnessMetallic.png"
		}
	],
	"accessors":[
		{
			"bufferView":0,
			"componentType":5126,
			"count":849,
			"max":[
				104.04320526123047,
				64.331787109375,
				-0.023284912109375
			],
			"min":[
				-104.04320526123047,
				-64.331787109375,
				-266.3194274902344
			],
			"type":"VEC3"
		},
		{
			"bufferView":1,
			"componentType":5126,
			"count":849,
			"type":"VEC3"
		},
		{
			"bufferView":2,
			"componentType":5126,
			"count":849,
			"type":"VEC2"
		},
		{
			"bufferView":3,
			"componentType":5126,
			"count":849,
			"type":"VEC4"
		},
		{
			"bufferView":4,
			"componentType":5123,
			"count":4008,
			"type":"SCALAR"
		}
	],
	"bufferViews":[
		{
			"buffer":0,
			"byteLength":10188,
			"byteOffset":0,
			"target":34962
		},
		{
			"buffer":0,
			"byteLength":10188,
			"byteOffset":10188,
			"target":34962
		},
		{
			"buffer":0,
			"byteLength":6792,
			"byteOffset":20376,
			"target":34962
		},
		{
			"buffer":0,
			"byteLength":13584,
			"byteOffset":27168,
			"target":34962
		},
		{
			"buffer":0,
			"byteLength":8016,
			"byteOffset":40752,
			"target":34963
		}
	],
	"samplers":[
		{
			"magFilter":9729,
			"minFilter":9987
		}
	],
	"buffers":[
		{
			"byteLength":48768,
			"uri":"OB_Grouped_Stalagmites.bin"
		}
	]
}
