{
	"asset":{
		"generator":"Khronos glTF Blender I/O v4.1.63",
		"version":"2.0"
	},
	"scene":0,
	"scenes":[
		{
			"name":"Scene",
			"nodes":[
				0
			]
		}
	],
	"nodes":[
		{
			"mesh":0,
			"name":"OB_Generator",
			"rotation":[
				0.7071068286895752,
				0,
				0,
				0.7071068286895752
			],
			"scale":[
				0.009999999776482582,
				0.009999999776482582,
				0.009999999776482582
			]
		}
	],
	"materials":[
		{
			"doubleSided":true,
			"emissiveFactor":[
				1,
				1,
				1
			],
			"emissiveTexture":{
				"index":0
			},
			"name":"T_Generator",
			"normalTexture":{
				"index":1
			},
			"pbrMetallicRoughness":{
				"baseColorTexture":{
					"index":2
				},
				"metallicRoughnessTexture":{
					"index":3
				}
			}
		}
	],
	"meshes":[
		{
			"name":"Mesh",
			"primitives":[
				{
					"attributes":{
						"POSITION":0,
						"NORMAL":1,
						"TEXCOORD_0":2,
						"TANGENT":3
					},
					"indices":4,
					"material":0
				}
			]
		}
	],
	"textures":[
		{
			"sampler":0,
			"source":0
		},
		{
			"sampler":0,
			"source":1
		},
		{
			"sampler":0,
			"source":2
		},
		{
			"sampler":0,
			"source":3
		}
	],
	"images":[
		{
			"mimeType":"image/png",
			"name":"T_Generator_Emissive",
			"uri":"T_Generator_Emissive.png"
		},
		{
			"mimeType":"image/png",
			"name":"T_Generator_Normal",
			"uri":"T_Generator_Normal.png"
		},
		{
			"mimeType":"image/png",
			"name":"T_Generator_BaseColor",
			"uri":"T_Generator_BaseColor.png"
		},
		{
			"mimeType":"image/png",
			"name":"T_Generator_OcclusionRoughnessMetallic",
			"uri":"T_Generator_OcclusionRoughnessMetallic.png"
		}
	],
	"accessors":[
		{
			"bufferView":0,
			"componentType":5126,
			"count":4682,
			"max":[
				321.22967529296875,
				302.67364501953125,
				1.1715563415226615e-14
			],
			"min":[
				-321.22967529296875,
				-302.67364501953125,
				-336.2501220703125
			],
			"type":"VEC3"
		},
		{
			"bufferView":1,
			"componentType":5126,
			"count":4682,
			"type":"VEC3"
		},
		{
			"bufferView":2,
			"componentType":5126,
			"count":4682,
			"type":"VEC2"
		},
		{
			"bufferView":3,
			"componentType":5126,
			"count":4682,
			"type":"VEC4"
		},
		{
			"bufferView":4,
			"componentType":5123,
			"count":12624,
			"type":"SCALAR"
		}
	],
	"bufferViews":[
		{
			"buffer":0,
			"byteLength":56184,
			"byteOffset":0,
			"target":34962
		},
		{
			"buffer":0,
			"byteLength":56184,
			"byteOffset":56184,
			"target":34962
		},
		{
			"buffer":0,
			"byteLength":37456,
			"byteOffset":112368,
			"target":34962
		},
		{
			"buffer":0,
			"byteLength":74912,
			"byteOffset":149824,
			"target":34962
		},
		{
			"buffer":0,
			"byteLength":25248,
			"byteOffset":224736,
			"target":34963
		}
	],
	"samplers":[
		{
			"magFilter":9729,
			"minFilter":9987
		}
	],
	"buffers":[
		{
			"byteLength":249984,
			"uri":"OB_Generator_background.bin"
		}
	]
}
