{
	"asset":{
		"generator":"Khronos glTF Blender I/O v4.1.63",
		"version":"2.0"
	},
	"scene":0,
	"scenes":[
		{
			"name":"Scene",
			"nodes":[
				0
			]
		}
	],
	"nodes":[
		{
			"mesh":0,
			"name":"OB_gun"
		}
	],
	"meshes":[
		{
			"name":"BarrelBasefbx_0",
			"primitives":[
				{
					"attributes":{
						"POSITION":0,
						"NORMAL":1,
						"TEXCOORD_0":2
					},
					"indices":3
				}
			]
		}
	],
	"accessors":[
		{
			"bufferView":0,
			"componentType":5126,
			"count":2851,
			"max":[
				2.3906493186950684,
				0.9812607765197754,
				0.3213920593261719
			],
			"min":[
				-2.105018138885498,
				-1.2278233766555786,
				-0.3213919401168823
			],
			"type":"VEC3"
		},
		{
			"bufferView":1,
			"componentType":5126,
			"count":2851,
			"type":"VEC3"
		},
		{
			"bufferView":2,
			"componentType":5126,
			"count":2851,
			"type":"VEC2"
		},
		{
			"bufferView":3,
			"componentType":5123,
			"count":5328,
			"type":"SCALAR"
		}
	],
	"bufferViews":[
		{
			"buffer":0,
			"byteLength":34212,
			"byteOffset":0,
			"target":34962
		},
		{
			"buffer":0,
			"byteLength":34212,
			"byteOffset":34212,
			"target":34962
		},
		{
			"buffer":0,
			"byteLength":22808,
			"byteOffset":68424,
			"target":34962
		},
		{
			"buffer":0,
			"byteLength":10656,
			"byteOffset":91232,
			"target":34963
		}
	],
	"buffers":[
		{
			"byteLength":101888,
			"uri":"OB_gun.bin"
		}
	]
}
