{
	"asset":{
		"generator":"Khronos glTF Blender I/O v4.1.63",
		"version":"2.0"
	},
	"scene":0,
	"scenes":[
		{
			"name":"Scene",
			"nodes":[
				0
			]
		}
	],
	"nodes":[
		{
			"mesh":0,
			"name":"Gun"
		}
	],
	"materials":[
		{
			"doubleSided":true,
			"emissiveFactor":[
				1,
				1,
				1
			],
			"emissiveTexture":{
				"index":0
			},
			"name":"Gun.001",
			"normalTexture":{
				"index":1
			},
			"pbrMetallicRoughness":{
				"baseColorTexture":{
					"index":2
				},
				"metallicRoughnessTexture":{
					"index":3
				}
			}
		}
	],
	"meshes":[
		{
			"name":"Cube.028",
			"primitives":[
				{
					"attributes":{
						"POSITION":0,
						"NORMAL":1,
						"TEXCOORD_0":2
					},
					"indices":3,
					"material":0
				}
			]
		}
	],
	"textures":[
		{
			"sampler":0,
			"source":0
		},
		{
			"sampler":0,
			"source":1
		},
		{
			"sampler":0,
			"source":2
		},
		{
			"sampler":0,
			"source":3
		}
	],
	"images":[
		{
			"mimeType":"image/png",
			"name":"Gun_low_Emissive",
			"uri":"Gun_low_Emissive.png"
		},
		{
			"mimeType":"image/png",
			"name":"Gun_low_Normal",
			"uri":"Gun_low_Normal.png"
		},
		{
			"mimeType":"image/png",
			"name":"Gun_low_BaseColor",
			"uri":"Gun_low_BaseColor.png"
		},
		{
			"mimeType":"image/png",
			"name":"Gun_low_OcclusionRoughnessMetallic",
			"uri":"Gun_low_OcclusionRoughnessMetallic.png"
		}
	],
	"accessors":[
		{
			"bufferView":0,
			"componentType":5126,
			"count":2370,
			"max":[
				2.3906493186950684,
				0.9812607765197754,
				0.3213920593261719
			],
			"min":[
				-2.105018138885498,
				-1.2364223003387451,
				-0.3213919401168823
			],
			"type":"VEC3"
		},
		{
			"bufferView":1,
			"componentType":5126,
			"count":2370,
			"type":"VEC3"
		},
		{
			"bufferView":2,
			"componentType":5126,
			"count":2370,
			"type":"VEC2"
		},
		{
			"bufferView":3,
			"componentType":5123,
			"count":5712,
			"type":"SCALAR"
		}
	],
	"bufferViews":[
		{
			"buffer":0,
			"byteLength":28440,
			"byteOffset":0,
			"target":34962
		},
		{
			"buffer":0,
			"byteLength":28440,
			"byteOffset":28440,
			"target":34962
		},
		{
			"buffer":0,
			"byteLength":18960,
			"byteOffset":56880,
			"target":34962
		},
		{
			"buffer":0,
			"byteLength":11424,
			"byteOffset":75840,
			"target":34963
		}
	],
	"samplers":[
		{
			"magFilter":9729,
			"minFilter":9987
		}
	],
	"buffers":[
		{
			"byteLength":87264,
			"uri":"OB_Gun.bin"
		}
	]
}
