{
	"asset":{
		"generator":"Khronos glTF Blender I/O v4.1.63",
		"version":"2.0"
	},
	"scene":0,
	"scenes":[
		{
			"name":"Scene",
			"nodes":[
				0,
				1,
				2,
				3,
				4,
				5,
				6,
				7
			]
		}
	],
	"nodes":[
		{
			"mesh":0,
			"name":"Floor_lvl2_section2",
			"translation":[
				0.2740209996700287,
				-70.37352752685547,
				0.36799585819244385
			]
		},
		{
			"mesh":1,
			"name":"Part2.001",
			"translation":[
				59.620506286621094,
				35.672340393066406,
				13.022653579711914
			]
		},
		{
			"mesh":2,
			"name":"Part2.002",
			"rotation":[
				0,
				-1,
				0,
				5.205485535952903e-07
			],
			"scale":[
				0.5159938335418701,
				0.5356897115707397,
				0.5356897115707397
			],
			"translation":[
				-7.583135604858398,
				35.86712646484375,
				-44.45460510253906
			]
		},
		{
			"mesh":3,
			"name":"Part2.003",
			"rotation":[
				0,
				-1,
				0,
				5.205485535952903e-07
			],
			"scale":[
				0.6500177383422852,
				0.5356897115707397,
				0.7627987861633301
			],
			"translation":[
				-11.973445892333984,
				35.886009216308594,
				-44.46772766113281
			]
		},
		{
			"mesh":4,
			"name":"Floor_lvl2_section2_part A",
			"rotation":[
				0,
				0.7071068286895752,
				0,
				0.7071068286895752
			],
			"scale":[
				1,
				1,
				1.0518739223480225
			],
			"translation":[
				117.68024444580078,
				52.84321594238281,
				5.288435935974121
			]
		},
		{
			"mesh":5,
			"name":"Floor_lvl2_section2_part A.002",
			"rotation":[
				0,
				0.7071068286895752,
				0,
				0.7071068286895752
			],
			"scale":[
				1.0142567157745361,
				0.5950577855110168,
				0.7200543880462646
			],
			"translation":[
				164.14859008789062,
				53.45717239379883,
				13.03333854675293
			]
		},
		{
			"mesh":6,
			"name":"OB_lvl2_section1.001",
			"translation":[
				118.580810546875,
				63.71162414550781,
				13.043319702148438
			]
		},
		{
			"mesh":7,
			"name":"OB_lvl2_section1.002",
			"translation":[
				118.580810546875,
				63.71162414550781,
				13.043319702148438
			]
		}
	],
	"materials":[
		{
			"alphaMode":"BLEND",
			"doubleSided":true,
			"name":"Section2.002",
			"normalTexture":{
				"index":0
			},
			"occlusionTexture":{
				"index":1
			},
			"pbrMetallicRoughness":{
				"baseColorTexture":{
					"index":2
				},
				"metallicRoughnessTexture":{
					"index":1
				}
			}
		},
		{
			"doubleSided":true,
			"name":"Material.006",
			"normalTexture":{
				"index":3
			},
			"occlusionTexture":{
				"index":4
			},
			"pbrMetallicRoughness":{
				"baseColorTexture":{
					"index":5
				},
				"metallicRoughnessTexture":{
					"index":4
				}
			}
		}
	],
	"meshes":[
		{
			"name":"Plane.031",
			"primitives":[
				{
					"attributes":{
						"POSITION":0,
						"NORMAL":1,
						"TEXCOORD_0":2
					},
					"indices":3,
					"material":0
				}
			]
		},
		{
			"name":"Plane.009",
			"primitives":[
				{
					"attributes":{
						"POSITION":4,
						"NORMAL":5,
						"TEXCOORD_0":6,
						"TANGENT":7
					},
					"indices":8,
					"material":0
				}
			]
		},
		{
			"name":"Plane.010",
			"primitives":[
				{
					"attributes":{
						"POSITION":9,
						"NORMAL":10,
						"TEXCOORD_0":11,
						"TANGENT":12
					},
					"indices":13,
					"material":0
				}
			]
		},
		{
			"name":"Plane.008",
			"primitives":[
				{
					"attributes":{
						"POSITION":14,
						"NORMAL":15,
						"TEXCOORD_0":16,
						"TANGENT":17
					},
					"indices":18,
					"material":0
				}
			]
		},
		{
			"name":"Plane.015",
			"primitives":[
				{
					"attributes":{
						"POSITION":19,
						"NORMAL":20,
						"TEXCOORD_0":21,
						"TANGENT":22
					},
					"indices":23,
					"material":0
				}
			]
		},
		{
			"name":"Plane.013",
			"primitives":[
				{
					"attributes":{
						"POSITION":24,
						"NORMAL":25,
						"TEXCOORD_0":26,
						"TANGENT":27
					},
					"indices":23,
					"material":0
				}
			]
		},
		{
			"name":"Plane.007",
			"primitives":[
				{
					"attributes":{
						"POSITION":28,
						"NORMAL":29,
						"TEXCOORD_0":30,
						"TANGENT":31
					},
					"indices":32,
					"material":1
				}
			]
		},
		{
			"name":"Plane.016",
			"primitives":[
				{
					"attributes":{
						"POSITION":33,
						"NORMAL":34,
						"TEXCOORD_0":35
					},
					"indices":36,
					"material":1
				}
			]
		}
	],
	"textures":[
		{
			"sampler":0,
			"source":0
		},
		{
			"sampler":0,
			"source":1
		},
		{
			"sampler":0,
			"source":2
		},
		{
			"sampler":0,
			"source":3
		},
		{
			"sampler":0,
			"source":4
		},
		{
			"sampler":0,
			"source":5
		}
	],
	"images":[
		{
			"mimeType":"image/png",
			"name":"FloorsLvl2_Section2_Normal",
			"uri":"FloorsLvl2_Section2_Normal.png"
		},
		{
			"mimeType":"image/png",
			"name":"FloorsLvl2_Section2_OcclusionRoughnessMetallic",
			"uri":"FloorsLvl2_Section2_OcclusionRoughnessMetallic.png"
		},
		{
			"mimeType":"image/png",
			"name":"FloorsLvl2_Section2_BaseColor",
			"uri":"FloorsLvl2_Section2_BaseColor.png"
		},
		{
			"mimeType":"image/png",
			"name":"FloorsLvl2_Section1_Normal",
			"uri":"FloorsLvl2_Section1_Normal.png"
		},
		{
			"mimeType":"image/png",
			"name":"FloorsLvl2_Section1_OcclusionRoughnessMetallic",
			"uri":"FloorsLvl2_Section1_OcclusionRoughnessMetallic.png"
		},
		{
			"mimeType":"image/png",
			"name":"FloorsLvl2_Section1_BaseColor",
			"uri":"FloorsLvl2_Section1_BaseColor.png"
		}
	],
	"accessors":[
		{
			"bufferView":0,
			"componentType":5126,
			"count":496,
			"max":[
				37.33097839355469,
				106.43082427978516,
				28.879806518554688
			],
			"min":[
				-8.611424446105957,
				104.5705337524414,
				-36.917457580566406
			],
			"type":"VEC3"
		},
		{
			"bufferView":1,
			"componentType":5126,
			"count":496,
			"type":"VEC3"
		},
		{
			"bufferView":2,
			"componentType":5126,
			"count":496,
			"type":"VEC2"
		},
		{
			"bufferView":3,
			"componentType":5123,
			"count":1848,
			"type":"SCALAR"
		},
		{
			"bufferView":4,
			"componentType":5126,
			"count":48,
			"max":[
				6.00714111328125,
				0.3550059497356415,
				15.97224235534668
			],
			"min":[
				-10.023967742919922,
				-0.3549957275390625,
				-15.97224235534668
			],
			"type":"VEC3"
		},
		{
			"bufferView":5,
			"componentType":5126,
			"count":48,
			"type":"VEC3"
		},
		{
			"bufferView":6,
			"componentType":5126,
			"count":48,
			"type":"VEC2"
		},
		{
			"bufferView":7,
			"componentType":5126,
			"count":48,
			"type":"VEC4"
		},
		{
			"bufferView":8,
			"componentType":5123,
			"count":108,
			"type":"SCALAR"
		},
		{
			"bufferView":9,
			"componentType":5126,
			"count":48,
			"max":[
				6.00714111328125,
				0.35500335693359375,
				15.97224235534668
			],
			"min":[
				-10.023967742919922,
				-0.3549957275390625,
				-15.97224235534668
			],
			"type":"VEC3"
		},
		{
			"bufferView":10,
			"componentType":5126,
			"count":48,
			"type":"VEC3"
		},
		{
			"bufferView":11,
			"componentType":5126,
			"count":48,
			"type":"VEC2"
		},
		{
			"bufferView":12,
			"componentType":5126,
			"count":48,
			"type":"VEC4"
		},
		{
			"bufferView":13,
			"componentType":5123,
			"count":102,
			"type":"SCALAR"
		},
		{
			"bufferView":14,
			"componentType":5126,
			"count":20,
			"max":[
				2.013561248779297,
				0.3549995422363281,
				4.009311676025391
			],
			"min":[
				-2.013561248779297,
				-0.3549995422363281,
				-4.009311676025391
			],
			"type":"VEC3"
		},
		{
			"bufferView":15,
			"componentType":5126,
			"count":20,
			"type":"VEC3"
		},
		{
			"bufferView":16,
			"componentType":5126,
			"count":20,
			"type":"VEC2"
		},
		{
			"bufferView":17,
			"componentType":5126,
			"count":20,
			"type":"VEC4"
		},
		{
			"bufferView":18,
			"componentType":5123,
			"count":30,
			"type":"SCALAR"
		},
		{
			"bufferView":19,
			"componentType":5126,
			"count":30,
			"max":[
				8.015556335449219,
				0,
				15.97224235534668
			],
			"min":[
				-8.015552520751953,
				-0.6000000238418579,
				-15.97224235534668
			],
			"type":"VEC3"
		},
		{
			"bufferView":20,
			"componentType":5126,
			"count":30,
			"type":"VEC3"
		},
		{
			"bufferView":21,
			"componentType":5126,
			"count":30,
			"type":"VEC2"
		},
		{
			"bufferView":22,
			"componentType":5126,
			"count":30,
			"type":"VEC4"
		},
		{
			"bufferView":23,
			"componentType":5123,
			"count":108,
			"type":"SCALAR"
		},
		{
			"bufferView":24,
			"componentType":5126,
			"count":30,
			"max":[
				8.015556335449219,
				0,
				15.97224235534668
			],
			"min":[
				-8.015552520751953,
				-0.6000000238418579,
				-15.97224235534668
			],
			"type":"VEC3"
		},
		{
			"bufferView":25,
			"componentType":5126,
			"count":30,
			"type":"VEC3"
		},
		{
			"bufferView":26,
			"componentType":5126,
			"count":30,
			"type":"VEC2"
		},
		{
			"bufferView":27,
			"componentType":5126,
			"count":30,
			"type":"VEC4"
		},
		{
			"bufferView":28,
			"componentType":5126,
			"count":56,
			"max":[
				50.66529846191406,
				1.2986778020858765,
				8.014303207397461
			],
			"min":[
				30.70176887512207,
				0.6786749362945557,
				-7.972116947174072
			],
			"type":"VEC3"
		},
		{
			"bufferView":29,
			"componentType":5126,
			"count":56,
			"type":"VEC3"
		},
		{
			"bufferView":30,
			"componentType":5126,
			"count":56,
			"type":"VEC2"
		},
		{
			"bufferView":31,
			"componentType":5126,
			"count":56,
			"type":"VEC4"
		},
		{
			"bufferView":32,
			"componentType":5123,
			"count":108,
			"type":"SCALAR"
		},
		{
			"bufferView":33,
			"componentType":5126,
			"count":506,
			"max":[
				20.680957794189453,
				1.298678994178772,
				16.0454158782959
			],
			"min":[
				-29.20681381225586,
				-2.2711949348449707,
				-15.893732070922852
			],
			"type":"VEC3"
		},
		{
			"bufferView":34,
			"componentType":5126,
			"count":506,
			"type":"VEC3"
		},
		{
			"bufferView":35,
			"componentType":5126,
			"count":506,
			"type":"VEC2"
		},
		{
			"bufferView":36,
			"componentType":5123,
			"count":1416,
			"type":"SCALAR"
		}
	],
	"bufferViews":[
		{
			"buffer":0,
			"byteLength":5952,
			"byteOffset":0,
			"target":34962
		},
		{
			"buffer":0,
			"byteLength":5952,
			"byteOffset":5952,
			"target":34962
		},
		{
			"buffer":0,
			"byteLength":3968,
			"byteOffset":11904,
			"target":34962
		},
		{
			"buffer":0,
			"byteLength":3696,
			"byteOffset":15872,
			"target":34963
		},
		{
			"buffer":0,
			"byteLength":576,
			"byteOffset":19568,
			"target":34962
		},
		{
			"buffer":0,
			"byteLength":576,
			"byteOffset":20144,
			"target":34962
		},
		{
			"buffer":0,
			"byteLength":384,
			"byteOffset":20720,
			"target":34962
		},
		{
			"buffer":0,
			"byteLength":768,
			"byteOffset":21104,
			"target":34962
		},
		{
			"buffer":0,
			"byteLength":216,
			"byteOffset":21872,
			"target":34963
		},
		{
			"buffer":0,
			"byteLength":576,
			"byteOffset":22088,
			"target":34962
		},
		{
			"buffer":0,
			"byteLength":576,
			"byteOffset":22664,
			"target":34962
		},
		{
			"buffer":0,
			"byteLength":384,
			"byteOffset":23240,
			"target":34962
		},
		{
			"buffer":0,
			"byteLength":768,
			"byteOffset":23624,
			"target":34962
		},
		{
			"buffer":0,
			"byteLength":204,
			"byteOffset":24392,
			"target":34963
		},
		{
			"buffer":0,
			"byteLength":240,
			"byteOffset":24596,
			"target":34962
		},
		{
			"buffer":0,
			"byteLength":240,
			"byteOffset":24836,
			"target":34962
		},
		{
			"buffer":0,
			"byteLength":160,
			"byteOffset":25076,
			"target":34962
		},
		{
			"buffer":0,
			"byteLength":320,
			"byteOffset":25236,
			"target":34962
		},
		{
			"buffer":0,
			"byteLength":60,
			"byteOffset":25556,
			"target":34963
		},
		{
			"buffer":0,
			"byteLength":360,
			"byteOffset":25616,
			"target":34962
		},
		{
			"buffer":0,
			"byteLength":360,
			"byteOffset":25976,
			"target":34962
		},
		{
			"buffer":0,
			"byteLength":240,
			"byteOffset":26336,
			"target":34962
		},
		{
			"buffer":0,
			"byteLength":480,
			"byteOffset":26576,
			"target":34962
		},
		{
			"buffer":0,
			"byteLength":216,
			"byteOffset":27056,
			"target":34963
		},
		{
			"buffer":0,
			"byteLength":360,
			"byteOffset":27272,
			"target":34962
		},
		{
			"buffer":0,
			"byteLength":360,
			"byteOffset":27632,
			"target":34962
		},
		{
			"buffer":0,
			"byteLength":240,
			"byteOffset":27992,
			"target":34962
		},
		{
			"buffer":0,
			"byteLength":480,
			"byteOffset":28232,
			"target":34962
		},
		{
			"buffer":0,
			"byteLength":672,
			"byteOffset":28712,
			"target":34962
		},
		{
			"buffer":0,
			"byteLength":672,
			"byteOffset":29384,
			"target":34962
		},
		{
			"buffer":0,
			"byteLength":448,
			"byteOffset":30056,
			"target":34962
		},
		{
			"buffer":0,
			"byteLength":896,
			"byteOffset":30504,
			"target":34962
		},
		{
			"buffer":0,
			"byteLength":216,
			"byteOffset":31400,
			"target":34963
		},
		{
			"buffer":0,
			"byteLength":6072,
			"byteOffset":31616,
			"target":34962
		},
		{
			"buffer":0,
			"byteLength":6072,
			"byteOffset":37688,
			"target":34962
		},
		{
			"buffer":0,
			"byteLength":4048,
			"byteOffset":43760,
			"target":34962
		},
		{
			"buffer":0,
			"byteLength":2832,
			"byteOffset":47808,
			"target":34963
		}
	],
	"samplers":[
		{
			"magFilter":9729,
			"minFilter":9987
		}
	],
	"buffers":[
		{
			"byteLength":50640,
			"uri":"OB_Level2_Floors.bin"
		}
	]
}
