{
	"asset":{
		"generator":"Khronos glTF Blender I/O v4.1.63",
		"version":"2.0"
	},
	"scene":0,
	"scenes":[
		{
			"name":"Scene",
			"nodes":[
				13
			]
		}
	],
	"nodes":[
		{
			"name":"plane_01",
			"scale":[
				1,
				1.0000001192092896,
				1
			],
			"translation":[
				71.43558502197266,
				127.26050567626953,
				-22.119285583496094
			]
		},
		{
			"name":"plane_02",
			"scale":[
				1,
				1.0000001192092896,
				1
			],
			"translation":[
				35.37002944946289,
				80.47572326660156,
				-66.30982971191406
			]
		},
		{
			"name":"plane_03",
			"scale":[
				1,
				1.0000001192092896,
				1
			],
			"translation":[
				-22.630571365356445,
				127.260498046875,
				-79.94861602783203
			]
		},
		{
			"name":"plane_05",
			"scale":[
				1,
				1.0000001192092896,
				1
			],
			"translation":[
				-66.4740219116211,
				58.302433013916016,
				-34.90087127685547
			]
		},
		{
			"name":"plane_04",
			"scale":[
				1,
				1.0000001192092896,
				1
			],
			"translation":[
				-79.715576171875,
				129.65777587890625,
				24.402843475341797
			]
		},
		{
			"name":"plane_06",
			"scale":[
				1,
				1.0000001192092896,
				1
			],
			"translation":[
				-36.33557891845703,
				75.06037902832031,
				67.51856994628906
			]
		},
		{
			"name":"plane_07",
			"scale":[
				1,
				1.0000001192092896,
				1
			],
			"translation":[
				19.93194007873535,
				140.39010620117188,
				70.92655944824219
			]
		},
		{
			"name":"plane_08",
			"scale":[
				1,
				1.0000001192092896,
				1
			],
			"translation":[
				54.24642562866211,
				74.3905258178711,
				27.61689567565918
			]
		},
		{
			"children":[
				0,
				1,
				2,
				3,
				4,
				5,
				6,
				7
			],
			"name":"locator1",
			"rotation":[
				-1.7763570511584873e-15,
				0,
				0,
				1
			],
			"scale":[
				1,
				0.9999998807907104,
				1
			],
			"translation":[
				0,
				-7.9144134521484375,
				0
			]
		},
		{
			"name":"cube",
			"translation":[
				2.9558889865875244,
				47.94860076904297,
				0.3479832410812378
			]
		},
		{
			"name":"logo",
			"translation":[
				0,
				252.78201293945312,
				-0.7785260081291199
			]
		},
		{
			"children":[
				8,
				9,
				10
			],
			"name":"root",
			"rotation":[
				-0.7071067690849304,
				0,
				0,
				0.7071067690849304
			]
		},
		{
			"mesh":0,
			"name":"OB_landmark",
			"skin":0
		},
		{
			"children":[
				12,
				11
			],
			"name":"Armature",
			"rotation":[
				0.7071068286895752,
				0,
				0,
				0.7071068286895752
			],
			"scale":[
				0.009999999776482582,
				0.009999999776482582,
				0.009999999776482582
			]
		}
	],
	"animations":[
		{
			"channels":[
				{
					"sampler":0,
					"target":{
						"node":11,
						"path":"translation"
					}
				},
				{
					"sampler":1,
					"target":{
						"node":11,
						"path":"rotation"
					}
				},
				{
					"sampler":2,
					"target":{
						"node":11,
						"path":"scale"
					}
				},
				{
					"sampler":3,
					"target":{
						"node":8,
						"path":"translation"
					}
				},
				{
					"sampler":4,
					"target":{
						"node":8,
						"path":"rotation"
					}
				},
				{
					"sampler":5,
					"target":{
						"node":8,
						"path":"scale"
					}
				},
				{
					"sampler":6,
					"target":{
						"node":0,
						"path":"translation"
					}
				},
				{
					"sampler":7,
					"target":{
						"node":0,
						"path":"rotation"
					}
				},
				{
					"sampler":8,
					"target":{
						"node":0,
						"path":"scale"
					}
				},
				{
					"sampler":9,
					"target":{
						"node":1,
						"path":"translation"
					}
				},
				{
					"sampler":10,
					"target":{
						"node":1,
						"path":"rotation"
					}
				},
				{
					"sampler":11,
					"target":{
						"node":1,
						"path":"scale"
					}
				},
				{
					"sampler":12,
					"target":{
						"node":2,
						"path":"translation"
					}
				},
				{
					"sampler":13,
					"target":{
						"node":2,
						"path":"rotation"
					}
				},
				{
					"sampler":14,
					"target":{
						"node":2,
						"path":"scale"
					}
				},
				{
					"sampler":15,
					"target":{
						"node":3,
						"path":"translation"
					}
				},
				{
					"sampler":16,
					"target":{
						"node":3,
						"path":"rotation"
					}
				},
				{
					"sampler":17,
					"target":{
						"node":3,
						"path":"scale"
					}
				},
				{
					"sampler":18,
					"target":{
						"node":4,
						"path":"translation"
					}
				},
				{
					"sampler":19,
					"target":{
						"node":4,
						"path":"rotation"
					}
				},
				{
					"sampler":20,
					"target":{
						"node":4,
						"path":"scale"
					}
				},
				{
					"sampler":21,
					"target":{
						"node":5,
						"path":"translation"
					}
				},
				{
					"sampler":22,
					"target":{
						"node":5,
						"path":"rotation"
					}
				},
				{
					"sampler":23,
					"target":{
						"node":5,
						"path":"scale"
					}
				},
				{
					"sampler":24,
					"target":{
						"node":6,
						"path":"translation"
					}
				},
				{
					"sampler":25,
					"target":{
						"node":6,
						"path":"rotation"
					}
				},
				{
					"sampler":26,
					"target":{
						"node":6,
						"path":"scale"
					}
				},
				{
					"sampler":27,
					"target":{
						"node":7,
						"path":"translation"
					}
				},
				{
					"sampler":28,
					"target":{
						"node":7,
						"path":"rotation"
					}
				},
				{
					"sampler":29,
					"target":{
						"node":7,
						"path":"scale"
					}
				},
				{
					"sampler":30,
					"target":{
						"node":9,
						"path":"translation"
					}
				},
				{
					"sampler":31,
					"target":{
						"node":9,
						"path":"rotation"
					}
				},
				{
					"sampler":32,
					"target":{
						"node":9,
						"path":"scale"
					}
				},
				{
					"sampler":33,
					"target":{
						"node":10,
						"path":"translation"
					}
				},
				{
					"sampler":34,
					"target":{
						"node":10,
						"path":"rotation"
					}
				},
				{
					"sampler":35,
					"target":{
						"node":10,
						"path":"scale"
					}
				}
			],
			"name":"Armature",
			"samplers":[
				{
					"input":8,
					"interpolation":"STEP",
					"output":9
				},
				{
					"input":8,
					"interpolation":"STEP",
					"output":10
				},
				{
					"input":8,
					"interpolation":"STEP",
					"output":11
				},
				{
					"input":8,
					"interpolation":"STEP",
					"output":12
				},
				{
					"input":13,
					"interpolation":"LINEAR",
					"output":14
				},
				{
					"input":8,
					"interpolation":"STEP",
					"output":15
				},
				{
					"input":13,
					"interpolation":"LINEAR",
					"output":16
				},
				{
					"input":8,
					"interpolation":"STEP",
					"output":17
				},
				{
					"input":8,
					"interpolation":"STEP",
					"output":18
				},
				{
					"input":13,
					"interpolation":"LINEAR",
					"output":19
				},
				{
					"input":8,
					"interpolation":"STEP",
					"output":20
				},
				{
					"input":8,
					"interpolation":"STEP",
					"output":21
				},
				{
					"input":13,
					"interpolation":"LINEAR",
					"output":22
				},
				{
					"input":8,
					"interpolation":"STEP",
					"output":23
				},
				{
					"input":8,
					"interpolation":"STEP",
					"output":24
				},
				{
					"input":13,
					"interpolation":"LINEAR",
					"output":25
				},
				{
					"input":8,
					"interpolation":"STEP",
					"output":26
				},
				{
					"input":8,
					"interpolation":"STEP",
					"output":27
				},
				{
					"input":13,
					"interpolation":"LINEAR",
					"output":28
				},
				{
					"input":8,
					"interpolation":"STEP",
					"output":29
				},
				{
					"input":8,
					"interpolation":"STEP",
					"output":30
				},
				{
					"input":13,
					"interpolation":"LINEAR",
					"output":31
				},
				{
					"input":8,
					"interpolation":"STEP",
					"output":32
				},
				{
					"input":8,
					"interpolation":"STEP",
					"output":33
				},
				{
					"input":13,
					"interpolation":"LINEAR",
					"output":34
				},
				{
					"input":8,
					"interpolation":"STEP",
					"output":35
				},
				{
					"input":8,
					"interpolation":"STEP",
					"output":36
				},
				{
					"input":13,
					"interpolation":"LINEAR",
					"output":37
				},
				{
					"input":8,
					"interpolation":"STEP",
					"output":38
				},
				{
					"input":8,
					"interpolation":"STEP",
					"output":39
				},
				{
					"input":13,
					"interpolation":"LINEAR",
					"output":40
				},
				{
					"input":13,
					"interpolation":"LINEAR",
					"output":41
				},
				{
					"input":8,
					"interpolation":"STEP",
					"output":42
				},
				{
					"input":13,
					"interpolation":"LINEAR",
					"output":43
				},
				{
					"input":13,
					"interpolation":"LINEAR",
					"output":44
				},
				{
					"input":8,
					"interpolation":"STEP",
					"output":45
				}
			]
		}
	],
	"materials":[
		{
			"doubleSided":true,
			"emissiveFactor":[
				1,
				1,
				1
			],
			"emissiveTexture":{
				"index":0
			},
			"name":"OB_landmark",
			"normalTexture":{
				"index":1
			},
			"occlusionTexture":{
				"index":2
			},
			"pbrMetallicRoughness":{
				"baseColorTexture":{
					"index":3
				},
				"metallicRoughnessTexture":{
					"index":2
				}
			}
		}
	],
	"meshes":[
		{
			"name":"OB_landmark",
			"primitives":[
				{
					"attributes":{
						"POSITION":0,
						"NORMAL":1,
						"TEXCOORD_0":2,
						"TANGENT":3,
						"JOINTS_0":4,
						"WEIGHTS_0":5
					},
					"indices":6,
					"material":0
				}
			]
		}
	],
	"textures":[
		{
			"sampler":0,
			"source":0
		},
		{
			"sampler":0,
			"source":1
		},
		{
			"sampler":0,
			"source":2
		},
		{
			"sampler":0,
			"source":3
		}
	],
	"images":[
		{
			"mimeType":"image/png",
			"name":"OB_landmark_DefaultMaterial_Emissive",
			"uri":"OB_landmark_DefaultMaterial_Emissive.png"
		},
		{
			"mimeType":"image/png",
			"name":"OB_landmark_DefaultMaterial_Normal",
			"uri":"OB_landmark_DefaultMaterial_Normal.png"
		},
		{
			"mimeType":"image/png",
			"name":"OB_landmark_DefaultMaterial_OcclusionRoughnessMetallic",
			"uri":"OB_landmark_DefaultMaterial_OcclusionRoughnessMetallic.png"
		},
		{
			"mimeType":"image/png",
			"name":"OB_landmark_DefaultMaterial_BaseColor",
			"uri":"OB_landmark_DefaultMaterial_BaseColor.png"
		}
	],
	"skins":[
		{
			"inverseBindMatrices":7,
			"joints":[
				11,
				8,
				0,
				1,
				2,
				3,
				4,
				5,
				6,
				7,
				9,
				10
			],
			"name":"Armature"
		}
	],
	"accessors":[
		{
			"bufferView":0,
			"componentType":5126,
			"count":1614,
			"max":[
				1,
				3.455735445022583,
				1
			],
			"min":[
				-1,
				-0.010942529886960983,
				-0.9999999403953552
			],
			"type":"VEC3"
		},
		{
			"bufferView":1,
			"componentType":5126,
			"count":1614,
			"type":"VEC3"
		},
		{
			"bufferView":2,
			"componentType":5126,
			"count":1614,
			"type":"VEC2"
		},
		{
			"bufferView":3,
			"componentType":5126,
			"count":1614,
			"type":"VEC4"
		},
		{
			"bufferView":4,
			"componentType":5121,
			"count":1614,
			"type":"VEC4"
		},
		{
			"bufferView":5,
			"componentType":5126,
			"count":1614,
			"type":"VEC4"
		},
		{
			"bufferView":6,
			"componentType":5123,
			"count":3000,
			"type":"SCALAR"
		},
		{
			"bufferView":7,
			"componentType":5126,
			"count":12,
			"type":"MAT4"
		},
		{
			"bufferView":8,
			"componentType":5126,
			"count":2,
			"max":[
				10.766666666666667
			],
			"min":[
				0
			],
			"type":"SCALAR"
		},
		{
			"bufferView":9,
			"componentType":5126,
			"count":2,
			"type":"VEC3"
		},
		{
			"bufferView":10,
			"componentType":5126,
			"count":2,
			"type":"VEC4"
		},
		{
			"bufferView":11,
			"componentType":5126,
			"count":2,
			"type":"VEC3"
		},
		{
			"bufferView":12,
			"componentType":5126,
			"count":2,
			"type":"VEC3"
		},
		{
			"bufferView":13,
			"componentType":5126,
			"count":324,
			"max":[
				10.766666666666667
			],
			"min":[
				0
			],
			"type":"SCALAR"
		},
		{
			"bufferView":14,
			"componentType":5126,
			"count":324,
			"type":"VEC4"
		},
		{
			"bufferView":15,
			"componentType":5126,
			"count":2,
			"type":"VEC3"
		},
		{
			"bufferView":16,
			"componentType":5126,
			"count":324,
			"type":"VEC3"
		},
		{
			"bufferView":17,
			"componentType":5126,
			"count":2,
			"type":"VEC4"
		},
		{
			"bufferView":18,
			"componentType":5126,
			"count":2,
			"type":"VEC3"
		},
		{
			"bufferView":19,
			"componentType":5126,
			"count":324,
			"type":"VEC3"
		},
		{
			"bufferView":20,
			"componentType":5126,
			"count":2,
			"type":"VEC4"
		},
		{
			"bufferView":21,
			"componentType":5126,
			"count":2,
			"type":"VEC3"
		},
		{
			"bufferView":22,
			"componentType":5126,
			"count":324,
			"type":"VEC3"
		},
		{
			"bufferView":23,
			"componentType":5126,
			"count":2,
			"type":"VEC4"
		},
		{
			"bufferView":24,
			"componentType":5126,
			"count":2,
			"type":"VEC3"
		},
		{
			"bufferView":25,
			"componentType":5126,
			"count":324,
			"type":"VEC3"
		},
		{
			"bufferView":26,
			"componentType":5126,
			"count":2,
			"type":"VEC4"
		},
		{
			"bufferView":27,
			"componentType":5126,
			"count":2,
			"type":"VEC3"
		},
		{
			"bufferView":28,
			"componentType":5126,
			"count":324,
			"type":"VEC3"
		},
		{
			"bufferView":29,
			"componentType":5126,
			"count":2,
			"type":"VEC4"
		},
		{
			"bufferView":30,
			"componentType":5126,
			"count":2,
			"type":"VEC3"
		},
		{
			"bufferView":31,
			"componentType":5126,
			"count":324,
			"type":"VEC3"
		},
		{
			"bufferView":32,
			"componentType":5126,
			"count":2,
			"type":"VEC4"
		},
		{
			"bufferView":33,
			"componentType":5126,
			"count":2,
			"type":"VEC3"
		},
		{
			"bufferView":34,
			"componentType":5126,
			"count":324,
			"type":"VEC3"
		},
		{
			"bufferView":35,
			"componentType":5126,
			"count":2,
			"type":"VEC4"
		},
		{
			"bufferView":36,
			"componentType":5126,
			"count":2,
			"type":"VEC3"
		},
		{
			"bufferView":37,
			"componentType":5126,
			"count":324,
			"type":"VEC3"
		},
		{
			"bufferView":38,
			"componentType":5126,
			"count":2,
			"type":"VEC4"
		},
		{
			"bufferView":39,
			"componentType":5126,
			"count":2,
			"type":"VEC3"
		},
		{
			"bufferView":40,
			"componentType":5126,
			"count":324,
			"type":"VEC3"
		},
		{
			"bufferView":41,
			"componentType":5126,
			"count":324,
			"type":"VEC4"
		},
		{
			"bufferView":42,
			"componentType":5126,
			"count":2,
			"type":"VEC3"
		},
		{
			"bufferView":43,
			"componentType":5126,
			"count":324,
			"type":"VEC3"
		},
		{
			"bufferView":44,
			"componentType":5126,
			"count":324,
			"type":"VEC4"
		},
		{
			"bufferView":45,
			"componentType":5126,
			"count":2,
			"type":"VEC3"
		}
	],
	"bufferViews":[
		{
			"buffer":0,
			"byteLength":19368,
			"byteOffset":0,
			"target":34962
		},
		{
			"buffer":0,
			"byteLength":19368,
			"byteOffset":19368,
			"target":34962
		},
		{
			"buffer":0,
			"byteLength":12912,
			"byteOffset":38736,
			"target":34962
		},
		{
			"buffer":0,
			"byteLength":25824,
			"byteOffset":51648,
			"target":34962
		},
		{
			"buffer":0,
			"byteLength":6456,
			"byteOffset":77472,
			"target":34962
		},
		{
			"buffer":0,
			"byteLength":25824,
			"byteOffset":83928,
			"target":34962
		},
		{
			"buffer":0,
			"byteLength":6000,
			"byteOffset":109752,
			"target":34963
		},
		{
			"buffer":0,
			"byteLength":768,
			"byteOffset":115752
		},
		{
			"buffer":0,
			"byteLength":8,
			"byteOffset":116520
		},
		{
			"buffer":0,
			"byteLength":24,
			"byteOffset":116528
		},
		{
			"buffer":0,
			"byteLength":32,
			"byteOffset":116552
		},
		{
			"buffer":0,
			"byteLength":24,
			"byteOffset":116584
		},
		{
			"buffer":0,
			"byteLength":24,
			"byteOffset":116608
		},
		{
			"buffer":0,
			"byteLength":1296,
			"byteOffset":116632
		},
		{
			"buffer":0,
			"byteLength":5184,
			"byteOffset":117928
		},
		{
			"buffer":0,
			"byteLength":24,
			"byteOffset":123112
		},
		{
			"buffer":0,
			"byteLength":3888,
			"byteOffset":123136
		},
		{
			"buffer":0,
			"byteLength":32,
			"byteOffset":127024
		},
		{
			"buffer":0,
			"byteLength":24,
			"byteOffset":127056
		},
		{
			"buffer":0,
			"byteLength":3888,
			"byteOffset":127080
		},
		{
			"buffer":0,
			"byteLength":32,
			"byteOffset":130968
		},
		{
			"buffer":0,
			"byteLength":24,
			"byteOffset":131000
		},
		{
			"buffer":0,
			"byteLength":3888,
			"byteOffset":131024
		},
		{
			"buffer":0,
			"byteLength":32,
			"byteOffset":134912
		},
		{
			"buffer":0,
			"byteLength":24,
			"byteOffset":134944
		},
		{
			"buffer":0,
			"byteLength":3888,
			"byteOffset":134968
		},
		{
			"buffer":0,
			"byteLength":32,
			"byteOffset":138856
		},
		{
			"buffer":0,
			"byteLength":24,
			"byteOffset":138888
		},
		{
			"buffer":0,
			"byteLength":3888,
			"byteOffset":138912
		},
		{
			"buffer":0,
			"byteLength":32,
			"byteOffset":142800
		},
		{
			"buffer":0,
			"byteLength":24,
			"byteOffset":142832
		},
		{
			"buffer":0,
			"byteLength":3888,
			"byteOffset":142856
		},
		{
			"buffer":0,
			"byteLength":32,
			"byteOffset":146744
		},
		{
			"buffer":0,
			"byteLength":24,
			"byteOffset":146776
		},
		{
			"buffer":0,
			"byteLength":3888,
			"byteOffset":146800
		},
		{
			"buffer":0,
			"byteLength":32,
			"byteOffset":150688
		},
		{
			"buffer":0,
			"byteLength":24,
			"byteOffset":150720
		},
		{
			"buffer":0,
			"byteLength":3888,
			"byteOffset":150744
		},
		{
			"buffer":0,
			"byteLength":32,
			"byteOffset":154632
		},
		{
			"buffer":0,
			"byteLength":24,
			"byteOffset":154664
		},
		{
			"buffer":0,
			"byteLength":3888,
			"byteOffset":154688
		},
		{
			"buffer":0,
			"byteLength":5184,
			"byteOffset":158576
		},
		{
			"buffer":0,
			"byteLength":24,
			"byteOffset":163760
		},
		{
			"buffer":0,
			"byteLength":3888,
			"byteOffset":163784
		},
		{
			"buffer":0,
			"byteLength":5184,
			"byteOffset":167672
		},
		{
			"buffer":0,
			"byteLength":24,
			"byteOffset":172856
		}
	],
	"samplers":[
		{
			"magFilter":9729,
			"minFilter":9987
		}
	],
	"buffers":[
		{
			"byteLength":172880,
			"uri":"OB_landmark.bin"
		}
	]
}
