{
	"asset":{
		"generator":"Khronos glTF Blender I/O v4.1.63",
		"version":"2.0"
	},
	"scene":0,
	"scenes":[
		{
			"name":"Scene",
			"nodes":[
				0
			]
		}
	],
	"nodes":[
		{
			"mesh":0,
			"name":"OB_main_character_low"
		}
	],
	"materials":[
		{
			"doubleSided":true,
			"emissiveFactor":[
				1,
				1,
				1
			],
			"emissiveTexture":{
				"index":0
			},
			"name":"MainCharacter",
			"normalTexture":{
				"index":1
			},
			"pbrMetallicRoughness":{
				"baseColorTexture":{
					"index":2
				},
				"metallicRoughnessTexture":{
					"index":3
				},
				"roughnessFactor":0.5
			}
		}
	],
	"meshes":[
		{
			"name":"mesh.025",
			"primitives":[
				{
					"attributes":{
						"POSITION":0,
						"NORMAL":1,
						"TEXCOORD_0":2,
						"TEXCOORD_1":3,
						"TANGENT":4
					},
					"indices":5,
					"material":0
				}
			]
		}
	],
	"textures":[
		{
			"sampler":0,
			"source":0
		},
		{
			"sampler":0,
			"source":1
		},
		{
			"sampler":0,
			"source":2
		},
		{
			"sampler":0,
			"source":3
		}
	],
	"images":[
		{
			"mimeType":"image/png",
			"name":"MainCharacter3.0_low_MainCharacter_Emissive",
			"uri":"MainCharacter3_0_low_MainCharacter_Emissive.png"
		},
		{
			"mimeType":"image/png",
			"name":"MainCharacter3.0_low_MainCharacter_Normal",
			"uri":"MainCharacter3_0_low_MainCharacter_Normal.png"
		},
		{
			"mimeType":"image/png",
			"name":"MainCharacter3.0_low_MainCharacter_Albedo",
			"uri":"MainCharacter3_0_low_MainCharacter_Albedo.png"
		},
		{
			"mimeType":"image/png",
			"name":"MainCharacter3.0_low_MainCharacter_Metallic",
			"uri":"MainCharacter3_0_low_MainCharacter_Metallic.png"
		}
	],
	"accessors":[
		{
			"bufferView":0,
			"componentType":5126,
			"count":11415,
			"max":[
				0.4364577531814575,
				1.8782998323440552,
				0.24072185158729553
			],
			"min":[
				-0.4546496570110321,
				-0.03827841952443123,
				-0.15483926236629486
			],
			"type":"VEC3"
		},
		{
			"bufferView":1,
			"componentType":5126,
			"count":11415,
			"type":"VEC3"
		},
		{
			"bufferView":2,
			"componentType":5126,
			"count":11415,
			"type":"VEC2"
		},
		{
			"bufferView":3,
			"componentType":5126,
			"count":11415,
			"type":"VEC2"
		},
		{
			"bufferView":4,
			"componentType":5126,
			"count":11415,
			"type":"VEC4"
		},
		{
			"bufferView":5,
			"componentType":5123,
			"count":45000,
			"type":"SCALAR"
		}
	],
	"bufferViews":[
		{
			"buffer":0,
			"byteLength":136980,
			"byteOffset":0,
			"target":34962
		},
		{
			"buffer":0,
			"byteLength":136980,
			"byteOffset":136980,
			"target":34962
		},
		{
			"buffer":0,
			"byteLength":91320,
			"byteOffset":273960,
			"target":34962
		},
		{
			"buffer":0,
			"byteLength":91320,
			"byteOffset":365280,
			"target":34962
		},
		{
			"buffer":0,
			"byteLength":182640,
			"byteOffset":456600,
			"target":34962
		},
		{
			"buffer":0,
			"byteLength":90000,
			"byteOffset":639240,
			"target":34963
		}
	],
	"samplers":[
		{
			"magFilter":9729,
			"minFilter":9987
		}
	],
	"buffers":[
		{
			"byteLength":729240,
			"uri":"OB_main_character_low.bin"
		}
	]
}
