{
	"asset":{
		"generator":"Khronos glTF Blender I/O v4.1.63",
		"version":"2.0"
	},
	"scene":0,
	"scenes":[
		{
			"name":"Scene",
			"nodes":[
				0
			]
		}
	],
	"nodes":[
		{
			"mesh":0,
			"name":"OB_Mini_Elevator",
			"translation":[
				84.50955200195312,
				61.558074951171875,
				12.703605651855469
			]
		}
	],
	"materials":[
		{
			"doubleSided":true,
			"emissiveFactor":[
				1,
				1,
				1
			],
			"emissiveTexture":{
				"index":0
			},
			"name":"M_Elevator",
			"normalTexture":{
				"index":1
			},
			"occlusionTexture":{
				"index":2
			},
			"pbrMetallicRoughness":{
				"baseColorTexture":{
					"index":3
				},
				"metallicRoughnessTexture":{
					"index":2
				}
			}
		},
		{
			"doubleSided":true,
			"name":"M_Pipes_Railings",
			"normalTexture":{
				"index":4
			},
			"occlusionTexture":{
				"index":5
			},
			"pbrMetallicRoughness":{
				"baseColorTexture":{
					"index":6
				},
				"metallicRoughnessTexture":{
					"index":5
				}
			}
		}
	],
	"meshes":[
		{
			"name":"Mesh.015",
			"primitives":[
				{
					"attributes":{
						"POSITION":0,
						"NORMAL":1,
						"TEXCOORD_0":2,
						"TANGENT":3
					},
					"indices":4,
					"material":0
				},
				{
					"attributes":{
						"POSITION":5,
						"NORMAL":6,
						"TEXCOORD_0":7,
						"TANGENT":8
					},
					"indices":9,
					"material":1
				}
			]
		}
	],
	"textures":[
		{
			"sampler":0,
			"source":0
		},
		{
			"sampler":0,
			"source":1
		},
		{
			"sampler":0,
			"source":2
		},
		{
			"sampler":0,
			"source":3
		},
		{
			"sampler":0,
			"source":4
		},
		{
			"sampler":0,
			"source":5
		},
		{
			"sampler":0,
			"source":6
		}
	],
	"images":[
		{
			"mimeType":"image/png",
			"name":"T_Elevator_Emissive",
			"uri":"T_Elevator_Emissive.png"
		},
		{
			"mimeType":"image/png",
			"name":"T_Elevator_Normal",
			"uri":"T_Elevator_Normal.png"
		},
		{
			"mimeType":"image/png",
			"name":"T_Elevator_OcclusionRoughnessMetallic",
			"uri":"T_Elevator_OcclusionRoughnessMetallic.png"
		},
		{
			"mimeType":"image/png",
			"name":"T_Elevator_BaseColor",
			"uri":"T_Elevator_BaseColor.png"
		},
		{
			"mimeType":"image/png",
			"name":"T_Pipes_Railings_Normal",
			"uri":"T_Pipes_Railings_Normal.png"
		},
		{
			"mimeType":"image/png",
			"name":"T_Pipes_Railings_OcclusionRoughnessMetallic",
			"uri":"T_Pipes_Railings_OcclusionRoughnessMetallic.png"
		},
		{
			"mimeType":"image/png",
			"name":"T_Pipes_Railings_BaseColor",
			"uri":"T_Pipes_Railings_BaseColor.png"
		}
	],
	"accessors":[
		{
			"bufferView":0,
			"componentType":5126,
			"count":1246,
			"max":[
				4.854949951171875,
				4.1983642578125,
				4.343893051147461
			],
			"min":[
				-4.854949951171875,
				-4.198368072509766,
				-4.3438920974731445
			],
			"type":"VEC3"
		},
		{
			"bufferView":1,
			"componentType":5126,
			"count":1246,
			"type":"VEC3"
		},
		{
			"bufferView":2,
			"componentType":5126,
			"count":1246,
			"type":"VEC2"
		},
		{
			"bufferView":3,
			"componentType":5126,
			"count":1246,
			"type":"VEC4"
		},
		{
			"bufferView":4,
			"componentType":5123,
			"count":2976,
			"type":"SCALAR"
		},
		{
			"bufferView":5,
			"componentType":5126,
			"count":37612,
			"max":[
				4.600860595703125,
				3.800384521484375,
				4.190031051635742
			],
			"min":[
				-4.523040771484375,
				3.3225173950195312,
				-3.6616764068603516
			],
			"type":"VEC3"
		},
		{
			"bufferView":6,
			"componentType":5126,
			"count":37612,
			"type":"VEC3"
		},
		{
			"bufferView":7,
			"componentType":5126,
			"count":37612,
			"type":"VEC2"
		},
		{
			"bufferView":8,
			"componentType":5126,
			"count":37612,
			"type":"VEC4"
		},
		{
			"bufferView":9,
			"componentType":5123,
			"count":155760,
			"type":"SCALAR"
		}
	],
	"bufferViews":[
		{
			"buffer":0,
			"byteLength":14952,
			"byteOffset":0,
			"target":34962
		},
		{
			"buffer":0,
			"byteLength":14952,
			"byteOffset":14952,
			"target":34962
		},
		{
			"buffer":0,
			"byteLength":9968,
			"byteOffset":29904,
			"target":34962
		},
		{
			"buffer":0,
			"byteLength":19936,
			"byteOffset":39872,
			"target":34962
		},
		{
			"buffer":0,
			"byteLength":5952,
			"byteOffset":59808,
			"target":34963
		},
		{
			"buffer":0,
			"byteLength":451344,
			"byteOffset":65760,
			"target":34962
		},
		{
			"buffer":0,
			"byteLength":451344,
			"byteOffset":517104,
			"target":34962
		},
		{
			"buffer":0,
			"byteLength":300896,
			"byteOffset":968448,
			"target":34962
		},
		{
			"buffer":0,
			"byteLength":601792,
			"byteOffset":1269344,
			"target":34962
		},
		{
			"buffer":0,
			"byteLength":311520,
			"byteOffset":1871136,
			"target":34963
		}
	],
	"samplers":[
		{
			"magFilter":9729,
			"minFilter":9987
		}
	],
	"buffers":[
		{
			"byteLength":2182656,
			"uri":"OB_Mini_Elevator.bin"
		}
	]
}
