{
	"asset":{
		"generator":"Khronos glTF Blender I/O v4.1.63",
		"version":"2.0"
	},
	"scene":0,
	"scenes":[
		{
			"name":"Scene",
			"nodes":[
				0,
				1
			]
		}
	],
	"nodes":[
		{
			"mesh":0,
			"name":"OB_BB_Puerta.001",
			"translation":[
				439.51458740234375,
				-0.10210337489843369,
				-23.114768981933594
			]
		},
		{
			"mesh":1,
			"name":"OB_Mini_Elevator",
			"translation":[
				439.32275390625,
				-0.4855532944202423,
				-23.02643394470215
			]
		}
	],
	"materials":[
		{
			"doubleSided":true,
			"emissiveFactor":[
				1,
				1,
				1
			],
			"emissiveTexture":{
				"index":0
			},
			"name":"M_Barandillas_Boss",
			"normalTexture":{
				"index":1
			},
			"occlusionTexture":{
				"index":2
			},
			"pbrMetallicRoughness":{
				"baseColorTexture":{
					"index":3
				},
				"metallicRoughnessTexture":{
					"index":2
				}
			}
		},
		{
			"doubleSided":true,
			"emissiveFactor":[
				1,
				1,
				1
			],
			"emissiveTexture":{
				"index":4
			},
			"name":"M_Elevator.001",
			"normalTexture":{
				"index":5
			},
			"occlusionTexture":{
				"index":6
			},
			"pbrMetallicRoughness":{
				"baseColorTexture":{
					"index":7
				},
				"metallicRoughnessTexture":{
					"index":6
				}
			}
		}
	],
	"meshes":[
		{
			"name":"Cylinder.029",
			"primitives":[
				{
					"attributes":{
						"POSITION":0,
						"NORMAL":1,
						"TEXCOORD_0":2,
						"TANGENT":3
					},
					"indices":4,
					"material":0
				}
			]
		},
		{
			"name":"Mesh.064",
			"primitives":[
				{
					"attributes":{
						"POSITION":5,
						"NORMAL":6,
						"TEXCOORD_0":7,
						"TANGENT":8
					},
					"indices":9,
					"material":1
				},
				{
					"attributes":{
						"POSITION":10,
						"NORMAL":11,
						"TEXCOORD_0":12,
						"TANGENT":13
					},
					"indices":14,
					"material":0
				}
			]
		}
	],
	"textures":[
		{
			"sampler":0,
			"source":0
		},
		{
			"sampler":0,
			"source":1
		},
		{
			"sampler":0,
			"source":2
		},
		{
			"sampler":0,
			"source":3
		},
		{
			"sampler":0,
			"source":4
		},
		{
			"sampler":0,
			"source":5
		},
		{
			"sampler":0,
			"source":6
		},
		{
			"sampler":0,
			"source":7
		}
	],
	"images":[
		{
			"mimeType":"image/png",
			"name":"OB_Barandillas_Boss_M_Barandillas_Boss_Emissive",
			"uri":"OB_Barandillas_Boss_M_Barandillas_Boss_Emissive.png"
		},
		{
			"mimeType":"image/png",
			"name":"OB_Barandillas_Boss_M_Barandillas_Boss_Normal",
			"uri":"OB_Barandillas_Boss_M_Barandillas_Boss_Normal.png"
		},
		{
			"mimeType":"image/png",
			"name":"OB_Barandillas_Boss_M_Barandillas_Boss_OcclusionRoughnessMe",
			"uri":"OB_Barandillas_Boss_M_Barandillas_Boss_OcclusionRoughnessMe.png"
		},
		{
			"mimeType":"image/png",
			"name":"OB_Barandillas_Boss_M_Barandillas_Boss_BaseColor",
			"uri":"OB_Barandillas_Boss_M_Barandillas_Boss_BaseColor.png"
		},
		{
			"mimeType":"image/png",
			"name":"T_Elevator_Emissive",
			"uri":"T_Elevator_Emissive.png"
		},
		{
			"mimeType":"image/png",
			"name":"T_Elevator_Normal",
			"uri":"T_Elevator_Normal.png"
		},
		{
			"mimeType":"image/png",
			"name":"T_Elevator_OcclusionRoughnessMetallic",
			"uri":"T_Elevator_OcclusionRoughnessMetallic.png"
		},
		{
			"mimeType":"image/png",
			"name":"T_Elevator_BaseColor",
			"uri":"T_Elevator_BaseColor.png"
		}
	],
	"accessors":[
		{
			"bufferView":0,
			"componentType":5126,
			"count":4548,
			"max":[
				4.600067138671875,
				0.4861792027950287,
				1.171091079711914
			],
			"min":[
				-4.597259521484375,
				-0.623232901096344,
				-1.170980453491211
			],
			"type":"VEC3"
		},
		{
			"bufferView":1,
			"componentType":5126,
			"count":4548,
			"type":"VEC3"
		},
		{
			"bufferView":2,
			"componentType":5126,
			"count":4548,
			"type":"VEC2"
		},
		{
			"bufferView":3,
			"componentType":5126,
			"count":4548,
			"type":"VEC4"
		},
		{
			"bufferView":4,
			"componentType":5123,
			"count":15456,
			"type":"SCALAR"
		},
		{
			"bufferView":5,
			"componentType":5126,
			"count":1684,
			"max":[
				5.048187255859375,
				1.290479302406311,
				4.115379333496094
			],
			"min":[
				-4.661712646484375,
				-7.911170482635498,
				-5.273937225341797
			],
			"type":"VEC3"
		},
		{
			"bufferView":6,
			"componentType":5126,
			"count":1684,
			"type":"VEC3"
		},
		{
			"bufferView":7,
			"componentType":5126,
			"count":1684,
			"type":"VEC2"
		},
		{
			"bufferView":8,
			"componentType":5126,
			"count":1684,
			"type":"VEC4"
		},
		{
			"bufferView":9,
			"componentType":5123,
			"count":2976,
			"type":"SCALAR"
		},
		{
			"bufferView":10,
			"componentType":5126,
			"count":14935,
			"max":[
				4.79815673828125,
				0.8696298599243164,
				3.6226978302001953
			],
			"min":[
				-4.404052734375,
				-0.2717730700969696,
				-3.822002410888672
			],
			"type":"VEC3"
		},
		{
			"bufferView":11,
			"componentType":5126,
			"count":14935,
			"type":"VEC3"
		},
		{
			"bufferView":12,
			"componentType":5126,
			"count":14935,
			"type":"VEC2"
		},
		{
			"bufferView":13,
			"componentType":5126,
			"count":14935,
			"type":"VEC4"
		},
		{
			"bufferView":14,
			"componentType":5123,
			"count":48654,
			"type":"SCALAR"
		}
	],
	"bufferViews":[
		{
			"buffer":0,
			"byteLength":54576,
			"byteOffset":0,
			"target":34962
		},
		{
			"buffer":0,
			"byteLength":54576,
			"byteOffset":54576,
			"target":34962
		},
		{
			"buffer":0,
			"byteLength":36384,
			"byteOffset":109152,
			"target":34962
		},
		{
			"buffer":0,
			"byteLength":72768,
			"byteOffset":145536,
			"target":34962
		},
		{
			"buffer":0,
			"byteLength":30912,
			"byteOffset":218304,
			"target":34963
		},
		{
			"buffer":0,
			"byteLength":20208,
			"byteOffset":249216,
			"target":34962
		},
		{
			"buffer":0,
			"byteLength":20208,
			"byteOffset":269424,
			"target":34962
		},
		{
			"buffer":0,
			"byteLength":13472,
			"byteOffset":289632,
			"target":34962
		},
		{
			"buffer":0,
			"byteLength":26944,
			"byteOffset":303104,
			"target":34962
		},
		{
			"buffer":0,
			"byteLength":5952,
			"byteOffset":330048,
			"target":34963
		},
		{
			"buffer":0,
			"byteLength":179220,
			"byteOffset":336000,
			"target":34962
		},
		{
			"buffer":0,
			"byteLength":179220,
			"byteOffset":515220,
			"target":34962
		},
		{
			"buffer":0,
			"byteLength":119480,
			"byteOffset":694440,
			"target":34962
		},
		{
			"buffer":0,
			"byteLength":238960,
			"byteOffset":813920,
			"target":34962
		},
		{
			"buffer":0,
			"byteLength":97308,
			"byteOffset":1052880,
			"target":34963
		}
	],
	"samplers":[
		{
			"magFilter":9729,
			"minFilter":9987
		}
	],
	"buffers":[
		{
			"byteLength":1150188,
			"uri":"OB_Mini_Elevator.bin"
		}
	]
}
