{
	"asset":{
		"generator":"Khronos glTF Blender I/O v4.1.63",
		"version":"2.0"
	},
	"scene":0,
	"scenes":[
		{
			"name":"Scene",
			"nodes":[
				0
			]
		}
	],
	"nodes":[
		{
			"mesh":0,
			"name":"OB_melee_weapon"
		}
	],
	"materials":[
		{
			"doubleSided":true,
			"emissiveFactor":[
				1,
				1,
				1
			],
			"emissiveTexture":{
				"index":0
			},
			"name":"Melee",
			"normalTexture":{
				"index":1
			},
			"pbrMetallicRoughness":{
				"baseColorTexture":{
					"index":2
				},
				"metallicFactor":0,
				"roughnessFactor":0.5
			}
		}
	],
	"meshes":[
		{
			"name":"Torus.006",
			"primitives":[
				{
					"attributes":{
						"POSITION":0,
						"NORMAL":1,
						"TEXCOORD_0":2,
						"TANGENT":3
					},
					"indices":4,
					"material":0
				}
			]
		}
	],
	"textures":[
		{
			"sampler":0,
			"source":0
		},
		{
			"sampler":0,
			"source":1
		},
		{
			"sampler":0,
			"source":2
		}
	],
	"images":[
		{
			"mimeType":"image/png",
			"name":"Melee_Emissive",
			"uri":"Melee_Emissive.png"
		},
		{
			"mimeType":"image/png",
			"name":"Melee_Normal",
			"uri":"Melee_Normal.png"
		},
		{
			"mimeType":"image/png",
			"name":"Melee_BaseMap",
			"uri":"Melee_BaseMap.png"
		}
	],
	"accessors":[
		{
			"bufferView":0,
			"componentType":5126,
			"count":1506,
			"max":[
				1.386925220489502,
				24.909896850585938,
				0.43614462018013
			],
			"min":[
				-2.222923994064331,
				-1.25,
				-0.4315134286880493
			],
			"type":"VEC3"
		},
		{
			"bufferView":1,
			"componentType":5126,
			"count":1506,
			"type":"VEC3"
		},
		{
			"bufferView":2,
			"componentType":5126,
			"count":1506,
			"type":"VEC2"
		},
		{
			"bufferView":3,
			"componentType":5126,
			"count":1506,
			"type":"VEC4"
		},
		{
			"bufferView":4,
			"componentType":5123,
			"count":5973,
			"type":"SCALAR"
		}
	],
	"bufferViews":[
		{
			"buffer":0,
			"byteLength":18072,
			"byteOffset":0,
			"target":34962
		},
		{
			"buffer":0,
			"byteLength":18072,
			"byteOffset":18072,
			"target":34962
		},
		{
			"buffer":0,
			"byteLength":12048,
			"byteOffset":36144,
			"target":34962
		},
		{
			"buffer":0,
			"byteLength":24096,
			"byteOffset":48192,
			"target":34962
		},
		{
			"buffer":0,
			"byteLength":11946,
			"byteOffset":72288,
			"target":34963
		}
	],
	"samplers":[
		{
			"magFilter":9729,
			"minFilter":9987
		}
	],
	"buffers":[
		{
			"byteLength":84236,
			"uri":"OB_melee_weapon.bin"
		}
	]
}
