{
	"asset":{
		"generator":"Khronos glTF Blender I/O v4.1.63",
		"version":"2.0"
	},
	"scene":0,
	"scenes":[
		{
			"name":"Scene",
			"nodes":[
				5
			]
		}
	],
	"nodes":[
		{
			"name":"smaller_circle",
			"rotation":[
				-7.726888654737904e-17,
				2.4726043695161293e-15,
				0.6956143975257874,
				0.718415379524231
			],
			"scale":[
				0.9999998807907104,
				0.9999998807907104,
				1
			],
			"translation":[
				-0.7236588001251221,
				61.510986328125,
				0
			]
		},
		{
			"name":"bigger_circle",
			"rotation":[
				0,
				0,
				0.7021099925041199,
				0.712068498134613
			],
			"translation":[
				0.7236588001251221,
				106.37783813476562,
				0
			]
		},
		{
			"name":"particle",
			"translation":[
				2.170976400375366,
				250.77879333496094,
				0
			]
		},
		{
			"children":[
				0,
				1,
				2
			],
			"name":"Root",
			"rotation":[
				-0.7071067690849304,
				0,
				0,
				0.7071067690849304
			],
			"translation":[
				0,
				1.8189894035458565e-12,
				208.4137420654297
			]
		},
		{
			"mesh":0,
			"name":"OB_Heavy_Shot",
			"skin":0
		},
		{
			"children":[
				4,
				3
			],
			"name":"Armature",
			"rotation":[
				0.7071068286895752,
				0,
				0,
				0.7071068286895752
			],
			"scale":[
				0.009999999776482582,
				0.009999999776482582,
				0.009999999776482582
			]
		}
	],
	"animations":[
		{
			"channels":[
				{
					"sampler":0,
					"target":{
						"node":3,
						"path":"translation"
					}
				},
				{
					"sampler":1,
					"target":{
						"node":3,
						"path":"rotation"
					}
				},
				{
					"sampler":2,
					"target":{
						"node":3,
						"path":"scale"
					}
				},
				{
					"sampler":3,
					"target":{
						"node":0,
						"path":"translation"
					}
				},
				{
					"sampler":4,
					"target":{
						"node":0,
						"path":"rotation"
					}
				},
				{
					"sampler":5,
					"target":{
						"node":0,
						"path":"scale"
					}
				},
				{
					"sampler":6,
					"target":{
						"node":1,
						"path":"translation"
					}
				},
				{
					"sampler":7,
					"target":{
						"node":1,
						"path":"rotation"
					}
				},
				{
					"sampler":8,
					"target":{
						"node":1,
						"path":"scale"
					}
				},
				{
					"sampler":9,
					"target":{
						"node":2,
						"path":"translation"
					}
				},
				{
					"sampler":10,
					"target":{
						"node":2,
						"path":"rotation"
					}
				},
				{
					"sampler":11,
					"target":{
						"node":2,
						"path":"scale"
					}
				}
			],
			"name":"Armature|Take 001|BaseLayer",
			"samplers":[
				{
					"input":8,
					"interpolation":"STEP",
					"output":9
				},
				{
					"input":8,
					"interpolation":"STEP",
					"output":10
				},
				{
					"input":8,
					"interpolation":"STEP",
					"output":11
				},
				{
					"input":12,
					"interpolation":"LINEAR",
					"output":13
				},
				{
					"input":12,
					"interpolation":"LINEAR",
					"output":14
				},
				{
					"input":8,
					"interpolation":"STEP",
					"output":15
				},
				{
					"input":12,
					"interpolation":"LINEAR",
					"output":16
				},
				{
					"input":12,
					"interpolation":"LINEAR",
					"output":17
				},
				{
					"input":8,
					"interpolation":"STEP",
					"output":18
				},
				{
					"input":12,
					"interpolation":"LINEAR",
					"output":19
				},
				{
					"input":12,
					"interpolation":"LINEAR",
					"output":20
				},
				{
					"input":8,
					"interpolation":"STEP",
					"output":21
				}
			]
		}
	],
	"materials":[
		{
			"doubleSided":true,
			"emissiveFactor":[
				1,
				1,
				1
			],
			"emissiveTexture":{
				"index":0
			},
			"name":"M_Heavy",
			"pbrMetallicRoughness":{
				"metallicFactor":0,
				"roughnessFactor":0.5527864098548889
			}
		}
	],
	"meshes":[
		{
			"name":"Mesh",
			"primitives":[
				{
					"attributes":{
						"POSITION":0,
						"NORMAL":1,
						"TEXCOORD_0":2,
						"TANGENT":3,
						"JOINTS_0":4,
						"WEIGHTS_0":5
					},
					"indices":6,
					"material":0
				}
			]
		}
	],
	"textures":[
		{
			"sampler":0,
			"source":0
		}
	],
	"images":[
		{
			"mimeType":"image/png",
			"name":"OB_Heavy_Shot_DefaultMaterial_Emissive",
			"uri":"OB_Heavy_Shot_DefaultMaterial_Emissive.png"
		}
	],
	"skins":[
		{
			"inverseBindMatrices":7,
			"joints":[
				3,
				0,
				1,
				2
			],
			"name":"Armature"
		}
	],
	"accessors":[
		{
			"bufferView":0,
			"componentType":5126,
			"count":1616,
			"max":[
				2.600213050842285,
				1.6654200553894043,
				2.600213050842285
			],
			"min":[
				-2.600213050842285,
				-1.5496529340744019,
				-2.600212812423706
			],
			"type":"VEC3"
		},
		{
			"bufferView":1,
			"componentType":5126,
			"count":1616,
			"type":"VEC3"
		},
		{
			"bufferView":2,
			"componentType":5126,
			"count":1616,
			"type":"VEC2"
		},
		{
			"bufferView":3,
			"componentType":5126,
			"count":1616,
			"type":"VEC4"
		},
		{
			"bufferView":4,
			"componentType":5121,
			"count":1616,
			"type":"VEC4"
		},
		{
			"bufferView":5,
			"componentType":5126,
			"count":1616,
			"type":"VEC4"
		},
		{
			"bufferView":6,
			"componentType":5123,
			"count":2826,
			"type":"SCALAR"
		},
		{
			"bufferView":7,
			"componentType":5126,
			"count":4,
			"type":"MAT4"
		},
		{
			"bufferView":8,
			"componentType":5126,
			"count":2,
			"max":[
				2.033333333333333
			],
			"min":[
				0.03333333333333333
			],
			"type":"SCALAR"
		},
		{
			"bufferView":9,
			"componentType":5126,
			"count":2,
			"type":"VEC3"
		},
		{
			"bufferView":10,
			"componentType":5126,
			"count":2,
			"type":"VEC4"
		},
		{
			"bufferView":11,
			"componentType":5126,
			"count":2,
			"type":"VEC3"
		},
		{
			"bufferView":12,
			"componentType":5126,
			"count":61,
			"max":[
				2.033333333333333
			],
			"min":[
				0.03333333333333333
			],
			"type":"SCALAR"
		},
		{
			"bufferView":13,
			"componentType":5126,
			"count":61,
			"type":"VEC3"
		},
		{
			"bufferView":14,
			"componentType":5126,
			"count":61,
			"type":"VEC4"
		},
		{
			"bufferView":15,
			"componentType":5126,
			"count":2,
			"type":"VEC3"
		},
		{
			"bufferView":16,
			"componentType":5126,
			"count":61,
			"type":"VEC3"
		},
		{
			"bufferView":17,
			"componentType":5126,
			"count":61,
			"type":"VEC4"
		},
		{
			"bufferView":18,
			"componentType":5126,
			"count":2,
			"type":"VEC3"
		},
		{
			"bufferView":19,
			"componentType":5126,
			"count":61,
			"type":"VEC3"
		},
		{
			"bufferView":20,
			"componentType":5126,
			"count":61,
			"type":"VEC4"
		},
		{
			"bufferView":21,
			"componentType":5126,
			"count":2,
			"type":"VEC3"
		}
	],
	"bufferViews":[
		{
			"buffer":0,
			"byteLength":19392,
			"byteOffset":0,
			"target":34962
		},
		{
			"buffer":0,
			"byteLength":19392,
			"byteOffset":19392,
			"target":34962
		},
		{
			"buffer":0,
			"byteLength":12928,
			"byteOffset":38784,
			"target":34962
		},
		{
			"buffer":0,
			"byteLength":25856,
			"byteOffset":51712,
			"target":34962
		},
		{
			"buffer":0,
			"byteLength":6464,
			"byteOffset":77568,
			"target":34962
		},
		{
			"buffer":0,
			"byteLength":25856,
			"byteOffset":84032,
			"target":34962
		},
		{
			"buffer":0,
			"byteLength":5652,
			"byteOffset":109888,
			"target":34963
		},
		{
			"buffer":0,
			"byteLength":256,
			"byteOffset":115540
		},
		{
			"buffer":0,
			"byteLength":8,
			"byteOffset":115796
		},
		{
			"buffer":0,
			"byteLength":24,
			"byteOffset":115804
		},
		{
			"buffer":0,
			"byteLength":32,
			"byteOffset":115828
		},
		{
			"buffer":0,
			"byteLength":24,
			"byteOffset":115860
		},
		{
			"buffer":0,
			"byteLength":244,
			"byteOffset":115884
		},
		{
			"buffer":0,
			"byteLength":732,
			"byteOffset":116128
		},
		{
			"buffer":0,
			"byteLength":976,
			"byteOffset":116860
		},
		{
			"buffer":0,
			"byteLength":24,
			"byteOffset":117836
		},
		{
			"buffer":0,
			"byteLength":732,
			"byteOffset":117860
		},
		{
			"buffer":0,
			"byteLength":976,
			"byteOffset":118592
		},
		{
			"buffer":0,
			"byteLength":24,
			"byteOffset":119568
		},
		{
			"buffer":0,
			"byteLength":732,
			"byteOffset":119592
		},
		{
			"buffer":0,
			"byteLength":976,
			"byteOffset":120324
		},
		{
			"buffer":0,
			"byteLength":24,
			"byteOffset":121300
		}
	],
	"samplers":[
		{
			"magFilter":9729,
			"minFilter":9987
		}
	],
	"buffers":[
		{
			"byteLength":121324,
			"uri":"OB_Pickup_Heavy_Shot.bin"
		}
	]
}
