{
	"asset":{
		"generator":"Khronos glTF Blender I/O v4.1.63",
		"version":"2.0"
	},
	"scene":0,
	"scenes":[
		{
			"name":"Scene",
			"nodes":[
				5
			]
		}
	],
	"nodes":[
		{
			"name":"smaller_circle",
			"rotation":[
				-7.726888654737904e-17,
				0,
				0.6956144571304321,
				0.7184153199195862
			],
			"translation":[
				-0.7236588001251221,
				61.510986328125,
				0
			]
		},
		{
			"name":"bigger_circle",
			"rotation":[
				0,
				0,
				0.7021099925041199,
				0.712068498134613
			],
			"translation":[
				0.7236588001251221,
				106.37783813476562,
				0
			]
		},
		{
			"name":"particle",
			"translation":[
				2.170976400375366,
				209.13739013671875,
				-3.552713678800501e-15
			]
		},
		{
			"children":[
				0,
				1,
				2
			],
			"name":"Root",
			"rotation":[
				-0.7071067690849304,
				0,
				0,
				0.7071067690849304
			],
			"translation":[
				0,
				1.8189894035458565e-12,
				208.4137420654297
			]
		},
		{
			"mesh":0,
			"name":"OB_Heal",
			"skin":0
		},
		{
			"children":[
				4,
				3
			],
			"name":"Armature",
			"rotation":[
				0.7071068286895752,
				0,
				0,
				0.7071068286895752
			],
			"scale":[
				0.009999999776482582,
				0.009999999776482582,
				0.009999999776482582
			]
		}
	],
	"animations":[
		{
			"channels":[
				{
					"sampler":0,
					"target":{
						"node":3,
						"path":"translation"
					}
				},
				{
					"sampler":1,
					"target":{
						"node":3,
						"path":"rotation"
					}
				},
				{
					"sampler":2,
					"target":{
						"node":3,
						"path":"scale"
					}
				},
				{
					"sampler":3,
					"target":{
						"node":0,
						"path":"translation"
					}
				},
				{
					"sampler":4,
					"target":{
						"node":0,
						"path":"rotation"
					}
				},
				{
					"sampler":5,
					"target":{
						"node":0,
						"path":"scale"
					}
				},
				{
					"sampler":6,
					"target":{
						"node":1,
						"path":"translation"
					}
				},
				{
					"sampler":7,
					"target":{
						"node":1,
						"path":"rotation"
					}
				},
				{
					"sampler":8,
					"target":{
						"node":1,
						"path":"scale"
					}
				},
				{
					"sampler":9,
					"target":{
						"node":2,
						"path":"translation"
					}
				},
				{
					"sampler":10,
					"target":{
						"node":2,
						"path":"rotation"
					}
				},
				{
					"sampler":11,
					"target":{
						"node":2,
						"path":"scale"
					}
				}
			],
			"name":"Armature|Take 001|BaseLayer",
			"samplers":[
				{
					"input":7,
					"interpolation":"STEP",
					"output":8
				},
				{
					"input":7,
					"interpolation":"STEP",
					"output":9
				},
				{
					"input":7,
					"interpolation":"STEP",
					"output":10
				},
				{
					"input":11,
					"interpolation":"LINEAR",
					"output":12
				},
				{
					"input":11,
					"interpolation":"LINEAR",
					"output":13
				},
				{
					"input":7,
					"interpolation":"STEP",
					"output":14
				},
				{
					"input":11,
					"interpolation":"LINEAR",
					"output":15
				},
				{
					"input":11,
					"interpolation":"LINEAR",
					"output":16
				},
				{
					"input":7,
					"interpolation":"STEP",
					"output":17
				},
				{
					"input":11,
					"interpolation":"LINEAR",
					"output":18
				},
				{
					"input":11,
					"interpolation":"LINEAR",
					"output":19
				},
				{
					"input":7,
					"interpolation":"STEP",
					"output":20
				}
			]
		}
	],
	"materials":[
		{
			"doubleSided":true,
			"emissiveFactor":[
				1,
				1,
				1
			],
			"emissiveTexture":{
				"index":0
			},
			"name":"M_Heal",
			"pbrMetallicRoughness":{
				"baseColorFactor":[
					0.800000011920929,
					0.800000011920929,
					0.800000011920929,
					1
				],
				"metallicFactor":0,
				"roughnessFactor":0.5
			}
		}
	],
	"meshes":[
		{
			"name":"Mesh",
			"primitives":[
				{
					"attributes":{
						"POSITION":0,
						"NORMAL":1,
						"TEXCOORD_0":2,
						"JOINTS_0":3,
						"WEIGHTS_0":4
					},
					"indices":5,
					"material":0
				}
			]
		}
	],
	"textures":[
		{
			"sampler":0,
			"source":0
		}
	],
	"images":[
		{
			"mimeType":"image/png",
			"name":"OB_Healing_asset_DefaultMaterial_Emissive",
			"uri":"OB_Healing_asset_DefaultMaterial_Emissive.png"
		}
	],
	"skins":[
		{
			"inverseBindMatrices":6,
			"joints":[
				3,
				0,
				1,
				2
			],
			"name":"Armature"
		}
	],
	"accessors":[
		{
			"bufferView":0,
			"componentType":5126,
			"count":1055,
			"max":[
				2.600213050842285,
				1.2996922731399536,
				2.600213050842285
			],
			"min":[
				-2.600213050842285,
				-1.5496529340744019,
				-2.600212812423706
			],
			"type":"VEC3"
		},
		{
			"bufferView":1,
			"componentType":5126,
			"count":1055,
			"type":"VEC3"
		},
		{
			"bufferView":2,
			"componentType":5126,
			"count":1055,
			"type":"VEC2"
		},
		{
			"bufferView":3,
			"componentType":5121,
			"count":1055,
			"type":"VEC4"
		},
		{
			"bufferView":4,
			"componentType":5126,
			"count":1055,
			"type":"VEC4"
		},
		{
			"bufferView":5,
			"componentType":5123,
			"count":2592,
			"type":"SCALAR"
		},
		{
			"bufferView":6,
			"componentType":5126,
			"count":4,
			"type":"MAT4"
		},
		{
			"bufferView":7,
			"componentType":5126,
			"count":2,
			"max":[
				2.033333333333333
			],
			"min":[
				0.03333333333333333
			],
			"type":"SCALAR"
		},
		{
			"bufferView":8,
			"componentType":5126,
			"count":2,
			"type":"VEC3"
		},
		{
			"bufferView":9,
			"componentType":5126,
			"count":2,
			"type":"VEC4"
		},
		{
			"bufferView":10,
			"componentType":5126,
			"count":2,
			"type":"VEC3"
		},
		{
			"bufferView":11,
			"componentType":5126,
			"count":61,
			"max":[
				2.033333333333333
			],
			"min":[
				0.03333333333333333
			],
			"type":"SCALAR"
		},
		{
			"bufferView":12,
			"componentType":5126,
			"count":61,
			"type":"VEC3"
		},
		{
			"bufferView":13,
			"componentType":5126,
			"count":61,
			"type":"VEC4"
		},
		{
			"bufferView":14,
			"componentType":5126,
			"count":2,
			"type":"VEC3"
		},
		{
			"bufferView":15,
			"componentType":5126,
			"count":61,
			"type":"VEC3"
		},
		{
			"bufferView":16,
			"componentType":5126,
			"count":61,
			"type":"VEC4"
		},
		{
			"bufferView":17,
			"componentType":5126,
			"count":2,
			"type":"VEC3"
		},
		{
			"bufferView":18,
			"componentType":5126,
			"count":61,
			"type":"VEC3"
		},
		{
			"bufferView":19,
			"componentType":5126,
			"count":61,
			"type":"VEC4"
		},
		{
			"bufferView":20,
			"componentType":5126,
			"count":2,
			"type":"VEC3"
		}
	],
	"bufferViews":[
		{
			"buffer":0,
			"byteLength":12660,
			"byteOffset":0,
			"target":34962
		},
		{
			"buffer":0,
			"byteLength":12660,
			"byteOffset":12660,
			"target":34962
		},
		{
			"buffer":0,
			"byteLength":8440,
			"byteOffset":25320,
			"target":34962
		},
		{
			"buffer":0,
			"byteLength":4220,
			"byteOffset":33760,
			"target":34962
		},
		{
			"buffer":0,
			"byteLength":16880,
			"byteOffset":37980,
			"target":34962
		},
		{
			"buffer":0,
			"byteLength":5184,
			"byteOffset":54860,
			"target":34963
		},
		{
			"buffer":0,
			"byteLength":256,
			"byteOffset":60044
		},
		{
			"buffer":0,
			"byteLength":8,
			"byteOffset":60300
		},
		{
			"buffer":0,
			"byteLength":24,
			"byteOffset":60308
		},
		{
			"buffer":0,
			"byteLength":32,
			"byteOffset":60332
		},
		{
			"buffer":0,
			"byteLength":24,
			"byteOffset":60364
		},
		{
			"buffer":0,
			"byteLength":244,
			"byteOffset":60388
		},
		{
			"buffer":0,
			"byteLength":732,
			"byteOffset":60632
		},
		{
			"buffer":0,
			"byteLength":976,
			"byteOffset":61364
		},
		{
			"buffer":0,
			"byteLength":24,
			"byteOffset":62340
		},
		{
			"buffer":0,
			"byteLength":732,
			"byteOffset":62364
		},
		{
			"buffer":0,
			"byteLength":976,
			"byteOffset":63096
		},
		{
			"buffer":0,
			"byteLength":24,
			"byteOffset":64072
		},
		{
			"buffer":0,
			"byteLength":732,
			"byteOffset":64096
		},
		{
			"buffer":0,
			"byteLength":976,
			"byteOffset":64828
		},
		{
			"buffer":0,
			"byteLength":24,
			"byteOffset":65804
		}
	],
	"samplers":[
		{
			"magFilter":9729,
			"minFilter":9987
		}
	],
	"buffers":[
		{
			"byteLength":65828,
			"uri":"OB_Pickup_Heal.bin"
		}
	]
}
