{
	"asset":{
		"generator":"Khronos glTF Blender I/O v4.1.63",
		"version":"2.0"
	},
	"scene":0,
	"scenes":[
		{
			"name":"Scene",
			"nodes":[
				5
			]
		}
	],
	"nodes":[
		{
			"name":"smaller_circle",
			"rotation":[
				-7.726888654737904e-17,
				2.4726043695161293e-15,
				0.6956143975257874,
				0.718415379524231
			],
			"scale":[
				0.9999998807907104,
				0.9999998807907104,
				1
			],
			"translation":[
				-0.7236588001251221,
				61.510986328125,
				0
			]
		},
		{
			"name":"bigger_circle",
			"rotation":[
				0,
				0,
				0.7021099925041199,
				0.712068498134613
			],
			"translation":[
				0.7236588001251221,
				106.37783813476562,
				0
			]
		},
		{
			"name":"particle",
			"translation":[
				2.170976400375366,
				250.77879333496094,
				0
			]
		},
		{
			"children":[
				0,
				1,
				2
			],
			"name":"Root",
			"rotation":[
				-0.7071067690849304,
				0,
				0,
				0.7071067690849304
			],
			"translation":[
				0,
				1.8189894035458565e-12,
				208.4137420654297
			]
		},
		{
			"mesh":0,
			"name":"OB_Rapid_Shot",
			"skin":0
		},
		{
			"children":[
				4,
				3
			],
			"name":"Armature",
			"rotation":[
				0.7071068286895752,
				0,
				0,
				0.7071068286895752
			],
			"scale":[
				0.009999999776482582,
				0.009999999776482582,
				0.009999999776482582
			]
		}
	],
	"animations":[
		{
			"channels":[
				{
					"sampler":0,
					"target":{
						"node":3,
						"path":"translation"
					}
				},
				{
					"sampler":1,
					"target":{
						"node":3,
						"path":"rotation"
					}
				},
				{
					"sampler":2,
					"target":{
						"node":3,
						"path":"scale"
					}
				},
				{
					"sampler":3,
					"target":{
						"node":0,
						"path":"translation"
					}
				},
				{
					"sampler":4,
					"target":{
						"node":0,
						"path":"rotation"
					}
				},
				{
					"sampler":5,
					"target":{
						"node":0,
						"path":"scale"
					}
				},
				{
					"sampler":6,
					"target":{
						"node":1,
						"path":"translation"
					}
				},
				{
					"sampler":7,
					"target":{
						"node":1,
						"path":"rotation"
					}
				},
				{
					"sampler":8,
					"target":{
						"node":1,
						"path":"scale"
					}
				},
				{
					"sampler":9,
					"target":{
						"node":2,
						"path":"translation"
					}
				},
				{
					"sampler":10,
					"target":{
						"node":2,
						"path":"rotation"
					}
				},
				{
					"sampler":11,
					"target":{
						"node":2,
						"path":"scale"
					}
				}
			],
			"name":"Armature|Take 001|BaseLayer",
			"samplers":[
				{
					"input":8,
					"interpolation":"STEP",
					"output":9
				},
				{
					"input":8,
					"interpolation":"STEP",
					"output":10
				},
				{
					"input":8,
					"interpolation":"STEP",
					"output":11
				},
				{
					"input":12,
					"interpolation":"LINEAR",
					"output":13
				},
				{
					"input":12,
					"interpolation":"LINEAR",
					"output":14
				},
				{
					"input":8,
					"interpolation":"STEP",
					"output":15
				},
				{
					"input":12,
					"interpolation":"LINEAR",
					"output":16
				},
				{
					"input":12,
					"interpolation":"LINEAR",
					"output":17
				},
				{
					"input":8,
					"interpolation":"STEP",
					"output":18
				},
				{
					"input":12,
					"interpolation":"LINEAR",
					"output":19
				},
				{
					"input":12,
					"interpolation":"LINEAR",
					"output":20
				},
				{
					"input":8,
					"interpolation":"STEP",
					"output":21
				}
			]
		},
		{
			"channels":[
				{
					"sampler":0,
					"target":{
						"node":3,
						"path":"translation"
					}
				},
				{
					"sampler":1,
					"target":{
						"node":3,
						"path":"rotation"
					}
				},
				{
					"sampler":2,
					"target":{
						"node":3,
						"path":"scale"
					}
				},
				{
					"sampler":3,
					"target":{
						"node":0,
						"path":"translation"
					}
				},
				{
					"sampler":4,
					"target":{
						"node":0,
						"path":"rotation"
					}
				},
				{
					"sampler":5,
					"target":{
						"node":0,
						"path":"scale"
					}
				},
				{
					"sampler":6,
					"target":{
						"node":1,
						"path":"translation"
					}
				},
				{
					"sampler":7,
					"target":{
						"node":1,
						"path":"rotation"
					}
				},
				{
					"sampler":8,
					"target":{
						"node":1,
						"path":"scale"
					}
				},
				{
					"sampler":9,
					"target":{
						"node":2,
						"path":"translation"
					}
				},
				{
					"sampler":10,
					"target":{
						"node":2,
						"path":"rotation"
					}
				},
				{
					"sampler":11,
					"target":{
						"node":2,
						"path":"scale"
					}
				}
			],
			"name":"Armature|Take 001|BaseLayer.001",
			"samplers":[
				{
					"input":8,
					"interpolation":"STEP",
					"output":22
				},
				{
					"input":8,
					"interpolation":"STEP",
					"output":23
				},
				{
					"input":8,
					"interpolation":"STEP",
					"output":24
				},
				{
					"input":12,
					"interpolation":"LINEAR",
					"output":25
				},
				{
					"input":12,
					"interpolation":"LINEAR",
					"output":26
				},
				{
					"input":8,
					"interpolation":"STEP",
					"output":27
				},
				{
					"input":12,
					"interpolation":"LINEAR",
					"output":28
				},
				{
					"input":12,
					"interpolation":"LINEAR",
					"output":29
				},
				{
					"input":8,
					"interpolation":"STEP",
					"output":30
				},
				{
					"input":12,
					"interpolation":"LINEAR",
					"output":31
				},
				{
					"input":12,
					"interpolation":"LINEAR",
					"output":32
				},
				{
					"input":8,
					"interpolation":"STEP",
					"output":33
				}
			]
		}
	],
	"materials":[
		{
			"doubleSided":true,
			"emissiveFactor":[
				1,
				1,
				1
			],
			"emissiveTexture":{
				"index":0
			},
			"name":"M_Rapid",
			"pbrMetallicRoughness":{
				"metallicFactor":0,
				"roughnessFactor":0.5527864098548889
			}
		}
	],
	"meshes":[
		{
			"name":"Mesh.001",
			"primitives":[
				{
					"attributes":{
						"POSITION":0,
						"NORMAL":1,
						"TEXCOORD_0":2,
						"TANGENT":3,
						"JOINTS_0":4,
						"WEIGHTS_0":5
					},
					"indices":6,
					"material":0
				}
			]
		}
	],
	"textures":[
		{
			"sampler":0,
			"source":0
		}
	],
	"images":[
		{
			"mimeType":"image/png",
			"name":"OB_Rapid_Shot_DefaultMaterial_Emissive",
			"uri":"OB_Rapid_Shot_DefaultMaterial_Emissive.png"
		}
	],
	"skins":[
		{
			"inverseBindMatrices":7,
			"joints":[
				3,
				0,
				1,
				2
			],
			"name":"Armature"
		}
	],
	"accessors":[
		{
			"bufferView":0,
			"componentType":5126,
			"count":3351,
			"max":[
				2.600213050842285,
				2.1017043590545654,
				2.600213050842285
			],
			"min":[
				-2.600213050842285,
				-1.5496529340744019,
				-2.600212812423706
			],
			"type":"VEC3"
		},
		{
			"bufferView":1,
			"componentType":5126,
			"count":3351,
			"type":"VEC3"
		},
		{
			"bufferView":2,
			"componentType":5126,
			"count":3351,
			"type":"VEC2"
		},
		{
			"bufferView":3,
			"componentType":5126,
			"count":3351,
			"type":"VEC4"
		},
		{
			"bufferView":4,
			"componentType":5121,
			"count":3351,
			"type":"VEC4"
		},
		{
			"bufferView":5,
			"componentType":5126,
			"count":3351,
			"type":"VEC4"
		},
		{
			"bufferView":6,
			"componentType":5123,
			"count":5694,
			"type":"SCALAR"
		},
		{
			"bufferView":7,
			"componentType":5126,
			"count":4,
			"type":"MAT4"
		},
		{
			"bufferView":8,
			"componentType":5126,
			"count":2,
			"max":[
				2.033333333333333
			],
			"min":[
				0.03333333333333333
			],
			"type":"SCALAR"
		},
		{
			"bufferView":9,
			"componentType":5126,
			"count":2,
			"type":"VEC3"
		},
		{
			"bufferView":10,
			"componentType":5126,
			"count":2,
			"type":"VEC4"
		},
		{
			"bufferView":11,
			"componentType":5126,
			"count":2,
			"type":"VEC3"
		},
		{
			"bufferView":12,
			"componentType":5126,
			"count":61,
			"max":[
				2.033333333333333
			],
			"min":[
				0.03333333333333333
			],
			"type":"SCALAR"
		},
		{
			"bufferView":13,
			"componentType":5126,
			"count":61,
			"type":"VEC3"
		},
		{
			"bufferView":14,
			"componentType":5126,
			"count":61,
			"type":"VEC4"
		},
		{
			"bufferView":15,
			"componentType":5126,
			"count":2,
			"type":"VEC3"
		},
		{
			"bufferView":16,
			"componentType":5126,
			"count":61,
			"type":"VEC3"
		},
		{
			"bufferView":17,
			"componentType":5126,
			"count":61,
			"type":"VEC4"
		},
		{
			"bufferView":18,
			"componentType":5126,
			"count":2,
			"type":"VEC3"
		},
		{
			"bufferView":19,
			"componentType":5126,
			"count":61,
			"type":"VEC3"
		},
		{
			"bufferView":20,
			"componentType":5126,
			"count":61,
			"type":"VEC4"
		},
		{
			"bufferView":21,
			"componentType":5126,
			"count":2,
			"type":"VEC3"
		},
		{
			"bufferView":22,
			"componentType":5126,
			"count":2,
			"type":"VEC3"
		},
		{
			"bufferView":23,
			"componentType":5126,
			"count":2,
			"type":"VEC4"
		},
		{
			"bufferView":24,
			"componentType":5126,
			"count":2,
			"type":"VEC3"
		},
		{
			"bufferView":25,
			"componentType":5126,
			"count":61,
			"type":"VEC3"
		},
		{
			"bufferView":26,
			"componentType":5126,
			"count":61,
			"type":"VEC4"
		},
		{
			"bufferView":27,
			"componentType":5126,
			"count":2,
			"type":"VEC3"
		},
		{
			"bufferView":28,
			"componentType":5126,
			"count":61,
			"type":"VEC3"
		},
		{
			"bufferView":29,
			"componentType":5126,
			"count":61,
			"type":"VEC4"
		},
		{
			"bufferView":30,
			"componentType":5126,
			"count":2,
			"type":"VEC3"
		},
		{
			"bufferView":31,
			"componentType":5126,
			"count":61,
			"type":"VEC3"
		},
		{
			"bufferView":32,
			"componentType":5126,
			"count":61,
			"type":"VEC4"
		},
		{
			"bufferView":33,
			"componentType":5126,
			"count":2,
			"type":"VEC3"
		}
	],
	"bufferViews":[
		{
			"buffer":0,
			"byteLength":40212,
			"byteOffset":0,
			"target":34962
		},
		{
			"buffer":0,
			"byteLength":40212,
			"byteOffset":40212,
			"target":34962
		},
		{
			"buffer":0,
			"byteLength":26808,
			"byteOffset":80424,
			"target":34962
		},
		{
			"buffer":0,
			"byteLength":53616,
			"byteOffset":107232,
			"target":34962
		},
		{
			"buffer":0,
			"byteLength":13404,
			"byteOffset":160848,
			"target":34962
		},
		{
			"buffer":0,
			"byteLength":53616,
			"byteOffset":174252,
			"target":34962
		},
		{
			"buffer":0,
			"byteLength":11388,
			"byteOffset":227868,
			"target":34963
		},
		{
			"buffer":0,
			"byteLength":256,
			"byteOffset":239256
		},
		{
			"buffer":0,
			"byteLength":8,
			"byteOffset":239512
		},
		{
			"buffer":0,
			"byteLength":24,
			"byteOffset":239520
		},
		{
			"buffer":0,
			"byteLength":32,
			"byteOffset":239544
		},
		{
			"buffer":0,
			"byteLength":24,
			"byteOffset":239576
		},
		{
			"buffer":0,
			"byteLength":244,
			"byteOffset":239600
		},
		{
			"buffer":0,
			"byteLength":732,
			"byteOffset":239844
		},
		{
			"buffer":0,
			"byteLength":976,
			"byteOffset":240576
		},
		{
			"buffer":0,
			"byteLength":24,
			"byteOffset":241552
		},
		{
			"buffer":0,
			"byteLength":732,
			"byteOffset":241576
		},
		{
			"buffer":0,
			"byteLength":976,
			"byteOffset":242308
		},
		{
			"buffer":0,
			"byteLength":24,
			"byteOffset":243284
		},
		{
			"buffer":0,
			"byteLength":732,
			"byteOffset":243308
		},
		{
			"buffer":0,
			"byteLength":976,
			"byteOffset":244040
		},
		{
			"buffer":0,
			"byteLength":24,
			"byteOffset":245016
		},
		{
			"buffer":0,
			"byteLength":24,
			"byteOffset":245040
		},
		{
			"buffer":0,
			"byteLength":32,
			"byteOffset":245064
		},
		{
			"buffer":0,
			"byteLength":24,
			"byteOffset":245096
		},
		{
			"buffer":0,
			"byteLength":732,
			"byteOffset":245120
		},
		{
			"buffer":0,
			"byteLength":976,
			"byteOffset":245852
		},
		{
			"buffer":0,
			"byteLength":24,
			"byteOffset":246828
		},
		{
			"buffer":0,
			"byteLength":732,
			"byteOffset":246852
		},
		{
			"buffer":0,
			"byteLength":976,
			"byteOffset":247584
		},
		{
			"buffer":0,
			"byteLength":24,
			"byteOffset":248560
		},
		{
			"buffer":0,
			"byteLength":732,
			"byteOffset":248584
		},
		{
			"buffer":0,
			"byteLength":976,
			"byteOffset":249316
		},
		{
			"buffer":0,
			"byteLength":24,
			"byteOffset":250292
		}
	],
	"samplers":[
		{
			"magFilter":9729,
			"minFilter":9987
		}
	],
	"buffers":[
		{
			"byteLength":250316,
			"uri":"OB_Pickup_Rapid_Shot.bin"
		}
	]
}
