{
	"asset":{
		"generator":"Khronos glTF Blender I/O v4.1.63",
		"version":"2.0"
	},
	"scene":0,
	"scenes":[
		{
			"name":"Scene",
			"nodes":[
				0
			]
		}
	],
	"nodes":[
		{
			"mesh":0,
			"name":"OB_red_battery_particle"
		}
	],
	"materials":[
		{
			"doubleSided":true,
			"emissiveFactor":[
				1,
				1,
				1
			],
			"emissiveTexture":{
				"index":0
			},
			"name":"T_red_battery_particle",
			"pbrMetallicRoughness":{
				"baseColorTexture":{
					"index":1
				},
				"metallicFactor":0,
				"roughnessFactor":0.5
			}
		}
	],
	"meshes":[
		{
			"name":"Cylinder",
			"primitives":[
				{
					"attributes":{
						"POSITION":0,
						"NORMAL":1,
						"TEXCOORD_0":2,
						"TANGENT":3
					},
					"indices":4,
					"material":0
				}
			]
		}
	],
	"textures":[
		{
			"sampler":0,
			"source":0
		},
		{
			"sampler":0,
			"source":1
		}
	],
	"images":[
		{
			"mimeType":"image/png",
			"name":"T_red_battery_particle_Emissive",
			"uri":"T_red_battery_particle_Emissive.png"
		},
		{
			"mimeType":"image/png",
			"name":"T_battery_particle_BaseColor",
			"uri":"T_battery_particle_BaseColor.png"
		}
	],
	"accessors":[
		{
			"bufferView":0,
			"componentType":5126,
			"count":530,
			"max":[
				2.2298598289489746,
				3.9777135848999023,
				2.2298595905303955
			],
			"min":[
				-2.2298598289489746,
				-0.08261449635028839,
				-2.2298600673675537
			],
			"type":"VEC3"
		},
		{
			"bufferView":1,
			"componentType":5126,
			"count":530,
			"type":"VEC3"
		},
		{
			"bufferView":2,
			"componentType":5126,
			"count":530,
			"type":"VEC2"
		},
		{
			"bufferView":3,
			"componentType":5126,
			"count":530,
			"type":"VEC4"
		},
		{
			"bufferView":4,
			"componentType":5123,
			"count":1512,
			"type":"SCALAR"
		}
	],
	"bufferViews":[
		{
			"buffer":0,
			"byteLength":6360,
			"byteOffset":0,
			"target":34962
		},
		{
			"buffer":0,
			"byteLength":6360,
			"byteOffset":6360,
			"target":34962
		},
		{
			"buffer":0,
			"byteLength":4240,
			"byteOffset":12720,
			"target":34962
		},
		{
			"buffer":0,
			"byteLength":8480,
			"byteOffset":16960,
			"target":34962
		},
		{
			"buffer":0,
			"byteLength":3024,
			"byteOffset":25440,
			"target":34963
		}
	],
	"samplers":[
		{
			"magFilter":9729,
			"minFilter":9987
		}
	],
	"buffers":[
		{
			"byteLength":28464,
			"uri":"OB_red_battery_particle.bin"
		}
	]
}
