{
	"asset":{
		"generator":"Khronos glTF Blender I/O v4.1.63",
		"version":"2.0"
	},
	"extensionsUsed":[
		"KHR_materials_specular"
	],
	"scene":0,
	"scenes":[
		{
			"name":"Scene",
			"nodes":[
				0
			]
		}
	],
	"nodes":[
		{
			"mesh":0,
			"name":"OB_ranged_weapon"
		}
	],
	"materials":[
		{
			"doubleSided":true,
			"emissiveFactor":[
				1,
				1,
				1
			],
			"emissiveTexture":{
				"index":0
			},
			"extensions":{
				"KHR_materials_specular":{
					"specularColorFactor":[
						2.0,
						2.0,
						2.0
					]
				}
			},
			"name":"Gun",
			"normalTexture":{
				"index":1
			},
			"occlusionTexture":{
				"index":2
			},
			"pbrMetallicRoughness":{
				"baseColorTexture":{
					"index":3
				},
				"metallicRoughnessTexture":{
					"index":2
				}
			}
		}
	],
	"meshes":[
		{
			"name":"BarrelBase_low",
			"primitives":[
				{
					"attributes":{
						"POSITION":0,
						"NORMAL":1,
						"TEXCOORD_0":2,
						"TANGENT":3
					},
					"indices":4,
					"material":0
				}
			]
		}
	],
	"textures":[
		{
			"sampler":0,
			"source":0
		},
		{
			"sampler":0,
			"source":1
		},
		{
			"sampler":0,
			"source":2
		},
		{
			"sampler":0,
			"source":3
		}
	],
	"images":[
		{
			"mimeType":"image/png",
			"name":"RangedWeapon_Emissive",
			"uri":"RangedWeapon_Emissive.png"
		},
		{
			"mimeType":"image/png",
			"name":"RangedWeapon_Normal",
			"uri":"RangedWeapon_Normal.png"
		},
		{
			"mimeType":"image/png",
			"name":"RangedWeapon_OcclusionRoughnessMetallic",
			"uri":"RangedWeapon_OcclusionRoughnessMetallic.png"
		},
		{
			"mimeType":"image/png",
			"name":"RangedWeapon_BaseColor",
			"uri":"RangedWeapon_BaseColor.png"
		}
	],
	"accessors":[
		{
			"bufferView":0,
			"componentType":5126,
			"count":2659,
			"max":[
				2.3906495571136475,
				0.9812608957290649,
				0.3213919401168823
			],
			"min":[
				-2.105018377304077,
				-1.2364224195480347,
				-0.32139214873313904
			],
			"type":"VEC3"
		},
		{
			"bufferView":1,
			"componentType":5126,
			"count":2659,
			"type":"VEC3"
		},
		{
			"bufferView":2,
			"componentType":5126,
			"count":2659,
			"type":"VEC2"
		},
		{
			"bufferView":3,
			"componentType":5126,
			"count":2659,
			"type":"VEC4"
		},
		{
			"bufferView":4,
			"componentType":5123,
			"count":5640,
			"type":"SCALAR"
		}
	],
	"bufferViews":[
		{
			"buffer":0,
			"byteLength":31908,
			"byteOffset":0,
			"target":34962
		},
		{
			"buffer":0,
			"byteLength":31908,
			"byteOffset":31908,
			"target":34962
		},
		{
			"buffer":0,
			"byteLength":21272,
			"byteOffset":63816,
			"target":34962
		},
		{
			"buffer":0,
			"byteLength":42544,
			"byteOffset":85088,
			"target":34962
		},
		{
			"buffer":0,
			"byteLength":11280,
			"byteOffset":127632,
			"target":34963
		}
	],
	"samplers":[
		{
			"magFilter":9729,
			"minFilter":9987
		}
	],
	"buffers":[
		{
			"byteLength":138912,
			"uri":"OB_ranged_weapon.bin"
		}
	]
}
