{
	"asset":{
		"generator":"Khronos glTF Blender I/O v4.1.63",
		"version":"2.0"
	},
	"scene":0,
	"scenes":[
		{
			"name":"Scene",
			"nodes":[
				4
			]
		}
	],
	"nodes":[
		{
			"name":"left",
			"translation":[
				-546.7471313476562,
				49.5445556640625,
				11.866756439208984
			]
		},
		{
			"name":"right",
			"translation":[
				557.70751953125,
				44.3564453125,
				17.640331268310547
			]
		},
		{
			"children":[
				0,
				1
			],
			"name":"root",
			"rotation":[
				-0.7071067690849304,
				0,
				0,
				0.7071067690849304
			]
		},
		{
			"mesh":0,
			"name":"OB_Retractable_Bridge",
			"skin":0
		},
		{
			"children":[
				3,
				2
			],
			"name":"Armature",
			"rotation":[
				0.7071068286895752,
				0,
				0,
				0.7071068286895752
			],
			"scale":[
				0.009999999776482582,
				0.009999999776482582,
				0.009999999776482582
			]
		}
	],
	"animations":[
		{
			"channels":[
				{
					"sampler":0,
					"target":{
						"node":2,
						"path":"translation"
					}
				},
				{
					"sampler":1,
					"target":{
						"node":2,
						"path":"rotation"
					}
				},
				{
					"sampler":2,
					"target":{
						"node":2,
						"path":"scale"
					}
				},
				{
					"sampler":3,
					"target":{
						"node":0,
						"path":"translation"
					}
				},
				{
					"sampler":4,
					"target":{
						"node":0,
						"path":"rotation"
					}
				},
				{
					"sampler":5,
					"target":{
						"node":0,
						"path":"scale"
					}
				},
				{
					"sampler":6,
					"target":{
						"node":1,
						"path":"translation"
					}
				},
				{
					"sampler":7,
					"target":{
						"node":1,
						"path":"rotation"
					}
				},
				{
					"sampler":8,
					"target":{
						"node":1,
						"path":"scale"
					}
				}
			],
			"name":"Armature|Take 001|BaseLayer",
			"samplers":[
				{
					"input":9,
					"interpolation":"STEP",
					"output":10
				},
				{
					"input":9,
					"interpolation":"STEP",
					"output":11
				},
				{
					"input":9,
					"interpolation":"STEP",
					"output":12
				},
				{
					"input":13,
					"interpolation":"LINEAR",
					"output":14
				},
				{
					"input":9,
					"interpolation":"STEP",
					"output":15
				},
				{
					"input":9,
					"interpolation":"STEP",
					"output":16
				},
				{
					"input":13,
					"interpolation":"LINEAR",
					"output":17
				},
				{
					"input":9,
					"interpolation":"STEP",
					"output":18
				},
				{
					"input":9,
					"interpolation":"STEP",
					"output":19
				}
			]
		}
	],
	"materials":[
		{
			"doubleSided":true,
			"emissiveTexture":{
				"index":0
			},
			"name":"Material.001",
			"normalTexture":{
				"index":1
			},
			"occlusionTexture":{
				"index":2
			},
			"pbrMetallicRoughness":{
				"baseColorTexture":{
					"index":3
				},
				"metallicRoughnessTexture":{
					"index":2
				}
			}
		}
	],
	"meshes":[
		{
			"name":"Mesh",
			"primitives":[
				{
					"attributes":{
						"POSITION":0,
						"NORMAL":1,
						"TEXCOORD_0":2,
						"TEXCOORD_1":3,
						"TANGENT":4,
						"JOINTS_0":5,
						"WEIGHTS_0":6
					},
					"indices":7,
					"material":0
				}
			]
		}
	],
	"textures":[
		{
			"sampler":0,
			"source":0
		},
		{
			"sampler":0,
			"source":1
		},
		{
			"sampler":0,
			"source":2
		},
		{
			"sampler":0,
			"source":3
		}
	],
	"images":[
		{
			"mimeType":"image/png",
			"name":"T_Retractable_Bridge_Emissive",
			"uri":"T_Retractable_Bridge_Emissive.png"
		},
		{
			"mimeType":"image/png",
			"name":"T_Retractable_Bridge_Normal",
			"uri":"T_Retractable_Bridge_Normal.png"
		},
		{
			"mimeType":"image/png",
			"name":"T_Retractable_Bridge_OcclusionRoughnessMetallic",
			"uri":"T_Retractable_Bridge_OcclusionRoughnessMetallic.png"
		},
		{
			"mimeType":"image/png",
			"name":"T_Retractable_Bridge_BaseColor",
			"uri":"T_Retractable_Bridge_BaseColor.png"
		}
	],
	"skins":[
		{
			"inverseBindMatrices":8,
			"joints":[
				2,
				0,
				1
			],
			"name":"Armature"
		}
	],
	"accessors":[
		{
			"bufferView":0,
			"componentType":5126,
			"count":5147,
			"max":[
				8.031124114990234,
				0.8704758882522583,
				2.533693313598633
			],
			"min":[
				-8.031124114990234,
				-0.8704758286476135,
				-2.533694267272949
			],
			"type":"VEC3"
		},
		{
			"bufferView":1,
			"componentType":5126,
			"count":5147,
			"type":"VEC3"
		},
		{
			"bufferView":2,
			"componentType":5126,
			"count":5147,
			"type":"VEC2"
		},
		{
			"bufferView":3,
			"componentType":5126,
			"count":5147,
			"type":"VEC2"
		},
		{
			"bufferView":4,
			"componentType":5126,
			"count":5147,
			"type":"VEC4"
		},
		{
			"bufferView":5,
			"componentType":5121,
			"count":5147,
			"type":"VEC4"
		},
		{
			"bufferView":6,
			"componentType":5126,
			"count":5147,
			"type":"VEC4"
		},
		{
			"bufferView":7,
			"componentType":5123,
			"count":6612,
			"type":"SCALAR"
		},
		{
			"bufferView":8,
			"componentType":5126,
			"count":3,
			"type":"MAT4"
		},
		{
			"bufferView":9,
			"componentType":5126,
			"count":2,
			"max":[
				0.7
			],
			"min":[
				0.03333333333333333
			],
			"type":"SCALAR"
		},
		{
			"bufferView":10,
			"componentType":5126,
			"count":2,
			"type":"VEC3"
		},
		{
			"bufferView":11,
			"componentType":5126,
			"count":2,
			"type":"VEC4"
		},
		{
			"bufferView":12,
			"componentType":5126,
			"count":2,
			"type":"VEC3"
		},
		{
			"bufferView":13,
			"componentType":5126,
			"count":21,
			"max":[
				0.7
			],
			"min":[
				0.03333333333333333
			],
			"type":"SCALAR"
		},
		{
			"bufferView":14,
			"componentType":5126,
			"count":21,
			"type":"VEC3"
		},
		{
			"bufferView":15,
			"componentType":5126,
			"count":2,
			"type":"VEC4"
		},
		{
			"bufferView":16,
			"componentType":5126,
			"count":2,
			"type":"VEC3"
		},
		{
			"bufferView":17,
			"componentType":5126,
			"count":21,
			"type":"VEC3"
		},
		{
			"bufferView":18,
			"componentType":5126,
			"count":2,
			"type":"VEC4"
		},
		{
			"bufferView":19,
			"componentType":5126,
			"count":2,
			"type":"VEC3"
		}
	],
	"bufferViews":[
		{
			"buffer":0,
			"byteLength":61764,
			"byteOffset":0,
			"target":34962
		},
		{
			"buffer":0,
			"byteLength":61764,
			"byteOffset":61764,
			"target":34962
		},
		{
			"buffer":0,
			"byteLength":41176,
			"byteOffset":123528,
			"target":34962
		},
		{
			"buffer":0,
			"byteLength":41176,
			"byteOffset":164704,
			"target":34962
		},
		{
			"buffer":0,
			"byteLength":82352,
			"byteOffset":205880,
			"target":34962
		},
		{
			"buffer":0,
			"byteLength":20588,
			"byteOffset":288232,
			"target":34962
		},
		{
			"buffer":0,
			"byteLength":82352,
			"byteOffset":308820,
			"target":34962
		},
		{
			"buffer":0,
			"byteLength":13224,
			"byteOffset":391172,
			"target":34963
		},
		{
			"buffer":0,
			"byteLength":192,
			"byteOffset":404396
		},
		{
			"buffer":0,
			"byteLength":8,
			"byteOffset":404588
		},
		{
			"buffer":0,
			"byteLength":24,
			"byteOffset":404596
		},
		{
			"buffer":0,
			"byteLength":32,
			"byteOffset":404620
		},
		{
			"buffer":0,
			"byteLength":24,
			"byteOffset":404652
		},
		{
			"buffer":0,
			"byteLength":84,
			"byteOffset":404676
		},
		{
			"buffer":0,
			"byteLength":252,
			"byteOffset":404760
		},
		{
			"buffer":0,
			"byteLength":32,
			"byteOffset":405012
		},
		{
			"buffer":0,
			"byteLength":24,
			"byteOffset":405044
		},
		{
			"buffer":0,
			"byteLength":252,
			"byteOffset":405068
		},
		{
			"buffer":0,
			"byteLength":32,
			"byteOffset":405320
		},
		{
			"buffer":0,
			"byteLength":24,
			"byteOffset":405352
		}
	],
	"samplers":[
		{
			"magFilter":9729,
			"minFilter":9987
		}
	],
	"buffers":[
		{
			"byteLength":405376,
			"uri":"OB_retracteable_bridge.bin"
		}
	]
}
