{
	"asset":{
		"generator":"Khronos glTF Blender I/O v4.1.63",
		"version":"2.0"
	},
	"extensionsUsed":[
		"KHR_materials_specular"
	],
	"scene":0,
	"scenes":[
		{
			"name":"Scene",
			"nodes":[
				5
			]
		}
	],
	"nodes":[
		{
			"name":"Even",
			"rotation":[
				0.6798330545425415,
				0.7333669662475586,
				-1.6117594370257393e-08,
				5.536767488933947e-08
			],
			"scale":[
				1,
				0.9999998211860657,
				1
			],
			"translation":[
				3543.098388671875,
				661.66845703125,
				3065.8515625
			]
		},
		{
			"name":"Odds",
			"rotation":[
				-0.40840601921081543,
				-0.5772387385368347,
				-0.4084060490131378,
				0.5772387385368347
			],
			"scale":[
				1,
				0.9999998211860657,
				0.9999998807907104
			],
			"translation":[
				3499.762451171875,
				647.4340209960938,
				3105.25146484375
			]
		},
		{
			"children":[
				0,
				1
			],
			"name":"Root",
			"rotation":[
				-0.11938276886940002,
				0.6969560384750366,
				-0.11938279867172241,
				0.6969561576843262
			],
			"scale":[
				0.9999999403953552,
				0.9999998211860657,
				0.9999998807907104
			]
		},
		{
			"name":"neutral_bone",
			"rotation":[
				-0.7071067690849304,
				0,
				0,
				0.7071067690849304
			]
		},
		{
			"mesh":0,
			"name":"OB_emergency_stairs",
			"skin":0
		},
		{
			"children":[
				4,
				2,
				3
			],
			"name":"Armature",
			"rotation":[
				0.7071068286895752,
				0,
				0,
				0.7071068286895752
			],
			"scale":[
				0.009999999776482582,
				0.009999999776482582,
				0.009999999776482582
			]
		}
	],
	"animations":[
		{
			"channels":[
				{
					"sampler":0,
					"target":{
						"node":2,
						"path":"translation"
					}
				},
				{
					"sampler":1,
					"target":{
						"node":2,
						"path":"rotation"
					}
				},
				{
					"sampler":2,
					"target":{
						"node":2,
						"path":"scale"
					}
				},
				{
					"sampler":3,
					"target":{
						"node":0,
						"path":"translation"
					}
				},
				{
					"sampler":4,
					"target":{
						"node":0,
						"path":"rotation"
					}
				},
				{
					"sampler":5,
					"target":{
						"node":0,
						"path":"scale"
					}
				},
				{
					"sampler":6,
					"target":{
						"node":1,
						"path":"translation"
					}
				},
				{
					"sampler":7,
					"target":{
						"node":1,
						"path":"rotation"
					}
				},
				{
					"sampler":8,
					"target":{
						"node":1,
						"path":"scale"
					}
				}
			],
			"name":"Armature|Take 001|BaseLayer",
			"samplers":[
				{
					"input":8,
					"interpolation":"STEP",
					"output":9
				},
				{
					"input":8,
					"interpolation":"STEP",
					"output":10
				},
				{
					"input":8,
					"interpolation":"STEP",
					"output":11
				},
				{
					"input":12,
					"interpolation":"LINEAR",
					"output":13
				},
				{
					"input":8,
					"interpolation":"STEP",
					"output":14
				},
				{
					"input":8,
					"interpolation":"STEP",
					"output":15
				},
				{
					"input":12,
					"interpolation":"LINEAR",
					"output":16
				},
				{
					"input":8,
					"interpolation":"STEP",
					"output":17
				},
				{
					"input":8,
					"interpolation":"STEP",
					"output":18
				}
			]
		}
	],
	"materials":[
		{
			"doubleSided":true,
			"emissiveFactor":[
				1,
				1,
				1
			],
			"emissiveTexture":{
				"index":0
			},
			"extensions":{
				"KHR_materials_specular":{
					"specularColorFactor":[
						2.0,
						2.0,
						2.0
					]
				}
			},
			"name":"M_stairs",
			"normalTexture":{
				"index":1
			},
			"pbrMetallicRoughness":{
				"baseColorTexture":{
					"index":2
				},
				"metallicRoughnessTexture":{
					"index":3
				}
			}
		}
	],
	"meshes":[
		{
			"name":"Mesh.001",
			"primitives":[
				{
					"attributes":{
						"POSITION":0,
						"NORMAL":1,
						"TEXCOORD_0":2,
						"TANGENT":3,
						"JOINTS_0":4,
						"WEIGHTS_0":5
					},
					"indices":6,
					"material":0
				}
			]
		}
	],
	"textures":[
		{
			"sampler":0,
			"source":0
		},
		{
			"sampler":0,
			"source":1
		},
		{
			"sampler":0,
			"source":2
		},
		{
			"sampler":0,
			"source":3
		}
	],
	"images":[
		{
			"mimeType":"image/png",
			"name":"T_stairs_and_fence_Emissive",
			"uri":"T_stairs_and_fence_Emissive.png"
		},
		{
			"mimeType":"image/png",
			"name":"T_stairs_and_fence_Normal",
			"uri":"T_stairs_and_fence_Normal.png"
		},
		{
			"mimeType":"image/png",
			"name":"T_stairs_and_fence_BaseColor",
			"uri":"T_stairs_and_fence_BaseColor.png"
		},
		{
			"mimeType":"image/png",
			"name":"T_stairs_and_fence_OcclusionRoughnessMetalness",
			"uri":"T_stairs_and_fence_OcclusionRoughnessMetalness.png"
		}
	],
	"skins":[
		{
			"inverseBindMatrices":7,
			"joints":[
				2,
				0,
				1,
				3
			],
			"name":"Armature"
		}
	],
	"accessors":[
		{
			"bufferView":0,
			"componentType":5126,
			"count":7928,
			"max":[
				63.59672546386719,
				37.17469024658203,
				32.985191345214844
			],
			"min":[
				-8.237530708312988,
				23.701066970825195,
				-56.27738571166992
			],
			"type":"VEC3"
		},
		{
			"bufferView":1,
			"componentType":5126,
			"count":7928,
			"type":"VEC3"
		},
		{
			"bufferView":2,
			"componentType":5126,
			"count":7928,
			"type":"VEC2"
		},
		{
			"bufferView":3,
			"componentType":5126,
			"count":7928,
			"type":"VEC4"
		},
		{
			"bufferView":4,
			"componentType":5121,
			"count":7928,
			"type":"VEC4"
		},
		{
			"bufferView":5,
			"componentType":5126,
			"count":7928,
			"type":"VEC4"
		},
		{
			"bufferView":6,
			"componentType":5123,
			"count":17610,
			"type":"SCALAR"
		},
		{
			"bufferView":7,
			"componentType":5126,
			"count":4,
			"type":"MAT4"
		},
		{
			"bufferView":8,
			"componentType":5126,
			"count":2,
			"max":[
				3.3333333333333335
			],
			"min":[
				0
			],
			"type":"SCALAR"
		},
		{
			"bufferView":9,
			"componentType":5126,
			"count":2,
			"type":"VEC3"
		},
		{
			"bufferView":10,
			"componentType":5126,
			"count":2,
			"type":"VEC4"
		},
		{
			"bufferView":11,
			"componentType":5126,
			"count":2,
			"type":"VEC3"
		},
		{
			"bufferView":12,
			"componentType":5126,
			"count":201,
			"max":[
				3.3333333333333335
			],
			"min":[
				0
			],
			"type":"SCALAR"
		},
		{
			"bufferView":13,
			"componentType":5126,
			"count":201,
			"type":"VEC3"
		},
		{
			"bufferView":14,
			"componentType":5126,
			"count":2,
			"type":"VEC4"
		},
		{
			"bufferView":15,
			"componentType":5126,
			"count":2,
			"type":"VEC3"
		},
		{
			"bufferView":16,
			"componentType":5126,
			"count":201,
			"type":"VEC3"
		},
		{
			"bufferView":17,
			"componentType":5126,
			"count":2,
			"type":"VEC4"
		},
		{
			"bufferView":18,
			"componentType":5126,
			"count":2,
			"type":"VEC3"
		}
	],
	"bufferViews":[
		{
			"buffer":0,
			"byteLength":95136,
			"byteOffset":0,
			"target":34962
		},
		{
			"buffer":0,
			"byteLength":95136,
			"byteOffset":95136,
			"target":34962
		},
		{
			"buffer":0,
			"byteLength":63424,
			"byteOffset":190272,
			"target":34962
		},
		{
			"buffer":0,
			"byteLength":126848,
			"byteOffset":253696,
			"target":34962
		},
		{
			"buffer":0,
			"byteLength":31712,
			"byteOffset":380544,
			"target":34962
		},
		{
			"buffer":0,
			"byteLength":126848,
			"byteOffset":412256,
			"target":34962
		},
		{
			"buffer":0,
			"byteLength":35220,
			"byteOffset":539104,
			"target":34963
		},
		{
			"buffer":0,
			"byteLength":256,
			"byteOffset":574324
		},
		{
			"buffer":0,
			"byteLength":8,
			"byteOffset":574580
		},
		{
			"buffer":0,
			"byteLength":24,
			"byteOffset":574588
		},
		{
			"buffer":0,
			"byteLength":32,
			"byteOffset":574612
		},
		{
			"buffer":0,
			"byteLength":24,
			"byteOffset":574644
		},
		{
			"buffer":0,
			"byteLength":804,
			"byteOffset":574668
		},
		{
			"buffer":0,
			"byteLength":2412,
			"byteOffset":575472
		},
		{
			"buffer":0,
			"byteLength":32,
			"byteOffset":577884
		},
		{
			"buffer":0,
			"byteLength":24,
			"byteOffset":577916
		},
		{
			"buffer":0,
			"byteLength":2412,
			"byteOffset":577940
		},
		{
			"buffer":0,
			"byteLength":32,
			"byteOffset":580352
		},
		{
			"buffer":0,
			"byteLength":24,
			"byteOffset":580384
		}
	],
	"samplers":[
		{
			"magFilter":9729,
			"minFilter":9987
		}
	],
	"buffers":[
		{
			"byteLength":580408,
			"uri":"OB_Stairs.bin"
		}
	]
}
