{
	"asset":{
		"generator":"Khronos glTF Blender I/O v4.1.63",
		"version":"2.0"
	},
	"scene":0,
	"scenes":[
		{
			"name":"Scene",
			"nodes":[
				0,
				1
			]
		}
	],
	"nodes":[
		{
			"mesh":0,
			"name":"OB_security_camera_arm",
			"translation":[
				-1.437154769897461,
				-0.24514780938625336,
				-0.1401551216840744
			]
		},
		{
			"mesh":1,
			"name":"OB_security_camera",
			"translation":[
				1.9145514965057373,
				0.47899872064590454,
				-0.1401551216840744
			]
		}
	],
	"materials":[
		{
			"doubleSided":true,
			"emissiveFactor":[
				1,
				1,
				1
			],
			"emissiveTexture":{
				"index":0
			},
			"name":"M_asset_pack_1",
			"normalTexture":{
				"index":1
			},
			"pbrMetallicRoughness":{
				"baseColorTexture":{
					"index":2
				},
				"metallicRoughnessTexture":{
					"index":3
				}
			}
		}
	],
	"meshes":[
		{
			"name":"Cube.002",
			"primitives":[
				{
					"attributes":{
						"POSITION":0,
						"NORMAL":1,
						"TEXCOORD_0":2,
						"TANGENT":3
					},
					"indices":4,
					"material":0
				}
			]
		},
		{
			"name":"Cube.004",
			"primitives":[
				{
					"attributes":{
						"POSITION":5,
						"NORMAL":6,
						"TEXCOORD_0":7,
						"TANGENT":8
					},
					"indices":9,
					"material":0
				}
			]
		}
	],
	"textures":[
		{
			"sampler":0,
			"source":0
		},
		{
			"sampler":0,
			"source":1
		},
		{
			"sampler":0,
			"source":2
		},
		{
			"sampler":0,
			"source":3
		}
	],
	"images":[
		{
			"mimeType":"image/png",
			"name":"T_Misc_Pack_1_Emissive",
			"uri":"T_Misc_Pack_1_Emissive.png"
		},
		{
			"mimeType":"image/png",
			"name":"T_Misc_Pack_1_Normal",
			"uri":"T_Misc_Pack_1_Normal.png"
		},
		{
			"mimeType":"image/png",
			"name":"T_Misc_Pack_1_BaseColor",
			"uri":"T_Misc_Pack_1_BaseColor.png"
		},
		{
			"mimeType":"image/png",
			"name":"T_Misc_Pack_1_OcclusionRoughnessMetallic",
			"uri":"T_Misc_Pack_1_OcclusionRoughnessMetallic.png"
		}
	],
	"accessors":[
		{
			"bufferView":0,
			"componentType":5126,
			"count":498,
			"max":[
				0.9452025890350342,
				1.5099587440490723,
				1.0000001192092896
			],
			"min":[
				-1.048094630241394,
				-0.4900413751602173,
				-1
			],
			"type":"VEC3"
		},
		{
			"bufferView":1,
			"componentType":5126,
			"count":498,
			"type":"VEC3"
		},
		{
			"bufferView":2,
			"componentType":5126,
			"count":498,
			"type":"VEC2"
		},
		{
			"bufferView":3,
			"componentType":5126,
			"count":498,
			"type":"VEC4"
		},
		{
			"bufferView":4,
			"componentType":5123,
			"count":876,
			"type":"SCALAR"
		},
		{
			"bufferView":5,
			"componentType":5126,
			"count":260,
			"max":[
				1.015084981918335,
				0.541253924369812,
				0.4599131941795349
			],
			"min":[
				-2.7565462589263916,
				-0.9690579175949097,
				-0.45991307497024536
			],
			"type":"VEC3"
		},
		{
			"bufferView":6,
			"componentType":5126,
			"count":260,
			"type":"VEC3"
		},
		{
			"bufferView":7,
			"componentType":5126,
			"count":260,
			"type":"VEC2"
		},
		{
			"bufferView":8,
			"componentType":5126,
			"count":260,
			"type":"VEC4"
		},
		{
			"bufferView":9,
			"componentType":5123,
			"count":624,
			"type":"SCALAR"
		}
	],
	"bufferViews":[
		{
			"buffer":0,
			"byteLength":5976,
			"byteOffset":0,
			"target":34962
		},
		{
			"buffer":0,
			"byteLength":5976,
			"byteOffset":5976,
			"target":34962
		},
		{
			"buffer":0,
			"byteLength":3984,
			"byteOffset":11952,
			"target":34962
		},
		{
			"buffer":0,
			"byteLength":7968,
			"byteOffset":15936,
			"target":34962
		},
		{
			"buffer":0,
			"byteLength":1752,
			"byteOffset":23904,
			"target":34963
		},
		{
			"buffer":0,
			"byteLength":3120,
			"byteOffset":25656,
			"target":34962
		},
		{
			"buffer":0,
			"byteLength":3120,
			"byteOffset":28776,
			"target":34962
		},
		{
			"buffer":0,
			"byteLength":2080,
			"byteOffset":31896,
			"target":34962
		},
		{
			"buffer":0,
			"byteLength":4160,
			"byteOffset":33976,
			"target":34962
		},
		{
			"buffer":0,
			"byteLength":1248,
			"byteOffset":38136,
			"target":34963
		}
	],
	"samplers":[
		{
			"magFilter":9729,
			"minFilter":9987
		}
	],
	"buffers":[
		{
			"byteLength":39384,
			"uri":"OB_Security_Camera.bin"
		}
	]
}
