{
  "asset": {
    "generator": "UnityGLTF",
    "version": "2.0"
  },
  "extensionsUsed": [
    "KHR_texture_transform"
  ],
  "scene": 0,
  "scenes": [
    {
      "nodes": [
        0
      ],
      "name": "Pannel_low (1)"
    }
  ],
  "accessors": [
    {
      "bufferView": 0,
      "componentType": 5126,
      "count": 414,
      "type": "VEC3",
      "max": [
        0.019457684829831123,
        0.010476497001945972,
        0.019105741754174232
      ],
      "min": [
        -0.008765525184571743,
        -0.010476497001945972,
        -0.0099999997764825821
      ]
    },
    {
      "bufferView": 1,
      "componentType": 5126,
      "count": 414,
      "type": "VEC3",
      "max": [
        1.0,
        1.0,
        1.0
      ],
      "min": [
        -1.0,
        -1.0,
        -1.0
      ]
    },
    {
      "bufferView": 2,
      "componentType": 5126,
      "count": 414,
      "type": "VEC4",
      "max": [
        0.99762541055679321,
        1.0,
        0.99999380111694336,
        1.0
      ],
      "min": [
        -1.0,
        -1.0,
        -0.99785798788070679,
        1.0
      ]
    },
    {
      "bufferView": 3,
      "componentType": 5126,
      "count": 414,
      "type": "VEC2",
      "max": [
        0.96466213464736938,
        1.0
      ],
      "min": [
        2.9482560837124083E-09,
        0.0
      ]
    },
    {
      "bufferView": 4,
      "componentType": 5123,
      "count": 942,
      "type": "SCALAR",
      "max": [
        413.0
      ],
      "min": [
        0.0
      ]
    }
  ],
  "buffers": [
    {
      "uri": "Pannel_low (1).bin",
      "byteLength": 21756
    }
  ],
  "bufferViews": [
    {
      "buffer": 0,
      "byteLength": 4968,
      "byteStride": 12,
      "target": 34962
    },
    {
      "buffer": 0,
      "byteOffset": 4968,
      "byteLength": 4968,
      "byteStride": 12,
      "target": 34962
    },
    {
      "buffer": 0,
      "byteOffset": 9936,
      "byteLength": 6624,
      "target": 34962
    },
    {
      "buffer": 0,
      "byteOffset": 16560,
      "byteLength": 3312,
      "target": 34962
    },
    {
      "buffer": 0,
      "byteOffset": 19872,
      "byteLength": 1884,
      "target": 34963
    }
  ],
  "images": [
    {
      "uri": "Pannel_low_Material_Normal.jpg",
      "name": "Pannel_low_Material_Normal"
    },
    {
      "uri": "Pannel_low_Material_AlbedoTransparency.jpg",
      "name": "Pannel_low_Material_AlbedoTransparency"
    },
    {
      "uri": "Pannel_low_Material_MetallicSmoothness.jpg",
      "name": "Pannel_low_Material_MetallicSmoothness"
    }
  ],
  "materials": [
    {
      "pbrMetallicRoughness": {
        "baseColorTexture": {
          "index": 1,
          "extensions": {
            "KHR_texture_transform": {
              "texCoord": 0
            }
          }
        },
        "metallicRoughnessTexture": {
          "index": 2,
          "extensions": {
            "KHR_texture_transform": {
              "texCoord": 0
            }
          }
        }
      },
      "normalTexture": {
        "index": 0,
        "extensions": {
          "KHR_texture_transform": {
            "texCoord": 0
          }
        }
      },
      "name": "New Material"
    }
  ],
  "meshes": [
    {
      "primitives": [
        {
          "attributes": {
            "POSITION": 0,
            "NORMAL": 1,
            "TANGENT": 2,
            "TEXCOORD_0": 3
          },
          "indices": 4,
          "material": 0
        }
      ],
      "name": "Pannel_low (1)"
    }
  ],
  "nodes": [
    {
      "mesh": 0,
      "rotation": [
        -0.5,
        0.5,
        0.5,
        0.5
      ],
      "scale": [
        31.9758263,
        150.0,
        50.0
      ],
      "translation": [
        -8.493035,
        -2.13508153,
        3.5517745
      ],
      "name": "Pannel_low (1)"
    }
  ],
  "samplers": [
    {
      "minFilter": 9987
    }
  ],
  "textures": [
    {
      "sampler": 0,
      "source": 0,
      "name": "Pannel_low_Material_Normal"
    },
    {
      "sampler": 0,
      "source": 1,
      "name": "Pannel_low_Material_AlbedoTransparency"
    },
    {
      "sampler": 0,
      "source": 2,
      "name": "Pannel_low_Material_MetallicSmoothness"
    }
  ]
}