{
	"asset":{
		"generator":"Khronos glTF Blender I/O v4.1.63",
		"version":"2.0"
	},
	"scene":0,
	"scenes":[
		{
			"name":"Scene",
			"nodes":[
				34
			]
		}
	],
	"nodes":[
		{
			"name":"mixamorig:HeadTop_End",
			"rotation":[
				8.905061577024753e-09,
				-9.362829787532248e-23,
				-2.481541837659083e-23,
				1
			],
			"translation":[
				-1.831777396432699e-08,
				25.663469314575195,
				7.628932476043701
			]
		},
		{
			"children":[
				0
			],
			"name":"mixamorig:Head",
			"rotation":[
				6.678789077341207e-09,
				-2.9901769948992296e-09,
				-1.858405771097002e-16,
				1
			],
			"translation":[
				-2.8651548689140327e-08,
				5.87466287612915,
				1.7463500499725342
			]
		},
		{
			"children":[
				1
			],
			"name":"mixamorig:Neck",
			"rotation":[
				0.03351828455924988,
				-3.982789920087271e-08,
				1.67144287299692e-09,
				0.9994381070137024
			],
			"scale":[
				1,
				0.9999999403953552,
				0.9999999403953552
			],
			"translation":[
				-4.184093427284097e-08,
				17.029699325561523,
				-2.349121359657147e-06
			]
		},
		{
			"name":"mixamorig:LeftHandIndex4",
			"rotation":[
				-8.265487849712372e-09,
				2.561137080192566e-09,
				1.862645149230957e-08,
				1
			],
			"scale":[
				1,
				1,
				0.9999999403953552
			],
			"translation":[
				0.5320181846618652,
				1.5313003063201904,
				0.5738475322723389
			]
		},
		{
			"children":[
				3
			],
			"name":"mixamorig:LeftHandIndex3",
			"rotation":[
				-4.645437002182007e-06,
				-2.5564804673194885e-07,
				1.1362135410308838e-07,
				1
			],
			"scale":[
				1,
				1,
				0.9999999403953552
			],
			"translation":[
				0.06619143486022949,
				2.0312302112579346,
				0.49718689918518066
			]
		},
		{
			"children":[
				4
			],
			"name":"mixamorig:LeftHandIndex2",
			"rotation":[
				1.2519305528257973e-05,
				1.0342338327973266e-06,
				-1.1548401346317405e-07,
				1
			],
			"scale":[
				0.9999998807907104,
				0.9999999403953552,
				0.9999998807907104
			],
			"translation":[
				-9.5367431640625e-07,
				1.4215010404586792,
				7.569789886474609e-06
			]
		},
		{
			"children":[
				5
			],
			"name":"mixamorig:LeftHandIndex1",
			"rotation":[
				-0.07836376875638962,
				-0.003084735944867134,
				0.03920994699001312,
				0.9961487054824829
			],
			"scale":[
				0.9999999403953552,
				1,
				1.0000001192092896
			],
			"translation":[
				3.814697265625e-06,
				13.231815338134766,
				1.7911195755004883e-05
			]
		},
		{
			"children":[
				6
			],
			"name":"mixamorig:LeftHand",
			"rotation":[
				0.01144599262624979,
				-2.047841735475231e-05,
				-0.0017600210849195719,
				0.9999329447746277
			],
			"scale":[
				0.9999999403953552,
				1.0000001192092896,
				1
			],
			"translation":[
				3.814697265625e-06,
				25.659154891967773,
				2.54213809967041e-05
			]
		},
		{
			"children":[
				7
			],
			"name":"mixamorig:LeftForeArm",
			"rotation":[
				-0.02411448396742344,
				0.0008278135792352259,
				-0.034315112978219986,
				0.9991198182106018
			],
			"scale":[
				0.9999999403953552,
				1,
				1
			],
			"translation":[
				-1.71661376953125e-05,
				25.21112632751465,
				-0.00016638636589050293
			]
		},
		{
			"children":[
				8
			],
			"name":"mixamorig:LeftArm",
			"rotation":[
				-0.11366976797580719,
				-0.0055564939975738525,
				0.04850885272026062,
				0.9923180937767029
			],
			"scale":[
				0.9999999403953552,
				1.0000001192092896,
				0.9999999403953552
			],
			"translation":[
				-8.344650268554688e-07,
				18.499237060546875,
				5.519390106201172e-05
			]
		},
		{
			"children":[
				9
			],
			"name":"mixamorig:LeftShoulder",
			"rotation":[
				0.5495219826698303,
				0.4388073980808258,
				-0.5721777081489563,
				0.4220028221607208
			],
			"scale":[
				0.9999998807907104,
				0.9999998807907104,
				1
			],
			"translation":[
				8.811417579650879,
				14.541083335876465,
				-0.3611522912979126
			]
		},
		{
			"name":"mixamorig:RightHandIndex4",
			"rotation":[
				-7.2832331277083995e-09,
				7.38600647309795e-09,
				6.219488568603992e-08,
				1
			],
			"scale":[
				1,
				1.0000001192092896,
				1
			],
			"translation":[
				-0.19507966935634613,
				2.003308057785034,
				0.313062459230423
			]
		},
		{
			"children":[
				11
			],
			"name":"mixamorig:RightHandIndex3",
			"rotation":[
				-8.109025657176971e-06,
				1.1958945833612233e-07,
				-3.885943442583084e-07,
				1
			],
			"translation":[
				-0.0020474418997764587,
				2.44827938079834,
				0.1889110803604126
			]
		},
		{
			"children":[
				12
			],
			"name":"mixamorig:RightHandIndex2",
			"rotation":[
				8.753300789976493e-06,
				-6.091813702369109e-07,
				-2.9502552933990955e-07,
				1
			],
			"translation":[
				2.123415470123291e-06,
				1.5699113607406616,
				4.4733285903930664e-05
			]
		},
		{
			"children":[
				13
			],
			"name":"mixamorig:RightHandIndex1",
			"rotation":[
				-0.01835802011191845,
				-0.00025550471036694944,
				0.013924365863204002,
				0.9997344613075256
			],
			"scale":[
				1,
				0.9999999403953552,
				1
			],
			"translation":[
				-2.86102294921875e-06,
				11.207122802734375,
				1.6003847122192383e-05
			]
		},
		{
			"children":[
				14
			],
			"name":"mixamorig:RightHand",
			"rotation":[
				0.006792475003749132,
				-0.0001742880413075909,
				-0.0256708525121212,
				0.9996473789215088
			],
			"translation":[
				-4.410743713378906e-06,
				25.663116455078125,
				1.8656253814697266e-05
			]
		},
		{
			"children":[
				15
			],
			"name":"mixamorig:RightForeArm",
			"rotation":[
				-0.022420259192585945,
				-0.0004653234500437975,
				0.02073786035180092,
				0.999533474445343
			],
			"scale":[
				0.9999998807907104,
				0.9999999403953552,
				0.9999999403953552
			],
			"translation":[
				-7.152557373046875e-06,
				25.17531394958496,
				8.031725883483887e-05
			]
		},
		{
			"children":[
				16
			],
			"name":"mixamorig:RightArm",
			"rotation":[
				-0.11704128235578537,
				0.0009480401058681309,
				-0.008045151829719543,
				0.9930939674377441
			],
			"translation":[
				-2.034008502960205e-06,
				18.499231338500977,
				1.0222196578979492e-05
			]
		},
		{
			"children":[
				17
			],
			"name":"mixamorig:RightShoulder",
			"rotation":[
				0.56247878074646,
				-0.42883145809173584,
				0.560697615146637,
				0.4305107295513153
			],
			"scale":[
				1,
				1.0000001192092896,
				1.0000001192092896
			],
			"translation":[
				-8.811420440673828,
				14.515125274658203,
				0.025187689810991287
			]
		},
		{
			"children":[
				2,
				10,
				18
			],
			"name":"mixamorig:Spine2",
			"rotation":[
				2.60770320892334e-07,
				2.2506698726942886e-08,
				1.732962663886055e-14,
				1
			],
			"translation":[
				9.774325349098945e-09,
				15.137530326843262,
				2.163238832508796e-06
			]
		},
		{
			"children":[
				19
			],
			"name":"mixamorig:Spine1",
			"rotation":[
				1.4901161193847656e-08,
				7.450582373280668e-09,
				5.35901122706206e-16,
				1
			],
			"translation":[
				-5.3088442086846044e-08,
				13.245330810546875,
				3.111089199592243e-06
			]
		},
		{
			"children":[
				20
			],
			"name":"mixamorig:Spine",
			"rotation":[
				-0.03351837769150734,
				1.468831456463704e-08,
				-5.063202079824691e-10,
				0.9994381070137024
			],
			"translation":[
				-5.887059728593158e-08,
				11.327621459960938,
				-0.7606485486030579
			]
		},
		{
			"name":"mixamorig:LeftToe_End",
			"rotation":[
				-1.2863893061876297e-08,
				2.4010661903162145e-08,
				-2.0372682707492373e-10,
				1
			],
			"scale":[
				0.9999999403953552,
				1,
				1
			],
			"translation":[
				6.698537617921829e-07,
				7.148324012756348,
				-1.9818544387817383e-06
			]
		},
		{
			"children":[
				22
			],
			"name":"mixamorig:LeftToeBase",
			"rotation":[
				0.3537377119064331,
				-0.005912476219236851,
				0.0022360493894666433,
				0.9353232979774475
			],
			"scale":[
				0.9999998807907104,
				1,
				1
			],
			"translation":[
				8.912524208426476e-06,
				18.429889678955078,
				9.514391422271729e-06
			]
		},
		{
			"children":[
				23
			],
			"name":"mixamorig:LeftFoot",
			"rotation":[
				0.45113006234169006,
				0.013414982706308365,
				-0.006781888660043478,
				0.8923316597938538
			],
			"scale":[
				1,
				1.0000001192092896,
				1
			],
			"translation":[
				-2.894892531912774e-06,
				37.356719970703125,
				-1.1511147022247314e-06
			]
		},
		{
			"children":[
				24
			],
			"name":"mixamorig:LeftLeg",
			"rotation":[
				-0.017699556425213814,
				0.00026736196014098823,
				-0.015057871118187904,
				0.9997299313545227
			],
			"scale":[
				0.9999999403953552,
				1,
				1
			],
			"translation":[
				-1.8836675735656172e-05,
				46.760066986083984,
				4.887860995950177e-07
			]
		},
		{
			"children":[
				25
			],
			"name":"mixamorig:LeftUpLeg",
			"rotation":[
				1.9245760995545425e-05,
				0.0020172432996332645,
				-0.9999526143074036,
				0.009523342363536358
			],
			"scale":[
				1.0000001192092896,
				1,
				0.9999999403953552
			],
			"translation":[
				9.047194480895996,
				-6.3031158447265625,
				0.5039992928504944
			]
		},
		{
			"name":"mixamorig:RightToe_End",
			"rotation":[
				1.3489624528517652e-08,
				-8.527422323822975e-09,
				-2.9103830456733704e-11,
				1
			],
			"scale":[
				1,
				1,
				1.0000001192092896
			],
			"translation":[
				6.845220923423767e-07,
				7.272384166717529,
				-1.5050172805786133e-06
			]
		},
		{
			"children":[
				27
			],
			"name":"mixamorig:RightToeBase",
			"rotation":[
				0.33985915780067444,
				0.004904530476778746,
				-0.0017723219934850931,
				0.9404619336128235
			],
			"scale":[
				0.9999999403953552,
				1,
				0.9999999403953552
			],
			"translation":[
				-7.527414709329605e-06,
				19.126007080078125,
				-4.8317015171051025e-06
			]
		},
		{
			"children":[
				28
			],
			"name":"mixamorig:RightFoot",
			"rotation":[
				0.47189629077911377,
				-0.012386797927320004,
				0.006630472838878632,
				0.8815420866012573
			],
			"translation":[
				1.392723061144352e-05,
				37.38945770263672,
				-3.396999090909958e-06
			]
		},
		{
			"children":[
				29
			],
			"name":"mixamorig:RightLeg",
			"rotation":[
				-0.023931249976158142,
				-0.00036110368091613054,
				0.01505400612950325,
				0.9996002316474915
			],
			"translation":[
				-1.5600176993757486e-05,
				46.761817932128906,
				7.664938266316312e-07
			]
		},
		{
			"children":[
				30
			],
			"name":"mixamorig:RightUpLeg",
			"rotation":[
				4.5875833166064695e-05,
				-0.004817293956875801,
				0.9999430179595947,
				0.009523251093924046
			],
			"scale":[
				1.0000001192092896,
				1.0000001192092896,
				1
			],
			"translation":[
				-9.047195434570312,
				-6.303123474121094,
				0.7190271019935608
			]
		},
		{
			"children":[
				21,
				26,
				31
			],
			"name":"mixamorig:Hips",
			"rotation":[
				5.9502347937723243e-08,
				2.0458656990740565e-10,
				1.2152453658970739e-17,
				1
			],
			"translation":[
				0.3908335268497467,
				101.67827606201172,
				-1.0333127975463867
			]
		},
		{
			"mesh":0,
			"name":"OB_maincharacter_tpose",
			"skin":0
		},
		{
			"children":[
				33,
				32
			],
			"name":"Player"
		}
	],
	"animations":[
		{
			"channels":[
				{
					"sampler":0,
					"target":{
						"node":32,
						"path":"translation"
					}
				},
				{
					"sampler":1,
					"target":{
						"node":32,
						"path":"rotation"
					}
				},
				{
					"sampler":2,
					"target":{
						"node":21,
						"path":"rotation"
					}
				},
				{
					"sampler":3,
					"target":{
						"node":20,
						"path":"rotation"
					}
				},
				{
					"sampler":4,
					"target":{
						"node":19,
						"path":"rotation"
					}
				},
				{
					"sampler":5,
					"target":{
						"node":2,
						"path":"rotation"
					}
				},
				{
					"sampler":6,
					"target":{
						"node":1,
						"path":"rotation"
					}
				},
				{
					"sampler":7,
					"target":{
						"node":10,
						"path":"rotation"
					}
				},
				{
					"sampler":8,
					"target":{
						"node":9,
						"path":"rotation"
					}
				},
				{
					"sampler":9,
					"target":{
						"node":8,
						"path":"rotation"
					}
				},
				{
					"sampler":10,
					"target":{
						"node":7,
						"path":"rotation"
					}
				},
				{
					"sampler":11,
					"target":{
						"node":6,
						"path":"rotation"
					}
				},
				{
					"sampler":12,
					"target":{
						"node":5,
						"path":"rotation"
					}
				},
				{
					"sampler":13,
					"target":{
						"node":4,
						"path":"rotation"
					}
				},
				{
					"sampler":14,
					"target":{
						"node":18,
						"path":"rotation"
					}
				},
				{
					"sampler":15,
					"target":{
						"node":17,
						"path":"rotation"
					}
				},
				{
					"sampler":16,
					"target":{
						"node":16,
						"path":"rotation"
					}
				},
				{
					"sampler":17,
					"target":{
						"node":15,
						"path":"rotation"
					}
				},
				{
					"sampler":18,
					"target":{
						"node":14,
						"path":"rotation"
					}
				},
				{
					"sampler":19,
					"target":{
						"node":13,
						"path":"rotation"
					}
				},
				{
					"sampler":20,
					"target":{
						"node":12,
						"path":"rotation"
					}
				},
				{
					"sampler":21,
					"target":{
						"node":26,
						"path":"rotation"
					}
				},
				{
					"sampler":22,
					"target":{
						"node":25,
						"path":"rotation"
					}
				},
				{
					"sampler":23,
					"target":{
						"node":24,
						"path":"rotation"
					}
				},
				{
					"sampler":24,
					"target":{
						"node":23,
						"path":"rotation"
					}
				},
				{
					"sampler":25,
					"target":{
						"node":31,
						"path":"rotation"
					}
				},
				{
					"sampler":26,
					"target":{
						"node":30,
						"path":"rotation"
					}
				},
				{
					"sampler":27,
					"target":{
						"node":29,
						"path":"rotation"
					}
				},
				{
					"sampler":28,
					"target":{
						"node":28,
						"path":"rotation"
					}
				}
			],
			"name":"NlaTrack",
			"samplers":[
				{
					"input":9,
					"interpolation":"LINEAR",
					"output":10
				},
				{
					"input":9,
					"interpolation":"LINEAR",
					"output":11
				},
				{
					"input":9,
					"interpolation":"LINEAR",
					"output":12
				},
				{
					"input":9,
					"interpolation":"LINEAR",
					"output":13
				},
				{
					"input":9,
					"interpolation":"LINEAR",
					"output":14
				},
				{
					"input":9,
					"interpolation":"LINEAR",
					"output":15
				},
				{
					"input":9,
					"interpolation":"LINEAR",
					"output":16
				},
				{
					"input":9,
					"interpolation":"LINEAR",
					"output":17
				},
				{
					"input":9,
					"interpolation":"LINEAR",
					"output":18
				},
				{
					"input":9,
					"interpolation":"LINEAR",
					"output":19
				},
				{
					"input":9,
					"interpolation":"LINEAR",
					"output":20
				},
				{
					"input":9,
					"interpolation":"LINEAR",
					"output":21
				},
				{
					"input":9,
					"interpolation":"LINEAR",
					"output":22
				},
				{
					"input":9,
					"interpolation":"LINEAR",
					"output":23
				},
				{
					"input":9,
					"interpolation":"LINEAR",
					"output":24
				},
				{
					"input":9,
					"interpolation":"LINEAR",
					"output":25
				},
				{
					"input":9,
					"interpolation":"LINEAR",
					"output":26
				},
				{
					"input":9,
					"interpolation":"LINEAR",
					"output":27
				},
				{
					"input":9,
					"interpolation":"LINEAR",
					"output":28
				},
				{
					"input":9,
					"interpolation":"LINEAR",
					"output":29
				},
				{
					"input":9,
					"interpolation":"LINEAR",
					"output":30
				},
				{
					"input":9,
					"interpolation":"LINEAR",
					"output":31
				},
				{
					"input":9,
					"interpolation":"LINEAR",
					"output":32
				},
				{
					"input":9,
					"interpolation":"LINEAR",
					"output":33
				},
				{
					"input":9,
					"interpolation":"LINEAR",
					"output":34
				},
				{
					"input":9,
					"interpolation":"LINEAR",
					"output":35
				},
				{
					"input":9,
					"interpolation":"LINEAR",
					"output":36
				},
				{
					"input":9,
					"interpolation":"LINEAR",
					"output":37
				},
				{
					"input":9,
					"interpolation":"LINEAR",
					"output":38
				}
			]
		}
	],
	"materials":[
		{
			"doubleSided":true,
			"emissiveTexture":{
				"index":0
			},
			"name":"textures.001",
			"normalTexture":{
				"index":1
			},
			"pbrMetallicRoughness":{
				"baseColorTexture":{
					"index":2
				},
				"metallicRoughnessTexture":{
					"index":3
				}
			}
		}
	],
	"meshes":[
		{
			"name":"Mesh.002",
			"primitives":[
				{
					"attributes":{
						"POSITION":0,
						"NORMAL":1,
						"TEXCOORD_0":2,
						"TANGENT":3,
						"COLOR_0":4,
						"JOINTS_0":5,
						"WEIGHTS_0":6
					},
					"indices":7,
					"material":0
				}
			]
		}
	],
	"textures":[
		{
			"sampler":0,
			"source":0
		},
		{
			"sampler":0,
			"source":1
		},
		{
			"sampler":0,
			"source":2
		},
		{
			"sampler":0,
			"source":3
		}
	],
	"images":[
		{
			"mimeType":"image/png",
			"name":"OB_maincharacter_tpose_RiggedCharacter_MainCharacter_Emissive",
			"uri":"OB_maincharacter_tpose_RiggedCharacter_MainCharacter_Emissive.png"
		},
		{
			"mimeType":"image/png",
			"name":"OB_maincharacter_tpose_RiggedCharacter_MainCharacter_Normal",
			"uri":"OB_maincharacter_tpose_RiggedCharacter_MainCharacter_Normal.png"
		},
		{
			"mimeType":"image/png",
			"name":"OB_maincharacter_tpose_RiggedCharacter_MainCharacter_BaseColor",
			"uri":"OB_maincharacter_tpose_RiggedCharacter_MainCharacter_BaseColor.png"
		},
		{
			"mimeType":"image/png",
			"name":"OB_maincharacter_tpose_RiggedCharacter_MainCharacter_Occlus",
			"uri":"OB_maincharacter_tpose_RiggedCharacter_MainCharacter_Occlus.png"
		}
	],
	"skins":[
		{
			"inverseBindMatrices":8,
			"joints":[
				32,
				21,
				20,
				19,
				2,
				1,
				0,
				10,
				9,
				8,
				7,
				6,
				5,
				4,
				3,
				18,
				17,
				16,
				15,
				14,
				13,
				12,
				11,
				26,
				25,
				24,
				23,
				22,
				31,
				30,
				29,
				28,
				27
			],
			"name":"Player"
		}
	],
	"accessors":[
		{
			"bufferView":0,
			"componentType":5126,
			"count":21748,
			"max":[
				96.46603393554688,
				190.08746337890625,
				20.816503524780273
			],
			"min":[
				-94.89849090576172,
				-1.595693826675415,
				-17.560335159301758
			],
			"type":"VEC3"
		},
		{
			"bufferView":1,
			"componentType":5126,
			"count":21748,
			"type":"VEC3"
		},
		{
			"bufferView":2,
			"componentType":5126,
			"count":21748,
			"type":"VEC2"
		},
		{
			"bufferView":3,
			"componentType":5126,
			"count":21748,
			"type":"VEC4"
		},
		{
			"bufferView":4,
			"componentType":5126,
			"count":21748,
			"type":"VEC3"
		},
		{
			"bufferView":5,
			"componentType":5121,
			"count":21748,
			"type":"VEC4"
		},
		{
			"bufferView":6,
			"componentType":5126,
			"count":21748,
			"type":"VEC4"
		},
		{
			"bufferView":7,
			"componentType":5123,
			"count":88050,
			"type":"SCALAR"
		},
		{
			"bufferView":8,
			"componentType":5126,
			"count":33,
			"type":"MAT4"
		},
		{
			"bufferView":9,
			"componentType":5126,
			"count":85,
			"max":[
				2.8
			],
			"min":[
				0
			],
			"type":"SCALAR"
		},
		{
			"bufferView":10,
			"componentType":5126,
			"count":85,
			"type":"VEC3"
		},
		{
			"bufferView":11,
			"componentType":5126,
			"count":85,
			"type":"VEC4"
		},
		{
			"bufferView":12,
			"componentType":5126,
			"count":85,
			"type":"VEC4"
		},
		{
			"bufferView":13,
			"componentType":5126,
			"count":85,
			"type":"VEC4"
		},
		{
			"bufferView":14,
			"componentType":5126,
			"count":85,
			"type":"VEC4"
		},
		{
			"bufferView":15,
			"componentType":5126,
			"count":85,
			"type":"VEC4"
		},
		{
			"bufferView":16,
			"componentType":5126,
			"count":85,
			"type":"VEC4"
		},
		{
			"bufferView":17,
			"componentType":5126,
			"count":85,
			"type":"VEC4"
		},
		{
			"bufferView":18,
			"componentType":5126,
			"count":85,
			"type":"VEC4"
		},
		{
			"bufferView":19,
			"componentType":5126,
			"count":85,
			"type":"VEC4"
		},
		{
			"bufferView":20,
			"componentType":5126,
			"count":85,
			"type":"VEC4"
		},
		{
			"bufferView":21,
			"componentType":5126,
			"count":85,
			"type":"VEC4"
		},
		{
			"bufferView":22,
			"componentType":5126,
			"count":85,
			"type":"VEC4"
		},
		{
			"bufferView":23,
			"componentType":5126,
			"count":85,
			"type":"VEC4"
		},
		{
			"bufferView":24,
			"componentType":5126,
			"count":85,
			"type":"VEC4"
		},
		{
			"bufferView":25,
			"componentType":5126,
			"count":85,
			"type":"VEC4"
		},
		{
			"bufferView":26,
			"componentType":5126,
			"count":85,
			"type":"VEC4"
		},
		{
			"bufferView":27,
			"componentType":5126,
			"count":85,
			"type":"VEC4"
		},
		{
			"bufferView":28,
			"componentType":5126,
			"count":85,
			"type":"VEC4"
		},
		{
			"bufferView":29,
			"componentType":5126,
			"count":85,
			"type":"VEC4"
		},
		{
			"bufferView":30,
			"componentType":5126,
			"count":85,
			"type":"VEC4"
		},
		{
			"bufferView":31,
			"componentType":5126,
			"count":85,
			"type":"VEC4"
		},
		{
			"bufferView":32,
			"componentType":5126,
			"count":85,
			"type":"VEC4"
		},
		{
			"bufferView":33,
			"componentType":5126,
			"count":85,
			"type":"VEC4"
		},
		{
			"bufferView":34,
			"componentType":5126,
			"count":85,
			"type":"VEC4"
		},
		{
			"bufferView":35,
			"componentType":5126,
			"count":85,
			"type":"VEC4"
		},
		{
			"bufferView":36,
			"componentType":5126,
			"count":85,
			"type":"VEC4"
		},
		{
			"bufferView":37,
			"componentType":5126,
			"count":85,
			"type":"VEC4"
		},
		{
			"bufferView":38,
			"componentType":5126,
			"count":85,
			"type":"VEC4"
		}
	],
	"bufferViews":[
		{
			"buffer":0,
			"byteLength":260976,
			"byteOffset":0,
			"target":34962
		},
		{
			"buffer":0,
			"byteLength":260976,
			"byteOffset":260976,
			"target":34962
		},
		{
			"buffer":0,
			"byteLength":173984,
			"byteOffset":521952,
			"target":34962
		},
		{
			"buffer":0,
			"byteLength":347968,
			"byteOffset":695936,
			"target":34962
		},
		{
			"buffer":0,
			"byteLength":260976,
			"byteOffset":1043904,
			"target":34962
		},
		{
			"buffer":0,
			"byteLength":86992,
			"byteOffset":1304880,
			"target":34962
		},
		{
			"buffer":0,
			"byteLength":347968,
			"byteOffset":1391872,
			"target":34962
		},
		{
			"buffer":0,
			"byteLength":176100,
			"byteOffset":1739840,
			"target":34963
		},
		{
			"buffer":0,
			"byteLength":2112,
			"byteOffset":1915940
		},
		{
			"buffer":0,
			"byteLength":340,
			"byteOffset":1918052
		},
		{
			"buffer":0,
			"byteLength":1020,
			"byteOffset":1918392
		},
		{
			"buffer":0,
			"byteLength":1360,
			"byteOffset":1919412
		},
		{
			"buffer":0,
			"byteLength":1360,
			"byteOffset":1920772
		},
		{
			"buffer":0,
			"byteLength":1360,
			"byteOffset":1922132
		},
		{
			"buffer":0,
			"byteLength":1360,
			"byteOffset":1923492
		},
		{
			"buffer":0,
			"byteLength":1360,
			"byteOffset":1924852
		},
		{
			"buffer":0,
			"byteLength":1360,
			"byteOffset":1926212
		},
		{
			"buffer":0,
			"byteLength":1360,
			"byteOffset":1927572
		},
		{
			"buffer":0,
			"byteLength":1360,
			"byteOffset":1928932
		},
		{
			"buffer":0,
			"byteLength":1360,
			"byteOffset":1930292
		},
		{
			"buffer":0,
			"byteLength":1360,
			"byteOffset":1931652
		},
		{
			"buffer":0,
			"byteLength":1360,
			"byteOffset":1933012
		},
		{
			"buffer":0,
			"byteLength":1360,
			"byteOffset":1934372
		},
		{
			"buffer":0,
			"byteLength":1360,
			"byteOffset":1935732
		},
		{
			"buffer":0,
			"byteLength":1360,
			"byteOffset":1937092
		},
		{
			"buffer":0,
			"byteLength":1360,
			"byteOffset":1938452
		},
		{
			"buffer":0,
			"byteLength":1360,
			"byteOffset":1939812
		},
		{
			"buffer":0,
			"byteLength":1360,
			"byteOffset":1941172
		},
		{
			"buffer":0,
			"byteLength":1360,
			"byteOffset":1942532
		},
		{
			"buffer":0,
			"byteLength":1360,
			"byteOffset":1943892
		},
		{
			"buffer":0,
			"byteLength":1360,
			"byteOffset":1945252
		},
		{
			"buffer":0,
			"byteLength":1360,
			"byteOffset":1946612
		},
		{
			"buffer":0,
			"byteLength":1360,
			"byteOffset":1947972
		},
		{
			"buffer":0,
			"byteLength":1360,
			"byteOffset":1949332
		},
		{
			"buffer":0,
			"byteLength":1360,
			"byteOffset":1950692
		},
		{
			"buffer":0,
			"byteLength":1360,
			"byteOffset":1952052
		},
		{
			"buffer":0,
			"byteLength":1360,
			"byteOffset":1953412
		},
		{
			"buffer":0,
			"byteLength":1360,
			"byteOffset":1954772
		},
		{
			"buffer":0,
			"byteLength":1360,
			"byteOffset":1956132
		}
	],
	"samplers":[
		{
			"magFilter":9729,
			"minFilter":9987
		}
	],
	"buffers":[
		{
			"byteLength":1957492,
			"uri":"personaje.bin"
		}
	]
}
